G75*
%MOIN*%
%OFA0B0*%
%FSLAX25Y25*%
%IPPOS*%
%LPD*%
%AMOC8*
5,1,8,0,0,1.08239X$1,22.5*
%
%ADD10C,0.00374*%
%ADD11C,0.00610*%
%ADD12C,0.00370*%
%ADD13C,0.00365*%
%ADD14C,0.00531*%
%ADD15C,0.00452*%
%ADD16C,0.00354*%
%ADD17C,0.00767*%
%ADD18C,0.07087*%
%ADD19C,0.00383*%
%ADD20R,0.03000X0.05250*%
%ADD21C,0.00740*%
%ADD22C,0.00360*%
%ADD23C,0.00491*%
%ADD24C,0.00480*%
%ADD25C,0.00413*%
%ADD26C,0.00368*%
D10*
X0166973Y0130560D02*
X0170335Y0130560D01*
X0166973Y0130560D02*
X0166973Y0134316D01*
X0170335Y0134316D01*
X0170335Y0130560D01*
X0170335Y0130933D02*
X0166973Y0130933D01*
X0166973Y0131306D02*
X0170335Y0131306D01*
X0170335Y0131679D02*
X0166973Y0131679D01*
X0166973Y0132052D02*
X0170335Y0132052D01*
X0170335Y0132425D02*
X0166973Y0132425D01*
X0166973Y0132798D02*
X0170335Y0132798D01*
X0170335Y0133171D02*
X0166973Y0133171D01*
X0166973Y0133544D02*
X0170335Y0133544D01*
X0170335Y0133917D02*
X0166973Y0133917D01*
X0166973Y0134290D02*
X0170335Y0134290D01*
X0173665Y0130560D02*
X0177027Y0130560D01*
X0173665Y0130560D02*
X0173665Y0134316D01*
X0177027Y0134316D01*
X0177027Y0130560D01*
X0177027Y0130933D02*
X0173665Y0130933D01*
X0173665Y0131306D02*
X0177027Y0131306D01*
X0177027Y0131679D02*
X0173665Y0131679D01*
X0173665Y0132052D02*
X0177027Y0132052D01*
X0177027Y0132425D02*
X0173665Y0132425D01*
X0173665Y0132798D02*
X0177027Y0132798D01*
X0177027Y0133171D02*
X0173665Y0133171D01*
X0173665Y0133544D02*
X0177027Y0133544D01*
X0177027Y0133917D02*
X0173665Y0133917D01*
X0173665Y0134290D02*
X0177027Y0134290D01*
X0197819Y0132662D02*
X0197819Y0128906D01*
X0197819Y0132662D02*
X0201181Y0132662D01*
X0201181Y0128906D01*
X0197819Y0128906D01*
X0197819Y0129279D02*
X0201181Y0129279D01*
X0201181Y0129652D02*
X0197819Y0129652D01*
X0197819Y0130025D02*
X0201181Y0130025D01*
X0201181Y0130398D02*
X0197819Y0130398D01*
X0197819Y0130771D02*
X0201181Y0130771D01*
X0201181Y0131144D02*
X0197819Y0131144D01*
X0197819Y0131517D02*
X0201181Y0131517D01*
X0201181Y0131890D02*
X0197819Y0131890D01*
X0197819Y0132263D02*
X0201181Y0132263D01*
X0201181Y0132636D02*
X0197819Y0132636D01*
X0197819Y0125969D02*
X0197819Y0122213D01*
X0197819Y0125969D02*
X0201181Y0125969D01*
X0201181Y0122213D01*
X0197819Y0122213D01*
X0197819Y0122586D02*
X0201181Y0122586D01*
X0201181Y0122959D02*
X0197819Y0122959D01*
X0197819Y0123332D02*
X0201181Y0123332D01*
X0201181Y0123705D02*
X0197819Y0123705D01*
X0197819Y0124078D02*
X0201181Y0124078D01*
X0201181Y0124451D02*
X0197819Y0124451D01*
X0197819Y0124824D02*
X0201181Y0124824D01*
X0201181Y0125197D02*
X0197819Y0125197D01*
X0197819Y0125570D02*
X0201181Y0125570D01*
X0201181Y0125943D02*
X0197819Y0125943D01*
X0255776Y0191757D02*
X0259532Y0191757D01*
X0255776Y0191757D02*
X0255776Y0195119D01*
X0259532Y0195119D01*
X0259532Y0191757D01*
X0259532Y0192130D02*
X0255776Y0192130D01*
X0255776Y0192503D02*
X0259532Y0192503D01*
X0259532Y0192876D02*
X0255776Y0192876D01*
X0255776Y0193249D02*
X0259532Y0193249D01*
X0259532Y0193622D02*
X0255776Y0193622D01*
X0255776Y0193995D02*
X0259532Y0193995D01*
X0259532Y0194368D02*
X0255776Y0194368D01*
X0255776Y0194741D02*
X0259532Y0194741D01*
X0259532Y0195114D02*
X0255776Y0195114D01*
X0262468Y0191757D02*
X0266224Y0191757D01*
X0262468Y0191757D02*
X0262468Y0195119D01*
X0266224Y0195119D01*
X0266224Y0191757D01*
X0266224Y0192130D02*
X0262468Y0192130D01*
X0262468Y0192503D02*
X0266224Y0192503D01*
X0266224Y0192876D02*
X0262468Y0192876D01*
X0262468Y0193249D02*
X0266224Y0193249D01*
X0266224Y0193622D02*
X0262468Y0193622D01*
X0262468Y0193995D02*
X0266224Y0193995D01*
X0266224Y0194368D02*
X0262468Y0194368D01*
X0262468Y0194741D02*
X0266224Y0194741D01*
X0266224Y0195114D02*
X0262468Y0195114D01*
X0288776Y0194119D02*
X0292532Y0194119D01*
X0292532Y0190757D01*
X0288776Y0190757D01*
X0288776Y0194119D01*
X0288776Y0191130D02*
X0292532Y0191130D01*
X0292532Y0191503D02*
X0288776Y0191503D01*
X0288776Y0191876D02*
X0292532Y0191876D01*
X0292532Y0192249D02*
X0288776Y0192249D01*
X0288776Y0192622D02*
X0292532Y0192622D01*
X0292532Y0192995D02*
X0288776Y0192995D01*
X0288776Y0193368D02*
X0292532Y0193368D01*
X0292532Y0193741D02*
X0288776Y0193741D01*
X0288776Y0194114D02*
X0292532Y0194114D01*
X0295468Y0194119D02*
X0299224Y0194119D01*
X0299224Y0190757D01*
X0295468Y0190757D01*
X0295468Y0194119D01*
X0295468Y0191130D02*
X0299224Y0191130D01*
X0299224Y0191503D02*
X0295468Y0191503D01*
X0295468Y0191876D02*
X0299224Y0191876D01*
X0299224Y0192249D02*
X0295468Y0192249D01*
X0295468Y0192622D02*
X0299224Y0192622D01*
X0299224Y0192995D02*
X0295468Y0192995D01*
X0295468Y0193368D02*
X0299224Y0193368D01*
X0299224Y0193741D02*
X0295468Y0193741D01*
X0295468Y0194114D02*
X0299224Y0194114D01*
X0304276Y0176619D02*
X0308032Y0176619D01*
X0308032Y0173257D01*
X0304276Y0173257D01*
X0304276Y0176619D01*
X0304276Y0173630D02*
X0308032Y0173630D01*
X0308032Y0174003D02*
X0304276Y0174003D01*
X0304276Y0174376D02*
X0308032Y0174376D01*
X0308032Y0174749D02*
X0304276Y0174749D01*
X0304276Y0175122D02*
X0308032Y0175122D01*
X0308032Y0175495D02*
X0304276Y0175495D01*
X0304276Y0175868D02*
X0308032Y0175868D01*
X0308032Y0176241D02*
X0304276Y0176241D01*
X0304276Y0176614D02*
X0308032Y0176614D01*
X0310968Y0176619D02*
X0314724Y0176619D01*
X0314724Y0173257D01*
X0310968Y0173257D01*
X0310968Y0176619D01*
X0310968Y0173630D02*
X0314724Y0173630D01*
X0314724Y0174003D02*
X0310968Y0174003D01*
X0310968Y0174376D02*
X0314724Y0174376D01*
X0314724Y0174749D02*
X0310968Y0174749D01*
X0310968Y0175122D02*
X0314724Y0175122D01*
X0314724Y0175495D02*
X0310968Y0175495D01*
X0310968Y0175868D02*
X0314724Y0175868D01*
X0314724Y0176241D02*
X0310968Y0176241D01*
X0310968Y0176614D02*
X0314724Y0176614D01*
X0314646Y0167938D02*
X0310890Y0167938D01*
X0314646Y0167938D02*
X0314646Y0164576D01*
X0310890Y0164576D01*
X0310890Y0167938D01*
X0310890Y0164949D02*
X0314646Y0164949D01*
X0314646Y0165322D02*
X0310890Y0165322D01*
X0310890Y0165695D02*
X0314646Y0165695D01*
X0314646Y0166068D02*
X0310890Y0166068D01*
X0310890Y0166441D02*
X0314646Y0166441D01*
X0314646Y0166814D02*
X0310890Y0166814D01*
X0310890Y0167187D02*
X0314646Y0167187D01*
X0314646Y0167560D02*
X0310890Y0167560D01*
X0310890Y0167933D02*
X0314646Y0167933D01*
X0307953Y0167938D02*
X0304197Y0167938D01*
X0307953Y0167938D02*
X0307953Y0164576D01*
X0304197Y0164576D01*
X0304197Y0167938D01*
X0304197Y0164949D02*
X0307953Y0164949D01*
X0307953Y0165322D02*
X0304197Y0165322D01*
X0304197Y0165695D02*
X0307953Y0165695D01*
X0307953Y0166068D02*
X0304197Y0166068D01*
X0304197Y0166441D02*
X0307953Y0166441D01*
X0307953Y0166814D02*
X0304197Y0166814D01*
X0304197Y0167187D02*
X0307953Y0167187D01*
X0307953Y0167560D02*
X0304197Y0167560D01*
X0304197Y0167933D02*
X0307953Y0167933D01*
X0365417Y0213371D02*
X0368779Y0213371D01*
X0368779Y0209615D01*
X0365417Y0209615D01*
X0365417Y0213371D01*
X0365417Y0209988D02*
X0368779Y0209988D01*
X0368779Y0210361D02*
X0365417Y0210361D01*
X0365417Y0210734D02*
X0368779Y0210734D01*
X0368779Y0211107D02*
X0365417Y0211107D01*
X0365417Y0211480D02*
X0368779Y0211480D01*
X0368779Y0211853D02*
X0365417Y0211853D01*
X0365417Y0212226D02*
X0368779Y0212226D01*
X0368779Y0212599D02*
X0365417Y0212599D01*
X0365417Y0212972D02*
X0368779Y0212972D01*
X0368779Y0213345D02*
X0365417Y0213345D01*
X0372110Y0213371D02*
X0375472Y0213371D01*
X0375472Y0209615D01*
X0372110Y0209615D01*
X0372110Y0213371D01*
X0372110Y0209988D02*
X0375472Y0209988D01*
X0375472Y0210361D02*
X0372110Y0210361D01*
X0372110Y0210734D02*
X0375472Y0210734D01*
X0375472Y0211107D02*
X0372110Y0211107D01*
X0372110Y0211480D02*
X0375472Y0211480D01*
X0375472Y0211853D02*
X0372110Y0211853D01*
X0372110Y0212226D02*
X0375472Y0212226D01*
X0375472Y0212599D02*
X0372110Y0212599D01*
X0372110Y0212972D02*
X0375472Y0212972D01*
X0375472Y0213345D02*
X0372110Y0213345D01*
X0348224Y0249257D02*
X0344468Y0249257D01*
X0344468Y0252619D01*
X0348224Y0252619D01*
X0348224Y0249257D01*
X0348224Y0249630D02*
X0344468Y0249630D01*
X0344468Y0250003D02*
X0348224Y0250003D01*
X0348224Y0250376D02*
X0344468Y0250376D01*
X0344468Y0250749D02*
X0348224Y0250749D01*
X0348224Y0251122D02*
X0344468Y0251122D01*
X0344468Y0251495D02*
X0348224Y0251495D01*
X0348224Y0251868D02*
X0344468Y0251868D01*
X0344468Y0252241D02*
X0348224Y0252241D01*
X0348224Y0252614D02*
X0344468Y0252614D01*
X0341532Y0249257D02*
X0337776Y0249257D01*
X0337776Y0252619D01*
X0341532Y0252619D01*
X0341532Y0249257D01*
X0341532Y0249630D02*
X0337776Y0249630D01*
X0337776Y0250003D02*
X0341532Y0250003D01*
X0341532Y0250376D02*
X0337776Y0250376D01*
X0337776Y0250749D02*
X0341532Y0250749D01*
X0341532Y0251122D02*
X0337776Y0251122D01*
X0337776Y0251495D02*
X0341532Y0251495D01*
X0341532Y0251868D02*
X0337776Y0251868D01*
X0337776Y0252241D02*
X0341532Y0252241D01*
X0341532Y0252614D02*
X0337776Y0252614D01*
X0322021Y0279316D02*
X0318659Y0279316D01*
X0322021Y0279316D02*
X0322021Y0275560D01*
X0318659Y0275560D01*
X0318659Y0279316D01*
X0318659Y0275933D02*
X0322021Y0275933D01*
X0322021Y0276306D02*
X0318659Y0276306D01*
X0318659Y0276679D02*
X0322021Y0276679D01*
X0322021Y0277052D02*
X0318659Y0277052D01*
X0318659Y0277425D02*
X0322021Y0277425D01*
X0322021Y0277798D02*
X0318659Y0277798D01*
X0318659Y0278171D02*
X0322021Y0278171D01*
X0322021Y0278544D02*
X0318659Y0278544D01*
X0318659Y0278917D02*
X0322021Y0278917D01*
X0322021Y0279290D02*
X0318659Y0279290D01*
X0315328Y0279316D02*
X0311966Y0279316D01*
X0315328Y0279316D02*
X0315328Y0275560D01*
X0311966Y0275560D01*
X0311966Y0279316D01*
X0311966Y0275933D02*
X0315328Y0275933D01*
X0315328Y0276306D02*
X0311966Y0276306D01*
X0311966Y0276679D02*
X0315328Y0276679D01*
X0315328Y0277052D02*
X0311966Y0277052D01*
X0311966Y0277425D02*
X0315328Y0277425D01*
X0315328Y0277798D02*
X0311966Y0277798D01*
X0311966Y0278171D02*
X0315328Y0278171D01*
X0315328Y0278544D02*
X0311966Y0278544D01*
X0311966Y0278917D02*
X0315328Y0278917D01*
X0315328Y0279290D02*
X0311966Y0279290D01*
X0312622Y0287417D02*
X0312622Y0290779D01*
X0316378Y0290779D01*
X0316378Y0287417D01*
X0312622Y0287417D01*
X0312622Y0287790D02*
X0316378Y0287790D01*
X0316378Y0288163D02*
X0312622Y0288163D01*
X0312622Y0288536D02*
X0316378Y0288536D01*
X0316378Y0288909D02*
X0312622Y0288909D01*
X0312622Y0289282D02*
X0316378Y0289282D01*
X0316378Y0289655D02*
X0312622Y0289655D01*
X0312622Y0290028D02*
X0316378Y0290028D01*
X0316378Y0290401D02*
X0312622Y0290401D01*
X0312622Y0290774D02*
X0316378Y0290774D01*
X0312622Y0294109D02*
X0312622Y0297471D01*
X0316378Y0297471D01*
X0316378Y0294109D01*
X0312622Y0294109D01*
X0312622Y0294482D02*
X0316378Y0294482D01*
X0316378Y0294855D02*
X0312622Y0294855D01*
X0312622Y0295228D02*
X0316378Y0295228D01*
X0316378Y0295601D02*
X0312622Y0295601D01*
X0312622Y0295974D02*
X0316378Y0295974D01*
X0316378Y0296347D02*
X0312622Y0296347D01*
X0312622Y0296720D02*
X0316378Y0296720D01*
X0316378Y0297093D02*
X0312622Y0297093D01*
X0312622Y0297466D02*
X0316378Y0297466D01*
X0326181Y0297668D02*
X0326181Y0293912D01*
X0322819Y0293912D01*
X0322819Y0297668D01*
X0326181Y0297668D01*
X0326181Y0294285D02*
X0322819Y0294285D01*
X0322819Y0294658D02*
X0326181Y0294658D01*
X0326181Y0295031D02*
X0322819Y0295031D01*
X0322819Y0295404D02*
X0326181Y0295404D01*
X0326181Y0295777D02*
X0322819Y0295777D01*
X0322819Y0296150D02*
X0326181Y0296150D01*
X0326181Y0296523D02*
X0322819Y0296523D01*
X0322819Y0296896D02*
X0326181Y0296896D01*
X0326181Y0297269D02*
X0322819Y0297269D01*
X0322819Y0297642D02*
X0326181Y0297642D01*
X0326181Y0290976D02*
X0326181Y0287220D01*
X0322819Y0287220D01*
X0322819Y0290976D01*
X0326181Y0290976D01*
X0326181Y0287593D02*
X0322819Y0287593D01*
X0322819Y0287966D02*
X0326181Y0287966D01*
X0326181Y0288339D02*
X0322819Y0288339D01*
X0322819Y0288712D02*
X0326181Y0288712D01*
X0326181Y0289085D02*
X0322819Y0289085D01*
X0322819Y0289458D02*
X0326181Y0289458D01*
X0326181Y0289831D02*
X0322819Y0289831D01*
X0322819Y0290204D02*
X0326181Y0290204D01*
X0326181Y0290577D02*
X0322819Y0290577D01*
X0322819Y0290950D02*
X0326181Y0290950D01*
X0338878Y0290772D02*
X0338878Y0287410D01*
X0335122Y0287410D01*
X0335122Y0290772D01*
X0338878Y0290772D01*
X0338878Y0287783D02*
X0335122Y0287783D01*
X0335122Y0288156D02*
X0338878Y0288156D01*
X0338878Y0288529D02*
X0335122Y0288529D01*
X0335122Y0288902D02*
X0338878Y0288902D01*
X0338878Y0289275D02*
X0335122Y0289275D01*
X0335122Y0289648D02*
X0338878Y0289648D01*
X0338878Y0290021D02*
X0335122Y0290021D01*
X0335122Y0290394D02*
X0338878Y0290394D01*
X0338878Y0290767D02*
X0335122Y0290767D01*
X0338878Y0294103D02*
X0338878Y0297465D01*
X0338878Y0294103D02*
X0335122Y0294103D01*
X0335122Y0297465D01*
X0338878Y0297465D01*
X0338878Y0294476D02*
X0335122Y0294476D01*
X0335122Y0294849D02*
X0338878Y0294849D01*
X0338878Y0295222D02*
X0335122Y0295222D01*
X0335122Y0295595D02*
X0338878Y0295595D01*
X0338878Y0295968D02*
X0335122Y0295968D01*
X0335122Y0296341D02*
X0338878Y0296341D01*
X0338878Y0296714D02*
X0335122Y0296714D01*
X0335122Y0297087D02*
X0338878Y0297087D01*
X0338878Y0297460D02*
X0335122Y0297460D01*
X0358681Y0297662D02*
X0358681Y0293906D01*
X0355319Y0293906D01*
X0355319Y0297662D01*
X0358681Y0297662D01*
X0358681Y0294279D02*
X0355319Y0294279D01*
X0355319Y0294652D02*
X0358681Y0294652D01*
X0358681Y0295025D02*
X0355319Y0295025D01*
X0355319Y0295398D02*
X0358681Y0295398D01*
X0358681Y0295771D02*
X0355319Y0295771D01*
X0355319Y0296144D02*
X0358681Y0296144D01*
X0358681Y0296517D02*
X0355319Y0296517D01*
X0355319Y0296890D02*
X0358681Y0296890D01*
X0358681Y0297263D02*
X0355319Y0297263D01*
X0355319Y0297636D02*
X0358681Y0297636D01*
X0358681Y0290969D02*
X0358681Y0287213D01*
X0355319Y0287213D01*
X0355319Y0290969D01*
X0358681Y0290969D01*
X0358681Y0287586D02*
X0355319Y0287586D01*
X0355319Y0287959D02*
X0358681Y0287959D01*
X0358681Y0288332D02*
X0355319Y0288332D01*
X0355319Y0288705D02*
X0358681Y0288705D01*
X0358681Y0289078D02*
X0355319Y0289078D01*
X0355319Y0289451D02*
X0358681Y0289451D01*
X0358681Y0289824D02*
X0355319Y0289824D01*
X0355319Y0290197D02*
X0358681Y0290197D01*
X0358681Y0290570D02*
X0355319Y0290570D01*
X0355319Y0290943D02*
X0358681Y0290943D01*
X0349527Y0316822D02*
X0346165Y0316822D01*
X0349527Y0316822D02*
X0349527Y0313066D01*
X0346165Y0313066D01*
X0346165Y0316822D01*
X0346165Y0313439D02*
X0349527Y0313439D01*
X0349527Y0313812D02*
X0346165Y0313812D01*
X0346165Y0314185D02*
X0349527Y0314185D01*
X0349527Y0314558D02*
X0346165Y0314558D01*
X0346165Y0314931D02*
X0349527Y0314931D01*
X0349527Y0315304D02*
X0346165Y0315304D01*
X0346165Y0315677D02*
X0349527Y0315677D01*
X0349527Y0316050D02*
X0346165Y0316050D01*
X0346165Y0316423D02*
X0349527Y0316423D01*
X0349527Y0316796D02*
X0346165Y0316796D01*
X0342835Y0316822D02*
X0339473Y0316822D01*
X0342835Y0316822D02*
X0342835Y0313066D01*
X0339473Y0313066D01*
X0339473Y0316822D01*
X0339473Y0313439D02*
X0342835Y0313439D01*
X0342835Y0313812D02*
X0339473Y0313812D01*
X0339473Y0314185D02*
X0342835Y0314185D01*
X0342835Y0314558D02*
X0339473Y0314558D01*
X0339473Y0314931D02*
X0342835Y0314931D01*
X0342835Y0315304D02*
X0339473Y0315304D01*
X0339473Y0315677D02*
X0342835Y0315677D01*
X0342835Y0316050D02*
X0339473Y0316050D01*
X0339473Y0316423D02*
X0342835Y0316423D01*
X0342835Y0316796D02*
X0339473Y0316796D01*
X0339473Y0326822D02*
X0342835Y0326822D01*
X0342835Y0323066D01*
X0339473Y0323066D01*
X0339473Y0326822D01*
X0339473Y0323439D02*
X0342835Y0323439D01*
X0342835Y0323812D02*
X0339473Y0323812D01*
X0339473Y0324185D02*
X0342835Y0324185D01*
X0342835Y0324558D02*
X0339473Y0324558D01*
X0339473Y0324931D02*
X0342835Y0324931D01*
X0342835Y0325304D02*
X0339473Y0325304D01*
X0339473Y0325677D02*
X0342835Y0325677D01*
X0342835Y0326050D02*
X0339473Y0326050D01*
X0339473Y0326423D02*
X0342835Y0326423D01*
X0342835Y0326796D02*
X0339473Y0326796D01*
X0334724Y0323263D02*
X0330968Y0323263D01*
X0330968Y0326625D01*
X0334724Y0326625D01*
X0334724Y0323263D01*
X0334724Y0323636D02*
X0330968Y0323636D01*
X0330968Y0324009D02*
X0334724Y0324009D01*
X0334724Y0324382D02*
X0330968Y0324382D01*
X0330968Y0324755D02*
X0334724Y0324755D01*
X0334724Y0325128D02*
X0330968Y0325128D01*
X0330968Y0325501D02*
X0334724Y0325501D01*
X0334724Y0325874D02*
X0330968Y0325874D01*
X0330968Y0326247D02*
X0334724Y0326247D01*
X0334724Y0326620D02*
X0330968Y0326620D01*
X0328032Y0323263D02*
X0324276Y0323263D01*
X0324276Y0326625D01*
X0328032Y0326625D01*
X0328032Y0323263D01*
X0328032Y0323636D02*
X0324276Y0323636D01*
X0324276Y0324009D02*
X0328032Y0324009D01*
X0328032Y0324382D02*
X0324276Y0324382D01*
X0324276Y0324755D02*
X0328032Y0324755D01*
X0328032Y0325128D02*
X0324276Y0325128D01*
X0324276Y0325501D02*
X0328032Y0325501D01*
X0328032Y0325874D02*
X0324276Y0325874D01*
X0324276Y0326247D02*
X0328032Y0326247D01*
X0328032Y0326620D02*
X0324276Y0326620D01*
X0346165Y0326822D02*
X0349527Y0326822D01*
X0349527Y0323066D01*
X0346165Y0323066D01*
X0346165Y0326822D01*
X0346165Y0323439D02*
X0349527Y0323439D01*
X0349527Y0323812D02*
X0346165Y0323812D01*
X0346165Y0324185D02*
X0349527Y0324185D01*
X0349527Y0324558D02*
X0346165Y0324558D01*
X0346165Y0324931D02*
X0349527Y0324931D01*
X0349527Y0325304D02*
X0346165Y0325304D01*
X0346165Y0325677D02*
X0349527Y0325677D01*
X0349527Y0326050D02*
X0346165Y0326050D01*
X0346165Y0326423D02*
X0349527Y0326423D01*
X0349527Y0326796D02*
X0346165Y0326796D01*
X0355122Y0327465D02*
X0355122Y0324103D01*
X0355122Y0327465D02*
X0358878Y0327465D01*
X0358878Y0324103D01*
X0355122Y0324103D01*
X0355122Y0324476D02*
X0358878Y0324476D01*
X0358878Y0324849D02*
X0355122Y0324849D01*
X0355122Y0325222D02*
X0358878Y0325222D01*
X0358878Y0325595D02*
X0355122Y0325595D01*
X0355122Y0325968D02*
X0358878Y0325968D01*
X0358878Y0326341D02*
X0355122Y0326341D01*
X0355122Y0326714D02*
X0358878Y0326714D01*
X0358878Y0327087D02*
X0355122Y0327087D01*
X0355122Y0327460D02*
X0358878Y0327460D01*
X0355122Y0320772D02*
X0355122Y0317410D01*
X0355122Y0320772D02*
X0358878Y0320772D01*
X0358878Y0317410D01*
X0355122Y0317410D01*
X0355122Y0317783D02*
X0358878Y0317783D01*
X0358878Y0318156D02*
X0355122Y0318156D01*
X0355122Y0318529D02*
X0358878Y0318529D01*
X0358878Y0318902D02*
X0355122Y0318902D01*
X0355122Y0319275D02*
X0358878Y0319275D01*
X0358878Y0319648D02*
X0355122Y0319648D01*
X0355122Y0320021D02*
X0358878Y0320021D01*
X0358878Y0320394D02*
X0355122Y0320394D01*
X0355122Y0320767D02*
X0358878Y0320767D01*
X0306378Y0297471D02*
X0306378Y0294109D01*
X0302622Y0294109D01*
X0302622Y0297471D01*
X0306378Y0297471D01*
X0306378Y0294482D02*
X0302622Y0294482D01*
X0302622Y0294855D02*
X0306378Y0294855D01*
X0306378Y0295228D02*
X0302622Y0295228D01*
X0302622Y0295601D02*
X0306378Y0295601D01*
X0306378Y0295974D02*
X0302622Y0295974D01*
X0302622Y0296347D02*
X0306378Y0296347D01*
X0306378Y0296720D02*
X0302622Y0296720D01*
X0302622Y0297093D02*
X0306378Y0297093D01*
X0306378Y0297466D02*
X0302622Y0297466D01*
X0296378Y0297471D02*
X0296378Y0294109D01*
X0292622Y0294109D01*
X0292622Y0297471D01*
X0296378Y0297471D01*
X0296378Y0294482D02*
X0292622Y0294482D01*
X0292622Y0294855D02*
X0296378Y0294855D01*
X0296378Y0295228D02*
X0292622Y0295228D01*
X0292622Y0295601D02*
X0296378Y0295601D01*
X0296378Y0295974D02*
X0292622Y0295974D01*
X0292622Y0296347D02*
X0296378Y0296347D01*
X0296378Y0296720D02*
X0292622Y0296720D01*
X0292622Y0297093D02*
X0296378Y0297093D01*
X0296378Y0297466D02*
X0292622Y0297466D01*
X0282622Y0297471D02*
X0282622Y0294109D01*
X0282622Y0297471D02*
X0286378Y0297471D01*
X0286378Y0294109D01*
X0282622Y0294109D01*
X0282622Y0294482D02*
X0286378Y0294482D01*
X0286378Y0294855D02*
X0282622Y0294855D01*
X0282622Y0295228D02*
X0286378Y0295228D01*
X0286378Y0295601D02*
X0282622Y0295601D01*
X0282622Y0295974D02*
X0286378Y0295974D01*
X0286378Y0296347D02*
X0282622Y0296347D01*
X0282622Y0296720D02*
X0286378Y0296720D01*
X0286378Y0297093D02*
X0282622Y0297093D01*
X0282622Y0297466D02*
X0286378Y0297466D01*
X0282622Y0290779D02*
X0282622Y0287417D01*
X0282622Y0290779D02*
X0286378Y0290779D01*
X0286378Y0287417D01*
X0282622Y0287417D01*
X0282622Y0287790D02*
X0286378Y0287790D01*
X0286378Y0288163D02*
X0282622Y0288163D01*
X0282622Y0288536D02*
X0286378Y0288536D01*
X0286378Y0288909D02*
X0282622Y0288909D01*
X0282622Y0289282D02*
X0286378Y0289282D01*
X0286378Y0289655D02*
X0282622Y0289655D01*
X0282622Y0290028D02*
X0286378Y0290028D01*
X0286378Y0290401D02*
X0282622Y0290401D01*
X0282622Y0290774D02*
X0286378Y0290774D01*
X0296378Y0290779D02*
X0296378Y0287417D01*
X0292622Y0287417D01*
X0292622Y0290779D01*
X0296378Y0290779D01*
X0296378Y0287790D02*
X0292622Y0287790D01*
X0292622Y0288163D02*
X0296378Y0288163D01*
X0296378Y0288536D02*
X0292622Y0288536D01*
X0292622Y0288909D02*
X0296378Y0288909D01*
X0296378Y0289282D02*
X0292622Y0289282D01*
X0292622Y0289655D02*
X0296378Y0289655D01*
X0296378Y0290028D02*
X0292622Y0290028D01*
X0292622Y0290401D02*
X0296378Y0290401D01*
X0296378Y0290774D02*
X0292622Y0290774D01*
X0306378Y0290779D02*
X0306378Y0287417D01*
X0302622Y0287417D01*
X0302622Y0290779D01*
X0306378Y0290779D01*
X0306378Y0287790D02*
X0302622Y0287790D01*
X0302622Y0288163D02*
X0306378Y0288163D01*
X0306378Y0288536D02*
X0302622Y0288536D01*
X0302622Y0288909D02*
X0306378Y0288909D01*
X0306378Y0289282D02*
X0302622Y0289282D01*
X0302622Y0289655D02*
X0306378Y0289655D01*
X0306378Y0290028D02*
X0302622Y0290028D01*
X0302622Y0290401D02*
X0306378Y0290401D01*
X0306378Y0290774D02*
X0302622Y0290774D01*
X0274724Y0296625D02*
X0270968Y0296625D01*
X0274724Y0296625D02*
X0274724Y0293263D01*
X0270968Y0293263D01*
X0270968Y0296625D01*
X0270968Y0293636D02*
X0274724Y0293636D01*
X0274724Y0294009D02*
X0270968Y0294009D01*
X0270968Y0294382D02*
X0274724Y0294382D01*
X0274724Y0294755D02*
X0270968Y0294755D01*
X0270968Y0295128D02*
X0274724Y0295128D01*
X0274724Y0295501D02*
X0270968Y0295501D01*
X0270968Y0295874D02*
X0274724Y0295874D01*
X0274724Y0296247D02*
X0270968Y0296247D01*
X0270968Y0296620D02*
X0274724Y0296620D01*
X0268032Y0296625D02*
X0264276Y0296625D01*
X0268032Y0296625D02*
X0268032Y0293263D01*
X0264276Y0293263D01*
X0264276Y0296625D01*
X0264276Y0293636D02*
X0268032Y0293636D01*
X0268032Y0294009D02*
X0264276Y0294009D01*
X0264276Y0294382D02*
X0268032Y0294382D01*
X0268032Y0294755D02*
X0264276Y0294755D01*
X0264276Y0295128D02*
X0268032Y0295128D01*
X0268032Y0295501D02*
X0264276Y0295501D01*
X0264276Y0295874D02*
X0268032Y0295874D01*
X0268032Y0296247D02*
X0264276Y0296247D01*
X0264276Y0296620D02*
X0268032Y0296620D01*
X0269473Y0316822D02*
X0272835Y0316822D01*
X0272835Y0313066D01*
X0269473Y0313066D01*
X0269473Y0316822D01*
X0269473Y0313439D02*
X0272835Y0313439D01*
X0272835Y0313812D02*
X0269473Y0313812D01*
X0269473Y0314185D02*
X0272835Y0314185D01*
X0272835Y0314558D02*
X0269473Y0314558D01*
X0269473Y0314931D02*
X0272835Y0314931D01*
X0272835Y0315304D02*
X0269473Y0315304D01*
X0269473Y0315677D02*
X0272835Y0315677D01*
X0272835Y0316050D02*
X0269473Y0316050D01*
X0269473Y0316423D02*
X0272835Y0316423D01*
X0272835Y0316796D02*
X0269473Y0316796D01*
X0269473Y0326822D02*
X0272835Y0326822D01*
X0272835Y0323066D01*
X0269473Y0323066D01*
X0269473Y0326822D01*
X0269473Y0323439D02*
X0272835Y0323439D01*
X0272835Y0323812D02*
X0269473Y0323812D01*
X0269473Y0324185D02*
X0272835Y0324185D01*
X0272835Y0324558D02*
X0269473Y0324558D01*
X0269473Y0324931D02*
X0272835Y0324931D01*
X0272835Y0325304D02*
X0269473Y0325304D01*
X0269473Y0325677D02*
X0272835Y0325677D01*
X0272835Y0326050D02*
X0269473Y0326050D01*
X0269473Y0326423D02*
X0272835Y0326423D01*
X0272835Y0326796D02*
X0269473Y0326796D01*
X0264724Y0323263D02*
X0260968Y0323263D01*
X0260968Y0326625D01*
X0264724Y0326625D01*
X0264724Y0323263D01*
X0264724Y0323636D02*
X0260968Y0323636D01*
X0260968Y0324009D02*
X0264724Y0324009D01*
X0264724Y0324382D02*
X0260968Y0324382D01*
X0260968Y0324755D02*
X0264724Y0324755D01*
X0264724Y0325128D02*
X0260968Y0325128D01*
X0260968Y0325501D02*
X0264724Y0325501D01*
X0264724Y0325874D02*
X0260968Y0325874D01*
X0260968Y0326247D02*
X0264724Y0326247D01*
X0264724Y0326620D02*
X0260968Y0326620D01*
X0258032Y0323263D02*
X0254276Y0323263D01*
X0254276Y0326625D01*
X0258032Y0326625D01*
X0258032Y0323263D01*
X0258032Y0323636D02*
X0254276Y0323636D01*
X0254276Y0324009D02*
X0258032Y0324009D01*
X0258032Y0324382D02*
X0254276Y0324382D01*
X0254276Y0324755D02*
X0258032Y0324755D01*
X0258032Y0325128D02*
X0254276Y0325128D01*
X0254276Y0325501D02*
X0258032Y0325501D01*
X0258032Y0325874D02*
X0254276Y0325874D01*
X0254276Y0326247D02*
X0258032Y0326247D01*
X0258032Y0326620D02*
X0254276Y0326620D01*
X0235122Y0327465D02*
X0235122Y0324103D01*
X0235122Y0327465D02*
X0238878Y0327465D01*
X0238878Y0324103D01*
X0235122Y0324103D01*
X0235122Y0324476D02*
X0238878Y0324476D01*
X0238878Y0324849D02*
X0235122Y0324849D01*
X0235122Y0325222D02*
X0238878Y0325222D01*
X0238878Y0325595D02*
X0235122Y0325595D01*
X0235122Y0325968D02*
X0238878Y0325968D01*
X0238878Y0326341D02*
X0235122Y0326341D01*
X0235122Y0326714D02*
X0238878Y0326714D01*
X0238878Y0327087D02*
X0235122Y0327087D01*
X0235122Y0327460D02*
X0238878Y0327460D01*
X0235122Y0320772D02*
X0235122Y0317410D01*
X0235122Y0320772D02*
X0238878Y0320772D01*
X0238878Y0317410D01*
X0235122Y0317410D01*
X0235122Y0317783D02*
X0238878Y0317783D01*
X0238878Y0318156D02*
X0235122Y0318156D01*
X0235122Y0318529D02*
X0238878Y0318529D01*
X0238878Y0318902D02*
X0235122Y0318902D01*
X0235122Y0319275D02*
X0238878Y0319275D01*
X0238878Y0319648D02*
X0235122Y0319648D01*
X0235122Y0320021D02*
X0238878Y0320021D01*
X0238878Y0320394D02*
X0235122Y0320394D01*
X0235122Y0320767D02*
X0238878Y0320767D01*
X0229527Y0326822D02*
X0226165Y0326822D01*
X0229527Y0326822D02*
X0229527Y0323066D01*
X0226165Y0323066D01*
X0226165Y0326822D01*
X0226165Y0323439D02*
X0229527Y0323439D01*
X0229527Y0323812D02*
X0226165Y0323812D01*
X0226165Y0324185D02*
X0229527Y0324185D01*
X0229527Y0324558D02*
X0226165Y0324558D01*
X0226165Y0324931D02*
X0229527Y0324931D01*
X0229527Y0325304D02*
X0226165Y0325304D01*
X0226165Y0325677D02*
X0229527Y0325677D01*
X0229527Y0326050D02*
X0226165Y0326050D01*
X0226165Y0326423D02*
X0229527Y0326423D01*
X0229527Y0326796D02*
X0226165Y0326796D01*
X0222835Y0326822D02*
X0219473Y0326822D01*
X0222835Y0326822D02*
X0222835Y0323066D01*
X0219473Y0323066D01*
X0219473Y0326822D01*
X0219473Y0323439D02*
X0222835Y0323439D01*
X0222835Y0323812D02*
X0219473Y0323812D01*
X0219473Y0324185D02*
X0222835Y0324185D01*
X0222835Y0324558D02*
X0219473Y0324558D01*
X0219473Y0324931D02*
X0222835Y0324931D01*
X0222835Y0325304D02*
X0219473Y0325304D01*
X0219473Y0325677D02*
X0222835Y0325677D01*
X0222835Y0326050D02*
X0219473Y0326050D01*
X0219473Y0326423D02*
X0222835Y0326423D01*
X0222835Y0326796D02*
X0219473Y0326796D01*
X0214724Y0323263D02*
X0210968Y0323263D01*
X0210968Y0326625D01*
X0214724Y0326625D01*
X0214724Y0323263D01*
X0214724Y0323636D02*
X0210968Y0323636D01*
X0210968Y0324009D02*
X0214724Y0324009D01*
X0214724Y0324382D02*
X0210968Y0324382D01*
X0210968Y0324755D02*
X0214724Y0324755D01*
X0214724Y0325128D02*
X0210968Y0325128D01*
X0210968Y0325501D02*
X0214724Y0325501D01*
X0214724Y0325874D02*
X0210968Y0325874D01*
X0210968Y0326247D02*
X0214724Y0326247D01*
X0214724Y0326620D02*
X0210968Y0326620D01*
X0208032Y0323263D02*
X0204276Y0323263D01*
X0204276Y0326625D01*
X0208032Y0326625D01*
X0208032Y0323263D01*
X0208032Y0323636D02*
X0204276Y0323636D01*
X0204276Y0324009D02*
X0208032Y0324009D01*
X0208032Y0324382D02*
X0204276Y0324382D01*
X0204276Y0324755D02*
X0208032Y0324755D01*
X0208032Y0325128D02*
X0204276Y0325128D01*
X0204276Y0325501D02*
X0208032Y0325501D01*
X0208032Y0325874D02*
X0204276Y0325874D01*
X0204276Y0326247D02*
X0208032Y0326247D01*
X0208032Y0326620D02*
X0204276Y0326620D01*
X0219473Y0316822D02*
X0222835Y0316822D01*
X0222835Y0313066D01*
X0219473Y0313066D01*
X0219473Y0316822D01*
X0219473Y0313439D02*
X0222835Y0313439D01*
X0222835Y0313812D02*
X0219473Y0313812D01*
X0219473Y0314185D02*
X0222835Y0314185D01*
X0222835Y0314558D02*
X0219473Y0314558D01*
X0219473Y0314931D02*
X0222835Y0314931D01*
X0222835Y0315304D02*
X0219473Y0315304D01*
X0219473Y0315677D02*
X0222835Y0315677D01*
X0222835Y0316050D02*
X0219473Y0316050D01*
X0219473Y0316423D02*
X0222835Y0316423D01*
X0222835Y0316796D02*
X0219473Y0316796D01*
X0226165Y0316822D02*
X0229527Y0316822D01*
X0229527Y0313066D01*
X0226165Y0313066D01*
X0226165Y0316822D01*
X0226165Y0313439D02*
X0229527Y0313439D01*
X0229527Y0313812D02*
X0226165Y0313812D01*
X0226165Y0314185D02*
X0229527Y0314185D01*
X0229527Y0314558D02*
X0226165Y0314558D01*
X0226165Y0314931D02*
X0229527Y0314931D01*
X0229527Y0315304D02*
X0226165Y0315304D01*
X0226165Y0315677D02*
X0229527Y0315677D01*
X0229527Y0316050D02*
X0226165Y0316050D01*
X0226165Y0316423D02*
X0229527Y0316423D01*
X0229527Y0316796D02*
X0226165Y0316796D01*
X0180122Y0317410D02*
X0180122Y0320772D01*
X0183878Y0320772D01*
X0183878Y0317410D01*
X0180122Y0317410D01*
X0180122Y0317783D02*
X0183878Y0317783D01*
X0183878Y0318156D02*
X0180122Y0318156D01*
X0180122Y0318529D02*
X0183878Y0318529D01*
X0183878Y0318902D02*
X0180122Y0318902D01*
X0180122Y0319275D02*
X0183878Y0319275D01*
X0183878Y0319648D02*
X0180122Y0319648D01*
X0180122Y0320021D02*
X0183878Y0320021D01*
X0183878Y0320394D02*
X0180122Y0320394D01*
X0180122Y0320767D02*
X0183878Y0320767D01*
X0180122Y0324103D02*
X0180122Y0327465D01*
X0183878Y0327465D01*
X0183878Y0324103D01*
X0180122Y0324103D01*
X0180122Y0324476D02*
X0183878Y0324476D01*
X0183878Y0324849D02*
X0180122Y0324849D01*
X0180122Y0325222D02*
X0183878Y0325222D01*
X0183878Y0325595D02*
X0180122Y0325595D01*
X0180122Y0325968D02*
X0183878Y0325968D01*
X0183878Y0326341D02*
X0180122Y0326341D01*
X0180122Y0326714D02*
X0183878Y0326714D01*
X0183878Y0327087D02*
X0180122Y0327087D01*
X0180122Y0327460D02*
X0183878Y0327460D01*
X0174527Y0326822D02*
X0171165Y0326822D01*
X0174527Y0326822D02*
X0174527Y0323066D01*
X0171165Y0323066D01*
X0171165Y0326822D01*
X0171165Y0323439D02*
X0174527Y0323439D01*
X0174527Y0323812D02*
X0171165Y0323812D01*
X0171165Y0324185D02*
X0174527Y0324185D01*
X0174527Y0324558D02*
X0171165Y0324558D01*
X0171165Y0324931D02*
X0174527Y0324931D01*
X0174527Y0325304D02*
X0171165Y0325304D01*
X0171165Y0325677D02*
X0174527Y0325677D01*
X0174527Y0326050D02*
X0171165Y0326050D01*
X0171165Y0326423D02*
X0174527Y0326423D01*
X0174527Y0326796D02*
X0171165Y0326796D01*
X0167835Y0326822D02*
X0164473Y0326822D01*
X0167835Y0326822D02*
X0167835Y0323066D01*
X0164473Y0323066D01*
X0164473Y0326822D01*
X0164473Y0323439D02*
X0167835Y0323439D01*
X0167835Y0323812D02*
X0164473Y0323812D01*
X0164473Y0324185D02*
X0167835Y0324185D01*
X0167835Y0324558D02*
X0164473Y0324558D01*
X0164473Y0324931D02*
X0167835Y0324931D01*
X0167835Y0325304D02*
X0164473Y0325304D01*
X0164473Y0325677D02*
X0167835Y0325677D01*
X0167835Y0326050D02*
X0164473Y0326050D01*
X0164473Y0326423D02*
X0167835Y0326423D01*
X0167835Y0326796D02*
X0164473Y0326796D01*
X0159724Y0323263D02*
X0155968Y0323263D01*
X0155968Y0326625D01*
X0159724Y0326625D01*
X0159724Y0323263D01*
X0159724Y0323636D02*
X0155968Y0323636D01*
X0155968Y0324009D02*
X0159724Y0324009D01*
X0159724Y0324382D02*
X0155968Y0324382D01*
X0155968Y0324755D02*
X0159724Y0324755D01*
X0159724Y0325128D02*
X0155968Y0325128D01*
X0155968Y0325501D02*
X0159724Y0325501D01*
X0159724Y0325874D02*
X0155968Y0325874D01*
X0155968Y0326247D02*
X0159724Y0326247D01*
X0159724Y0326620D02*
X0155968Y0326620D01*
X0153032Y0323263D02*
X0149276Y0323263D01*
X0149276Y0326625D01*
X0153032Y0326625D01*
X0153032Y0323263D01*
X0153032Y0323636D02*
X0149276Y0323636D01*
X0149276Y0324009D02*
X0153032Y0324009D01*
X0153032Y0324382D02*
X0149276Y0324382D01*
X0149276Y0324755D02*
X0153032Y0324755D01*
X0153032Y0325128D02*
X0149276Y0325128D01*
X0149276Y0325501D02*
X0153032Y0325501D01*
X0153032Y0325874D02*
X0149276Y0325874D01*
X0149276Y0326247D02*
X0153032Y0326247D01*
X0153032Y0326620D02*
X0149276Y0326620D01*
X0164473Y0316822D02*
X0167835Y0316822D01*
X0167835Y0313066D01*
X0164473Y0313066D01*
X0164473Y0316822D01*
X0164473Y0313439D02*
X0167835Y0313439D01*
X0167835Y0313812D02*
X0164473Y0313812D01*
X0164473Y0314185D02*
X0167835Y0314185D01*
X0167835Y0314558D02*
X0164473Y0314558D01*
X0164473Y0314931D02*
X0167835Y0314931D01*
X0167835Y0315304D02*
X0164473Y0315304D01*
X0164473Y0315677D02*
X0167835Y0315677D01*
X0167835Y0316050D02*
X0164473Y0316050D01*
X0164473Y0316423D02*
X0167835Y0316423D01*
X0167835Y0316796D02*
X0164473Y0316796D01*
X0171165Y0316822D02*
X0174527Y0316822D01*
X0174527Y0313066D01*
X0171165Y0313066D01*
X0171165Y0316822D01*
X0171165Y0313439D02*
X0174527Y0313439D01*
X0174527Y0313812D02*
X0171165Y0313812D01*
X0171165Y0314185D02*
X0174527Y0314185D01*
X0174527Y0314558D02*
X0171165Y0314558D01*
X0171165Y0314931D02*
X0174527Y0314931D01*
X0174527Y0315304D02*
X0171165Y0315304D01*
X0171165Y0315677D02*
X0174527Y0315677D01*
X0174527Y0316050D02*
X0171165Y0316050D01*
X0171165Y0316423D02*
X0174527Y0316423D01*
X0174527Y0316796D02*
X0171165Y0316796D01*
X0172027Y0275560D02*
X0168665Y0275560D01*
X0168665Y0279316D01*
X0172027Y0279316D01*
X0172027Y0275560D01*
X0172027Y0275933D02*
X0168665Y0275933D01*
X0168665Y0276306D02*
X0172027Y0276306D01*
X0172027Y0276679D02*
X0168665Y0276679D01*
X0168665Y0277052D02*
X0172027Y0277052D01*
X0172027Y0277425D02*
X0168665Y0277425D01*
X0168665Y0277798D02*
X0172027Y0277798D01*
X0172027Y0278171D02*
X0168665Y0278171D01*
X0168665Y0278544D02*
X0172027Y0278544D01*
X0172027Y0278917D02*
X0168665Y0278917D01*
X0168665Y0279290D02*
X0172027Y0279290D01*
X0165335Y0275560D02*
X0161973Y0275560D01*
X0161973Y0279316D01*
X0165335Y0279316D01*
X0165335Y0275560D01*
X0165335Y0275933D02*
X0161973Y0275933D01*
X0161973Y0276306D02*
X0165335Y0276306D01*
X0165335Y0276679D02*
X0161973Y0276679D01*
X0161973Y0277052D02*
X0165335Y0277052D01*
X0165335Y0277425D02*
X0161973Y0277425D01*
X0161973Y0277798D02*
X0165335Y0277798D01*
X0165335Y0278171D02*
X0161973Y0278171D01*
X0161973Y0278544D02*
X0165335Y0278544D01*
X0165335Y0278917D02*
X0161973Y0278917D01*
X0161973Y0279290D02*
X0165335Y0279290D01*
X0165335Y0271816D02*
X0161973Y0271816D01*
X0165335Y0271816D02*
X0165335Y0268060D01*
X0161973Y0268060D01*
X0161973Y0271816D01*
X0161973Y0268433D02*
X0165335Y0268433D01*
X0165335Y0268806D02*
X0161973Y0268806D01*
X0161973Y0269179D02*
X0165335Y0269179D01*
X0165335Y0269552D02*
X0161973Y0269552D01*
X0161973Y0269925D02*
X0165335Y0269925D01*
X0165335Y0270298D02*
X0161973Y0270298D01*
X0161973Y0270671D02*
X0165335Y0270671D01*
X0165335Y0271044D02*
X0161973Y0271044D01*
X0161973Y0271417D02*
X0165335Y0271417D01*
X0165335Y0271790D02*
X0161973Y0271790D01*
X0168665Y0271816D02*
X0172027Y0271816D01*
X0172027Y0268060D01*
X0168665Y0268060D01*
X0168665Y0271816D01*
X0168665Y0268433D02*
X0172027Y0268433D01*
X0172027Y0268806D02*
X0168665Y0268806D01*
X0168665Y0269179D02*
X0172027Y0269179D01*
X0172027Y0269552D02*
X0168665Y0269552D01*
X0168665Y0269925D02*
X0172027Y0269925D01*
X0172027Y0270298D02*
X0168665Y0270298D01*
X0168665Y0270671D02*
X0172027Y0270671D01*
X0172027Y0271044D02*
X0168665Y0271044D01*
X0168665Y0271417D02*
X0172027Y0271417D01*
X0172027Y0271790D02*
X0168665Y0271790D01*
X0168665Y0258060D02*
X0172027Y0258060D01*
X0168665Y0258060D02*
X0168665Y0261816D01*
X0172027Y0261816D01*
X0172027Y0258060D01*
X0172027Y0258433D02*
X0168665Y0258433D01*
X0168665Y0258806D02*
X0172027Y0258806D01*
X0172027Y0259179D02*
X0168665Y0259179D01*
X0168665Y0259552D02*
X0172027Y0259552D01*
X0172027Y0259925D02*
X0168665Y0259925D01*
X0168665Y0260298D02*
X0172027Y0260298D01*
X0172027Y0260671D02*
X0168665Y0260671D01*
X0168665Y0261044D02*
X0172027Y0261044D01*
X0172027Y0261417D02*
X0168665Y0261417D01*
X0168665Y0261790D02*
X0172027Y0261790D01*
X0165335Y0258060D02*
X0161973Y0258060D01*
X0161973Y0261816D01*
X0165335Y0261816D01*
X0165335Y0258060D01*
X0165335Y0258433D02*
X0161973Y0258433D01*
X0161973Y0258806D02*
X0165335Y0258806D01*
X0165335Y0259179D02*
X0161973Y0259179D01*
X0161973Y0259552D02*
X0165335Y0259552D01*
X0165335Y0259925D02*
X0161973Y0259925D01*
X0161973Y0260298D02*
X0165335Y0260298D01*
X0165335Y0260671D02*
X0161973Y0260671D01*
X0161973Y0261044D02*
X0165335Y0261044D01*
X0165335Y0261417D02*
X0161973Y0261417D01*
X0161973Y0261790D02*
X0165335Y0261790D01*
X0059724Y0306625D02*
X0055968Y0306625D01*
X0059724Y0306625D02*
X0059724Y0303263D01*
X0055968Y0303263D01*
X0055968Y0306625D01*
X0055968Y0303636D02*
X0059724Y0303636D01*
X0059724Y0304009D02*
X0055968Y0304009D01*
X0055968Y0304382D02*
X0059724Y0304382D01*
X0059724Y0304755D02*
X0055968Y0304755D01*
X0055968Y0305128D02*
X0059724Y0305128D01*
X0059724Y0305501D02*
X0055968Y0305501D01*
X0055968Y0305874D02*
X0059724Y0305874D01*
X0059724Y0306247D02*
X0055968Y0306247D01*
X0055968Y0306620D02*
X0059724Y0306620D01*
X0053032Y0306625D02*
X0049276Y0306625D01*
X0053032Y0306625D02*
X0053032Y0303263D01*
X0049276Y0303263D01*
X0049276Y0306625D01*
X0049276Y0303636D02*
X0053032Y0303636D01*
X0053032Y0304009D02*
X0049276Y0304009D01*
X0049276Y0304382D02*
X0053032Y0304382D01*
X0053032Y0304755D02*
X0049276Y0304755D01*
X0049276Y0305128D02*
X0053032Y0305128D01*
X0053032Y0305501D02*
X0049276Y0305501D01*
X0049276Y0305874D02*
X0053032Y0305874D01*
X0053032Y0306247D02*
X0049276Y0306247D01*
X0049276Y0306620D02*
X0053032Y0306620D01*
X0053032Y0316625D02*
X0049276Y0316625D01*
X0053032Y0316625D02*
X0053032Y0313263D01*
X0049276Y0313263D01*
X0049276Y0316625D01*
X0049276Y0313636D02*
X0053032Y0313636D01*
X0053032Y0314009D02*
X0049276Y0314009D01*
X0049276Y0314382D02*
X0053032Y0314382D01*
X0053032Y0314755D02*
X0049276Y0314755D01*
X0049276Y0315128D02*
X0053032Y0315128D01*
X0053032Y0315501D02*
X0049276Y0315501D01*
X0049276Y0315874D02*
X0053032Y0315874D01*
X0053032Y0316247D02*
X0049276Y0316247D01*
X0049276Y0316620D02*
X0053032Y0316620D01*
X0055968Y0316625D02*
X0059724Y0316625D01*
X0059724Y0313263D01*
X0055968Y0313263D01*
X0055968Y0316625D01*
X0055968Y0313636D02*
X0059724Y0313636D01*
X0059724Y0314009D02*
X0055968Y0314009D01*
X0055968Y0314382D02*
X0059724Y0314382D01*
X0059724Y0314755D02*
X0055968Y0314755D01*
X0055968Y0315128D02*
X0059724Y0315128D01*
X0059724Y0315501D02*
X0055968Y0315501D01*
X0055968Y0315874D02*
X0059724Y0315874D01*
X0059724Y0316247D02*
X0055968Y0316247D01*
X0055968Y0316620D02*
X0059724Y0316620D01*
X0059724Y0338263D02*
X0055968Y0338263D01*
X0055968Y0341625D01*
X0059724Y0341625D01*
X0059724Y0338263D01*
X0059724Y0338636D02*
X0055968Y0338636D01*
X0055968Y0339009D02*
X0059724Y0339009D01*
X0059724Y0339382D02*
X0055968Y0339382D01*
X0055968Y0339755D02*
X0059724Y0339755D01*
X0059724Y0340128D02*
X0055968Y0340128D01*
X0055968Y0340501D02*
X0059724Y0340501D01*
X0059724Y0340874D02*
X0055968Y0340874D01*
X0055968Y0341247D02*
X0059724Y0341247D01*
X0059724Y0341620D02*
X0055968Y0341620D01*
X0053032Y0338263D02*
X0049276Y0338263D01*
X0049276Y0341625D01*
X0053032Y0341625D01*
X0053032Y0338263D01*
X0053032Y0338636D02*
X0049276Y0338636D01*
X0049276Y0339009D02*
X0053032Y0339009D01*
X0053032Y0339382D02*
X0049276Y0339382D01*
X0049276Y0339755D02*
X0053032Y0339755D01*
X0053032Y0340128D02*
X0049276Y0340128D01*
X0049276Y0340501D02*
X0053032Y0340501D01*
X0053032Y0340874D02*
X0049276Y0340874D01*
X0049276Y0341247D02*
X0053032Y0341247D01*
X0053032Y0341620D02*
X0049276Y0341620D01*
X0276165Y0326822D02*
X0279527Y0326822D01*
X0279527Y0323066D01*
X0276165Y0323066D01*
X0276165Y0326822D01*
X0276165Y0323439D02*
X0279527Y0323439D01*
X0279527Y0323812D02*
X0276165Y0323812D01*
X0276165Y0324185D02*
X0279527Y0324185D01*
X0279527Y0324558D02*
X0276165Y0324558D01*
X0276165Y0324931D02*
X0279527Y0324931D01*
X0279527Y0325304D02*
X0276165Y0325304D01*
X0276165Y0325677D02*
X0279527Y0325677D01*
X0279527Y0326050D02*
X0276165Y0326050D01*
X0276165Y0326423D02*
X0279527Y0326423D01*
X0279527Y0326796D02*
X0276165Y0326796D01*
X0285122Y0327465D02*
X0285122Y0324103D01*
X0285122Y0327465D02*
X0288878Y0327465D01*
X0288878Y0324103D01*
X0285122Y0324103D01*
X0285122Y0324476D02*
X0288878Y0324476D01*
X0288878Y0324849D02*
X0285122Y0324849D01*
X0285122Y0325222D02*
X0288878Y0325222D01*
X0288878Y0325595D02*
X0285122Y0325595D01*
X0285122Y0325968D02*
X0288878Y0325968D01*
X0288878Y0326341D02*
X0285122Y0326341D01*
X0285122Y0326714D02*
X0288878Y0326714D01*
X0288878Y0327087D02*
X0285122Y0327087D01*
X0285122Y0327460D02*
X0288878Y0327460D01*
X0285122Y0320772D02*
X0285122Y0317410D01*
X0285122Y0320772D02*
X0288878Y0320772D01*
X0288878Y0317410D01*
X0285122Y0317410D01*
X0285122Y0317783D02*
X0288878Y0317783D01*
X0288878Y0318156D02*
X0285122Y0318156D01*
X0285122Y0318529D02*
X0288878Y0318529D01*
X0288878Y0318902D02*
X0285122Y0318902D01*
X0285122Y0319275D02*
X0288878Y0319275D01*
X0288878Y0319648D02*
X0285122Y0319648D01*
X0285122Y0320021D02*
X0288878Y0320021D01*
X0288878Y0320394D02*
X0285122Y0320394D01*
X0285122Y0320767D02*
X0288878Y0320767D01*
X0279527Y0316822D02*
X0276165Y0316822D01*
X0279527Y0316822D02*
X0279527Y0313066D01*
X0276165Y0313066D01*
X0276165Y0316822D01*
X0276165Y0313439D02*
X0279527Y0313439D01*
X0279527Y0313812D02*
X0276165Y0313812D01*
X0276165Y0314185D02*
X0279527Y0314185D01*
X0279527Y0314558D02*
X0276165Y0314558D01*
X0276165Y0314931D02*
X0279527Y0314931D01*
X0279527Y0315304D02*
X0276165Y0315304D01*
X0276165Y0315677D02*
X0279527Y0315677D01*
X0279527Y0316050D02*
X0276165Y0316050D01*
X0276165Y0316423D02*
X0279527Y0316423D01*
X0279527Y0316796D02*
X0276165Y0316796D01*
X0286776Y0223619D02*
X0290532Y0223619D01*
X0290532Y0220257D01*
X0286776Y0220257D01*
X0286776Y0223619D01*
X0286776Y0220630D02*
X0290532Y0220630D01*
X0290532Y0221003D02*
X0286776Y0221003D01*
X0286776Y0221376D02*
X0290532Y0221376D01*
X0290532Y0221749D02*
X0286776Y0221749D01*
X0286776Y0222122D02*
X0290532Y0222122D01*
X0290532Y0222495D02*
X0286776Y0222495D01*
X0286776Y0222868D02*
X0290532Y0222868D01*
X0290532Y0223241D02*
X0286776Y0223241D01*
X0286776Y0223614D02*
X0290532Y0223614D01*
X0293468Y0223619D02*
X0297224Y0223619D01*
X0297224Y0220257D01*
X0293468Y0220257D01*
X0293468Y0223619D01*
X0293468Y0220630D02*
X0297224Y0220630D01*
X0297224Y0221003D02*
X0293468Y0221003D01*
X0293468Y0221376D02*
X0297224Y0221376D01*
X0297224Y0221749D02*
X0293468Y0221749D01*
X0293468Y0222122D02*
X0297224Y0222122D01*
X0297224Y0222495D02*
X0293468Y0222495D01*
X0293468Y0222868D02*
X0297224Y0222868D01*
X0297224Y0223241D02*
X0293468Y0223241D01*
X0293468Y0223614D02*
X0297224Y0223614D01*
X0324276Y0118257D02*
X0328032Y0118257D01*
X0324276Y0118257D02*
X0324276Y0121619D01*
X0328032Y0121619D01*
X0328032Y0118257D01*
X0328032Y0118630D02*
X0324276Y0118630D01*
X0324276Y0119003D02*
X0328032Y0119003D01*
X0328032Y0119376D02*
X0324276Y0119376D01*
X0324276Y0119749D02*
X0328032Y0119749D01*
X0328032Y0120122D02*
X0324276Y0120122D01*
X0324276Y0120495D02*
X0328032Y0120495D01*
X0328032Y0120868D02*
X0324276Y0120868D01*
X0324276Y0121241D02*
X0328032Y0121241D01*
X0328032Y0121614D02*
X0324276Y0121614D01*
X0330968Y0118257D02*
X0334724Y0118257D01*
X0330968Y0118257D02*
X0330968Y0121619D01*
X0334724Y0121619D01*
X0334724Y0118257D01*
X0334724Y0118630D02*
X0330968Y0118630D01*
X0330968Y0119003D02*
X0334724Y0119003D01*
X0334724Y0119376D02*
X0330968Y0119376D01*
X0330968Y0119749D02*
X0334724Y0119749D01*
X0334724Y0120122D02*
X0330968Y0120122D01*
X0330968Y0120495D02*
X0334724Y0120495D01*
X0334724Y0120868D02*
X0330968Y0120868D01*
X0330968Y0121241D02*
X0334724Y0121241D01*
X0334724Y0121614D02*
X0330968Y0121614D01*
X0325122Y0114965D02*
X0325122Y0111603D01*
X0325122Y0114965D02*
X0328878Y0114965D01*
X0328878Y0111603D01*
X0325122Y0111603D01*
X0325122Y0111976D02*
X0328878Y0111976D01*
X0328878Y0112349D02*
X0325122Y0112349D01*
X0325122Y0112722D02*
X0328878Y0112722D01*
X0328878Y0113095D02*
X0325122Y0113095D01*
X0325122Y0113468D02*
X0328878Y0113468D01*
X0328878Y0113841D02*
X0325122Y0113841D01*
X0325122Y0114214D02*
X0328878Y0114214D01*
X0328878Y0114587D02*
X0325122Y0114587D01*
X0325122Y0114960D02*
X0328878Y0114960D01*
X0331973Y0110560D02*
X0335335Y0110560D01*
X0331973Y0110560D02*
X0331973Y0114316D01*
X0335335Y0114316D01*
X0335335Y0110560D01*
X0335335Y0110933D02*
X0331973Y0110933D01*
X0331973Y0111306D02*
X0335335Y0111306D01*
X0335335Y0111679D02*
X0331973Y0111679D01*
X0331973Y0112052D02*
X0335335Y0112052D01*
X0335335Y0112425D02*
X0331973Y0112425D01*
X0331973Y0112798D02*
X0335335Y0112798D01*
X0335335Y0113171D02*
X0331973Y0113171D01*
X0331973Y0113544D02*
X0335335Y0113544D01*
X0335335Y0113917D02*
X0331973Y0113917D01*
X0331973Y0114290D02*
X0335335Y0114290D01*
X0338665Y0110560D02*
X0342027Y0110560D01*
X0338665Y0110560D02*
X0338665Y0114316D01*
X0342027Y0114316D01*
X0342027Y0110560D01*
X0342027Y0110933D02*
X0338665Y0110933D01*
X0338665Y0111306D02*
X0342027Y0111306D01*
X0342027Y0111679D02*
X0338665Y0111679D01*
X0338665Y0112052D02*
X0342027Y0112052D01*
X0342027Y0112425D02*
X0338665Y0112425D01*
X0338665Y0112798D02*
X0342027Y0112798D01*
X0342027Y0113171D02*
X0338665Y0113171D01*
X0338665Y0113544D02*
X0342027Y0113544D01*
X0342027Y0113917D02*
X0338665Y0113917D01*
X0338665Y0114290D02*
X0342027Y0114290D01*
X0325122Y0108272D02*
X0325122Y0104910D01*
X0325122Y0108272D02*
X0328878Y0108272D01*
X0328878Y0104910D01*
X0325122Y0104910D01*
X0325122Y0105283D02*
X0328878Y0105283D01*
X0328878Y0105656D02*
X0325122Y0105656D01*
X0325122Y0106029D02*
X0328878Y0106029D01*
X0328878Y0106402D02*
X0325122Y0106402D01*
X0325122Y0106775D02*
X0328878Y0106775D01*
X0328878Y0107148D02*
X0325122Y0107148D01*
X0325122Y0107521D02*
X0328878Y0107521D01*
X0328878Y0107894D02*
X0325122Y0107894D01*
X0325122Y0108267D02*
X0328878Y0108267D01*
D11*
X0097842Y0288088D02*
X0092354Y0288088D01*
X0097842Y0288088D02*
X0097842Y0281800D01*
X0092354Y0281800D01*
X0092354Y0288088D01*
X0092354Y0282409D02*
X0097842Y0282409D01*
X0097842Y0283018D02*
X0092354Y0283018D01*
X0092354Y0283627D02*
X0097842Y0283627D01*
X0097842Y0284236D02*
X0092354Y0284236D01*
X0092354Y0284845D02*
X0097842Y0284845D01*
X0097842Y0285454D02*
X0092354Y0285454D01*
X0092354Y0286063D02*
X0097842Y0286063D01*
X0097842Y0286672D02*
X0092354Y0286672D01*
X0092354Y0287281D02*
X0097842Y0287281D01*
X0097842Y0287890D02*
X0092354Y0287890D01*
X0086646Y0288088D02*
X0081158Y0288088D01*
X0086646Y0288088D02*
X0086646Y0281800D01*
X0081158Y0281800D01*
X0081158Y0288088D01*
X0081158Y0282409D02*
X0086646Y0282409D01*
X0086646Y0283018D02*
X0081158Y0283018D01*
X0081158Y0283627D02*
X0086646Y0283627D01*
X0086646Y0284236D02*
X0081158Y0284236D01*
X0081158Y0284845D02*
X0086646Y0284845D01*
X0086646Y0285454D02*
X0081158Y0285454D01*
X0081158Y0286063D02*
X0086646Y0286063D01*
X0086646Y0286672D02*
X0081158Y0286672D01*
X0081158Y0287281D02*
X0086646Y0287281D01*
X0086646Y0287890D02*
X0081158Y0287890D01*
X0156158Y0336800D02*
X0161646Y0336800D01*
X0156158Y0336800D02*
X0156158Y0343088D01*
X0161646Y0343088D01*
X0161646Y0336800D01*
X0161646Y0337409D02*
X0156158Y0337409D01*
X0156158Y0338018D02*
X0161646Y0338018D01*
X0161646Y0338627D02*
X0156158Y0338627D01*
X0156158Y0339236D02*
X0161646Y0339236D01*
X0161646Y0339845D02*
X0156158Y0339845D01*
X0156158Y0340454D02*
X0161646Y0340454D01*
X0161646Y0341063D02*
X0156158Y0341063D01*
X0156158Y0341672D02*
X0161646Y0341672D01*
X0161646Y0342281D02*
X0156158Y0342281D01*
X0156158Y0342890D02*
X0161646Y0342890D01*
X0167354Y0336800D02*
X0172842Y0336800D01*
X0167354Y0336800D02*
X0167354Y0343088D01*
X0172842Y0343088D01*
X0172842Y0336800D01*
X0172842Y0337409D02*
X0167354Y0337409D01*
X0167354Y0338018D02*
X0172842Y0338018D01*
X0172842Y0338627D02*
X0167354Y0338627D01*
X0167354Y0339236D02*
X0172842Y0339236D01*
X0172842Y0339845D02*
X0167354Y0339845D01*
X0167354Y0340454D02*
X0172842Y0340454D01*
X0172842Y0341063D02*
X0167354Y0341063D01*
X0167354Y0341672D02*
X0172842Y0341672D01*
X0172842Y0342281D02*
X0167354Y0342281D01*
X0167354Y0342890D02*
X0172842Y0342890D01*
X0211158Y0336800D02*
X0216646Y0336800D01*
X0211158Y0336800D02*
X0211158Y0343088D01*
X0216646Y0343088D01*
X0216646Y0336800D01*
X0216646Y0337409D02*
X0211158Y0337409D01*
X0211158Y0338018D02*
X0216646Y0338018D01*
X0216646Y0338627D02*
X0211158Y0338627D01*
X0211158Y0339236D02*
X0216646Y0339236D01*
X0216646Y0339845D02*
X0211158Y0339845D01*
X0211158Y0340454D02*
X0216646Y0340454D01*
X0216646Y0341063D02*
X0211158Y0341063D01*
X0211158Y0341672D02*
X0216646Y0341672D01*
X0216646Y0342281D02*
X0211158Y0342281D01*
X0211158Y0342890D02*
X0216646Y0342890D01*
X0222354Y0336800D02*
X0227842Y0336800D01*
X0222354Y0336800D02*
X0222354Y0343088D01*
X0227842Y0343088D01*
X0227842Y0336800D01*
X0227842Y0337409D02*
X0222354Y0337409D01*
X0222354Y0338018D02*
X0227842Y0338018D01*
X0227842Y0338627D02*
X0222354Y0338627D01*
X0222354Y0339236D02*
X0227842Y0339236D01*
X0227842Y0339845D02*
X0222354Y0339845D01*
X0222354Y0340454D02*
X0227842Y0340454D01*
X0227842Y0341063D02*
X0222354Y0341063D01*
X0222354Y0341672D02*
X0227842Y0341672D01*
X0227842Y0342281D02*
X0222354Y0342281D01*
X0222354Y0342890D02*
X0227842Y0342890D01*
X0261158Y0336800D02*
X0266646Y0336800D01*
X0261158Y0336800D02*
X0261158Y0343088D01*
X0266646Y0343088D01*
X0266646Y0336800D01*
X0266646Y0337409D02*
X0261158Y0337409D01*
X0261158Y0338018D02*
X0266646Y0338018D01*
X0266646Y0338627D02*
X0261158Y0338627D01*
X0261158Y0339236D02*
X0266646Y0339236D01*
X0266646Y0339845D02*
X0261158Y0339845D01*
X0261158Y0340454D02*
X0266646Y0340454D01*
X0266646Y0341063D02*
X0261158Y0341063D01*
X0261158Y0341672D02*
X0266646Y0341672D01*
X0266646Y0342281D02*
X0261158Y0342281D01*
X0261158Y0342890D02*
X0266646Y0342890D01*
X0272354Y0336800D02*
X0277842Y0336800D01*
X0272354Y0336800D02*
X0272354Y0343088D01*
X0277842Y0343088D01*
X0277842Y0336800D01*
X0277842Y0337409D02*
X0272354Y0337409D01*
X0272354Y0338018D02*
X0277842Y0338018D01*
X0277842Y0338627D02*
X0272354Y0338627D01*
X0272354Y0339236D02*
X0277842Y0339236D01*
X0277842Y0339845D02*
X0272354Y0339845D01*
X0272354Y0340454D02*
X0277842Y0340454D01*
X0277842Y0341063D02*
X0272354Y0341063D01*
X0272354Y0341672D02*
X0277842Y0341672D01*
X0277842Y0342281D02*
X0272354Y0342281D01*
X0272354Y0342890D02*
X0277842Y0342890D01*
X0331158Y0336800D02*
X0336646Y0336800D01*
X0331158Y0336800D02*
X0331158Y0343088D01*
X0336646Y0343088D01*
X0336646Y0336800D01*
X0336646Y0337409D02*
X0331158Y0337409D01*
X0331158Y0338018D02*
X0336646Y0338018D01*
X0336646Y0338627D02*
X0331158Y0338627D01*
X0331158Y0339236D02*
X0336646Y0339236D01*
X0336646Y0339845D02*
X0331158Y0339845D01*
X0331158Y0340454D02*
X0336646Y0340454D01*
X0336646Y0341063D02*
X0331158Y0341063D01*
X0331158Y0341672D02*
X0336646Y0341672D01*
X0336646Y0342281D02*
X0331158Y0342281D01*
X0331158Y0342890D02*
X0336646Y0342890D01*
X0342354Y0336800D02*
X0347842Y0336800D01*
X0342354Y0336800D02*
X0342354Y0343088D01*
X0347842Y0343088D01*
X0347842Y0336800D01*
X0347842Y0337409D02*
X0342354Y0337409D01*
X0342354Y0338018D02*
X0347842Y0338018D01*
X0347842Y0338627D02*
X0342354Y0338627D01*
X0342354Y0339236D02*
X0347842Y0339236D01*
X0347842Y0339845D02*
X0342354Y0339845D01*
X0342354Y0340454D02*
X0347842Y0340454D01*
X0347842Y0341063D02*
X0342354Y0341063D01*
X0342354Y0341672D02*
X0347842Y0341672D01*
X0347842Y0342281D02*
X0342354Y0342281D01*
X0342354Y0342890D02*
X0347842Y0342890D01*
D12*
X0056185Y0329103D02*
X0056185Y0325773D01*
X0056185Y0329103D02*
X0060815Y0329103D01*
X0060815Y0325773D01*
X0056185Y0325773D01*
X0056185Y0326142D02*
X0060815Y0326142D01*
X0060815Y0326511D02*
X0056185Y0326511D01*
X0056185Y0326880D02*
X0060815Y0326880D01*
X0060815Y0327249D02*
X0056185Y0327249D01*
X0056185Y0327618D02*
X0060815Y0327618D01*
X0060815Y0327987D02*
X0056185Y0327987D01*
X0056185Y0328356D02*
X0060815Y0328356D01*
X0060815Y0328725D02*
X0056185Y0328725D01*
X0056185Y0329094D02*
X0060815Y0329094D01*
X0048185Y0329473D02*
X0048185Y0332803D01*
X0052815Y0332803D01*
X0052815Y0329473D01*
X0048185Y0329473D01*
X0048185Y0329842D02*
X0052815Y0329842D01*
X0052815Y0330211D02*
X0048185Y0330211D01*
X0048185Y0330580D02*
X0052815Y0330580D01*
X0052815Y0330949D02*
X0048185Y0330949D01*
X0048185Y0331318D02*
X0052815Y0331318D01*
X0052815Y0331687D02*
X0048185Y0331687D01*
X0048185Y0332056D02*
X0052815Y0332056D01*
X0052815Y0332425D02*
X0048185Y0332425D01*
X0048185Y0332794D02*
X0052815Y0332794D01*
X0048185Y0325403D02*
X0048185Y0322073D01*
X0048185Y0325403D02*
X0052815Y0325403D01*
X0052815Y0322073D01*
X0048185Y0322073D01*
X0048185Y0322442D02*
X0052815Y0322442D01*
X0052815Y0322811D02*
X0048185Y0322811D01*
X0048185Y0323180D02*
X0052815Y0323180D01*
X0052815Y0323549D02*
X0048185Y0323549D01*
X0048185Y0323918D02*
X0052815Y0323918D01*
X0052815Y0324287D02*
X0048185Y0324287D01*
X0048185Y0324656D02*
X0052815Y0324656D01*
X0052815Y0325025D02*
X0048185Y0325025D01*
X0048185Y0325394D02*
X0052815Y0325394D01*
D13*
X0109014Y0283592D02*
X0110930Y0283592D01*
X0109014Y0283592D02*
X0109014Y0286296D01*
X0110930Y0286296D01*
X0110930Y0283592D01*
X0110930Y0283956D02*
X0109014Y0283956D01*
X0109014Y0284320D02*
X0110930Y0284320D01*
X0110930Y0284684D02*
X0109014Y0284684D01*
X0109014Y0285048D02*
X0110930Y0285048D01*
X0110930Y0285412D02*
X0109014Y0285412D01*
X0109014Y0285776D02*
X0110930Y0285776D01*
X0110930Y0286140D02*
X0109014Y0286140D01*
X0118070Y0283592D02*
X0119986Y0283592D01*
X0118070Y0283592D02*
X0118070Y0286296D01*
X0119986Y0286296D01*
X0119986Y0283592D01*
X0119986Y0283956D02*
X0118070Y0283956D01*
X0118070Y0284320D02*
X0119986Y0284320D01*
X0119986Y0284684D02*
X0118070Y0284684D01*
X0118070Y0285048D02*
X0119986Y0285048D01*
X0119986Y0285412D02*
X0118070Y0285412D01*
X0118070Y0285776D02*
X0119986Y0285776D01*
X0119986Y0286140D02*
X0118070Y0286140D01*
D14*
X0079603Y0312449D02*
X0079603Y0323529D01*
X0084385Y0323529D01*
X0084385Y0312449D01*
X0079603Y0312449D01*
X0079603Y0312979D02*
X0084385Y0312979D01*
X0084385Y0313509D02*
X0079603Y0313509D01*
X0079603Y0314039D02*
X0084385Y0314039D01*
X0084385Y0314569D02*
X0079603Y0314569D01*
X0079603Y0315099D02*
X0084385Y0315099D01*
X0084385Y0315629D02*
X0079603Y0315629D01*
X0079603Y0316159D02*
X0084385Y0316159D01*
X0084385Y0316689D02*
X0079603Y0316689D01*
X0079603Y0317219D02*
X0084385Y0317219D01*
X0084385Y0317749D02*
X0079603Y0317749D01*
X0079603Y0318279D02*
X0084385Y0318279D01*
X0084385Y0318809D02*
X0079603Y0318809D01*
X0079603Y0319339D02*
X0084385Y0319339D01*
X0084385Y0319869D02*
X0079603Y0319869D01*
X0079603Y0320399D02*
X0084385Y0320399D01*
X0084385Y0320929D02*
X0079603Y0320929D01*
X0079603Y0321459D02*
X0084385Y0321459D01*
X0084385Y0321989D02*
X0079603Y0321989D01*
X0079603Y0322519D02*
X0084385Y0322519D01*
X0084385Y0323049D02*
X0079603Y0323049D01*
X0079603Y0331346D02*
X0079603Y0342426D01*
X0084385Y0342426D01*
X0084385Y0331346D01*
X0079603Y0331346D01*
X0079603Y0331876D02*
X0084385Y0331876D01*
X0084385Y0332406D02*
X0079603Y0332406D01*
X0079603Y0332936D02*
X0084385Y0332936D01*
X0084385Y0333466D02*
X0079603Y0333466D01*
X0079603Y0333996D02*
X0084385Y0333996D01*
X0084385Y0334526D02*
X0079603Y0334526D01*
X0079603Y0335056D02*
X0084385Y0335056D01*
X0084385Y0335586D02*
X0079603Y0335586D01*
X0079603Y0336116D02*
X0084385Y0336116D01*
X0084385Y0336646D02*
X0079603Y0336646D01*
X0079603Y0337176D02*
X0084385Y0337176D01*
X0084385Y0337706D02*
X0079603Y0337706D01*
X0079603Y0338236D02*
X0084385Y0338236D01*
X0084385Y0338766D02*
X0079603Y0338766D01*
X0079603Y0339296D02*
X0084385Y0339296D01*
X0084385Y0339826D02*
X0079603Y0339826D01*
X0079603Y0340356D02*
X0084385Y0340356D01*
X0084385Y0340886D02*
X0079603Y0340886D01*
X0079603Y0341416D02*
X0084385Y0341416D01*
X0084385Y0341946D02*
X0079603Y0341946D01*
D15*
X0084964Y0376268D02*
X0089036Y0376268D01*
X0084964Y0376268D02*
X0084964Y0380340D01*
X0089036Y0380340D01*
X0089036Y0376268D01*
X0089036Y0376719D02*
X0084964Y0376719D01*
X0084964Y0377170D02*
X0089036Y0377170D01*
X0089036Y0377621D02*
X0084964Y0377621D01*
X0084964Y0378072D02*
X0089036Y0378072D01*
X0089036Y0378523D02*
X0084964Y0378523D01*
X0084964Y0378974D02*
X0089036Y0378974D01*
X0089036Y0379425D02*
X0084964Y0379425D01*
X0084964Y0379876D02*
X0089036Y0379876D01*
X0089036Y0380327D02*
X0084964Y0380327D01*
X0084964Y0384536D02*
X0089036Y0384536D01*
X0084964Y0384536D02*
X0084964Y0388608D01*
X0089036Y0388608D01*
X0089036Y0384536D01*
X0089036Y0384987D02*
X0084964Y0384987D01*
X0084964Y0385438D02*
X0089036Y0385438D01*
X0089036Y0385889D02*
X0084964Y0385889D01*
X0084964Y0386340D02*
X0089036Y0386340D01*
X0089036Y0386791D02*
X0084964Y0386791D01*
X0084964Y0387242D02*
X0089036Y0387242D01*
X0089036Y0387693D02*
X0084964Y0387693D01*
X0084964Y0388144D02*
X0089036Y0388144D01*
X0089036Y0388595D02*
X0084964Y0388595D01*
D16*
X0065092Y0368538D02*
X0065092Y0354132D01*
X0065092Y0368538D02*
X0066506Y0368538D01*
X0066506Y0354132D01*
X0065092Y0354132D01*
X0065092Y0354485D02*
X0066506Y0354485D01*
X0066506Y0354838D02*
X0065092Y0354838D01*
X0065092Y0355191D02*
X0066506Y0355191D01*
X0066506Y0355544D02*
X0065092Y0355544D01*
X0065092Y0355897D02*
X0066506Y0355897D01*
X0066506Y0356250D02*
X0065092Y0356250D01*
X0065092Y0356603D02*
X0066506Y0356603D01*
X0066506Y0356956D02*
X0065092Y0356956D01*
X0065092Y0357309D02*
X0066506Y0357309D01*
X0066506Y0357662D02*
X0065092Y0357662D01*
X0065092Y0358015D02*
X0066506Y0358015D01*
X0066506Y0358368D02*
X0065092Y0358368D01*
X0065092Y0358721D02*
X0066506Y0358721D01*
X0066506Y0359074D02*
X0065092Y0359074D01*
X0065092Y0359427D02*
X0066506Y0359427D01*
X0066506Y0359780D02*
X0065092Y0359780D01*
X0065092Y0360133D02*
X0066506Y0360133D01*
X0066506Y0360486D02*
X0065092Y0360486D01*
X0065092Y0360839D02*
X0066506Y0360839D01*
X0066506Y0361192D02*
X0065092Y0361192D01*
X0065092Y0361545D02*
X0066506Y0361545D01*
X0066506Y0361898D02*
X0065092Y0361898D01*
X0065092Y0362251D02*
X0066506Y0362251D01*
X0066506Y0362604D02*
X0065092Y0362604D01*
X0065092Y0362957D02*
X0066506Y0362957D01*
X0066506Y0363310D02*
X0065092Y0363310D01*
X0065092Y0363663D02*
X0066506Y0363663D01*
X0066506Y0364016D02*
X0065092Y0364016D01*
X0065092Y0364369D02*
X0066506Y0364369D01*
X0066506Y0364722D02*
X0065092Y0364722D01*
X0065092Y0365075D02*
X0066506Y0365075D01*
X0066506Y0365428D02*
X0065092Y0365428D01*
X0065092Y0365781D02*
X0066506Y0365781D01*
X0066506Y0366134D02*
X0065092Y0366134D01*
X0065092Y0366487D02*
X0066506Y0366487D01*
X0066506Y0366840D02*
X0065092Y0366840D01*
X0065092Y0367193D02*
X0066506Y0367193D01*
X0066506Y0367546D02*
X0065092Y0367546D01*
X0065092Y0367899D02*
X0066506Y0367899D01*
X0066506Y0368252D02*
X0065092Y0368252D01*
X0061943Y0368538D02*
X0061943Y0354132D01*
X0061943Y0368538D02*
X0063357Y0368538D01*
X0063357Y0354132D01*
X0061943Y0354132D01*
X0061943Y0354485D02*
X0063357Y0354485D01*
X0063357Y0354838D02*
X0061943Y0354838D01*
X0061943Y0355191D02*
X0063357Y0355191D01*
X0063357Y0355544D02*
X0061943Y0355544D01*
X0061943Y0355897D02*
X0063357Y0355897D01*
X0063357Y0356250D02*
X0061943Y0356250D01*
X0061943Y0356603D02*
X0063357Y0356603D01*
X0063357Y0356956D02*
X0061943Y0356956D01*
X0061943Y0357309D02*
X0063357Y0357309D01*
X0063357Y0357662D02*
X0061943Y0357662D01*
X0061943Y0358015D02*
X0063357Y0358015D01*
X0063357Y0358368D02*
X0061943Y0358368D01*
X0061943Y0358721D02*
X0063357Y0358721D01*
X0063357Y0359074D02*
X0061943Y0359074D01*
X0061943Y0359427D02*
X0063357Y0359427D01*
X0063357Y0359780D02*
X0061943Y0359780D01*
X0061943Y0360133D02*
X0063357Y0360133D01*
X0063357Y0360486D02*
X0061943Y0360486D01*
X0061943Y0360839D02*
X0063357Y0360839D01*
X0063357Y0361192D02*
X0061943Y0361192D01*
X0061943Y0361545D02*
X0063357Y0361545D01*
X0063357Y0361898D02*
X0061943Y0361898D01*
X0061943Y0362251D02*
X0063357Y0362251D01*
X0063357Y0362604D02*
X0061943Y0362604D01*
X0061943Y0362957D02*
X0063357Y0362957D01*
X0063357Y0363310D02*
X0061943Y0363310D01*
X0061943Y0363663D02*
X0063357Y0363663D01*
X0063357Y0364016D02*
X0061943Y0364016D01*
X0061943Y0364369D02*
X0063357Y0364369D01*
X0063357Y0364722D02*
X0061943Y0364722D01*
X0061943Y0365075D02*
X0063357Y0365075D01*
X0063357Y0365428D02*
X0061943Y0365428D01*
X0061943Y0365781D02*
X0063357Y0365781D01*
X0063357Y0366134D02*
X0061943Y0366134D01*
X0061943Y0366487D02*
X0063357Y0366487D01*
X0063357Y0366840D02*
X0061943Y0366840D01*
X0061943Y0367193D02*
X0063357Y0367193D01*
X0063357Y0367546D02*
X0061943Y0367546D01*
X0061943Y0367899D02*
X0063357Y0367899D01*
X0063357Y0368252D02*
X0061943Y0368252D01*
X0058793Y0368538D02*
X0058793Y0354132D01*
X0058793Y0368538D02*
X0060207Y0368538D01*
X0060207Y0354132D01*
X0058793Y0354132D01*
X0058793Y0354485D02*
X0060207Y0354485D01*
X0060207Y0354838D02*
X0058793Y0354838D01*
X0058793Y0355191D02*
X0060207Y0355191D01*
X0060207Y0355544D02*
X0058793Y0355544D01*
X0058793Y0355897D02*
X0060207Y0355897D01*
X0060207Y0356250D02*
X0058793Y0356250D01*
X0058793Y0356603D02*
X0060207Y0356603D01*
X0060207Y0356956D02*
X0058793Y0356956D01*
X0058793Y0357309D02*
X0060207Y0357309D01*
X0060207Y0357662D02*
X0058793Y0357662D01*
X0058793Y0358015D02*
X0060207Y0358015D01*
X0060207Y0358368D02*
X0058793Y0358368D01*
X0058793Y0358721D02*
X0060207Y0358721D01*
X0060207Y0359074D02*
X0058793Y0359074D01*
X0058793Y0359427D02*
X0060207Y0359427D01*
X0060207Y0359780D02*
X0058793Y0359780D01*
X0058793Y0360133D02*
X0060207Y0360133D01*
X0060207Y0360486D02*
X0058793Y0360486D01*
X0058793Y0360839D02*
X0060207Y0360839D01*
X0060207Y0361192D02*
X0058793Y0361192D01*
X0058793Y0361545D02*
X0060207Y0361545D01*
X0060207Y0361898D02*
X0058793Y0361898D01*
X0058793Y0362251D02*
X0060207Y0362251D01*
X0060207Y0362604D02*
X0058793Y0362604D01*
X0058793Y0362957D02*
X0060207Y0362957D01*
X0060207Y0363310D02*
X0058793Y0363310D01*
X0058793Y0363663D02*
X0060207Y0363663D01*
X0060207Y0364016D02*
X0058793Y0364016D01*
X0058793Y0364369D02*
X0060207Y0364369D01*
X0060207Y0364722D02*
X0058793Y0364722D01*
X0058793Y0365075D02*
X0060207Y0365075D01*
X0060207Y0365428D02*
X0058793Y0365428D01*
X0058793Y0365781D02*
X0060207Y0365781D01*
X0060207Y0366134D02*
X0058793Y0366134D01*
X0058793Y0366487D02*
X0060207Y0366487D01*
X0060207Y0366840D02*
X0058793Y0366840D01*
X0058793Y0367193D02*
X0060207Y0367193D01*
X0060207Y0367546D02*
X0058793Y0367546D01*
X0058793Y0367899D02*
X0060207Y0367899D01*
X0060207Y0368252D02*
X0058793Y0368252D01*
X0055643Y0368538D02*
X0055643Y0354132D01*
X0055643Y0368538D02*
X0057057Y0368538D01*
X0057057Y0354132D01*
X0055643Y0354132D01*
X0055643Y0354485D02*
X0057057Y0354485D01*
X0057057Y0354838D02*
X0055643Y0354838D01*
X0055643Y0355191D02*
X0057057Y0355191D01*
X0057057Y0355544D02*
X0055643Y0355544D01*
X0055643Y0355897D02*
X0057057Y0355897D01*
X0057057Y0356250D02*
X0055643Y0356250D01*
X0055643Y0356603D02*
X0057057Y0356603D01*
X0057057Y0356956D02*
X0055643Y0356956D01*
X0055643Y0357309D02*
X0057057Y0357309D01*
X0057057Y0357662D02*
X0055643Y0357662D01*
X0055643Y0358015D02*
X0057057Y0358015D01*
X0057057Y0358368D02*
X0055643Y0358368D01*
X0055643Y0358721D02*
X0057057Y0358721D01*
X0057057Y0359074D02*
X0055643Y0359074D01*
X0055643Y0359427D02*
X0057057Y0359427D01*
X0057057Y0359780D02*
X0055643Y0359780D01*
X0055643Y0360133D02*
X0057057Y0360133D01*
X0057057Y0360486D02*
X0055643Y0360486D01*
X0055643Y0360839D02*
X0057057Y0360839D01*
X0057057Y0361192D02*
X0055643Y0361192D01*
X0055643Y0361545D02*
X0057057Y0361545D01*
X0057057Y0361898D02*
X0055643Y0361898D01*
X0055643Y0362251D02*
X0057057Y0362251D01*
X0057057Y0362604D02*
X0055643Y0362604D01*
X0055643Y0362957D02*
X0057057Y0362957D01*
X0057057Y0363310D02*
X0055643Y0363310D01*
X0055643Y0363663D02*
X0057057Y0363663D01*
X0057057Y0364016D02*
X0055643Y0364016D01*
X0055643Y0364369D02*
X0057057Y0364369D01*
X0057057Y0364722D02*
X0055643Y0364722D01*
X0055643Y0365075D02*
X0057057Y0365075D01*
X0057057Y0365428D02*
X0055643Y0365428D01*
X0055643Y0365781D02*
X0057057Y0365781D01*
X0057057Y0366134D02*
X0055643Y0366134D01*
X0055643Y0366487D02*
X0057057Y0366487D01*
X0057057Y0366840D02*
X0055643Y0366840D01*
X0055643Y0367193D02*
X0057057Y0367193D01*
X0057057Y0367546D02*
X0055643Y0367546D01*
X0055643Y0367899D02*
X0057057Y0367899D01*
X0057057Y0368252D02*
X0055643Y0368252D01*
X0052494Y0368538D02*
X0052494Y0354132D01*
X0052494Y0368538D02*
X0053908Y0368538D01*
X0053908Y0354132D01*
X0052494Y0354132D01*
X0052494Y0354485D02*
X0053908Y0354485D01*
X0053908Y0354838D02*
X0052494Y0354838D01*
X0052494Y0355191D02*
X0053908Y0355191D01*
X0053908Y0355544D02*
X0052494Y0355544D01*
X0052494Y0355897D02*
X0053908Y0355897D01*
X0053908Y0356250D02*
X0052494Y0356250D01*
X0052494Y0356603D02*
X0053908Y0356603D01*
X0053908Y0356956D02*
X0052494Y0356956D01*
X0052494Y0357309D02*
X0053908Y0357309D01*
X0053908Y0357662D02*
X0052494Y0357662D01*
X0052494Y0358015D02*
X0053908Y0358015D01*
X0053908Y0358368D02*
X0052494Y0358368D01*
X0052494Y0358721D02*
X0053908Y0358721D01*
X0053908Y0359074D02*
X0052494Y0359074D01*
X0052494Y0359427D02*
X0053908Y0359427D01*
X0053908Y0359780D02*
X0052494Y0359780D01*
X0052494Y0360133D02*
X0053908Y0360133D01*
X0053908Y0360486D02*
X0052494Y0360486D01*
X0052494Y0360839D02*
X0053908Y0360839D01*
X0053908Y0361192D02*
X0052494Y0361192D01*
X0052494Y0361545D02*
X0053908Y0361545D01*
X0053908Y0361898D02*
X0052494Y0361898D01*
X0052494Y0362251D02*
X0053908Y0362251D01*
X0053908Y0362604D02*
X0052494Y0362604D01*
X0052494Y0362957D02*
X0053908Y0362957D01*
X0053908Y0363310D02*
X0052494Y0363310D01*
X0052494Y0363663D02*
X0053908Y0363663D01*
X0053908Y0364016D02*
X0052494Y0364016D01*
X0052494Y0364369D02*
X0053908Y0364369D01*
X0053908Y0364722D02*
X0052494Y0364722D01*
X0052494Y0365075D02*
X0053908Y0365075D01*
X0053908Y0365428D02*
X0052494Y0365428D01*
X0052494Y0365781D02*
X0053908Y0365781D01*
X0053908Y0366134D02*
X0052494Y0366134D01*
X0052494Y0366487D02*
X0053908Y0366487D01*
X0053908Y0366840D02*
X0052494Y0366840D01*
X0052494Y0367193D02*
X0053908Y0367193D01*
X0053908Y0367546D02*
X0052494Y0367546D01*
X0052494Y0367899D02*
X0053908Y0367899D01*
X0053908Y0368252D02*
X0052494Y0368252D01*
D17*
X0038526Y0366364D02*
X0038526Y0357488D01*
X0038526Y0366364D02*
X0045434Y0366364D01*
X0045434Y0357488D01*
X0038526Y0357488D01*
X0038526Y0358254D02*
X0045434Y0358254D01*
X0045434Y0359020D02*
X0038526Y0359020D01*
X0038526Y0359786D02*
X0045434Y0359786D01*
X0045434Y0360552D02*
X0038526Y0360552D01*
X0038526Y0361318D02*
X0045434Y0361318D01*
X0045434Y0362084D02*
X0038526Y0362084D01*
X0038526Y0362850D02*
X0045434Y0362850D01*
X0045434Y0363616D02*
X0038526Y0363616D01*
X0038526Y0364382D02*
X0045434Y0364382D01*
X0045434Y0365148D02*
X0038526Y0365148D01*
X0038526Y0365914D02*
X0045434Y0365914D01*
X0038526Y0379141D02*
X0038526Y0388017D01*
X0045434Y0388017D01*
X0045434Y0379141D01*
X0038526Y0379141D01*
X0038526Y0379907D02*
X0045434Y0379907D01*
X0045434Y0380673D02*
X0038526Y0380673D01*
X0038526Y0381439D02*
X0045434Y0381439D01*
X0045434Y0382205D02*
X0038526Y0382205D01*
X0038526Y0382971D02*
X0045434Y0382971D01*
X0045434Y0383737D02*
X0038526Y0383737D01*
X0038526Y0384503D02*
X0045434Y0384503D01*
X0045434Y0385269D02*
X0038526Y0385269D01*
X0038526Y0386035D02*
X0045434Y0386035D01*
X0045434Y0386801D02*
X0038526Y0386801D01*
X0038526Y0387567D02*
X0045434Y0387567D01*
X0073566Y0388017D02*
X0073566Y0379141D01*
X0073566Y0388017D02*
X0080474Y0388017D01*
X0080474Y0379141D01*
X0073566Y0379141D01*
X0073566Y0379907D02*
X0080474Y0379907D01*
X0080474Y0380673D02*
X0073566Y0380673D01*
X0073566Y0381439D02*
X0080474Y0381439D01*
X0080474Y0382205D02*
X0073566Y0382205D01*
X0073566Y0382971D02*
X0080474Y0382971D01*
X0080474Y0383737D02*
X0073566Y0383737D01*
X0073566Y0384503D02*
X0080474Y0384503D01*
X0080474Y0385269D02*
X0073566Y0385269D01*
X0073566Y0386035D02*
X0080474Y0386035D01*
X0080474Y0386801D02*
X0073566Y0386801D01*
X0073566Y0387567D02*
X0080474Y0387567D01*
X0073566Y0366364D02*
X0073566Y0357488D01*
X0073566Y0366364D02*
X0080474Y0366364D01*
X0080474Y0357488D01*
X0073566Y0357488D01*
X0073566Y0358254D02*
X0080474Y0358254D01*
X0080474Y0359020D02*
X0073566Y0359020D01*
X0073566Y0359786D02*
X0080474Y0359786D01*
X0080474Y0360552D02*
X0073566Y0360552D01*
X0073566Y0361318D02*
X0080474Y0361318D01*
X0080474Y0362084D02*
X0073566Y0362084D01*
X0073566Y0362850D02*
X0080474Y0362850D01*
X0080474Y0363616D02*
X0073566Y0363616D01*
X0073566Y0364382D02*
X0080474Y0364382D01*
X0080474Y0365148D02*
X0073566Y0365148D01*
X0073566Y0365914D02*
X0080474Y0365914D01*
D18*
X0064500Y0281688D02*
X0064500Y0275938D01*
D19*
X0059882Y0292702D02*
X0057314Y0292702D01*
X0059882Y0292702D02*
X0059882Y0287772D01*
X0057314Y0287772D01*
X0057314Y0292702D01*
X0057314Y0288154D02*
X0059882Y0288154D01*
X0059882Y0288536D02*
X0057314Y0288536D01*
X0057314Y0288918D02*
X0059882Y0288918D01*
X0059882Y0289300D02*
X0057314Y0289300D01*
X0057314Y0289682D02*
X0059882Y0289682D01*
X0059882Y0290064D02*
X0057314Y0290064D01*
X0057314Y0290446D02*
X0059882Y0290446D01*
X0059882Y0290828D02*
X0057314Y0290828D01*
X0057314Y0291210D02*
X0059882Y0291210D01*
X0059882Y0291592D02*
X0057314Y0291592D01*
X0057314Y0291974D02*
X0059882Y0291974D01*
X0059882Y0292356D02*
X0057314Y0292356D01*
X0069118Y0292702D02*
X0071686Y0292702D01*
X0071686Y0287772D01*
X0069118Y0287772D01*
X0069118Y0292702D01*
X0069118Y0288154D02*
X0071686Y0288154D01*
X0071686Y0288536D02*
X0069118Y0288536D01*
X0069118Y0288918D02*
X0071686Y0288918D01*
X0071686Y0289300D02*
X0069118Y0289300D01*
X0069118Y0289682D02*
X0071686Y0289682D01*
X0071686Y0290064D02*
X0069118Y0290064D01*
X0069118Y0290446D02*
X0071686Y0290446D01*
X0071686Y0290828D02*
X0069118Y0290828D01*
X0069118Y0291210D02*
X0071686Y0291210D01*
X0071686Y0291592D02*
X0069118Y0291592D01*
X0069118Y0291974D02*
X0071686Y0291974D01*
X0071686Y0292356D02*
X0069118Y0292356D01*
D20*
X0064500Y0290313D03*
D21*
X0248470Y0209768D02*
X0268530Y0209768D01*
X0268530Y0203108D01*
X0248470Y0203108D01*
X0248470Y0209768D01*
X0248470Y0203847D02*
X0268530Y0203847D01*
X0268530Y0204586D02*
X0248470Y0204586D01*
X0248470Y0205325D02*
X0268530Y0205325D01*
X0268530Y0206064D02*
X0248470Y0206064D01*
X0248470Y0206803D02*
X0268530Y0206803D01*
X0268530Y0207542D02*
X0248470Y0207542D01*
X0248470Y0208281D02*
X0268530Y0208281D01*
X0268530Y0209020D02*
X0248470Y0209020D01*
X0248470Y0209759D02*
X0268530Y0209759D01*
X0286470Y0209768D02*
X0306530Y0209768D01*
X0306530Y0203108D01*
X0286470Y0203108D01*
X0286470Y0209768D01*
X0286470Y0203847D02*
X0306530Y0203847D01*
X0306530Y0204586D02*
X0286470Y0204586D01*
X0286470Y0205325D02*
X0306530Y0205325D01*
X0306530Y0206064D02*
X0286470Y0206064D01*
X0286470Y0206803D02*
X0306530Y0206803D01*
X0306530Y0207542D02*
X0286470Y0207542D01*
X0286470Y0208281D02*
X0306530Y0208281D01*
X0306530Y0209020D02*
X0286470Y0209020D01*
X0286470Y0209759D02*
X0306530Y0209759D01*
D22*
X0306856Y0220544D02*
X0309994Y0223682D01*
X0306856Y0220544D02*
X0305696Y0221704D01*
X0308834Y0224842D01*
X0309994Y0223682D01*
X0307215Y0220903D02*
X0306497Y0220903D01*
X0306138Y0221262D02*
X0307574Y0221262D01*
X0307933Y0221621D02*
X0305779Y0221621D01*
X0305972Y0221980D02*
X0308292Y0221980D01*
X0308651Y0222339D02*
X0306331Y0222339D01*
X0306690Y0222698D02*
X0309010Y0222698D01*
X0309369Y0223057D02*
X0307049Y0223057D01*
X0307408Y0223416D02*
X0309728Y0223416D01*
X0309901Y0223775D02*
X0307767Y0223775D01*
X0308126Y0224134D02*
X0309542Y0224134D01*
X0309183Y0224493D02*
X0308485Y0224493D01*
X0307767Y0225909D02*
X0304629Y0222771D01*
X0303469Y0223931D01*
X0306607Y0227069D01*
X0307767Y0225909D01*
X0304988Y0223130D02*
X0304270Y0223130D01*
X0303911Y0223489D02*
X0305347Y0223489D01*
X0305706Y0223848D02*
X0303552Y0223848D01*
X0303745Y0224207D02*
X0306065Y0224207D01*
X0306424Y0224566D02*
X0304104Y0224566D01*
X0304463Y0224925D02*
X0306783Y0224925D01*
X0307142Y0225284D02*
X0304822Y0225284D01*
X0305181Y0225643D02*
X0307501Y0225643D01*
X0307674Y0226002D02*
X0305540Y0226002D01*
X0305899Y0226361D02*
X0307315Y0226361D01*
X0306956Y0226720D02*
X0306258Y0226720D01*
X0305540Y0228136D02*
X0302402Y0224998D01*
X0301242Y0226158D01*
X0304380Y0229296D01*
X0305540Y0228136D01*
X0302761Y0225357D02*
X0302043Y0225357D01*
X0301684Y0225716D02*
X0303120Y0225716D01*
X0303479Y0226075D02*
X0301325Y0226075D01*
X0301518Y0226434D02*
X0303838Y0226434D01*
X0304197Y0226793D02*
X0301877Y0226793D01*
X0302236Y0227152D02*
X0304556Y0227152D01*
X0304915Y0227511D02*
X0302595Y0227511D01*
X0302954Y0227870D02*
X0305274Y0227870D01*
X0305447Y0228229D02*
X0303313Y0228229D01*
X0303672Y0228588D02*
X0305088Y0228588D01*
X0304729Y0228947D02*
X0304031Y0228947D01*
X0303312Y0230363D02*
X0300174Y0227225D01*
X0299014Y0228385D01*
X0302152Y0231523D01*
X0303312Y0230363D01*
X0300533Y0227584D02*
X0299815Y0227584D01*
X0299456Y0227943D02*
X0300892Y0227943D01*
X0301251Y0228302D02*
X0299097Y0228302D01*
X0299290Y0228661D02*
X0301610Y0228661D01*
X0301969Y0229020D02*
X0299649Y0229020D01*
X0300008Y0229379D02*
X0302328Y0229379D01*
X0302687Y0229738D02*
X0300367Y0229738D01*
X0300726Y0230097D02*
X0303046Y0230097D01*
X0303219Y0230456D02*
X0301085Y0230456D01*
X0301444Y0230815D02*
X0302860Y0230815D01*
X0302501Y0231174D02*
X0301803Y0231174D01*
X0301085Y0232590D02*
X0297947Y0229452D01*
X0296787Y0230612D01*
X0299925Y0233750D01*
X0301085Y0232590D01*
X0298306Y0229811D02*
X0297588Y0229811D01*
X0297229Y0230170D02*
X0298665Y0230170D01*
X0299024Y0230529D02*
X0296870Y0230529D01*
X0297063Y0230888D02*
X0299383Y0230888D01*
X0299742Y0231247D02*
X0297422Y0231247D01*
X0297781Y0231606D02*
X0300101Y0231606D01*
X0300460Y0231965D02*
X0298140Y0231965D01*
X0298499Y0232324D02*
X0300819Y0232324D01*
X0300992Y0232683D02*
X0298858Y0232683D01*
X0299217Y0233042D02*
X0300633Y0233042D01*
X0300274Y0233401D02*
X0299576Y0233401D01*
X0298858Y0234817D02*
X0295720Y0231679D01*
X0294560Y0232839D01*
X0297698Y0235977D01*
X0298858Y0234817D01*
X0296079Y0232038D02*
X0295361Y0232038D01*
X0295002Y0232397D02*
X0296438Y0232397D01*
X0296797Y0232756D02*
X0294643Y0232756D01*
X0294836Y0233115D02*
X0297156Y0233115D01*
X0297515Y0233474D02*
X0295195Y0233474D01*
X0295554Y0233833D02*
X0297874Y0233833D01*
X0298233Y0234192D02*
X0295913Y0234192D01*
X0296272Y0234551D02*
X0298592Y0234551D01*
X0298765Y0234910D02*
X0296631Y0234910D01*
X0296990Y0235269D02*
X0298406Y0235269D01*
X0298047Y0235628D02*
X0297349Y0235628D01*
X0296631Y0237044D02*
X0293493Y0233906D01*
X0292333Y0235066D01*
X0295471Y0238204D01*
X0296631Y0237044D01*
X0293852Y0234265D02*
X0293134Y0234265D01*
X0292775Y0234624D02*
X0294211Y0234624D01*
X0294570Y0234983D02*
X0292416Y0234983D01*
X0292609Y0235342D02*
X0294929Y0235342D01*
X0295288Y0235701D02*
X0292968Y0235701D01*
X0293327Y0236060D02*
X0295647Y0236060D01*
X0296006Y0236419D02*
X0293686Y0236419D01*
X0294045Y0236778D02*
X0296365Y0236778D01*
X0296538Y0237137D02*
X0294404Y0237137D01*
X0294763Y0237496D02*
X0296179Y0237496D01*
X0295820Y0237855D02*
X0295122Y0237855D01*
X0294404Y0239271D02*
X0291266Y0236133D01*
X0290106Y0237293D01*
X0293244Y0240431D01*
X0294404Y0239271D01*
X0291625Y0236492D02*
X0290907Y0236492D01*
X0290548Y0236851D02*
X0291984Y0236851D01*
X0292343Y0237210D02*
X0290189Y0237210D01*
X0290382Y0237569D02*
X0292702Y0237569D01*
X0293061Y0237928D02*
X0290741Y0237928D01*
X0291100Y0238287D02*
X0293420Y0238287D01*
X0293779Y0238646D02*
X0291459Y0238646D01*
X0291818Y0239005D02*
X0294138Y0239005D01*
X0294311Y0239364D02*
X0292177Y0239364D01*
X0292536Y0239723D02*
X0293952Y0239723D01*
X0293593Y0240082D02*
X0292895Y0240082D01*
X0293244Y0244444D02*
X0294404Y0245604D01*
X0293244Y0244444D02*
X0290106Y0247582D01*
X0291266Y0248742D01*
X0294404Y0245604D01*
X0293603Y0244803D02*
X0292885Y0244803D01*
X0292526Y0245162D02*
X0293962Y0245162D01*
X0294321Y0245521D02*
X0292167Y0245521D01*
X0291808Y0245880D02*
X0294128Y0245880D01*
X0293769Y0246239D02*
X0291449Y0246239D01*
X0291090Y0246598D02*
X0293410Y0246598D01*
X0293051Y0246957D02*
X0290731Y0246957D01*
X0290372Y0247316D02*
X0292692Y0247316D01*
X0292333Y0247675D02*
X0290199Y0247675D01*
X0290558Y0248034D02*
X0291974Y0248034D01*
X0291615Y0248393D02*
X0290917Y0248393D01*
X0295471Y0246671D02*
X0296631Y0247831D01*
X0295471Y0246671D02*
X0292333Y0249809D01*
X0293493Y0250969D01*
X0296631Y0247831D01*
X0295830Y0247030D02*
X0295112Y0247030D01*
X0294753Y0247389D02*
X0296189Y0247389D01*
X0296548Y0247748D02*
X0294394Y0247748D01*
X0294035Y0248107D02*
X0296355Y0248107D01*
X0295996Y0248466D02*
X0293676Y0248466D01*
X0293317Y0248825D02*
X0295637Y0248825D01*
X0295278Y0249184D02*
X0292958Y0249184D01*
X0292599Y0249543D02*
X0294919Y0249543D01*
X0294560Y0249902D02*
X0292426Y0249902D01*
X0292785Y0250261D02*
X0294201Y0250261D01*
X0293842Y0250620D02*
X0293144Y0250620D01*
X0297698Y0248898D02*
X0298858Y0250058D01*
X0297698Y0248898D02*
X0294560Y0252036D01*
X0295720Y0253196D01*
X0298858Y0250058D01*
X0298057Y0249257D02*
X0297339Y0249257D01*
X0296980Y0249616D02*
X0298416Y0249616D01*
X0298775Y0249975D02*
X0296621Y0249975D01*
X0296262Y0250334D02*
X0298582Y0250334D01*
X0298223Y0250693D02*
X0295903Y0250693D01*
X0295544Y0251052D02*
X0297864Y0251052D01*
X0297505Y0251411D02*
X0295185Y0251411D01*
X0294826Y0251770D02*
X0297146Y0251770D01*
X0296787Y0252129D02*
X0294653Y0252129D01*
X0295012Y0252488D02*
X0296428Y0252488D01*
X0296069Y0252847D02*
X0295371Y0252847D01*
X0299925Y0251125D02*
X0301085Y0252285D01*
X0299925Y0251125D02*
X0296787Y0254263D01*
X0297947Y0255423D01*
X0301085Y0252285D01*
X0300284Y0251484D02*
X0299566Y0251484D01*
X0299207Y0251843D02*
X0300643Y0251843D01*
X0301002Y0252202D02*
X0298848Y0252202D01*
X0298489Y0252561D02*
X0300809Y0252561D01*
X0300450Y0252920D02*
X0298130Y0252920D01*
X0297771Y0253279D02*
X0300091Y0253279D01*
X0299732Y0253638D02*
X0297412Y0253638D01*
X0297053Y0253997D02*
X0299373Y0253997D01*
X0299014Y0254356D02*
X0296880Y0254356D01*
X0297239Y0254715D02*
X0298655Y0254715D01*
X0298296Y0255074D02*
X0297598Y0255074D01*
X0302152Y0253352D02*
X0303312Y0254512D01*
X0302152Y0253352D02*
X0299014Y0256490D01*
X0300174Y0257650D01*
X0303312Y0254512D01*
X0302511Y0253711D02*
X0301793Y0253711D01*
X0301434Y0254070D02*
X0302870Y0254070D01*
X0303229Y0254429D02*
X0301075Y0254429D01*
X0300716Y0254788D02*
X0303036Y0254788D01*
X0302677Y0255147D02*
X0300357Y0255147D01*
X0299998Y0255506D02*
X0302318Y0255506D01*
X0301959Y0255865D02*
X0299639Y0255865D01*
X0299280Y0256224D02*
X0301600Y0256224D01*
X0301241Y0256583D02*
X0299107Y0256583D01*
X0299466Y0256942D02*
X0300882Y0256942D01*
X0300523Y0257301D02*
X0299825Y0257301D01*
X0304380Y0255579D02*
X0305540Y0256739D01*
X0304380Y0255579D02*
X0301242Y0258717D01*
X0302402Y0259877D01*
X0305540Y0256739D01*
X0304739Y0255938D02*
X0304021Y0255938D01*
X0303662Y0256297D02*
X0305098Y0256297D01*
X0305457Y0256656D02*
X0303303Y0256656D01*
X0302944Y0257015D02*
X0305264Y0257015D01*
X0304905Y0257374D02*
X0302585Y0257374D01*
X0302226Y0257733D02*
X0304546Y0257733D01*
X0304187Y0258092D02*
X0301867Y0258092D01*
X0301508Y0258451D02*
X0303828Y0258451D01*
X0303469Y0258810D02*
X0301335Y0258810D01*
X0301694Y0259169D02*
X0303110Y0259169D01*
X0302751Y0259528D02*
X0302053Y0259528D01*
X0306607Y0257807D02*
X0307767Y0258967D01*
X0306607Y0257807D02*
X0303469Y0260945D01*
X0304629Y0262105D01*
X0307767Y0258967D01*
X0306966Y0258166D02*
X0306248Y0258166D01*
X0305889Y0258525D02*
X0307325Y0258525D01*
X0307684Y0258884D02*
X0305530Y0258884D01*
X0305171Y0259243D02*
X0307491Y0259243D01*
X0307132Y0259602D02*
X0304812Y0259602D01*
X0304453Y0259961D02*
X0306773Y0259961D01*
X0306414Y0260320D02*
X0304094Y0260320D01*
X0303735Y0260679D02*
X0306055Y0260679D01*
X0305696Y0261038D02*
X0303562Y0261038D01*
X0303921Y0261397D02*
X0305337Y0261397D01*
X0304978Y0261756D02*
X0304280Y0261756D01*
X0308834Y0260034D02*
X0309994Y0261194D01*
X0308834Y0260034D02*
X0305696Y0263172D01*
X0306856Y0264332D01*
X0309994Y0261194D01*
X0309193Y0260393D02*
X0308475Y0260393D01*
X0308116Y0260752D02*
X0309552Y0260752D01*
X0309911Y0261111D02*
X0307757Y0261111D01*
X0307398Y0261470D02*
X0309718Y0261470D01*
X0309359Y0261829D02*
X0307039Y0261829D01*
X0306680Y0262188D02*
X0309000Y0262188D01*
X0308641Y0262547D02*
X0306321Y0262547D01*
X0305962Y0262906D02*
X0308282Y0262906D01*
X0307923Y0263265D02*
X0305789Y0263265D01*
X0306148Y0263624D02*
X0307564Y0263624D01*
X0307205Y0263983D02*
X0306507Y0263983D01*
X0315166Y0260034D02*
X0318304Y0263172D01*
X0315166Y0260034D02*
X0314006Y0261194D01*
X0317144Y0264332D01*
X0318304Y0263172D01*
X0315525Y0260393D02*
X0314807Y0260393D01*
X0314448Y0260752D02*
X0315884Y0260752D01*
X0316243Y0261111D02*
X0314089Y0261111D01*
X0314282Y0261470D02*
X0316602Y0261470D01*
X0316961Y0261829D02*
X0314641Y0261829D01*
X0315000Y0262188D02*
X0317320Y0262188D01*
X0317679Y0262547D02*
X0315359Y0262547D01*
X0315718Y0262906D02*
X0318038Y0262906D01*
X0318211Y0263265D02*
X0316077Y0263265D01*
X0316436Y0263624D02*
X0317852Y0263624D01*
X0317493Y0263983D02*
X0316795Y0263983D01*
X0320531Y0260945D02*
X0317393Y0257807D01*
X0316233Y0258967D01*
X0319371Y0262105D01*
X0320531Y0260945D01*
X0317752Y0258166D02*
X0317034Y0258166D01*
X0316675Y0258525D02*
X0318111Y0258525D01*
X0318470Y0258884D02*
X0316316Y0258884D01*
X0316509Y0259243D02*
X0318829Y0259243D01*
X0319188Y0259602D02*
X0316868Y0259602D01*
X0317227Y0259961D02*
X0319547Y0259961D01*
X0319906Y0260320D02*
X0317586Y0260320D01*
X0317945Y0260679D02*
X0320265Y0260679D01*
X0320438Y0261038D02*
X0318304Y0261038D01*
X0318663Y0261397D02*
X0320079Y0261397D01*
X0319720Y0261756D02*
X0319022Y0261756D01*
X0322758Y0258717D02*
X0319620Y0255579D01*
X0318460Y0256739D01*
X0321598Y0259877D01*
X0322758Y0258717D01*
X0319979Y0255938D02*
X0319261Y0255938D01*
X0318902Y0256297D02*
X0320338Y0256297D01*
X0320697Y0256656D02*
X0318543Y0256656D01*
X0318736Y0257015D02*
X0321056Y0257015D01*
X0321415Y0257374D02*
X0319095Y0257374D01*
X0319454Y0257733D02*
X0321774Y0257733D01*
X0322133Y0258092D02*
X0319813Y0258092D01*
X0320172Y0258451D02*
X0322492Y0258451D01*
X0322665Y0258810D02*
X0320531Y0258810D01*
X0320890Y0259169D02*
X0322306Y0259169D01*
X0321947Y0259528D02*
X0321249Y0259528D01*
X0324986Y0256490D02*
X0321848Y0253352D01*
X0320688Y0254512D01*
X0323826Y0257650D01*
X0324986Y0256490D01*
X0322207Y0253711D02*
X0321489Y0253711D01*
X0321130Y0254070D02*
X0322566Y0254070D01*
X0322925Y0254429D02*
X0320771Y0254429D01*
X0320964Y0254788D02*
X0323284Y0254788D01*
X0323643Y0255147D02*
X0321323Y0255147D01*
X0321682Y0255506D02*
X0324002Y0255506D01*
X0324361Y0255865D02*
X0322041Y0255865D01*
X0322400Y0256224D02*
X0324720Y0256224D01*
X0324893Y0256583D02*
X0322759Y0256583D01*
X0323118Y0256942D02*
X0324534Y0256942D01*
X0324175Y0257301D02*
X0323477Y0257301D01*
X0327213Y0254263D02*
X0324075Y0251125D01*
X0322915Y0252285D01*
X0326053Y0255423D01*
X0327213Y0254263D01*
X0324434Y0251484D02*
X0323716Y0251484D01*
X0323357Y0251843D02*
X0324793Y0251843D01*
X0325152Y0252202D02*
X0322998Y0252202D01*
X0323191Y0252561D02*
X0325511Y0252561D01*
X0325870Y0252920D02*
X0323550Y0252920D01*
X0323909Y0253279D02*
X0326229Y0253279D01*
X0326588Y0253638D02*
X0324268Y0253638D01*
X0324627Y0253997D02*
X0326947Y0253997D01*
X0327120Y0254356D02*
X0324986Y0254356D01*
X0325345Y0254715D02*
X0326761Y0254715D01*
X0326402Y0255074D02*
X0325704Y0255074D01*
X0329440Y0252036D02*
X0326302Y0248898D01*
X0325142Y0250058D01*
X0328280Y0253196D01*
X0329440Y0252036D01*
X0326661Y0249257D02*
X0325943Y0249257D01*
X0325584Y0249616D02*
X0327020Y0249616D01*
X0327379Y0249975D02*
X0325225Y0249975D01*
X0325418Y0250334D02*
X0327738Y0250334D01*
X0328097Y0250693D02*
X0325777Y0250693D01*
X0326136Y0251052D02*
X0328456Y0251052D01*
X0328815Y0251411D02*
X0326495Y0251411D01*
X0326854Y0251770D02*
X0329174Y0251770D01*
X0329347Y0252129D02*
X0327213Y0252129D01*
X0327572Y0252488D02*
X0328988Y0252488D01*
X0328629Y0252847D02*
X0327931Y0252847D01*
X0331667Y0249809D02*
X0328529Y0246671D01*
X0327369Y0247831D01*
X0330507Y0250969D01*
X0331667Y0249809D01*
X0328888Y0247030D02*
X0328170Y0247030D01*
X0327811Y0247389D02*
X0329247Y0247389D01*
X0329606Y0247748D02*
X0327452Y0247748D01*
X0327645Y0248107D02*
X0329965Y0248107D01*
X0330324Y0248466D02*
X0328004Y0248466D01*
X0328363Y0248825D02*
X0330683Y0248825D01*
X0331042Y0249184D02*
X0328722Y0249184D01*
X0329081Y0249543D02*
X0331401Y0249543D01*
X0331574Y0249902D02*
X0329440Y0249902D01*
X0329799Y0250261D02*
X0331215Y0250261D01*
X0330856Y0250620D02*
X0330158Y0250620D01*
X0333894Y0247582D02*
X0330756Y0244444D01*
X0329596Y0245604D01*
X0332734Y0248742D01*
X0333894Y0247582D01*
X0331115Y0244803D02*
X0330397Y0244803D01*
X0330038Y0245162D02*
X0331474Y0245162D01*
X0331833Y0245521D02*
X0329679Y0245521D01*
X0329872Y0245880D02*
X0332192Y0245880D01*
X0332551Y0246239D02*
X0330231Y0246239D01*
X0330590Y0246598D02*
X0332910Y0246598D01*
X0333269Y0246957D02*
X0330949Y0246957D01*
X0331308Y0247316D02*
X0333628Y0247316D01*
X0333801Y0247675D02*
X0331667Y0247675D01*
X0332026Y0248034D02*
X0333442Y0248034D01*
X0333083Y0248393D02*
X0332385Y0248393D01*
X0333894Y0237293D02*
X0332734Y0236133D01*
X0329596Y0239271D01*
X0330756Y0240431D01*
X0333894Y0237293D01*
X0333093Y0236492D02*
X0332375Y0236492D01*
X0332016Y0236851D02*
X0333452Y0236851D01*
X0333811Y0237210D02*
X0331657Y0237210D01*
X0331298Y0237569D02*
X0333618Y0237569D01*
X0333259Y0237928D02*
X0330939Y0237928D01*
X0330580Y0238287D02*
X0332900Y0238287D01*
X0332541Y0238646D02*
X0330221Y0238646D01*
X0329862Y0239005D02*
X0332182Y0239005D01*
X0331823Y0239364D02*
X0329689Y0239364D01*
X0330048Y0239723D02*
X0331464Y0239723D01*
X0331105Y0240082D02*
X0330407Y0240082D01*
X0331667Y0235066D02*
X0330507Y0233906D01*
X0327369Y0237044D01*
X0328529Y0238204D01*
X0331667Y0235066D01*
X0330866Y0234265D02*
X0330148Y0234265D01*
X0329789Y0234624D02*
X0331225Y0234624D01*
X0331584Y0234983D02*
X0329430Y0234983D01*
X0329071Y0235342D02*
X0331391Y0235342D01*
X0331032Y0235701D02*
X0328712Y0235701D01*
X0328353Y0236060D02*
X0330673Y0236060D01*
X0330314Y0236419D02*
X0327994Y0236419D01*
X0327635Y0236778D02*
X0329955Y0236778D01*
X0329596Y0237137D02*
X0327462Y0237137D01*
X0327821Y0237496D02*
X0329237Y0237496D01*
X0328878Y0237855D02*
X0328180Y0237855D01*
X0329440Y0232839D02*
X0328280Y0231679D01*
X0325142Y0234817D01*
X0326302Y0235977D01*
X0329440Y0232839D01*
X0328639Y0232038D02*
X0327921Y0232038D01*
X0327562Y0232397D02*
X0328998Y0232397D01*
X0329357Y0232756D02*
X0327203Y0232756D01*
X0326844Y0233115D02*
X0329164Y0233115D01*
X0328805Y0233474D02*
X0326485Y0233474D01*
X0326126Y0233833D02*
X0328446Y0233833D01*
X0328087Y0234192D02*
X0325767Y0234192D01*
X0325408Y0234551D02*
X0327728Y0234551D01*
X0327369Y0234910D02*
X0325235Y0234910D01*
X0325594Y0235269D02*
X0327010Y0235269D01*
X0326651Y0235628D02*
X0325953Y0235628D01*
X0327213Y0230612D02*
X0326053Y0229452D01*
X0322915Y0232590D01*
X0324075Y0233750D01*
X0327213Y0230612D01*
X0326412Y0229811D02*
X0325694Y0229811D01*
X0325335Y0230170D02*
X0326771Y0230170D01*
X0327130Y0230529D02*
X0324976Y0230529D01*
X0324617Y0230888D02*
X0326937Y0230888D01*
X0326578Y0231247D02*
X0324258Y0231247D01*
X0323899Y0231606D02*
X0326219Y0231606D01*
X0325860Y0231965D02*
X0323540Y0231965D01*
X0323181Y0232324D02*
X0325501Y0232324D01*
X0325142Y0232683D02*
X0323008Y0232683D01*
X0323367Y0233042D02*
X0324783Y0233042D01*
X0324424Y0233401D02*
X0323726Y0233401D01*
X0324986Y0228385D02*
X0323826Y0227225D01*
X0320688Y0230363D01*
X0321848Y0231523D01*
X0324986Y0228385D01*
X0324185Y0227584D02*
X0323467Y0227584D01*
X0323108Y0227943D02*
X0324544Y0227943D01*
X0324903Y0228302D02*
X0322749Y0228302D01*
X0322390Y0228661D02*
X0324710Y0228661D01*
X0324351Y0229020D02*
X0322031Y0229020D01*
X0321672Y0229379D02*
X0323992Y0229379D01*
X0323633Y0229738D02*
X0321313Y0229738D01*
X0320954Y0230097D02*
X0323274Y0230097D01*
X0322915Y0230456D02*
X0320781Y0230456D01*
X0321140Y0230815D02*
X0322556Y0230815D01*
X0322197Y0231174D02*
X0321499Y0231174D01*
X0322758Y0226158D02*
X0321598Y0224998D01*
X0318460Y0228136D01*
X0319620Y0229296D01*
X0322758Y0226158D01*
X0321957Y0225357D02*
X0321239Y0225357D01*
X0320880Y0225716D02*
X0322316Y0225716D01*
X0322675Y0226075D02*
X0320521Y0226075D01*
X0320162Y0226434D02*
X0322482Y0226434D01*
X0322123Y0226793D02*
X0319803Y0226793D01*
X0319444Y0227152D02*
X0321764Y0227152D01*
X0321405Y0227511D02*
X0319085Y0227511D01*
X0318726Y0227870D02*
X0321046Y0227870D01*
X0320687Y0228229D02*
X0318553Y0228229D01*
X0318912Y0228588D02*
X0320328Y0228588D01*
X0319969Y0228947D02*
X0319271Y0228947D01*
X0320531Y0223931D02*
X0319371Y0222771D01*
X0316233Y0225909D01*
X0317393Y0227069D01*
X0320531Y0223931D01*
X0319730Y0223130D02*
X0319012Y0223130D01*
X0318653Y0223489D02*
X0320089Y0223489D01*
X0320448Y0223848D02*
X0318294Y0223848D01*
X0317935Y0224207D02*
X0320255Y0224207D01*
X0319896Y0224566D02*
X0317576Y0224566D01*
X0317217Y0224925D02*
X0319537Y0224925D01*
X0319178Y0225284D02*
X0316858Y0225284D01*
X0316499Y0225643D02*
X0318819Y0225643D01*
X0318460Y0226002D02*
X0316326Y0226002D01*
X0316685Y0226361D02*
X0318101Y0226361D01*
X0317742Y0226720D02*
X0317044Y0226720D01*
X0318304Y0221704D02*
X0317144Y0220544D01*
X0314006Y0223682D01*
X0315166Y0224842D01*
X0318304Y0221704D01*
X0317503Y0220903D02*
X0316785Y0220903D01*
X0316426Y0221262D02*
X0317862Y0221262D01*
X0318221Y0221621D02*
X0316067Y0221621D01*
X0315708Y0221980D02*
X0318028Y0221980D01*
X0317669Y0222339D02*
X0315349Y0222339D01*
X0314990Y0222698D02*
X0317310Y0222698D01*
X0316951Y0223057D02*
X0314631Y0223057D01*
X0314272Y0223416D02*
X0316592Y0223416D01*
X0316233Y0223775D02*
X0314099Y0223775D01*
X0314458Y0224134D02*
X0315874Y0224134D01*
X0315515Y0224493D02*
X0314817Y0224493D01*
D23*
X0314227Y0230121D02*
X0314573Y0230467D01*
X0314227Y0230121D02*
X0312767Y0231581D01*
X0313113Y0231927D01*
X0314573Y0230467D01*
X0314429Y0230611D02*
X0313737Y0230611D01*
X0313939Y0231101D02*
X0313247Y0231101D01*
X0313449Y0231591D02*
X0312777Y0231591D01*
X0315619Y0231513D02*
X0315965Y0231859D01*
X0315619Y0231513D02*
X0314159Y0232973D01*
X0314505Y0233319D01*
X0315965Y0231859D01*
X0315821Y0232003D02*
X0315129Y0232003D01*
X0315331Y0232493D02*
X0314639Y0232493D01*
X0314841Y0232983D02*
X0314169Y0232983D01*
X0317011Y0232905D02*
X0317357Y0233251D01*
X0317011Y0232905D02*
X0315551Y0234365D01*
X0315897Y0234711D01*
X0317357Y0233251D01*
X0317213Y0233395D02*
X0316521Y0233395D01*
X0316723Y0233885D02*
X0316031Y0233885D01*
X0316233Y0234375D02*
X0315561Y0234375D01*
X0318403Y0234297D02*
X0318749Y0234643D01*
X0318403Y0234297D02*
X0316943Y0235757D01*
X0317289Y0236103D01*
X0318749Y0234643D01*
X0318605Y0234787D02*
X0317913Y0234787D01*
X0318115Y0235277D02*
X0317423Y0235277D01*
X0317625Y0235767D02*
X0316953Y0235767D01*
X0319795Y0235688D02*
X0320141Y0236034D01*
X0319795Y0235688D02*
X0318335Y0237148D01*
X0318681Y0237494D01*
X0320141Y0236034D01*
X0319997Y0236178D02*
X0319305Y0236178D01*
X0319507Y0236668D02*
X0318815Y0236668D01*
X0319017Y0237158D02*
X0318345Y0237158D01*
X0321187Y0237080D02*
X0321533Y0237426D01*
X0321187Y0237080D02*
X0319727Y0238540D01*
X0320073Y0238886D01*
X0321533Y0237426D01*
X0321389Y0237570D02*
X0320697Y0237570D01*
X0320899Y0238060D02*
X0320207Y0238060D01*
X0320409Y0238550D02*
X0319737Y0238550D01*
X0322579Y0238472D02*
X0322925Y0238818D01*
X0322579Y0238472D02*
X0321119Y0239932D01*
X0321465Y0240278D01*
X0322925Y0238818D01*
X0322781Y0238962D02*
X0322089Y0238962D01*
X0322291Y0239452D02*
X0321599Y0239452D01*
X0321801Y0239942D02*
X0321129Y0239942D01*
X0323971Y0239864D02*
X0324317Y0240210D01*
X0323971Y0239864D02*
X0322511Y0241324D01*
X0322857Y0241670D01*
X0324317Y0240210D01*
X0324173Y0240354D02*
X0323481Y0240354D01*
X0323683Y0240844D02*
X0322991Y0240844D01*
X0323193Y0241334D02*
X0322521Y0241334D01*
X0322857Y0243205D02*
X0324317Y0244665D01*
X0322857Y0243205D02*
X0322511Y0243551D01*
X0323971Y0245011D01*
X0324317Y0244665D01*
X0323347Y0243695D02*
X0322655Y0243695D01*
X0323145Y0244185D02*
X0323837Y0244185D01*
X0323635Y0244675D02*
X0324307Y0244675D01*
X0322925Y0246057D02*
X0321465Y0244597D01*
X0321119Y0244943D01*
X0322579Y0246403D01*
X0322925Y0246057D01*
X0321955Y0245087D02*
X0321263Y0245087D01*
X0321753Y0245577D02*
X0322445Y0245577D01*
X0322243Y0246067D02*
X0322915Y0246067D01*
X0321533Y0247449D02*
X0320073Y0245989D01*
X0319727Y0246335D01*
X0321187Y0247795D01*
X0321533Y0247449D01*
X0320563Y0246479D02*
X0319871Y0246479D01*
X0320361Y0246969D02*
X0321053Y0246969D01*
X0320851Y0247459D02*
X0321523Y0247459D01*
X0320141Y0248841D02*
X0318681Y0247381D01*
X0318335Y0247727D01*
X0319795Y0249187D01*
X0320141Y0248841D01*
X0319171Y0247871D02*
X0318479Y0247871D01*
X0318969Y0248361D02*
X0319661Y0248361D01*
X0319459Y0248851D02*
X0320131Y0248851D01*
X0318749Y0250233D02*
X0317289Y0248773D01*
X0316943Y0249119D01*
X0318403Y0250579D01*
X0318749Y0250233D01*
X0317779Y0249263D02*
X0317087Y0249263D01*
X0317577Y0249753D02*
X0318269Y0249753D01*
X0318067Y0250243D02*
X0318739Y0250243D01*
X0317357Y0251625D02*
X0315897Y0250165D01*
X0315551Y0250511D01*
X0317011Y0251971D01*
X0317357Y0251625D01*
X0316387Y0250655D02*
X0315695Y0250655D01*
X0316185Y0251145D02*
X0316877Y0251145D01*
X0316675Y0251635D02*
X0317347Y0251635D01*
X0315965Y0253017D02*
X0314505Y0251557D01*
X0314159Y0251903D01*
X0315619Y0253363D01*
X0315965Y0253017D01*
X0314995Y0252047D02*
X0314303Y0252047D01*
X0314793Y0252537D02*
X0315485Y0252537D01*
X0315283Y0253027D02*
X0315955Y0253027D01*
X0314573Y0254409D02*
X0313113Y0252949D01*
X0312767Y0253295D01*
X0314227Y0254755D01*
X0314573Y0254409D01*
X0313603Y0253439D02*
X0312911Y0253439D01*
X0313401Y0253929D02*
X0314093Y0253929D01*
X0313891Y0254419D02*
X0314563Y0254419D01*
X0311233Y0253295D02*
X0310887Y0252949D01*
X0309427Y0254409D01*
X0309773Y0254755D01*
X0311233Y0253295D01*
X0311089Y0253439D02*
X0310397Y0253439D01*
X0310599Y0253929D02*
X0309907Y0253929D01*
X0310109Y0254419D02*
X0309437Y0254419D01*
X0309841Y0251903D02*
X0309495Y0251557D01*
X0308035Y0253017D01*
X0308381Y0253363D01*
X0309841Y0251903D01*
X0309697Y0252047D02*
X0309005Y0252047D01*
X0309207Y0252537D02*
X0308515Y0252537D01*
X0308717Y0253027D02*
X0308045Y0253027D01*
X0308449Y0250511D02*
X0308103Y0250165D01*
X0306643Y0251625D01*
X0306989Y0251971D01*
X0308449Y0250511D01*
X0308305Y0250655D02*
X0307613Y0250655D01*
X0307815Y0251145D02*
X0307123Y0251145D01*
X0307325Y0251635D02*
X0306653Y0251635D01*
X0307057Y0249119D02*
X0306711Y0248773D01*
X0305251Y0250233D01*
X0305597Y0250579D01*
X0307057Y0249119D01*
X0306913Y0249263D02*
X0306221Y0249263D01*
X0306423Y0249753D02*
X0305731Y0249753D01*
X0305933Y0250243D02*
X0305261Y0250243D01*
X0305665Y0247727D02*
X0305319Y0247381D01*
X0303859Y0248841D01*
X0304205Y0249187D01*
X0305665Y0247727D01*
X0305521Y0247871D02*
X0304829Y0247871D01*
X0305031Y0248361D02*
X0304339Y0248361D01*
X0304541Y0248851D02*
X0303869Y0248851D01*
X0304273Y0246335D02*
X0303927Y0245989D01*
X0302467Y0247449D01*
X0302813Y0247795D01*
X0304273Y0246335D01*
X0304129Y0246479D02*
X0303437Y0246479D01*
X0303639Y0246969D02*
X0302947Y0246969D01*
X0303149Y0247459D02*
X0302477Y0247459D01*
X0302881Y0244943D02*
X0302535Y0244597D01*
X0301075Y0246057D01*
X0301421Y0246403D01*
X0302881Y0244943D01*
X0302737Y0245087D02*
X0302045Y0245087D01*
X0302247Y0245577D02*
X0301555Y0245577D01*
X0301757Y0246067D02*
X0301085Y0246067D01*
X0301489Y0243551D02*
X0301143Y0243205D01*
X0299683Y0244665D01*
X0300029Y0245011D01*
X0301489Y0243551D01*
X0301345Y0243695D02*
X0300653Y0243695D01*
X0300855Y0244185D02*
X0300163Y0244185D01*
X0300365Y0244675D02*
X0299693Y0244675D01*
X0301489Y0241324D02*
X0300029Y0239864D01*
X0299683Y0240210D01*
X0301143Y0241670D01*
X0301489Y0241324D01*
X0300519Y0240354D02*
X0299827Y0240354D01*
X0300317Y0240844D02*
X0301009Y0240844D01*
X0300807Y0241334D02*
X0301479Y0241334D01*
X0302881Y0239932D02*
X0301421Y0238472D01*
X0301075Y0238818D01*
X0302535Y0240278D01*
X0302881Y0239932D01*
X0301911Y0238962D02*
X0301219Y0238962D01*
X0301709Y0239452D02*
X0302401Y0239452D01*
X0302199Y0239942D02*
X0302871Y0239942D01*
X0304273Y0238540D02*
X0302813Y0237080D01*
X0302467Y0237426D01*
X0303927Y0238886D01*
X0304273Y0238540D01*
X0303303Y0237570D02*
X0302611Y0237570D01*
X0303101Y0238060D02*
X0303793Y0238060D01*
X0303591Y0238550D02*
X0304263Y0238550D01*
X0305665Y0237148D02*
X0304205Y0235688D01*
X0303859Y0236034D01*
X0305319Y0237494D01*
X0305665Y0237148D01*
X0304695Y0236178D02*
X0304003Y0236178D01*
X0304493Y0236668D02*
X0305185Y0236668D01*
X0304983Y0237158D02*
X0305655Y0237158D01*
X0307057Y0235757D02*
X0305597Y0234297D01*
X0305251Y0234643D01*
X0306711Y0236103D01*
X0307057Y0235757D01*
X0306087Y0234787D02*
X0305395Y0234787D01*
X0305885Y0235277D02*
X0306577Y0235277D01*
X0306375Y0235767D02*
X0307047Y0235767D01*
X0308449Y0234365D02*
X0306989Y0232905D01*
X0306643Y0233251D01*
X0308103Y0234711D01*
X0308449Y0234365D01*
X0307479Y0233395D02*
X0306787Y0233395D01*
X0307277Y0233885D02*
X0307969Y0233885D01*
X0307767Y0234375D02*
X0308439Y0234375D01*
X0309841Y0232973D02*
X0308381Y0231513D01*
X0308035Y0231859D01*
X0309495Y0233319D01*
X0309841Y0232973D01*
X0308871Y0232003D02*
X0308179Y0232003D01*
X0308669Y0232493D02*
X0309361Y0232493D01*
X0309159Y0232983D02*
X0309831Y0232983D01*
X0311233Y0231581D02*
X0309773Y0230121D01*
X0309427Y0230467D01*
X0310887Y0231927D01*
X0311233Y0231581D01*
X0310263Y0230611D02*
X0309571Y0230611D01*
X0310061Y0231101D02*
X0310753Y0231101D01*
X0310551Y0231591D02*
X0311223Y0231591D01*
D24*
X0323718Y0201094D02*
X0323718Y0191774D01*
X0323718Y0201094D02*
X0328038Y0201094D01*
X0328038Y0191774D01*
X0323718Y0191774D01*
X0323718Y0192253D02*
X0328038Y0192253D01*
X0328038Y0192732D02*
X0323718Y0192732D01*
X0323718Y0193211D02*
X0328038Y0193211D01*
X0328038Y0193690D02*
X0323718Y0193690D01*
X0323718Y0194169D02*
X0328038Y0194169D01*
X0328038Y0194648D02*
X0323718Y0194648D01*
X0323718Y0195127D02*
X0328038Y0195127D01*
X0328038Y0195606D02*
X0323718Y0195606D01*
X0323718Y0196085D02*
X0328038Y0196085D01*
X0328038Y0196564D02*
X0323718Y0196564D01*
X0323718Y0197043D02*
X0328038Y0197043D01*
X0328038Y0197522D02*
X0323718Y0197522D01*
X0323718Y0198001D02*
X0328038Y0198001D01*
X0328038Y0198480D02*
X0323718Y0198480D01*
X0323718Y0198959D02*
X0328038Y0198959D01*
X0328038Y0199438D02*
X0323718Y0199438D01*
X0323718Y0199917D02*
X0328038Y0199917D01*
X0328038Y0200396D02*
X0323718Y0200396D01*
X0323718Y0200875D02*
X0328038Y0200875D01*
X0331592Y0201094D02*
X0331592Y0191774D01*
X0331592Y0201094D02*
X0335912Y0201094D01*
X0335912Y0191774D01*
X0331592Y0191774D01*
X0331592Y0192253D02*
X0335912Y0192253D01*
X0335912Y0192732D02*
X0331592Y0192732D01*
X0331592Y0193211D02*
X0335912Y0193211D01*
X0335912Y0193690D02*
X0331592Y0193690D01*
X0331592Y0194169D02*
X0335912Y0194169D01*
X0335912Y0194648D02*
X0331592Y0194648D01*
X0331592Y0195127D02*
X0335912Y0195127D01*
X0335912Y0195606D02*
X0331592Y0195606D01*
X0331592Y0196085D02*
X0335912Y0196085D01*
X0335912Y0196564D02*
X0331592Y0196564D01*
X0331592Y0197043D02*
X0335912Y0197043D01*
X0335912Y0197522D02*
X0331592Y0197522D01*
X0331592Y0198001D02*
X0335912Y0198001D01*
X0335912Y0198480D02*
X0331592Y0198480D01*
X0331592Y0198959D02*
X0335912Y0198959D01*
X0335912Y0199438D02*
X0331592Y0199438D01*
X0331592Y0199917D02*
X0335912Y0199917D01*
X0335912Y0200396D02*
X0331592Y0200396D01*
X0331592Y0200875D02*
X0335912Y0200875D01*
X0339466Y0201094D02*
X0339466Y0191774D01*
X0339466Y0201094D02*
X0343786Y0201094D01*
X0343786Y0191774D01*
X0339466Y0191774D01*
X0339466Y0192253D02*
X0343786Y0192253D01*
X0343786Y0192732D02*
X0339466Y0192732D01*
X0339466Y0193211D02*
X0343786Y0193211D01*
X0343786Y0193690D02*
X0339466Y0193690D01*
X0339466Y0194169D02*
X0343786Y0194169D01*
X0343786Y0194648D02*
X0339466Y0194648D01*
X0339466Y0195127D02*
X0343786Y0195127D01*
X0343786Y0195606D02*
X0339466Y0195606D01*
X0339466Y0196085D02*
X0343786Y0196085D01*
X0343786Y0196564D02*
X0339466Y0196564D01*
X0339466Y0197043D02*
X0343786Y0197043D01*
X0343786Y0197522D02*
X0339466Y0197522D01*
X0339466Y0198001D02*
X0343786Y0198001D01*
X0343786Y0198480D02*
X0339466Y0198480D01*
X0339466Y0198959D02*
X0343786Y0198959D01*
X0343786Y0199438D02*
X0339466Y0199438D01*
X0339466Y0199917D02*
X0343786Y0199917D01*
X0343786Y0200396D02*
X0339466Y0200396D01*
X0339466Y0200875D02*
X0343786Y0200875D01*
X0347340Y0201094D02*
X0347340Y0191774D01*
X0347340Y0201094D02*
X0351660Y0201094D01*
X0351660Y0191774D01*
X0347340Y0191774D01*
X0347340Y0192253D02*
X0351660Y0192253D01*
X0351660Y0192732D02*
X0347340Y0192732D01*
X0347340Y0193211D02*
X0351660Y0193211D01*
X0351660Y0193690D02*
X0347340Y0193690D01*
X0347340Y0194169D02*
X0351660Y0194169D01*
X0351660Y0194648D02*
X0347340Y0194648D01*
X0347340Y0195127D02*
X0351660Y0195127D01*
X0351660Y0195606D02*
X0347340Y0195606D01*
X0347340Y0196085D02*
X0351660Y0196085D01*
X0351660Y0196564D02*
X0347340Y0196564D01*
X0347340Y0197043D02*
X0351660Y0197043D01*
X0351660Y0197522D02*
X0347340Y0197522D01*
X0347340Y0198001D02*
X0351660Y0198001D01*
X0351660Y0198480D02*
X0347340Y0198480D01*
X0347340Y0198959D02*
X0351660Y0198959D01*
X0351660Y0199438D02*
X0347340Y0199438D01*
X0347340Y0199917D02*
X0351660Y0199917D01*
X0351660Y0200396D02*
X0347340Y0200396D01*
X0347340Y0200875D02*
X0351660Y0200875D01*
X0355214Y0201094D02*
X0355214Y0191774D01*
X0355214Y0201094D02*
X0359534Y0201094D01*
X0359534Y0191774D01*
X0355214Y0191774D01*
X0355214Y0192253D02*
X0359534Y0192253D01*
X0359534Y0192732D02*
X0355214Y0192732D01*
X0355214Y0193211D02*
X0359534Y0193211D01*
X0359534Y0193690D02*
X0355214Y0193690D01*
X0355214Y0194169D02*
X0359534Y0194169D01*
X0359534Y0194648D02*
X0355214Y0194648D01*
X0355214Y0195127D02*
X0359534Y0195127D01*
X0359534Y0195606D02*
X0355214Y0195606D01*
X0355214Y0196085D02*
X0359534Y0196085D01*
X0359534Y0196564D02*
X0355214Y0196564D01*
X0355214Y0197043D02*
X0359534Y0197043D01*
X0359534Y0197522D02*
X0355214Y0197522D01*
X0355214Y0198001D02*
X0359534Y0198001D01*
X0359534Y0198480D02*
X0355214Y0198480D01*
X0355214Y0198959D02*
X0359534Y0198959D01*
X0359534Y0199438D02*
X0355214Y0199438D01*
X0355214Y0199917D02*
X0359534Y0199917D01*
X0359534Y0200396D02*
X0355214Y0200396D01*
X0355214Y0200875D02*
X0359534Y0200875D01*
X0363088Y0201094D02*
X0363088Y0191774D01*
X0363088Y0201094D02*
X0367408Y0201094D01*
X0367408Y0191774D01*
X0363088Y0191774D01*
X0363088Y0192253D02*
X0367408Y0192253D01*
X0367408Y0192732D02*
X0363088Y0192732D01*
X0363088Y0193211D02*
X0367408Y0193211D01*
X0367408Y0193690D02*
X0363088Y0193690D01*
X0363088Y0194169D02*
X0367408Y0194169D01*
X0367408Y0194648D02*
X0363088Y0194648D01*
X0363088Y0195127D02*
X0367408Y0195127D01*
X0367408Y0195606D02*
X0363088Y0195606D01*
X0363088Y0196085D02*
X0367408Y0196085D01*
X0367408Y0196564D02*
X0363088Y0196564D01*
X0363088Y0197043D02*
X0367408Y0197043D01*
X0367408Y0197522D02*
X0363088Y0197522D01*
X0363088Y0198001D02*
X0367408Y0198001D01*
X0367408Y0198480D02*
X0363088Y0198480D01*
X0363088Y0198959D02*
X0367408Y0198959D01*
X0367408Y0199438D02*
X0363088Y0199438D01*
X0363088Y0199917D02*
X0367408Y0199917D01*
X0367408Y0200396D02*
X0363088Y0200396D01*
X0363088Y0200875D02*
X0367408Y0200875D01*
X0370962Y0201094D02*
X0370962Y0191774D01*
X0370962Y0201094D02*
X0375282Y0201094D01*
X0375282Y0191774D01*
X0370962Y0191774D01*
X0370962Y0192253D02*
X0375282Y0192253D01*
X0375282Y0192732D02*
X0370962Y0192732D01*
X0370962Y0193211D02*
X0375282Y0193211D01*
X0375282Y0193690D02*
X0370962Y0193690D01*
X0370962Y0194169D02*
X0375282Y0194169D01*
X0375282Y0194648D02*
X0370962Y0194648D01*
X0370962Y0195127D02*
X0375282Y0195127D01*
X0375282Y0195606D02*
X0370962Y0195606D01*
X0370962Y0196085D02*
X0375282Y0196085D01*
X0375282Y0196564D02*
X0370962Y0196564D01*
X0370962Y0197043D02*
X0375282Y0197043D01*
X0375282Y0197522D02*
X0370962Y0197522D01*
X0370962Y0198001D02*
X0375282Y0198001D01*
X0375282Y0198480D02*
X0370962Y0198480D01*
X0370962Y0198959D02*
X0375282Y0198959D01*
X0375282Y0199438D02*
X0370962Y0199438D01*
X0370962Y0199917D02*
X0375282Y0199917D01*
X0375282Y0200396D02*
X0370962Y0200396D01*
X0370962Y0200875D02*
X0375282Y0200875D01*
X0370962Y0138102D02*
X0370962Y0128782D01*
X0370962Y0138102D02*
X0375282Y0138102D01*
X0375282Y0128782D01*
X0370962Y0128782D01*
X0370962Y0129261D02*
X0375282Y0129261D01*
X0375282Y0129740D02*
X0370962Y0129740D01*
X0370962Y0130219D02*
X0375282Y0130219D01*
X0375282Y0130698D02*
X0370962Y0130698D01*
X0370962Y0131177D02*
X0375282Y0131177D01*
X0375282Y0131656D02*
X0370962Y0131656D01*
X0370962Y0132135D02*
X0375282Y0132135D01*
X0375282Y0132614D02*
X0370962Y0132614D01*
X0370962Y0133093D02*
X0375282Y0133093D01*
X0375282Y0133572D02*
X0370962Y0133572D01*
X0370962Y0134051D02*
X0375282Y0134051D01*
X0375282Y0134530D02*
X0370962Y0134530D01*
X0370962Y0135009D02*
X0375282Y0135009D01*
X0375282Y0135488D02*
X0370962Y0135488D01*
X0370962Y0135967D02*
X0375282Y0135967D01*
X0375282Y0136446D02*
X0370962Y0136446D01*
X0370962Y0136925D02*
X0375282Y0136925D01*
X0375282Y0137404D02*
X0370962Y0137404D01*
X0370962Y0137883D02*
X0375282Y0137883D01*
X0363088Y0138102D02*
X0363088Y0128782D01*
X0363088Y0138102D02*
X0367408Y0138102D01*
X0367408Y0128782D01*
X0363088Y0128782D01*
X0363088Y0129261D02*
X0367408Y0129261D01*
X0367408Y0129740D02*
X0363088Y0129740D01*
X0363088Y0130219D02*
X0367408Y0130219D01*
X0367408Y0130698D02*
X0363088Y0130698D01*
X0363088Y0131177D02*
X0367408Y0131177D01*
X0367408Y0131656D02*
X0363088Y0131656D01*
X0363088Y0132135D02*
X0367408Y0132135D01*
X0367408Y0132614D02*
X0363088Y0132614D01*
X0363088Y0133093D02*
X0367408Y0133093D01*
X0367408Y0133572D02*
X0363088Y0133572D01*
X0363088Y0134051D02*
X0367408Y0134051D01*
X0367408Y0134530D02*
X0363088Y0134530D01*
X0363088Y0135009D02*
X0367408Y0135009D01*
X0367408Y0135488D02*
X0363088Y0135488D01*
X0363088Y0135967D02*
X0367408Y0135967D01*
X0367408Y0136446D02*
X0363088Y0136446D01*
X0363088Y0136925D02*
X0367408Y0136925D01*
X0367408Y0137404D02*
X0363088Y0137404D01*
X0363088Y0137883D02*
X0367408Y0137883D01*
X0355214Y0138102D02*
X0355214Y0128782D01*
X0355214Y0138102D02*
X0359534Y0138102D01*
X0359534Y0128782D01*
X0355214Y0128782D01*
X0355214Y0129261D02*
X0359534Y0129261D01*
X0359534Y0129740D02*
X0355214Y0129740D01*
X0355214Y0130219D02*
X0359534Y0130219D01*
X0359534Y0130698D02*
X0355214Y0130698D01*
X0355214Y0131177D02*
X0359534Y0131177D01*
X0359534Y0131656D02*
X0355214Y0131656D01*
X0355214Y0132135D02*
X0359534Y0132135D01*
X0359534Y0132614D02*
X0355214Y0132614D01*
X0355214Y0133093D02*
X0359534Y0133093D01*
X0359534Y0133572D02*
X0355214Y0133572D01*
X0355214Y0134051D02*
X0359534Y0134051D01*
X0359534Y0134530D02*
X0355214Y0134530D01*
X0355214Y0135009D02*
X0359534Y0135009D01*
X0359534Y0135488D02*
X0355214Y0135488D01*
X0355214Y0135967D02*
X0359534Y0135967D01*
X0359534Y0136446D02*
X0355214Y0136446D01*
X0355214Y0136925D02*
X0359534Y0136925D01*
X0359534Y0137404D02*
X0355214Y0137404D01*
X0355214Y0137883D02*
X0359534Y0137883D01*
X0347340Y0138102D02*
X0347340Y0128782D01*
X0347340Y0138102D02*
X0351660Y0138102D01*
X0351660Y0128782D01*
X0347340Y0128782D01*
X0347340Y0129261D02*
X0351660Y0129261D01*
X0351660Y0129740D02*
X0347340Y0129740D01*
X0347340Y0130219D02*
X0351660Y0130219D01*
X0351660Y0130698D02*
X0347340Y0130698D01*
X0347340Y0131177D02*
X0351660Y0131177D01*
X0351660Y0131656D02*
X0347340Y0131656D01*
X0347340Y0132135D02*
X0351660Y0132135D01*
X0351660Y0132614D02*
X0347340Y0132614D01*
X0347340Y0133093D02*
X0351660Y0133093D01*
X0351660Y0133572D02*
X0347340Y0133572D01*
X0347340Y0134051D02*
X0351660Y0134051D01*
X0351660Y0134530D02*
X0347340Y0134530D01*
X0347340Y0135009D02*
X0351660Y0135009D01*
X0351660Y0135488D02*
X0347340Y0135488D01*
X0347340Y0135967D02*
X0351660Y0135967D01*
X0351660Y0136446D02*
X0347340Y0136446D01*
X0347340Y0136925D02*
X0351660Y0136925D01*
X0351660Y0137404D02*
X0347340Y0137404D01*
X0347340Y0137883D02*
X0351660Y0137883D01*
X0339466Y0138102D02*
X0339466Y0128782D01*
X0339466Y0138102D02*
X0343786Y0138102D01*
X0343786Y0128782D01*
X0339466Y0128782D01*
X0339466Y0129261D02*
X0343786Y0129261D01*
X0343786Y0129740D02*
X0339466Y0129740D01*
X0339466Y0130219D02*
X0343786Y0130219D01*
X0343786Y0130698D02*
X0339466Y0130698D01*
X0339466Y0131177D02*
X0343786Y0131177D01*
X0343786Y0131656D02*
X0339466Y0131656D01*
X0339466Y0132135D02*
X0343786Y0132135D01*
X0343786Y0132614D02*
X0339466Y0132614D01*
X0339466Y0133093D02*
X0343786Y0133093D01*
X0343786Y0133572D02*
X0339466Y0133572D01*
X0339466Y0134051D02*
X0343786Y0134051D01*
X0343786Y0134530D02*
X0339466Y0134530D01*
X0339466Y0135009D02*
X0343786Y0135009D01*
X0343786Y0135488D02*
X0339466Y0135488D01*
X0339466Y0135967D02*
X0343786Y0135967D01*
X0343786Y0136446D02*
X0339466Y0136446D01*
X0339466Y0136925D02*
X0343786Y0136925D01*
X0343786Y0137404D02*
X0339466Y0137404D01*
X0339466Y0137883D02*
X0343786Y0137883D01*
X0331592Y0138102D02*
X0331592Y0128782D01*
X0331592Y0138102D02*
X0335912Y0138102D01*
X0335912Y0128782D01*
X0331592Y0128782D01*
X0331592Y0129261D02*
X0335912Y0129261D01*
X0335912Y0129740D02*
X0331592Y0129740D01*
X0331592Y0130219D02*
X0335912Y0130219D01*
X0335912Y0130698D02*
X0331592Y0130698D01*
X0331592Y0131177D02*
X0335912Y0131177D01*
X0335912Y0131656D02*
X0331592Y0131656D01*
X0331592Y0132135D02*
X0335912Y0132135D01*
X0335912Y0132614D02*
X0331592Y0132614D01*
X0331592Y0133093D02*
X0335912Y0133093D01*
X0335912Y0133572D02*
X0331592Y0133572D01*
X0331592Y0134051D02*
X0335912Y0134051D01*
X0335912Y0134530D02*
X0331592Y0134530D01*
X0331592Y0135009D02*
X0335912Y0135009D01*
X0335912Y0135488D02*
X0331592Y0135488D01*
X0331592Y0135967D02*
X0335912Y0135967D01*
X0335912Y0136446D02*
X0331592Y0136446D01*
X0331592Y0136925D02*
X0335912Y0136925D01*
X0335912Y0137404D02*
X0331592Y0137404D01*
X0331592Y0137883D02*
X0335912Y0137883D01*
X0323718Y0138102D02*
X0323718Y0128782D01*
X0323718Y0138102D02*
X0328038Y0138102D01*
X0328038Y0128782D01*
X0323718Y0128782D01*
X0323718Y0129261D02*
X0328038Y0129261D01*
X0328038Y0129740D02*
X0323718Y0129740D01*
X0323718Y0130219D02*
X0328038Y0130219D01*
X0328038Y0130698D02*
X0323718Y0130698D01*
X0323718Y0131177D02*
X0328038Y0131177D01*
X0328038Y0131656D02*
X0323718Y0131656D01*
X0323718Y0132135D02*
X0328038Y0132135D01*
X0328038Y0132614D02*
X0323718Y0132614D01*
X0323718Y0133093D02*
X0328038Y0133093D01*
X0328038Y0133572D02*
X0323718Y0133572D01*
X0323718Y0134051D02*
X0328038Y0134051D01*
X0328038Y0134530D02*
X0323718Y0134530D01*
X0323718Y0135009D02*
X0328038Y0135009D01*
X0328038Y0135488D02*
X0323718Y0135488D01*
X0323718Y0135967D02*
X0328038Y0135967D01*
X0328038Y0136446D02*
X0323718Y0136446D01*
X0323718Y0136925D02*
X0328038Y0136925D01*
X0328038Y0137404D02*
X0323718Y0137404D01*
X0323718Y0137883D02*
X0328038Y0137883D01*
D25*
X0335200Y0260579D02*
X0335200Y0264297D01*
X0342462Y0264297D01*
X0342462Y0260579D01*
X0335200Y0260579D01*
X0335200Y0260991D02*
X0342462Y0260991D01*
X0342462Y0261403D02*
X0335200Y0261403D01*
X0335200Y0261815D02*
X0342462Y0261815D01*
X0342462Y0262227D02*
X0335200Y0262227D01*
X0335200Y0262639D02*
X0342462Y0262639D01*
X0342462Y0263051D02*
X0335200Y0263051D01*
X0335200Y0263463D02*
X0342462Y0263463D01*
X0342462Y0263875D02*
X0335200Y0263875D01*
X0335200Y0264287D02*
X0342462Y0264287D01*
X0335200Y0270579D02*
X0335200Y0274297D01*
X0342462Y0274297D01*
X0342462Y0270579D01*
X0335200Y0270579D01*
X0335200Y0270991D02*
X0342462Y0270991D01*
X0342462Y0271403D02*
X0335200Y0271403D01*
X0335200Y0271815D02*
X0342462Y0271815D01*
X0342462Y0272227D02*
X0335200Y0272227D01*
X0335200Y0272639D02*
X0342462Y0272639D01*
X0342462Y0273051D02*
X0335200Y0273051D01*
X0335200Y0273463D02*
X0342462Y0273463D01*
X0342462Y0273875D02*
X0335200Y0273875D01*
X0335200Y0274287D02*
X0342462Y0274287D01*
X0377225Y0274297D02*
X0377225Y0270579D01*
X0369963Y0270579D01*
X0369963Y0274297D01*
X0377225Y0274297D01*
X0377225Y0270991D02*
X0369963Y0270991D01*
X0369963Y0271403D02*
X0377225Y0271403D01*
X0377225Y0271815D02*
X0369963Y0271815D01*
X0369963Y0272227D02*
X0377225Y0272227D01*
X0377225Y0272639D02*
X0369963Y0272639D01*
X0369963Y0273051D02*
X0377225Y0273051D01*
X0377225Y0273463D02*
X0369963Y0273463D01*
X0369963Y0273875D02*
X0377225Y0273875D01*
X0377225Y0274287D02*
X0369963Y0274287D01*
X0377225Y0264297D02*
X0377225Y0260579D01*
X0369963Y0260579D01*
X0369963Y0264297D01*
X0377225Y0264297D01*
X0377225Y0260991D02*
X0369963Y0260991D01*
X0369963Y0261403D02*
X0377225Y0261403D01*
X0377225Y0261815D02*
X0369963Y0261815D01*
X0369963Y0262227D02*
X0377225Y0262227D01*
X0377225Y0262639D02*
X0369963Y0262639D01*
X0369963Y0263051D02*
X0377225Y0263051D01*
X0377225Y0263463D02*
X0369963Y0263463D01*
X0369963Y0263875D02*
X0377225Y0263875D01*
X0377225Y0264287D02*
X0369963Y0264287D01*
D26*
X0328350Y0268647D02*
X0328350Y0271229D01*
X0328350Y0268647D02*
X0326556Y0268647D01*
X0326556Y0271229D01*
X0328350Y0271229D01*
X0328350Y0269014D02*
X0326556Y0269014D01*
X0326556Y0269381D02*
X0328350Y0269381D01*
X0328350Y0269748D02*
X0326556Y0269748D01*
X0326556Y0270115D02*
X0328350Y0270115D01*
X0328350Y0270482D02*
X0326556Y0270482D01*
X0326556Y0270849D02*
X0328350Y0270849D01*
X0328350Y0271216D02*
X0326556Y0271216D01*
X0322444Y0271229D02*
X0322444Y0268647D01*
X0320650Y0268647D01*
X0320650Y0271229D01*
X0322444Y0271229D01*
X0322444Y0269014D02*
X0320650Y0269014D01*
X0320650Y0269381D02*
X0322444Y0269381D01*
X0322444Y0269748D02*
X0320650Y0269748D01*
X0320650Y0270115D02*
X0322444Y0270115D01*
X0322444Y0270482D02*
X0320650Y0270482D01*
X0320650Y0270849D02*
X0322444Y0270849D01*
X0322444Y0271216D02*
X0320650Y0271216D01*
X0288291Y0268588D02*
X0285709Y0268588D01*
X0285709Y0270382D01*
X0288291Y0270382D01*
X0288291Y0268588D01*
X0288291Y0268955D02*
X0285709Y0268955D01*
X0285709Y0269322D02*
X0288291Y0269322D01*
X0288291Y0269689D02*
X0285709Y0269689D01*
X0285709Y0270056D02*
X0288291Y0270056D01*
X0288291Y0274493D02*
X0285709Y0274493D01*
X0285709Y0276287D01*
X0288291Y0276287D01*
X0288291Y0274493D01*
X0288291Y0274860D02*
X0285709Y0274860D01*
X0285709Y0275227D02*
X0288291Y0275227D01*
X0288291Y0275594D02*
X0285709Y0275594D01*
X0285709Y0275961D02*
X0288291Y0275961D01*
X0283291Y0274493D02*
X0280709Y0274493D01*
X0280709Y0276287D01*
X0283291Y0276287D01*
X0283291Y0274493D01*
X0283291Y0274860D02*
X0280709Y0274860D01*
X0280709Y0275227D02*
X0283291Y0275227D01*
X0283291Y0275594D02*
X0280709Y0275594D01*
X0280709Y0275961D02*
X0283291Y0275961D01*
X0278291Y0274493D02*
X0275709Y0274493D01*
X0275709Y0276287D01*
X0278291Y0276287D01*
X0278291Y0274493D01*
X0278291Y0274860D02*
X0275709Y0274860D01*
X0275709Y0275227D02*
X0278291Y0275227D01*
X0278291Y0275594D02*
X0275709Y0275594D01*
X0275709Y0275961D02*
X0278291Y0275961D01*
X0273291Y0274493D02*
X0270709Y0274493D01*
X0270709Y0276287D01*
X0273291Y0276287D01*
X0273291Y0274493D01*
X0273291Y0274860D02*
X0270709Y0274860D01*
X0270709Y0275227D02*
X0273291Y0275227D01*
X0273291Y0275594D02*
X0270709Y0275594D01*
X0270709Y0275961D02*
X0273291Y0275961D01*
X0273291Y0268588D02*
X0270709Y0268588D01*
X0270709Y0270382D01*
X0273291Y0270382D01*
X0273291Y0268588D01*
X0273291Y0268955D02*
X0270709Y0268955D01*
X0270709Y0269322D02*
X0273291Y0269322D01*
X0273291Y0269689D02*
X0270709Y0269689D01*
X0270709Y0270056D02*
X0273291Y0270056D01*
X0275709Y0268588D02*
X0278291Y0268588D01*
X0275709Y0268588D02*
X0275709Y0270382D01*
X0278291Y0270382D01*
X0278291Y0268588D01*
X0278291Y0268955D02*
X0275709Y0268955D01*
X0275709Y0269322D02*
X0278291Y0269322D01*
X0278291Y0269689D02*
X0275709Y0269689D01*
X0275709Y0270056D02*
X0278291Y0270056D01*
X0280709Y0268588D02*
X0283291Y0268588D01*
X0280709Y0268588D02*
X0280709Y0270382D01*
X0283291Y0270382D01*
X0283291Y0268588D01*
X0283291Y0268955D02*
X0280709Y0268955D01*
X0280709Y0269322D02*
X0283291Y0269322D01*
X0283291Y0269689D02*
X0280709Y0269689D01*
X0280709Y0270056D02*
X0283291Y0270056D01*
M02*
