  0
SECTION
  2
HEADER
  9
$ACADVER
  1
AC1009
  9
$FILLMODE
 70
1
  9
$EXTMIN
 10
-11.0452
 20
-25.2500
 30
0.0000
  9
$EXTMAX
 10
117.9150
 20
96.8500
 30
0.0000
  0
ENDSEC
  0
SECTION
  2
TABLES
  0
TABLE
  2
LTYPE
 70
1
  0
LTYPE
  2
CONTINUOUS
 70
64
  3
Solid line
 72
65
 73
0
 40
0
  0
ENDTAB
  0
TABLE
  2
LAYER
 70
255
  0
LAYER
  2
16
 70
64
 62
175
  6
CONTINUOUS
  0
LAYER
  2
20
 70
64
 62
7
  6
CONTINUOUS
  0
LAYER
  2
21
 70
64
 62
253
  6
CONTINUOUS
  0
LAYER
  2
44
 70
64
 62
253
  6
CONTINUOUS
  0
LAYER
  2
45
 70
64
 62
253
  6
CONTINUOUS
  0
ENDTAB
  0
ENDSEC
  0
SECTION
  2
BLOCKS
  0
BLOCK
  8
0
  2
RECT
 70
64
 10
0.0000
 20
0.0000
 30
0.0000
  3
RECT
  0
SOLID
  8
0
 10
-0.5000
 20
-0.5000
 30
0.0000
 11
0.5000
 21
-0.5000
 31
0.0000
 12
-0.5000
 22
0.5000
 32
0.0000
 13
0.5000
 23
0.5000
 33
0.0000
  0
ENDBLK
  8
0
  0
BLOCK
  8
0
  2
PIE
 70
64
 10
0.0000
 20
0.0000
 30
0.0000
  3
PIE
  0
POLYLINE
  8
0
 66
1
 10
0.0000
 20
0.0000
 30
0.0000
 40
0.5000
 41
0.5000
 70
0
  0
VERTEX
  8
0
 10
0.0000
 20
-0.2500
 30
0.0000
 42
1.0000
  0
VERTEX
  8
0
 10
0.0000
 20
0.2500
 30
0.0000
 42
1.0000
  0
VERTEX
  8
0
 10
0.0000
 20
-0.2500
 30
0.0000
  0
SEQEND
  8
0
  0
ENDBLK
  8
0
  0
BLOCK
  8
0
  2
OCTAGONP
 70
64
 10
0.0000
 20
0.0000
 30
0.0000
  3
OCTAGONP
  0
POLYLINE
  8
0
 66
1
 10
0.0000
 20
0.0000
 30
0.0000
 40
0.5000
 41
0.5000
 70
0
  0
VERTEX
  8
0
 10
-0.2500
 20
-0.1036
 30
0.0000
  0
VERTEX
  8
0
 10
-0.2500
 20
0.1036
 30
0.0000
  0
VERTEX
  8
0
 10
-0.1036
 20
0.2500
 30
0.0000
  0
VERTEX
  8
0
 10
0.1036
 20
0.2500
 30
0.0000
  0
VERTEX
  8
0
 10
0.2500
 20
0.1036
 30
0.0000
  0
VERTEX
  8
0
 10
0.2500
 20
-0.1036
 30
0.0000
  0
VERTEX
  8
0
 10
0.1036
 20
-0.2500
 30
0.0000
  0
VERTEX
  8
0
 10
-0.1036
 20
-0.2500
 30
0.0000
  0
VERTEX
  8
0
 10
-0.2500
 20
-0.1036
 30
0.0000
  0
VERTEX
  8
0
 10
-0.2500
 20
0.1036
 30
0.0000
  0
SEQEND
  8
0
  0
ENDBLK
  8
0
  0
BLOCK
  8
0
  2
SQUAREP
 70
64
 10
0.0000
 20
0.0000
 30
0.0000
  3
SQUAREP
  0
SOLID
  8
0
 10
-0.5000
 20
-0.5000
 30
0.0000
 11
0.5000
 21
-0.5000
 31
0.0000
 12
-0.5000
 22
0.5000
 32
0.0000
 13
0.5000
 23
0.5000
 33
0.0000
  0
ENDBLK
  8
0
  0
BLOCK
  8
0
  2
ROUNDP
 70
64
 10
0.0000
 20
0.0000
 30
0.0000
  3
ROUNDP
  0
POLYLINE
  8
0
 66
1
 10
0.0000
 20
0.0000
 30
0.0000
 40
0.5000
 41
0.5000
 70
0
  0
VERTEX
  8
0
 10
0.0000
 20
-0.2500
 30
0.0000
 42
1.0000
  0
VERTEX
  8
0
 10
0.0000
 20
0.2500
 30
0.0000
 42
1.0000
  0
VERTEX
  8
0
 10
0.0000
 20
-0.2500
 30
0.0000
  0
SEQEND
  8
0
  0
ENDBLK
  8
0
  0
BLOCK
  8
0
  2
ANNULUSP
 70
64
 10
0.0000
 20
0.0000
 30
0.0000
  3
ANNULUSP
  0
POLYLINE
  8
0
 66
1
 10
0.0000
 20
0.0000
 30
0.0000
 40
0.5000
 41
0.5000
 70
0
  0
VERTEX
  8
0
 10
0.0000
 20
-0.2500
 30
0.0000
 42
1.0000
  0
VERTEX
  8
0
 10
0.0000
 20
0.2500
 30
0.0000
 42
1.0000
  0
VERTEX
  8
0
 10
0.0000
 20
-0.2500
 30
0.0000
  0
SEQEND
  8
0
  0
ENDBLK
  8
0
  0
BLOCK
  8
0
  2
THERMALP
 70
64
 10
0.0000
 20
0.0000
 30
0.0000
  3
THERMALP
  0
POLYLINE
  8
0
 66
1
 10
0.0000
 20
0.0000
 30
0.0000
 40
0.1000
 41
0.1000
 70
0
  0
VERTEX
  8
0
 10
-0.2379
 20
0.4500
 30
0.0000
  0
VERTEX
  8
0
 10
0.2379
 20
0.4500
 30
0.0000
  0
SEQEND
  8
0
  0
POLYLINE
  8
0
 66
1
 10
0.0000
 20
0.0000
 30
0.0000
 40
0.0500
 41
0.0500
 70
0
  0
VERTEX
  8
0
 10
0.2379
 20
0.4250
 30
0.0000
 42
1.0000
  0
VERTEX
  8
0
 10
0.2379
 20
0.4750
 30
0.0000
  0
SEQEND
  8
0
  0
POLYLINE
  8
0
 66
1
 10
0.0000
 20
0.0000
 30
0.0000
 40
0.0500
 41
0.0500
 70
0
  0
VERTEX
  8
0
 10
-0.2379
 20
0.4750
 30
0.0000
 42
1.0000
  0
VERTEX
  8
0
 10
-0.2379
 20
0.4250
 30
0.0000
  0
SEQEND
  8
0
  0
POLYLINE
  8
0
 66
1
 10
0.0000
 20
0.0000
 30
0.0000
 40
0.1000
 41
0.1000
 70
0
  0
VERTEX
  8
0
 10
0.4500
 20
0.2379
 30
0.0000
  0
VERTEX
  8
0
 10
0.4500
 20
-0.2379
 30
0.0000
  0
SEQEND
  8
0
  0
POLYLINE
  8
0
 66
1
 10
0.0000
 20
0.0000
 30
0.0000
 40
0.0500
 41
0.0500
 70
0
  0
VERTEX
  8
0
 10
0.4250
 20
-0.2379
 30
0.0000
 42
1.0000
  0
VERTEX
  8
0
 10
0.4750
 20
-0.2379
 30
0.0000
  0
SEQEND
  8
0
  0
POLYLINE
  8
0
 66
1
 10
0.0000
 20
0.0000
 30
0.0000
 40
0.0500
 41
0.0500
 70
0
  0
VERTEX
  8
0
 10
0.4750
 20
0.2379
 30
0.0000
 42
1.0000
  0
VERTEX
  8
0
 10
0.4250
 20
0.2379
 30
0.0000
  0
SEQEND
  8
0
  0
POLYLINE
  8
0
 66
1
 10
0.0000
 20
0.0000
 30
0.0000
 40
0.1000
 41
0.1000
 70
0
  0
VERTEX
  8
0
 10
0.2379
 20
-0.4500
 30
0.0000
  0
VERTEX
  8
0
 10
-0.2379
 20
-0.4500
 30
0.0000
  0
SEQEND
  8
0
  0
POLYLINE
  8
0
 66
1
 10
0.0000
 20
0.0000
 30
0.0000
 40
0.0500
 41
0.0500
 70
0
  0
VERTEX
  8
0
 10
-0.2379
 20
-0.4250
 30
0.0000
 42
1.0000
  0
VERTEX
  8
0
 10
-0.2379
 20
-0.4750
 30
0.0000
  0
SEQEND
  8
0
  0
POLYLINE
  8
0
 66
1
 10
0.0000
 20
0.0000
 30
0.0000
 40
0.0500
 41
0.0500
 70
0
  0
VERTEX
  8
0
 10
0.2379
 20
-0.4750
 30
0.0000
 42
1.0000
  0
VERTEX
  8
0
 10
0.2379
 20
-0.4250
 30
0.0000
  0
SEQEND
  8
0
  0
POLYLINE
  8
0
 66
1
 10
0.0000
 20
0.0000
 30
0.0000
 40
0.1000
 41
0.1000
 70
0
  0
VERTEX
  8
0
 10
-0.4500
 20
-0.2379
 30
0.0000
  0
VERTEX
  8
0
 10
-0.4500
 20
0.2379
 30
0.0000
  0
SEQEND
  8
0
  0
POLYLINE
  8
0
 66
1
 10
0.0000
 20
0.0000
 30
0.0000
 40
0.0500
 41
0.0500
 70
0
  0
VERTEX
  8
0
 10
-0.4250
 20
0.2379
 30
0.0000
 42
1.0000
  0
VERTEX
  8
0
 10
-0.4750
 20
0.2379
 30
0.0000
  0
SEQEND
  8
0
  0
POLYLINE
  8
0
 66
1
 10
0.0000
 20
0.0000
 30
0.0000
 40
0.0500
 41
0.0500
 70
0
  0
VERTEX
  8
0
 10
-0.4750
 20
-0.2379
 30
0.0000
 42
1.0000
  0
VERTEX
  8
0
 10
-0.4250
 20
-0.2379
 30
0.0000
  0
SEQEND
  8
0
  0
ENDBLK
  8
0
  0
BLOCK
  8
0
  2
OCTAGONV
 70
64
 10
0.0000
 20
0.0000
 30
0.0000
  3
OCTAGONV
  0
POLYLINE
  8
0
 66
1
 10
0.0000
 20
0.0000
 30
0.0000
 40
0.5000
 41
0.5000
 70
0
  0
VERTEX
  8
0
 10
-0.2500
 20
-0.1036
 30
0.0000
  0
VERTEX
  8
0
 10
-0.2500
 20
0.1036
 30
0.0000
  0
VERTEX
  8
0
 10
-0.1036
 20
0.2500
 30
0.0000
  0
VERTEX
  8
0
 10
0.1036
 20
0.2500
 30
0.0000
  0
VERTEX
  8
0
 10
0.2500
 20
0.1036
 30
0.0000
  0
VERTEX
  8
0
 10
0.2500
 20
-0.1036
 30
0.0000
  0
VERTEX
  8
0
 10
0.1036
 20
-0.2500
 30
0.0000
  0
VERTEX
  8
0
 10
-0.1036
 20
-0.2500
 30
0.0000
  0
VERTEX
  8
0
 10
-0.2500
 20
-0.1036
 30
0.0000
  0
VERTEX
  8
0
 10
-0.2500
 20
0.1036
 30
0.0000
  0
SEQEND
  8
0
  0
ENDBLK
  8
0
  0
BLOCK
  8
0
  2
SQUAREV
 70
64
 10
0.0000
 20
0.0000
 30
0.0000
  3
SQUAREV
  0
SOLID
  8
0
 10
-0.5000
 20
-0.5000
 30
0.0000
 11
0.5000
 21
-0.5000
 31
0.0000
 12
-0.5000
 22
0.5000
 32
0.0000
 13
0.5000
 23
0.5000
 33
0.0000
  0
ENDBLK
  8
0
  0
BLOCK
  8
0
  2
ROUNDV
 70
64
 10
0.0000
 20
0.0000
 30
0.0000
  3
ROUNDV
  0
POLYLINE
  8
0
 66
1
 10
0.0000
 20
0.0000
 30
0.0000
 40
0.5000
 41
0.5000
 70
0
  0
VERTEX
  8
0
 10
0.0000
 20
-0.2500
 30
0.0000
 42
1.0000
  0
VERTEX
  8
0
 10
0.0000
 20
0.2500
 30
0.0000
 42
1.0000
  0
VERTEX
  8
0
 10
0.0000
 20
-0.2500
 30
0.0000
  0
SEQEND
  8
0
  0
ENDBLK
  8
0
  0
BLOCK
  8
0
  2
ANNULUSV
 70
64
 10
0.0000
 20
0.0000
 30
0.0000
  3
ANNULUSV
  0
POLYLINE
  8
0
 66
1
 10
0.0000
 20
0.0000
 30
0.0000
 40
0.5000
 41
0.5000
 70
0
  0
VERTEX
  8
0
 10
0.0000
 20
-0.2500
 30
0.0000
 42
1.0000
  0
VERTEX
  8
0
 10
0.0000
 20
0.2500
 30
0.0000
 42
1.0000
  0
VERTEX
  8
0
 10
0.0000
 20
-0.2500
 30
0.0000
  0
SEQEND
  8
0
  0
ENDBLK
  8
0
  0
BLOCK
  8
0
  2
THERMALV
 70
64
 10
0.0000
 20
0.0000
 30
0.0000
  3
THERMALV
  0
POLYLINE
  8
0
 66
1
 10
0.0000
 20
0.0000
 30
0.0000
 40
0.1000
 41
0.1000
 70
0
  0
VERTEX
  8
0
 10
-0.2379
 20
0.4500
 30
0.0000
  0
VERTEX
  8
0
 10
0.2379
 20
0.4500
 30
0.0000
  0
SEQEND
  8
0
  0
POLYLINE
  8
0
 66
1
 10
0.0000
 20
0.0000
 30
0.0000
 40
0.0500
 41
0.0500
 70
0
  0
VERTEX
  8
0
 10
0.2379
 20
0.4250
 30
0.0000
 42
1.0000
  0
VERTEX
  8
0
 10
0.2379
 20
0.4750
 30
0.0000
  0
SEQEND
  8
0
  0
POLYLINE
  8
0
 66
1
 10
0.0000
 20
0.0000
 30
0.0000
 40
0.0500
 41
0.0500
 70
0
  0
VERTEX
  8
0
 10
-0.2379
 20
0.4750
 30
0.0000
 42
1.0000
  0
VERTEX
  8
0
 10
-0.2379
 20
0.4250
 30
0.0000
  0
SEQEND
  8
0
  0
POLYLINE
  8
0
 66
1
 10
0.0000
 20
0.0000
 30
0.0000
 40
0.1000
 41
0.1000
 70
0
  0
VERTEX
  8
0
 10
0.4500
 20
0.2379
 30
0.0000
  0
VERTEX
  8
0
 10
0.4500
 20
-0.2379
 30
0.0000
  0
SEQEND
  8
0
  0
POLYLINE
  8
0
 66
1
 10
0.0000
 20
0.0000
 30
0.0000
 40
0.0500
 41
0.0500
 70
0
  0
VERTEX
  8
0
 10
0.4250
 20
-0.2379
 30
0.0000
 42
1.0000
  0
VERTEX
  8
0
 10
0.4750
 20
-0.2379
 30
0.0000
  0
SEQEND
  8
0
  0
POLYLINE
  8
0
 66
1
 10
0.0000
 20
0.0000
 30
0.0000
 40
0.0500
 41
0.0500
 70
0
  0
VERTEX
  8
0
 10
0.4750
 20
0.2379
 30
0.0000
 42
1.0000
  0
VERTEX
  8
0
 10
0.4250
 20
0.2379
 30
0.0000
  0
SEQEND
  8
0
  0
POLYLINE
  8
0
 66
1
 10
0.0000
 20
0.0000
 30
0.0000
 40
0.1000
 41
0.1000
 70
0
  0
VERTEX
  8
0
 10
0.2379
 20
-0.4500
 30
0.0000
  0
VERTEX
  8
0
 10
-0.2379
 20
-0.4500
 30
0.0000
  0
SEQEND
  8
0
  0
POLYLINE
  8
0
 66
1
 10
0.0000
 20
0.0000
 30
0.0000
 40
0.0500
 41
0.0500
 70
0
  0
VERTEX
  8
0
 10
-0.2379
 20
-0.4250
 30
0.0000
 42
1.0000
  0
VERTEX
  8
0
 10
-0.2379
 20
-0.4750
 30
0.0000
  0
SEQEND
  8
0
  0
POLYLINE
  8
0
 66
1
 10
0.0000
 20
0.0000
 30
0.0000
 40
0.0500
 41
0.0500
 70
0
  0
VERTEX
  8
0
 10
0.2379
 20
-0.4750
 30
0.0000
 42
1.0000
  0
VERTEX
  8
0
 10
0.2379
 20
-0.4250
 30
0.0000
  0
SEQEND
  8
0
  0
POLYLINE
  8
0
 66
1
 10
0.0000
 20
0.0000
 30
0.0000
 40
0.1000
 41
0.1000
 70
0
  0
VERTEX
  8
0
 10
-0.4500
 20
-0.2379
 30
0.0000
  0
VERTEX
  8
0
 10
-0.4500
 20
0.2379
 30
0.0000
  0
SEQEND
  8
0
  0
POLYLINE
  8
0
 66
1
 10
0.0000
 20
0.0000
 30
0.0000
 40
0.0500
 41
0.0500
 70
0
  0
VERTEX
  8
0
 10
-0.4250
 20
0.2379
 30
0.0000
 42
1.0000
  0
VERTEX
  8
0
 10
-0.4750
 20
0.2379
 30
0.0000
  0
SEQEND
  8
0
  0
POLYLINE
  8
0
 66
1
 10
0.0000
 20
0.0000
 30
0.0000
 40
0.0500
 41
0.0500
 70
0
  0
VERTEX
  8
0
 10
-0.4750
 20
-0.2379
 30
0.0000
 42
1.0000
  0
VERTEX
  8
0
 10
-0.4250
 20
-0.2379
 30
0.0000
  0
SEQEND
  8
0
  0
ENDBLK
  8
0
  0
ENDSEC
  0
SECTION
  2
ENTITIES
  0
POLYLINE
  8
20
 66
1
 10
0.0000
 20
0.0000
 30
0.0000
 40
0.1000
 41
0.1000
 70
0
  0
VERTEX
  8
20
 10
0.0000
 20
3.0000
 30
0.0000
 42
0.4142
  0
VERTEX
  8
20
 10
3.0000
 20
0.0000
 30
0.0000
  0
SEQEND
  8
0
  0
POLYLINE
  8
20
 66
1
 10
0.0000
 20
0.0000
 30
0.0000
 40
0.0500
 41
0.0500
 70
0
  0
VERTEX
  8
20
 10
0.0250
 20
3.0000
 30
0.0000
 42
1.0000
  0
VERTEX
  8
20
 10
-0.0250
 20
3.0000
 30
0.0000
  0
SEQEND
  8
0
  0
POLYLINE
  8
20
 66
1
 10
0.0000
 20
0.0000
 30
0.0000
 40
0.0500
 41
0.0500
 70
0
  0
VERTEX
  8
20
 10
3.0000
 20
-0.0250
 30
0.0000
 42
1.0000
  0
VERTEX
  8
20
 10
3.0000
 20
0.0250
 30
0.0000
  0
SEQEND
  8
0
  0
POLYLINE
  8
20
 66
1
 10
0.0000
 20
0.0000
 30
0.0000
 40
0.1000
 41
0.1000
 70
0
  0
VERTEX
  8
20
 10
3.0000
 20
0.0000
 30
0.0000
  0
VERTEX
  8
20
 10
105.5000
 20
0.0000
 30
0.0000
  0
SEQEND
  8
0
  0
POLYLINE
  8
20
 66
1
 10
0.0000
 20
0.0000
 30
0.0000
 40
0.0500
 41
0.0500
 70
0
  0
VERTEX
  8
20
 10
105.5000
 20
-0.0250
 30
0.0000
 42
1.0000
  0
VERTEX
  8
20
 10
105.5000
 20
0.0250
 30
0.0000
  0
SEQEND
  8
0
  0
POLYLINE
  8
20
 66
1
 10
0.0000
 20
0.0000
 30
0.0000
 40
0.0500
 41
0.0500
 70
0
  0
VERTEX
  8
20
 10
3.0000
 20
0.0250
 30
0.0000
 42
1.0000
  0
VERTEX
  8
20
 10
3.0000
 20
-0.0250
 30
0.0000
  0
SEQEND
  8
0
  0
POLYLINE
  8
20
 66
1
 10
0.0000
 20
0.0000
 30
0.0000
 40
0.1000
 41
0.1000
 70
0
  0
VERTEX
  8
20
 10
105.5000
 20
0.0000
 30
0.0000
 42
0.4142
  0
VERTEX
  8
20
 10
108.5000
 20
3.0000
 30
0.0000
  0
SEQEND
  8
0
  0
POLYLINE
  8
20
 66
1
 10
0.0000
 20
0.0000
 30
0.0000
 40
0.0500
 41
0.0500
 70
0
  0
VERTEX
  8
20
 10
105.5000
 20
0.0250
 30
0.0000
 42
1.0000
  0
VERTEX
  8
20
 10
105.5000
 20
-0.0250
 30
0.0000
  0
SEQEND
  8
0
  0
POLYLINE
  8
20
 66
1
 10
0.0000
 20
0.0000
 30
0.0000
 40
0.0500
 41
0.0500
 70
0
  0
VERTEX
  8
20
 10
108.5250
 20
3.0000
 30
0.0000
 42
1.0000
  0
VERTEX
  8
20
 10
108.4750
 20
3.0000
 30
0.0000
  0
SEQEND
  8
0
  0
POLYLINE
  8
20
 66
1
 10
0.0000
 20
0.0000
 30
0.0000
 40
0.1000
 41
0.1000
 70
0
  0
VERTEX
  8
20
 10
108.5000
 20
3.0000
 30
0.0000
  0
VERTEX
  8
20
 10
108.5000
 20
26.5000
 30
0.0000
  0
SEQEND
  8
0
  0
POLYLINE
  8
20
 66
1
 10
0.0000
 20
0.0000
 30
0.0000
 40
0.0500
 41
0.0500
 70
0
  0
VERTEX
  8
20
 10
108.5250
 20
26.5000
 30
0.0000
 42
1.0000
  0
VERTEX
  8
20
 10
108.4750
 20
26.5000
 30
0.0000
  0
SEQEND
  8
0
  0
POLYLINE
  8
20
 66
1
 10
0.0000
 20
0.0000
 30
0.0000
 40
0.0500
 41
0.0500
 70
0
  0
VERTEX
  8
20
 10
108.4750
 20
3.0000
 30
0.0000
 42
1.0000
  0
VERTEX
  8
20
 10
108.5250
 20
3.0000
 30
0.0000
  0
SEQEND
  8
0
  0
POLYLINE
  8
20
 66
1
 10
0.0000
 20
0.0000
 30
0.0000
 40
0.1000
 41
0.1000
 70
0
  0
VERTEX
  8
20
 10
108.5000
 20
26.5000
 30
0.0000
 42
0.4142
  0
VERTEX
  8
20
 10
105.5000
 20
29.5000
 30
0.0000
  0
SEQEND
  8
0
  0
POLYLINE
  8
20
 66
1
 10
0.0000
 20
0.0000
 30
0.0000
 40
0.0500
 41
0.0500
 70
0
  0
VERTEX
  8
20
 10
108.4750
 20
26.5000
 30
0.0000
 42
1.0000
  0
VERTEX
  8
20
 10
108.5250
 20
26.5000
 30
0.0000
  0
SEQEND
  8
0
  0
POLYLINE
  8
20
 66
1
 10
0.0000
 20
0.0000
 30
0.0000
 40
0.0500
 41
0.0500
 70
0
  0
VERTEX
  8
20
 10
105.5000
 20
29.5250
 30
0.0000
 42
1.0000
  0
VERTEX
  8
20
 10
105.5000
 20
29.4750
 30
0.0000
  0
SEQEND
  8
0
  0
POLYLINE
  8
20
 66
1
 10
0.0000
 20
0.0000
 30
0.0000
 40
0.1000
 41
0.1000
 70
0
  0
VERTEX
  8
20
 10
105.5000
 20
29.5000
 30
0.0000
  0
VERTEX
  8
20
 10
3.0000
 20
29.5000
 30
0.0000
  0
SEQEND
  8
0
  0
POLYLINE
  8
20
 66
1
 10
0.0000
 20
0.0000
 30
0.0000
 40
0.0500
 41
0.0500
 70
0
  0
VERTEX
  8
20
 10
3.0000
 20
29.5250
 30
0.0000
 42
1.0000
  0
VERTEX
  8
20
 10
3.0000
 20
29.4750
 30
0.0000
  0
SEQEND
  8
0
  0
POLYLINE
  8
20
 66
1
 10
0.0000
 20
0.0000
 30
0.0000
 40
0.0500
 41
0.0500
 70
0
  0
VERTEX
  8
20
 10
105.5000
 20
29.4750
 30
0.0000
 42
1.0000
  0
VERTEX
  8
20
 10
105.5000
 20
29.5250
 30
0.0000
  0
SEQEND
  8
0
  0
POLYLINE
  8
20
 66
1
 10
0.0000
 20
0.0000
 30
0.0000
 40
0.1000
 41
0.1000
 70
0
  0
VERTEX
  8
20
 10
3.0000
 20
29.5000
 30
0.0000
 42
0.4142
  0
VERTEX
  8
20
 10
0.0000
 20
26.5000
 30
0.0000
  0
SEQEND
  8
0
  0
POLYLINE
  8
20
 66
1
 10
0.0000
 20
0.0000
 30
0.0000
 40
0.0500
 41
0.0500
 70
0
  0
VERTEX
  8
20
 10
3.0000
 20
29.4750
 30
0.0000
 42
1.0000
  0
VERTEX
  8
20
 10
3.0000
 20
29.5250
 30
0.0000
  0
SEQEND
  8
0
  0
POLYLINE
  8
20
 66
1
 10
0.0000
 20
0.0000
 30
0.0000
 40
0.0500
 41
0.0500
 70
0
  0
VERTEX
  8
20
 10
-0.0250
 20
26.5000
 30
0.0000
 42
1.0000
  0
VERTEX
  8
20
 10
0.0250
 20
26.5000
 30
0.0000
  0
SEQEND
  8
0
  0
POLYLINE
  8
20
 66
1
 10
0.0000
 20
0.0000
 30
0.0000
 40
0.1000
 41
0.1000
 70
0
  0
VERTEX
  8
20
 10
0.0000
 20
26.5000
 30
0.0000
  0
VERTEX
  8
20
 10
0.0000
 20
3.0000
 30
0.0000
  0
SEQEND
  8
0
  0
POLYLINE
  8
20
 66
1
 10
0.0000
 20
0.0000
 30
0.0000
 40
0.0500
 41
0.0500
 70
0
  0
VERTEX
  8
20
 10
-0.0250
 20
3.0000
 30
0.0000
 42
1.0000
  0
VERTEX
  8
20
 10
0.0250
 20
3.0000
 30
0.0000
  0
SEQEND
  8
0
  0
POLYLINE
  8
20
 66
1
 10
0.0000
 20
0.0000
 30
0.0000
 40
0.0500
 41
0.0500
 70
0
  0
VERTEX
  8
20
 10
0.0250
 20
26.5000
 30
0.0000
 42
1.0000
  0
VERTEX
  8
20
 10
-0.0250
 20
26.5000
 30
0.0000
  0
SEQEND
  8
0
  0
POLYLINE
  8
20
 66
1
 10
0.0000
 20
0.0000
 30
0.0000
 40
0.1000
 41
0.1000
 70
0
  0
VERTEX
  8
20
 10
0.0000
 20
80.9000
 30
0.0000
  0
VERTEX
  8
20
 10
0.0000
 20
57.4000
 30
0.0000
  0
SEQEND
  8
0
  0
POLYLINE
  8
20
 66
1
 10
0.0000
 20
0.0000
 30
0.0000
 40
0.0500
 41
0.0500
 70
0
  0
VERTEX
  8
20
 10
-0.0250
 20
57.4000
 30
0.0000
 42
1.0000
  0
VERTEX
  8
20
 10
0.0250
 20
57.4000
 30
0.0000
  0
SEQEND
  8
0
  0
POLYLINE
  8
20
 66
1
 10
0.0000
 20
0.0000
 30
0.0000
 40
0.0500
 41
0.0500
 70
0
  0
VERTEX
  8
20
 10
0.0250
 20
80.9000
 30
0.0000
 42
1.0000
  0
VERTEX
  8
20
 10
-0.0250
 20
80.9000
 30
0.0000
  0
SEQEND
  8
0
  0
POLYLINE
  8
20
 66
1
 10
0.0000
 20
0.0000
 30
0.0000
 40
0.1000
 41
0.1000
 70
0
  0
VERTEX
  8
20
 10
0.0000
 20
57.4000
 30
0.0000
 42
0.4142
  0
VERTEX
  8
20
 10
3.0000
 20
54.4000
 30
0.0000
  0
SEQEND
  8
0
  0
POLYLINE
  8
20
 66
1
 10
0.0000
 20
0.0000
 30
0.0000
 40
0.0500
 41
0.0500
 70
0
  0
VERTEX
  8
20
 10
0.0250
 20
57.4000
 30
0.0000
 42
1.0000
  0
VERTEX
  8
20
 10
-0.0250
 20
57.4000
 30
0.0000
  0
SEQEND
  8
0
  0
POLYLINE
  8
20
 66
1
 10
0.0000
 20
0.0000
 30
0.0000
 40
0.0500
 41
0.0500
 70
0
  0
VERTEX
  8
20
 10
3.0000
 20
54.3750
 30
0.0000
 42
1.0000
  0
VERTEX
  8
20
 10
3.0000
 20
54.4250
 30
0.0000
  0
SEQEND
  8
0
  0
POLYLINE
  8
20
 66
1
 10
0.0000
 20
0.0000
 30
0.0000
 40
0.1000
 41
0.1000
 70
0
  0
VERTEX
  8
20
 10
3.0000
 20
54.4000
 30
0.0000
  0
VERTEX
  8
20
 10
105.5000
 20
54.4000
 30
0.0000
  0
SEQEND
  8
0
  0
POLYLINE
  8
20
 66
1
 10
0.0000
 20
0.0000
 30
0.0000
 40
0.0500
 41
0.0500
 70
0
  0
VERTEX
  8
20
 10
105.5000
 20
54.3750
 30
0.0000
 42
1.0000
  0
VERTEX
  8
20
 10
105.5000
 20
54.4250
 30
0.0000
  0
SEQEND
  8
0
  0
POLYLINE
  8
20
 66
1
 10
0.0000
 20
0.0000
 30
0.0000
 40
0.0500
 41
0.0500
 70
0
  0
VERTEX
  8
20
 10
3.0000
 20
54.4250
 30
0.0000
 42
1.0000
  0
VERTEX
  8
20
 10
3.0000
 20
54.3750
 30
0.0000
  0
SEQEND
  8
0
  0
POLYLINE
  8
20
 66
1
 10
0.0000
 20
0.0000
 30
0.0000
 40
0.1000
 41
0.1000
 70
0
  0
VERTEX
  8
20
 10
105.5000
 20
54.4000
 30
0.0000
 42
0.4142
  0
VERTEX
  8
20
 10
108.5000
 20
57.4000
 30
0.0000
  0
SEQEND
  8
0
  0
POLYLINE
  8
20
 66
1
 10
0.0000
 20
0.0000
 30
0.0000
 40
0.0500
 41
0.0500
 70
0
  0
VERTEX
  8
20
 10
105.5000
 20
54.4250
 30
0.0000
 42
1.0000
  0
VERTEX
  8
20
 10
105.5000
 20
54.3750
 30
0.0000
  0
SEQEND
  8
0
  0
POLYLINE
  8
20
 66
1
 10
0.0000
 20
0.0000
 30
0.0000
 40
0.0500
 41
0.0500
 70
0
  0
VERTEX
  8
20
 10
108.5250
 20
57.4000
 30
0.0000
 42
1.0000
  0
VERTEX
  8
20
 10
108.4750
 20
57.4000
 30
0.0000
  0
SEQEND
  8
0
  0
POLYLINE
  8
20
 66
1
 10
0.0000
 20
0.0000
 30
0.0000
 40
0.1000
 41
0.1000
 70
0
  0
VERTEX
  8
20
 10
108.5000
 20
57.4000
 30
0.0000
  0
VERTEX
  8
20
 10
108.5000
 20
80.9000
 30
0.0000
  0
SEQEND
  8
0
  0
POLYLINE
  8
20
 66
1
 10
0.0000
 20
0.0000
 30
0.0000
 40
0.0500
 41
0.0500
 70
0
  0
VERTEX
  8
20
 10
108.5250
 20
80.9000
 30
0.0000
 42
1.0000
  0
VERTEX
  8
20
 10
108.4750
 20
80.9000
 30
0.0000
  0
SEQEND
  8
0
  0
POLYLINE
  8
20
 66
1
 10
0.0000
 20
0.0000
 30
0.0000
 40
0.0500
 41
0.0500
 70
0
  0
VERTEX
  8
20
 10
108.4750
 20
57.4000
 30
0.0000
 42
1.0000
  0
VERTEX
  8
20
 10
108.5250
 20
57.4000
 30
0.0000
  0
SEQEND
  8
0
  0
POLYLINE
  8
20
 66
1
 10
0.0000
 20
0.0000
 30
0.0000
 40
0.1000
 41
0.1000
 70
0
  0
VERTEX
  8
20
 10
108.5000
 20
80.9000
 30
0.0000
 42
0.4142
  0
VERTEX
  8
20
 10
105.5000
 20
83.9000
 30
0.0000
  0
SEQEND
  8
0
  0
POLYLINE
  8
20
 66
1
 10
0.0000
 20
0.0000
 30
0.0000
 40
0.0500
 41
0.0500
 70
0
  0
VERTEX
  8
20
 10
108.4750
 20
80.9000
 30
0.0000
 42
1.0000
  0
VERTEX
  8
20
 10
108.5250
 20
80.9000
 30
0.0000
  0
SEQEND
  8
0
  0
POLYLINE
  8
20
 66
1
 10
0.0000
 20
0.0000
 30
0.0000
 40
0.0500
 41
0.0500
 70
0
  0
VERTEX
  8
20
 10
105.5000
 20
83.9250
 30
0.0000
 42
1.0000
  0
VERTEX
  8
20
 10
105.5000
 20
83.8750
 30
0.0000
  0
SEQEND
  8
0
  0
POLYLINE
  8
20
 66
1
 10
0.0000
 20
0.0000
 30
0.0000
 40
0.1000
 41
0.1000
 70
0
  0
VERTEX
  8
20
 10
105.5000
 20
83.9000
 30
0.0000
  0
VERTEX
  8
20
 10
3.0000
 20
83.9000
 30
0.0000
  0
SEQEND
  8
0
  0
POLYLINE
  8
20
 66
1
 10
0.0000
 20
0.0000
 30
0.0000
 40
0.0500
 41
0.0500
 70
0
  0
VERTEX
  8
20
 10
3.0000
 20
83.9250
 30
0.0000
 42
1.0000
  0
VERTEX
  8
20
 10
3.0000
 20
83.8750
 30
0.0000
  0
SEQEND
  8
0
  0
POLYLINE
  8
20
 66
1
 10
0.0000
 20
0.0000
 30
0.0000
 40
0.0500
 41
0.0500
 70
0
  0
VERTEX
  8
20
 10
105.5000
 20
83.8750
 30
0.0000
 42
1.0000
  0
VERTEX
  8
20
 10
105.5000
 20
83.9250
 30
0.0000
  0
SEQEND
  8
0
  0
POLYLINE
  8
20
 66
1
 10
0.0000
 20
0.0000
 30
0.0000
 40
0.1000
 41
0.1000
 70
0
  0
VERTEX
  8
20
 10
3.0000
 20
83.9000
 30
0.0000
 42
0.4142
  0
VERTEX
  8
20
 10
0.0000
 20
80.9000
 30
0.0000
  0
SEQEND
  8
0
  0
POLYLINE
  8
20
 66
1
 10
0.0000
 20
0.0000
 30
0.0000
 40
0.0500
 41
0.0500
 70
0
  0
VERTEX
  8
20
 10
3.0000
 20
83.8750
 30
0.0000
 42
1.0000
  0
VERTEX
  8
20
 10
3.0000
 20
83.9250
 30
0.0000
  0
SEQEND
  8
0
  0
POLYLINE
  8
20
 66
1
 10
0.0000
 20
0.0000
 30
0.0000
 40
0.0500
 41
0.0500
 70
0
  0
VERTEX
  8
20
 10
-0.0250
 20
80.9000
 30
0.0000
 42
1.0000
  0
VERTEX
  8
20
 10
0.0250
 20
80.9000
 30
0.0000
  0
SEQEND
  8
0
  0
POLYLINE
  8
20
 66
1
 10
0.0000
 20
0.0000
 30
0.0000
 40
0.1000
 41
0.1000
 70
0
  0
VERTEX
  8
20
 10
85.5000
 20
13.6000
 30
0.0000
  0
VERTEX
  8
20
 10
94.6000
 20
13.6000
 30
0.0000
  0
SEQEND
  8
0
  0
POLYLINE
  8
20
 66
1
 10
0.0000
 20
0.0000
 30
0.0000
 40
0.0500
 41
0.0500
 70
0
  0
VERTEX
  8
20
 10
94.6000
 20
13.5750
 30
0.0000
 42
1.0000
  0
VERTEX
  8
20
 10
94.6000
 20
13.6250
 30
0.0000
  0
SEQEND
  8
0
  0
POLYLINE
  8
20
 66
1
 10
0.0000
 20
0.0000
 30
0.0000
 40
0.0500
 41
0.0500
 70
0
  0
VERTEX
  8
20
 10
85.5000
 20
13.6250
 30
0.0000
 42
1.0000
  0
VERTEX
  8
20
 10
85.5000
 20
13.5750
 30
0.0000
  0
SEQEND
  8
0
  0
POLYLINE
  8
20
 66
1
 10
0.0000
 20
0.0000
 30
0.0000
 40
0.1000
 41
0.1000
 70
0
  0
VERTEX
  8
20
 10
94.6000
 20
13.6000
 30
0.0000
  0
VERTEX
  8
20
 10
94.6000
 20
8.7000
 30
0.0000
  0
SEQEND
  8
0
  0
POLYLINE
  8
20
 66
1
 10
0.0000
 20
0.0000
 30
0.0000
 40
0.0500
 41
0.0500
 70
0
  0
VERTEX
  8
20
 10
94.5750
 20
8.7000
 30
0.0000
 42
1.0000
  0
VERTEX
  8
20
 10
94.6250
 20
8.7000
 30
0.0000
  0
SEQEND
  8
0
  0
POLYLINE
  8
20
 66
1
 10
0.0000
 20
0.0000
 30
0.0000
 40
0.0500
 41
0.0500
 70
0
  0
VERTEX
  8
20
 10
94.6250
 20
13.6000
 30
0.0000
 42
1.0000
  0
VERTEX
  8
20
 10
94.5750
 20
13.6000
 30
0.0000
  0
SEQEND
  8
0
  0
POLYLINE
  8
20
 66
1
 10
0.0000
 20
0.0000
 30
0.0000
 40
0.1000
 41
0.1000
 70
0
  0
VERTEX
  8
20
 10
94.6000
 20
8.7000
 30
0.0000
  0
VERTEX
  8
20
 10
85.5000
 20
8.7000
 30
0.0000
  0
SEQEND
  8
0
  0
POLYLINE
  8
20
 66
1
 10
0.0000
 20
0.0000
 30
0.0000
 40
0.0500
 41
0.0500
 70
0
  0
VERTEX
  8
20
 10
85.5000
 20
8.7250
 30
0.0000
 42
1.0000
  0
VERTEX
  8
20
 10
85.5000
 20
8.6750
 30
0.0000
  0
SEQEND
  8
0
  0
POLYLINE
  8
20
 66
1
 10
0.0000
 20
0.0000
 30
0.0000
 40
0.0500
 41
0.0500
 70
0
  0
VERTEX
  8
20
 10
94.6000
 20
8.6750
 30
0.0000
 42
1.0000
  0
VERTEX
  8
20
 10
94.6000
 20
8.7250
 30
0.0000
  0
SEQEND
  8
0
  0
POLYLINE
  8
20
 66
1
 10
0.0000
 20
0.0000
 30
0.0000
 40
0.1000
 41
0.1000
 70
0
  0
VERTEX
  8
20
 10
85.5000
 20
8.7000
 30
0.0000
  0
VERTEX
  8
20
 10
85.5000
 20
13.6000
 30
0.0000
  0
SEQEND
  8
0
  0
POLYLINE
  8
20
 66
1
 10
0.0000
 20
0.0000
 30
0.0000
 40
0.0500
 41
0.0500
 70
0
  0
VERTEX
  8
20
 10
85.5250
 20
13.6000
 30
0.0000
 42
1.0000
  0
VERTEX
  8
20
 10
85.4750
 20
13.6000
 30
0.0000
  0
SEQEND
  8
0
  0
POLYLINE
  8
20
 66
1
 10
0.0000
 20
0.0000
 30
0.0000
 40
0.0500
 41
0.0500
 70
0
  0
VERTEX
  8
20
 10
85.4750
 20
8.7000
 30
0.0000
 42
1.0000
  0
VERTEX
  8
20
 10
85.5250
 20
8.7000
 30
0.0000
  0
SEQEND
  8
0
  0
POLYLINE
  8
20
 66
1
 10
0.0000
 20
0.0000
 30
0.0000
 40
0.1000
 41
0.1000
 70
0
  0
VERTEX
  8
20
 10
69.0000
 20
68.4000
 30
0.0000
  0
VERTEX
  8
20
 10
69.0000
 20
71.4000
 30
0.0000
  0
SEQEND
  8
0
  0
POLYLINE
  8
20
 66
1
 10
0.0000
 20
0.0000
 30
0.0000
 40
0.0500
 41
0.0500
 70
0
  0
VERTEX
  8
20
 10
69.0250
 20
71.4000
 30
0.0000
 42
1.0000
  0
VERTEX
  8
20
 10
68.9750
 20
71.4000
 30
0.0000
  0
SEQEND
  8
0
  0
POLYLINE
  8
20
 66
1
 10
0.0000
 20
0.0000
 30
0.0000
 40
0.0500
 41
0.0500
 70
0
  0
VERTEX
  8
20
 10
68.9750
 20
68.4000
 30
0.0000
 42
1.0000
  0
VERTEX
  8
20
 10
69.0250
 20
68.4000
 30
0.0000
  0
SEQEND
  8
0
  0
POLYLINE
  8
20
 66
1
 10
0.0000
 20
0.0000
 30
0.0000
 40
0.1000
 41
0.1000
 70
0
  0
VERTEX
  8
20
 10
51.5000
 20
71.4000
 30
0.0000
  0
VERTEX
  8
20
 10
51.5000
 20
68.4000
 30
0.0000
  0
SEQEND
  8
0
  0
POLYLINE
  8
20
 66
1
 10
0.0000
 20
0.0000
 30
0.0000
 40
0.0500
 41
0.0500
 70
0
  0
VERTEX
  8
20
 10
51.4750
 20
68.4000
 30
0.0000
 42
1.0000
  0
VERTEX
  8
20
 10
51.5250
 20
68.4000
 30
0.0000
  0
SEQEND
  8
0
  0
POLYLINE
  8
20
 66
1
 10
0.0000
 20
0.0000
 30
0.0000
 40
0.0500
 41
0.0500
 70
0
  0
VERTEX
  8
20
 10
51.5250
 20
71.4000
 30
0.0000
 42
1.0000
  0
VERTEX
  8
20
 10
51.4750
 20
71.4000
 30
0.0000
  0
SEQEND
  8
0
  0
POLYLINE
  8
20
 66
1
 10
0.0000
 20
0.0000
 30
0.0000
 40
0.1000
 41
0.1000
 70
0
  0
VERTEX
  8
20
 10
13.3000
 20
63.8000
 30
0.0000
  0
VERTEX
  8
20
 10
13.3000
 20
68.0000
 30
0.0000
  0
SEQEND
  8
0
  0
POLYLINE
  8
20
 66
1
 10
0.0000
 20
0.0000
 30
0.0000
 40
0.0500
 41
0.0500
 70
0
  0
VERTEX
  8
20
 10
13.3250
 20
68.0000
 30
0.0000
 42
1.0000
  0
VERTEX
  8
20
 10
13.2750
 20
68.0000
 30
0.0000
  0
SEQEND
  8
0
  0
POLYLINE
  8
20
 66
1
 10
0.0000
 20
0.0000
 30
0.0000
 40
0.0500
 41
0.0500
 70
0
  0
VERTEX
  8
20
 10
13.2750
 20
63.8000
 30
0.0000
 42
1.0000
  0
VERTEX
  8
20
 10
13.3250
 20
63.8000
 30
0.0000
  0
SEQEND
  8
0
  0
POLYLINE
  8
20
 66
1
 10
0.0000
 20
0.0000
 30
0.0000
 40
0.1000
 41
0.1000
 70
0
  0
VERTEX
  8
20
 10
35.8000
 20
68.0000
 30
0.0000
  0
VERTEX
  8
20
 10
35.8000
 20
63.8000
 30
0.0000
  0
SEQEND
  8
0
  0
POLYLINE
  8
20
 66
1
 10
0.0000
 20
0.0000
 30
0.0000
 40
0.0500
 41
0.0500
 70
0
  0
VERTEX
  8
20
 10
35.7750
 20
63.8000
 30
0.0000
 42
1.0000
  0
VERTEX
  8
20
 10
35.8250
 20
63.8000
 30
0.0000
  0
SEQEND
  8
0
  0
POLYLINE
  8
20
 66
1
 10
0.0000
 20
0.0000
 30
0.0000
 40
0.0500
 41
0.0500
 70
0
  0
VERTEX
  8
20
 10
35.8250
 20
68.0000
 30
0.0000
 42
1.0000
  0
VERTEX
  8
20
 10
35.7750
 20
68.0000
 30
0.0000
  0
SEQEND
  8
0
  0
POLYLINE
  8
21
 66
1
 10
0.0000
 20
0.0000
 30
0.0000
 40
0.1000
 41
0.1000
 70
0
  0
VERTEX
  8
21
 10
58.0000
 20
23.0000
 30
0.0000
  0
VERTEX
  8
21
 10
67.0000
 20
23.0000
 30
0.0000
  0
SEQEND
  8
0
  0
POLYLINE
  8
21
 66
1
 10
0.0000
 20
0.0000
 30
0.0000
 40
0.0500
 41
0.0500
 70
0
  0
VERTEX
  8
21
 10
67.0000
 20
22.9750
 30
0.0000
 42
1.0000
  0
VERTEX
  8
21
 10
67.0000
 20
23.0250
 30
0.0000
  0
SEQEND
  8
0
  0
POLYLINE
  8
21
 66
1
 10
0.0000
 20
0.0000
 30
0.0000
 40
0.0500
 41
0.0500
 70
0
  0
VERTEX
  8
21
 10
58.0000
 20
23.0250
 30
0.0000
 42
1.0000
  0
VERTEX
  8
21
 10
58.0000
 20
22.9750
 30
0.0000
  0
SEQEND
  8
0
  0
POLYLINE
  8
21
 66
1
 10
0.0000
 20
0.0000
 30
0.0000
 40
0.1000
 41
0.1000
 70
0
  0
VERTEX
  8
21
 10
39.0000
 20
23.0000
 30
0.0000
  0
VERTEX
  8
21
 10
33.0000
 20
23.0000
 30
0.0000
  0
SEQEND
  8
0
  0
POLYLINE
  8
21
 66
1
 10
0.0000
 20
0.0000
 30
0.0000
 40
0.0500
 41
0.0500
 70
0
  0
VERTEX
  8
21
 10
33.0000
 20
23.0250
 30
0.0000
 42
1.0000
  0
VERTEX
  8
21
 10
33.0000
 20
22.9750
 30
0.0000
  0
SEQEND
  8
0
  0
POLYLINE
  8
21
 66
1
 10
0.0000
 20
0.0000
 30
0.0000
 40
0.0500
 41
0.0500
 70
0
  0
VERTEX
  8
21
 10
39.0000
 20
22.9750
 30
0.0000
 42
1.0000
  0
VERTEX
  8
21
 10
39.0000
 20
23.0250
 30
0.0000
  0
SEQEND
  8
0
  0
POLYLINE
  8
20
 66
1
 10
0.0000
 20
0.0000
 30
0.0000
 40
0.1000
 41
0.1000
 70
0
  0
VERTEX
  8
20
 10
72.3000
 20
20.1000
 30
0.0000
  0
VERTEX
  8
20
 10
82.3000
 20
20.1000
 30
0.0000
  0
SEQEND
  8
0
  0
POLYLINE
  8
20
 66
1
 10
0.0000
 20
0.0000
 30
0.0000
 40
0.0500
 41
0.0500
 70
0
  0
VERTEX
  8
20
 10
82.3000
 20
20.0750
 30
0.0000
 42
1.0000
  0
VERTEX
  8
20
 10
82.3000
 20
20.1250
 30
0.0000
  0
SEQEND
  8
0
  0
POLYLINE
  8
20
 66
1
 10
0.0000
 20
0.0000
 30
0.0000
 40
0.0500
 41
0.0500
 70
0
  0
VERTEX
  8
20
 10
72.3000
 20
20.1250
 30
0.0000
 42
1.0000
  0
VERTEX
  8
20
 10
72.3000
 20
20.0750
 30
0.0000
  0
SEQEND
  8
0
  0
POLYLINE
  8
20
 66
1
 10
0.0000
 20
0.0000
 30
0.0000
 40
0.1000
 41
0.1000
 70
0
  0
VERTEX
  8
20
 10
82.3000
 20
20.1000
 30
0.0000
  0
VERTEX
  8
20
 10
82.3000
 20
8.7000
 30
0.0000
  0
SEQEND
  8
0
  0
POLYLINE
  8
20
 66
1
 10
0.0000
 20
0.0000
 30
0.0000
 40
0.0500
 41
0.0500
 70
0
  0
VERTEX
  8
20
 10
82.2750
 20
8.7000
 30
0.0000
 42
1.0000
  0
VERTEX
  8
20
 10
82.3250
 20
8.7000
 30
0.0000
  0
SEQEND
  8
0
  0
POLYLINE
  8
20
 66
1
 10
0.0000
 20
0.0000
 30
0.0000
 40
0.0500
 41
0.0500
 70
0
  0
VERTEX
  8
20
 10
82.3250
 20
20.1000
 30
0.0000
 42
1.0000
  0
VERTEX
  8
20
 10
82.2750
 20
20.1000
 30
0.0000
  0
SEQEND
  8
0
  0
POLYLINE
  8
20
 66
1
 10
0.0000
 20
0.0000
 30
0.0000
 40
0.1000
 41
0.1000
 70
0
  0
VERTEX
  8
20
 10
82.3000
 20
8.7000
 30
0.0000
  0
VERTEX
  8
20
 10
72.3000
 20
8.7000
 30
0.0000
  0
SEQEND
  8
0
  0
POLYLINE
  8
20
 66
1
 10
0.0000
 20
0.0000
 30
0.0000
 40
0.0500
 41
0.0500
 70
0
  0
VERTEX
  8
20
 10
72.3000
 20
8.7250
 30
0.0000
 42
1.0000
  0
VERTEX
  8
20
 10
72.3000
 20
8.6750
 30
0.0000
  0
SEQEND
  8
0
  0
POLYLINE
  8
20
 66
1
 10
0.0000
 20
0.0000
 30
0.0000
 40
0.0500
 41
0.0500
 70
0
  0
VERTEX
  8
20
 10
82.3000
 20
8.6750
 30
0.0000
 42
1.0000
  0
VERTEX
  8
20
 10
82.3000
 20
8.7250
 30
0.0000
  0
SEQEND
  8
0
  0
POLYLINE
  8
20
 66
1
 10
0.0000
 20
0.0000
 30
0.0000
 40
0.1000
 41
0.1000
 70
0
  0
VERTEX
  8
20
 10
72.3000
 20
8.7000
 30
0.0000
  0
VERTEX
  8
20
 10
72.3000
 20
20.1000
 30
0.0000
  0
SEQEND
  8
0
  0
POLYLINE
  8
20
 66
1
 10
0.0000
 20
0.0000
 30
0.0000
 40
0.0500
 41
0.0500
 70
0
  0
VERTEX
  8
20
 10
72.3250
 20
20.1000
 30
0.0000
 42
1.0000
  0
VERTEX
  8
20
 10
72.2750
 20
20.1000
 30
0.0000
  0
SEQEND
  8
0
  0
POLYLINE
  8
20
 66
1
 10
0.0000
 20
0.0000
 30
0.0000
 40
0.0500
 41
0.0500
 70
0
  0
VERTEX
  8
20
 10
72.2750
 20
8.7000
 30
0.0000
 42
1.0000
  0
VERTEX
  8
20
 10
72.3250
 20
8.7000
 30
0.0000
  0
SEQEND
  8
0
  0
POLYLINE
  8
20
 66
1
 10
0.0000
 20
0.0000
 30
0.0000
 40
0.1000
 41
0.1000
 70
0
  0
VERTEX
  8
20
 10
13.3000
 20
68.0000
 30
0.0000
  0
VERTEX
  8
20
 10
23.5000
 20
68.0000
 30
0.0000
  0
SEQEND
  8
0
  0
POLYLINE
  8
20
 66
1
 10
0.0000
 20
0.0000
 30
0.0000
 40
0.0500
 41
0.0500
 70
0
  0
VERTEX
  8
20
 10
23.5000
 20
67.9750
 30
0.0000
 42
1.0000
  0
VERTEX
  8
20
 10
23.5000
 20
68.0250
 30
0.0000
  0
SEQEND
  8
0
  0
POLYLINE
  8
20
 66
1
 10
0.0000
 20
0.0000
 30
0.0000
 40
0.0500
 41
0.0500
 70
0
  0
VERTEX
  8
20
 10
13.3000
 20
68.0250
 30
0.0000
 42
1.0000
  0
VERTEX
  8
20
 10
13.3000
 20
67.9750
 30
0.0000
  0
SEQEND
  8
0
  0
POLYLINE
  8
20
 66
1
 10
0.0000
 20
0.0000
 30
0.0000
 40
0.1000
 41
0.1000
 70
0
  0
VERTEX
  8
20
 10
24.5000
 20
68.0000
 30
0.0000
  0
VERTEX
  8
20
 10
35.8000
 20
68.0000
 30
0.0000
  0
SEQEND
  8
0
  0
POLYLINE
  8
20
 66
1
 10
0.0000
 20
0.0000
 30
0.0000
 40
0.0500
 41
0.0500
 70
0
  0
VERTEX
  8
20
 10
35.8000
 20
67.9750
 30
0.0000
 42
1.0000
  0
VERTEX
  8
20
 10
35.8000
 20
68.0250
 30
0.0000
  0
SEQEND
  8
0
  0
POLYLINE
  8
20
 66
1
 10
0.0000
 20
0.0000
 30
0.0000
 40
0.0500
 41
0.0500
 70
0
  0
VERTEX
  8
20
 10
24.5000
 20
68.0250
 30
0.0000
 42
1.0000
  0
VERTEX
  8
20
 10
24.5000
 20
67.9750
 30
0.0000
  0
SEQEND
  8
0
  0
POLYLINE
  8
20
 66
1
 10
0.0000
 20
0.0000
 30
0.0000
 40
0.1000
 41
0.1000
 70
0
  0
VERTEX
  8
20
 10
51.5000
 20
71.4000
 30
0.0000
  0
VERTEX
  8
20
 10
59.7000
 20
71.4000
 30
0.0000
  0
SEQEND
  8
0
  0
POLYLINE
  8
20
 66
1
 10
0.0000
 20
0.0000
 30
0.0000
 40
0.0500
 41
0.0500
 70
0
  0
VERTEX
  8
20
 10
59.7000
 20
71.3750
 30
0.0000
 42
1.0000
  0
VERTEX
  8
20
 10
59.7000
 20
71.4250
 30
0.0000
  0
SEQEND
  8
0
  0
POLYLINE
  8
20
 66
1
 10
0.0000
 20
0.0000
 30
0.0000
 40
0.0500
 41
0.0500
 70
0
  0
VERTEX
  8
20
 10
51.5000
 20
71.4250
 30
0.0000
 42
1.0000
  0
VERTEX
  8
20
 10
51.5000
 20
71.3750
 30
0.0000
  0
SEQEND
  8
0
  0
POLYLINE
  8
20
 66
1
 10
0.0000
 20
0.0000
 30
0.0000
 40
0.1000
 41
0.1000
 70
0
  0
VERTEX
  8
20
 10
60.7000
 20
71.4000
 30
0.0000
  0
VERTEX
  8
20
 10
69.0000
 20
71.4000
 30
0.0000
  0
SEQEND
  8
0
  0
POLYLINE
  8
20
 66
1
 10
0.0000
 20
0.0000
 30
0.0000
 40
0.0500
 41
0.0500
 70
0
  0
VERTEX
  8
20
 10
69.0000
 20
71.3750
 30
0.0000
 42
1.0000
  0
VERTEX
  8
20
 10
69.0000
 20
71.4250
 30
0.0000
  0
SEQEND
  8
0
  0
POLYLINE
  8
20
 66
1
 10
0.0000
 20
0.0000
 30
0.0000
 40
0.0500
 41
0.0500
 70
0
  0
VERTEX
  8
20
 10
60.7000
 20
71.4250
 30
0.0000
 42
1.0000
  0
VERTEX
  8
20
 10
60.7000
 20
71.3750
 30
0.0000
  0
SEQEND
  8
0
  0
POLYLINE
  8
20
 66
1
 10
0.0000
 20
0.0000
 30
0.0000
 40
0.1000
 41
0.1000
 70
0
  0
VERTEX
  8
20
 10
92.2000
 20
73.9000
 30
0.0000
 42
0.9847
  0
VERTEX
  8
20
 10
92.1000
 20
67.5000
 30
0.0000
  0
SEQEND
  8
0
  0
POLYLINE
  8
20
 66
1
 10
0.0000
 20
0.0000
 30
0.0000
 40
0.0500
 41
0.0500
 70
0
  0
VERTEX
  8
20
 10
92.2000
 20
73.8750
 30
0.0000
 42
1.0000
  0
VERTEX
  8
20
 10
92.2000
 20
73.9250
 30
0.0000
  0
SEQEND
  8
0
  0
POLYLINE
  8
20
 66
1
 10
0.0000
 20
0.0000
 30
0.0000
 40
0.0500
 41
0.0500
 70
0
  0
VERTEX
  8
20
 10
92.0992
 20
67.4750
 30
0.0000
 42
1.0000
  0
VERTEX
  8
20
 10
92.1008
 20
67.5250
 30
0.0000
  0
SEQEND
  8
0
  0
POLYLINE
  8
20
 66
1
 10
0.0000
 20
0.0000
 30
0.0000
 40
0.1000
 41
0.1000
 70
0
  0
VERTEX
  8
20
 10
13.3000
 20
63.8000
 30
0.0000
  0
VERTEX
  8
20
 10
23.5000
 20
63.8000
 30
0.0000
  0
SEQEND
  8
0
  0
POLYLINE
  8
20
 66
1
 10
0.0000
 20
0.0000
 30
0.0000
 40
0.0500
 41
0.0500
 70
0
  0
VERTEX
  8
20
 10
23.5000
 20
63.7750
 30
0.0000
 42
1.0000
  0
VERTEX
  8
20
 10
23.5000
 20
63.8250
 30
0.0000
  0
SEQEND
  8
0
  0
POLYLINE
  8
20
 66
1
 10
0.0000
 20
0.0000
 30
0.0000
 40
0.0500
 41
0.0500
 70
0
  0
VERTEX
  8
20
 10
13.3000
 20
63.8250
 30
0.0000
 42
1.0000
  0
VERTEX
  8
20
 10
13.3000
 20
63.7750
 30
0.0000
  0
SEQEND
  8
0
  0
POLYLINE
  8
20
 66
1
 10
0.0000
 20
0.0000
 30
0.0000
 40
0.1000
 41
0.1000
 70
0
  0
VERTEX
  8
20
 10
24.5000
 20
63.8000
 30
0.0000
  0
VERTEX
  8
20
 10
35.8000
 20
63.8000
 30
0.0000
  0
SEQEND
  8
0
  0
POLYLINE
  8
20
 66
1
 10
0.0000
 20
0.0000
 30
0.0000
 40
0.0500
 41
0.0500
 70
0
  0
VERTEX
  8
20
 10
35.8000
 20
63.7750
 30
0.0000
 42
1.0000
  0
VERTEX
  8
20
 10
35.8000
 20
63.8250
 30
0.0000
  0
SEQEND
  8
0
  0
POLYLINE
  8
20
 66
1
 10
0.0000
 20
0.0000
 30
0.0000
 40
0.0500
 41
0.0500
 70
0
  0
VERTEX
  8
20
 10
24.5000
 20
63.8250
 30
0.0000
 42
1.0000
  0
VERTEX
  8
20
 10
24.5000
 20
63.7750
 30
0.0000
  0
SEQEND
  8
0
  0
POLYLINE
  8
20
 66
1
 10
0.0000
 20
0.0000
 30
0.0000
 40
0.1000
 41
0.1000
 70
0
  0
VERTEX
  8
20
 10
51.5000
 20
68.4000
 30
0.0000
  0
VERTEX
  8
20
 10
59.7000
 20
68.4000
 30
0.0000
  0
SEQEND
  8
0
  0
POLYLINE
  8
20
 66
1
 10
0.0000
 20
0.0000
 30
0.0000
 40
0.0500
 41
0.0500
 70
0
  0
VERTEX
  8
20
 10
59.7000
 20
68.3750
 30
0.0000
 42
1.0000
  0
VERTEX
  8
20
 10
59.7000
 20
68.4250
 30
0.0000
  0
SEQEND
  8
0
  0
POLYLINE
  8
20
 66
1
 10
0.0000
 20
0.0000
 30
0.0000
 40
0.0500
 41
0.0500
 70
0
  0
VERTEX
  8
20
 10
51.5000
 20
68.4250
 30
0.0000
 42
1.0000
  0
VERTEX
  8
20
 10
51.5000
 20
68.3750
 30
0.0000
  0
SEQEND
  8
0
  0
POLYLINE
  8
20
 66
1
 10
0.0000
 20
0.0000
 30
0.0000
 40
0.1000
 41
0.1000
 70
0
  0
VERTEX
  8
20
 10
60.7000
 20
68.4000
 30
0.0000
  0
VERTEX
  8
20
 10
69.0000
 20
68.4000
 30
0.0000
  0
SEQEND
  8
0
  0
POLYLINE
  8
20
 66
1
 10
0.0000
 20
0.0000
 30
0.0000
 40
0.0500
 41
0.0500
 70
0
  0
VERTEX
  8
20
 10
69.0000
 20
68.3750
 30
0.0000
 42
1.0000
  0
VERTEX
  8
20
 10
69.0000
 20
68.4250
 30
0.0000
  0
SEQEND
  8
0
  0
POLYLINE
  8
20
 66
1
 10
0.0000
 20
0.0000
 30
0.0000
 40
0.0500
 41
0.0500
 70
0
  0
VERTEX
  8
20
 10
60.7000
 20
68.4250
 30
0.0000
 42
1.0000
  0
VERTEX
  8
20
 10
60.7000
 20
68.3750
 30
0.0000
  0
SEQEND
  8
0
  0
POLYLINE
  8
20
 66
1
 10
0.0000
 20
0.0000
 30
0.0000
 40
0.1000
 41
0.1000
 70
0
  0
VERTEX
  8
20
 10
92.9000
 20
67.5000
 30
0.0000
 42
0.8145
  0
VERTEX
  8
20
 10
93.1000
 20
73.8000
 30
0.0000
  0
SEQEND
  8
0
  0
POLYLINE
  8
20
 66
1
 10
0.0000
 20
0.0000
 30
0.0000
 40
0.0500
 41
0.0500
 70
0
  0
VERTEX
  8
20
 10
92.8957
 20
67.5246
 30
0.0000
 42
1.0000
  0
VERTEX
  8
20
 10
92.9043
 20
67.4754
 30
0.0000
  0
SEQEND
  8
0
  0
POLYLINE
  8
20
 66
1
 10
0.0000
 20
0.0000
 30
0.0000
 40
0.0500
 41
0.0500
 70
0
  0
VERTEX
  8
20
 10
93.1058
 20
73.8243
 30
0.0000
 42
1.0000
  0
VERTEX
  8
20
 10
93.0942
 20
73.7757
 30
0.0000
  0
SEQEND
  8
0
  0
TEXT
  7
ISOCP
  8
21
 10
75.4000
 20
4.4000
 30
0.0000
 40
2.5000
  1
AC 
  0
TEXT
  7
ISOCP
  8
21
 10
59.8000
 20
4.5000
 30
0.0000
 40
2.5000
  1
CT1
  0
TEXT
  7
ISOCP
  8
21
 10
46.4000
 20
4.4000
 30
0.0000
 40
2.5000
  1
CT2
  0
TEXT
  7
ISOCP
  8
21
 10
33.6000
 20
4.4000
 30
0.0000
 40
2.5000
  1
CT3
  0
TEXT
  7
ISOCP
  8
21
 10
15.4000
 20
4.3000
 30
0.0000
 40
2.5000
  1
CT4
  0
TEXT
  7
ISOCP
  8
21
 10
76.0000
 20
22.0000
 30
0.0000
 40
2.5000
  1
9V
  0
POLYLINE
  8
21
 66
1
 10
0.0000
 20
0.0000
 30
0.0000
 40
0.2286
 41
0.2286
 70
0
  0
VERTEX
  8
21
 10
12.4143
 20
71.9631
 30
0.0000
  0
VERTEX
  8
21
 10
13.1387
 20
72.6876
 30
0.0000
  0
SEQEND
  8
0
  0
POLYLINE
  8
21
 66
1
 10
0.0000
 20
0.0000
 30
0.0000
 40
0.1143
 41
0.1143
 70
0
  0
VERTEX
  8
21
 10
13.1791
 20
72.6471
 30
0.0000
 42
1.0000
  0
VERTEX
  8
21
 10
13.0983
 20
72.7280
 30
0.0000
  0
SEQEND
  8
0
  0
POLYLINE
  8
21
 66
1
 10
0.0000
 20
0.0000
 30
0.0000
 40
0.1143
 41
0.1143
 70
0
  0
VERTEX
  8
21
 10
12.3739
 20
72.0035
 30
0.0000
 42
1.0000
  0
VERTEX
  8
21
 10
12.4547
 20
71.9227
 30
0.0000
  0
SEQEND
  8
0
  0
POLYLINE
  8
21
 66
1
 10
0.0000
 20
0.0000
 30
0.0000
 40
0.2286
 41
0.2286
 70
0
  0
VERTEX
  8
21
 10
13.1387
 20
72.6876
 30
0.0000
  0
VERTEX
  8
21
 10
13.1387
 20
70.5143
 30
0.0000
  0
SEQEND
  8
0
  0
POLYLINE
  8
21
 66
1
 10
0.0000
 20
0.0000
 30
0.0000
 40
0.1143
 41
0.1143
 70
0
  0
VERTEX
  8
21
 10
13.0816
 20
70.5143
 30
0.0000
 42
1.0000
  0
VERTEX
  8
21
 10
13.1959
 20
70.5143
 30
0.0000
  0
SEQEND
  8
0
  0
POLYLINE
  8
21
 66
1
 10
0.0000
 20
0.0000
 30
0.0000
 40
0.1143
 41
0.1143
 70
0
  0
VERTEX
  8
21
 10
13.1959
 20
72.6876
 30
0.0000
 42
1.0000
  0
VERTEX
  8
21
 10
13.0816
 20
72.6876
 30
0.0000
  0
SEQEND
  8
0
  0
POLYLINE
  8
21
 66
1
 10
0.0000
 20
0.0000
 30
0.0000
 40
0.2286
 41
0.2286
 70
0
  0
VERTEX
  8
21
 10
12.4143
 20
70.5143
 30
0.0000
  0
VERTEX
  8
21
 10
13.8631
 20
70.5143
 30
0.0000
  0
SEQEND
  8
0
  0
POLYLINE
  8
21
 66
1
 10
0.0000
 20
0.0000
 30
0.0000
 40
0.1143
 41
0.1143
 70
0
  0
VERTEX
  8
21
 10
13.8631
 20
70.4572
 30
0.0000
 42
1.0000
  0
VERTEX
  8
21
 10
13.8631
 20
70.5714
 30
0.0000
  0
SEQEND
  8
0
  0
POLYLINE
  8
21
 66
1
 10
0.0000
 20
0.0000
 30
0.0000
 40
0.1143
 41
0.1143
 70
0
  0
VERTEX
  8
21
 10
12.4143
 20
70.5714
 30
0.0000
 42
1.0000
  0
VERTEX
  8
21
 10
12.4143
 20
70.4572
 30
0.0000
  0
SEQEND
  8
0
  0
POLYLINE
  8
21
 66
1
 10
0.0000
 20
0.0000
 30
0.0000
 40
0.2286
 41
0.2286
 70
0
  0
VERTEX
  8
21
 10
18.2829
 20
70.5143
 30
0.0000
  0
VERTEX
  8
21
 10
16.8341
 20
70.5143
 30
0.0000
  0
SEQEND
  8
0
  0
POLYLINE
  8
21
 66
1
 10
0.0000
 20
0.0000
 30
0.0000
 40
0.1143
 41
0.1143
 70
0
  0
VERTEX
  8
21
 10
16.8341
 20
70.5714
 30
0.0000
 42
1.0000
  0
VERTEX
  8
21
 10
16.8341
 20
70.4572
 30
0.0000
  0
SEQEND
  8
0
  0
POLYLINE
  8
21
 66
1
 10
0.0000
 20
0.0000
 30
0.0000
 40
0.1143
 41
0.1143
 70
0
  0
VERTEX
  8
21
 10
18.2829
 20
70.4572
 30
0.0000
 42
1.0000
  0
VERTEX
  8
21
 10
18.2829
 20
70.5714
 30
0.0000
  0
SEQEND
  8
0
  0
POLYLINE
  8
21
 66
1
 10
0.0000
 20
0.0000
 30
0.0000
 40
0.2286
 41
0.2286
 70
0
  0
VERTEX
  8
21
 10
16.8341
 20
70.5143
 30
0.0000
  0
VERTEX
  8
21
 10
18.2829
 20
71.9631
 30
0.0000
  0
SEQEND
  8
0
  0
POLYLINE
  8
21
 66
1
 10
0.0000
 20
0.0000
 30
0.0000
 40
0.1143
 41
0.1143
 70
0
  0
VERTEX
  8
21
 10
18.3233
 20
71.9227
 30
0.0000
 42
1.0000
  0
VERTEX
  8
21
 10
18.2425
 20
72.0035
 30
0.0000
  0
SEQEND
  8
0
  0
POLYLINE
  8
21
 66
1
 10
0.0000
 20
0.0000
 30
0.0000
 40
0.1143
 41
0.1143
 70
0
  0
VERTEX
  8
21
 10
16.7937
 20
70.5547
 30
0.0000
 42
1.0000
  0
VERTEX
  8
21
 10
16.8745
 20
70.4739
 30
0.0000
  0
SEQEND
  8
0
  0
POLYLINE
  8
21
 66
1
 10
0.0000
 20
0.0000
 30
0.0000
 40
0.2286
 41
0.2286
 70
0
  0
VERTEX
  8
21
 10
18.2829
 20
71.9631
 30
0.0000
  0
VERTEX
  8
21
 10
18.2829
 20
72.3253
 30
0.0000
  0
SEQEND
  8
0
  0
POLYLINE
  8
21
 66
1
 10
0.0000
 20
0.0000
 30
0.0000
 40
0.1143
 41
0.1143
 70
0
  0
VERTEX
  8
21
 10
18.3401
 20
72.3253
 30
0.0000
 42
1.0000
  0
VERTEX
  8
21
 10
18.2258
 20
72.3253
 30
0.0000
  0
SEQEND
  8
0
  0
POLYLINE
  8
21
 66
1
 10
0.0000
 20
0.0000
 30
0.0000
 40
0.1143
 41
0.1143
 70
0
  0
VERTEX
  8
21
 10
18.2258
 20
71.9631
 30
0.0000
 42
1.0000
  0
VERTEX
  8
21
 10
18.3401
 20
71.9631
 30
0.0000
  0
SEQEND
  8
0
  0
POLYLINE
  8
21
 66
1
 10
0.0000
 20
0.0000
 30
0.0000
 40
0.2286
 41
0.2286
 70
0
  0
VERTEX
  8
21
 10
18.2829
 20
72.3253
 30
0.0000
  0
VERTEX
  8
21
 10
17.9207
 20
72.6876
 30
0.0000
  0
SEQEND
  8
0
  0
POLYLINE
  8
21
 66
1
 10
0.0000
 20
0.0000
 30
0.0000
 40
0.1143
 41
0.1143
 70
0
  0
VERTEX
  8
21
 10
17.9611
 20
72.7280
 30
0.0000
 42
1.0000
  0
VERTEX
  8
21
 10
17.8803
 20
72.6471
 30
0.0000
  0
SEQEND
  8
0
  0
POLYLINE
  8
21
 66
1
 10
0.0000
 20
0.0000
 30
0.0000
 40
0.1143
 41
0.1143
 70
0
  0
VERTEX
  8
21
 10
18.2425
 20
72.2849
 30
0.0000
 42
1.0000
  0
VERTEX
  8
21
 10
18.3233
 20
72.3658
 30
0.0000
  0
SEQEND
  8
0
  0
POLYLINE
  8
21
 66
1
 10
0.0000
 20
0.0000
 30
0.0000
 40
0.2286
 41
0.2286
 70
0
  0
VERTEX
  8
21
 10
17.9207
 20
72.6876
 30
0.0000
  0
VERTEX
  8
21
 10
17.1963
 20
72.6876
 30
0.0000
  0
SEQEND
  8
0
  0
POLYLINE
  8
21
 66
1
 10
0.0000
 20
0.0000
 30
0.0000
 40
0.1143
 41
0.1143
 70
0
  0
VERTEX
  8
21
 10
17.1963
 20
72.7447
 30
0.0000
 42
1.0000
  0
VERTEX
  8
21
 10
17.1963
 20
72.6304
 30
0.0000
  0
SEQEND
  8
0
  0
POLYLINE
  8
21
 66
1
 10
0.0000
 20
0.0000
 30
0.0000
 40
0.1143
 41
0.1143
 70
0
  0
VERTEX
  8
21
 10
17.9207
 20
72.6304
 30
0.0000
 42
1.0000
  0
VERTEX
  8
21
 10
17.9207
 20
72.7447
 30
0.0000
  0
SEQEND
  8
0
  0
POLYLINE
  8
21
 66
1
 10
0.0000
 20
0.0000
 30
0.0000
 40
0.2286
 41
0.2286
 70
0
  0
VERTEX
  8
21
 10
17.1963
 20
72.6876
 30
0.0000
  0
VERTEX
  8
21
 10
16.8341
 20
72.3253
 30
0.0000
  0
SEQEND
  8
0
  0
POLYLINE
  8
21
 66
1
 10
0.0000
 20
0.0000
 30
0.0000
 40
0.1143
 41
0.1143
 70
0
  0
VERTEX
  8
21
 10
16.7937
 20
72.3658
 30
0.0000
 42
1.0000
  0
VERTEX
  8
21
 10
16.8745
 20
72.2849
 30
0.0000
  0
SEQEND
  8
0
  0
POLYLINE
  8
21
 66
1
 10
0.0000
 20
0.0000
 30
0.0000
 40
0.1143
 41
0.1143
 70
0
  0
VERTEX
  8
21
 10
17.2367
 20
72.6471
 30
0.0000
 42
1.0000
  0
VERTEX
  8
21
 10
17.1559
 20
72.7280
 30
0.0000
  0
SEQEND
  8
0
  0
POLYLINE
  8
21
 66
1
 10
0.0000
 20
0.0000
 30
0.0000
 40
0.2286
 41
0.2286
 70
0
  0
VERTEX
  8
21
 10
21.2538
 20
72.3253
 30
0.0000
  0
VERTEX
  8
21
 10
21.6161
 20
72.6876
 30
0.0000
  0
SEQEND
  8
0
  0
POLYLINE
  8
21
 66
1
 10
0.0000
 20
0.0000
 30
0.0000
 40
0.1143
 41
0.1143
 70
0
  0
VERTEX
  8
21
 10
21.6565
 20
72.6471
 30
0.0000
 42
1.0000
  0
VERTEX
  8
21
 10
21.5756
 20
72.7280
 30
0.0000
  0
SEQEND
  8
0
  0
POLYLINE
  8
21
 66
1
 10
0.0000
 20
0.0000
 30
0.0000
 40
0.1143
 41
0.1143
 70
0
  0
VERTEX
  8
21
 10
21.2134
 20
72.3658
 30
0.0000
 42
1.0000
  0
VERTEX
  8
21
 10
21.2943
 20
72.2849
 30
0.0000
  0
SEQEND
  8
0
  0
POLYLINE
  8
21
 66
1
 10
0.0000
 20
0.0000
 30
0.0000
 40
0.2286
 41
0.2286
 70
0
  0
VERTEX
  8
21
 10
21.6161
 20
72.6876
 30
0.0000
  0
VERTEX
  8
21
 10
22.3405
 20
72.6876
 30
0.0000
  0
SEQEND
  8
0
  0
POLYLINE
  8
21
 66
1
 10
0.0000
 20
0.0000
 30
0.0000
 40
0.1143
 41
0.1143
 70
0
  0
VERTEX
  8
21
 10
22.3405
 20
72.6304
 30
0.0000
 42
1.0000
  0
VERTEX
  8
21
 10
22.3405
 20
72.7447
 30
0.0000
  0
SEQEND
  8
0
  0
POLYLINE
  8
21
 66
1
 10
0.0000
 20
0.0000
 30
0.0000
 40
0.1143
 41
0.1143
 70
0
  0
VERTEX
  8
21
 10
21.6161
 20
72.7447
 30
0.0000
 42
1.0000
  0
VERTEX
  8
21
 10
21.6161
 20
72.6304
 30
0.0000
  0
SEQEND
  8
0
  0
POLYLINE
  8
21
 66
1
 10
0.0000
 20
0.0000
 30
0.0000
 40
0.2286
 41
0.2286
 70
0
  0
VERTEX
  8
21
 10
22.3405
 20
72.6876
 30
0.0000
  0
VERTEX
  8
21
 10
22.7027
 20
72.3253
 30
0.0000
  0
SEQEND
  8
0
  0
POLYLINE
  8
21
 66
1
 10
0.0000
 20
0.0000
 30
0.0000
 40
0.1143
 41
0.1143
 70
0
  0
VERTEX
  8
21
 10
22.6623
 20
72.2849
 30
0.0000
 42
1.0000
  0
VERTEX
  8
21
 10
22.7431
 20
72.3658
 30
0.0000
  0
SEQEND
  8
0
  0
POLYLINE
  8
21
 66
1
 10
0.0000
 20
0.0000
 30
0.0000
 40
0.1143
 41
0.1143
 70
0
  0
VERTEX
  8
21
 10
22.3809
 20
72.7280
 30
0.0000
 42
1.0000
  0
VERTEX
  8
21
 10
22.3001
 20
72.6471
 30
0.0000
  0
SEQEND
  8
0
  0
POLYLINE
  8
21
 66
1
 10
0.0000
 20
0.0000
 30
0.0000
 40
0.2286
 41
0.2286
 70
0
  0
VERTEX
  8
21
 10
22.7027
 20
72.3253
 30
0.0000
  0
VERTEX
  8
21
 10
22.7027
 20
71.9631
 30
0.0000
  0
SEQEND
  8
0
  0
POLYLINE
  8
21
 66
1
 10
0.0000
 20
0.0000
 30
0.0000
 40
0.1143
 41
0.1143
 70
0
  0
VERTEX
  8
21
 10
22.6455
 20
71.9631
 30
0.0000
 42
1.0000
  0
VERTEX
  8
21
 10
22.7598
 20
71.9631
 30
0.0000
  0
SEQEND
  8
0
  0
POLYLINE
  8
21
 66
1
 10
0.0000
 20
0.0000
 30
0.0000
 40
0.1143
 41
0.1143
 70
0
  0
VERTEX
  8
21
 10
22.7598
 20
72.3253
 30
0.0000
 42
1.0000
  0
VERTEX
  8
21
 10
22.6455
 20
72.3253
 30
0.0000
  0
SEQEND
  8
0
  0
POLYLINE
  8
21
 66
1
 10
0.0000
 20
0.0000
 30
0.0000
 40
0.2286
 41
0.2286
 70
0
  0
VERTEX
  8
21
 10
22.7027
 20
71.9631
 30
0.0000
  0
VERTEX
  8
21
 10
22.3405
 20
71.6009
 30
0.0000
  0
SEQEND
  8
0
  0
POLYLINE
  8
21
 66
1
 10
0.0000
 20
0.0000
 30
0.0000
 40
0.1143
 41
0.1143
 70
0
  0
VERTEX
  8
21
 10
22.3001
 20
71.6413
 30
0.0000
 42
1.0000
  0
VERTEX
  8
21
 10
22.3809
 20
71.5605
 30
0.0000
  0
SEQEND
  8
0
  0
POLYLINE
  8
21
 66
1
 10
0.0000
 20
0.0000
 30
0.0000
 40
0.1143
 41
0.1143
 70
0
  0
VERTEX
  8
21
 10
22.7431
 20
71.9227
 30
0.0000
 42
1.0000
  0
VERTEX
  8
21
 10
22.6623
 20
72.0035
 30
0.0000
  0
SEQEND
  8
0
  0
POLYLINE
  8
21
 66
1
 10
0.0000
 20
0.0000
 30
0.0000
 40
0.2286
 41
0.2286
 70
0
  0
VERTEX
  8
21
 10
22.3405
 20
71.6009
 30
0.0000
  0
VERTEX
  8
21
 10
21.9783
 20
71.6009
 30
0.0000
  0
SEQEND
  8
0
  0
POLYLINE
  8
21
 66
1
 10
0.0000
 20
0.0000
 30
0.0000
 40
0.1143
 41
0.1143
 70
0
  0
VERTEX
  8
21
 10
21.9783
 20
71.6581
 30
0.0000
 42
1.0000
  0
VERTEX
  8
21
 10
21.9783
 20
71.5438
 30
0.0000
  0
SEQEND
  8
0
  0
POLYLINE
  8
21
 66
1
 10
0.0000
 20
0.0000
 30
0.0000
 40
0.1143
 41
0.1143
 70
0
  0
VERTEX
  8
21
 10
22.3405
 20
71.5438
 30
0.0000
 42
1.0000
  0
VERTEX
  8
21
 10
22.3405
 20
71.6581
 30
0.0000
  0
SEQEND
  8
0
  0
POLYLINE
  8
21
 66
1
 10
0.0000
 20
0.0000
 30
0.0000
 40
0.2286
 41
0.2286
 70
0
  0
VERTEX
  8
21
 10
22.3405
 20
71.6009
 30
0.0000
  0
VERTEX
  8
21
 10
22.7027
 20
71.2387
 30
0.0000
  0
SEQEND
  8
0
  0
POLYLINE
  8
21
 66
1
 10
0.0000
 20
0.0000
 30
0.0000
 40
0.1143
 41
0.1143
 70
0
  0
VERTEX
  8
21
 10
22.6623
 20
71.1983
 30
0.0000
 42
1.0000
  0
VERTEX
  8
21
 10
22.7431
 20
71.2791
 30
0.0000
  0
SEQEND
  8
0
  0
POLYLINE
  8
21
 66
1
 10
0.0000
 20
0.0000
 30
0.0000
 40
0.1143
 41
0.1143
 70
0
  0
VERTEX
  8
21
 10
22.3809
 20
71.6413
 30
0.0000
 42
1.0000
  0
VERTEX
  8
21
 10
22.3001
 20
71.5605
 30
0.0000
  0
SEQEND
  8
0
  0
POLYLINE
  8
21
 66
1
 10
0.0000
 20
0.0000
 30
0.0000
 40
0.2286
 41
0.2286
 70
0
  0
VERTEX
  8
21
 10
22.7027
 20
71.2387
 30
0.0000
  0
VERTEX
  8
21
 10
22.7027
 20
70.8765
 30
0.0000
  0
SEQEND
  8
0
  0
POLYLINE
  8
21
 66
1
 10
0.0000
 20
0.0000
 30
0.0000
 40
0.1143
 41
0.1143
 70
0
  0
VERTEX
  8
21
 10
22.6455
 20
70.8765
 30
0.0000
 42
1.0000
  0
VERTEX
  8
21
 10
22.7598
 20
70.8765
 30
0.0000
  0
SEQEND
  8
0
  0
POLYLINE
  8
21
 66
1
 10
0.0000
 20
0.0000
 30
0.0000
 40
0.1143
 41
0.1143
 70
0
  0
VERTEX
  8
21
 10
22.7598
 20
71.2387
 30
0.0000
 42
1.0000
  0
VERTEX
  8
21
 10
22.6455
 20
71.2387
 30
0.0000
  0
SEQEND
  8
0
  0
POLYLINE
  8
21
 66
1
 10
0.0000
 20
0.0000
 30
0.0000
 40
0.2286
 41
0.2286
 70
0
  0
VERTEX
  8
21
 10
22.7027
 20
70.8765
 30
0.0000
  0
VERTEX
  8
21
 10
22.3405
 20
70.5143
 30
0.0000
  0
SEQEND
  8
0
  0
POLYLINE
  8
21
 66
1
 10
0.0000
 20
0.0000
 30
0.0000
 40
0.1143
 41
0.1143
 70
0
  0
VERTEX
  8
21
 10
22.3001
 20
70.5547
 30
0.0000
 42
1.0000
  0
VERTEX
  8
21
 10
22.3809
 20
70.4739
 30
0.0000
  0
SEQEND
  8
0
  0
POLYLINE
  8
21
 66
1
 10
0.0000
 20
0.0000
 30
0.0000
 40
0.1143
 41
0.1143
 70
0
  0
VERTEX
  8
21
 10
22.7431
 20
70.8361
 30
0.0000
 42
1.0000
  0
VERTEX
  8
21
 10
22.6623
 20
70.9169
 30
0.0000
  0
SEQEND
  8
0
  0
POLYLINE
  8
21
 66
1
 10
0.0000
 20
0.0000
 30
0.0000
 40
0.2286
 41
0.2286
 70
0
  0
VERTEX
  8
21
 10
22.3405
 20
70.5143
 30
0.0000
  0
VERTEX
  8
21
 10
21.6161
 20
70.5143
 30
0.0000
  0
SEQEND
  8
0
  0
POLYLINE
  8
21
 66
1
 10
0.0000
 20
0.0000
 30
0.0000
 40
0.1143
 41
0.1143
 70
0
  0
VERTEX
  8
21
 10
21.6161
 20
70.5714
 30
0.0000
 42
1.0000
  0
VERTEX
  8
21
 10
21.6161
 20
70.4572
 30
0.0000
  0
SEQEND
  8
0
  0
POLYLINE
  8
21
 66
1
 10
0.0000
 20
0.0000
 30
0.0000
 40
0.1143
 41
0.1143
 70
0
  0
VERTEX
  8
21
 10
22.3405
 20
70.4572
 30
0.0000
 42
1.0000
  0
VERTEX
  8
21
 10
22.3405
 20
70.5714
 30
0.0000
  0
SEQEND
  8
0
  0
POLYLINE
  8
21
 66
1
 10
0.0000
 20
0.0000
 30
0.0000
 40
0.2286
 41
0.2286
 70
0
  0
VERTEX
  8
21
 10
21.6161
 20
70.5143
 30
0.0000
  0
VERTEX
  8
21
 10
21.2538
 20
70.8765
 30
0.0000
  0
SEQEND
  8
0
  0
POLYLINE
  8
21
 66
1
 10
0.0000
 20
0.0000
 30
0.0000
 40
0.1143
 41
0.1143
 70
0
  0
VERTEX
  8
21
 10
21.2943
 20
70.9169
 30
0.0000
 42
1.0000
  0
VERTEX
  8
21
 10
21.2134
 20
70.8361
 30
0.0000
  0
SEQEND
  8
0
  0
POLYLINE
  8
21
 66
1
 10
0.0000
 20
0.0000
 30
0.0000
 40
0.1143
 41
0.1143
 70
0
  0
VERTEX
  8
21
 10
21.5756
 20
70.4739
 30
0.0000
 42
1.0000
  0
VERTEX
  8
21
 10
21.6565
 20
70.5547
 30
0.0000
  0
SEQEND
  8
0
  0
POLYLINE
  8
21
 66
1
 10
0.0000
 20
0.0000
 30
0.0000
 40
0.2286
 41
0.2286
 70
0
  0
VERTEX
  8
21
 10
26.7603
 20
70.5143
 30
0.0000
  0
VERTEX
  8
21
 10
26.7603
 20
72.6876
 30
0.0000
  0
SEQEND
  8
0
  0
POLYLINE
  8
21
 66
1
 10
0.0000
 20
0.0000
 30
0.0000
 40
0.1143
 41
0.1143
 70
0
  0
VERTEX
  8
21
 10
26.8174
 20
72.6876
 30
0.0000
 42
1.0000
  0
VERTEX
  8
21
 10
26.7031
 20
72.6876
 30
0.0000
  0
SEQEND
  8
0
  0
POLYLINE
  8
21
 66
1
 10
0.0000
 20
0.0000
 30
0.0000
 40
0.1143
 41
0.1143
 70
0
  0
VERTEX
  8
21
 10
26.7031
 20
70.5143
 30
0.0000
 42
1.0000
  0
VERTEX
  8
21
 10
26.8174
 20
70.5143
 30
0.0000
  0
SEQEND
  8
0
  0
POLYLINE
  8
21
 66
1
 10
0.0000
 20
0.0000
 30
0.0000
 40
0.2286
 41
0.2286
 70
0
  0
VERTEX
  8
21
 10
26.7603
 20
72.6876
 30
0.0000
  0
VERTEX
  8
21
 10
25.6736
 20
71.6009
 30
0.0000
  0
SEQEND
  8
0
  0
POLYLINE
  8
21
 66
1
 10
0.0000
 20
0.0000
 30
0.0000
 40
0.1143
 41
0.1143
 70
0
  0
VERTEX
  8
21
 10
25.6332
 20
71.6413
 30
0.0000
 42
1.0000
  0
VERTEX
  8
21
 10
25.7140
 20
71.5605
 30
0.0000
  0
SEQEND
  8
0
  0
POLYLINE
  8
21
 66
1
 10
0.0000
 20
0.0000
 30
0.0000
 40
0.1143
 41
0.1143
 70
0
  0
VERTEX
  8
21
 10
26.8007
 20
72.6471
 30
0.0000
 42
1.0000
  0
VERTEX
  8
21
 10
26.7198
 20
72.7280
 30
0.0000
  0
SEQEND
  8
0
  0
POLYLINE
  8
21
 66
1
 10
0.0000
 20
0.0000
 30
0.0000
 40
0.2286
 41
0.2286
 70
0
  0
VERTEX
  8
21
 10
25.6736
 20
71.6009
 30
0.0000
  0
VERTEX
  8
21
 10
27.1225
 20
71.6009
 30
0.0000
  0
SEQEND
  8
0
  0
POLYLINE
  8
21
 66
1
 10
0.0000
 20
0.0000
 30
0.0000
 40
0.1143
 41
0.1143
 70
0
  0
VERTEX
  8
21
 10
27.1225
 20
71.5438
 30
0.0000
 42
1.0000
  0
VERTEX
  8
21
 10
27.1225
 20
71.6581
 30
0.0000
  0
SEQEND
  8
0
  0
POLYLINE
  8
21
 66
1
 10
0.0000
 20
0.0000
 30
0.0000
 40
0.1143
 41
0.1143
 70
0
  0
VERTEX
  8
21
 10
25.6736
 20
71.6581
 30
0.0000
 42
1.0000
  0
VERTEX
  8
21
 10
25.6736
 20
71.5438
 30
0.0000
  0
SEQEND
  8
0
  0
POLYLINE
  8
21
 66
1
 10
0.0000
 20
0.0000
 30
0.0000
 40
0.2286
 41
0.2286
 70
0
  0
VERTEX
  8
21
 10
31.5422
 20
72.6876
 30
0.0000
  0
VERTEX
  8
21
 10
30.0934
 20
72.6876
 30
0.0000
  0
SEQEND
  8
0
  0
POLYLINE
  8
21
 66
1
 10
0.0000
 20
0.0000
 30
0.0000
 40
0.1143
 41
0.1143
 70
0
  0
VERTEX
  8
21
 10
30.0934
 20
72.7447
 30
0.0000
 42
1.0000
  0
VERTEX
  8
21
 10
30.0934
 20
72.6304
 30
0.0000
  0
SEQEND
  8
0
  0
POLYLINE
  8
21
 66
1
 10
0.0000
 20
0.0000
 30
0.0000
 40
0.1143
 41
0.1143
 70
0
  0
VERTEX
  8
21
 10
31.5422
 20
72.6304
 30
0.0000
 42
1.0000
  0
VERTEX
  8
21
 10
31.5422
 20
72.7447
 30
0.0000
  0
SEQEND
  8
0
  0
POLYLINE
  8
21
 66
1
 10
0.0000
 20
0.0000
 30
0.0000
 40
0.2286
 41
0.2286
 70
0
  0
VERTEX
  8
21
 10
30.0934
 20
72.6876
 30
0.0000
  0
VERTEX
  8
21
 10
30.0934
 20
71.6009
 30
0.0000
  0
SEQEND
  8
0
  0
POLYLINE
  8
21
 66
1
 10
0.0000
 20
0.0000
 30
0.0000
 40
0.1143
 41
0.1143
 70
0
  0
VERTEX
  8
21
 10
30.0363
 20
71.6009
 30
0.0000
 42
1.0000
  0
VERTEX
  8
21
 10
30.1506
 20
71.6009
 30
0.0000
  0
SEQEND
  8
0
  0
POLYLINE
  8
21
 66
1
 10
0.0000
 20
0.0000
 30
0.0000
 40
0.1143
 41
0.1143
 70
0
  0
VERTEX
  8
21
 10
30.1506
 20
72.6876
 30
0.0000
 42
1.0000
  0
VERTEX
  8
21
 10
30.0363
 20
72.6876
 30
0.0000
  0
SEQEND
  8
0
  0
POLYLINE
  8
21
 66
1
 10
0.0000
 20
0.0000
 30
0.0000
 40
0.2286
 41
0.2286
 70
0
  0
VERTEX
  8
21
 10
30.0934
 20
71.6009
 30
0.0000
  0
VERTEX
  8
21
 10
30.8178
 20
71.9631
 30
0.0000
  0
SEQEND
  8
0
  0
POLYLINE
  8
21
 66
1
 10
0.0000
 20
0.0000
 30
0.0000
 40
0.1143
 41
0.1143
 70
0
  0
VERTEX
  8
21
 10
30.8434
 20
71.9120
 30
0.0000
 42
1.0000
  0
VERTEX
  8
21
 10
30.7923
 20
72.0143
 30
0.0000
  0
SEQEND
  8
0
  0
POLYLINE
  8
21
 66
1
 10
0.0000
 20
0.0000
 30
0.0000
 40
0.1143
 41
0.1143
 70
0
  0
VERTEX
  8
21
 10
30.0678
 20
71.6520
 30
0.0000
 42
1.0000
  0
VERTEX
  8
21
 10
30.1190
 20
71.5498
 30
0.0000
  0
SEQEND
  8
0
  0
POLYLINE
  8
21
 66
1
 10
0.0000
 20
0.0000
 30
0.0000
 40
0.2286
 41
0.2286
 70
0
  0
VERTEX
  8
21
 10
30.8178
 20
71.9631
 30
0.0000
  0
VERTEX
  8
21
 10
31.1800
 20
71.9631
 30
0.0000
  0
SEQEND
  8
0
  0
POLYLINE
  8
21
 66
1
 10
0.0000
 20
0.0000
 30
0.0000
 40
0.1143
 41
0.1143
 70
0
  0
VERTEX
  8
21
 10
31.1800
 20
71.9060
 30
0.0000
 42
1.0000
  0
VERTEX
  8
21
 10
31.1800
 20
72.0203
 30
0.0000
  0
SEQEND
  8
0
  0
POLYLINE
  8
21
 66
1
 10
0.0000
 20
0.0000
 30
0.0000
 40
0.1143
 41
0.1143
 70
0
  0
VERTEX
  8
21
 10
30.8178
 20
72.0203
 30
0.0000
 42
1.0000
  0
VERTEX
  8
21
 10
30.8178
 20
71.9060
 30
0.0000
  0
SEQEND
  8
0
  0
POLYLINE
  8
21
 66
1
 10
0.0000
 20
0.0000
 30
0.0000
 40
0.2286
 41
0.2286
 70
0
  0
VERTEX
  8
21
 10
31.1800
 20
71.9631
 30
0.0000
  0
VERTEX
  8
21
 10
31.5422
 20
71.6009
 30
0.0000
  0
SEQEND
  8
0
  0
POLYLINE
  8
21
 66
1
 10
0.0000
 20
0.0000
 30
0.0000
 40
0.1143
 41
0.1143
 70
0
  0
VERTEX
  8
21
 10
31.5018
 20
71.5605
 30
0.0000
 42
1.0000
  0
VERTEX
  8
21
 10
31.5826
 20
71.6413
 30
0.0000
  0
SEQEND
  8
0
  0
POLYLINE
  8
21
 66
1
 10
0.0000
 20
0.0000
 30
0.0000
 40
0.1143
 41
0.1143
 70
0
  0
VERTEX
  8
21
 10
31.2204
 20
72.0035
 30
0.0000
 42
1.0000
  0
VERTEX
  8
21
 10
31.1396
 20
71.9227
 30
0.0000
  0
SEQEND
  8
0
  0
POLYLINE
  8
21
 66
1
 10
0.0000
 20
0.0000
 30
0.0000
 40
0.2286
 41
0.2286
 70
0
  0
VERTEX
  8
21
 10
31.5422
 20
71.6009
 30
0.0000
  0
VERTEX
  8
21
 10
31.5422
 20
70.8765
 30
0.0000
  0
SEQEND
  8
0
  0
POLYLINE
  8
21
 66
1
 10
0.0000
 20
0.0000
 30
0.0000
 40
0.1143
 41
0.1143
 70
0
  0
VERTEX
  8
21
 10
31.4851
 20
70.8765
 30
0.0000
 42
1.0000
  0
VERTEX
  8
21
 10
31.5994
 20
70.8765
 30
0.0000
  0
SEQEND
  8
0
  0
POLYLINE
  8
21
 66
1
 10
0.0000
 20
0.0000
 30
0.0000
 40
0.1143
 41
0.1143
 70
0
  0
VERTEX
  8
21
 10
31.5994
 20
71.6009
 30
0.0000
 42
1.0000
  0
VERTEX
  8
21
 10
31.4851
 20
71.6009
 30
0.0000
  0
SEQEND
  8
0
  0
POLYLINE
  8
21
 66
1
 10
0.0000
 20
0.0000
 30
0.0000
 40
0.2286
 41
0.2286
 70
0
  0
VERTEX
  8
21
 10
31.5422
 20
70.8765
 30
0.0000
  0
VERTEX
  8
21
 10
31.1800
 20
70.5143
 30
0.0000
  0
SEQEND
  8
0
  0
POLYLINE
  8
21
 66
1
 10
0.0000
 20
0.0000
 30
0.0000
 40
0.1143
 41
0.1143
 70
0
  0
VERTEX
  8
21
 10
31.1396
 20
70.5547
 30
0.0000
 42
1.0000
  0
VERTEX
  8
21
 10
31.2204
 20
70.4739
 30
0.0000
  0
SEQEND
  8
0
  0
POLYLINE
  8
21
 66
1
 10
0.0000
 20
0.0000
 30
0.0000
 40
0.1143
 41
0.1143
 70
0
  0
VERTEX
  8
21
 10
31.5826
 20
70.8361
 30
0.0000
 42
1.0000
  0
VERTEX
  8
21
 10
31.5018
 20
70.9169
 30
0.0000
  0
SEQEND
  8
0
  0
POLYLINE
  8
21
 66
1
 10
0.0000
 20
0.0000
 30
0.0000
 40
0.2286
 41
0.2286
 70
0
  0
VERTEX
  8
21
 10
31.1800
 20
70.5143
 30
0.0000
  0
VERTEX
  8
21
 10
30.4556
 20
70.5143
 30
0.0000
  0
SEQEND
  8
0
  0
POLYLINE
  8
21
 66
1
 10
0.0000
 20
0.0000
 30
0.0000
 40
0.1143
 41
0.1143
 70
0
  0
VERTEX
  8
21
 10
30.4556
 20
70.5714
 30
0.0000
 42
1.0000
  0
VERTEX
  8
21
 10
30.4556
 20
70.4572
 30
0.0000
  0
SEQEND
  8
0
  0
POLYLINE
  8
21
 66
1
 10
0.0000
 20
0.0000
 30
0.0000
 40
0.1143
 41
0.1143
 70
0
  0
VERTEX
  8
21
 10
31.1800
 20
70.4572
 30
0.0000
 42
1.0000
  0
VERTEX
  8
21
 10
31.1800
 20
70.5714
 30
0.0000
  0
SEQEND
  8
0
  0
POLYLINE
  8
21
 66
1
 10
0.0000
 20
0.0000
 30
0.0000
 40
0.2286
 41
0.2286
 70
0
  0
VERTEX
  8
21
 10
30.4556
 20
70.5143
 30
0.0000
  0
VERTEX
  8
21
 10
30.0934
 20
70.8765
 30
0.0000
  0
SEQEND
  8
0
  0
POLYLINE
  8
21
 66
1
 10
0.0000
 20
0.0000
 30
0.0000
 40
0.1143
 41
0.1143
 70
0
  0
VERTEX
  8
21
 10
30.1338
 20
70.9169
 30
0.0000
 42
1.0000
  0
VERTEX
  8
21
 10
30.0530
 20
70.8361
 30
0.0000
  0
SEQEND
  8
0
  0
POLYLINE
  8
21
 66
1
 10
0.0000
 20
0.0000
 30
0.0000
 40
0.1143
 41
0.1143
 70
0
  0
VERTEX
  8
21
 10
30.4152
 20
70.4739
 30
0.0000
 42
1.0000
  0
VERTEX
  8
21
 10
30.4960
 20
70.5547
 30
0.0000
  0
SEQEND
  8
0
  0
POLYLINE
  8
21
 66
1
 10
0.0000
 20
0.0000
 30
0.0000
 40
0.2286
 41
0.2286
 70
0
  0
VERTEX
  8
21
 10
35.9620
 20
72.6876
 30
0.0000
  0
VERTEX
  8
21
 10
35.2376
 20
72.3253
 30
0.0000
  0
SEQEND
  8
0
  0
POLYLINE
  8
21
 66
1
 10
0.0000
 20
0.0000
 30
0.0000
 40
0.1143
 41
0.1143
 70
0
  0
VERTEX
  8
21
 10
35.2120
 20
72.3765
 30
0.0000
 42
1.0000
  0
VERTEX
  8
21
 10
35.2632
 20
72.2742
 30
0.0000
  0
SEQEND
  8
0
  0
POLYLINE
  8
21
 66
1
 10
0.0000
 20
0.0000
 30
0.0000
 40
0.1143
 41
0.1143
 70
0
  0
VERTEX
  8
21
 10
35.9876
 20
72.6364
 30
0.0000
 42
1.0000
  0
VERTEX
  8
21
 10
35.9365
 20
72.7387
 30
0.0000
  0
SEQEND
  8
0
  0
POLYLINE
  8
21
 66
1
 10
0.0000
 20
0.0000
 30
0.0000
 40
0.2286
 41
0.2286
 70
0
  0
VERTEX
  8
21
 10
35.2376
 20
72.3253
 30
0.0000
  0
VERTEX
  8
21
 10
34.5132
 20
71.6009
 30
0.0000
  0
SEQEND
  8
0
  0
POLYLINE
  8
21
 66
1
 10
0.0000
 20
0.0000
 30
0.0000
 40
0.1143
 41
0.1143
 70
0
  0
VERTEX
  8
21
 10
34.4728
 20
71.6413
 30
0.0000
 42
1.0000
  0
VERTEX
  8
21
 10
34.5536
 20
71.5605
 30
0.0000
  0
SEQEND
  8
0
  0
POLYLINE
  8
21
 66
1
 10
0.0000
 20
0.0000
 30
0.0000
 40
0.1143
 41
0.1143
 70
0
  0
VERTEX
  8
21
 10
35.2780
 20
72.2849
 30
0.0000
 42
1.0000
  0
VERTEX
  8
21
 10
35.1972
 20
72.3658
 30
0.0000
  0
SEQEND
  8
0
  0
POLYLINE
  8
21
 66
1
 10
0.0000
 20
0.0000
 30
0.0000
 40
0.2286
 41
0.2286
 70
0
  0
VERTEX
  8
21
 10
34.5132
 20
71.6009
 30
0.0000
  0
VERTEX
  8
21
 10
34.5132
 20
70.8765
 30
0.0000
  0
SEQEND
  8
0
  0
POLYLINE
  8
21
 66
1
 10
0.0000
 20
0.0000
 30
0.0000
 40
0.1143
 41
0.1143
 70
0
  0
VERTEX
  8
21
 10
34.4560
 20
70.8765
 30
0.0000
 42
1.0000
  0
VERTEX
  8
21
 10
34.5703
 20
70.8765
 30
0.0000
  0
SEQEND
  8
0
  0
POLYLINE
  8
21
 66
1
 10
0.0000
 20
0.0000
 30
0.0000
 40
0.1143
 41
0.1143
 70
0
  0
VERTEX
  8
21
 10
34.5703
 20
71.6009
 30
0.0000
 42
1.0000
  0
VERTEX
  8
21
 10
34.4560
 20
71.6009
 30
0.0000
  0
SEQEND
  8
0
  0
POLYLINE
  8
21
 66
1
 10
0.0000
 20
0.0000
 30
0.0000
 40
0.2286
 41
0.2286
 70
0
  0
VERTEX
  8
21
 10
34.5132
 20
70.8765
 30
0.0000
  0
VERTEX
  8
21
 10
34.8754
 20
70.5143
 30
0.0000
  0
SEQEND
  8
0
  0
POLYLINE
  8
21
 66
1
 10
0.0000
 20
0.0000
 30
0.0000
 40
0.1143
 41
0.1143
 70
0
  0
VERTEX
  8
21
 10
34.8350
 20
70.4739
 30
0.0000
 42
1.0000
  0
VERTEX
  8
21
 10
34.9158
 20
70.5547
 30
0.0000
  0
SEQEND
  8
0
  0
POLYLINE
  8
21
 66
1
 10
0.0000
 20
0.0000
 30
0.0000
 40
0.1143
 41
0.1143
 70
0
  0
VERTEX
  8
21
 10
34.5536
 20
70.9169
 30
0.0000
 42
1.0000
  0
VERTEX
  8
21
 10
34.4728
 20
70.8361
 30
0.0000
  0
SEQEND
  8
0
  0
POLYLINE
  8
21
 66
1
 10
0.0000
 20
0.0000
 30
0.0000
 40
0.2286
 41
0.2286
 70
0
  0
VERTEX
  8
21
 10
34.8754
 20
70.5143
 30
0.0000
  0
VERTEX
  8
21
 10
35.5998
 20
70.5143
 30
0.0000
  0
SEQEND
  8
0
  0
POLYLINE
  8
21
 66
1
 10
0.0000
 20
0.0000
 30
0.0000
 40
0.1143
 41
0.1143
 70
0
  0
VERTEX
  8
21
 10
35.5998
 20
70.4572
 30
0.0000
 42
1.0000
  0
VERTEX
  8
21
 10
35.5998
 20
70.5714
 30
0.0000
  0
SEQEND
  8
0
  0
POLYLINE
  8
21
 66
1
 10
0.0000
 20
0.0000
 30
0.0000
 40
0.1143
 41
0.1143
 70
0
  0
VERTEX
  8
21
 10
34.8754
 20
70.5714
 30
0.0000
 42
1.0000
  0
VERTEX
  8
21
 10
34.8754
 20
70.4572
 30
0.0000
  0
SEQEND
  8
0
  0
POLYLINE
  8
21
 66
1
 10
0.0000
 20
0.0000
 30
0.0000
 40
0.2286
 41
0.2286
 70
0
  0
VERTEX
  8
21
 10
35.5998
 20
70.5143
 30
0.0000
  0
VERTEX
  8
21
 10
35.9620
 20
70.8765
 30
0.0000
  0
SEQEND
  8
0
  0
POLYLINE
  8
21
 66
1
 10
0.0000
 20
0.0000
 30
0.0000
 40
0.1143
 41
0.1143
 70
0
  0
VERTEX
  8
21
 10
36.0024
 20
70.8361
 30
0.0000
 42
1.0000
  0
VERTEX
  8
21
 10
35.9216
 20
70.9169
 30
0.0000
  0
SEQEND
  8
0
  0
POLYLINE
  8
21
 66
1
 10
0.0000
 20
0.0000
 30
0.0000
 40
0.1143
 41
0.1143
 70
0
  0
VERTEX
  8
21
 10
35.5594
 20
70.5547
 30
0.0000
 42
1.0000
  0
VERTEX
  8
21
 10
35.6402
 20
70.4739
 30
0.0000
  0
SEQEND
  8
0
  0
POLYLINE
  8
21
 66
1
 10
0.0000
 20
0.0000
 30
0.0000
 40
0.2286
 41
0.2286
 70
0
  0
VERTEX
  8
21
 10
35.9620
 20
70.8765
 30
0.0000
  0
VERTEX
  8
21
 10
35.9620
 20
71.2387
 30
0.0000
  0
SEQEND
  8
0
  0
POLYLINE
  8
21
 66
1
 10
0.0000
 20
0.0000
 30
0.0000
 40
0.1143
 41
0.1143
 70
0
  0
VERTEX
  8
21
 10
36.0192
 20
71.2387
 30
0.0000
 42
1.0000
  0
VERTEX
  8
21
 10
35.9049
 20
71.2387
 30
0.0000
  0
SEQEND
  8
0
  0
POLYLINE
  8
21
 66
1
 10
0.0000
 20
0.0000
 30
0.0000
 40
0.1143
 41
0.1143
 70
0
  0
VERTEX
  8
21
 10
35.9049
 20
70.8765
 30
0.0000
 42
1.0000
  0
VERTEX
  8
21
 10
36.0192
 20
70.8765
 30
0.0000
  0
SEQEND
  8
0
  0
POLYLINE
  8
21
 66
1
 10
0.0000
 20
0.0000
 30
0.0000
 40
0.2286
 41
0.2286
 70
0
  0
VERTEX
  8
21
 10
35.9620
 20
71.2387
 30
0.0000
  0
VERTEX
  8
21
 10
35.5998
 20
71.6009
 30
0.0000
  0
SEQEND
  8
0
  0
POLYLINE
  8
21
 66
1
 10
0.0000
 20
0.0000
 30
0.0000
 40
0.1143
 41
0.1143
 70
0
  0
VERTEX
  8
21
 10
35.6402
 20
71.6413
 30
0.0000
 42
1.0000
  0
VERTEX
  8
21
 10
35.5594
 20
71.5605
 30
0.0000
  0
SEQEND
  8
0
  0
POLYLINE
  8
21
 66
1
 10
0.0000
 20
0.0000
 30
0.0000
 40
0.1143
 41
0.1143
 70
0
  0
VERTEX
  8
21
 10
35.9216
 20
71.1983
 30
0.0000
 42
1.0000
  0
VERTEX
  8
21
 10
36.0024
 20
71.2791
 30
0.0000
  0
SEQEND
  8
0
  0
POLYLINE
  8
21
 66
1
 10
0.0000
 20
0.0000
 30
0.0000
 40
0.2286
 41
0.2286
 70
0
  0
VERTEX
  8
21
 10
35.5998
 20
71.6009
 30
0.0000
  0
VERTEX
  8
21
 10
34.5132
 20
71.6009
 30
0.0000
  0
SEQEND
  8
0
  0
POLYLINE
  8
21
 66
1
 10
0.0000
 20
0.0000
 30
0.0000
 40
0.1143
 41
0.1143
 70
0
  0
VERTEX
  8
21
 10
34.5132
 20
71.6581
 30
0.0000
 42
1.0000
  0
VERTEX
  8
21
 10
34.5132
 20
71.5438
 30
0.0000
  0
SEQEND
  8
0
  0
POLYLINE
  8
21
 66
1
 10
0.0000
 20
0.0000
 30
0.0000
 40
0.1143
 41
0.1143
 70
0
  0
VERTEX
  8
21
 10
35.5998
 20
71.5438
 30
0.0000
 42
1.0000
  0
VERTEX
  8
21
 10
35.5998
 20
71.6581
 30
0.0000
  0
SEQEND
  8
0
  0
TEXT
  7
ISOCP
  8
21
 10
38.5000
 20
63.1000
 30
0.0000
 40
2.5000
  1
reset
  0
TEXT
  7
ISOCP
  8
21
 10
86.5000
 20
15.1000
 30
0.0000
 40
2.5000
  1
USB
  0
TEXT
  7
ISOCP
  8
21
 10
14.9000
 20
24.7000
 30
0.0000
 40
2.5000
  1
4.5kW
  0
TEXT
  7
ISOCP
  8
21
 10
40.0000
 20
22.0000
 30
0.0000
 40
2.5000
  1
23kW MAX
  0
TEXT
  7
ISOCP
  8
21
 10
16.0000
 20
21.0000
 30
0.0000
 40
2.5000
  1
MAX
  0
TEXT
  7
ISOCP
  8
21
 10
56.9000
 20
72.7000
 30
0.0000
 40
2.5000
  1
UART
  0
TEXT
  7
ISOCP
  8
21
 10
29.1000
 20
57.6000
 30
0.0000
 40
3.0000
  1
OpenEnergyMonitor.org
  0
TEXT
  7
ISOCP
  8
21
 10
12.0000
 20
77.4000
 30
0.0000
 40
3.7000
  1
emonTx v3
  0
TEXT
  7
ISOCP
  8
21
 10
70.5000
 20
72.9000
 30
0.0000
 40
2.0000
  1
GND
 50
90.0000
 72
2
 73
3
 11
70.5000
 21
72.9000
 31
0.0000
  0
TEXT
  7
ISOCP
  8
21
 10
88.3000
 20
4.3000
 30
0.0000
 40
2.5000
  1
DC
  0
TEXT
  7
ISOCP
  8
21
 10
88.1000
 20
18.9000
 30
0.0000
 40
2.5000
  1
5V
  0
CIRCLE
  8
20
 10
6.0000
 20
26.2000
 30
0.0000
 40
1.8500
  0
CIRCLE
  8
20
 10
102.5000
 20
26.2000
 30
0.0000
 40
1.8500
  0
CIRCLE
  8
20
 10
6.0000
 20
4.7000
 30
0.0000
 40
1.8500
  0
CIRCLE
  8
20
 10
102.5000
 20
4.7000
 30
0.0000
 40
1.8500
  0
CIRCLE
  8
20
 10
36.7000
 20
15.9000
 30
0.0000
 40
3.6000
  0
CIRCLE
  8
20
 10
50.1000
 20
15.9000
 30
0.0000
 40
3.6000
  0
CIRCLE
  8
20
 10
63.2000
 20
15.9000
 30
0.0000
 40
3.6000
  0
CIRCLE
  8
20
 10
18.9000
 20
16.0000
 30
0.0000
 40
3.6000
  0
CIRCLE
  8
20
 10
6.0000
 20
80.6000
 30
0.0000
 40
1.8500
  0
CIRCLE
  8
20
 10
102.5000
 20
80.6000
 30
0.0000
 40
1.8500
  0
CIRCLE
  8
20
 10
6.0000
 20
59.1000
 30
0.0000
 40
1.8500
  0
CIRCLE
  8
20
 10
102.5000
 20
59.2000
 30
0.0000
 40
1.8500
  0
CIRCLE
  8
20
 10
42.3000
 20
67.8000
 30
0.0000
 40
1.5000
  0
ENDSEC
  0
EOF
