G04 EAGLE Gerber RS-274X export*
G75*
%MOMM*%
%FSLAX34Y34*%
%LPD*%
%INSilkscreen Top*%
%IPPOS*%
%AMOC8*
5,1,8,0,0,1.08239X$1,22.5*%
G01*
%ADD10C,0.127000*%
%ADD11C,0.304800*%
%ADD12C,0.152400*%
%ADD13C,0.076200*%
%ADD14C,0.203200*%
%ADD15C,0.254000*%
%ADD16C,0.177800*%
%ADD17R,0.381000X0.508000*%
%ADD18C,0.101600*%
%ADD19R,0.762000X10.668000*%
%ADD20R,0.508000X1.905000*%
%ADD21R,0.508000X0.762000*%
%ADD22R,0.150000X0.300000*%
%ADD23R,0.300000X0.300000*%
%ADD24C,0.100000*%
%ADD25C,0.050800*%
%ADD26R,1.500000X1.500000*%
%ADD27R,0.800000X0.200000*%
%ADD28R,0.200000X0.800000*%

G36*
X720092Y493059D02*
X720092Y493059D01*
X720135Y493061D01*
X720158Y493078D01*
X720185Y493086D01*
X720214Y493118D01*
X720249Y493144D01*
X720260Y493170D01*
X720279Y493191D01*
X720286Y493234D01*
X720302Y493275D01*
X720297Y493302D01*
X720301Y493331D01*
X720284Y493371D01*
X720277Y493413D01*
X720251Y493448D01*
X720246Y493460D01*
X720239Y493465D01*
X720229Y493479D01*
X717729Y495979D01*
X717715Y495987D01*
X717706Y495999D01*
X717654Y496020D01*
X717606Y496047D01*
X717590Y496046D01*
X717575Y496052D01*
X717521Y496042D01*
X717465Y496039D01*
X717452Y496029D01*
X717437Y496027D01*
X717371Y495979D01*
X714871Y493479D01*
X714850Y493441D01*
X714821Y493409D01*
X714817Y493380D01*
X714803Y493356D01*
X714806Y493312D01*
X714799Y493269D01*
X714810Y493243D01*
X714811Y493215D01*
X714837Y493180D01*
X714854Y493140D01*
X714877Y493124D01*
X714894Y493101D01*
X714934Y493084D01*
X714970Y493060D01*
X715013Y493053D01*
X715025Y493048D01*
X715033Y493050D01*
X715050Y493047D01*
X720050Y493047D01*
X720092Y493059D01*
G37*
G36*
X707392Y493059D02*
X707392Y493059D01*
X707435Y493061D01*
X707458Y493078D01*
X707485Y493086D01*
X707514Y493118D01*
X707549Y493144D01*
X707560Y493170D01*
X707579Y493191D01*
X707586Y493234D01*
X707602Y493275D01*
X707597Y493302D01*
X707601Y493331D01*
X707584Y493371D01*
X707577Y493413D01*
X707551Y493448D01*
X707546Y493460D01*
X707539Y493465D01*
X707529Y493479D01*
X705029Y495979D01*
X705015Y495987D01*
X705006Y495999D01*
X704954Y496020D01*
X704906Y496047D01*
X704890Y496046D01*
X704875Y496052D01*
X704821Y496042D01*
X704765Y496039D01*
X704752Y496029D01*
X704737Y496027D01*
X704671Y495979D01*
X702171Y493479D01*
X702150Y493441D01*
X702121Y493409D01*
X702117Y493380D01*
X702103Y493356D01*
X702106Y493312D01*
X702099Y493269D01*
X702110Y493243D01*
X702111Y493215D01*
X702137Y493180D01*
X702154Y493140D01*
X702177Y493124D01*
X702194Y493101D01*
X702234Y493084D01*
X702270Y493060D01*
X702313Y493053D01*
X702325Y493048D01*
X702333Y493050D01*
X702350Y493047D01*
X707350Y493047D01*
X707392Y493059D01*
G37*
G36*
X694692Y493059D02*
X694692Y493059D01*
X694735Y493061D01*
X694758Y493078D01*
X694785Y493086D01*
X694814Y493118D01*
X694849Y493144D01*
X694860Y493170D01*
X694879Y493191D01*
X694886Y493234D01*
X694902Y493275D01*
X694897Y493302D01*
X694901Y493331D01*
X694884Y493371D01*
X694877Y493413D01*
X694851Y493448D01*
X694846Y493460D01*
X694839Y493465D01*
X694829Y493479D01*
X692329Y495979D01*
X692315Y495987D01*
X692306Y495999D01*
X692254Y496020D01*
X692206Y496047D01*
X692190Y496046D01*
X692175Y496052D01*
X692121Y496042D01*
X692065Y496039D01*
X692052Y496029D01*
X692037Y496027D01*
X691971Y495979D01*
X689471Y493479D01*
X689450Y493441D01*
X689421Y493409D01*
X689417Y493380D01*
X689403Y493356D01*
X689406Y493312D01*
X689399Y493269D01*
X689410Y493243D01*
X689411Y493215D01*
X689437Y493180D01*
X689454Y493140D01*
X689477Y493124D01*
X689494Y493101D01*
X689534Y493084D01*
X689570Y493060D01*
X689613Y493053D01*
X689625Y493048D01*
X689633Y493050D01*
X689650Y493047D01*
X694650Y493047D01*
X694692Y493059D01*
G37*
G36*
X681992Y493059D02*
X681992Y493059D01*
X682035Y493061D01*
X682058Y493078D01*
X682085Y493086D01*
X682114Y493118D01*
X682149Y493144D01*
X682160Y493170D01*
X682179Y493191D01*
X682186Y493234D01*
X682202Y493275D01*
X682197Y493302D01*
X682201Y493331D01*
X682184Y493371D01*
X682177Y493413D01*
X682151Y493448D01*
X682146Y493460D01*
X682139Y493465D01*
X682129Y493479D01*
X679629Y495979D01*
X679615Y495987D01*
X679606Y495999D01*
X679554Y496020D01*
X679506Y496047D01*
X679490Y496046D01*
X679475Y496052D01*
X679421Y496042D01*
X679365Y496039D01*
X679352Y496029D01*
X679337Y496027D01*
X679271Y495979D01*
X676771Y493479D01*
X676750Y493441D01*
X676721Y493409D01*
X676717Y493380D01*
X676703Y493356D01*
X676706Y493312D01*
X676699Y493269D01*
X676710Y493243D01*
X676711Y493215D01*
X676737Y493180D01*
X676754Y493140D01*
X676777Y493124D01*
X676794Y493101D01*
X676834Y493084D01*
X676870Y493060D01*
X676913Y493053D01*
X676925Y493048D01*
X676933Y493050D01*
X676950Y493047D01*
X681950Y493047D01*
X681992Y493059D01*
G37*
G36*
X814857Y486210D02*
X814857Y486210D01*
X814885Y486211D01*
X814920Y486237D01*
X814960Y486254D01*
X814976Y486277D01*
X814999Y486294D01*
X815016Y486334D01*
X815040Y486370D01*
X815047Y486413D01*
X815052Y486425D01*
X815050Y486433D01*
X815053Y486450D01*
X815053Y491450D01*
X815041Y491492D01*
X815039Y491535D01*
X815022Y491558D01*
X815014Y491585D01*
X814982Y491614D01*
X814956Y491649D01*
X814930Y491660D01*
X814909Y491679D01*
X814866Y491686D01*
X814825Y491702D01*
X814798Y491697D01*
X814769Y491701D01*
X814729Y491684D01*
X814687Y491677D01*
X814652Y491651D01*
X814640Y491646D01*
X814635Y491639D01*
X814621Y491629D01*
X812121Y489129D01*
X812113Y489115D01*
X812101Y489106D01*
X812080Y489054D01*
X812053Y489006D01*
X812054Y488990D01*
X812048Y488975D01*
X812058Y488921D01*
X812061Y488865D01*
X812071Y488852D01*
X812073Y488837D01*
X812121Y488771D01*
X814621Y486271D01*
X814659Y486250D01*
X814691Y486221D01*
X814720Y486217D01*
X814744Y486203D01*
X814788Y486206D01*
X814831Y486199D01*
X814857Y486210D01*
G37*
D10*
X636905Y450236D02*
X636905Y445999D01*
X639023Y443881D01*
X641142Y445999D01*
X641142Y450236D01*
X643921Y449177D02*
X644981Y450236D01*
X647099Y450236D01*
X648158Y449177D01*
X648158Y448118D01*
X647099Y447059D01*
X646040Y447059D01*
X647099Y447059D02*
X648158Y445999D01*
X648158Y444940D01*
X647099Y443881D01*
X644981Y443881D01*
X643921Y444940D01*
X650938Y444940D02*
X650938Y443881D01*
X650938Y444940D02*
X651997Y444940D01*
X651997Y443881D01*
X650938Y443881D01*
X657624Y443881D02*
X657624Y450236D01*
X654446Y447059D01*
X658683Y447059D01*
X661462Y444940D02*
X661462Y443881D01*
X661462Y444940D02*
X662522Y444940D01*
X662522Y443881D01*
X661462Y443881D01*
X664971Y450236D02*
X669207Y450236D01*
X664971Y450236D02*
X664971Y447059D01*
X667089Y448118D01*
X668148Y448118D01*
X669207Y447059D01*
X669207Y444940D01*
X668148Y443881D01*
X666030Y443881D01*
X664971Y444940D01*
D11*
X645167Y460010D02*
X639405Y460010D01*
X636524Y462891D01*
X636524Y468653D01*
X639405Y471535D01*
X645167Y471535D01*
X648049Y468653D01*
X648049Y465772D01*
X636524Y465772D01*
X655234Y460010D02*
X655234Y471535D01*
X658116Y471535D01*
X660997Y468653D01*
X660997Y460010D01*
X660997Y468653D02*
X663878Y471535D01*
X666759Y468653D01*
X666759Y460010D01*
X676826Y460010D02*
X682588Y460010D01*
X685469Y462891D01*
X685469Y468653D01*
X682588Y471535D01*
X676826Y471535D01*
X673945Y468653D01*
X673945Y462891D01*
X676826Y460010D01*
X692655Y460010D02*
X692655Y471535D01*
X701299Y471535D01*
X704180Y468653D01*
X704180Y460010D01*
X717128Y460010D02*
X717128Y477297D01*
X711366Y477297D02*
X722890Y477297D01*
X730076Y471535D02*
X741600Y460010D01*
X730076Y460010D02*
X741600Y471535D01*
D12*
X104895Y117030D02*
X104895Y111268D01*
X109216Y111268D01*
X107776Y114149D01*
X107776Y115590D01*
X109216Y117030D01*
X112097Y117030D01*
X113538Y115590D01*
X113538Y112709D01*
X112097Y111268D01*
X110657Y120623D02*
X104895Y120623D01*
X110657Y120623D02*
X113538Y123504D01*
X110657Y126385D01*
X104895Y126385D01*
X142995Y112709D02*
X144435Y111268D01*
X142995Y112709D02*
X142995Y115590D01*
X144435Y117030D01*
X145876Y117030D01*
X147316Y115590D01*
X147316Y114149D01*
X147316Y115590D02*
X148757Y117030D01*
X150197Y117030D01*
X151638Y115590D01*
X151638Y112709D01*
X150197Y111268D01*
X150197Y120623D02*
X151638Y120623D01*
X150197Y120623D02*
X150197Y122064D01*
X151638Y122064D01*
X151638Y120623D01*
X144435Y125301D02*
X142995Y126741D01*
X142995Y129622D01*
X144435Y131063D01*
X145876Y131063D01*
X147316Y129622D01*
X147316Y128182D01*
X147316Y129622D02*
X148757Y131063D01*
X150197Y131063D01*
X151638Y129622D01*
X151638Y126741D01*
X150197Y125301D01*
X148757Y134656D02*
X142995Y134656D01*
X148757Y134656D02*
X151638Y137537D01*
X148757Y140418D01*
X142995Y140418D01*
X227838Y114149D02*
X227838Y111268D01*
X227838Y112709D02*
X219195Y112709D01*
X219195Y114149D02*
X219195Y111268D01*
X219195Y117505D02*
X227838Y117505D01*
X219195Y117505D02*
X219195Y121826D01*
X220635Y123267D01*
X223516Y123267D01*
X224957Y121826D01*
X224957Y117505D01*
X224957Y120386D02*
X227838Y123267D01*
X226397Y126860D02*
X220635Y126860D01*
X219195Y128301D01*
X219195Y131182D01*
X220635Y132622D01*
X226397Y132622D01*
X227838Y131182D01*
X227838Y128301D01*
X226397Y126860D01*
X224957Y129741D02*
X227838Y132622D01*
X222076Y136215D02*
X219195Y139096D01*
X227838Y139096D01*
X227838Y136215D02*
X227838Y141977D01*
X227838Y154926D02*
X219195Y154926D01*
X227838Y154926D02*
X227838Y159247D01*
X226397Y160688D01*
X220635Y160688D01*
X219195Y159247D01*
X219195Y154926D01*
X222076Y164281D02*
X222076Y165721D01*
X227838Y165721D01*
X227838Y164281D02*
X227838Y167162D01*
X219195Y165721D02*
X217754Y165721D01*
X230719Y173399D02*
X230719Y174839D01*
X229279Y176280D01*
X222076Y176280D01*
X222076Y171958D01*
X223516Y170518D01*
X226397Y170518D01*
X227838Y171958D01*
X227838Y176280D01*
X220635Y179873D02*
X219195Y181313D01*
X219195Y184194D01*
X220635Y185635D01*
X222076Y185635D01*
X223516Y184194D01*
X223516Y182754D01*
X223516Y184194D02*
X224957Y185635D01*
X226397Y185635D01*
X227838Y184194D01*
X227838Y181313D01*
X226397Y179873D01*
X260176Y111268D02*
X265938Y111268D01*
X260176Y111268D02*
X257295Y114149D01*
X260176Y117030D01*
X265938Y117030D01*
X261616Y117030D02*
X261616Y111268D01*
X257295Y120623D02*
X265938Y120623D01*
X265938Y124945D01*
X264497Y126385D01*
X258735Y126385D01*
X257295Y124945D01*
X257295Y120623D01*
X257295Y134300D02*
X258735Y135741D01*
X257295Y134300D02*
X257295Y131419D01*
X258735Y129978D01*
X264497Y129978D01*
X265938Y131419D01*
X265938Y134300D01*
X264497Y135741D01*
X257295Y139334D02*
X257295Y145096D01*
X257295Y139334D02*
X261616Y139334D01*
X260176Y142215D01*
X260176Y143655D01*
X261616Y145096D01*
X264497Y145096D01*
X265938Y143655D01*
X265938Y140774D01*
X264497Y139334D01*
X265938Y158044D02*
X257295Y163806D01*
X257295Y176754D02*
X265938Y176754D01*
X265938Y181076D01*
X264497Y182517D01*
X258735Y182517D01*
X257295Y181076D01*
X257295Y176754D01*
X260176Y186110D02*
X260176Y187550D01*
X265938Y187550D01*
X265938Y186110D02*
X265938Y188991D01*
X257295Y187550D02*
X255854Y187550D01*
X268819Y195227D02*
X268819Y196668D01*
X267379Y198109D01*
X260176Y198109D01*
X260176Y193787D01*
X261616Y192346D01*
X264497Y192346D01*
X265938Y193787D01*
X265938Y198109D01*
X260176Y201701D02*
X257295Y204583D01*
X265938Y204583D01*
X265938Y207464D02*
X265938Y201701D01*
X264497Y211057D02*
X265938Y212497D01*
X265938Y215378D01*
X264497Y216819D01*
X258735Y216819D01*
X257295Y215378D01*
X257295Y212497D01*
X258735Y211057D01*
X260176Y211057D01*
X261616Y212497D01*
X261616Y216819D01*
X265938Y229767D02*
X257295Y235529D01*
X257295Y239122D02*
X265938Y239122D01*
X265938Y243444D01*
X264497Y244884D01*
X258735Y244884D01*
X257295Y243444D01*
X257295Y239122D01*
X257295Y252799D02*
X258735Y254240D01*
X257295Y252799D02*
X257295Y249918D01*
X258735Y248477D01*
X260176Y248477D01*
X261616Y249918D01*
X261616Y252799D01*
X263057Y254240D01*
X264497Y254240D01*
X265938Y252799D01*
X265938Y249918D01*
X264497Y248477D01*
X260176Y257833D02*
X257295Y260714D01*
X265938Y260714D01*
X265938Y257833D02*
X265938Y263595D01*
X258735Y267188D02*
X257295Y268628D01*
X257295Y271509D01*
X258735Y272950D01*
X260176Y272950D01*
X261616Y271509D01*
X263057Y272950D01*
X264497Y272950D01*
X265938Y271509D01*
X265938Y268628D01*
X264497Y267188D01*
X263057Y267188D01*
X261616Y268628D01*
X260176Y267188D01*
X258735Y267188D01*
X261616Y268628D02*
X261616Y271509D01*
X265938Y276543D02*
X257295Y276543D01*
X257295Y280865D01*
X258735Y282305D01*
X260176Y282305D01*
X261616Y280865D01*
X263057Y282305D01*
X264497Y282305D01*
X265938Y280865D01*
X265938Y276543D01*
X261616Y276543D02*
X261616Y280865D01*
X265938Y285898D02*
X265938Y291660D01*
X265938Y285898D02*
X260176Y291660D01*
X258735Y291660D01*
X257295Y290220D01*
X257295Y287339D01*
X258735Y285898D01*
X258735Y295253D02*
X264497Y295253D01*
X258735Y295253D02*
X257295Y296694D01*
X257295Y299575D01*
X258735Y301016D01*
X264497Y301016D01*
X265938Y299575D01*
X265938Y296694D01*
X264497Y295253D01*
X258735Y301016D01*
X257295Y313964D02*
X265938Y313964D01*
X257295Y313964D02*
X257295Y318285D01*
X258735Y319726D01*
X261616Y319726D01*
X263057Y318285D01*
X263057Y313964D01*
X265938Y323319D02*
X257295Y323319D01*
X263057Y326200D02*
X265938Y323319D01*
X263057Y326200D02*
X265938Y329081D01*
X257295Y329081D01*
X257295Y332674D02*
X265938Y332674D01*
X257295Y332674D02*
X257295Y336996D01*
X258735Y338436D01*
X261616Y338436D01*
X263057Y336996D01*
X263057Y332674D01*
X263057Y335555D02*
X265938Y338436D01*
X182535Y117030D02*
X181095Y115590D01*
X181095Y112709D01*
X182535Y111268D01*
X188297Y111268D01*
X189738Y112709D01*
X189738Y115590D01*
X188297Y117030D01*
X185416Y117030D01*
X185416Y114149D01*
X181095Y120623D02*
X189738Y120623D01*
X189738Y126385D02*
X181095Y120623D01*
X181095Y126385D02*
X189738Y126385D01*
X189738Y129978D02*
X181095Y129978D01*
X189738Y129978D02*
X189738Y134300D01*
X188297Y135741D01*
X182535Y135741D01*
X181095Y134300D01*
X181095Y129978D01*
X282695Y111268D02*
X291338Y111268D01*
X291338Y115590D01*
X289897Y117030D01*
X284135Y117030D01*
X282695Y115590D01*
X282695Y111268D01*
X285576Y120623D02*
X285576Y122064D01*
X291338Y122064D01*
X291338Y123504D02*
X291338Y120623D01*
X282695Y122064D02*
X281254Y122064D01*
X294219Y129741D02*
X294219Y131182D01*
X292779Y132622D01*
X285576Y132622D01*
X285576Y128301D01*
X287016Y126860D01*
X289897Y126860D01*
X291338Y128301D01*
X291338Y132622D01*
X282695Y145570D02*
X282695Y151333D01*
X282695Y145570D02*
X287016Y145570D01*
X285576Y148451D01*
X285576Y149892D01*
X287016Y151333D01*
X289897Y151333D01*
X291338Y149892D01*
X291338Y147011D01*
X289897Y145570D01*
X291338Y164281D02*
X282695Y170043D01*
X282695Y182991D02*
X291338Y182991D01*
X291338Y187313D01*
X289897Y188753D01*
X284135Y188753D01*
X282695Y187313D01*
X282695Y182991D01*
X282695Y196668D02*
X284135Y198109D01*
X282695Y196668D02*
X282695Y193787D01*
X284135Y192346D01*
X285576Y192346D01*
X287016Y193787D01*
X287016Y196668D01*
X288457Y198109D01*
X289897Y198109D01*
X291338Y196668D01*
X291338Y193787D01*
X289897Y192346D01*
X285576Y201701D02*
X282695Y204583D01*
X291338Y204583D01*
X291338Y207464D02*
X291338Y201701D01*
X284135Y211057D02*
X282695Y212497D01*
X282695Y215378D01*
X284135Y216819D01*
X285576Y216819D01*
X287016Y215378D01*
X288457Y216819D01*
X289897Y216819D01*
X291338Y215378D01*
X291338Y212497D01*
X289897Y211057D01*
X288457Y211057D01*
X287016Y212497D01*
X285576Y211057D01*
X284135Y211057D01*
X287016Y212497D02*
X287016Y215378D01*
X291338Y220412D02*
X282695Y220412D01*
X282695Y224734D01*
X284135Y226174D01*
X285576Y226174D01*
X287016Y224734D01*
X288457Y226174D01*
X289897Y226174D01*
X291338Y224734D01*
X291338Y220412D01*
X287016Y220412D02*
X287016Y224734D01*
X291338Y229767D02*
X291338Y235529D01*
X291338Y229767D02*
X285576Y235529D01*
X284135Y235529D01*
X282695Y234089D01*
X282695Y231208D01*
X284135Y229767D01*
X284135Y239122D02*
X289897Y239122D01*
X284135Y239122D02*
X282695Y240563D01*
X282695Y243444D01*
X284135Y244884D01*
X289897Y244884D01*
X291338Y243444D01*
X291338Y240563D01*
X289897Y239122D01*
X284135Y244884D01*
X282695Y257833D02*
X291338Y257833D01*
X291338Y262154D01*
X289897Y263595D01*
X284135Y263595D01*
X282695Y262154D01*
X282695Y257833D01*
X285576Y268628D02*
X285576Y271509D01*
X287016Y272950D01*
X291338Y272950D01*
X291338Y268628D01*
X289897Y267188D01*
X288457Y268628D01*
X288457Y272950D01*
X289897Y277984D02*
X284135Y277984D01*
X289897Y277984D02*
X291338Y279424D01*
X285576Y279424D02*
X285576Y276543D01*
X285576Y284220D02*
X285576Y287101D01*
X287016Y288542D01*
X291338Y288542D01*
X291338Y284220D01*
X289897Y282780D01*
X288457Y284220D01*
X288457Y288542D01*
X291338Y301490D02*
X282695Y307252D01*
X282695Y320201D02*
X291338Y320201D01*
X282695Y320201D02*
X282695Y324522D01*
X284135Y325963D01*
X287016Y325963D01*
X288457Y324522D01*
X288457Y320201D01*
X291338Y329556D02*
X282695Y329556D01*
X288457Y332437D02*
X291338Y329556D01*
X288457Y332437D02*
X291338Y335318D01*
X282695Y335318D01*
X282695Y338911D02*
X291338Y338911D01*
X285576Y341792D02*
X282695Y338911D01*
X285576Y341792D02*
X282695Y344673D01*
X291338Y344673D01*
D13*
X93967Y97432D02*
X91255Y94720D01*
X93967Y97432D02*
X93967Y89297D01*
X91255Y89297D02*
X96679Y89297D01*
X126815Y89297D02*
X132239Y89297D01*
X132239Y94720D02*
X126815Y89297D01*
X132239Y94720D02*
X132239Y96076D01*
X130883Y97432D01*
X128171Y97432D01*
X126815Y96076D01*
X162375Y96076D02*
X163731Y97432D01*
X166443Y97432D01*
X167799Y96076D01*
X167799Y94720D01*
X166443Y93364D01*
X165087Y93364D01*
X166443Y93364D02*
X167799Y92009D01*
X167799Y90653D01*
X166443Y89297D01*
X163731Y89297D01*
X162375Y90653D01*
X199463Y89297D02*
X199463Y97432D01*
X195395Y93364D01*
X200819Y93364D01*
X230955Y97432D02*
X236379Y97432D01*
X230955Y97432D02*
X230955Y93364D01*
X233667Y94720D01*
X235023Y94720D01*
X236379Y93364D01*
X236379Y90653D01*
X235023Y89297D01*
X232311Y89297D01*
X230955Y90653D01*
X269227Y96076D02*
X271939Y97432D01*
X269227Y96076D02*
X266515Y93364D01*
X266515Y90653D01*
X267871Y89297D01*
X270583Y89297D01*
X271939Y90653D01*
X271939Y92009D01*
X270583Y93364D01*
X266515Y93364D01*
D14*
X655066Y271288D02*
X655066Y281965D01*
X658625Y274847D02*
X655066Y271288D01*
X658625Y274847D02*
X662184Y271288D01*
X662184Y281965D01*
X666760Y278406D02*
X668539Y278406D01*
X668539Y271288D01*
X666760Y271288D02*
X670319Y271288D01*
X668539Y281965D02*
X668539Y283745D01*
X674556Y278406D02*
X674556Y271288D01*
X674556Y274847D02*
X678115Y278406D01*
X679895Y278406D01*
X686080Y271288D02*
X689639Y271288D01*
X686080Y271288D02*
X684301Y273068D01*
X684301Y276627D01*
X686080Y278406D01*
X689639Y278406D01*
X691419Y276627D01*
X691419Y274847D01*
X684301Y274847D01*
X695995Y281965D02*
X697774Y281965D01*
X697774Y271288D01*
X695995Y271288D02*
X699554Y271288D01*
X705570Y271288D02*
X709129Y271288D01*
X705570Y271288D02*
X703791Y273068D01*
X703791Y276627D01*
X705570Y278406D01*
X709129Y278406D01*
X710909Y276627D01*
X710909Y274847D01*
X703791Y274847D01*
X715485Y271288D02*
X720823Y271288D01*
X722603Y273068D01*
X720823Y274847D01*
X717264Y274847D01*
X715485Y276627D01*
X717264Y278406D01*
X722603Y278406D01*
X727179Y271288D02*
X732517Y271288D01*
X734297Y273068D01*
X732517Y274847D01*
X728958Y274847D01*
X727179Y276627D01*
X728958Y278406D01*
X734297Y278406D01*
X662184Y262915D02*
X655066Y262915D01*
X655066Y252238D01*
X662184Y252238D01*
X658625Y257577D02*
X655066Y257577D01*
X666760Y259356D02*
X666760Y252238D01*
X666760Y259356D02*
X672099Y259356D01*
X673878Y257577D01*
X673878Y252238D01*
X680233Y252238D02*
X683793Y252238D01*
X680233Y252238D02*
X678454Y254018D01*
X678454Y257577D01*
X680233Y259356D01*
X683793Y259356D01*
X685572Y257577D01*
X685572Y255797D01*
X678454Y255797D01*
X690148Y252238D02*
X690148Y259356D01*
X690148Y255797D02*
X693707Y259356D01*
X695486Y259356D01*
X703452Y248679D02*
X705231Y248679D01*
X707011Y250459D01*
X707011Y259356D01*
X701672Y259356D01*
X699893Y257577D01*
X699893Y254018D01*
X701672Y252238D01*
X707011Y252238D01*
X711587Y254018D02*
X711587Y259356D01*
X711587Y254018D02*
X713366Y252238D01*
X718705Y252238D01*
X718705Y250459D02*
X718705Y259356D01*
X718705Y250459D02*
X716925Y248679D01*
X715146Y248679D01*
X655066Y243865D02*
X655066Y233188D01*
X658625Y240306D02*
X655066Y243865D01*
X658625Y240306D02*
X662184Y243865D01*
X662184Y233188D01*
X668539Y233188D02*
X672099Y233188D01*
X673878Y234968D01*
X673878Y238527D01*
X672099Y240306D01*
X668539Y240306D01*
X666760Y238527D01*
X666760Y234968D01*
X668539Y233188D01*
X678454Y233188D02*
X678454Y240306D01*
X683793Y240306D01*
X685572Y238527D01*
X685572Y233188D01*
X690148Y240306D02*
X691927Y240306D01*
X691927Y233188D01*
X690148Y233188D02*
X693707Y233188D01*
X691927Y243865D02*
X691927Y245645D01*
X699723Y242086D02*
X699723Y234968D01*
X701503Y233188D01*
X701503Y240306D02*
X697944Y240306D01*
X707519Y233188D02*
X711078Y233188D01*
X712858Y234968D01*
X712858Y238527D01*
X711078Y240306D01*
X707519Y240306D01*
X705740Y238527D01*
X705740Y234968D01*
X707519Y233188D01*
X717434Y233188D02*
X717434Y240306D01*
X717434Y236747D02*
X720993Y240306D01*
X722772Y240306D01*
X727179Y240306D02*
X728958Y240306D01*
X728958Y233188D01*
X727179Y233188D02*
X730738Y233188D01*
X728958Y243865D02*
X728958Y245645D01*
X734975Y240306D02*
X734975Y233188D01*
X734975Y240306D02*
X740313Y240306D01*
X742093Y238527D01*
X742093Y233188D01*
X750228Y229629D02*
X752007Y229629D01*
X753787Y231409D01*
X753787Y240306D01*
X748448Y240306D01*
X746669Y238527D01*
X746669Y234968D01*
X748448Y233188D01*
X753787Y233188D01*
X655066Y224815D02*
X655066Y214138D01*
X662184Y214138D02*
X655066Y224815D01*
X662184Y224815D02*
X662184Y214138D01*
X668539Y214138D02*
X672099Y214138D01*
X673878Y215918D01*
X673878Y219477D01*
X672099Y221256D01*
X668539Y221256D01*
X666760Y219477D01*
X666760Y215918D01*
X668539Y214138D01*
X685572Y214138D02*
X685572Y224815D01*
X685572Y214138D02*
X680233Y214138D01*
X678454Y215918D01*
X678454Y219477D01*
X680233Y221256D01*
X685572Y221256D01*
X691927Y214138D02*
X695486Y214138D01*
X691927Y214138D02*
X690148Y215918D01*
X690148Y219477D01*
X691927Y221256D01*
X695486Y221256D01*
X697266Y219477D01*
X697266Y217697D01*
X690148Y217697D01*
X538036Y50509D02*
X538036Y41612D01*
X539816Y39832D01*
X543375Y39832D01*
X545154Y41612D01*
X545154Y50509D01*
X549730Y46950D02*
X549730Y39832D01*
X549730Y46950D02*
X553289Y50509D01*
X556848Y46950D01*
X556848Y39832D01*
X556848Y45171D02*
X549730Y45171D01*
X561424Y50509D02*
X561424Y39832D01*
X561424Y50509D02*
X566763Y50509D01*
X568542Y48730D01*
X568542Y45171D01*
X566763Y43391D01*
X561424Y43391D01*
X564983Y43391D02*
X568542Y39832D01*
X576677Y39832D02*
X576677Y50509D01*
X573118Y50509D02*
X580236Y50509D01*
D12*
X360972Y16001D02*
X360972Y7358D01*
X360972Y16001D02*
X365294Y16001D01*
X366734Y14561D01*
X366734Y11680D01*
X365294Y10239D01*
X360972Y10239D01*
X363853Y10239D02*
X366734Y7358D01*
X371768Y7358D02*
X374649Y7358D01*
X371768Y7358D02*
X370327Y8799D01*
X370327Y11680D01*
X371768Y13120D01*
X374649Y13120D01*
X376089Y11680D01*
X376089Y10239D01*
X370327Y10239D01*
X379682Y7358D02*
X384004Y7358D01*
X385445Y8799D01*
X384004Y10239D01*
X381123Y10239D01*
X379682Y11680D01*
X381123Y13120D01*
X385445Y13120D01*
X390478Y7358D02*
X393359Y7358D01*
X390478Y7358D02*
X389038Y8799D01*
X389038Y11680D01*
X390478Y13120D01*
X393359Y13120D01*
X394800Y11680D01*
X394800Y10239D01*
X389038Y10239D01*
X399833Y8799D02*
X399833Y14561D01*
X399833Y8799D02*
X401274Y7358D01*
X401274Y13120D02*
X398393Y13120D01*
X255806Y639155D02*
X254365Y640595D01*
X251484Y640595D01*
X250044Y639155D01*
X250044Y633393D01*
X251484Y631952D01*
X254365Y631952D01*
X255806Y633393D01*
X262280Y631952D02*
X262280Y640595D01*
X259399Y640595D02*
X265161Y640595D01*
X278109Y637714D02*
X280990Y640595D01*
X280990Y631952D01*
X278109Y631952D02*
X283871Y631952D01*
X287464Y636274D02*
X293227Y636274D01*
X296820Y639155D02*
X298260Y640595D01*
X301141Y640595D01*
X302582Y639155D01*
X302582Y637714D01*
X301141Y636274D01*
X299701Y636274D01*
X301141Y636274D02*
X302582Y634833D01*
X302582Y633393D01*
X301141Y631952D01*
X298260Y631952D01*
X296820Y633393D01*
X255806Y616712D02*
X250044Y616712D01*
X255806Y622474D01*
X255806Y623915D01*
X254365Y625355D01*
X251484Y625355D01*
X250044Y623915D01*
X259399Y623915D02*
X260839Y625355D01*
X263721Y625355D01*
X265161Y623915D01*
X265161Y622474D01*
X263721Y621034D01*
X262280Y621034D01*
X263721Y621034D02*
X265161Y619593D01*
X265161Y618153D01*
X263721Y616712D01*
X260839Y616712D01*
X259399Y618153D01*
X268754Y616712D02*
X268754Y625355D01*
X268754Y619593D02*
X273076Y616712D01*
X268754Y619593D02*
X273076Y622474D01*
X276550Y625355D02*
X276550Y616712D01*
X279431Y619593D01*
X282312Y616712D01*
X282312Y625355D01*
X295260Y625355D02*
X295260Y616712D01*
X298142Y622474D02*
X295260Y625355D01*
X298142Y622474D02*
X301023Y625355D01*
X301023Y616712D01*
X304616Y616712D02*
X304616Y622474D01*
X307497Y625355D01*
X310378Y622474D01*
X310378Y616712D01*
X310378Y621034D02*
X304616Y621034D01*
X313971Y625355D02*
X319733Y616712D01*
X313971Y616712D02*
X319733Y625355D01*
X264532Y601643D02*
X263092Y600202D01*
X260211Y600202D01*
X258770Y601643D01*
X258770Y607405D01*
X260211Y608845D01*
X263092Y608845D01*
X264532Y607405D01*
X264532Y604524D01*
X263092Y603083D01*
X260211Y603083D01*
X260211Y605964D01*
X263092Y605964D01*
X263092Y603083D01*
X268125Y600202D02*
X273887Y600202D01*
X268125Y600202D02*
X273887Y605964D01*
X273887Y607405D01*
X272447Y608845D01*
X269566Y608845D01*
X268125Y607405D01*
X281802Y608845D02*
X281802Y600202D01*
X277480Y604524D02*
X281802Y608845D01*
X283243Y604524D02*
X277480Y604524D01*
X286836Y601643D02*
X286836Y607405D01*
X288276Y608845D01*
X291157Y608845D01*
X292598Y607405D01*
X292598Y601643D01*
X291157Y600202D01*
X288276Y600202D01*
X286836Y601643D01*
X292598Y607405D01*
X296191Y608845D02*
X296191Y603083D01*
X299072Y600202D01*
X301953Y603083D01*
X301953Y608845D01*
D14*
X931901Y609605D02*
X942578Y609605D01*
X937239Y604266D02*
X931901Y609605D01*
X937239Y611384D02*
X937239Y604266D01*
X940799Y615960D02*
X942578Y615960D01*
X940799Y615960D02*
X940799Y617739D01*
X942578Y617739D01*
X942578Y615960D01*
X931901Y621807D02*
X931901Y628925D01*
X931901Y621807D02*
X937239Y621807D01*
X935460Y625366D01*
X935460Y627146D01*
X937239Y628925D01*
X940799Y628925D01*
X942578Y627146D01*
X942578Y623586D01*
X940799Y621807D01*
X942578Y633501D02*
X931901Y633501D01*
X939019Y633501D02*
X942578Y638839D01*
X939019Y633501D02*
X935460Y638839D01*
X931901Y643246D02*
X942578Y643246D01*
X939019Y646805D01*
X942578Y650364D01*
X931901Y650364D01*
X950951Y604266D02*
X961628Y604266D01*
X954510Y607825D02*
X950951Y604266D01*
X954510Y607825D02*
X950951Y611384D01*
X961628Y611384D01*
X961628Y615960D02*
X954510Y615960D01*
X950951Y619519D01*
X954510Y623078D01*
X961628Y623078D01*
X956289Y623078D02*
X956289Y615960D01*
X950951Y627654D02*
X961628Y634772D01*
X961628Y627654D02*
X950951Y634772D01*
X978899Y611384D02*
X980678Y609605D01*
X980678Y606046D01*
X978899Y604266D01*
X971780Y604266D01*
X970001Y606046D01*
X970001Y609605D01*
X971780Y611384D01*
X975339Y611384D01*
X977119Y609605D01*
X977119Y606046D01*
X973560Y606046D01*
X973560Y609605D01*
X977119Y609605D01*
X980678Y615960D02*
X980678Y623078D01*
X980678Y615960D02*
X973560Y623078D01*
X971780Y623078D01*
X970001Y621299D01*
X970001Y617739D01*
X971780Y615960D01*
X970001Y632993D02*
X980678Y632993D01*
X975339Y627654D02*
X970001Y632993D01*
X975339Y634772D02*
X975339Y627654D01*
X978899Y639348D02*
X971780Y639348D01*
X970001Y641127D01*
X970001Y644686D01*
X971780Y646466D01*
X978899Y646466D01*
X980678Y644686D01*
X980678Y641127D01*
X978899Y639348D01*
X971780Y646466D01*
X970001Y651042D02*
X977119Y651042D01*
X980678Y654601D01*
X977119Y658160D01*
X970001Y658160D01*
X786368Y697235D02*
X775691Y697235D01*
X781029Y691896D01*
X781029Y699014D01*
X784589Y703590D02*
X786368Y703590D01*
X784589Y703590D02*
X784589Y705369D01*
X786368Y705369D01*
X786368Y703590D01*
X775691Y709437D02*
X775691Y716555D01*
X775691Y709437D02*
X781029Y709437D01*
X779250Y712996D01*
X779250Y714776D01*
X781029Y716555D01*
X784589Y716555D01*
X786368Y714776D01*
X786368Y711216D01*
X784589Y709437D01*
X786368Y721131D02*
X775691Y721131D01*
X782809Y721131D02*
X786368Y726469D01*
X782809Y721131D02*
X779250Y726469D01*
X775691Y730876D02*
X786368Y730876D01*
X782809Y734435D01*
X786368Y737994D01*
X775691Y737994D01*
X775691Y754264D02*
X786368Y754264D01*
X779250Y757823D02*
X775691Y754264D01*
X779250Y757823D02*
X775691Y761382D01*
X786368Y761382D01*
X786368Y765958D02*
X779250Y765958D01*
X775691Y769517D01*
X779250Y773076D01*
X786368Y773076D01*
X781029Y773076D02*
X781029Y765958D01*
X775691Y777652D02*
X786368Y784770D01*
X786368Y777652D02*
X775691Y784770D01*
D12*
X244971Y659892D02*
X243530Y661333D01*
X244971Y659892D02*
X247852Y659892D01*
X249292Y661333D01*
X249292Y667095D01*
X247852Y668535D01*
X244971Y668535D01*
X243530Y667095D01*
X243530Y665654D01*
X244971Y664214D01*
X249292Y664214D01*
X252885Y662773D02*
X252885Y668535D01*
X252885Y662773D02*
X255766Y659892D01*
X258647Y662773D01*
X258647Y668535D01*
X271596Y665654D02*
X271596Y659892D01*
X271596Y665654D02*
X274477Y668535D01*
X277358Y665654D01*
X277358Y659892D01*
X277358Y664214D02*
X271596Y664214D01*
X285272Y668535D02*
X286713Y667095D01*
X285272Y668535D02*
X282391Y668535D01*
X280951Y667095D01*
X280951Y661333D01*
X282391Y659892D01*
X285272Y659892D01*
X286713Y661333D01*
X120840Y696475D02*
X115078Y696475D01*
X115078Y692154D01*
X117959Y693594D01*
X119400Y693594D01*
X120840Y692154D01*
X120840Y689273D01*
X119400Y687832D01*
X116519Y687832D01*
X115078Y689273D01*
X124433Y690713D02*
X124433Y696475D01*
X124433Y690713D02*
X127314Y687832D01*
X130195Y690713D01*
X130195Y696475D01*
X143144Y696475D02*
X143144Y689273D01*
X144584Y687832D01*
X147465Y687832D01*
X148906Y689273D01*
X148906Y696475D01*
X156820Y696475D02*
X158261Y695035D01*
X156820Y696475D02*
X153939Y696475D01*
X152499Y695035D01*
X152499Y693594D01*
X153939Y692154D01*
X156820Y692154D01*
X158261Y690713D01*
X158261Y689273D01*
X156820Y687832D01*
X153939Y687832D01*
X152499Y689273D01*
X161854Y687832D02*
X161854Y696475D01*
X166176Y696475D01*
X167616Y695035D01*
X167616Y693594D01*
X166176Y692154D01*
X167616Y690713D01*
X167616Y689273D01*
X166176Y687832D01*
X161854Y687832D01*
X161854Y692154D02*
X166176Y692154D01*
X13208Y375599D02*
X11767Y374158D01*
X13208Y375599D02*
X13208Y377039D01*
X11767Y378480D01*
X4565Y378480D01*
X4565Y379920D02*
X4565Y377039D01*
X4565Y383513D02*
X13208Y383513D01*
X4565Y383513D02*
X4565Y387835D01*
X6005Y389275D01*
X8886Y389275D01*
X10327Y387835D01*
X10327Y383513D01*
X13208Y392868D02*
X13208Y398631D01*
X7446Y398631D02*
X13208Y392868D01*
X7446Y398631D02*
X6005Y398631D01*
X4565Y397190D01*
X4565Y394309D01*
X6005Y392868D01*
X7446Y411579D02*
X13208Y411579D01*
X7446Y411579D02*
X4565Y414460D01*
X7446Y417341D01*
X13208Y417341D01*
X8886Y417341D02*
X8886Y411579D01*
X4565Y425256D02*
X6005Y426696D01*
X4565Y425256D02*
X4565Y422375D01*
X6005Y420934D01*
X11767Y420934D01*
X13208Y422375D01*
X13208Y425256D01*
X11767Y426696D01*
X8886Y430289D02*
X8886Y436051D01*
X4565Y439644D02*
X13208Y439644D01*
X13208Y443966D01*
X11767Y445407D01*
X6005Y445407D01*
X4565Y443966D01*
X4565Y439644D01*
X4565Y453321D02*
X6005Y454762D01*
X4565Y453321D02*
X4565Y450440D01*
X6005Y449000D01*
X11767Y449000D01*
X13208Y450440D01*
X13208Y453321D01*
X11767Y454762D01*
X13208Y467710D02*
X4565Y467710D01*
X4565Y472032D01*
X6005Y473472D01*
X8886Y473472D01*
X10327Y472032D01*
X10327Y467710D01*
X13208Y478506D02*
X13208Y481387D01*
X11767Y482827D01*
X8886Y482827D01*
X7446Y481387D01*
X7446Y478506D01*
X8886Y477065D01*
X11767Y477065D01*
X13208Y478506D01*
X11767Y486420D02*
X7446Y486420D01*
X11767Y486420D02*
X13208Y487861D01*
X11767Y489301D01*
X13208Y490742D01*
X11767Y492183D01*
X7446Y492183D01*
X13208Y497216D02*
X13208Y500097D01*
X13208Y497216D02*
X11767Y495775D01*
X8886Y495775D01*
X7446Y497216D01*
X7446Y500097D01*
X8886Y501538D01*
X10327Y501538D01*
X10327Y495775D01*
X13208Y505131D02*
X7446Y505131D01*
X10327Y505131D02*
X7446Y508012D01*
X7446Y509452D01*
X4565Y526603D02*
X6005Y528044D01*
X4565Y526603D02*
X4565Y523722D01*
X6005Y522282D01*
X7446Y522282D01*
X8886Y523722D01*
X8886Y526603D01*
X10327Y528044D01*
X11767Y528044D01*
X13208Y526603D01*
X13208Y523722D01*
X11767Y522282D01*
X11767Y531637D02*
X7446Y531637D01*
X11767Y531637D02*
X13208Y533078D01*
X13208Y537399D01*
X7446Y537399D01*
X7446Y540992D02*
X16089Y540992D01*
X7446Y540992D02*
X7446Y545314D01*
X8886Y546754D01*
X11767Y546754D01*
X13208Y545314D01*
X13208Y540992D01*
X16089Y550347D02*
X7446Y550347D01*
X7446Y554669D01*
X8886Y556110D01*
X11767Y556110D01*
X13208Y554669D01*
X13208Y550347D01*
X4565Y559703D02*
X4565Y561143D01*
X13208Y561143D01*
X13208Y559703D02*
X13208Y562584D01*
X11767Y565939D02*
X7446Y565939D01*
X11767Y565939D02*
X13208Y567380D01*
X13208Y571702D01*
X14649Y571702D02*
X7446Y571702D01*
X14649Y571702D02*
X16089Y570261D01*
X16089Y568820D01*
X19805Y379920D02*
X19805Y374158D01*
X28448Y374158D01*
X28448Y379920D01*
X24126Y377039D02*
X24126Y374158D01*
X22686Y383513D02*
X28448Y383513D01*
X22686Y383513D02*
X22686Y387835D01*
X24126Y389275D01*
X28448Y389275D01*
X22686Y394309D02*
X22686Y397190D01*
X24126Y398631D01*
X28448Y398631D01*
X28448Y394309D01*
X27007Y392868D01*
X25567Y394309D01*
X25567Y398631D01*
X28448Y402224D02*
X19805Y402224D01*
X28448Y402224D02*
X28448Y406545D01*
X27007Y407986D01*
X24126Y407986D01*
X22686Y406545D01*
X22686Y402224D01*
X19805Y411579D02*
X19805Y413019D01*
X28448Y413019D01*
X28448Y411579D02*
X28448Y414460D01*
X28448Y419256D02*
X28448Y422137D01*
X28448Y419256D02*
X27007Y417816D01*
X24126Y417816D01*
X22686Y419256D01*
X22686Y422137D01*
X24126Y423578D01*
X25567Y423578D01*
X25567Y417816D01*
X24126Y436526D02*
X24126Y442288D01*
X28448Y455236D02*
X28448Y460999D01*
X22686Y460999D02*
X28448Y455236D01*
X22686Y460999D02*
X21245Y460999D01*
X19805Y459558D01*
X19805Y456677D01*
X21245Y455236D01*
X21245Y464591D02*
X27007Y464591D01*
X21245Y464591D02*
X19805Y466032D01*
X19805Y468913D01*
X21245Y470354D01*
X27007Y470354D01*
X28448Y468913D01*
X28448Y466032D01*
X27007Y464591D01*
X21245Y470354D01*
X22686Y473947D02*
X28448Y473947D01*
X22686Y473947D02*
X22686Y475387D01*
X24126Y476828D01*
X28448Y476828D01*
X24126Y476828D02*
X22686Y478268D01*
X24126Y479709D01*
X28448Y479709D01*
X28448Y483302D02*
X22686Y483302D01*
X19805Y486183D01*
X22686Y489064D01*
X28448Y489064D01*
X24126Y489064D02*
X24126Y483302D01*
X28448Y511367D02*
X19805Y511367D01*
X22686Y514249D01*
X19805Y517130D01*
X28448Y517130D01*
X28448Y520723D02*
X22686Y520723D01*
X19805Y523604D01*
X22686Y526485D01*
X28448Y526485D01*
X24126Y526485D02*
X24126Y520723D01*
X19805Y530078D02*
X28448Y535840D01*
X28448Y530078D02*
X19805Y535840D01*
D10*
X382905Y539131D02*
X382905Y545486D01*
X387142Y545486D01*
X385023Y542309D02*
X382905Y542309D01*
X389921Y543368D02*
X389921Y539131D01*
X389921Y541249D02*
X392040Y543368D01*
X393099Y543368D01*
X396828Y539131D02*
X398946Y539131D01*
X400005Y540190D01*
X400005Y542309D01*
X398946Y543368D01*
X396828Y543368D01*
X395768Y542309D01*
X395768Y540190D01*
X396828Y539131D01*
X402785Y539131D02*
X402785Y543368D01*
X405962Y543368D01*
X407022Y542309D01*
X407022Y539131D01*
X410860Y540190D02*
X410860Y544427D01*
X410860Y540190D02*
X411920Y539131D01*
X411920Y543368D02*
X409801Y543368D01*
X421495Y543368D02*
X421495Y539131D01*
X421495Y543368D02*
X423614Y545486D01*
X425732Y543368D01*
X425732Y539131D01*
X425732Y542309D02*
X421495Y542309D01*
X429571Y543368D02*
X432748Y543368D01*
X429571Y543368D02*
X428511Y542309D01*
X428511Y540190D01*
X429571Y539131D01*
X432748Y539131D01*
X436587Y540190D02*
X436587Y544427D01*
X436587Y540190D02*
X437646Y539131D01*
X437646Y543368D02*
X435528Y543368D01*
X447222Y545486D02*
X447222Y539131D01*
X451459Y539131D01*
X454238Y545486D02*
X458475Y545486D01*
X454238Y545486D02*
X454238Y539131D01*
X458475Y539131D01*
X456357Y542309D02*
X454238Y542309D01*
X461255Y545486D02*
X461255Y539131D01*
X464432Y539131D01*
X465491Y540190D01*
X465491Y544427D01*
X464432Y545486D01*
X461255Y545486D01*
X382905Y534056D02*
X382905Y527701D01*
X386083Y527701D01*
X387142Y528760D01*
X387142Y532997D01*
X386083Y534056D01*
X382905Y534056D01*
X389921Y531938D02*
X390981Y531938D01*
X390981Y527701D01*
X392040Y527701D02*
X389921Y527701D01*
X390981Y534056D02*
X390981Y535116D01*
X396717Y525583D02*
X397777Y525583D01*
X398836Y526642D01*
X398836Y531938D01*
X395658Y531938D01*
X394599Y530879D01*
X394599Y528760D01*
X395658Y527701D01*
X398836Y527701D01*
X410750Y532997D02*
X412869Y534056D01*
X410750Y532997D02*
X408632Y530879D01*
X408632Y528760D01*
X409691Y527701D01*
X411809Y527701D01*
X412869Y528760D01*
X412869Y529819D01*
X411809Y530879D01*
X408632Y530879D01*
X422664Y527701D02*
X422664Y534056D01*
X425842Y534056D01*
X426901Y532997D01*
X426901Y530879D01*
X425842Y529819D01*
X422664Y529819D01*
X429681Y527701D02*
X429681Y534056D01*
X431799Y529819D02*
X429681Y527701D01*
X431799Y529819D02*
X433918Y527701D01*
X433918Y534056D01*
X436697Y534056D02*
X436697Y527701D01*
X438816Y531938D02*
X436697Y534056D01*
X438816Y531938D02*
X440934Y534056D01*
X440934Y527701D01*
X597828Y69798D02*
X599099Y68526D01*
X597828Y69798D02*
X595286Y69798D01*
X594015Y68526D01*
X594015Y63442D01*
X595286Y62171D01*
X597828Y62171D01*
X599099Y63442D01*
X599099Y65984D01*
X596557Y65984D01*
X602201Y62171D02*
X602201Y69798D01*
X607285Y62171D01*
X607285Y69798D01*
X610387Y69798D02*
X610387Y62171D01*
X614200Y62171D01*
X615471Y63442D01*
X615471Y68526D01*
X614200Y69798D01*
X610387Y69798D01*
D15*
X770000Y590000D02*
X770000Y800000D01*
X770000Y590000D02*
X1000000Y590000D01*
D14*
X93770Y272896D02*
X91991Y274676D01*
X91991Y278235D01*
X93770Y280014D01*
X95550Y280014D01*
X97329Y278235D01*
X97329Y276455D01*
X97329Y278235D02*
X99109Y280014D01*
X100889Y280014D01*
X102668Y278235D01*
X102668Y274676D01*
X100889Y272896D01*
X95550Y296284D02*
X102668Y303402D01*
X102668Y296284D02*
X95550Y303402D01*
X95550Y319672D02*
X102668Y319672D01*
X95550Y319672D02*
X91991Y323231D01*
X95550Y326790D01*
X102668Y326790D01*
X97329Y326790D02*
X97329Y319672D01*
X95550Y331366D02*
X102668Y331366D01*
X95550Y331366D02*
X91991Y334925D01*
X95550Y338484D01*
X102668Y338484D01*
X97329Y338484D02*
X97329Y331366D01*
X111041Y272896D02*
X121718Y272896D01*
X111041Y272896D02*
X111041Y278235D01*
X112820Y280014D01*
X114600Y280014D01*
X116379Y278235D01*
X118159Y280014D01*
X119939Y280014D01*
X121718Y278235D01*
X121718Y272896D01*
X116379Y272896D02*
X116379Y278235D01*
X114600Y286369D02*
X114600Y289929D01*
X116379Y291708D01*
X121718Y291708D01*
X121718Y286369D01*
X119939Y284590D01*
X118159Y286369D01*
X118159Y291708D01*
X119939Y298063D02*
X112820Y298063D01*
X119939Y298063D02*
X121718Y299843D01*
X114600Y299843D02*
X114600Y296284D01*
X112820Y305859D02*
X119939Y305859D01*
X121718Y307639D01*
X114600Y307639D02*
X114600Y304080D01*
X121718Y313655D02*
X121718Y317214D01*
X121718Y313655D02*
X119939Y311876D01*
X116379Y311876D01*
X114600Y313655D01*
X114600Y317214D01*
X116379Y318994D01*
X118159Y318994D01*
X118159Y311876D01*
X121718Y323570D02*
X114600Y323570D01*
X118159Y323570D02*
X114600Y327129D01*
X114600Y328908D01*
X114600Y333315D02*
X119939Y333315D01*
X121718Y335094D01*
X121718Y340433D01*
X123498Y340433D02*
X114600Y340433D01*
X123498Y340433D02*
X125277Y338653D01*
X125277Y336874D01*
X428816Y20809D02*
X428816Y10132D01*
X428816Y20809D02*
X434155Y20809D01*
X435934Y19030D01*
X435934Y15471D01*
X434155Y13691D01*
X428816Y13691D01*
X440510Y10132D02*
X440510Y17250D01*
X440510Y13691D02*
X444069Y17250D01*
X445849Y17250D01*
X452034Y10132D02*
X455594Y10132D01*
X457373Y11912D01*
X457373Y15471D01*
X455594Y17250D01*
X452034Y17250D01*
X450255Y15471D01*
X450255Y11912D01*
X452034Y10132D01*
X465508Y6573D02*
X467287Y6573D01*
X469067Y8353D01*
X469067Y17250D01*
X463728Y17250D01*
X461949Y15471D01*
X461949Y11912D01*
X463728Y10132D01*
X469067Y10132D01*
X473643Y10132D02*
X473643Y17250D01*
X473643Y13691D02*
X477202Y17250D01*
X478981Y17250D01*
X485167Y17250D02*
X488726Y17250D01*
X490506Y15471D01*
X490506Y10132D01*
X485167Y10132D01*
X483388Y11912D01*
X485167Y13691D01*
X490506Y13691D01*
X495082Y10132D02*
X495082Y17250D01*
X496861Y17250D01*
X498641Y15471D01*
X498641Y10132D01*
X498641Y15471D02*
X500420Y17250D01*
X502200Y15471D01*
X502200Y10132D01*
X506776Y10132D02*
X506776Y17250D01*
X508555Y17250D01*
X510335Y15471D01*
X510335Y10132D01*
X510335Y15471D02*
X512114Y17250D01*
X513894Y15471D01*
X513894Y10132D01*
X518470Y17250D02*
X520249Y17250D01*
X520249Y10132D01*
X518470Y10132D02*
X522029Y10132D01*
X520249Y20809D02*
X520249Y22589D01*
X526266Y17250D02*
X526266Y10132D01*
X526266Y17250D02*
X531604Y17250D01*
X533384Y15471D01*
X533384Y10132D01*
X541519Y6573D02*
X543298Y6573D01*
X545078Y8353D01*
X545078Y17250D01*
X539739Y17250D01*
X537960Y15471D01*
X537960Y11912D01*
X539739Y10132D01*
X545078Y10132D01*
X561348Y10132D02*
X561348Y20809D01*
X561348Y15471D02*
X568466Y15471D01*
X568466Y20809D02*
X568466Y10132D01*
X574821Y10132D02*
X578380Y10132D01*
X574821Y10132D02*
X573042Y11912D01*
X573042Y15471D01*
X574821Y17250D01*
X578380Y17250D01*
X580160Y15471D01*
X580160Y13691D01*
X573042Y13691D01*
X586515Y17250D02*
X590074Y17250D01*
X591854Y15471D01*
X591854Y10132D01*
X586515Y10132D01*
X584736Y11912D01*
X586515Y13691D01*
X591854Y13691D01*
X603548Y10132D02*
X603548Y20809D01*
X603548Y10132D02*
X598209Y10132D01*
X596430Y11912D01*
X596430Y15471D01*
X598209Y17250D01*
X603548Y17250D01*
X609903Y10132D02*
X613462Y10132D01*
X609903Y10132D02*
X608124Y11912D01*
X608124Y15471D01*
X609903Y17250D01*
X613462Y17250D01*
X615242Y15471D01*
X615242Y13691D01*
X608124Y13691D01*
X619817Y10132D02*
X619817Y17250D01*
X619817Y13691D02*
X623377Y17250D01*
X625156Y17250D01*
D10*
X493313Y61489D02*
X493313Y69116D01*
X497127Y69116D01*
X498398Y67844D01*
X498398Y65302D01*
X497127Y64031D01*
X493313Y64031D01*
X495856Y64031D02*
X498398Y61489D01*
X501499Y66573D02*
X506584Y61489D01*
X506584Y66573D02*
X501499Y61489D01*
X519986Y62759D02*
X519986Y70386D01*
X522528Y70386D02*
X517443Y70386D01*
X525629Y67843D02*
X530714Y62759D01*
X530714Y67843D02*
X525629Y62759D01*
X544193Y69116D02*
X549278Y69116D01*
X544193Y69116D02*
X544193Y65302D01*
X546736Y66573D01*
X548007Y66573D01*
X549278Y65302D01*
X549278Y62760D01*
X548007Y61489D01*
X545465Y61489D01*
X544193Y62760D01*
X552379Y64031D02*
X552379Y69116D01*
X552379Y64031D02*
X554921Y61489D01*
X557464Y64031D01*
X557464Y69116D01*
X458538Y70386D02*
X458538Y62759D01*
X458538Y70386D02*
X462351Y70386D01*
X463622Y69114D01*
X463622Y66572D01*
X462351Y65301D01*
X458538Y65301D01*
X461080Y65301D02*
X463622Y62759D01*
X470537Y70386D02*
X471808Y69114D01*
X470537Y70386D02*
X467994Y70386D01*
X466723Y69114D01*
X466723Y67843D01*
X467994Y66572D01*
X470537Y66572D01*
X471808Y65301D01*
X471808Y64030D01*
X470537Y62759D01*
X467994Y62759D01*
X466723Y64030D01*
X477451Y62759D02*
X477451Y70386D01*
X474909Y70386D02*
X479994Y70386D01*
X231759Y765175D02*
X225404Y765175D01*
X231759Y765175D02*
X231759Y769412D01*
X225404Y772191D02*
X225404Y776428D01*
X225404Y772191D02*
X231759Y772191D01*
X231759Y776428D01*
X228581Y774310D02*
X228581Y772191D01*
X225404Y779208D02*
X231759Y779208D01*
X231759Y782385D01*
X230700Y783445D01*
X226463Y783445D01*
X225404Y782385D01*
X225404Y779208D01*
D12*
X328108Y699970D02*
X328108Y694208D01*
X322346Y699970D01*
X320905Y699970D01*
X319465Y698529D01*
X319465Y695648D01*
X320905Y694208D01*
X326667Y703563D02*
X328108Y703563D01*
X326667Y703563D02*
X326667Y705003D01*
X328108Y705003D01*
X328108Y703563D01*
X322346Y708240D02*
X319465Y711122D01*
X328108Y711122D01*
X328108Y714003D02*
X328108Y708240D01*
X328108Y717596D02*
X319465Y717596D01*
X322346Y720477D01*
X319465Y723358D01*
X328108Y723358D01*
X328108Y726951D02*
X319465Y726951D01*
X322346Y729832D01*
X319465Y732713D01*
X328108Y732713D01*
D15*
X927100Y666750D02*
X984250Y666750D01*
X984250Y596900D01*
X927100Y596900D01*
X927100Y666750D01*
D14*
X963246Y496602D02*
X970364Y496602D01*
X963246Y496602D02*
X970364Y503720D01*
X970364Y505500D01*
X968585Y507279D01*
X965026Y507279D01*
X963246Y505500D01*
X966805Y469179D02*
X963246Y465620D01*
X966805Y469179D02*
X966805Y458502D01*
X963246Y458502D02*
X970364Y458502D01*
D12*
X833612Y490982D02*
X824969Y490982D01*
X833612Y490982D02*
X833612Y495304D01*
X832171Y496744D01*
X826409Y496744D01*
X824969Y495304D01*
X824969Y490982D01*
X832171Y500337D02*
X833612Y501778D01*
X833612Y504659D01*
X832171Y506099D01*
X826409Y506099D01*
X824969Y504659D01*
X824969Y501778D01*
X826409Y500337D01*
X827850Y500337D01*
X829290Y501778D01*
X829290Y506099D01*
X824969Y468122D02*
X833612Y468122D01*
X833612Y472444D01*
X832171Y473884D01*
X826409Y473884D01*
X824969Y472444D01*
X824969Y468122D01*
X826409Y477477D02*
X824969Y478918D01*
X824969Y481799D01*
X826409Y483239D01*
X827850Y483239D01*
X829290Y481799D01*
X830731Y483239D01*
X832171Y483239D01*
X833612Y481799D01*
X833612Y478918D01*
X832171Y477477D01*
X830731Y477477D01*
X829290Y478918D01*
X827850Y477477D01*
X826409Y477477D01*
X829290Y478918D02*
X829290Y481799D01*
X862622Y196341D02*
X862622Y187698D01*
X862622Y196341D02*
X866944Y196341D01*
X868384Y194901D01*
X868384Y192020D01*
X866944Y190579D01*
X862622Y190579D01*
X865503Y190579D02*
X868384Y187698D01*
X871977Y187698D02*
X871977Y196341D01*
X877739Y196341D01*
X874858Y192020D02*
X871977Y192020D01*
X881332Y196341D02*
X881332Y187698D01*
X884214Y193460D02*
X881332Y196341D01*
X884214Y193460D02*
X887095Y196341D01*
X887095Y187698D01*
X893569Y194901D02*
X896450Y196341D01*
X893569Y194901D02*
X890688Y192020D01*
X890688Y189139D01*
X892128Y187698D01*
X895009Y187698D01*
X896450Y189139D01*
X896450Y190579D01*
X895009Y192020D01*
X890688Y192020D01*
X900043Y189139D02*
X901483Y187698D01*
X904364Y187698D01*
X905805Y189139D01*
X905805Y194901D01*
X904364Y196341D01*
X901483Y196341D01*
X900043Y194901D01*
X900043Y193460D01*
X901483Y192020D01*
X905805Y192020D01*
X913720Y196341D02*
X915160Y194901D01*
X913720Y196341D02*
X910839Y196341D01*
X909398Y194901D01*
X909398Y189139D01*
X910839Y187698D01*
X913720Y187698D01*
X915160Y189139D01*
X918753Y187698D02*
X918753Y196341D01*
X921634Y190579D02*
X918753Y187698D01*
X921634Y190579D02*
X924515Y187698D01*
X924515Y196341D01*
D15*
X906780Y182880D02*
X868680Y182880D01*
X906780Y182880D02*
X906780Y160020D01*
X868680Y160020D01*
X868680Y182880D01*
D10*
X578099Y363526D02*
X576828Y364798D01*
X574286Y364798D01*
X573015Y363526D01*
X573015Y358442D01*
X574286Y357171D01*
X576828Y357171D01*
X578099Y358442D01*
X578099Y360984D01*
X575557Y360984D01*
X581201Y357171D02*
X581201Y364798D01*
X586285Y357171D01*
X586285Y364798D01*
X589387Y364798D02*
X589387Y357171D01*
X593200Y357171D01*
X594471Y358442D01*
X594471Y363526D01*
X593200Y364798D01*
X589387Y364798D01*
X529278Y364116D02*
X524193Y364116D01*
X524193Y360302D01*
X526736Y361573D01*
X528007Y361573D01*
X529278Y360302D01*
X529278Y357760D01*
X528007Y356489D01*
X525465Y356489D01*
X524193Y357760D01*
X532379Y359031D02*
X532379Y364116D01*
X532379Y359031D02*
X534921Y356489D01*
X537464Y359031D01*
X537464Y364116D01*
X498313Y364116D02*
X498313Y356489D01*
X498313Y364116D02*
X502127Y364116D01*
X503398Y362844D01*
X503398Y360302D01*
X502127Y359031D01*
X498313Y359031D01*
X500856Y359031D02*
X503398Y356489D01*
X506499Y361573D02*
X511584Y356489D01*
X511584Y361573D02*
X506499Y356489D01*
X474986Y357759D02*
X474986Y365386D01*
X477528Y365386D02*
X472443Y365386D01*
X480629Y362843D02*
X485714Y357759D01*
X485714Y362843D02*
X480629Y357759D01*
X443538Y357759D02*
X443538Y365386D01*
X447351Y365386D01*
X448622Y364114D01*
X448622Y361572D01*
X447351Y360301D01*
X443538Y360301D01*
X446080Y360301D02*
X448622Y357759D01*
X455537Y365386D02*
X456808Y364114D01*
X455537Y365386D02*
X452994Y365386D01*
X451723Y364114D01*
X451723Y362843D01*
X452994Y361572D01*
X455537Y361572D01*
X456808Y360301D01*
X456808Y359030D01*
X455537Y357759D01*
X452994Y357759D01*
X451723Y359030D01*
X462451Y357759D02*
X462451Y365386D01*
X459909Y365386D02*
X464994Y365386D01*
D12*
X793980Y797286D02*
X823920Y797286D01*
X793980Y680046D02*
X914820Y680046D01*
X884880Y797286D02*
X884880Y824766D01*
X823920Y824766D02*
X823920Y797286D01*
X884880Y797286D01*
X914820Y797286D01*
X884880Y824766D02*
X879800Y829846D01*
X829000Y829846D02*
X823920Y824766D01*
X829000Y829846D02*
X879800Y829846D01*
X884880Y824766D02*
X823920Y824766D01*
X793980Y797286D02*
X793980Y746106D01*
X793980Y724516D02*
X793980Y680046D01*
X914820Y680046D02*
X914820Y680066D01*
X914820Y699116D02*
X914820Y797286D01*
D10*
X829632Y699341D02*
X827725Y697434D01*
X829632Y699341D02*
X833445Y699341D01*
X835352Y697434D01*
X835352Y695528D01*
X833445Y693621D01*
X831538Y693621D01*
X833445Y693621D02*
X835352Y691714D01*
X835352Y689808D01*
X833445Y687901D01*
X829632Y687901D01*
X827725Y689808D01*
X839419Y684088D02*
X843232Y687901D01*
X843232Y689808D01*
X841326Y689808D01*
X841326Y687901D01*
X843232Y687901D01*
X847215Y699341D02*
X854841Y699341D01*
X847215Y699341D02*
X847215Y693621D01*
X851028Y695528D01*
X852935Y695528D01*
X854841Y693621D01*
X854841Y689808D01*
X852935Y687901D01*
X849122Y687901D01*
X847215Y689808D01*
X858909Y687901D02*
X858909Y695528D01*
X860816Y695528D01*
X862722Y693621D01*
X862722Y687901D01*
X862722Y693621D02*
X864629Y695528D01*
X866535Y693621D01*
X866535Y687901D01*
X870603Y687901D02*
X870603Y695528D01*
X872510Y695528D01*
X874416Y693621D01*
X874416Y687901D01*
X874416Y693621D02*
X876323Y695528D01*
X878229Y693621D01*
X878229Y687901D01*
D16*
X783745Y639892D02*
X781075Y637223D01*
X781075Y631884D01*
X783745Y629215D01*
X794422Y629215D01*
X797091Y631884D01*
X797091Y637223D01*
X794422Y639892D01*
X797091Y650925D02*
X781075Y650925D01*
X781075Y645587D02*
X781075Y656264D01*
X781075Y669966D02*
X797091Y669966D01*
X789083Y661958D02*
X781075Y669966D01*
X789083Y672635D02*
X789083Y661958D01*
D12*
X645820Y797286D02*
X615880Y797286D01*
X615880Y680046D02*
X736720Y680046D01*
X706780Y797286D02*
X706780Y824766D01*
X645820Y824766D02*
X645820Y797286D01*
X706780Y797286D01*
X736720Y797286D01*
X706780Y824766D02*
X701700Y829846D01*
X650900Y829846D02*
X645820Y824766D01*
X650900Y829846D02*
X701700Y829846D01*
X706780Y824766D02*
X645820Y824766D01*
X615880Y797286D02*
X615880Y746106D01*
X615880Y724516D02*
X615880Y680046D01*
X736720Y680046D02*
X736720Y680066D01*
X736720Y699116D02*
X736720Y797286D01*
D10*
X651532Y699341D02*
X649625Y697434D01*
X651532Y699341D02*
X655345Y699341D01*
X657252Y697434D01*
X657252Y695528D01*
X655345Y693621D01*
X653438Y693621D01*
X655345Y693621D02*
X657252Y691714D01*
X657252Y689808D01*
X655345Y687901D01*
X651532Y687901D01*
X649625Y689808D01*
X661319Y684088D02*
X665132Y687901D01*
X665132Y689808D01*
X663226Y689808D01*
X663226Y687901D01*
X665132Y687901D01*
X669115Y699341D02*
X676741Y699341D01*
X669115Y699341D02*
X669115Y693621D01*
X672928Y695528D01*
X674835Y695528D01*
X676741Y693621D01*
X676741Y689808D01*
X674835Y687901D01*
X671022Y687901D01*
X669115Y689808D01*
X680809Y687901D02*
X680809Y695528D01*
X682716Y695528D01*
X684622Y693621D01*
X684622Y687901D01*
X684622Y693621D02*
X686529Y695528D01*
X688435Y693621D01*
X688435Y687901D01*
X692503Y687901D02*
X692503Y695528D01*
X694410Y695528D01*
X696316Y693621D01*
X696316Y687901D01*
X696316Y693621D02*
X698223Y695528D01*
X700129Y693621D01*
X700129Y687901D01*
D16*
X612535Y643787D02*
X609865Y641118D01*
X609865Y635780D01*
X612535Y633110D01*
X623212Y633110D01*
X625881Y635780D01*
X625881Y641118D01*
X623212Y643787D01*
X625881Y654820D02*
X609865Y654820D01*
X609865Y649482D02*
X609865Y660159D01*
X612535Y665853D02*
X609865Y668523D01*
X609865Y673861D01*
X612535Y676531D01*
X615204Y676531D01*
X617873Y673861D01*
X617873Y671192D01*
X617873Y673861D02*
X620542Y676531D01*
X623212Y676531D01*
X625881Y673861D01*
X625881Y668523D01*
X623212Y665853D01*
D12*
X512170Y797286D02*
X482230Y797286D01*
X482230Y680046D02*
X603070Y680046D01*
X573130Y797286D02*
X573130Y824766D01*
X512170Y824766D02*
X512170Y797286D01*
X573130Y797286D01*
X603070Y797286D01*
X573130Y824766D02*
X568050Y829846D01*
X517250Y829846D02*
X512170Y824766D01*
X517250Y829846D02*
X568050Y829846D01*
X573130Y824766D02*
X512170Y824766D01*
X482230Y797286D02*
X482230Y746106D01*
X482230Y724516D02*
X482230Y680046D01*
X603070Y680046D02*
X603070Y680066D01*
X603070Y699116D02*
X603070Y797286D01*
D10*
X517882Y699341D02*
X515975Y697434D01*
X517882Y699341D02*
X521695Y699341D01*
X523602Y697434D01*
X523602Y695528D01*
X521695Y693621D01*
X519788Y693621D01*
X521695Y693621D02*
X523602Y691714D01*
X523602Y689808D01*
X521695Y687901D01*
X517882Y687901D01*
X515975Y689808D01*
X527669Y684088D02*
X531482Y687901D01*
X531482Y689808D01*
X529576Y689808D01*
X529576Y687901D01*
X531482Y687901D01*
X535465Y699341D02*
X543091Y699341D01*
X535465Y699341D02*
X535465Y693621D01*
X539278Y695528D01*
X541185Y695528D01*
X543091Y693621D01*
X543091Y689808D01*
X541185Y687901D01*
X537372Y687901D01*
X535465Y689808D01*
X547159Y687901D02*
X547159Y695528D01*
X549066Y695528D01*
X550972Y693621D01*
X550972Y687901D01*
X550972Y693621D02*
X552879Y695528D01*
X554785Y693621D01*
X554785Y687901D01*
X558853Y687901D02*
X558853Y695528D01*
X560760Y695528D01*
X562666Y693621D01*
X562666Y687901D01*
X562666Y693621D02*
X564573Y695528D01*
X566479Y693621D01*
X566479Y687901D01*
D16*
X480155Y636167D02*
X477485Y633498D01*
X477485Y628160D01*
X480155Y625490D01*
X490832Y625490D01*
X493501Y628160D01*
X493501Y633498D01*
X490832Y636167D01*
X493501Y647200D02*
X477485Y647200D01*
X477485Y641862D02*
X477485Y652539D01*
X493501Y658233D02*
X493501Y668911D01*
X482824Y668911D02*
X493501Y658233D01*
X482824Y668911D02*
X480155Y668911D01*
X477485Y666241D01*
X477485Y660903D01*
X480155Y658233D01*
D12*
X553149Y645689D02*
X553149Y639588D01*
X553149Y645689D02*
X556200Y645689D01*
X557217Y644672D01*
X557217Y642639D01*
X556200Y641622D01*
X553149Y641622D01*
X555183Y641622D02*
X557217Y639588D01*
X560166Y639588D02*
X564233Y639588D01*
X560166Y639588D02*
X564233Y643655D01*
X564233Y644672D01*
X563216Y645689D01*
X561182Y645689D01*
X560166Y644672D01*
X523240Y676926D02*
X523140Y676924D01*
X523041Y676918D01*
X522941Y676908D01*
X522843Y676895D01*
X522744Y676877D01*
X522647Y676856D01*
X522551Y676831D01*
X522455Y676802D01*
X522361Y676769D01*
X522268Y676733D01*
X522177Y676693D01*
X522087Y676649D01*
X521999Y676602D01*
X521913Y676552D01*
X521829Y676498D01*
X521747Y676441D01*
X521668Y676381D01*
X521590Y676317D01*
X521516Y676251D01*
X521444Y676182D01*
X521375Y676110D01*
X521309Y676036D01*
X521245Y675958D01*
X521185Y675879D01*
X521128Y675797D01*
X521074Y675713D01*
X521024Y675627D01*
X520977Y675539D01*
X520933Y675449D01*
X520893Y675358D01*
X520857Y675265D01*
X520824Y675171D01*
X520795Y675075D01*
X520770Y674979D01*
X520749Y674882D01*
X520731Y674783D01*
X520718Y674685D01*
X520708Y674585D01*
X520702Y674486D01*
X520700Y674386D01*
X520700Y659146D02*
X520702Y659046D01*
X520708Y658947D01*
X520718Y658847D01*
X520731Y658749D01*
X520749Y658650D01*
X520770Y658553D01*
X520795Y658457D01*
X520824Y658361D01*
X520857Y658267D01*
X520893Y658174D01*
X520933Y658083D01*
X520977Y657993D01*
X521024Y657905D01*
X521074Y657819D01*
X521128Y657735D01*
X521185Y657653D01*
X521245Y657574D01*
X521309Y657496D01*
X521375Y657422D01*
X521444Y657350D01*
X521516Y657281D01*
X521590Y657215D01*
X521668Y657151D01*
X521747Y657091D01*
X521829Y657034D01*
X521913Y656980D01*
X521999Y656930D01*
X522087Y656883D01*
X522177Y656839D01*
X522268Y656799D01*
X522361Y656763D01*
X522455Y656730D01*
X522551Y656701D01*
X522647Y656676D01*
X522744Y656655D01*
X522843Y656637D01*
X522941Y656624D01*
X523041Y656614D01*
X523140Y656608D01*
X523240Y656606D01*
X568960Y656606D02*
X569060Y656608D01*
X569159Y656614D01*
X569259Y656624D01*
X569357Y656637D01*
X569456Y656655D01*
X569553Y656676D01*
X569649Y656701D01*
X569745Y656730D01*
X569839Y656763D01*
X569932Y656799D01*
X570023Y656839D01*
X570113Y656883D01*
X570201Y656930D01*
X570287Y656980D01*
X570371Y657034D01*
X570453Y657091D01*
X570532Y657151D01*
X570610Y657215D01*
X570684Y657281D01*
X570756Y657350D01*
X570825Y657422D01*
X570891Y657496D01*
X570955Y657574D01*
X571015Y657653D01*
X571072Y657735D01*
X571126Y657819D01*
X571176Y657905D01*
X571223Y657993D01*
X571267Y658083D01*
X571307Y658174D01*
X571343Y658267D01*
X571376Y658361D01*
X571405Y658457D01*
X571430Y658553D01*
X571451Y658650D01*
X571469Y658749D01*
X571482Y658847D01*
X571492Y658947D01*
X571498Y659046D01*
X571500Y659146D01*
X571500Y674386D02*
X571498Y674486D01*
X571492Y674585D01*
X571482Y674685D01*
X571469Y674783D01*
X571451Y674882D01*
X571430Y674979D01*
X571405Y675075D01*
X571376Y675171D01*
X571343Y675265D01*
X571307Y675358D01*
X571267Y675449D01*
X571223Y675539D01*
X571176Y675627D01*
X571126Y675713D01*
X571072Y675797D01*
X571015Y675879D01*
X570955Y675958D01*
X570891Y676036D01*
X570825Y676110D01*
X570756Y676182D01*
X570684Y676251D01*
X570610Y676317D01*
X570532Y676381D01*
X570453Y676441D01*
X570371Y676498D01*
X570287Y676552D01*
X570201Y676602D01*
X570113Y676649D01*
X570023Y676693D01*
X569932Y676733D01*
X569839Y676769D01*
X569745Y676802D01*
X569649Y676831D01*
X569553Y676856D01*
X569456Y676877D01*
X569357Y676895D01*
X569259Y676908D01*
X569159Y676918D01*
X569060Y676924D01*
X568960Y676926D01*
X520700Y674386D02*
X520700Y659146D01*
X523240Y676926D02*
X527050Y676926D01*
X528320Y675656D01*
X527050Y656606D02*
X523240Y656606D01*
X527050Y656606D02*
X528320Y657876D01*
X563880Y675656D02*
X565150Y676926D01*
X563880Y675656D02*
X528320Y675656D01*
X563880Y657876D02*
X565150Y656606D01*
X563880Y657876D02*
X528320Y657876D01*
X565150Y676926D02*
X568960Y676926D01*
X568960Y656606D02*
X565150Y656606D01*
X571500Y659146D02*
X571500Y674386D01*
D17*
X573405Y666766D03*
X518795Y666766D03*
D12*
X551879Y617749D02*
X551879Y611648D01*
X551879Y617749D02*
X554930Y617749D01*
X555947Y616732D01*
X555947Y614699D01*
X554930Y613682D01*
X551879Y613682D01*
X553913Y613682D02*
X555947Y611648D01*
X561946Y611648D02*
X561946Y617749D01*
X558896Y614699D01*
X562963Y614699D01*
X753127Y569473D02*
X753127Y563372D01*
X753127Y569473D02*
X756177Y569473D01*
X757194Y568456D01*
X757194Y566423D01*
X756177Y565406D01*
X753127Y565406D01*
X755161Y565406D02*
X757194Y563372D01*
X760143Y567439D02*
X762177Y569473D01*
X762177Y563372D01*
X760143Y563372D02*
X764211Y563372D01*
X767160Y567439D02*
X769193Y569473D01*
X769193Y563372D01*
X767160Y563372D02*
X771227Y563372D01*
X779256Y563372D02*
X779256Y569473D01*
X782307Y569473D01*
X783323Y568456D01*
X783323Y566423D01*
X782307Y565406D01*
X779256Y565406D01*
X781290Y565406D02*
X783323Y563372D01*
X786272Y567439D02*
X788306Y569473D01*
X788306Y563372D01*
X786272Y563372D02*
X790340Y563372D01*
X793289Y563372D02*
X797356Y563372D01*
X793289Y563372D02*
X797356Y567439D01*
X797356Y568456D01*
X796339Y569473D01*
X794306Y569473D01*
X793289Y568456D01*
X700516Y569473D02*
X700516Y563372D01*
X700516Y569473D02*
X703567Y569473D01*
X704583Y568456D01*
X704583Y566423D01*
X703567Y565406D01*
X700516Y565406D01*
X702550Y565406D02*
X704583Y563372D01*
X707532Y567439D02*
X709566Y569473D01*
X709566Y563372D01*
X707532Y563372D02*
X711600Y563372D01*
X714549Y568456D02*
X715566Y569473D01*
X717599Y569473D01*
X718616Y568456D01*
X718616Y567439D01*
X717599Y566423D01*
X716582Y566423D01*
X717599Y566423D02*
X718616Y565406D01*
X718616Y564389D01*
X717599Y563372D01*
X715566Y563372D01*
X714549Y564389D01*
X725187Y563372D02*
X725187Y569473D01*
X728237Y569473D01*
X729254Y568456D01*
X729254Y566423D01*
X728237Y565406D01*
X725187Y565406D01*
X727221Y565406D02*
X729254Y563372D01*
X732203Y567439D02*
X734237Y569473D01*
X734237Y563372D01*
X732203Y563372D02*
X736271Y563372D01*
X742270Y563372D02*
X742270Y569473D01*
X739220Y566423D01*
X743287Y566423D01*
X852203Y638318D02*
X852203Y644419D01*
X855253Y644419D01*
X856270Y643402D01*
X856270Y641369D01*
X855253Y640352D01*
X852203Y640352D01*
X854237Y640352D02*
X856270Y638318D01*
X859219Y642385D02*
X861253Y644419D01*
X861253Y638318D01*
X859219Y638318D02*
X863287Y638318D01*
X866236Y644419D02*
X870303Y644419D01*
X866236Y644419D02*
X866236Y641369D01*
X868269Y642385D01*
X869286Y642385D01*
X870303Y641369D01*
X870303Y639335D01*
X869286Y638318D01*
X867252Y638318D01*
X866236Y639335D01*
X828040Y676926D02*
X827940Y676924D01*
X827841Y676918D01*
X827741Y676908D01*
X827643Y676895D01*
X827544Y676877D01*
X827447Y676856D01*
X827351Y676831D01*
X827255Y676802D01*
X827161Y676769D01*
X827068Y676733D01*
X826977Y676693D01*
X826887Y676649D01*
X826799Y676602D01*
X826713Y676552D01*
X826629Y676498D01*
X826547Y676441D01*
X826468Y676381D01*
X826390Y676317D01*
X826316Y676251D01*
X826244Y676182D01*
X826175Y676110D01*
X826109Y676036D01*
X826045Y675958D01*
X825985Y675879D01*
X825928Y675797D01*
X825874Y675713D01*
X825824Y675627D01*
X825777Y675539D01*
X825733Y675449D01*
X825693Y675358D01*
X825657Y675265D01*
X825624Y675171D01*
X825595Y675075D01*
X825570Y674979D01*
X825549Y674882D01*
X825531Y674783D01*
X825518Y674685D01*
X825508Y674585D01*
X825502Y674486D01*
X825500Y674386D01*
X825500Y659146D02*
X825502Y659046D01*
X825508Y658947D01*
X825518Y658847D01*
X825531Y658749D01*
X825549Y658650D01*
X825570Y658553D01*
X825595Y658457D01*
X825624Y658361D01*
X825657Y658267D01*
X825693Y658174D01*
X825733Y658083D01*
X825777Y657993D01*
X825824Y657905D01*
X825874Y657819D01*
X825928Y657735D01*
X825985Y657653D01*
X826045Y657574D01*
X826109Y657496D01*
X826175Y657422D01*
X826244Y657350D01*
X826316Y657281D01*
X826390Y657215D01*
X826468Y657151D01*
X826547Y657091D01*
X826629Y657034D01*
X826713Y656980D01*
X826799Y656930D01*
X826887Y656883D01*
X826977Y656839D01*
X827068Y656799D01*
X827161Y656763D01*
X827255Y656730D01*
X827351Y656701D01*
X827447Y656676D01*
X827544Y656655D01*
X827643Y656637D01*
X827741Y656624D01*
X827841Y656614D01*
X827940Y656608D01*
X828040Y656606D01*
X873760Y656606D02*
X873860Y656608D01*
X873959Y656614D01*
X874059Y656624D01*
X874157Y656637D01*
X874256Y656655D01*
X874353Y656676D01*
X874449Y656701D01*
X874545Y656730D01*
X874639Y656763D01*
X874732Y656799D01*
X874823Y656839D01*
X874913Y656883D01*
X875001Y656930D01*
X875087Y656980D01*
X875171Y657034D01*
X875253Y657091D01*
X875332Y657151D01*
X875410Y657215D01*
X875484Y657281D01*
X875556Y657350D01*
X875625Y657422D01*
X875691Y657496D01*
X875755Y657574D01*
X875815Y657653D01*
X875872Y657735D01*
X875926Y657819D01*
X875976Y657905D01*
X876023Y657993D01*
X876067Y658083D01*
X876107Y658174D01*
X876143Y658267D01*
X876176Y658361D01*
X876205Y658457D01*
X876230Y658553D01*
X876251Y658650D01*
X876269Y658749D01*
X876282Y658847D01*
X876292Y658947D01*
X876298Y659046D01*
X876300Y659146D01*
X876300Y674386D02*
X876298Y674486D01*
X876292Y674585D01*
X876282Y674685D01*
X876269Y674783D01*
X876251Y674882D01*
X876230Y674979D01*
X876205Y675075D01*
X876176Y675171D01*
X876143Y675265D01*
X876107Y675358D01*
X876067Y675449D01*
X876023Y675539D01*
X875976Y675627D01*
X875926Y675713D01*
X875872Y675797D01*
X875815Y675879D01*
X875755Y675958D01*
X875691Y676036D01*
X875625Y676110D01*
X875556Y676182D01*
X875484Y676251D01*
X875410Y676317D01*
X875332Y676381D01*
X875253Y676441D01*
X875171Y676498D01*
X875087Y676552D01*
X875001Y676602D01*
X874913Y676649D01*
X874823Y676693D01*
X874732Y676733D01*
X874639Y676769D01*
X874545Y676802D01*
X874449Y676831D01*
X874353Y676856D01*
X874256Y676877D01*
X874157Y676895D01*
X874059Y676908D01*
X873959Y676918D01*
X873860Y676924D01*
X873760Y676926D01*
X825500Y674386D02*
X825500Y659146D01*
X828040Y676926D02*
X831850Y676926D01*
X833120Y675656D01*
X831850Y656606D02*
X828040Y656606D01*
X831850Y656606D02*
X833120Y657876D01*
X868680Y675656D02*
X869950Y676926D01*
X868680Y675656D02*
X833120Y675656D01*
X868680Y657876D02*
X869950Y656606D01*
X868680Y657876D02*
X833120Y657876D01*
X869950Y676926D02*
X873760Y676926D01*
X873760Y656606D02*
X869950Y656606D01*
X876300Y659146D02*
X876300Y674386D01*
D17*
X878205Y666766D03*
X823595Y666766D03*
D12*
X854743Y589809D02*
X854743Y583708D01*
X854743Y589809D02*
X857793Y589809D01*
X858810Y588792D01*
X858810Y586759D01*
X857793Y585742D01*
X854743Y585742D01*
X856777Y585742D02*
X858810Y583708D01*
X861759Y587775D02*
X863793Y589809D01*
X863793Y583708D01*
X861759Y583708D02*
X865827Y583708D01*
X868776Y589809D02*
X872843Y589809D01*
X872843Y588792D01*
X868776Y584725D01*
X868776Y583708D01*
X412179Y640858D02*
X412179Y646959D01*
X415230Y646959D01*
X416247Y645942D01*
X416247Y643909D01*
X415230Y642892D01*
X412179Y642892D01*
X414213Y642892D02*
X416247Y640858D01*
X419196Y644925D02*
X421229Y646959D01*
X421229Y640858D01*
X419196Y640858D02*
X423263Y640858D01*
X383540Y676926D02*
X383440Y676924D01*
X383341Y676918D01*
X383241Y676908D01*
X383143Y676895D01*
X383044Y676877D01*
X382947Y676856D01*
X382851Y676831D01*
X382755Y676802D01*
X382661Y676769D01*
X382568Y676733D01*
X382477Y676693D01*
X382387Y676649D01*
X382299Y676602D01*
X382213Y676552D01*
X382129Y676498D01*
X382047Y676441D01*
X381968Y676381D01*
X381890Y676317D01*
X381816Y676251D01*
X381744Y676182D01*
X381675Y676110D01*
X381609Y676036D01*
X381545Y675958D01*
X381485Y675879D01*
X381428Y675797D01*
X381374Y675713D01*
X381324Y675627D01*
X381277Y675539D01*
X381233Y675449D01*
X381193Y675358D01*
X381157Y675265D01*
X381124Y675171D01*
X381095Y675075D01*
X381070Y674979D01*
X381049Y674882D01*
X381031Y674783D01*
X381018Y674685D01*
X381008Y674585D01*
X381002Y674486D01*
X381000Y674386D01*
X381000Y659146D02*
X381002Y659046D01*
X381008Y658947D01*
X381018Y658847D01*
X381031Y658749D01*
X381049Y658650D01*
X381070Y658553D01*
X381095Y658457D01*
X381124Y658361D01*
X381157Y658267D01*
X381193Y658174D01*
X381233Y658083D01*
X381277Y657993D01*
X381324Y657905D01*
X381374Y657819D01*
X381428Y657735D01*
X381485Y657653D01*
X381545Y657574D01*
X381609Y657496D01*
X381675Y657422D01*
X381744Y657350D01*
X381816Y657281D01*
X381890Y657215D01*
X381968Y657151D01*
X382047Y657091D01*
X382129Y657034D01*
X382213Y656980D01*
X382299Y656930D01*
X382387Y656883D01*
X382477Y656839D01*
X382568Y656799D01*
X382661Y656763D01*
X382755Y656730D01*
X382851Y656701D01*
X382947Y656676D01*
X383044Y656655D01*
X383143Y656637D01*
X383241Y656624D01*
X383341Y656614D01*
X383440Y656608D01*
X383540Y656606D01*
X429260Y656606D02*
X429360Y656608D01*
X429459Y656614D01*
X429559Y656624D01*
X429657Y656637D01*
X429756Y656655D01*
X429853Y656676D01*
X429949Y656701D01*
X430045Y656730D01*
X430139Y656763D01*
X430232Y656799D01*
X430323Y656839D01*
X430413Y656883D01*
X430501Y656930D01*
X430587Y656980D01*
X430671Y657034D01*
X430753Y657091D01*
X430832Y657151D01*
X430910Y657215D01*
X430984Y657281D01*
X431056Y657350D01*
X431125Y657422D01*
X431191Y657496D01*
X431255Y657574D01*
X431315Y657653D01*
X431372Y657735D01*
X431426Y657819D01*
X431476Y657905D01*
X431523Y657993D01*
X431567Y658083D01*
X431607Y658174D01*
X431643Y658267D01*
X431676Y658361D01*
X431705Y658457D01*
X431730Y658553D01*
X431751Y658650D01*
X431769Y658749D01*
X431782Y658847D01*
X431792Y658947D01*
X431798Y659046D01*
X431800Y659146D01*
X431800Y674386D02*
X431798Y674486D01*
X431792Y674585D01*
X431782Y674685D01*
X431769Y674783D01*
X431751Y674882D01*
X431730Y674979D01*
X431705Y675075D01*
X431676Y675171D01*
X431643Y675265D01*
X431607Y675358D01*
X431567Y675449D01*
X431523Y675539D01*
X431476Y675627D01*
X431426Y675713D01*
X431372Y675797D01*
X431315Y675879D01*
X431255Y675958D01*
X431191Y676036D01*
X431125Y676110D01*
X431056Y676182D01*
X430984Y676251D01*
X430910Y676317D01*
X430832Y676381D01*
X430753Y676441D01*
X430671Y676498D01*
X430587Y676552D01*
X430501Y676602D01*
X430413Y676649D01*
X430323Y676693D01*
X430232Y676733D01*
X430139Y676769D01*
X430045Y676802D01*
X429949Y676831D01*
X429853Y676856D01*
X429756Y676877D01*
X429657Y676895D01*
X429559Y676908D01*
X429459Y676918D01*
X429360Y676924D01*
X429260Y676926D01*
X381000Y674386D02*
X381000Y659146D01*
X383540Y676926D02*
X387350Y676926D01*
X388620Y675656D01*
X387350Y656606D02*
X383540Y656606D01*
X387350Y656606D02*
X388620Y657876D01*
X424180Y675656D02*
X425450Y676926D01*
X424180Y675656D02*
X388620Y675656D01*
X424180Y657876D02*
X425450Y656606D01*
X424180Y657876D02*
X388620Y657876D01*
X425450Y676926D02*
X429260Y676926D01*
X429260Y656606D02*
X425450Y656606D01*
X431800Y659146D02*
X431800Y674386D01*
D17*
X433705Y666766D03*
X379095Y666766D03*
D12*
X384239Y606319D02*
X384239Y600218D01*
X384239Y606319D02*
X387290Y606319D01*
X388307Y605302D01*
X388307Y603269D01*
X387290Y602252D01*
X384239Y602252D01*
X386273Y602252D02*
X388307Y600218D01*
X393289Y605302D02*
X395323Y606319D01*
X393289Y605302D02*
X391256Y603269D01*
X391256Y601235D01*
X392272Y600218D01*
X394306Y600218D01*
X395323Y601235D01*
X395323Y602252D01*
X394306Y603269D01*
X391256Y603269D01*
X403352Y526293D02*
X403352Y520192D01*
X403352Y526293D02*
X406403Y526293D01*
X407419Y525276D01*
X407419Y523243D01*
X406403Y522226D01*
X403352Y522226D01*
X405386Y522226D02*
X407419Y520192D01*
X410368Y524259D02*
X412402Y526293D01*
X412402Y520192D01*
X410368Y520192D02*
X414436Y520192D01*
X417385Y521209D02*
X417385Y525276D01*
X418402Y526293D01*
X420435Y526293D01*
X421452Y525276D01*
X421452Y521209D01*
X420435Y520192D01*
X418402Y520192D01*
X417385Y521209D01*
X421452Y525276D01*
X381220Y797286D02*
X351280Y797286D01*
X351280Y680046D02*
X472120Y680046D01*
X442180Y797286D02*
X442180Y824766D01*
X381220Y824766D02*
X381220Y797286D01*
X442180Y797286D01*
X472120Y797286D01*
X442180Y824766D02*
X437100Y829846D01*
X386300Y829846D02*
X381220Y824766D01*
X386300Y829846D02*
X437100Y829846D01*
X442180Y824766D02*
X381220Y824766D01*
X351280Y797286D02*
X351280Y746106D01*
X351280Y724516D02*
X351280Y680046D01*
X472120Y680046D02*
X472120Y680066D01*
X472120Y699116D02*
X472120Y797286D01*
D10*
X386932Y699341D02*
X385025Y697434D01*
X386932Y699341D02*
X390745Y699341D01*
X392652Y697434D01*
X392652Y695528D01*
X390745Y693621D01*
X388838Y693621D01*
X390745Y693621D02*
X392652Y691714D01*
X392652Y689808D01*
X390745Y687901D01*
X386932Y687901D01*
X385025Y689808D01*
X396719Y684088D02*
X400532Y687901D01*
X400532Y689808D01*
X398626Y689808D01*
X398626Y687901D01*
X400532Y687901D01*
X404515Y699341D02*
X412141Y699341D01*
X404515Y699341D02*
X404515Y693621D01*
X408328Y695528D01*
X410235Y695528D01*
X412141Y693621D01*
X412141Y689808D01*
X410235Y687901D01*
X406422Y687901D01*
X404515Y689808D01*
X416209Y687901D02*
X416209Y695528D01*
X418116Y695528D01*
X420022Y693621D01*
X420022Y687901D01*
X420022Y693621D02*
X421929Y695528D01*
X423835Y693621D01*
X423835Y687901D01*
X427903Y687901D02*
X427903Y695528D01*
X429810Y695528D01*
X431716Y693621D01*
X431716Y687901D01*
X431716Y693621D02*
X433623Y695528D01*
X435529Y693621D01*
X435529Y687901D01*
D16*
X337775Y641247D02*
X335105Y638578D01*
X335105Y633240D01*
X337775Y630570D01*
X348452Y630570D01*
X351121Y633240D01*
X351121Y638578D01*
X348452Y641247D01*
X351121Y652280D02*
X335105Y652280D01*
X335105Y646942D02*
X335105Y657619D01*
X340444Y663313D02*
X335105Y668652D01*
X351121Y668652D01*
X351121Y663313D02*
X351121Y673991D01*
D12*
X676943Y646959D02*
X676943Y640858D01*
X676943Y646959D02*
X679993Y646959D01*
X681010Y645942D01*
X681010Y643909D01*
X679993Y642892D01*
X676943Y642892D01*
X678977Y642892D02*
X681010Y640858D01*
X683959Y640858D02*
X688027Y640858D01*
X688027Y644925D02*
X683959Y640858D01*
X688027Y644925D02*
X688027Y645942D01*
X687010Y646959D01*
X684976Y646959D01*
X683959Y645942D01*
X690976Y644925D02*
X693009Y646959D01*
X693009Y640858D01*
X690976Y640858D02*
X695043Y640858D01*
X650240Y676926D02*
X650140Y676924D01*
X650041Y676918D01*
X649941Y676908D01*
X649843Y676895D01*
X649744Y676877D01*
X649647Y676856D01*
X649551Y676831D01*
X649455Y676802D01*
X649361Y676769D01*
X649268Y676733D01*
X649177Y676693D01*
X649087Y676649D01*
X648999Y676602D01*
X648913Y676552D01*
X648829Y676498D01*
X648747Y676441D01*
X648668Y676381D01*
X648590Y676317D01*
X648516Y676251D01*
X648444Y676182D01*
X648375Y676110D01*
X648309Y676036D01*
X648245Y675958D01*
X648185Y675879D01*
X648128Y675797D01*
X648074Y675713D01*
X648024Y675627D01*
X647977Y675539D01*
X647933Y675449D01*
X647893Y675358D01*
X647857Y675265D01*
X647824Y675171D01*
X647795Y675075D01*
X647770Y674979D01*
X647749Y674882D01*
X647731Y674783D01*
X647718Y674685D01*
X647708Y674585D01*
X647702Y674486D01*
X647700Y674386D01*
X647700Y659146D02*
X647702Y659046D01*
X647708Y658947D01*
X647718Y658847D01*
X647731Y658749D01*
X647749Y658650D01*
X647770Y658553D01*
X647795Y658457D01*
X647824Y658361D01*
X647857Y658267D01*
X647893Y658174D01*
X647933Y658083D01*
X647977Y657993D01*
X648024Y657905D01*
X648074Y657819D01*
X648128Y657735D01*
X648185Y657653D01*
X648245Y657574D01*
X648309Y657496D01*
X648375Y657422D01*
X648444Y657350D01*
X648516Y657281D01*
X648590Y657215D01*
X648668Y657151D01*
X648747Y657091D01*
X648829Y657034D01*
X648913Y656980D01*
X648999Y656930D01*
X649087Y656883D01*
X649177Y656839D01*
X649268Y656799D01*
X649361Y656763D01*
X649455Y656730D01*
X649551Y656701D01*
X649647Y656676D01*
X649744Y656655D01*
X649843Y656637D01*
X649941Y656624D01*
X650041Y656614D01*
X650140Y656608D01*
X650240Y656606D01*
X695960Y656606D02*
X696060Y656608D01*
X696159Y656614D01*
X696259Y656624D01*
X696357Y656637D01*
X696456Y656655D01*
X696553Y656676D01*
X696649Y656701D01*
X696745Y656730D01*
X696839Y656763D01*
X696932Y656799D01*
X697023Y656839D01*
X697113Y656883D01*
X697201Y656930D01*
X697287Y656980D01*
X697371Y657034D01*
X697453Y657091D01*
X697532Y657151D01*
X697610Y657215D01*
X697684Y657281D01*
X697756Y657350D01*
X697825Y657422D01*
X697891Y657496D01*
X697955Y657574D01*
X698015Y657653D01*
X698072Y657735D01*
X698126Y657819D01*
X698176Y657905D01*
X698223Y657993D01*
X698267Y658083D01*
X698307Y658174D01*
X698343Y658267D01*
X698376Y658361D01*
X698405Y658457D01*
X698430Y658553D01*
X698451Y658650D01*
X698469Y658749D01*
X698482Y658847D01*
X698492Y658947D01*
X698498Y659046D01*
X698500Y659146D01*
X698500Y674386D02*
X698498Y674486D01*
X698492Y674585D01*
X698482Y674685D01*
X698469Y674783D01*
X698451Y674882D01*
X698430Y674979D01*
X698405Y675075D01*
X698376Y675171D01*
X698343Y675265D01*
X698307Y675358D01*
X698267Y675449D01*
X698223Y675539D01*
X698176Y675627D01*
X698126Y675713D01*
X698072Y675797D01*
X698015Y675879D01*
X697955Y675958D01*
X697891Y676036D01*
X697825Y676110D01*
X697756Y676182D01*
X697684Y676251D01*
X697610Y676317D01*
X697532Y676381D01*
X697453Y676441D01*
X697371Y676498D01*
X697287Y676552D01*
X697201Y676602D01*
X697113Y676649D01*
X697023Y676693D01*
X696932Y676733D01*
X696839Y676769D01*
X696745Y676802D01*
X696649Y676831D01*
X696553Y676856D01*
X696456Y676877D01*
X696357Y676895D01*
X696259Y676908D01*
X696159Y676918D01*
X696060Y676924D01*
X695960Y676926D01*
X647700Y674386D02*
X647700Y659146D01*
X650240Y676926D02*
X654050Y676926D01*
X655320Y675656D01*
X654050Y656606D02*
X650240Y656606D01*
X654050Y656606D02*
X655320Y657876D01*
X690880Y675656D02*
X692150Y676926D01*
X690880Y675656D02*
X655320Y675656D01*
X690880Y657876D02*
X692150Y656606D01*
X690880Y657876D02*
X655320Y657876D01*
X692150Y676926D02*
X695960Y676926D01*
X695960Y656606D02*
X692150Y656606D01*
X698500Y659146D02*
X698500Y674386D01*
D17*
X700405Y666766D03*
X645795Y666766D03*
D12*
X676943Y589809D02*
X676943Y583708D01*
X676943Y589809D02*
X679993Y589809D01*
X681010Y588792D01*
X681010Y586759D01*
X679993Y585742D01*
X676943Y585742D01*
X678977Y585742D02*
X681010Y583708D01*
X683959Y583708D02*
X688027Y583708D01*
X688027Y587775D02*
X683959Y583708D01*
X688027Y587775D02*
X688027Y588792D01*
X687010Y589809D01*
X684976Y589809D01*
X683959Y588792D01*
X690976Y588792D02*
X691992Y589809D01*
X694026Y589809D01*
X695043Y588792D01*
X695043Y587775D01*
X694026Y586759D01*
X693009Y586759D01*
X694026Y586759D02*
X695043Y585742D01*
X695043Y584725D01*
X694026Y583708D01*
X691992Y583708D01*
X690976Y584725D01*
D10*
X632100Y107466D02*
X80100Y107466D01*
X632100Y107466D02*
X632100Y587466D01*
X80100Y587466D01*
X80100Y107466D01*
D18*
X92214Y493521D02*
X100010Y493521D01*
X96112Y497419D02*
X96112Y489623D01*
X92214Y353821D02*
X100010Y353821D01*
D12*
X6710Y758066D02*
X6720Y758908D01*
X6751Y759749D01*
X6803Y760589D01*
X6875Y761427D01*
X6968Y762263D01*
X7081Y763097D01*
X7215Y763928D01*
X7369Y764756D01*
X7543Y765579D01*
X7738Y766398D01*
X7952Y767212D01*
X8187Y768020D01*
X8441Y768822D01*
X8714Y769618D01*
X9008Y770407D01*
X9320Y771188D01*
X9652Y771962D01*
X10002Y772727D01*
X10371Y773483D01*
X10759Y774230D01*
X11165Y774967D01*
X11588Y775695D01*
X12030Y776411D01*
X12489Y777117D01*
X12965Y777810D01*
X13458Y778493D01*
X13968Y779162D01*
X14493Y779819D01*
X15035Y780463D01*
X15593Y781094D01*
X16166Y781710D01*
X16753Y782313D01*
X17356Y782900D01*
X17972Y783473D01*
X18603Y784031D01*
X19247Y784573D01*
X19904Y785098D01*
X20573Y785608D01*
X21256Y786101D01*
X21949Y786577D01*
X22655Y787036D01*
X23371Y787478D01*
X24099Y787901D01*
X24836Y788307D01*
X25583Y788695D01*
X26339Y789064D01*
X27104Y789414D01*
X27878Y789746D01*
X28659Y790058D01*
X29448Y790352D01*
X30244Y790625D01*
X31046Y790879D01*
X31854Y791114D01*
X32668Y791328D01*
X33487Y791523D01*
X34310Y791697D01*
X35138Y791851D01*
X35969Y791985D01*
X36803Y792098D01*
X37639Y792191D01*
X38477Y792263D01*
X39317Y792315D01*
X40158Y792346D01*
X41000Y792356D01*
X41842Y792346D01*
X42683Y792315D01*
X43523Y792263D01*
X44361Y792191D01*
X45197Y792098D01*
X46031Y791985D01*
X46862Y791851D01*
X47690Y791697D01*
X48513Y791523D01*
X49332Y791328D01*
X50146Y791114D01*
X50954Y790879D01*
X51756Y790625D01*
X52552Y790352D01*
X53341Y790058D01*
X54122Y789746D01*
X54896Y789414D01*
X55661Y789064D01*
X56417Y788695D01*
X57164Y788307D01*
X57901Y787901D01*
X58629Y787478D01*
X59345Y787036D01*
X60051Y786577D01*
X60744Y786101D01*
X61427Y785608D01*
X62096Y785098D01*
X62753Y784573D01*
X63397Y784031D01*
X64028Y783473D01*
X64644Y782900D01*
X65247Y782313D01*
X65834Y781710D01*
X66407Y781094D01*
X66965Y780463D01*
X67507Y779819D01*
X68032Y779162D01*
X68542Y778493D01*
X69035Y777810D01*
X69511Y777117D01*
X69970Y776411D01*
X70412Y775695D01*
X70835Y774967D01*
X71241Y774230D01*
X71629Y773483D01*
X71998Y772727D01*
X72348Y771962D01*
X72680Y771188D01*
X72992Y770407D01*
X73286Y769618D01*
X73559Y768822D01*
X73813Y768020D01*
X74048Y767212D01*
X74262Y766398D01*
X74457Y765579D01*
X74631Y764756D01*
X74785Y763928D01*
X74919Y763097D01*
X75032Y762263D01*
X75125Y761427D01*
X75197Y760589D01*
X75249Y759749D01*
X75280Y758908D01*
X75290Y758066D01*
X75280Y757224D01*
X75249Y756383D01*
X75197Y755543D01*
X75125Y754705D01*
X75032Y753869D01*
X74919Y753035D01*
X74785Y752204D01*
X74631Y751376D01*
X74457Y750553D01*
X74262Y749734D01*
X74048Y748920D01*
X73813Y748112D01*
X73559Y747310D01*
X73286Y746514D01*
X72992Y745725D01*
X72680Y744944D01*
X72348Y744170D01*
X71998Y743405D01*
X71629Y742649D01*
X71241Y741902D01*
X70835Y741165D01*
X70412Y740437D01*
X69970Y739721D01*
X69511Y739015D01*
X69035Y738322D01*
X68542Y737639D01*
X68032Y736970D01*
X67507Y736313D01*
X66965Y735669D01*
X66407Y735038D01*
X65834Y734422D01*
X65247Y733819D01*
X64644Y733232D01*
X64028Y732659D01*
X63397Y732101D01*
X62753Y731559D01*
X62096Y731034D01*
X61427Y730524D01*
X60744Y730031D01*
X60051Y729555D01*
X59345Y729096D01*
X58629Y728654D01*
X57901Y728231D01*
X57164Y727825D01*
X56417Y727437D01*
X55661Y727068D01*
X54896Y726718D01*
X54122Y726386D01*
X53341Y726074D01*
X52552Y725780D01*
X51756Y725507D01*
X50954Y725253D01*
X50146Y725018D01*
X49332Y724804D01*
X48513Y724609D01*
X47690Y724435D01*
X46862Y724281D01*
X46031Y724147D01*
X45197Y724034D01*
X44361Y723941D01*
X43523Y723869D01*
X42683Y723817D01*
X41842Y723786D01*
X41000Y723776D01*
X40158Y723786D01*
X39317Y723817D01*
X38477Y723869D01*
X37639Y723941D01*
X36803Y724034D01*
X35969Y724147D01*
X35138Y724281D01*
X34310Y724435D01*
X33487Y724609D01*
X32668Y724804D01*
X31854Y725018D01*
X31046Y725253D01*
X30244Y725507D01*
X29448Y725780D01*
X28659Y726074D01*
X27878Y726386D01*
X27104Y726718D01*
X26339Y727068D01*
X25583Y727437D01*
X24836Y727825D01*
X24099Y728231D01*
X23371Y728654D01*
X22655Y729096D01*
X21949Y729555D01*
X21256Y730031D01*
X20573Y730524D01*
X19904Y731034D01*
X19247Y731559D01*
X18603Y732101D01*
X17972Y732659D01*
X17356Y733232D01*
X16753Y733819D01*
X16166Y734422D01*
X15593Y735038D01*
X15035Y735669D01*
X14493Y736313D01*
X13968Y736970D01*
X13458Y737639D01*
X12965Y738322D01*
X12489Y739015D01*
X12030Y739721D01*
X11588Y740437D01*
X11165Y741165D01*
X10759Y741902D01*
X10371Y742649D01*
X10002Y743405D01*
X9652Y744170D01*
X9320Y744944D01*
X9008Y745725D01*
X8714Y746514D01*
X8441Y747310D01*
X8187Y748112D01*
X7952Y748920D01*
X7738Y749734D01*
X7543Y750553D01*
X7369Y751376D01*
X7215Y752204D01*
X7081Y753035D01*
X6968Y753869D01*
X6875Y754705D01*
X6803Y755543D01*
X6751Y756383D01*
X6720Y757224D01*
X6710Y758066D01*
D14*
X25000Y758066D02*
X25005Y758459D01*
X25019Y758851D01*
X25043Y759243D01*
X25077Y759634D01*
X25120Y760025D01*
X25173Y760414D01*
X25236Y760801D01*
X25307Y761187D01*
X25389Y761572D01*
X25479Y761954D01*
X25580Y762333D01*
X25689Y762711D01*
X25808Y763085D01*
X25935Y763456D01*
X26072Y763824D01*
X26218Y764189D01*
X26373Y764550D01*
X26536Y764907D01*
X26708Y765260D01*
X26889Y765608D01*
X27079Y765952D01*
X27276Y766292D01*
X27482Y766626D01*
X27696Y766955D01*
X27919Y767279D01*
X28149Y767597D01*
X28386Y767910D01*
X28632Y768216D01*
X28885Y768517D01*
X29145Y768811D01*
X29412Y769099D01*
X29686Y769380D01*
X29967Y769654D01*
X30255Y769921D01*
X30549Y770181D01*
X30850Y770434D01*
X31156Y770680D01*
X31469Y770917D01*
X31787Y771147D01*
X32111Y771370D01*
X32440Y771584D01*
X32774Y771790D01*
X33114Y771987D01*
X33458Y772177D01*
X33806Y772358D01*
X34159Y772530D01*
X34516Y772693D01*
X34877Y772848D01*
X35242Y772994D01*
X35610Y773131D01*
X35981Y773258D01*
X36355Y773377D01*
X36733Y773486D01*
X37112Y773587D01*
X37494Y773677D01*
X37879Y773759D01*
X38265Y773830D01*
X38652Y773893D01*
X39041Y773946D01*
X39432Y773989D01*
X39823Y774023D01*
X40215Y774047D01*
X40607Y774061D01*
X41000Y774066D01*
X41393Y774061D01*
X41785Y774047D01*
X42177Y774023D01*
X42568Y773989D01*
X42959Y773946D01*
X43348Y773893D01*
X43735Y773830D01*
X44121Y773759D01*
X44506Y773677D01*
X44888Y773587D01*
X45267Y773486D01*
X45645Y773377D01*
X46019Y773258D01*
X46390Y773131D01*
X46758Y772994D01*
X47123Y772848D01*
X47484Y772693D01*
X47841Y772530D01*
X48194Y772358D01*
X48542Y772177D01*
X48886Y771987D01*
X49226Y771790D01*
X49560Y771584D01*
X49889Y771370D01*
X50213Y771147D01*
X50531Y770917D01*
X50844Y770680D01*
X51150Y770434D01*
X51451Y770181D01*
X51745Y769921D01*
X52033Y769654D01*
X52314Y769380D01*
X52588Y769099D01*
X52855Y768811D01*
X53115Y768517D01*
X53368Y768216D01*
X53614Y767910D01*
X53851Y767597D01*
X54081Y767279D01*
X54304Y766955D01*
X54518Y766626D01*
X54724Y766292D01*
X54921Y765952D01*
X55111Y765608D01*
X55292Y765260D01*
X55464Y764907D01*
X55627Y764550D01*
X55782Y764189D01*
X55928Y763824D01*
X56065Y763456D01*
X56192Y763085D01*
X56311Y762711D01*
X56420Y762333D01*
X56521Y761954D01*
X56611Y761572D01*
X56693Y761187D01*
X56764Y760801D01*
X56827Y760414D01*
X56880Y760025D01*
X56923Y759634D01*
X56957Y759243D01*
X56981Y758851D01*
X56995Y758459D01*
X57000Y758066D01*
X56995Y757673D01*
X56981Y757281D01*
X56957Y756889D01*
X56923Y756498D01*
X56880Y756107D01*
X56827Y755718D01*
X56764Y755331D01*
X56693Y754945D01*
X56611Y754560D01*
X56521Y754178D01*
X56420Y753799D01*
X56311Y753421D01*
X56192Y753047D01*
X56065Y752676D01*
X55928Y752308D01*
X55782Y751943D01*
X55627Y751582D01*
X55464Y751225D01*
X55292Y750872D01*
X55111Y750524D01*
X54921Y750180D01*
X54724Y749840D01*
X54518Y749506D01*
X54304Y749177D01*
X54081Y748853D01*
X53851Y748535D01*
X53614Y748222D01*
X53368Y747916D01*
X53115Y747615D01*
X52855Y747321D01*
X52588Y747033D01*
X52314Y746752D01*
X52033Y746478D01*
X51745Y746211D01*
X51451Y745951D01*
X51150Y745698D01*
X50844Y745452D01*
X50531Y745215D01*
X50213Y744985D01*
X49889Y744762D01*
X49560Y744548D01*
X49226Y744342D01*
X48886Y744145D01*
X48542Y743955D01*
X48194Y743774D01*
X47841Y743602D01*
X47484Y743439D01*
X47123Y743284D01*
X46758Y743138D01*
X46390Y743001D01*
X46019Y742874D01*
X45645Y742755D01*
X45267Y742646D01*
X44888Y742545D01*
X44506Y742455D01*
X44121Y742373D01*
X43735Y742302D01*
X43348Y742239D01*
X42959Y742186D01*
X42568Y742143D01*
X42177Y742109D01*
X41785Y742085D01*
X41393Y742071D01*
X41000Y742066D01*
X40607Y742071D01*
X40215Y742085D01*
X39823Y742109D01*
X39432Y742143D01*
X39041Y742186D01*
X38652Y742239D01*
X38265Y742302D01*
X37879Y742373D01*
X37494Y742455D01*
X37112Y742545D01*
X36733Y742646D01*
X36355Y742755D01*
X35981Y742874D01*
X35610Y743001D01*
X35242Y743138D01*
X34877Y743284D01*
X34516Y743439D01*
X34159Y743602D01*
X33806Y743774D01*
X33458Y743955D01*
X33114Y744145D01*
X32774Y744342D01*
X32440Y744548D01*
X32111Y744762D01*
X31787Y744985D01*
X31469Y745215D01*
X31156Y745452D01*
X30850Y745698D01*
X30549Y745951D01*
X30255Y746211D01*
X29967Y746478D01*
X29686Y746752D01*
X29412Y747033D01*
X29145Y747321D01*
X28885Y747615D01*
X28632Y747916D01*
X28386Y748222D01*
X28149Y748535D01*
X27919Y748853D01*
X27696Y749177D01*
X27482Y749506D01*
X27276Y749840D01*
X27079Y750180D01*
X26889Y750524D01*
X26708Y750872D01*
X26536Y751225D01*
X26373Y751582D01*
X26218Y751943D01*
X26072Y752308D01*
X25935Y752676D01*
X25808Y753047D01*
X25689Y753421D01*
X25580Y753799D01*
X25479Y754178D01*
X25389Y754560D01*
X25307Y754945D01*
X25236Y755331D01*
X25173Y755718D01*
X25120Y756107D01*
X25077Y756498D01*
X25043Y756889D01*
X25019Y757281D01*
X25005Y757673D01*
X25000Y758066D01*
D12*
X923710Y758066D02*
X923720Y758908D01*
X923751Y759749D01*
X923803Y760589D01*
X923875Y761427D01*
X923968Y762263D01*
X924081Y763097D01*
X924215Y763928D01*
X924369Y764756D01*
X924543Y765579D01*
X924738Y766398D01*
X924952Y767212D01*
X925187Y768020D01*
X925441Y768822D01*
X925714Y769618D01*
X926008Y770407D01*
X926320Y771188D01*
X926652Y771962D01*
X927002Y772727D01*
X927371Y773483D01*
X927759Y774230D01*
X928165Y774967D01*
X928588Y775695D01*
X929030Y776411D01*
X929489Y777117D01*
X929965Y777810D01*
X930458Y778493D01*
X930968Y779162D01*
X931493Y779819D01*
X932035Y780463D01*
X932593Y781094D01*
X933166Y781710D01*
X933753Y782313D01*
X934356Y782900D01*
X934972Y783473D01*
X935603Y784031D01*
X936247Y784573D01*
X936904Y785098D01*
X937573Y785608D01*
X938256Y786101D01*
X938949Y786577D01*
X939655Y787036D01*
X940371Y787478D01*
X941099Y787901D01*
X941836Y788307D01*
X942583Y788695D01*
X943339Y789064D01*
X944104Y789414D01*
X944878Y789746D01*
X945659Y790058D01*
X946448Y790352D01*
X947244Y790625D01*
X948046Y790879D01*
X948854Y791114D01*
X949668Y791328D01*
X950487Y791523D01*
X951310Y791697D01*
X952138Y791851D01*
X952969Y791985D01*
X953803Y792098D01*
X954639Y792191D01*
X955477Y792263D01*
X956317Y792315D01*
X957158Y792346D01*
X958000Y792356D01*
X958842Y792346D01*
X959683Y792315D01*
X960523Y792263D01*
X961361Y792191D01*
X962197Y792098D01*
X963031Y791985D01*
X963862Y791851D01*
X964690Y791697D01*
X965513Y791523D01*
X966332Y791328D01*
X967146Y791114D01*
X967954Y790879D01*
X968756Y790625D01*
X969552Y790352D01*
X970341Y790058D01*
X971122Y789746D01*
X971896Y789414D01*
X972661Y789064D01*
X973417Y788695D01*
X974164Y788307D01*
X974901Y787901D01*
X975629Y787478D01*
X976345Y787036D01*
X977051Y786577D01*
X977744Y786101D01*
X978427Y785608D01*
X979096Y785098D01*
X979753Y784573D01*
X980397Y784031D01*
X981028Y783473D01*
X981644Y782900D01*
X982247Y782313D01*
X982834Y781710D01*
X983407Y781094D01*
X983965Y780463D01*
X984507Y779819D01*
X985032Y779162D01*
X985542Y778493D01*
X986035Y777810D01*
X986511Y777117D01*
X986970Y776411D01*
X987412Y775695D01*
X987835Y774967D01*
X988241Y774230D01*
X988629Y773483D01*
X988998Y772727D01*
X989348Y771962D01*
X989680Y771188D01*
X989992Y770407D01*
X990286Y769618D01*
X990559Y768822D01*
X990813Y768020D01*
X991048Y767212D01*
X991262Y766398D01*
X991457Y765579D01*
X991631Y764756D01*
X991785Y763928D01*
X991919Y763097D01*
X992032Y762263D01*
X992125Y761427D01*
X992197Y760589D01*
X992249Y759749D01*
X992280Y758908D01*
X992290Y758066D01*
X992280Y757224D01*
X992249Y756383D01*
X992197Y755543D01*
X992125Y754705D01*
X992032Y753869D01*
X991919Y753035D01*
X991785Y752204D01*
X991631Y751376D01*
X991457Y750553D01*
X991262Y749734D01*
X991048Y748920D01*
X990813Y748112D01*
X990559Y747310D01*
X990286Y746514D01*
X989992Y745725D01*
X989680Y744944D01*
X989348Y744170D01*
X988998Y743405D01*
X988629Y742649D01*
X988241Y741902D01*
X987835Y741165D01*
X987412Y740437D01*
X986970Y739721D01*
X986511Y739015D01*
X986035Y738322D01*
X985542Y737639D01*
X985032Y736970D01*
X984507Y736313D01*
X983965Y735669D01*
X983407Y735038D01*
X982834Y734422D01*
X982247Y733819D01*
X981644Y733232D01*
X981028Y732659D01*
X980397Y732101D01*
X979753Y731559D01*
X979096Y731034D01*
X978427Y730524D01*
X977744Y730031D01*
X977051Y729555D01*
X976345Y729096D01*
X975629Y728654D01*
X974901Y728231D01*
X974164Y727825D01*
X973417Y727437D01*
X972661Y727068D01*
X971896Y726718D01*
X971122Y726386D01*
X970341Y726074D01*
X969552Y725780D01*
X968756Y725507D01*
X967954Y725253D01*
X967146Y725018D01*
X966332Y724804D01*
X965513Y724609D01*
X964690Y724435D01*
X963862Y724281D01*
X963031Y724147D01*
X962197Y724034D01*
X961361Y723941D01*
X960523Y723869D01*
X959683Y723817D01*
X958842Y723786D01*
X958000Y723776D01*
X957158Y723786D01*
X956317Y723817D01*
X955477Y723869D01*
X954639Y723941D01*
X953803Y724034D01*
X952969Y724147D01*
X952138Y724281D01*
X951310Y724435D01*
X950487Y724609D01*
X949668Y724804D01*
X948854Y725018D01*
X948046Y725253D01*
X947244Y725507D01*
X946448Y725780D01*
X945659Y726074D01*
X944878Y726386D01*
X944104Y726718D01*
X943339Y727068D01*
X942583Y727437D01*
X941836Y727825D01*
X941099Y728231D01*
X940371Y728654D01*
X939655Y729096D01*
X938949Y729555D01*
X938256Y730031D01*
X937573Y730524D01*
X936904Y731034D01*
X936247Y731559D01*
X935603Y732101D01*
X934972Y732659D01*
X934356Y733232D01*
X933753Y733819D01*
X933166Y734422D01*
X932593Y735038D01*
X932035Y735669D01*
X931493Y736313D01*
X930968Y736970D01*
X930458Y737639D01*
X929965Y738322D01*
X929489Y739015D01*
X929030Y739721D01*
X928588Y740437D01*
X928165Y741165D01*
X927759Y741902D01*
X927371Y742649D01*
X927002Y743405D01*
X926652Y744170D01*
X926320Y744944D01*
X926008Y745725D01*
X925714Y746514D01*
X925441Y747310D01*
X925187Y748112D01*
X924952Y748920D01*
X924738Y749734D01*
X924543Y750553D01*
X924369Y751376D01*
X924215Y752204D01*
X924081Y753035D01*
X923968Y753869D01*
X923875Y754705D01*
X923803Y755543D01*
X923751Y756383D01*
X923720Y757224D01*
X923710Y758066D01*
D14*
X942000Y758066D02*
X942005Y758459D01*
X942019Y758851D01*
X942043Y759243D01*
X942077Y759634D01*
X942120Y760025D01*
X942173Y760414D01*
X942236Y760801D01*
X942307Y761187D01*
X942389Y761572D01*
X942479Y761954D01*
X942580Y762333D01*
X942689Y762711D01*
X942808Y763085D01*
X942935Y763456D01*
X943072Y763824D01*
X943218Y764189D01*
X943373Y764550D01*
X943536Y764907D01*
X943708Y765260D01*
X943889Y765608D01*
X944079Y765952D01*
X944276Y766292D01*
X944482Y766626D01*
X944696Y766955D01*
X944919Y767279D01*
X945149Y767597D01*
X945386Y767910D01*
X945632Y768216D01*
X945885Y768517D01*
X946145Y768811D01*
X946412Y769099D01*
X946686Y769380D01*
X946967Y769654D01*
X947255Y769921D01*
X947549Y770181D01*
X947850Y770434D01*
X948156Y770680D01*
X948469Y770917D01*
X948787Y771147D01*
X949111Y771370D01*
X949440Y771584D01*
X949774Y771790D01*
X950114Y771987D01*
X950458Y772177D01*
X950806Y772358D01*
X951159Y772530D01*
X951516Y772693D01*
X951877Y772848D01*
X952242Y772994D01*
X952610Y773131D01*
X952981Y773258D01*
X953355Y773377D01*
X953733Y773486D01*
X954112Y773587D01*
X954494Y773677D01*
X954879Y773759D01*
X955265Y773830D01*
X955652Y773893D01*
X956041Y773946D01*
X956432Y773989D01*
X956823Y774023D01*
X957215Y774047D01*
X957607Y774061D01*
X958000Y774066D01*
X958393Y774061D01*
X958785Y774047D01*
X959177Y774023D01*
X959568Y773989D01*
X959959Y773946D01*
X960348Y773893D01*
X960735Y773830D01*
X961121Y773759D01*
X961506Y773677D01*
X961888Y773587D01*
X962267Y773486D01*
X962645Y773377D01*
X963019Y773258D01*
X963390Y773131D01*
X963758Y772994D01*
X964123Y772848D01*
X964484Y772693D01*
X964841Y772530D01*
X965194Y772358D01*
X965542Y772177D01*
X965886Y771987D01*
X966226Y771790D01*
X966560Y771584D01*
X966889Y771370D01*
X967213Y771147D01*
X967531Y770917D01*
X967844Y770680D01*
X968150Y770434D01*
X968451Y770181D01*
X968745Y769921D01*
X969033Y769654D01*
X969314Y769380D01*
X969588Y769099D01*
X969855Y768811D01*
X970115Y768517D01*
X970368Y768216D01*
X970614Y767910D01*
X970851Y767597D01*
X971081Y767279D01*
X971304Y766955D01*
X971518Y766626D01*
X971724Y766292D01*
X971921Y765952D01*
X972111Y765608D01*
X972292Y765260D01*
X972464Y764907D01*
X972627Y764550D01*
X972782Y764189D01*
X972928Y763824D01*
X973065Y763456D01*
X973192Y763085D01*
X973311Y762711D01*
X973420Y762333D01*
X973521Y761954D01*
X973611Y761572D01*
X973693Y761187D01*
X973764Y760801D01*
X973827Y760414D01*
X973880Y760025D01*
X973923Y759634D01*
X973957Y759243D01*
X973981Y758851D01*
X973995Y758459D01*
X974000Y758066D01*
X973995Y757673D01*
X973981Y757281D01*
X973957Y756889D01*
X973923Y756498D01*
X973880Y756107D01*
X973827Y755718D01*
X973764Y755331D01*
X973693Y754945D01*
X973611Y754560D01*
X973521Y754178D01*
X973420Y753799D01*
X973311Y753421D01*
X973192Y753047D01*
X973065Y752676D01*
X972928Y752308D01*
X972782Y751943D01*
X972627Y751582D01*
X972464Y751225D01*
X972292Y750872D01*
X972111Y750524D01*
X971921Y750180D01*
X971724Y749840D01*
X971518Y749506D01*
X971304Y749177D01*
X971081Y748853D01*
X970851Y748535D01*
X970614Y748222D01*
X970368Y747916D01*
X970115Y747615D01*
X969855Y747321D01*
X969588Y747033D01*
X969314Y746752D01*
X969033Y746478D01*
X968745Y746211D01*
X968451Y745951D01*
X968150Y745698D01*
X967844Y745452D01*
X967531Y745215D01*
X967213Y744985D01*
X966889Y744762D01*
X966560Y744548D01*
X966226Y744342D01*
X965886Y744145D01*
X965542Y743955D01*
X965194Y743774D01*
X964841Y743602D01*
X964484Y743439D01*
X964123Y743284D01*
X963758Y743138D01*
X963390Y743001D01*
X963019Y742874D01*
X962645Y742755D01*
X962267Y742646D01*
X961888Y742545D01*
X961506Y742455D01*
X961121Y742373D01*
X960735Y742302D01*
X960348Y742239D01*
X959959Y742186D01*
X959568Y742143D01*
X959177Y742109D01*
X958785Y742085D01*
X958393Y742071D01*
X958000Y742066D01*
X957607Y742071D01*
X957215Y742085D01*
X956823Y742109D01*
X956432Y742143D01*
X956041Y742186D01*
X955652Y742239D01*
X955265Y742302D01*
X954879Y742373D01*
X954494Y742455D01*
X954112Y742545D01*
X953733Y742646D01*
X953355Y742755D01*
X952981Y742874D01*
X952610Y743001D01*
X952242Y743138D01*
X951877Y743284D01*
X951516Y743439D01*
X951159Y743602D01*
X950806Y743774D01*
X950458Y743955D01*
X950114Y744145D01*
X949774Y744342D01*
X949440Y744548D01*
X949111Y744762D01*
X948787Y744985D01*
X948469Y745215D01*
X948156Y745452D01*
X947850Y745698D01*
X947549Y745951D01*
X947255Y746211D01*
X946967Y746478D01*
X946686Y746752D01*
X946412Y747033D01*
X946145Y747321D01*
X945885Y747615D01*
X945632Y747916D01*
X945386Y748222D01*
X945149Y748535D01*
X944919Y748853D01*
X944696Y749177D01*
X944482Y749506D01*
X944276Y749840D01*
X944079Y750180D01*
X943889Y750524D01*
X943708Y750872D01*
X943536Y751225D01*
X943373Y751582D01*
X943218Y751943D01*
X943072Y752308D01*
X942935Y752676D01*
X942808Y753047D01*
X942689Y753421D01*
X942580Y753799D01*
X942479Y754178D01*
X942389Y754560D01*
X942307Y754945D01*
X942236Y755331D01*
X942173Y755718D01*
X942120Y756107D01*
X942077Y756498D01*
X942043Y756889D01*
X942019Y757281D01*
X942005Y757673D01*
X942000Y758066D01*
D12*
X6710Y41066D02*
X6720Y41908D01*
X6751Y42749D01*
X6803Y43589D01*
X6875Y44427D01*
X6968Y45263D01*
X7081Y46097D01*
X7215Y46928D01*
X7369Y47756D01*
X7543Y48579D01*
X7738Y49398D01*
X7952Y50212D01*
X8187Y51020D01*
X8441Y51822D01*
X8714Y52618D01*
X9008Y53407D01*
X9320Y54188D01*
X9652Y54962D01*
X10002Y55727D01*
X10371Y56483D01*
X10759Y57230D01*
X11165Y57967D01*
X11588Y58695D01*
X12030Y59411D01*
X12489Y60117D01*
X12965Y60810D01*
X13458Y61493D01*
X13968Y62162D01*
X14493Y62819D01*
X15035Y63463D01*
X15593Y64094D01*
X16166Y64710D01*
X16753Y65313D01*
X17356Y65900D01*
X17972Y66473D01*
X18603Y67031D01*
X19247Y67573D01*
X19904Y68098D01*
X20573Y68608D01*
X21256Y69101D01*
X21949Y69577D01*
X22655Y70036D01*
X23371Y70478D01*
X24099Y70901D01*
X24836Y71307D01*
X25583Y71695D01*
X26339Y72064D01*
X27104Y72414D01*
X27878Y72746D01*
X28659Y73058D01*
X29448Y73352D01*
X30244Y73625D01*
X31046Y73879D01*
X31854Y74114D01*
X32668Y74328D01*
X33487Y74523D01*
X34310Y74697D01*
X35138Y74851D01*
X35969Y74985D01*
X36803Y75098D01*
X37639Y75191D01*
X38477Y75263D01*
X39317Y75315D01*
X40158Y75346D01*
X41000Y75356D01*
X41842Y75346D01*
X42683Y75315D01*
X43523Y75263D01*
X44361Y75191D01*
X45197Y75098D01*
X46031Y74985D01*
X46862Y74851D01*
X47690Y74697D01*
X48513Y74523D01*
X49332Y74328D01*
X50146Y74114D01*
X50954Y73879D01*
X51756Y73625D01*
X52552Y73352D01*
X53341Y73058D01*
X54122Y72746D01*
X54896Y72414D01*
X55661Y72064D01*
X56417Y71695D01*
X57164Y71307D01*
X57901Y70901D01*
X58629Y70478D01*
X59345Y70036D01*
X60051Y69577D01*
X60744Y69101D01*
X61427Y68608D01*
X62096Y68098D01*
X62753Y67573D01*
X63397Y67031D01*
X64028Y66473D01*
X64644Y65900D01*
X65247Y65313D01*
X65834Y64710D01*
X66407Y64094D01*
X66965Y63463D01*
X67507Y62819D01*
X68032Y62162D01*
X68542Y61493D01*
X69035Y60810D01*
X69511Y60117D01*
X69970Y59411D01*
X70412Y58695D01*
X70835Y57967D01*
X71241Y57230D01*
X71629Y56483D01*
X71998Y55727D01*
X72348Y54962D01*
X72680Y54188D01*
X72992Y53407D01*
X73286Y52618D01*
X73559Y51822D01*
X73813Y51020D01*
X74048Y50212D01*
X74262Y49398D01*
X74457Y48579D01*
X74631Y47756D01*
X74785Y46928D01*
X74919Y46097D01*
X75032Y45263D01*
X75125Y44427D01*
X75197Y43589D01*
X75249Y42749D01*
X75280Y41908D01*
X75290Y41066D01*
X75280Y40224D01*
X75249Y39383D01*
X75197Y38543D01*
X75125Y37705D01*
X75032Y36869D01*
X74919Y36035D01*
X74785Y35204D01*
X74631Y34376D01*
X74457Y33553D01*
X74262Y32734D01*
X74048Y31920D01*
X73813Y31112D01*
X73559Y30310D01*
X73286Y29514D01*
X72992Y28725D01*
X72680Y27944D01*
X72348Y27170D01*
X71998Y26405D01*
X71629Y25649D01*
X71241Y24902D01*
X70835Y24165D01*
X70412Y23437D01*
X69970Y22721D01*
X69511Y22015D01*
X69035Y21322D01*
X68542Y20639D01*
X68032Y19970D01*
X67507Y19313D01*
X66965Y18669D01*
X66407Y18038D01*
X65834Y17422D01*
X65247Y16819D01*
X64644Y16232D01*
X64028Y15659D01*
X63397Y15101D01*
X62753Y14559D01*
X62096Y14034D01*
X61427Y13524D01*
X60744Y13031D01*
X60051Y12555D01*
X59345Y12096D01*
X58629Y11654D01*
X57901Y11231D01*
X57164Y10825D01*
X56417Y10437D01*
X55661Y10068D01*
X54896Y9718D01*
X54122Y9386D01*
X53341Y9074D01*
X52552Y8780D01*
X51756Y8507D01*
X50954Y8253D01*
X50146Y8018D01*
X49332Y7804D01*
X48513Y7609D01*
X47690Y7435D01*
X46862Y7281D01*
X46031Y7147D01*
X45197Y7034D01*
X44361Y6941D01*
X43523Y6869D01*
X42683Y6817D01*
X41842Y6786D01*
X41000Y6776D01*
X40158Y6786D01*
X39317Y6817D01*
X38477Y6869D01*
X37639Y6941D01*
X36803Y7034D01*
X35969Y7147D01*
X35138Y7281D01*
X34310Y7435D01*
X33487Y7609D01*
X32668Y7804D01*
X31854Y8018D01*
X31046Y8253D01*
X30244Y8507D01*
X29448Y8780D01*
X28659Y9074D01*
X27878Y9386D01*
X27104Y9718D01*
X26339Y10068D01*
X25583Y10437D01*
X24836Y10825D01*
X24099Y11231D01*
X23371Y11654D01*
X22655Y12096D01*
X21949Y12555D01*
X21256Y13031D01*
X20573Y13524D01*
X19904Y14034D01*
X19247Y14559D01*
X18603Y15101D01*
X17972Y15659D01*
X17356Y16232D01*
X16753Y16819D01*
X16166Y17422D01*
X15593Y18038D01*
X15035Y18669D01*
X14493Y19313D01*
X13968Y19970D01*
X13458Y20639D01*
X12965Y21322D01*
X12489Y22015D01*
X12030Y22721D01*
X11588Y23437D01*
X11165Y24165D01*
X10759Y24902D01*
X10371Y25649D01*
X10002Y26405D01*
X9652Y27170D01*
X9320Y27944D01*
X9008Y28725D01*
X8714Y29514D01*
X8441Y30310D01*
X8187Y31112D01*
X7952Y31920D01*
X7738Y32734D01*
X7543Y33553D01*
X7369Y34376D01*
X7215Y35204D01*
X7081Y36035D01*
X6968Y36869D01*
X6875Y37705D01*
X6803Y38543D01*
X6751Y39383D01*
X6720Y40224D01*
X6710Y41066D01*
D14*
X25000Y41066D02*
X25005Y41459D01*
X25019Y41851D01*
X25043Y42243D01*
X25077Y42634D01*
X25120Y43025D01*
X25173Y43414D01*
X25236Y43801D01*
X25307Y44187D01*
X25389Y44572D01*
X25479Y44954D01*
X25580Y45333D01*
X25689Y45711D01*
X25808Y46085D01*
X25935Y46456D01*
X26072Y46824D01*
X26218Y47189D01*
X26373Y47550D01*
X26536Y47907D01*
X26708Y48260D01*
X26889Y48608D01*
X27079Y48952D01*
X27276Y49292D01*
X27482Y49626D01*
X27696Y49955D01*
X27919Y50279D01*
X28149Y50597D01*
X28386Y50910D01*
X28632Y51216D01*
X28885Y51517D01*
X29145Y51811D01*
X29412Y52099D01*
X29686Y52380D01*
X29967Y52654D01*
X30255Y52921D01*
X30549Y53181D01*
X30850Y53434D01*
X31156Y53680D01*
X31469Y53917D01*
X31787Y54147D01*
X32111Y54370D01*
X32440Y54584D01*
X32774Y54790D01*
X33114Y54987D01*
X33458Y55177D01*
X33806Y55358D01*
X34159Y55530D01*
X34516Y55693D01*
X34877Y55848D01*
X35242Y55994D01*
X35610Y56131D01*
X35981Y56258D01*
X36355Y56377D01*
X36733Y56486D01*
X37112Y56587D01*
X37494Y56677D01*
X37879Y56759D01*
X38265Y56830D01*
X38652Y56893D01*
X39041Y56946D01*
X39432Y56989D01*
X39823Y57023D01*
X40215Y57047D01*
X40607Y57061D01*
X41000Y57066D01*
X41393Y57061D01*
X41785Y57047D01*
X42177Y57023D01*
X42568Y56989D01*
X42959Y56946D01*
X43348Y56893D01*
X43735Y56830D01*
X44121Y56759D01*
X44506Y56677D01*
X44888Y56587D01*
X45267Y56486D01*
X45645Y56377D01*
X46019Y56258D01*
X46390Y56131D01*
X46758Y55994D01*
X47123Y55848D01*
X47484Y55693D01*
X47841Y55530D01*
X48194Y55358D01*
X48542Y55177D01*
X48886Y54987D01*
X49226Y54790D01*
X49560Y54584D01*
X49889Y54370D01*
X50213Y54147D01*
X50531Y53917D01*
X50844Y53680D01*
X51150Y53434D01*
X51451Y53181D01*
X51745Y52921D01*
X52033Y52654D01*
X52314Y52380D01*
X52588Y52099D01*
X52855Y51811D01*
X53115Y51517D01*
X53368Y51216D01*
X53614Y50910D01*
X53851Y50597D01*
X54081Y50279D01*
X54304Y49955D01*
X54518Y49626D01*
X54724Y49292D01*
X54921Y48952D01*
X55111Y48608D01*
X55292Y48260D01*
X55464Y47907D01*
X55627Y47550D01*
X55782Y47189D01*
X55928Y46824D01*
X56065Y46456D01*
X56192Y46085D01*
X56311Y45711D01*
X56420Y45333D01*
X56521Y44954D01*
X56611Y44572D01*
X56693Y44187D01*
X56764Y43801D01*
X56827Y43414D01*
X56880Y43025D01*
X56923Y42634D01*
X56957Y42243D01*
X56981Y41851D01*
X56995Y41459D01*
X57000Y41066D01*
X56995Y40673D01*
X56981Y40281D01*
X56957Y39889D01*
X56923Y39498D01*
X56880Y39107D01*
X56827Y38718D01*
X56764Y38331D01*
X56693Y37945D01*
X56611Y37560D01*
X56521Y37178D01*
X56420Y36799D01*
X56311Y36421D01*
X56192Y36047D01*
X56065Y35676D01*
X55928Y35308D01*
X55782Y34943D01*
X55627Y34582D01*
X55464Y34225D01*
X55292Y33872D01*
X55111Y33524D01*
X54921Y33180D01*
X54724Y32840D01*
X54518Y32506D01*
X54304Y32177D01*
X54081Y31853D01*
X53851Y31535D01*
X53614Y31222D01*
X53368Y30916D01*
X53115Y30615D01*
X52855Y30321D01*
X52588Y30033D01*
X52314Y29752D01*
X52033Y29478D01*
X51745Y29211D01*
X51451Y28951D01*
X51150Y28698D01*
X50844Y28452D01*
X50531Y28215D01*
X50213Y27985D01*
X49889Y27762D01*
X49560Y27548D01*
X49226Y27342D01*
X48886Y27145D01*
X48542Y26955D01*
X48194Y26774D01*
X47841Y26602D01*
X47484Y26439D01*
X47123Y26284D01*
X46758Y26138D01*
X46390Y26001D01*
X46019Y25874D01*
X45645Y25755D01*
X45267Y25646D01*
X44888Y25545D01*
X44506Y25455D01*
X44121Y25373D01*
X43735Y25302D01*
X43348Y25239D01*
X42959Y25186D01*
X42568Y25143D01*
X42177Y25109D01*
X41785Y25085D01*
X41393Y25071D01*
X41000Y25066D01*
X40607Y25071D01*
X40215Y25085D01*
X39823Y25109D01*
X39432Y25143D01*
X39041Y25186D01*
X38652Y25239D01*
X38265Y25302D01*
X37879Y25373D01*
X37494Y25455D01*
X37112Y25545D01*
X36733Y25646D01*
X36355Y25755D01*
X35981Y25874D01*
X35610Y26001D01*
X35242Y26138D01*
X34877Y26284D01*
X34516Y26439D01*
X34159Y26602D01*
X33806Y26774D01*
X33458Y26955D01*
X33114Y27145D01*
X32774Y27342D01*
X32440Y27548D01*
X32111Y27762D01*
X31787Y27985D01*
X31469Y28215D01*
X31156Y28452D01*
X30850Y28698D01*
X30549Y28951D01*
X30255Y29211D01*
X29967Y29478D01*
X29686Y29752D01*
X29412Y30033D01*
X29145Y30321D01*
X28885Y30615D01*
X28632Y30916D01*
X28386Y31222D01*
X28149Y31535D01*
X27919Y31853D01*
X27696Y32177D01*
X27482Y32506D01*
X27276Y32840D01*
X27079Y33180D01*
X26889Y33524D01*
X26708Y33872D01*
X26536Y34225D01*
X26373Y34582D01*
X26218Y34943D01*
X26072Y35308D01*
X25935Y35676D01*
X25808Y36047D01*
X25689Y36421D01*
X25580Y36799D01*
X25479Y37178D01*
X25389Y37560D01*
X25307Y37945D01*
X25236Y38331D01*
X25173Y38718D01*
X25120Y39107D01*
X25077Y39498D01*
X25043Y39889D01*
X25019Y40281D01*
X25005Y40673D01*
X25000Y41066D01*
D12*
X923710Y41066D02*
X923720Y41908D01*
X923751Y42749D01*
X923803Y43589D01*
X923875Y44427D01*
X923968Y45263D01*
X924081Y46097D01*
X924215Y46928D01*
X924369Y47756D01*
X924543Y48579D01*
X924738Y49398D01*
X924952Y50212D01*
X925187Y51020D01*
X925441Y51822D01*
X925714Y52618D01*
X926008Y53407D01*
X926320Y54188D01*
X926652Y54962D01*
X927002Y55727D01*
X927371Y56483D01*
X927759Y57230D01*
X928165Y57967D01*
X928588Y58695D01*
X929030Y59411D01*
X929489Y60117D01*
X929965Y60810D01*
X930458Y61493D01*
X930968Y62162D01*
X931493Y62819D01*
X932035Y63463D01*
X932593Y64094D01*
X933166Y64710D01*
X933753Y65313D01*
X934356Y65900D01*
X934972Y66473D01*
X935603Y67031D01*
X936247Y67573D01*
X936904Y68098D01*
X937573Y68608D01*
X938256Y69101D01*
X938949Y69577D01*
X939655Y70036D01*
X940371Y70478D01*
X941099Y70901D01*
X941836Y71307D01*
X942583Y71695D01*
X943339Y72064D01*
X944104Y72414D01*
X944878Y72746D01*
X945659Y73058D01*
X946448Y73352D01*
X947244Y73625D01*
X948046Y73879D01*
X948854Y74114D01*
X949668Y74328D01*
X950487Y74523D01*
X951310Y74697D01*
X952138Y74851D01*
X952969Y74985D01*
X953803Y75098D01*
X954639Y75191D01*
X955477Y75263D01*
X956317Y75315D01*
X957158Y75346D01*
X958000Y75356D01*
X958842Y75346D01*
X959683Y75315D01*
X960523Y75263D01*
X961361Y75191D01*
X962197Y75098D01*
X963031Y74985D01*
X963862Y74851D01*
X964690Y74697D01*
X965513Y74523D01*
X966332Y74328D01*
X967146Y74114D01*
X967954Y73879D01*
X968756Y73625D01*
X969552Y73352D01*
X970341Y73058D01*
X971122Y72746D01*
X971896Y72414D01*
X972661Y72064D01*
X973417Y71695D01*
X974164Y71307D01*
X974901Y70901D01*
X975629Y70478D01*
X976345Y70036D01*
X977051Y69577D01*
X977744Y69101D01*
X978427Y68608D01*
X979096Y68098D01*
X979753Y67573D01*
X980397Y67031D01*
X981028Y66473D01*
X981644Y65900D01*
X982247Y65313D01*
X982834Y64710D01*
X983407Y64094D01*
X983965Y63463D01*
X984507Y62819D01*
X985032Y62162D01*
X985542Y61493D01*
X986035Y60810D01*
X986511Y60117D01*
X986970Y59411D01*
X987412Y58695D01*
X987835Y57967D01*
X988241Y57230D01*
X988629Y56483D01*
X988998Y55727D01*
X989348Y54962D01*
X989680Y54188D01*
X989992Y53407D01*
X990286Y52618D01*
X990559Y51822D01*
X990813Y51020D01*
X991048Y50212D01*
X991262Y49398D01*
X991457Y48579D01*
X991631Y47756D01*
X991785Y46928D01*
X991919Y46097D01*
X992032Y45263D01*
X992125Y44427D01*
X992197Y43589D01*
X992249Y42749D01*
X992280Y41908D01*
X992290Y41066D01*
X992280Y40224D01*
X992249Y39383D01*
X992197Y38543D01*
X992125Y37705D01*
X992032Y36869D01*
X991919Y36035D01*
X991785Y35204D01*
X991631Y34376D01*
X991457Y33553D01*
X991262Y32734D01*
X991048Y31920D01*
X990813Y31112D01*
X990559Y30310D01*
X990286Y29514D01*
X989992Y28725D01*
X989680Y27944D01*
X989348Y27170D01*
X988998Y26405D01*
X988629Y25649D01*
X988241Y24902D01*
X987835Y24165D01*
X987412Y23437D01*
X986970Y22721D01*
X986511Y22015D01*
X986035Y21322D01*
X985542Y20639D01*
X985032Y19970D01*
X984507Y19313D01*
X983965Y18669D01*
X983407Y18038D01*
X982834Y17422D01*
X982247Y16819D01*
X981644Y16232D01*
X981028Y15659D01*
X980397Y15101D01*
X979753Y14559D01*
X979096Y14034D01*
X978427Y13524D01*
X977744Y13031D01*
X977051Y12555D01*
X976345Y12096D01*
X975629Y11654D01*
X974901Y11231D01*
X974164Y10825D01*
X973417Y10437D01*
X972661Y10068D01*
X971896Y9718D01*
X971122Y9386D01*
X970341Y9074D01*
X969552Y8780D01*
X968756Y8507D01*
X967954Y8253D01*
X967146Y8018D01*
X966332Y7804D01*
X965513Y7609D01*
X964690Y7435D01*
X963862Y7281D01*
X963031Y7147D01*
X962197Y7034D01*
X961361Y6941D01*
X960523Y6869D01*
X959683Y6817D01*
X958842Y6786D01*
X958000Y6776D01*
X957158Y6786D01*
X956317Y6817D01*
X955477Y6869D01*
X954639Y6941D01*
X953803Y7034D01*
X952969Y7147D01*
X952138Y7281D01*
X951310Y7435D01*
X950487Y7609D01*
X949668Y7804D01*
X948854Y8018D01*
X948046Y8253D01*
X947244Y8507D01*
X946448Y8780D01*
X945659Y9074D01*
X944878Y9386D01*
X944104Y9718D01*
X943339Y10068D01*
X942583Y10437D01*
X941836Y10825D01*
X941099Y11231D01*
X940371Y11654D01*
X939655Y12096D01*
X938949Y12555D01*
X938256Y13031D01*
X937573Y13524D01*
X936904Y14034D01*
X936247Y14559D01*
X935603Y15101D01*
X934972Y15659D01*
X934356Y16232D01*
X933753Y16819D01*
X933166Y17422D01*
X932593Y18038D01*
X932035Y18669D01*
X931493Y19313D01*
X930968Y19970D01*
X930458Y20639D01*
X929965Y21322D01*
X929489Y22015D01*
X929030Y22721D01*
X928588Y23437D01*
X928165Y24165D01*
X927759Y24902D01*
X927371Y25649D01*
X927002Y26405D01*
X926652Y27170D01*
X926320Y27944D01*
X926008Y28725D01*
X925714Y29514D01*
X925441Y30310D01*
X925187Y31112D01*
X924952Y31920D01*
X924738Y32734D01*
X924543Y33553D01*
X924369Y34376D01*
X924215Y35204D01*
X924081Y36035D01*
X923968Y36869D01*
X923875Y37705D01*
X923803Y38543D01*
X923751Y39383D01*
X923720Y40224D01*
X923710Y41066D01*
D14*
X942000Y41066D02*
X942005Y41459D01*
X942019Y41851D01*
X942043Y42243D01*
X942077Y42634D01*
X942120Y43025D01*
X942173Y43414D01*
X942236Y43801D01*
X942307Y44187D01*
X942389Y44572D01*
X942479Y44954D01*
X942580Y45333D01*
X942689Y45711D01*
X942808Y46085D01*
X942935Y46456D01*
X943072Y46824D01*
X943218Y47189D01*
X943373Y47550D01*
X943536Y47907D01*
X943708Y48260D01*
X943889Y48608D01*
X944079Y48952D01*
X944276Y49292D01*
X944482Y49626D01*
X944696Y49955D01*
X944919Y50279D01*
X945149Y50597D01*
X945386Y50910D01*
X945632Y51216D01*
X945885Y51517D01*
X946145Y51811D01*
X946412Y52099D01*
X946686Y52380D01*
X946967Y52654D01*
X947255Y52921D01*
X947549Y53181D01*
X947850Y53434D01*
X948156Y53680D01*
X948469Y53917D01*
X948787Y54147D01*
X949111Y54370D01*
X949440Y54584D01*
X949774Y54790D01*
X950114Y54987D01*
X950458Y55177D01*
X950806Y55358D01*
X951159Y55530D01*
X951516Y55693D01*
X951877Y55848D01*
X952242Y55994D01*
X952610Y56131D01*
X952981Y56258D01*
X953355Y56377D01*
X953733Y56486D01*
X954112Y56587D01*
X954494Y56677D01*
X954879Y56759D01*
X955265Y56830D01*
X955652Y56893D01*
X956041Y56946D01*
X956432Y56989D01*
X956823Y57023D01*
X957215Y57047D01*
X957607Y57061D01*
X958000Y57066D01*
X958393Y57061D01*
X958785Y57047D01*
X959177Y57023D01*
X959568Y56989D01*
X959959Y56946D01*
X960348Y56893D01*
X960735Y56830D01*
X961121Y56759D01*
X961506Y56677D01*
X961888Y56587D01*
X962267Y56486D01*
X962645Y56377D01*
X963019Y56258D01*
X963390Y56131D01*
X963758Y55994D01*
X964123Y55848D01*
X964484Y55693D01*
X964841Y55530D01*
X965194Y55358D01*
X965542Y55177D01*
X965886Y54987D01*
X966226Y54790D01*
X966560Y54584D01*
X966889Y54370D01*
X967213Y54147D01*
X967531Y53917D01*
X967844Y53680D01*
X968150Y53434D01*
X968451Y53181D01*
X968745Y52921D01*
X969033Y52654D01*
X969314Y52380D01*
X969588Y52099D01*
X969855Y51811D01*
X970115Y51517D01*
X970368Y51216D01*
X970614Y50910D01*
X970851Y50597D01*
X971081Y50279D01*
X971304Y49955D01*
X971518Y49626D01*
X971724Y49292D01*
X971921Y48952D01*
X972111Y48608D01*
X972292Y48260D01*
X972464Y47907D01*
X972627Y47550D01*
X972782Y47189D01*
X972928Y46824D01*
X973065Y46456D01*
X973192Y46085D01*
X973311Y45711D01*
X973420Y45333D01*
X973521Y44954D01*
X973611Y44572D01*
X973693Y44187D01*
X973764Y43801D01*
X973827Y43414D01*
X973880Y43025D01*
X973923Y42634D01*
X973957Y42243D01*
X973981Y41851D01*
X973995Y41459D01*
X974000Y41066D01*
X973995Y40673D01*
X973981Y40281D01*
X973957Y39889D01*
X973923Y39498D01*
X973880Y39107D01*
X973827Y38718D01*
X973764Y38331D01*
X973693Y37945D01*
X973611Y37560D01*
X973521Y37178D01*
X973420Y36799D01*
X973311Y36421D01*
X973192Y36047D01*
X973065Y35676D01*
X972928Y35308D01*
X972782Y34943D01*
X972627Y34582D01*
X972464Y34225D01*
X972292Y33872D01*
X972111Y33524D01*
X971921Y33180D01*
X971724Y32840D01*
X971518Y32506D01*
X971304Y32177D01*
X971081Y31853D01*
X970851Y31535D01*
X970614Y31222D01*
X970368Y30916D01*
X970115Y30615D01*
X969855Y30321D01*
X969588Y30033D01*
X969314Y29752D01*
X969033Y29478D01*
X968745Y29211D01*
X968451Y28951D01*
X968150Y28698D01*
X967844Y28452D01*
X967531Y28215D01*
X967213Y27985D01*
X966889Y27762D01*
X966560Y27548D01*
X966226Y27342D01*
X965886Y27145D01*
X965542Y26955D01*
X965194Y26774D01*
X964841Y26602D01*
X964484Y26439D01*
X964123Y26284D01*
X963758Y26138D01*
X963390Y26001D01*
X963019Y25874D01*
X962645Y25755D01*
X962267Y25646D01*
X961888Y25545D01*
X961506Y25455D01*
X961121Y25373D01*
X960735Y25302D01*
X960348Y25239D01*
X959959Y25186D01*
X959568Y25143D01*
X959177Y25109D01*
X958785Y25085D01*
X958393Y25071D01*
X958000Y25066D01*
X957607Y25071D01*
X957215Y25085D01*
X956823Y25109D01*
X956432Y25143D01*
X956041Y25186D01*
X955652Y25239D01*
X955265Y25302D01*
X954879Y25373D01*
X954494Y25455D01*
X954112Y25545D01*
X953733Y25646D01*
X953355Y25755D01*
X952981Y25874D01*
X952610Y26001D01*
X952242Y26138D01*
X951877Y26284D01*
X951516Y26439D01*
X951159Y26602D01*
X950806Y26774D01*
X950458Y26955D01*
X950114Y27145D01*
X949774Y27342D01*
X949440Y27548D01*
X949111Y27762D01*
X948787Y27985D01*
X948469Y28215D01*
X948156Y28452D01*
X947850Y28698D01*
X947549Y28951D01*
X947255Y29211D01*
X946967Y29478D01*
X946686Y29752D01*
X946412Y30033D01*
X946145Y30321D01*
X945885Y30615D01*
X945632Y30916D01*
X945386Y31222D01*
X945149Y31535D01*
X944919Y31853D01*
X944696Y32177D01*
X944482Y32506D01*
X944276Y32840D01*
X944079Y33180D01*
X943889Y33524D01*
X943708Y33872D01*
X943536Y34225D01*
X943373Y34582D01*
X943218Y34943D01*
X943072Y35308D01*
X942935Y35676D01*
X942808Y36047D01*
X942689Y36421D01*
X942580Y36799D01*
X942479Y37178D01*
X942389Y37560D01*
X942307Y37945D01*
X942236Y38331D01*
X942173Y38718D01*
X942120Y39107D01*
X942077Y39498D01*
X942043Y39889D01*
X942019Y40281D01*
X942005Y40673D01*
X942000Y41066D01*
X596850Y98466D02*
X590500Y92116D01*
X596850Y98466D02*
X609550Y98466D01*
X615900Y92116D01*
X615900Y79416D02*
X609550Y73066D01*
X596850Y73066D01*
X590500Y79416D01*
X558750Y98466D02*
X546050Y98466D01*
X558750Y98466D02*
X565100Y92116D01*
X565100Y79416D02*
X558750Y73066D01*
X565100Y92116D02*
X571450Y98466D01*
X584150Y98466D01*
X590500Y92116D01*
X590500Y79416D02*
X584150Y73066D01*
X571450Y73066D01*
X565100Y79416D01*
X520650Y98466D02*
X514300Y92116D01*
X520650Y98466D02*
X533350Y98466D01*
X539700Y92116D01*
X539700Y79416D02*
X533350Y73066D01*
X520650Y73066D01*
X514300Y79416D01*
X539700Y92116D02*
X546050Y98466D01*
X539700Y79416D02*
X546050Y73066D01*
X558750Y73066D01*
X482550Y98466D02*
X469850Y98466D01*
X482550Y98466D02*
X488900Y92116D01*
X488900Y79416D02*
X482550Y73066D01*
X488900Y92116D02*
X495250Y98466D01*
X507950Y98466D01*
X514300Y92116D01*
X514300Y79416D02*
X507950Y73066D01*
X495250Y73066D01*
X488900Y79416D01*
X463500Y79416D02*
X463500Y92116D01*
X469850Y98466D01*
X463500Y79416D02*
X469850Y73066D01*
X482550Y73066D01*
X615900Y79416D02*
X615900Y92116D01*
D12*
X399542Y647208D02*
X399542Y653309D01*
X402593Y653309D01*
X403609Y652292D01*
X403609Y650259D01*
X402593Y649242D01*
X399542Y649242D01*
X401576Y649242D02*
X403609Y647208D01*
X406558Y653309D02*
X410626Y653309D01*
X410626Y652292D01*
X406558Y648225D01*
X406558Y647208D01*
X541782Y649748D02*
X541782Y655849D01*
X544833Y655849D01*
X545849Y654832D01*
X545849Y652799D01*
X544833Y651782D01*
X541782Y651782D01*
X543816Y651782D02*
X545849Y649748D01*
X548798Y654832D02*
X549815Y655849D01*
X551849Y655849D01*
X552866Y654832D01*
X552866Y653815D01*
X551849Y652799D01*
X552866Y651782D01*
X552866Y650765D01*
X551849Y649748D01*
X549815Y649748D01*
X548798Y650765D01*
X548798Y651782D01*
X549815Y652799D01*
X548798Y653815D01*
X548798Y654832D01*
X549815Y652799D02*
X551849Y652799D01*
X663702Y653309D02*
X663702Y647208D01*
X663702Y653309D02*
X666753Y653309D01*
X667769Y652292D01*
X667769Y650259D01*
X666753Y649242D01*
X663702Y649242D01*
X665736Y649242D02*
X667769Y647208D01*
X670718Y648225D02*
X671735Y647208D01*
X673769Y647208D01*
X674786Y648225D01*
X674786Y652292D01*
X673769Y653309D01*
X671735Y653309D01*
X670718Y652292D01*
X670718Y651275D01*
X671735Y650259D01*
X674786Y650259D01*
X841502Y649748D02*
X841502Y655849D01*
X844553Y655849D01*
X845569Y654832D01*
X845569Y652799D01*
X844553Y651782D01*
X841502Y651782D01*
X843536Y651782D02*
X845569Y649748D01*
X848518Y653815D02*
X850552Y655849D01*
X850552Y649748D01*
X848518Y649748D02*
X852586Y649748D01*
X855535Y654832D02*
X856552Y655849D01*
X858585Y655849D01*
X859602Y654832D01*
X859602Y653815D01*
X858585Y652799D01*
X859602Y651782D01*
X859602Y650765D01*
X858585Y649748D01*
X856552Y649748D01*
X855535Y650765D01*
X855535Y651782D01*
X856552Y652799D01*
X855535Y653815D01*
X855535Y654832D01*
X856552Y652799D02*
X858585Y652799D01*
X466598Y613443D02*
X460497Y613443D01*
X460497Y616493D01*
X461514Y617510D01*
X463547Y617510D01*
X464564Y616493D01*
X464564Y613443D01*
X464564Y615477D02*
X466598Y617510D01*
X462531Y620459D02*
X460497Y622493D01*
X466598Y622493D01*
X466598Y620459D02*
X466598Y624527D01*
X465581Y627476D02*
X466598Y628492D01*
X466598Y630526D01*
X465581Y631543D01*
X461514Y631543D01*
X460497Y630526D01*
X460497Y628492D01*
X461514Y627476D01*
X462531Y627476D01*
X463547Y628492D01*
X463547Y631543D01*
X600197Y613443D02*
X606298Y613443D01*
X600197Y613443D02*
X600197Y616493D01*
X601214Y617510D01*
X603247Y617510D01*
X604264Y616493D01*
X604264Y613443D01*
X604264Y615477D02*
X606298Y617510D01*
X606298Y620459D02*
X606298Y624527D01*
X602231Y624527D02*
X606298Y620459D01*
X602231Y624527D02*
X601214Y624527D01*
X600197Y623510D01*
X600197Y621476D01*
X601214Y620459D01*
X601214Y627476D02*
X605281Y627476D01*
X601214Y627476D02*
X600197Y628492D01*
X600197Y630526D01*
X601214Y631543D01*
X605281Y631543D01*
X606298Y630526D01*
X606298Y628492D01*
X605281Y627476D01*
X601214Y631543D01*
X731007Y610903D02*
X737108Y610903D01*
X731007Y610903D02*
X731007Y613953D01*
X732024Y614970D01*
X734057Y614970D01*
X735074Y613953D01*
X735074Y610903D01*
X735074Y612937D02*
X737108Y614970D01*
X737108Y617919D02*
X737108Y621987D01*
X733041Y621987D02*
X737108Y617919D01*
X733041Y621987D02*
X732024Y621987D01*
X731007Y620970D01*
X731007Y618936D01*
X732024Y617919D01*
X731007Y624936D02*
X731007Y629003D01*
X731007Y624936D02*
X734057Y624936D01*
X733041Y626969D01*
X733041Y627986D01*
X734057Y629003D01*
X736091Y629003D01*
X737108Y627986D01*
X737108Y625952D01*
X736091Y624936D01*
X885952Y640842D02*
X885952Y646943D01*
X889003Y646943D01*
X890019Y645926D01*
X890019Y643893D01*
X889003Y642876D01*
X885952Y642876D01*
X887986Y642876D02*
X890019Y640842D01*
X892968Y640842D02*
X897036Y640842D01*
X897036Y644909D02*
X892968Y640842D01*
X897036Y644909D02*
X897036Y645926D01*
X896019Y646943D01*
X893985Y646943D01*
X892968Y645926D01*
X902018Y645926D02*
X904052Y646943D01*
X902018Y645926D02*
X899985Y643893D01*
X899985Y641859D01*
X901002Y640842D01*
X903035Y640842D01*
X904052Y641859D01*
X904052Y642876D01*
X903035Y643893D01*
X899985Y643893D01*
X134112Y641350D02*
X134112Y650240D01*
X119888Y638048D02*
X119888Y631952D01*
X125476Y619760D02*
X134112Y619760D01*
X134112Y628650D01*
X134112Y650240D02*
X125476Y650240D01*
X101599Y629126D02*
X96515Y629126D01*
X101599Y629126D02*
X102616Y630143D01*
X102616Y632177D01*
X101599Y633193D01*
X96515Y633193D01*
X101599Y636142D02*
X102616Y637159D01*
X102616Y639193D01*
X101599Y640210D01*
X100582Y640210D01*
X99565Y639193D01*
X99565Y637159D01*
X98549Y636142D01*
X97532Y636142D01*
X96515Y637159D01*
X96515Y639193D01*
X97532Y640210D01*
X95498Y638176D02*
X103633Y638176D01*
X97532Y645192D02*
X96515Y647226D01*
X97532Y645192D02*
X99565Y643159D01*
X101599Y643159D01*
X102616Y644176D01*
X102616Y646209D01*
X101599Y647226D01*
X100582Y647226D01*
X99565Y646209D01*
X99565Y643159D01*
X130559Y682772D02*
X129543Y683789D01*
X127509Y683789D01*
X126492Y682772D01*
X126492Y678705D01*
X127509Y677688D01*
X129543Y677688D01*
X130559Y678705D01*
X133508Y683789D02*
X137576Y683789D01*
X133508Y683789D02*
X133508Y680739D01*
X135542Y681755D01*
X136559Y681755D01*
X137576Y680739D01*
X137576Y678705D01*
X136559Y677688D01*
X134525Y677688D01*
X133508Y678705D01*
X97730Y605049D02*
X98747Y604032D01*
X97730Y605049D02*
X95696Y605049D01*
X94679Y604032D01*
X94679Y599965D01*
X95696Y598948D01*
X97730Y598948D01*
X98747Y599965D01*
X103729Y604032D02*
X105763Y605049D01*
X103729Y604032D02*
X101696Y601999D01*
X101696Y599965D01*
X102712Y598948D01*
X104746Y598948D01*
X105763Y599965D01*
X105763Y600982D01*
X104746Y601999D01*
X101696Y601999D01*
D10*
X77470Y590566D02*
X48260Y591836D01*
X45720Y594376D01*
X45720Y688356D01*
X48260Y690896D01*
X77470Y692166D01*
X49276Y686324D02*
X49278Y686424D01*
X49284Y686525D01*
X49294Y686624D01*
X49308Y686724D01*
X49325Y686823D01*
X49347Y686921D01*
X49373Y687018D01*
X49402Y687114D01*
X49435Y687208D01*
X49472Y687302D01*
X49512Y687394D01*
X49556Y687484D01*
X49604Y687572D01*
X49655Y687659D01*
X49709Y687743D01*
X49767Y687825D01*
X49828Y687905D01*
X49892Y687982D01*
X49959Y688057D01*
X50029Y688129D01*
X50102Y688198D01*
X50177Y688264D01*
X50255Y688328D01*
X50335Y688388D01*
X50418Y688445D01*
X50503Y688498D01*
X50590Y688548D01*
X50679Y688595D01*
X50769Y688638D01*
X50861Y688678D01*
X50955Y688714D01*
X51050Y688746D01*
X51146Y688774D01*
X51244Y688799D01*
X51342Y688819D01*
X51441Y688836D01*
X51541Y688849D01*
X51640Y688858D01*
X51741Y688863D01*
X51841Y688864D01*
X51941Y688861D01*
X52042Y688854D01*
X52141Y688843D01*
X52241Y688828D01*
X52339Y688810D01*
X52437Y688787D01*
X52534Y688760D01*
X52629Y688730D01*
X52724Y688696D01*
X52817Y688658D01*
X52908Y688617D01*
X52998Y688572D01*
X53086Y688524D01*
X53172Y688472D01*
X53256Y688417D01*
X53337Y688358D01*
X53416Y688296D01*
X53493Y688232D01*
X53567Y688164D01*
X53638Y688093D01*
X53707Y688020D01*
X53772Y687944D01*
X53835Y687865D01*
X53894Y687784D01*
X53950Y687701D01*
X54003Y687616D01*
X54052Y687528D01*
X54098Y687439D01*
X54140Y687348D01*
X54179Y687255D01*
X54214Y687161D01*
X54245Y687066D01*
X54273Y686969D01*
X54296Y686872D01*
X54316Y686773D01*
X54332Y686674D01*
X54344Y686575D01*
X54352Y686474D01*
X54356Y686374D01*
X54356Y686274D01*
X54352Y686174D01*
X54344Y686073D01*
X54332Y685974D01*
X54316Y685875D01*
X54296Y685776D01*
X54273Y685679D01*
X54245Y685582D01*
X54214Y685487D01*
X54179Y685393D01*
X54140Y685300D01*
X54098Y685209D01*
X54052Y685120D01*
X54003Y685032D01*
X53950Y684947D01*
X53894Y684864D01*
X53835Y684783D01*
X53772Y684704D01*
X53707Y684628D01*
X53638Y684555D01*
X53567Y684484D01*
X53493Y684416D01*
X53416Y684352D01*
X53337Y684290D01*
X53256Y684231D01*
X53172Y684176D01*
X53086Y684124D01*
X52998Y684076D01*
X52908Y684031D01*
X52817Y683990D01*
X52724Y683952D01*
X52629Y683918D01*
X52534Y683888D01*
X52437Y683861D01*
X52339Y683838D01*
X52241Y683820D01*
X52141Y683805D01*
X52042Y683794D01*
X51941Y683787D01*
X51841Y683784D01*
X51741Y683785D01*
X51640Y683790D01*
X51541Y683799D01*
X51441Y683812D01*
X51342Y683829D01*
X51244Y683849D01*
X51146Y683874D01*
X51050Y683902D01*
X50955Y683934D01*
X50861Y683970D01*
X50769Y684010D01*
X50679Y684053D01*
X50590Y684100D01*
X50503Y684150D01*
X50418Y684203D01*
X50335Y684260D01*
X50255Y684320D01*
X50177Y684384D01*
X50102Y684450D01*
X50029Y684519D01*
X49959Y684591D01*
X49892Y684666D01*
X49828Y684743D01*
X49767Y684823D01*
X49709Y684905D01*
X49655Y684989D01*
X49604Y685076D01*
X49556Y685164D01*
X49512Y685254D01*
X49472Y685346D01*
X49435Y685440D01*
X49402Y685534D01*
X49373Y685630D01*
X49347Y685727D01*
X49325Y685825D01*
X49308Y685924D01*
X49294Y686024D01*
X49284Y686123D01*
X49278Y686224D01*
X49276Y686324D01*
D19*
X85090Y641366D03*
D20*
X78740Y685181D03*
D21*
X78740Y654066D03*
X78740Y628666D03*
D20*
X78740Y597551D03*
D12*
X37846Y636118D02*
X37846Y638151D01*
X37846Y637134D02*
X31745Y637134D01*
X31745Y636118D02*
X31745Y638151D01*
X31745Y643846D02*
X32762Y644863D01*
X31745Y643846D02*
X31745Y641812D01*
X32762Y640795D01*
X36829Y640795D01*
X37846Y641812D01*
X37846Y643846D01*
X36829Y644863D01*
X37846Y647812D02*
X37846Y651879D01*
X37846Y647812D02*
X33779Y651879D01*
X32762Y651879D01*
X31745Y650862D01*
X31745Y648828D01*
X32762Y647812D01*
X378463Y648229D02*
X379479Y647212D01*
X378463Y648229D02*
X376429Y648229D01*
X375412Y647212D01*
X375412Y643145D01*
X376429Y642128D01*
X378463Y642128D01*
X379479Y643145D01*
X382428Y643145D02*
X383445Y642128D01*
X385479Y642128D01*
X386496Y643145D01*
X386496Y647212D01*
X385479Y648229D01*
X383445Y648229D01*
X382428Y647212D01*
X382428Y646195D01*
X383445Y645179D01*
X386496Y645179D01*
X516893Y645689D02*
X517909Y644672D01*
X516893Y645689D02*
X514859Y645689D01*
X513842Y644672D01*
X513842Y640605D01*
X514859Y639588D01*
X516893Y639588D01*
X517909Y640605D01*
X520858Y643655D02*
X522892Y645689D01*
X522892Y639588D01*
X520858Y639588D02*
X524926Y639588D01*
X527875Y639588D02*
X531942Y639588D01*
X527875Y639588D02*
X531942Y643655D01*
X531942Y644672D01*
X530925Y645689D01*
X528892Y645689D01*
X527875Y644672D01*
X642623Y645689D02*
X643639Y644672D01*
X642623Y645689D02*
X640589Y645689D01*
X639572Y644672D01*
X639572Y640605D01*
X640589Y639588D01*
X642623Y639588D01*
X643639Y640605D01*
X646588Y643655D02*
X648622Y645689D01*
X648622Y639588D01*
X646588Y639588D02*
X650656Y639588D01*
X653605Y644672D02*
X654622Y645689D01*
X656655Y645689D01*
X657672Y644672D01*
X657672Y643655D01*
X656655Y642639D01*
X655638Y642639D01*
X656655Y642639D02*
X657672Y641622D01*
X657672Y640605D01*
X656655Y639588D01*
X654622Y639588D01*
X653605Y640605D01*
X817883Y645689D02*
X818899Y644672D01*
X817883Y645689D02*
X815849Y645689D01*
X814832Y644672D01*
X814832Y640605D01*
X815849Y639588D01*
X817883Y639588D01*
X818899Y640605D01*
X821848Y643655D02*
X823882Y645689D01*
X823882Y639588D01*
X821848Y639588D02*
X825916Y639588D01*
X831915Y639588D02*
X831915Y645689D01*
X828865Y642639D01*
X832932Y642639D01*
X806977Y569473D02*
X807994Y568456D01*
X806977Y569473D02*
X804944Y569473D01*
X803927Y568456D01*
X803927Y564389D01*
X804944Y563372D01*
X806977Y563372D01*
X807994Y564389D01*
X810943Y567439D02*
X812977Y569473D01*
X812977Y563372D01*
X810943Y563372D02*
X815011Y563372D01*
X817960Y569473D02*
X822027Y569473D01*
X817960Y569473D02*
X817960Y566423D01*
X819993Y567439D01*
X821010Y567439D01*
X822027Y566423D01*
X822027Y564389D01*
X821010Y563372D01*
X818976Y563372D01*
X817960Y564389D01*
X667040Y569742D02*
X666023Y570759D01*
X663990Y570759D01*
X662973Y569742D01*
X662973Y565675D01*
X663990Y564658D01*
X666023Y564658D01*
X667040Y565675D01*
X669989Y568725D02*
X672023Y570759D01*
X672023Y564658D01*
X669989Y564658D02*
X674057Y564658D01*
X677006Y570759D02*
X681073Y570759D01*
X681073Y569742D01*
X677006Y565675D01*
X677006Y564658D01*
X757897Y513713D02*
X757897Y507612D01*
X757897Y513713D02*
X760947Y513713D01*
X761964Y512696D01*
X761964Y510663D01*
X760947Y509646D01*
X757897Y509646D01*
X759931Y509646D02*
X761964Y507612D01*
X764913Y507612D02*
X768981Y507612D01*
X768981Y511679D02*
X764913Y507612D01*
X768981Y511679D02*
X768981Y512696D01*
X767964Y513713D01*
X765930Y513713D01*
X764913Y512696D01*
X771930Y512696D02*
X772946Y513713D01*
X774980Y513713D01*
X775997Y512696D01*
X775997Y511679D01*
X774980Y510663D01*
X775997Y509646D01*
X775997Y508629D01*
X774980Y507612D01*
X772946Y507612D01*
X771930Y508629D01*
X771930Y509646D01*
X772946Y510663D01*
X771930Y511679D01*
X771930Y512696D01*
X772946Y510663D02*
X774980Y510663D01*
D14*
X58420Y444516D02*
X58420Y431816D01*
X52070Y425466D01*
X39370Y425466D02*
X33020Y431816D01*
X52070Y425466D02*
X58420Y419116D01*
X58420Y406416D01*
X52070Y400066D01*
X39370Y400066D02*
X33020Y406416D01*
X33020Y419116D01*
X39370Y425466D01*
X39370Y450866D02*
X52070Y450866D01*
X58420Y444516D01*
X39370Y450866D02*
X33020Y444516D01*
X33020Y431816D01*
X39370Y400066D02*
X52070Y400066D01*
D12*
X33578Y457454D02*
X32561Y458471D01*
X33578Y457454D02*
X34595Y457454D01*
X35611Y458471D01*
X35611Y463555D01*
X34595Y463555D02*
X36628Y463555D01*
X39577Y463555D02*
X39577Y457454D01*
X39577Y463555D02*
X42628Y463555D01*
X43645Y462538D01*
X43645Y460505D01*
X42628Y459488D01*
X39577Y459488D01*
X46594Y457454D02*
X50661Y457454D01*
X46594Y457454D02*
X50661Y461521D01*
X50661Y462538D01*
X49644Y463555D01*
X47610Y463555D01*
X46594Y462538D01*
D14*
X270400Y533566D02*
X274400Y533566D01*
X288400Y533566D01*
X274400Y520566D02*
X270400Y520566D01*
X274400Y520566D02*
X288400Y520566D01*
X274400Y520566D02*
X274400Y533566D01*
D12*
X276352Y513609D02*
X276352Y507508D01*
X279403Y507508D01*
X280419Y508525D01*
X280419Y512592D01*
X279403Y513609D01*
X276352Y513609D01*
X283368Y511575D02*
X285402Y513609D01*
X285402Y507508D01*
X283368Y507508D02*
X287436Y507508D01*
X204503Y507259D02*
X204503Y501158D01*
X204503Y507259D02*
X207553Y507259D01*
X208570Y506242D01*
X208570Y504209D01*
X207553Y503192D01*
X204503Y503192D01*
X206537Y503192D02*
X208570Y501158D01*
X211519Y501158D02*
X215587Y501158D01*
X215587Y505225D02*
X211519Y501158D01*
X215587Y505225D02*
X215587Y506242D01*
X214570Y507259D01*
X212536Y507259D01*
X211519Y506242D01*
X218536Y502175D02*
X219552Y501158D01*
X221586Y501158D01*
X222603Y502175D01*
X222603Y506242D01*
X221586Y507259D01*
X219552Y507259D01*
X218536Y506242D01*
X218536Y505225D01*
X219552Y504209D01*
X222603Y504209D01*
D18*
X229334Y667500D02*
X206334Y667500D01*
X229334Y667500D02*
X229334Y619500D01*
X212334Y602500D01*
X206334Y602500D01*
X187334Y602500D02*
X181334Y602500D01*
X164334Y619500D01*
X164334Y667500D01*
X187334Y667500D01*
X206334Y664500D02*
X207052Y664259D01*
X207765Y664000D01*
X208470Y663724D01*
X209169Y663431D01*
X209861Y663121D01*
X210544Y662794D01*
X211220Y662451D01*
X211887Y662091D01*
X212545Y661715D01*
X213193Y661323D01*
X213832Y660915D01*
X214460Y660492D01*
X215078Y660053D01*
X215685Y659600D01*
X216281Y659131D01*
X216865Y658649D01*
X217437Y658152D01*
X217997Y657641D01*
X218544Y657117D01*
X219079Y656580D01*
X219600Y656029D01*
X220107Y655466D01*
X220600Y654891D01*
X221080Y654304D01*
X221544Y653706D01*
X221994Y653096D01*
X222429Y652475D01*
X222849Y651844D01*
X223253Y651203D01*
X223641Y650553D01*
X224013Y649892D01*
X224369Y649224D01*
X224709Y648546D01*
X225032Y647860D01*
X225338Y647167D01*
X225627Y646467D01*
X225898Y645759D01*
X226153Y645046D01*
X226390Y644326D01*
X226609Y643600D01*
X226810Y642870D01*
X226994Y642135D01*
X227159Y641395D01*
X227306Y640652D01*
X227435Y639905D01*
X227546Y639155D01*
X227639Y638403D01*
X227713Y637649D01*
X227768Y636893D01*
X227805Y636136D01*
X227824Y635379D01*
X227824Y634621D01*
X227805Y633864D01*
X227768Y633107D01*
X227713Y632351D01*
X227639Y631597D01*
X227546Y630845D01*
X227435Y630095D01*
X227306Y629348D01*
X227159Y628605D01*
X226994Y627865D01*
X226810Y627130D01*
X226609Y626400D01*
X226390Y625674D01*
X226153Y624954D01*
X225898Y624241D01*
X225627Y623533D01*
X225338Y622833D01*
X225032Y622140D01*
X224709Y621454D01*
X224369Y620776D01*
X224013Y620108D01*
X223641Y619447D01*
X223253Y618797D01*
X222849Y618156D01*
X222429Y617525D01*
X221994Y616904D01*
X221544Y616294D01*
X221080Y615696D01*
X220600Y615109D01*
X220107Y614534D01*
X219600Y613971D01*
X219079Y613420D01*
X218544Y612883D01*
X217997Y612359D01*
X217437Y611848D01*
X216865Y611351D01*
X216281Y610869D01*
X215685Y610400D01*
X215078Y609947D01*
X214460Y609508D01*
X213832Y609085D01*
X213193Y608677D01*
X212545Y608285D01*
X211887Y607909D01*
X211220Y607549D01*
X210544Y607206D01*
X209861Y606879D01*
X209169Y606569D01*
X208470Y606276D01*
X207765Y606000D01*
X207052Y605741D01*
X206334Y605500D01*
X187334Y605500D02*
X186616Y605741D01*
X185903Y606000D01*
X185198Y606276D01*
X184499Y606569D01*
X183807Y606879D01*
X183124Y607206D01*
X182448Y607549D01*
X181781Y607909D01*
X181123Y608285D01*
X180475Y608677D01*
X179836Y609085D01*
X179208Y609508D01*
X178590Y609947D01*
X177983Y610400D01*
X177387Y610869D01*
X176803Y611351D01*
X176231Y611848D01*
X175671Y612359D01*
X175124Y612883D01*
X174589Y613420D01*
X174068Y613971D01*
X173561Y614534D01*
X173068Y615109D01*
X172588Y615696D01*
X172124Y616294D01*
X171674Y616904D01*
X171239Y617525D01*
X170819Y618156D01*
X170415Y618797D01*
X170027Y619447D01*
X169655Y620108D01*
X169299Y620776D01*
X168959Y621454D01*
X168636Y622140D01*
X168330Y622833D01*
X168041Y623533D01*
X167770Y624241D01*
X167515Y624954D01*
X167278Y625674D01*
X167059Y626400D01*
X166858Y627130D01*
X166674Y627865D01*
X166509Y628605D01*
X166362Y629348D01*
X166233Y630095D01*
X166122Y630845D01*
X166029Y631597D01*
X165955Y632351D01*
X165900Y633107D01*
X165863Y633864D01*
X165844Y634621D01*
X165844Y635379D01*
X165863Y636136D01*
X165900Y636893D01*
X165955Y637649D01*
X166029Y638403D01*
X166122Y639155D01*
X166233Y639905D01*
X166362Y640652D01*
X166509Y641395D01*
X166674Y642135D01*
X166858Y642870D01*
X167059Y643600D01*
X167278Y644326D01*
X167515Y645046D01*
X167770Y645759D01*
X168041Y646467D01*
X168330Y647167D01*
X168636Y647860D01*
X168959Y648546D01*
X169299Y649224D01*
X169655Y649892D01*
X170027Y650553D01*
X170415Y651203D01*
X170819Y651844D01*
X171239Y652475D01*
X171674Y653096D01*
X172124Y653706D01*
X172588Y654304D01*
X173068Y654891D01*
X173561Y655466D01*
X174068Y656029D01*
X174589Y656580D01*
X175124Y657117D01*
X175671Y657641D01*
X176231Y658152D01*
X176803Y658649D01*
X177387Y659131D01*
X177983Y659600D01*
X178590Y660053D01*
X179208Y660492D01*
X179836Y660915D01*
X180475Y661323D01*
X181123Y661715D01*
X181781Y662091D01*
X182448Y662451D01*
X183124Y662794D01*
X183807Y663121D01*
X184499Y663431D01*
X185198Y663724D01*
X185903Y664000D01*
X186616Y664259D01*
X187334Y664500D01*
D12*
X239088Y595640D02*
X238071Y594623D01*
X238071Y592590D01*
X239088Y591573D01*
X243155Y591573D01*
X244172Y592590D01*
X244172Y594623D01*
X243155Y595640D01*
X240105Y598589D02*
X238071Y600623D01*
X244172Y600623D01*
X244172Y598589D02*
X244172Y602657D01*
X239088Y605606D02*
X238071Y606622D01*
X238071Y608656D01*
X239088Y609673D01*
X240105Y609673D01*
X241121Y608656D01*
X242138Y609673D01*
X243155Y609673D01*
X244172Y608656D01*
X244172Y606622D01*
X243155Y605606D01*
X242138Y605606D01*
X241121Y606622D01*
X240105Y605606D01*
X239088Y605606D01*
X241121Y606622D02*
X241121Y608656D01*
X417830Y76466D02*
X417830Y40906D01*
X406400Y40906D01*
X344170Y40906D02*
X344170Y76466D01*
X346710Y43446D02*
X374650Y43446D01*
X355600Y40906D02*
X355600Y38366D01*
X368300Y38366D01*
X406400Y38366D02*
X406400Y40906D01*
X344170Y40906D01*
X368300Y38366D02*
X368300Y34556D01*
X368300Y38366D02*
X393700Y38366D01*
X393700Y34556D02*
X368300Y34556D01*
X393700Y34556D02*
X393700Y38366D01*
X406400Y38366D01*
X374650Y43446D02*
X374650Y53606D01*
X374650Y43446D02*
X387350Y43446D01*
X387350Y53606D02*
X374650Y53606D01*
X387350Y53606D02*
X387350Y43446D01*
X415290Y43446D01*
X354330Y76466D02*
X346710Y76466D01*
X354330Y76466D02*
X354330Y79006D01*
X361950Y79006D01*
X361950Y76466D01*
X373380Y76466D01*
X373380Y73926D01*
X388620Y73926D01*
X388620Y76466D01*
X398780Y76466D01*
X398780Y79006D01*
X407670Y79006D01*
X407670Y76466D01*
X415290Y76466D01*
X346710Y76466D02*
X346710Y71386D01*
X346710Y56146D02*
X346710Y43446D01*
X415290Y43446D02*
X415290Y56146D01*
X415290Y71386D02*
X415290Y76466D01*
X380749Y95012D02*
X379733Y96029D01*
X377699Y96029D01*
X376682Y95012D01*
X376682Y93995D01*
X377699Y92979D01*
X379733Y92979D01*
X380749Y91962D01*
X380749Y90945D01*
X379733Y89928D01*
X377699Y89928D01*
X376682Y90945D01*
X383698Y93995D02*
X385732Y96029D01*
X385732Y89928D01*
X383698Y89928D02*
X387766Y89928D01*
X98747Y578632D02*
X97730Y579649D01*
X95696Y579649D01*
X94679Y578632D01*
X94679Y574565D01*
X95696Y573548D01*
X97730Y573548D01*
X98747Y574565D01*
X101696Y579649D02*
X105763Y579649D01*
X105763Y578632D01*
X101696Y574565D01*
X101696Y573548D01*
D13*
X197231Y754384D02*
X203502Y754384D01*
X200366Y757519D02*
X200366Y751249D01*
D22*
X203550Y776200D03*
X215550Y776200D03*
D23*
X209550Y776200D03*
D14*
X177700Y761100D02*
X177700Y740100D01*
X170700Y714800D02*
X161700Y714800D01*
X117700Y714800D02*
X108700Y714800D01*
X101700Y740100D02*
X101700Y761100D01*
D12*
X132837Y757276D02*
X137921Y757276D01*
X138938Y758293D01*
X138938Y760327D01*
X137921Y761344D01*
X132837Y761344D01*
X137921Y764293D02*
X138938Y765310D01*
X138938Y767343D01*
X137921Y768360D01*
X136904Y768360D01*
X135887Y767343D01*
X135887Y765310D01*
X134871Y764293D01*
X133854Y764293D01*
X132837Y765310D01*
X132837Y767343D01*
X133854Y768360D01*
X131820Y766327D02*
X139955Y766327D01*
X134871Y771309D02*
X132837Y773343D01*
X138938Y773343D01*
X138938Y771309D02*
X138938Y775377D01*
X137921Y778326D02*
X133854Y778326D01*
X132837Y779342D01*
X132837Y781376D01*
X133854Y782393D01*
X137921Y782393D01*
X138938Y781376D01*
X138938Y779342D01*
X137921Y778326D01*
X133854Y782393D01*
X132716Y480573D02*
X132716Y475489D01*
X133733Y474472D01*
X135767Y474472D01*
X136784Y475489D01*
X136784Y480573D01*
X139733Y475489D02*
X140750Y474472D01*
X142783Y474472D01*
X143800Y475489D01*
X143800Y476506D01*
X142783Y477523D01*
X140750Y477523D01*
X139733Y478539D01*
X139733Y479556D01*
X140750Y480573D01*
X142783Y480573D01*
X143800Y479556D01*
X141767Y481590D02*
X141767Y473455D01*
X146749Y478539D02*
X148783Y480573D01*
X148783Y474472D01*
X146749Y474472D02*
X150817Y474472D01*
X153766Y478539D02*
X155799Y480573D01*
X155799Y474472D01*
X153766Y474472D02*
X157833Y474472D01*
D24*
X223000Y833500D02*
X236000Y833500D01*
X300000Y833500D01*
X313000Y833500D01*
X308000Y798500D02*
X223000Y798500D01*
X308000Y798500D02*
X313000Y798500D01*
X308000Y798500D02*
X308000Y713500D01*
X313000Y713500D01*
X313000Y833500D01*
X308000Y713500D02*
X308000Y698500D01*
X308000Y693500D01*
X300000Y823500D02*
X300000Y833500D01*
X300000Y813500D02*
X300000Y803500D01*
X300000Y793500D02*
X300000Y783500D01*
X300000Y773500D02*
X300000Y763500D01*
X300000Y753500D02*
X300000Y743500D01*
X236000Y823500D02*
X236000Y833500D01*
X236000Y813500D02*
X236000Y803500D01*
X236000Y793500D02*
X236000Y783500D01*
X236000Y773500D02*
X236000Y763500D01*
X236000Y753500D02*
X236000Y743500D01*
X250667Y743500D01*
X260667Y743500D02*
X275333Y743500D01*
X285333Y743500D02*
X300000Y743500D01*
X278000Y813500D02*
X277997Y813744D01*
X277988Y813987D01*
X277973Y814230D01*
X277953Y814473D01*
X277926Y814715D01*
X277893Y814956D01*
X277855Y815196D01*
X277811Y815436D01*
X277761Y815674D01*
X277705Y815911D01*
X277643Y816147D01*
X277576Y816381D01*
X277503Y816613D01*
X277424Y816844D01*
X277340Y817072D01*
X277250Y817299D01*
X277155Y817523D01*
X277054Y817745D01*
X276948Y817964D01*
X276837Y818180D01*
X276720Y818394D01*
X276599Y818605D01*
X276472Y818813D01*
X276340Y819018D01*
X276203Y819219D01*
X276061Y819417D01*
X275915Y819612D01*
X275764Y819803D01*
X275608Y819990D01*
X275448Y820173D01*
X275283Y820353D01*
X275114Y820528D01*
X274941Y820699D01*
X274763Y820866D01*
X274582Y821028D01*
X274397Y821186D01*
X274208Y821340D01*
X274015Y821489D01*
X273819Y821633D01*
X273619Y821772D01*
X273416Y821907D01*
X273209Y822036D01*
X273000Y822160D01*
X272788Y822279D01*
X272572Y822393D01*
X272355Y822502D01*
X272134Y822605D01*
X271911Y822703D01*
X271686Y822796D01*
X271458Y822883D01*
X271229Y822964D01*
X270997Y823040D01*
X270764Y823110D01*
X270529Y823175D01*
X270293Y823234D01*
X270055Y823287D01*
X269816Y823334D01*
X269576Y823375D01*
X269335Y823410D01*
X269094Y823440D01*
X268851Y823464D01*
X268608Y823481D01*
X268365Y823493D01*
X268122Y823499D01*
X267878Y823499D01*
X267635Y823493D01*
X267392Y823481D01*
X267149Y823464D01*
X266906Y823440D01*
X266665Y823410D01*
X266424Y823375D01*
X266184Y823334D01*
X265945Y823287D01*
X265707Y823234D01*
X265471Y823175D01*
X265236Y823110D01*
X265003Y823040D01*
X264771Y822964D01*
X264542Y822883D01*
X264314Y822796D01*
X264089Y822703D01*
X263866Y822605D01*
X263645Y822502D01*
X263428Y822393D01*
X263212Y822279D01*
X263000Y822160D01*
X262791Y822036D01*
X262584Y821907D01*
X262381Y821772D01*
X262181Y821633D01*
X261985Y821489D01*
X261792Y821340D01*
X261603Y821186D01*
X261418Y821028D01*
X261237Y820866D01*
X261059Y820699D01*
X260886Y820528D01*
X260717Y820353D01*
X260552Y820173D01*
X260392Y819990D01*
X260236Y819803D01*
X260085Y819612D01*
X259939Y819417D01*
X259797Y819219D01*
X259660Y819018D01*
X259528Y818813D01*
X259401Y818605D01*
X259280Y818394D01*
X259163Y818180D01*
X259052Y817964D01*
X258946Y817745D01*
X258845Y817523D01*
X258750Y817299D01*
X258660Y817072D01*
X258576Y816844D01*
X258497Y816613D01*
X258424Y816381D01*
X258357Y816147D01*
X258295Y815911D01*
X258239Y815674D01*
X258189Y815436D01*
X258145Y815196D01*
X258107Y814956D01*
X258074Y814715D01*
X258047Y814473D01*
X258027Y814230D01*
X258012Y813987D01*
X258003Y813744D01*
X258000Y813500D01*
X223000Y833500D02*
X223000Y751600D01*
X228000Y698500D02*
X228000Y693500D01*
X244500Y693500D01*
X291500Y693500D02*
X308000Y693500D01*
X308000Y713500D02*
X240700Y713500D01*
X291500Y698500D02*
X308000Y698500D01*
X244500Y698500D02*
X228000Y698500D01*
D12*
X317557Y760363D02*
X318574Y761380D01*
X317557Y760363D02*
X317557Y758330D01*
X318574Y757313D01*
X322641Y757313D01*
X323658Y758330D01*
X323658Y760363D01*
X322641Y761380D01*
X323658Y764329D02*
X317557Y764329D01*
X323658Y768397D01*
X317557Y768397D01*
X319591Y771346D02*
X317557Y773379D01*
X323658Y773379D01*
X323658Y771346D02*
X323658Y775413D01*
X859793Y431043D02*
X860809Y430026D01*
X859793Y431043D02*
X857759Y431043D01*
X856742Y430026D01*
X856742Y425959D01*
X857759Y424942D01*
X859793Y424942D01*
X860809Y425959D01*
X863758Y429009D02*
X865792Y431043D01*
X865792Y424942D01*
X863758Y424942D02*
X867826Y424942D01*
X860298Y540512D02*
X854197Y540512D01*
X854197Y543563D01*
X855214Y544579D01*
X857247Y544579D01*
X858264Y543563D01*
X858264Y540512D01*
X858264Y542546D02*
X860298Y544579D01*
X855214Y547528D02*
X854197Y548545D01*
X854197Y550579D01*
X855214Y551596D01*
X856231Y551596D01*
X857247Y550579D01*
X857247Y549562D01*
X857247Y550579D02*
X858264Y551596D01*
X859281Y551596D01*
X860298Y550579D01*
X860298Y548545D01*
X859281Y547528D01*
X860298Y554545D02*
X860298Y558612D01*
X860298Y554545D02*
X856231Y558612D01*
X855214Y558612D01*
X854197Y557595D01*
X854197Y555562D01*
X855214Y554545D01*
X723840Y381513D02*
X724857Y380496D01*
X723840Y381513D02*
X721806Y381513D01*
X720789Y380496D01*
X720789Y376429D01*
X721806Y375412D01*
X723840Y375412D01*
X724857Y376429D01*
X727806Y380496D02*
X728822Y381513D01*
X730856Y381513D01*
X731873Y380496D01*
X731873Y379479D01*
X730856Y378463D01*
X729839Y378463D01*
X730856Y378463D02*
X731873Y377446D01*
X731873Y376429D01*
X730856Y375412D01*
X728822Y375412D01*
X727806Y376429D01*
D25*
X744511Y316230D02*
X744228Y315825D01*
X743935Y315426D01*
X743632Y315035D01*
X743320Y314651D01*
X742999Y314275D01*
X742669Y313907D01*
X742330Y313547D01*
X741982Y313196D01*
X741626Y312853D01*
X741262Y312518D01*
X740889Y312193D01*
X740509Y311877D01*
X740121Y311570D01*
X739726Y311273D01*
X739324Y310985D01*
X738914Y310708D01*
X738499Y310440D01*
X738076Y310183D01*
X737648Y309936D01*
X737214Y309699D01*
X736774Y309473D01*
X736329Y309258D01*
X735879Y309053D01*
X735423Y308860D01*
X734964Y308678D01*
X734500Y308507D01*
X734032Y308348D01*
X733560Y308199D01*
X733085Y308063D01*
X732606Y307938D01*
X732125Y307825D01*
X731641Y307723D01*
X731155Y307633D01*
X730666Y307555D01*
X730176Y307489D01*
X729685Y307435D01*
X729192Y307393D01*
X728698Y307363D01*
X728204Y307345D01*
X727710Y307339D01*
D12*
X750570Y306070D02*
X750570Y316230D01*
D25*
X659130Y307340D02*
X658636Y307346D01*
X658142Y307364D01*
X657648Y307394D01*
X657156Y307436D01*
X656664Y307490D01*
X656174Y307556D01*
X655686Y307634D01*
X655199Y307724D01*
X654716Y307825D01*
X654234Y307939D01*
X653756Y308064D01*
X653281Y308200D01*
X652809Y308348D01*
X652341Y308508D01*
X651877Y308679D01*
X651417Y308861D01*
X650962Y309054D01*
X650511Y309258D01*
X650066Y309473D01*
X649626Y309699D01*
X649192Y309936D01*
X648764Y310183D01*
X648342Y310440D01*
X647926Y310708D01*
X647517Y310986D01*
X647114Y311273D01*
X646719Y311570D01*
X646331Y311877D01*
X645951Y312193D01*
X645579Y312519D01*
X645214Y312853D01*
X644858Y313196D01*
X644510Y313547D01*
X644171Y313907D01*
X643841Y314275D01*
X643520Y314651D01*
X643208Y315035D01*
X642905Y315426D01*
X642613Y315825D01*
X642329Y316230D01*
D12*
X636270Y316230D02*
X636270Y306070D01*
D25*
X659130Y340360D02*
X727710Y340360D01*
X727710Y347980D02*
X659130Y347980D01*
X659130Y314960D02*
X727710Y314960D01*
D12*
X748030Y351790D02*
X638810Y351790D01*
X638710Y351788D01*
X638611Y351782D01*
X638511Y351772D01*
X638413Y351759D01*
X638314Y351741D01*
X638217Y351720D01*
X638121Y351695D01*
X638025Y351666D01*
X637931Y351633D01*
X637838Y351597D01*
X637747Y351557D01*
X637657Y351513D01*
X637569Y351466D01*
X637483Y351416D01*
X637399Y351362D01*
X637317Y351305D01*
X637238Y351245D01*
X637160Y351181D01*
X637086Y351115D01*
X637014Y351046D01*
X636945Y350974D01*
X636879Y350900D01*
X636815Y350822D01*
X636755Y350743D01*
X636698Y350661D01*
X636644Y350577D01*
X636594Y350491D01*
X636547Y350403D01*
X636503Y350313D01*
X636463Y350222D01*
X636427Y350129D01*
X636394Y350035D01*
X636365Y349939D01*
X636340Y349843D01*
X636319Y349746D01*
X636301Y349647D01*
X636288Y349549D01*
X636278Y349449D01*
X636272Y349350D01*
X636270Y349250D01*
X636270Y339090D01*
D25*
X653594Y339090D02*
X653867Y339218D01*
X654143Y339340D01*
X654422Y339455D01*
X654703Y339563D01*
X654987Y339665D01*
X655273Y339760D01*
X655561Y339848D01*
X655851Y339930D01*
X656144Y340004D01*
X656437Y340071D01*
X656733Y340132D01*
X657029Y340185D01*
X657327Y340231D01*
X657626Y340271D01*
X657926Y340303D01*
X658227Y340328D01*
X658527Y340346D01*
X658829Y340356D01*
X659130Y340360D01*
X653594Y316230D02*
X653867Y316102D01*
X654143Y315980D01*
X654422Y315865D01*
X654703Y315757D01*
X654987Y315655D01*
X655273Y315560D01*
X655561Y315472D01*
X655851Y315390D01*
X656144Y315316D01*
X656437Y315249D01*
X656733Y315188D01*
X657029Y315135D01*
X657327Y315089D01*
X657626Y315049D01*
X657926Y315017D01*
X658227Y314992D01*
X658527Y314974D01*
X658829Y314964D01*
X659130Y314960D01*
X642330Y339089D02*
X642613Y339494D01*
X642906Y339893D01*
X643208Y340284D01*
X643520Y340668D01*
X643841Y341044D01*
X644171Y341412D01*
X644510Y341772D01*
X644858Y342123D01*
X645214Y342466D01*
X645579Y342801D01*
X645951Y343126D01*
X646331Y343442D01*
X646719Y343749D01*
X647114Y344046D01*
X647517Y344334D01*
X647926Y344611D01*
X648341Y344879D01*
X648764Y345136D01*
X649192Y345383D01*
X649626Y345620D01*
X650066Y345846D01*
X650511Y346061D01*
X650961Y346265D01*
X651417Y346459D01*
X651876Y346641D01*
X652340Y346812D01*
X652808Y346971D01*
X653280Y347119D01*
X653755Y347256D01*
X654234Y347381D01*
X654715Y347494D01*
X655199Y347596D01*
X655685Y347686D01*
X656173Y347764D01*
X656663Y347830D01*
X657155Y347884D01*
X657648Y347926D01*
X658141Y347956D01*
X658635Y347974D01*
X659130Y347980D01*
X727710Y347980D02*
X728204Y347974D01*
X728698Y347956D01*
X729192Y347926D01*
X729684Y347884D01*
X730176Y347830D01*
X730666Y347764D01*
X731154Y347686D01*
X731641Y347596D01*
X732124Y347495D01*
X732606Y347381D01*
X733084Y347256D01*
X733559Y347120D01*
X734031Y346972D01*
X734499Y346812D01*
X734963Y346641D01*
X735423Y346459D01*
X735878Y346266D01*
X736329Y346062D01*
X736774Y345847D01*
X737214Y345621D01*
X737648Y345384D01*
X738076Y345137D01*
X738498Y344880D01*
X738914Y344612D01*
X739323Y344334D01*
X739726Y344047D01*
X740121Y343750D01*
X740509Y343443D01*
X740889Y343127D01*
X741261Y342801D01*
X741626Y342467D01*
X741982Y342124D01*
X742330Y341773D01*
X742669Y341413D01*
X742999Y341045D01*
X743320Y340669D01*
X743632Y340285D01*
X743935Y339894D01*
X744227Y339495D01*
X744511Y339090D01*
X733246Y339090D02*
X732973Y339218D01*
X732697Y339340D01*
X732418Y339455D01*
X732137Y339563D01*
X731853Y339665D01*
X731567Y339760D01*
X731279Y339848D01*
X730989Y339930D01*
X730696Y340004D01*
X730403Y340071D01*
X730107Y340132D01*
X729811Y340185D01*
X729513Y340231D01*
X729214Y340271D01*
X728914Y340303D01*
X728613Y340328D01*
X728313Y340346D01*
X728011Y340356D01*
X727710Y340360D01*
X733246Y316230D02*
X732973Y316102D01*
X732697Y315980D01*
X732418Y315865D01*
X732137Y315757D01*
X731853Y315655D01*
X731567Y315560D01*
X731279Y315472D01*
X730989Y315390D01*
X730696Y315316D01*
X730403Y315249D01*
X730107Y315188D01*
X729811Y315135D01*
X729513Y315089D01*
X729214Y315049D01*
X728914Y315017D01*
X728613Y314992D01*
X728313Y314974D01*
X728011Y314964D01*
X727710Y314960D01*
D12*
X750570Y339090D02*
X750570Y349250D01*
X750568Y349350D01*
X750562Y349449D01*
X750552Y349549D01*
X750539Y349647D01*
X750521Y349746D01*
X750500Y349843D01*
X750475Y349939D01*
X750446Y350035D01*
X750413Y350129D01*
X750377Y350222D01*
X750337Y350313D01*
X750293Y350403D01*
X750246Y350491D01*
X750196Y350577D01*
X750142Y350661D01*
X750085Y350743D01*
X750025Y350822D01*
X749961Y350900D01*
X749895Y350974D01*
X749826Y351046D01*
X749754Y351115D01*
X749680Y351181D01*
X749602Y351245D01*
X749523Y351305D01*
X749441Y351362D01*
X749357Y351416D01*
X749271Y351466D01*
X749183Y351513D01*
X749093Y351557D01*
X749002Y351597D01*
X748909Y351633D01*
X748815Y351666D01*
X748719Y351695D01*
X748623Y351720D01*
X748526Y351741D01*
X748427Y351759D01*
X748329Y351772D01*
X748229Y351782D01*
X748130Y351788D01*
X748030Y351790D01*
D25*
X727710Y307340D02*
X659130Y307340D01*
D12*
X638810Y303530D02*
X748030Y303530D01*
X638810Y303530D02*
X638710Y303532D01*
X638611Y303538D01*
X638511Y303548D01*
X638413Y303561D01*
X638314Y303579D01*
X638217Y303600D01*
X638121Y303625D01*
X638025Y303654D01*
X637931Y303687D01*
X637838Y303723D01*
X637747Y303763D01*
X637657Y303807D01*
X637569Y303854D01*
X637483Y303904D01*
X637399Y303958D01*
X637317Y304015D01*
X637238Y304075D01*
X637160Y304139D01*
X637086Y304205D01*
X637014Y304274D01*
X636945Y304346D01*
X636879Y304420D01*
X636815Y304498D01*
X636755Y304577D01*
X636698Y304659D01*
X636644Y304743D01*
X636594Y304829D01*
X636547Y304917D01*
X636503Y305007D01*
X636463Y305098D01*
X636427Y305191D01*
X636394Y305285D01*
X636365Y305381D01*
X636340Y305477D01*
X636319Y305574D01*
X636301Y305673D01*
X636288Y305771D01*
X636278Y305871D01*
X636272Y305970D01*
X636270Y306070D01*
X748030Y303530D02*
X748130Y303532D01*
X748229Y303538D01*
X748329Y303548D01*
X748427Y303561D01*
X748526Y303579D01*
X748623Y303600D01*
X748719Y303625D01*
X748815Y303654D01*
X748909Y303687D01*
X749002Y303723D01*
X749093Y303763D01*
X749183Y303807D01*
X749271Y303854D01*
X749357Y303904D01*
X749441Y303958D01*
X749523Y304015D01*
X749602Y304075D01*
X749680Y304139D01*
X749754Y304205D01*
X749826Y304274D01*
X749895Y304346D01*
X749961Y304420D01*
X750025Y304498D01*
X750085Y304577D01*
X750142Y304659D01*
X750196Y304743D01*
X750246Y304829D01*
X750293Y304917D01*
X750337Y305007D01*
X750377Y305098D01*
X750413Y305191D01*
X750446Y305285D01*
X750475Y305381D01*
X750500Y305477D01*
X750521Y305574D01*
X750539Y305673D01*
X750552Y305771D01*
X750562Y305871D01*
X750568Y305970D01*
X750570Y306070D01*
X695960Y321310D02*
X695960Y334010D01*
X690880Y334010D01*
X690880Y321310D01*
X695960Y321310D01*
X699770Y321310D02*
X699770Y327660D01*
X699770Y334010D01*
D25*
X699770Y327660D02*
X703580Y327660D01*
D12*
X687070Y327660D02*
X687070Y321310D01*
X687070Y327660D02*
X687070Y334010D01*
D25*
X687070Y327660D02*
X683260Y327660D01*
D12*
X683959Y295406D02*
X683959Y291339D01*
X683959Y295406D02*
X684976Y296423D01*
X687010Y296423D01*
X688027Y295406D01*
X688027Y291339D01*
X687010Y290322D01*
X684976Y290322D01*
X683959Y291339D01*
X685993Y292356D02*
X688027Y290322D01*
X690976Y294389D02*
X693009Y296423D01*
X693009Y290322D01*
X690976Y290322D02*
X695043Y290322D01*
X639909Y283266D02*
X638893Y284283D01*
X636859Y284283D01*
X635842Y283266D01*
X635842Y279199D01*
X636859Y278182D01*
X638893Y278182D01*
X639909Y279199D01*
X645909Y278182D02*
X645909Y284283D01*
X642858Y281233D01*
X646926Y281233D01*
X757383Y294043D02*
X758400Y293026D01*
X757383Y294043D02*
X755350Y294043D01*
X754333Y293026D01*
X754333Y288959D01*
X755350Y287942D01*
X757383Y287942D01*
X758400Y288959D01*
X761349Y292009D02*
X763383Y294043D01*
X763383Y287942D01*
X761349Y287942D02*
X765417Y287942D01*
X768366Y292009D02*
X770399Y294043D01*
X770399Y287942D01*
X768366Y287942D02*
X772433Y287942D01*
X903727Y543563D02*
X904744Y544579D01*
X903727Y543563D02*
X903727Y541529D01*
X904744Y540512D01*
X908811Y540512D01*
X909828Y541529D01*
X909828Y543563D01*
X908811Y544579D01*
X904744Y547528D02*
X903727Y548545D01*
X903727Y550579D01*
X904744Y551596D01*
X905761Y551596D01*
X906777Y550579D01*
X907794Y551596D01*
X908811Y551596D01*
X909828Y550579D01*
X909828Y548545D01*
X908811Y547528D01*
X907794Y547528D01*
X906777Y548545D01*
X905761Y547528D01*
X904744Y547528D01*
X906777Y548545D02*
X906777Y550579D01*
X781050Y468668D02*
X830618Y419100D01*
X781050Y369532D01*
X733992Y416590D01*
X733992Y421610D02*
X781050Y468668D01*
X733992Y421610D02*
X733992Y416590D01*
X738663Y419100D02*
X738665Y419219D01*
X738671Y419339D01*
X738681Y419458D01*
X738695Y419576D01*
X738713Y419694D01*
X738734Y419812D01*
X738760Y419928D01*
X738789Y420044D01*
X738823Y420159D01*
X738860Y420272D01*
X738901Y420384D01*
X738945Y420495D01*
X738993Y420605D01*
X739045Y420712D01*
X739100Y420818D01*
X739159Y420922D01*
X739222Y421024D01*
X739287Y421123D01*
X739356Y421221D01*
X739428Y421316D01*
X739503Y421409D01*
X739582Y421499D01*
X739663Y421587D01*
X739747Y421671D01*
X739834Y421753D01*
X739923Y421832D01*
X740015Y421908D01*
X740110Y421981D01*
X740207Y422051D01*
X740306Y422117D01*
X740408Y422180D01*
X740511Y422240D01*
X740616Y422296D01*
X740723Y422349D01*
X740832Y422398D01*
X740943Y422444D01*
X741055Y422485D01*
X741168Y422523D01*
X741282Y422558D01*
X741398Y422588D01*
X741514Y422615D01*
X741631Y422637D01*
X741749Y422656D01*
X741868Y422671D01*
X741987Y422682D01*
X742106Y422689D01*
X742225Y422692D01*
X742345Y422691D01*
X742464Y422686D01*
X742583Y422677D01*
X742702Y422664D01*
X742820Y422647D01*
X742937Y422627D01*
X743054Y422602D01*
X743170Y422573D01*
X743285Y422541D01*
X743399Y422505D01*
X743512Y422465D01*
X743623Y422421D01*
X743732Y422374D01*
X743840Y422323D01*
X743947Y422269D01*
X744051Y422211D01*
X744153Y422149D01*
X744254Y422085D01*
X744352Y422016D01*
X744448Y421945D01*
X744541Y421871D01*
X744632Y421793D01*
X744720Y421713D01*
X744805Y421629D01*
X744888Y421543D01*
X744968Y421454D01*
X745045Y421363D01*
X745118Y421269D01*
X745189Y421172D01*
X745256Y421074D01*
X745320Y420973D01*
X745381Y420870D01*
X745438Y420765D01*
X745491Y420659D01*
X745541Y420550D01*
X745588Y420440D01*
X745630Y420329D01*
X745669Y420216D01*
X745705Y420102D01*
X745736Y419986D01*
X745763Y419870D01*
X745787Y419753D01*
X745807Y419635D01*
X745823Y419517D01*
X745835Y419398D01*
X745843Y419279D01*
X745847Y419160D01*
X745847Y419040D01*
X745843Y418921D01*
X745835Y418802D01*
X745823Y418683D01*
X745807Y418565D01*
X745787Y418447D01*
X745763Y418330D01*
X745736Y418214D01*
X745705Y418098D01*
X745669Y417984D01*
X745630Y417871D01*
X745588Y417760D01*
X745541Y417650D01*
X745491Y417541D01*
X745438Y417435D01*
X745381Y417330D01*
X745320Y417227D01*
X745256Y417126D01*
X745189Y417028D01*
X745118Y416931D01*
X745045Y416837D01*
X744968Y416746D01*
X744888Y416657D01*
X744805Y416571D01*
X744720Y416487D01*
X744632Y416407D01*
X744541Y416329D01*
X744448Y416255D01*
X744352Y416184D01*
X744254Y416115D01*
X744153Y416051D01*
X744051Y415989D01*
X743947Y415931D01*
X743840Y415877D01*
X743732Y415826D01*
X743623Y415779D01*
X743512Y415735D01*
X743399Y415695D01*
X743285Y415659D01*
X743170Y415627D01*
X743054Y415598D01*
X742937Y415573D01*
X742820Y415553D01*
X742702Y415536D01*
X742583Y415523D01*
X742464Y415514D01*
X742345Y415509D01*
X742225Y415508D01*
X742106Y415511D01*
X741987Y415518D01*
X741868Y415529D01*
X741749Y415544D01*
X741631Y415563D01*
X741514Y415585D01*
X741398Y415612D01*
X741282Y415642D01*
X741168Y415677D01*
X741055Y415715D01*
X740943Y415756D01*
X740832Y415802D01*
X740723Y415851D01*
X740616Y415904D01*
X740511Y415960D01*
X740408Y416020D01*
X740306Y416083D01*
X740207Y416149D01*
X740110Y416219D01*
X740015Y416292D01*
X739923Y416368D01*
X739834Y416447D01*
X739747Y416529D01*
X739663Y416613D01*
X739582Y416701D01*
X739503Y416791D01*
X739428Y416884D01*
X739356Y416979D01*
X739287Y417077D01*
X739222Y417176D01*
X739159Y417278D01*
X739100Y417382D01*
X739045Y417488D01*
X738993Y417595D01*
X738945Y417705D01*
X738901Y417816D01*
X738860Y417928D01*
X738823Y418041D01*
X738789Y418156D01*
X738760Y418272D01*
X738734Y418388D01*
X738713Y418506D01*
X738695Y418624D01*
X738681Y418742D01*
X738671Y418861D01*
X738665Y418981D01*
X738663Y419100D01*
X768693Y218493D02*
X769710Y217476D01*
X768693Y218493D02*
X766660Y218493D01*
X765643Y217476D01*
X765643Y213409D01*
X766660Y212392D01*
X768693Y212392D01*
X769710Y213409D01*
X772659Y216459D02*
X774693Y218493D01*
X774693Y212392D01*
X772659Y212392D02*
X776727Y212392D01*
X779676Y213409D02*
X779676Y217476D01*
X780692Y218493D01*
X782726Y218493D01*
X783743Y217476D01*
X783743Y213409D01*
X782726Y212392D01*
X780692Y212392D01*
X779676Y213409D01*
X783743Y217476D01*
X730702Y54919D02*
X730702Y50852D01*
X730702Y54919D02*
X732736Y56953D01*
X734769Y54919D01*
X734769Y50852D01*
X734769Y53903D02*
X730702Y53903D01*
X737718Y50852D02*
X737718Y56953D01*
X741786Y50852D01*
X741786Y56953D01*
X746768Y56953D02*
X746768Y50852D01*
X744735Y56953D02*
X748802Y56953D01*
X751751Y54919D02*
X753785Y56953D01*
X753785Y50852D01*
X751751Y50852D02*
X755819Y50852D01*
X802127Y74203D02*
X803144Y75220D01*
X802127Y74203D02*
X802127Y72170D01*
X803144Y71153D01*
X807211Y71153D01*
X808228Y72170D01*
X808228Y74203D01*
X807211Y75220D01*
X808228Y78169D02*
X808228Y82237D01*
X804161Y82237D02*
X808228Y78169D01*
X804161Y82237D02*
X803144Y82237D01*
X802127Y81220D01*
X802127Y79186D01*
X803144Y78169D01*
X807211Y85186D02*
X808228Y86202D01*
X808228Y88236D01*
X807211Y89253D01*
X803144Y89253D01*
X802127Y88236D01*
X802127Y86202D01*
X803144Y85186D01*
X804161Y85186D01*
X805177Y86202D01*
X805177Y89253D01*
X865632Y88392D02*
X865632Y94493D01*
X868683Y94493D01*
X869699Y93476D01*
X869699Y91443D01*
X868683Y90426D01*
X865632Y90426D01*
X867666Y90426D02*
X869699Y88392D01*
X872648Y93476D02*
X873665Y94493D01*
X875699Y94493D01*
X876716Y93476D01*
X876716Y92459D01*
X875699Y91443D01*
X874682Y91443D01*
X875699Y91443D02*
X876716Y90426D01*
X876716Y89409D01*
X875699Y88392D01*
X873665Y88392D01*
X872648Y89409D01*
X879665Y92459D02*
X881698Y94493D01*
X881698Y88392D01*
X879665Y88392D02*
X883732Y88392D01*
D10*
X806300Y147250D02*
X806300Y297250D01*
X946300Y297250D02*
X946300Y147250D01*
X914400Y234950D02*
X914941Y234957D01*
X915482Y234976D01*
X916022Y235009D01*
X916562Y235055D01*
X917100Y235115D01*
X917636Y235187D01*
X918170Y235272D01*
X918703Y235370D01*
X919232Y235482D01*
X919759Y235606D01*
X920283Y235743D01*
X920803Y235892D01*
X921319Y236055D01*
X921832Y236229D01*
X922339Y236416D01*
X922843Y236616D01*
X923341Y236828D01*
X923834Y237051D01*
X924321Y237287D01*
X924802Y237535D01*
X925277Y237794D01*
X925746Y238064D01*
X926208Y238346D01*
X926663Y238639D01*
X927111Y238944D01*
X927551Y239258D01*
X927983Y239584D01*
X928408Y239920D01*
X928824Y240266D01*
X929231Y240622D01*
X929630Y240989D01*
X930019Y241364D01*
X930400Y241749D01*
X930771Y242143D01*
X931132Y242546D01*
X931483Y242958D01*
X931824Y243378D01*
X932155Y243807D01*
X932475Y244243D01*
X932785Y244687D01*
X933084Y245139D01*
X933371Y245597D01*
X933647Y246063D01*
X933912Y246534D01*
X934166Y247013D01*
X934407Y247497D01*
X934637Y247987D01*
X934855Y248483D01*
X935060Y248983D01*
X935254Y249489D01*
X935435Y249999D01*
X935603Y250513D01*
X935759Y251032D01*
X935902Y251554D01*
X936033Y252079D01*
X936151Y252607D01*
X936255Y253138D01*
X936347Y253672D01*
X936426Y254207D01*
X936492Y254744D01*
X936544Y255283D01*
X936584Y255823D01*
X936610Y256363D01*
X936623Y256904D01*
X936623Y257446D01*
X936610Y257987D01*
X936584Y258527D01*
X936544Y259067D01*
X936492Y259606D01*
X936426Y260143D01*
X936347Y260678D01*
X936255Y261212D01*
X936151Y261743D01*
X936033Y262271D01*
X935902Y262796D01*
X935759Y263318D01*
X935603Y263837D01*
X935435Y264351D01*
X935254Y264861D01*
X935060Y265367D01*
X934855Y265867D01*
X934637Y266363D01*
X934407Y266853D01*
X934166Y267337D01*
X933912Y267816D01*
X933647Y268288D01*
X933371Y268753D01*
X933084Y269211D01*
X932785Y269663D01*
X932475Y270107D01*
X932155Y270543D01*
X931824Y270972D01*
X931483Y271392D01*
X931132Y271804D01*
X930771Y272207D01*
X930400Y272601D01*
X930019Y272986D01*
X929630Y273361D01*
X929231Y273728D01*
X928824Y274084D01*
X928408Y274430D01*
X927983Y274766D01*
X927551Y275092D01*
X927111Y275406D01*
X926663Y275711D01*
X926208Y276004D01*
X925746Y276286D01*
X925277Y276556D01*
X924802Y276815D01*
X924321Y277063D01*
X923834Y277299D01*
X923341Y277522D01*
X922843Y277734D01*
X922339Y277934D01*
X921832Y278121D01*
X921319Y278295D01*
X920803Y278458D01*
X920283Y278607D01*
X919759Y278744D01*
X919232Y278868D01*
X918703Y278980D01*
X918170Y279078D01*
X917636Y279163D01*
X917100Y279235D01*
X916562Y279295D01*
X916022Y279341D01*
X915482Y279374D01*
X914941Y279393D01*
X914400Y279400D01*
X863600Y279400D02*
X863055Y279471D01*
X862509Y279529D01*
X861962Y279573D01*
X861413Y279604D01*
X860864Y279622D01*
X860315Y279626D01*
X859766Y279616D01*
X859217Y279593D01*
X858669Y279557D01*
X858122Y279508D01*
X857576Y279445D01*
X857032Y279368D01*
X856490Y279278D01*
X855951Y279176D01*
X855414Y279060D01*
X854880Y278930D01*
X854349Y278788D01*
X853822Y278633D01*
X853299Y278465D01*
X852781Y278284D01*
X852266Y278091D01*
X851757Y277885D01*
X851253Y277667D01*
X850754Y277436D01*
X850262Y277194D01*
X849775Y276939D01*
X849295Y276673D01*
X848821Y276395D01*
X848354Y276105D01*
X847895Y275804D01*
X847443Y275492D01*
X846998Y275169D01*
X846562Y274835D01*
X846134Y274490D01*
X845715Y274136D01*
X845305Y273771D01*
X844903Y273396D01*
X844511Y273011D01*
X844128Y272617D01*
X843755Y272214D01*
X843392Y271802D01*
X843040Y271380D01*
X842697Y270951D01*
X842366Y270513D01*
X842045Y270067D01*
X841735Y269614D01*
X841436Y269153D01*
X841149Y268685D01*
X840873Y268210D01*
X840609Y267728D01*
X840357Y267240D01*
X840116Y266746D01*
X839888Y266246D01*
X839672Y265741D01*
X839469Y265231D01*
X839278Y264716D01*
X839100Y264196D01*
X838935Y263672D01*
X838782Y263145D01*
X838643Y262613D01*
X838516Y262079D01*
X838403Y261541D01*
X838302Y261001D01*
X838215Y260459D01*
X838142Y259915D01*
X838081Y259369D01*
X838034Y258821D01*
X838001Y258273D01*
X837981Y257724D01*
X837974Y257175D01*
X837981Y256626D01*
X838001Y256077D01*
X838034Y255529D01*
X838081Y254981D01*
X838142Y254435D01*
X838215Y253891D01*
X838302Y253349D01*
X838403Y252809D01*
X838516Y252271D01*
X838643Y251737D01*
X838782Y251205D01*
X838935Y250678D01*
X839100Y250154D01*
X839278Y249634D01*
X839469Y249119D01*
X839672Y248609D01*
X839888Y248104D01*
X840116Y247604D01*
X840357Y247110D01*
X840609Y246622D01*
X840873Y246140D01*
X841149Y245665D01*
X841436Y245197D01*
X841735Y244736D01*
X842045Y244283D01*
X842366Y243837D01*
X842697Y243399D01*
X843040Y242970D01*
X843392Y242548D01*
X843755Y242136D01*
X844128Y241733D01*
X844511Y241339D01*
X844903Y240954D01*
X845305Y240579D01*
X845715Y240214D01*
X846134Y239860D01*
X846562Y239515D01*
X846998Y239181D01*
X847443Y238858D01*
X847895Y238546D01*
X848354Y238245D01*
X848821Y237955D01*
X849295Y237677D01*
X849775Y237411D01*
X850262Y237156D01*
X850754Y236914D01*
X851253Y236683D01*
X851757Y236465D01*
X852266Y236259D01*
X852781Y236066D01*
X853299Y235885D01*
X853822Y235717D01*
X854349Y235562D01*
X854880Y235420D01*
X855414Y235290D01*
X855951Y235174D01*
X856490Y235072D01*
X857032Y234982D01*
X857576Y234905D01*
X858122Y234842D01*
X858669Y234793D01*
X859217Y234757D01*
X859766Y234734D01*
X860315Y234724D01*
X860864Y234728D01*
X861413Y234746D01*
X861962Y234777D01*
X862509Y234821D01*
X863055Y234879D01*
X863600Y234950D01*
X863600Y279400D02*
X914400Y279400D01*
X914400Y234950D02*
X863600Y234950D01*
D12*
X822198Y155287D02*
X816436Y155287D01*
X813555Y158168D01*
X816436Y161049D01*
X822198Y161049D01*
X817876Y161049D02*
X817876Y155287D01*
X816436Y164642D02*
X822198Y164642D01*
X816436Y164642D02*
X816436Y168964D01*
X817876Y170405D01*
X822198Y170405D01*
X820757Y175438D02*
X814995Y175438D01*
X820757Y175438D02*
X822198Y176879D01*
X816436Y176879D02*
X816436Y173998D01*
X820757Y180234D02*
X822198Y180234D01*
X820757Y180234D02*
X820757Y181675D01*
X822198Y181675D01*
X822198Y180234D01*
X832605Y156846D02*
X838367Y156846D01*
X841248Y159728D01*
X838367Y162609D01*
X832605Y162609D01*
X832605Y170523D02*
X834045Y171964D01*
X832605Y170523D02*
X832605Y167642D01*
X834045Y166202D01*
X839807Y166202D01*
X841248Y167642D01*
X841248Y170523D01*
X839807Y171964D01*
X832605Y179879D02*
X834045Y181319D01*
X832605Y179879D02*
X832605Y176997D01*
X834045Y175557D01*
X839807Y175557D01*
X841248Y176997D01*
X841248Y179879D01*
X839807Y181319D01*
X853095Y162609D02*
X851655Y161168D01*
X851655Y158287D01*
X853095Y156846D01*
X858857Y156846D01*
X860298Y158287D01*
X860298Y161168D01*
X858857Y162609D01*
X855976Y162609D01*
X855976Y159728D01*
X851655Y166202D02*
X860298Y166202D01*
X860298Y171964D02*
X851655Y166202D01*
X851655Y171964D02*
X860298Y171964D01*
X860298Y175557D02*
X851655Y175557D01*
X860298Y175557D02*
X860298Y179879D01*
X858857Y181319D01*
X853095Y181319D01*
X851655Y179879D01*
X851655Y175557D01*
X927857Y202566D02*
X932941Y202566D01*
X933958Y203583D01*
X933958Y205617D01*
X932941Y206634D01*
X927857Y206634D01*
X932941Y209583D02*
X933958Y210600D01*
X933958Y212633D01*
X932941Y213650D01*
X931924Y213650D01*
X930907Y212633D01*
X930907Y210600D01*
X929891Y209583D01*
X928874Y209583D01*
X927857Y210600D01*
X927857Y212633D01*
X928874Y213650D01*
X926840Y211617D02*
X934975Y211617D01*
X929891Y216599D02*
X927857Y218633D01*
X933958Y218633D01*
X933958Y216599D02*
X933958Y220667D01*
X933958Y226666D02*
X927857Y226666D01*
X930907Y223616D01*
X930907Y227683D01*
D14*
X931550Y368300D02*
X937900Y374650D01*
X937900Y387350D02*
X931550Y393700D01*
X937900Y400050D01*
X937900Y412750D02*
X931550Y419100D01*
X937900Y425450D01*
X937900Y438150D02*
X931550Y444500D01*
X931550Y368300D02*
X893450Y368300D01*
X887100Y374650D01*
X887100Y387350D01*
X893450Y393700D01*
X887100Y400050D01*
X887100Y412750D01*
X893450Y419100D01*
X887100Y425450D01*
X887100Y438150D01*
X893450Y444500D01*
X893450Y393700D02*
X931550Y393700D01*
X931550Y419100D02*
X893450Y419100D01*
X893450Y444500D02*
X931550Y444500D01*
X937900Y438150D02*
X937900Y425450D01*
X937900Y412750D02*
X937900Y400050D01*
X937900Y387350D02*
X937900Y374650D01*
X941250Y374650D02*
X941250Y387350D01*
D12*
X956188Y399542D02*
X956188Y401576D01*
X956188Y400559D02*
X950087Y400559D01*
X950087Y399542D02*
X950087Y401576D01*
X950087Y407270D02*
X951104Y408287D01*
X950087Y407270D02*
X950087Y405236D01*
X951104Y404220D01*
X952121Y404220D01*
X953137Y405236D01*
X953137Y407270D01*
X954154Y408287D01*
X955171Y408287D01*
X956188Y407270D01*
X956188Y405236D01*
X955171Y404220D01*
X956188Y411236D02*
X950087Y411236D01*
X950087Y414287D01*
X951104Y415303D01*
X953137Y415303D01*
X954154Y414287D01*
X954154Y411236D01*
X952121Y418252D02*
X950087Y420286D01*
X956188Y420286D01*
X956188Y418252D02*
X956188Y422320D01*
X505964Y124147D02*
X504947Y123130D01*
X504947Y121096D01*
X505964Y120079D01*
X510031Y120079D01*
X511048Y121096D01*
X511048Y123130D01*
X510031Y124147D01*
X511048Y127096D02*
X511048Y131163D01*
X511048Y127096D02*
X506981Y131163D01*
X505964Y131163D01*
X504947Y130146D01*
X504947Y128112D01*
X505964Y127096D01*
X419862Y149352D02*
X419862Y155453D01*
X422913Y155453D01*
X423929Y154436D01*
X423929Y152403D01*
X422913Y151386D01*
X419862Y151386D01*
X421896Y151386D02*
X423929Y149352D01*
X426878Y154436D02*
X427895Y155453D01*
X429929Y155453D01*
X430946Y154436D01*
X430946Y153419D01*
X429929Y152403D01*
X428912Y152403D01*
X429929Y152403D02*
X430946Y151386D01*
X430946Y150369D01*
X429929Y149352D01*
X427895Y149352D01*
X426878Y150369D01*
X433895Y154436D02*
X434912Y155453D01*
X436945Y155453D01*
X437962Y154436D01*
X437962Y153419D01*
X436945Y152403D01*
X435928Y152403D01*
X436945Y152403D02*
X437962Y151386D01*
X437962Y150369D01*
X436945Y149352D01*
X434912Y149352D01*
X433895Y150369D01*
D14*
X633800Y210000D02*
X786200Y210000D01*
X633800Y210000D02*
X633800Y80000D01*
X786200Y80000D01*
X786200Y210000D01*
D10*
X235500Y70366D02*
X235500Y14366D01*
X235500Y366D01*
X305500Y366D01*
X305500Y14366D01*
X305500Y70366D01*
X235500Y70366D01*
X235500Y14366D02*
X305500Y14366D01*
D12*
X262246Y54508D02*
X261229Y55525D01*
X262246Y54508D02*
X263263Y54508D01*
X264280Y55525D01*
X264280Y60609D01*
X263263Y60609D02*
X265297Y60609D01*
X268246Y59592D02*
X269262Y60609D01*
X271296Y60609D01*
X272313Y59592D01*
X272313Y58575D01*
X271296Y57559D01*
X270279Y57559D01*
X271296Y57559D02*
X272313Y56542D01*
X272313Y55525D01*
X271296Y54508D01*
X269262Y54508D01*
X268246Y55525D01*
D10*
X165500Y70366D02*
X165500Y14366D01*
X165500Y366D01*
X235500Y366D01*
X235500Y14366D01*
X235500Y70366D01*
X165500Y70366D01*
X165500Y14366D02*
X235500Y14366D01*
D12*
X197246Y59508D02*
X196229Y60525D01*
X197246Y59508D02*
X198263Y59508D01*
X199280Y60525D01*
X199280Y65609D01*
X198263Y65609D02*
X200297Y65609D01*
X203246Y65609D02*
X207313Y65609D01*
X203246Y65609D02*
X203246Y62559D01*
X205279Y63575D01*
X206296Y63575D01*
X207313Y62559D01*
X207313Y60525D01*
X206296Y59508D01*
X204262Y59508D01*
X203246Y60525D01*
D10*
X95500Y70366D02*
X95500Y14366D01*
X95500Y366D01*
X165500Y366D01*
X165500Y14366D01*
X165500Y70366D01*
X95500Y70366D01*
X95500Y14366D02*
X165500Y14366D01*
D12*
X122246Y59508D02*
X121229Y60525D01*
X122246Y59508D02*
X123263Y59508D01*
X124280Y60525D01*
X124280Y65609D01*
X123263Y65609D02*
X125297Y65609D01*
X130279Y64592D02*
X132313Y65609D01*
X130279Y64592D02*
X128246Y62559D01*
X128246Y60525D01*
X129262Y59508D01*
X131296Y59508D01*
X132313Y60525D01*
X132313Y61542D01*
X131296Y62559D01*
X128246Y62559D01*
X925643Y352212D02*
X925643Y358313D01*
X928693Y358313D01*
X929710Y357296D01*
X929710Y355263D01*
X928693Y354246D01*
X925643Y354246D01*
X927677Y354246D02*
X929710Y352212D01*
X932659Y352212D02*
X936727Y352212D01*
X936727Y356279D02*
X932659Y352212D01*
X936727Y356279D02*
X936727Y357296D01*
X935710Y358313D01*
X933676Y358313D01*
X932659Y357296D01*
X942726Y358313D02*
X942726Y352212D01*
X939676Y355263D02*
X942726Y358313D01*
X943743Y355263D02*
X939676Y355263D01*
D14*
X850100Y450850D02*
X850100Y456400D01*
X850100Y450850D02*
X937600Y450850D01*
X937600Y463350D01*
X874350Y462400D02*
X874350Y477400D01*
X914350Y477400D02*
X914350Y462400D01*
X874350Y462400D01*
X902350Y451100D02*
X937600Y463350D01*
X937600Y514100D02*
X850100Y514100D01*
X937600Y514100D02*
X937600Y508550D01*
X850100Y508550D02*
X850100Y514100D01*
X850100Y483150D02*
X850100Y481800D01*
X937600Y481800D02*
X937600Y483150D01*
X874350Y487800D02*
X874350Y502800D01*
X914350Y502800D01*
X914350Y487800D01*
X874350Y487800D01*
D25*
X862753Y478950D02*
X862753Y477086D01*
X863685Y476154D01*
X867414Y476154D01*
X868346Y477086D01*
X868346Y478950D01*
X867414Y479883D01*
X863685Y479883D01*
X862753Y478950D01*
X862753Y481767D02*
X868346Y481767D01*
X868346Y485496D02*
X862753Y481767D01*
X862753Y485496D02*
X868346Y485496D01*
X918003Y469018D02*
X919868Y467154D01*
X918003Y469018D02*
X923596Y469018D01*
X923596Y467154D02*
X923596Y470883D01*
X923596Y495554D02*
X923596Y499283D01*
X919868Y499283D02*
X923596Y495554D01*
X919868Y499283D02*
X918935Y499283D01*
X918003Y498350D01*
X918003Y496486D01*
X918935Y495554D01*
D26*
X906850Y469900D03*
X906850Y495300D03*
D14*
X914350Y477400D02*
X874350Y477400D01*
D12*
X890827Y524246D02*
X889810Y525263D01*
X887776Y525263D01*
X886759Y524246D01*
X886759Y523229D01*
X887776Y522213D01*
X889810Y522213D01*
X890827Y521196D01*
X890827Y520179D01*
X889810Y519162D01*
X887776Y519162D01*
X886759Y520179D01*
X893776Y524246D02*
X894792Y525263D01*
X896826Y525263D01*
X897843Y524246D01*
X897843Y523229D01*
X896826Y522213D01*
X895809Y522213D01*
X896826Y522213D02*
X897843Y521196D01*
X897843Y520179D01*
X896826Y519162D01*
X894792Y519162D01*
X893776Y520179D01*
X402623Y479303D02*
X402623Y473202D01*
X402623Y479303D02*
X405673Y479303D01*
X406690Y478286D01*
X406690Y476253D01*
X405673Y475236D01*
X402623Y475236D01*
X404657Y475236D02*
X406690Y473202D01*
X409639Y473202D02*
X413707Y473202D01*
X413707Y477269D02*
X409639Y473202D01*
X413707Y477269D02*
X413707Y478286D01*
X412690Y479303D01*
X410656Y479303D01*
X409639Y478286D01*
X416656Y479303D02*
X420723Y479303D01*
X420723Y478286D01*
X416656Y474219D01*
X416656Y473202D01*
X404622Y450093D02*
X404622Y443992D01*
X404622Y450093D02*
X407673Y450093D01*
X408689Y449076D01*
X408689Y447043D01*
X407673Y446026D01*
X404622Y446026D01*
X406656Y446026D02*
X408689Y443992D01*
X411638Y449076D02*
X412655Y450093D01*
X414689Y450093D01*
X415706Y449076D01*
X415706Y448059D01*
X414689Y447043D01*
X413672Y447043D01*
X414689Y447043D02*
X415706Y446026D01*
X415706Y445009D01*
X414689Y443992D01*
X412655Y443992D01*
X411638Y445009D01*
X418655Y445009D02*
X418655Y449076D01*
X419672Y450093D01*
X421705Y450093D01*
X422722Y449076D01*
X422722Y445009D01*
X421705Y443992D01*
X419672Y443992D01*
X418655Y445009D01*
X422722Y449076D01*
X844037Y106683D02*
X845054Y107699D01*
X844037Y106683D02*
X844037Y104649D01*
X845054Y103632D01*
X849121Y103632D01*
X850138Y104649D01*
X850138Y106683D01*
X849121Y107699D01*
X850138Y110648D02*
X850138Y114716D01*
X846071Y114716D02*
X850138Y110648D01*
X846071Y114716D02*
X845054Y114716D01*
X844037Y113699D01*
X844037Y111665D01*
X845054Y110648D01*
X845054Y117665D02*
X849121Y117665D01*
X845054Y117665D02*
X844037Y118682D01*
X844037Y120715D01*
X845054Y121732D01*
X849121Y121732D01*
X850138Y120715D01*
X850138Y118682D01*
X849121Y117665D01*
X845054Y121732D01*
D10*
X683704Y489300D02*
X683704Y501300D01*
X675196Y501300D02*
X675196Y489300D01*
X679450Y495800D02*
X681950Y493300D01*
X676950Y493300D01*
X679450Y495800D01*
D27*
X679450Y497046D03*
D12*
X682498Y510032D02*
X676397Y510032D01*
X682498Y510032D02*
X682498Y513083D01*
X681481Y514099D01*
X677414Y514099D01*
X676397Y513083D01*
X676397Y510032D01*
X682498Y517048D02*
X682498Y521116D01*
X678431Y521116D02*
X682498Y517048D01*
X678431Y521116D02*
X677414Y521116D01*
X676397Y520099D01*
X676397Y518065D01*
X677414Y517048D01*
D10*
X696404Y501300D02*
X696404Y489300D01*
X687896Y489300D02*
X687896Y501300D01*
X692150Y495800D02*
X694650Y493300D01*
X689650Y493300D01*
X692150Y495800D01*
D27*
X692150Y497046D03*
D12*
X695038Y509572D02*
X688937Y509572D01*
X695038Y509572D02*
X695038Y512623D01*
X694021Y513639D01*
X689954Y513639D01*
X688937Y512623D01*
X688937Y509572D01*
X689954Y516588D02*
X688937Y517605D01*
X688937Y519639D01*
X689954Y520656D01*
X690971Y520656D01*
X691987Y519639D01*
X691987Y518622D01*
X691987Y519639D02*
X693004Y520656D01*
X694021Y520656D01*
X695038Y519639D01*
X695038Y517605D01*
X694021Y516588D01*
D10*
X709104Y501300D02*
X709104Y489300D01*
X700596Y489300D02*
X700596Y501300D01*
X704850Y495800D02*
X707350Y493300D01*
X702350Y493300D01*
X704850Y495800D01*
D27*
X704850Y497046D03*
D12*
X698389Y482953D02*
X698389Y476852D01*
X701440Y476852D01*
X702457Y477869D01*
X702457Y481936D01*
X701440Y482953D01*
X698389Y482953D01*
X708456Y482953D02*
X708456Y476852D01*
X705406Y479903D02*
X708456Y482953D01*
X709473Y479903D02*
X705406Y479903D01*
D10*
X721804Y489300D02*
X721804Y501300D01*
X713296Y501300D02*
X713296Y489300D01*
X717550Y495800D02*
X720050Y493300D01*
X715050Y493300D01*
X717550Y495800D01*
D27*
X717550Y497046D03*
D12*
X712772Y508922D02*
X712772Y515023D01*
X712772Y508922D02*
X715823Y508922D01*
X716839Y509939D01*
X716839Y514006D01*
X715823Y515023D01*
X712772Y515023D01*
X719788Y515023D02*
X723856Y515023D01*
X719788Y515023D02*
X719788Y511973D01*
X721822Y512989D01*
X722839Y512989D01*
X723856Y511973D01*
X723856Y509939D01*
X722839Y508922D01*
X720805Y508922D01*
X719788Y509939D01*
D10*
X806800Y493204D02*
X818800Y493204D01*
X818800Y484696D02*
X806800Y484696D01*
X812300Y488950D02*
X814800Y491450D01*
X814800Y486450D01*
X812300Y488950D01*
D28*
X811054Y488950D03*
D12*
X788972Y486062D02*
X788972Y492163D01*
X788972Y486062D02*
X792023Y486062D01*
X793039Y487079D01*
X793039Y491146D01*
X792023Y492163D01*
X788972Y492163D01*
X798022Y491146D02*
X800056Y492163D01*
X798022Y491146D02*
X795988Y489113D01*
X795988Y487079D01*
X797005Y486062D01*
X799039Y486062D01*
X800056Y487079D01*
X800056Y488096D01*
X799039Y489113D01*
X795988Y489113D01*
X767623Y240543D02*
X768640Y239526D01*
X767623Y240543D02*
X765590Y240543D01*
X764573Y239526D01*
X764573Y235459D01*
X765590Y234442D01*
X767623Y234442D01*
X768640Y235459D01*
X771589Y238509D02*
X773623Y240543D01*
X773623Y234442D01*
X771589Y234442D02*
X775657Y234442D01*
X780639Y239526D02*
X782673Y240543D01*
X780639Y239526D02*
X778606Y237493D01*
X778606Y235459D01*
X779622Y234442D01*
X781656Y234442D01*
X782673Y235459D01*
X782673Y236476D01*
X781656Y237493D01*
X778606Y237493D01*
D14*
X574370Y396410D02*
X568020Y390060D01*
X574370Y396410D02*
X587070Y396410D01*
X593420Y390060D01*
X593420Y377360D02*
X587070Y371010D01*
X574370Y371010D01*
X568020Y377360D01*
X536270Y396410D02*
X523570Y396410D01*
X536270Y396410D02*
X542620Y390060D01*
X542620Y377360D02*
X536270Y371010D01*
X542620Y390060D02*
X548970Y396410D01*
X561670Y396410D01*
X568020Y390060D01*
X568020Y377360D02*
X561670Y371010D01*
X548970Y371010D01*
X542620Y377360D01*
X498170Y396410D02*
X491820Y390060D01*
X498170Y396410D02*
X510870Y396410D01*
X517220Y390060D01*
X517220Y377360D02*
X510870Y371010D01*
X498170Y371010D01*
X491820Y377360D01*
X517220Y390060D02*
X523570Y396410D01*
X517220Y377360D02*
X523570Y371010D01*
X536270Y371010D01*
X460070Y396410D02*
X447370Y396410D01*
X460070Y396410D02*
X466420Y390060D01*
X466420Y377360D02*
X460070Y371010D01*
X466420Y390060D02*
X472770Y396410D01*
X485470Y396410D01*
X491820Y390060D01*
X491820Y377360D02*
X485470Y371010D01*
X472770Y371010D01*
X466420Y377360D01*
X441020Y377360D02*
X441020Y390060D01*
X447370Y396410D01*
X441020Y377360D02*
X447370Y371010D01*
X460070Y371010D01*
X593420Y377360D02*
X593420Y390060D01*
D10*
X468200Y402633D02*
X466293Y404540D01*
X468200Y402633D02*
X470106Y402633D01*
X472013Y404540D01*
X472013Y414073D01*
X470106Y414073D02*
X473920Y414073D01*
X477987Y414073D02*
X477987Y402633D01*
X477987Y414073D02*
X483707Y414073D01*
X485613Y412166D01*
X485613Y408353D01*
X483707Y406446D01*
X477987Y406446D01*
X489681Y412166D02*
X491588Y414073D01*
X495401Y414073D01*
X497307Y412166D01*
X497307Y410260D01*
X495401Y408353D01*
X493494Y408353D01*
X495401Y408353D02*
X497307Y406446D01*
X497307Y404540D01*
X495401Y402633D01*
X491588Y402633D01*
X489681Y404540D01*
M02*
