G04 EAGLE Gerber RS-274X export*
G75*
%MOMM*%
%FSLAX34Y34*%
%LPD*%
%INSilkscreen Bottom*%
%IPPOS*%
%AMOC8*
5,1,8,0,0,1.08239X$1,22.5*%
G01*
%ADD10C,0.279400*%
%ADD11C,0.228600*%
%ADD12R,1.905000X1.905000*%
%ADD13C,0.406400*%
%ADD14C,0.127000*%
%ADD15C,0.152400*%
%ADD16R,0.006300X0.006400*%
%ADD17R,0.012700X0.006300*%
%ADD18R,0.019100X0.006400*%
%ADD19R,0.025400X0.006300*%
%ADD20R,0.057200X0.006300*%
%ADD21R,0.025400X0.006400*%
%ADD22R,0.088900X0.006400*%
%ADD23R,0.038100X0.006300*%
%ADD24R,0.107900X0.006300*%
%ADD25R,0.044500X0.006400*%
%ADD26R,0.127000X0.006400*%
%ADD27R,0.050800X0.006300*%
%ADD28R,0.139700X0.006300*%
%ADD29R,0.006300X0.006300*%
%ADD30R,0.050800X0.006400*%
%ADD31R,0.152400X0.006400*%
%ADD32R,0.063500X0.006300*%
%ADD33R,0.171500X0.006300*%
%ADD34R,0.069800X0.006400*%
%ADD35R,0.184100X0.006400*%
%ADD36R,0.012700X0.006400*%
%ADD37R,0.082500X0.006300*%
%ADD38R,0.196800X0.006300*%
%ADD39R,0.019000X0.006300*%
%ADD40R,0.082600X0.006300*%
%ADD41R,0.209600X0.006400*%
%ADD42R,0.019000X0.006400*%
%ADD43R,0.114300X0.006400*%
%ADD44R,0.304800X0.006300*%
%ADD45R,0.069800X0.006300*%
%ADD46R,0.031800X0.006300*%
%ADD47R,0.031700X0.006300*%
%ADD48R,0.146000X0.006300*%
%ADD49R,0.152400X0.006300*%
%ADD50R,0.006400X0.006300*%
%ADD51R,0.311100X0.006400*%
%ADD52R,0.082600X0.006400*%
%ADD53R,0.038100X0.006400*%
%ADD54R,0.044400X0.006400*%
%ADD55R,0.165100X0.006400*%
%ADD56R,0.209500X0.006400*%
%ADD57R,0.311200X0.006300*%
%ADD58R,0.165100X0.006300*%
%ADD59R,0.088900X0.006300*%
%ADD60R,0.044500X0.006300*%
%ADD61R,0.247600X0.006300*%
%ADD62R,0.266700X0.006300*%
%ADD63R,0.317500X0.006400*%
%ADD64R,0.254000X0.006400*%
%ADD65R,0.101600X0.006400*%
%ADD66R,0.057100X0.006400*%
%ADD67R,0.298500X0.006400*%
%ADD68R,0.031800X0.006400*%
%ADD69R,0.336600X0.006300*%
%ADD70R,0.120700X0.006300*%
%ADD71R,0.260400X0.006300*%
%ADD72R,0.323900X0.006300*%
%ADD73R,0.095200X0.006300*%
%ADD74R,0.698500X0.006400*%
%ADD75R,0.228600X0.006400*%
%ADD76R,0.279400X0.006400*%
%ADD77R,0.355600X0.006400*%
%ADD78R,0.177800X0.006400*%
%ADD79R,0.704800X0.006300*%
%ADD80R,0.241300X0.006300*%
%ADD81R,0.298500X0.006300*%
%ADD82R,0.406400X0.006300*%
%ADD83R,0.184200X0.006300*%
%ADD84R,0.723900X0.006400*%
%ADD85R,0.717500X0.006400*%
%ADD86R,0.190500X0.006400*%
%ADD87R,0.736600X0.006300*%
%ADD88R,0.019100X0.006300*%
%ADD89R,0.723900X0.006300*%
%ADD90R,0.203200X0.006300*%
%ADD91R,0.762000X0.006400*%
%ADD92R,0.063500X0.006400*%
%ADD93R,0.215900X0.006400*%
%ADD94R,1.168400X0.006300*%
%ADD95R,0.222300X0.006300*%
%ADD96R,1.162100X0.006400*%
%ADD97R,0.222200X0.006400*%
%ADD98R,1.155700X0.006300*%
%ADD99R,0.196900X0.006300*%
%ADD100R,0.228600X0.006300*%
%ADD101R,1.136600X0.006400*%
%ADD102R,0.203200X0.006400*%
%ADD103R,1.124000X0.006300*%
%ADD104R,0.209600X0.006300*%
%ADD105R,0.044400X0.006300*%
%ADD106R,0.717600X0.006300*%
%ADD107R,0.235000X0.006300*%
%ADD108R,1.117600X0.006400*%
%ADD109R,0.711200X0.006400*%
%ADD110R,0.241300X0.006400*%
%ADD111R,1.104900X0.006300*%
%ADD112R,0.215900X0.006300*%
%ADD113R,0.190500X0.006300*%
%ADD114R,0.114300X0.006300*%
%ADD115R,1.016000X0.006300*%
%ADD116R,1.079500X0.006400*%
%ADD117R,0.260300X0.006400*%
%ADD118R,0.901700X0.006400*%
%ADD119R,1.054100X0.006300*%
%ADD120R,0.292100X0.006300*%
%ADD121R,0.273100X0.006300*%
%ADD122R,0.895300X0.006300*%
%ADD123R,1.009700X0.006400*%
%ADD124R,0.235000X0.006400*%
%ADD125R,0.323900X0.006400*%
%ADD126R,0.285800X0.006400*%
%ADD127R,0.895400X0.006400*%
%ADD128R,0.965200X0.006300*%
%ADD129R,0.615900X0.006300*%
%ADD130R,0.882700X0.006300*%
%ADD131R,0.641400X0.006400*%
%ADD132R,0.628700X0.006400*%
%ADD133R,0.336600X0.006400*%
%ADD134R,0.882600X0.006400*%
%ADD135R,0.577800X0.006300*%
%ADD136R,0.666700X0.006300*%
%ADD137R,0.400000X0.006300*%
%ADD138R,0.076200X0.006300*%
%ADD139R,0.698500X0.006300*%
%ADD140R,0.158800X0.006300*%
%ADD141R,0.495300X0.006400*%
%ADD142R,1.104900X0.006400*%
%ADD143R,0.774700X0.006400*%
%ADD144R,0.489000X0.006300*%
%ADD145R,1.098500X0.006300*%
%ADD146R,0.743000X0.006300*%
%ADD147R,0.501700X0.006400*%
%ADD148R,1.085900X0.006400*%
%ADD149R,0.743000X0.006400*%
%ADD150R,0.057100X0.006300*%
%ADD151R,0.533400X0.006300*%
%ADD152R,1.066800X0.006300*%
%ADD153R,0.825500X0.006300*%
%ADD154R,0.558800X0.006400*%
%ADD155R,1.054100X0.006400*%
%ADD156R,0.812800X0.006400*%
%ADD157R,0.622300X0.006300*%
%ADD158R,1.041400X0.006300*%
%ADD159R,0.812800X0.006300*%
%ADD160R,0.793800X0.006400*%
%ADD161R,0.806400X0.006400*%
%ADD162R,0.806400X0.006300*%
%ADD163R,0.952500X0.006300*%
%ADD164R,0.800100X0.006300*%
%ADD165R,0.819200X0.006400*%
%ADD166R,0.952500X0.006400*%
%ADD167R,0.800100X0.006400*%
%ADD168R,0.692200X0.006300*%
%ADD169R,0.831900X0.006400*%
%ADD170R,0.685800X0.006400*%
%ADD171R,0.463500X0.006400*%
%ADD172R,0.311200X0.006400*%
%ADD173R,0.838200X0.006300*%
%ADD174R,0.679400X0.006300*%
%ADD175R,0.946200X0.006400*%
%ADD176R,0.679400X0.006400*%
%ADD177R,0.273100X0.006400*%
%ADD178R,0.254000X0.006300*%
%ADD179R,0.704800X0.006400*%
%ADD180R,0.133400X0.006400*%
%ADD181R,0.958900X0.006400*%
%ADD182R,0.742900X0.006400*%
%ADD183R,0.076200X0.006400*%
%ADD184R,0.107900X0.006400*%
%ADD185R,0.958800X0.006300*%
%ADD186R,0.755600X0.006300*%
%ADD187R,0.108000X0.006300*%
%ADD188R,0.146100X0.006400*%
%ADD189R,0.787400X0.006300*%
%ADD190R,0.260300X0.006300*%
%ADD191R,0.171400X0.006400*%
%ADD192R,0.711200X0.006300*%
%ADD193R,0.819100X0.006300*%
%ADD194R,0.444500X0.006400*%
%ADD195R,0.831800X0.006400*%
%ADD196R,0.184100X0.006300*%
%ADD197R,0.400100X0.006300*%
%ADD198R,0.850900X0.006300*%
%ADD199R,0.177800X0.006300*%
%ADD200R,0.393700X0.006400*%
%ADD201R,0.400000X0.006400*%
%ADD202R,0.406400X0.006400*%
%ADD203R,0.381000X0.006300*%
%ADD204R,0.374700X0.006300*%
%ADD205R,0.393700X0.006300*%
%ADD206R,0.158700X0.006400*%
%ADD207R,0.374700X0.006400*%
%ADD208R,0.361900X0.006400*%
%ADD209R,0.368300X0.006400*%
%ADD210R,0.374600X0.006300*%
%ADD211R,0.361900X0.006300*%
%ADD212R,0.362000X0.006300*%
%ADD213R,0.171400X0.006300*%
%ADD214R,0.431800X0.006400*%
%ADD215R,0.362000X0.006400*%
%ADD216R,0.171500X0.006400*%
%ADD217R,0.368300X0.006300*%
%ADD218R,0.419100X0.006300*%
%ADD219R,0.355600X0.006300*%
%ADD220R,0.412800X0.006400*%
%ADD221R,0.381000X0.006400*%
%ADD222R,0.006400X0.006400*%
%ADD223R,0.158800X0.006400*%
%ADD224R,0.349200X0.006400*%
%ADD225R,0.209500X0.006300*%
%ADD226R,0.349300X0.006400*%
%ADD227R,0.158700X0.006300*%
%ADD228R,0.349200X0.006300*%
%ADD229R,0.196800X0.006400*%
%ADD230R,0.342900X0.006300*%
%ADD231R,0.342900X0.006400*%
%ADD232R,0.260400X0.006400*%
%ADD233R,0.146100X0.006300*%
%ADD234R,0.139700X0.006400*%
%ADD235R,0.120600X0.006400*%
%ADD236R,0.266700X0.006400*%
%ADD237R,0.133400X0.006300*%
%ADD238R,0.127000X0.006300*%
%ADD239R,0.336500X0.006300*%
%ADD240R,0.387300X0.006300*%
%ADD241R,0.330200X0.006400*%
%ADD242R,0.330200X0.006300*%
%ADD243R,0.069900X0.006300*%
%ADD244R,0.273000X0.006300*%
%ADD245R,0.069900X0.006400*%
%ADD246R,0.273000X0.006400*%
%ADD247R,0.425400X0.006400*%
%ADD248R,0.438100X0.006300*%
%ADD249R,0.057200X0.006400*%
%ADD250R,0.457200X0.006300*%
%ADD251R,0.279400X0.006300*%
%ADD252R,0.476200X0.006300*%
%ADD253R,0.336500X0.006400*%
%ADD254R,0.482600X0.006400*%
%ADD255R,0.508000X0.006300*%
%ADD256R,0.133300X0.006300*%
%ADD257R,0.285700X0.006300*%
%ADD258R,0.031700X0.006400*%
%ADD259R,0.692100X0.006400*%
%ADD260R,0.285700X0.006400*%
%ADD261R,0.692100X0.006300*%
%ADD262R,0.292100X0.006400*%
%ADD263R,0.679500X0.006300*%
%ADD264R,0.673100X0.006400*%
%ADD265R,0.673100X0.006300*%
%ADD266R,0.298400X0.006400*%
%ADD267R,0.660400X0.006300*%
%ADD268R,0.660400X0.006400*%
%ADD269R,0.304800X0.006400*%
%ADD270R,0.311100X0.006300*%
%ADD271R,0.095300X0.006300*%
%ADD272R,0.647700X0.006300*%
%ADD273R,0.323800X0.006300*%
%ADD274R,0.647700X0.006400*%
%ADD275R,0.101600X0.006300*%
%ADD276R,0.641300X0.006300*%
%ADD277R,0.108000X0.006400*%
%ADD278R,0.635000X0.006400*%
%ADD279R,0.628700X0.006300*%
%ADD280R,0.387300X0.006400*%
%ADD281R,0.622300X0.006400*%
%ADD282R,0.387400X0.006300*%
%ADD283R,0.616000X0.006400*%
%ADD284R,0.412700X0.006300*%
%ADD285R,0.616000X0.006300*%
%ADD286R,0.609600X0.006400*%
%ADD287R,0.374600X0.006400*%
%ADD288R,0.609600X0.006300*%
%ADD289R,0.400100X0.006400*%
%ADD290R,0.635000X0.006300*%
%ADD291R,0.774700X0.006300*%
%ADD292R,0.781100X0.006400*%
%ADD293R,0.577900X0.006400*%
%ADD294R,0.781100X0.006300*%
%ADD295R,0.781000X0.006400*%
%ADD296R,0.590500X0.006400*%
%ADD297R,0.641400X0.006300*%
%ADD298R,0.596900X0.006300*%
%ADD299R,0.787400X0.006400*%
%ADD300R,0.120600X0.006300*%
%ADD301R,0.793800X0.006300*%
%ADD302R,0.793700X0.006400*%
%ADD303R,0.730200X0.006300*%
%ADD304R,0.666800X0.006400*%
%ADD305R,0.730300X0.006400*%
%ADD306R,0.768300X0.006300*%
%ADD307R,0.146000X0.006400*%
%ADD308R,0.819100X0.006400*%
%ADD309R,0.781000X0.006300*%
%ADD310R,0.838200X0.006400*%
%ADD311R,0.793700X0.006300*%
%ADD312R,0.844600X0.006300*%
%ADD313R,0.857200X0.006400*%
%ADD314R,0.762000X0.006300*%
%ADD315R,0.863600X0.006300*%
%ADD316R,0.863600X0.006400*%
%ADD317R,0.869900X0.006300*%
%ADD318R,0.825500X0.006400*%
%ADD319R,0.749300X0.006400*%
%ADD320R,0.870000X0.006400*%
%ADD321R,0.831900X0.006300*%
%ADD322R,0.876300X0.006300*%
%ADD323R,0.736600X0.006400*%
%ADD324R,0.869900X0.006400*%
%ADD325R,0.844600X0.006400*%
%ADD326R,0.850900X0.006400*%
%ADD327R,0.857300X0.006300*%
%ADD328R,0.889000X0.006400*%
%ADD329R,0.844500X0.006400*%
%ADD330R,0.901700X0.006300*%
%ADD331R,0.920700X0.006400*%
%ADD332R,0.692200X0.006400*%
%ADD333R,0.927100X0.006300*%
%ADD334R,0.685800X0.006300*%
%ADD335R,0.412700X0.006400*%
%ADD336R,0.679500X0.006400*%
%ADD337R,0.425500X0.006300*%
%ADD338R,0.958900X0.006300*%
%ADD339R,0.438100X0.006400*%
%ADD340R,0.971500X0.006400*%
%ADD341R,0.450900X0.006300*%
%ADD342R,0.984300X0.006300*%
%ADD343R,0.742900X0.006300*%
%ADD344R,0.469900X0.006400*%
%ADD345R,0.996900X0.006400*%
%ADD346R,1.492200X0.006300*%
%ADD347R,0.654100X0.006300*%
%ADD348R,1.505000X0.006400*%
%ADD349R,0.654000X0.006400*%
%ADD350R,1.524000X0.006300*%
%ADD351R,0.654000X0.006300*%
%ADD352R,1.530300X0.006400*%
%ADD353R,1.543100X0.006300*%
%ADD354R,1.555700X0.006400*%
%ADD355R,1.574800X0.006300*%
%ADD356R,1.587500X0.006400*%
%ADD357R,1.600200X0.006300*%
%ADD358R,1.612900X0.006400*%
%ADD359R,0.654100X0.006400*%
%ADD360R,1.631900X0.006300*%
%ADD361R,1.638300X0.006400*%
%ADD362R,0.628600X0.006400*%
%ADD363R,1.651000X0.006300*%
%ADD364R,1.663700X0.006400*%
%ADD365R,1.682800X0.006300*%
%ADD366R,1.701800X0.006400*%
%ADD367R,1.720900X0.006300*%
%ADD368R,0.603200X0.006300*%
%ADD369R,1.739900X0.006400*%
%ADD370R,0.603200X0.006400*%
%ADD371R,1.752600X0.006300*%
%ADD372R,1.778000X0.006400*%
%ADD373R,0.596900X0.006400*%
%ADD374R,0.590600X0.006400*%
%ADD375R,1.809700X0.006300*%
%ADD376R,0.584200X0.006300*%
%ADD377R,2.419300X0.006400*%
%ADD378R,2.425700X0.006300*%
%ADD379R,0.571500X0.006300*%
%ADD380R,2.425700X0.006400*%
%ADD381R,0.565100X0.006400*%
%ADD382R,2.438400X0.006300*%
%ADD383R,0.565100X0.006300*%
%ADD384R,2.438400X0.006400*%
%ADD385R,2.444800X0.006300*%
%ADD386R,0.552400X0.006300*%
%ADD387R,2.444800X0.006400*%
%ADD388R,0.546100X0.006400*%
%ADD389R,2.457400X0.006300*%
%ADD390R,0.546100X0.006300*%
%ADD391R,2.457400X0.006400*%
%ADD392R,0.539800X0.006400*%
%ADD393R,2.463800X0.006400*%
%ADD394R,0.533400X0.006400*%
%ADD395R,2.470200X0.006300*%
%ADD396R,0.527100X0.006300*%
%ADD397R,2.476500X0.006400*%
%ADD398R,0.520700X0.006400*%
%ADD399R,2.482800X0.006300*%
%ADD400R,0.520700X0.006300*%
%ADD401R,2.482800X0.006400*%
%ADD402R,2.495600X0.006300*%
%ADD403R,2.495600X0.006400*%
%ADD404R,2.508200X0.006300*%
%ADD405R,2.514600X0.006400*%
%ADD406R,2.514600X0.006300*%
%ADD407R,2.527300X0.006400*%
%ADD408R,2.533700X0.006300*%
%ADD409R,2.546400X0.006400*%
%ADD410R,2.559000X0.006300*%
%ADD411R,2.565400X0.006400*%
%ADD412R,0.539700X0.006400*%
%ADD413R,2.571700X0.006300*%
%ADD414R,0.539700X0.006300*%
%ADD415R,2.584500X0.006400*%
%ADD416R,2.590800X0.006300*%
%ADD417R,0.552500X0.006300*%
%ADD418R,2.609800X0.006400*%
%ADD419R,2.622500X0.006300*%
%ADD420R,2.641600X0.006400*%
%ADD421R,0.584200X0.006400*%
%ADD422R,3.232200X0.006300*%
%ADD423R,3.232200X0.006400*%
%ADD424R,0.457200X0.006400*%
%ADD425R,0.514400X0.006300*%
%ADD426R,3.232100X0.006300*%
%ADD427R,3.867100X0.006400*%
%ADD428R,3.879800X0.006300*%
%ADD429R,3.892500X0.006400*%
%ADD430R,3.911600X0.006300*%
%ADD431R,3.918000X0.006400*%
%ADD432R,3.930700X0.006300*%
%ADD433R,3.937000X0.006400*%
%ADD434R,3.949700X0.006300*%
%ADD435R,3.962400X0.006400*%
%ADD436R,3.968700X0.006300*%
%ADD437R,3.975100X0.006400*%
%ADD438R,3.981400X0.006300*%
%ADD439R,4.000500X0.006400*%
%ADD440R,4.006900X0.006300*%
%ADD441R,4.013200X0.006400*%
%ADD442R,4.013200X0.006300*%
%ADD443R,4.019600X0.006400*%
%ADD444R,4.032200X0.006300*%
%ADD445R,4.038600X0.006400*%
%ADD446R,4.044900X0.006300*%
%ADD447R,4.044900X0.006400*%
%ADD448R,0.939800X0.006300*%
%ADD449R,3.111500X0.006300*%
%ADD450R,3.111500X0.006400*%
%ADD451R,0.946200X0.006300*%
%ADD452R,3.105100X0.006300*%
%ADD453R,0.958800X0.006400*%
%ADD454R,0.514400X0.006400*%
%ADD455R,0.527000X0.006300*%
%ADD456R,0.527000X0.006400*%
%ADD457R,3.105200X0.006400*%
%ADD458R,3.098800X0.006300*%
%ADD459R,3.105100X0.006400*%
%ADD460R,3.092400X0.006400*%
%ADD461R,3.092500X0.006300*%
%ADD462R,0.552500X0.006400*%
%ADD463R,2.457500X0.006400*%
%ADD464R,0.558800X0.006300*%
%ADD465R,0.082500X0.006400*%
%ADD466R,0.565200X0.006400*%
%ADD467R,2.381200X0.006400*%
%ADD468R,2.330500X0.006300*%
%ADD469R,0.133300X0.006400*%
%ADD470R,0.247600X0.006400*%
%ADD471R,2.279700X0.006400*%
%ADD472R,2.228900X0.006300*%
%ADD473R,2.089200X0.006400*%
%ADD474R,0.323800X0.006400*%
%ADD475R,0.234900X0.006300*%
%ADD476R,1.778000X0.006300*%
%ADD477R,1.701800X0.006300*%
%ADD478R,1.625600X0.006300*%
%ADD479R,1.593800X0.006400*%
%ADD480R,1.562100X0.006300*%
%ADD481R,1.536700X0.006400*%
%ADD482R,1.511300X0.006300*%
%ADD483R,1.492300X0.006400*%
%ADD484R,0.247700X0.006400*%
%ADD485R,0.920700X0.006300*%
%ADD486R,1.466900X0.006300*%
%ADD487R,1.003300X0.006400*%
%ADD488R,1.441400X0.006400*%
%ADD489R,1.073100X0.006300*%
%ADD490R,1.422400X0.006300*%
%ADD491R,1.098500X0.006400*%
%ADD492R,1.409700X0.006400*%
%ADD493R,1.123900X0.006300*%
%ADD494R,1.390700X0.006300*%
%ADD495R,1.143000X0.006400*%
%ADD496R,1.371600X0.006400*%
%ADD497R,0.234900X0.006400*%
%ADD498R,1.346200X0.006300*%
%ADD499R,1.174700X0.006400*%
%ADD500R,1.327200X0.006400*%
%ADD501R,1.187400X0.006300*%
%ADD502R,1.314400X0.006300*%
%ADD503R,1.200100X0.006400*%
%ADD504R,1.295400X0.006400*%
%ADD505R,1.206500X0.006300*%
%ADD506R,1.276300X0.006300*%
%ADD507R,1.219200X0.006400*%
%ADD508R,1.263600X0.006400*%
%ADD509R,1.225500X0.006300*%
%ADD510R,1.244600X0.006300*%
%ADD511R,1.231900X0.006400*%
%ADD512R,1.238200X0.006300*%
%ADD513R,1.238300X0.006400*%
%ADD514R,1.187500X0.006400*%
%ADD515R,0.387400X0.006400*%
%ADD516R,1.251000X0.006400*%
%ADD517R,1.149400X0.006400*%
%ADD518R,1.257300X0.006300*%
%ADD519R,1.136700X0.006300*%
%ADD520R,0.095200X0.006400*%
%ADD521R,1.257300X0.006400*%
%ADD522R,1.123900X0.006400*%
%ADD523R,1.263700X0.006300*%
%ADD524R,1.143000X0.006300*%
%ADD525R,0.095300X0.006400*%
%ADD526R,1.270000X0.006400*%
%ADD527R,0.419100X0.006400*%
%ADD528R,1.270000X0.006300*%
%ADD529R,1.301700X0.006300*%
%ADD530R,0.184200X0.006400*%
%ADD531R,1.276300X0.006400*%
%ADD532R,0.285800X0.006300*%
%ADD533R,1.282700X0.006300*%
%ADD534R,1.251000X0.006300*%
%ADD535R,1.282700X0.006400*%
%ADD536R,1.225600X0.006400*%
%ADD537R,0.908100X0.006400*%
%ADD538R,1.181100X0.006400*%
%ADD539R,1.162000X0.006300*%
%ADD540R,1.130300X0.006400*%
%ADD541R,1.111300X0.006300*%
%ADD542R,0.247700X0.006300*%
%ADD543R,1.060400X0.006300*%
%ADD544R,1.041400X0.006400*%
%ADD545R,1.022300X0.006300*%
%ADD546R,0.806500X0.006300*%
%ADD547R,0.806500X0.006400*%
%ADD548R,0.939800X0.006400*%
%ADD549R,0.920800X0.006300*%
%ADD550R,0.222300X0.006400*%
%ADD551R,0.717600X0.006400*%
%ADD552R,0.908000X0.006300*%
%ADD553R,0.222200X0.006300*%
%ADD554R,0.298400X0.006300*%
%ADD555R,0.889000X0.006300*%
%ADD556R,0.476300X0.006400*%
%ADD557R,0.495300X0.006300*%
%ADD558R,0.450900X0.006400*%
%ADD559R,0.831800X0.006300*%
%ADD560R,0.539800X0.006300*%
%ADD561R,0.590600X0.006300*%
%ADD562R,0.755700X0.006300*%
%ADD563R,0.349300X0.006300*%
%ADD564R,0.603300X0.006400*%
%ADD565R,0.514300X0.006400*%
%ADD566R,0.717500X0.006300*%
%ADD567R,0.908100X0.006300*%
%ADD568R,0.514300X0.006300*%
%ADD569R,1.066800X0.006400*%
%ADD570R,1.117600X0.006300*%
%ADD571R,0.571500X0.006400*%
%ADD572R,0.488900X0.006300*%
%ADD573R,0.552400X0.006400*%
%ADD574R,0.704900X0.006400*%
%ADD575R,1.162000X0.006400*%
%ADD576R,0.463500X0.006300*%
%ADD577R,1.149300X0.006400*%
%ADD578R,0.450800X0.006400*%
%ADD579R,1.111300X0.006400*%
%ADD580R,1.098600X0.006300*%
%ADD581R,1.028700X0.006400*%
%ADD582R,0.704900X0.006300*%
%ADD583R,0.997000X0.006400*%
%ADD584R,0.984200X0.006300*%
%ADD585R,0.965200X0.006400*%
%ADD586R,0.933400X0.006300*%
%ADD587R,0.920800X0.006400*%
%ADD588R,0.914400X0.006300*%
%ADD589R,0.730300X0.006300*%
%ADD590R,0.882700X0.006400*%
%ADD591R,0.857300X0.006400*%
%ADD592R,0.768300X0.006400*%
%ADD593R,0.749300X0.006300*%
%ADD594R,0.590500X0.006300*%
%ADD595R,0.476300X0.006300*%
%ADD596R,0.489000X0.006400*%
%ADD597R,0.317500X0.006300*%
%ADD598R,0.482600X0.006300*%
%ADD599R,0.476200X0.006400*%
%ADD600R,0.527100X0.006400*%
%ADD601R,0.431800X0.006300*%
%ADD602R,0.425400X0.006300*%
%ADD603R,0.438200X0.006400*%
%ADD604R,0.444500X0.006300*%
%ADD605R,0.997000X0.006300*%
%ADD606R,0.469900X0.006300*%
%ADD607R,1.212800X0.006300*%
%ADD608R,0.641300X0.006400*%
%ADD609R,0.501600X0.006400*%
%ADD610R,0.628600X0.006300*%
%ADD611R,1.276400X0.006400*%
%ADD612R,1.295400X0.006300*%
%ADD613R,1.314500X0.006400*%
%ADD614R,1.339800X0.006300*%
%ADD615R,1.358900X0.006400*%
%ADD616R,1.365200X0.006300*%
%ADD617R,1.289100X0.006400*%
%ADD618R,1.200100X0.006300*%
%ADD619R,0.508000X0.006400*%
%ADD620R,1.098600X0.006400*%
%ADD621R,0.501600X0.006300*%
%ADD622R,1.073200X0.006300*%
%ADD623R,1.047800X0.006400*%
%ADD624R,1.028700X0.006300*%
%ADD625R,1.009600X0.006400*%
%ADD626R,0.844500X0.006300*%
%ADD627R,0.730200X0.006400*%
%ADD628R,0.463600X0.006300*%
%ADD629R,0.463600X0.006400*%
%ADD630R,0.577800X0.006400*%
%ADD631R,0.120700X0.006400*%
%ADD632R,1.314500X0.006300*%
%ADD633R,1.352600X0.006400*%
%ADD634R,1.517700X0.006300*%
%ADD635R,0.438200X0.006300*%
%ADD636R,1.524000X0.006400*%
%ADD637R,1.047700X0.006400*%
%ADD638R,0.425500X0.006400*%
%ADD639R,0.006400X0.006400*%
%ADD640R,0.412800X0.006300*%
%ADD641R,0.450800X0.006300*%
%ADD642R,1.060500X0.006400*%
%ADD643C,0.101600*%
%ADD644C,0.304800*%
%ADD645C,0.762000*%
%ADD646C,0.203200*%
%ADD647R,17.526000X6.858000*%


D10*
X942334Y152286D02*
X947333Y152286D01*
X949833Y149786D01*
X949833Y139787D01*
X947333Y137287D01*
X942334Y137287D01*
X939834Y139787D01*
X939834Y149786D01*
X942334Y152286D01*
X933461Y147286D02*
X933461Y132287D01*
X933461Y147286D02*
X925962Y147286D01*
X923462Y144786D01*
X923462Y139787D01*
X925962Y137287D01*
X933461Y137287D01*
X914590Y137287D02*
X909590Y137287D01*
X914590Y137287D02*
X917090Y139787D01*
X917090Y144786D01*
X914590Y147286D01*
X909590Y147286D01*
X907091Y144786D01*
X907091Y142287D01*
X917090Y142287D01*
X900718Y137287D02*
X900718Y147286D01*
X893219Y147286D01*
X890719Y144786D01*
X890719Y137287D01*
X884347Y152286D02*
X874348Y152286D01*
X884347Y152286D02*
X884347Y137287D01*
X874348Y137287D01*
X879347Y144786D02*
X884347Y144786D01*
X867975Y147286D02*
X867975Y137287D01*
X867975Y147286D02*
X860476Y147286D01*
X857976Y144786D01*
X857976Y137287D01*
X849104Y137287D02*
X844104Y137287D01*
X849104Y137287D02*
X851604Y139787D01*
X851604Y144786D01*
X849104Y147286D01*
X844104Y147286D01*
X841604Y144786D01*
X841604Y142287D01*
X851604Y142287D01*
X835232Y137287D02*
X835232Y147286D01*
X835232Y142287D02*
X830232Y147286D01*
X827733Y147286D01*
X816590Y132287D02*
X814090Y132287D01*
X811590Y134787D01*
X811590Y147286D01*
X819089Y147286D01*
X821589Y144786D01*
X821589Y139787D01*
X819089Y137287D01*
X811590Y137287D01*
X805218Y139787D02*
X805218Y147286D01*
X805218Y139787D02*
X802718Y137287D01*
X795218Y137287D01*
X795218Y134787D02*
X795218Y147286D01*
X795218Y134787D02*
X797718Y132287D01*
X800218Y132287D01*
X788846Y137287D02*
X788846Y152286D01*
X783846Y147286D01*
X778847Y152286D01*
X778847Y137287D01*
X769975Y137287D02*
X764975Y137287D01*
X762475Y139787D01*
X762475Y144786D01*
X764975Y147286D01*
X769975Y147286D01*
X772474Y144786D01*
X772474Y139787D01*
X769975Y137287D01*
X756103Y137287D02*
X756103Y147286D01*
X748603Y147286D01*
X746104Y144786D01*
X746104Y137287D01*
X739731Y147286D02*
X737232Y147286D01*
X737232Y137287D01*
X739731Y137287D02*
X734732Y137287D01*
X737232Y152286D02*
X737232Y154786D01*
X726317Y149786D02*
X726317Y139787D01*
X723817Y137287D01*
X723817Y147286D02*
X728817Y147286D01*
X715403Y137287D02*
X710403Y137287D01*
X707903Y139787D01*
X707903Y144786D01*
X710403Y147286D01*
X715403Y147286D01*
X717903Y144786D01*
X717903Y139787D01*
X715403Y137287D01*
X701531Y137287D02*
X701531Y147286D01*
X701531Y142287D02*
X696531Y147286D01*
X694032Y147286D01*
X687888Y139787D02*
X687888Y137287D01*
X687888Y139787D02*
X685388Y139787D01*
X685388Y137287D01*
X687888Y137287D01*
X677202Y137287D02*
X672203Y137287D01*
X669703Y139787D01*
X669703Y144786D01*
X672203Y147286D01*
X677202Y147286D01*
X679702Y144786D01*
X679702Y139787D01*
X677202Y137287D01*
X663331Y137287D02*
X663331Y147286D01*
X663331Y142287D02*
X658331Y147286D01*
X655831Y147286D01*
X644688Y132287D02*
X642188Y132287D01*
X639689Y134787D01*
X639689Y147286D01*
X647188Y147286D01*
X649688Y144786D01*
X649688Y139787D01*
X647188Y137287D01*
X639689Y137287D01*
D11*
X850894Y417703D02*
X850894Y430668D01*
X857377Y424186D01*
X848734Y424186D01*
X843344Y428507D02*
X841183Y430668D01*
X836862Y430668D01*
X834701Y428507D01*
X834701Y426346D01*
X836862Y424186D01*
X839023Y424186D01*
X836862Y424186D02*
X834701Y422025D01*
X834701Y419864D01*
X836862Y417703D01*
X841183Y417703D01*
X843344Y419864D01*
X829311Y428507D02*
X827151Y430668D01*
X822829Y430668D01*
X820668Y428507D01*
X820668Y426346D01*
X822829Y424186D01*
X824990Y424186D01*
X822829Y424186D02*
X820668Y422025D01*
X820668Y419864D01*
X822829Y417703D01*
X827151Y417703D01*
X829311Y419864D01*
X815279Y417703D02*
X815279Y430668D01*
X810957Y426346D01*
X806635Y430668D01*
X806635Y417703D01*
X801246Y417703D02*
X801246Y430668D01*
X799085Y426346D02*
X801246Y424186D01*
X799085Y426346D02*
X794763Y426346D01*
X792603Y424186D01*
X792603Y417703D01*
X787213Y426346D02*
X778570Y426346D01*
X787213Y417703D01*
X778570Y417703D01*
X855216Y405268D02*
X857377Y403107D01*
X855216Y405268D02*
X850894Y405268D01*
X848734Y403107D01*
X848734Y400946D01*
X850894Y398786D01*
X848734Y396625D01*
X848734Y394464D01*
X850894Y392303D01*
X855216Y392303D01*
X857377Y394464D01*
X857377Y396625D01*
X855216Y398786D01*
X857377Y400946D01*
X857377Y403107D01*
X855216Y398786D02*
X850894Y398786D01*
X839023Y403107D02*
X834701Y405268D01*
X839023Y403107D02*
X843344Y398786D01*
X843344Y394464D01*
X841183Y392303D01*
X836862Y392303D01*
X834701Y394464D01*
X834701Y396625D01*
X836862Y398786D01*
X843344Y398786D01*
X829311Y403107D02*
X827151Y405268D01*
X822829Y405268D01*
X820668Y403107D01*
X820668Y400946D01*
X822829Y398786D01*
X820668Y396625D01*
X820668Y394464D01*
X822829Y392303D01*
X827151Y392303D01*
X829311Y394464D01*
X829311Y396625D01*
X827151Y398786D01*
X829311Y400946D01*
X829311Y403107D01*
X827151Y398786D02*
X822829Y398786D01*
X815279Y405268D02*
X815279Y392303D01*
X810957Y400946D02*
X815279Y405268D01*
X810957Y400946D02*
X806635Y405268D01*
X806635Y392303D01*
X801246Y392303D02*
X801246Y405268D01*
X799085Y400946D02*
X801246Y398786D01*
X799085Y400946D02*
X794763Y400946D01*
X792603Y398786D01*
X792603Y392303D01*
X787213Y400946D02*
X778570Y400946D01*
X787213Y392303D01*
X778570Y392303D01*
D12*
X765175Y400685D03*
X765175Y426085D03*
D13*
X749300Y441960D02*
X749300Y359410D01*
X862330Y359410D01*
X862330Y441960D01*
X749300Y441960D01*
D14*
X739774Y405772D02*
X741045Y404500D01*
X739774Y405772D02*
X737232Y405772D01*
X735961Y404500D01*
X735961Y403229D01*
X737232Y401958D01*
X735961Y400687D01*
X735961Y399416D01*
X737232Y398145D01*
X739774Y398145D01*
X741045Y399416D01*
X741045Y400687D01*
X739774Y401958D01*
X741045Y403229D01*
X741045Y404500D01*
X739774Y401958D02*
X737232Y401958D01*
X732859Y405772D02*
X727775Y405772D01*
X727775Y404500D01*
X732859Y399416D01*
X732859Y398145D01*
X724673Y398145D02*
X724673Y403229D01*
X723402Y403229D01*
X722131Y401958D01*
X722131Y398145D01*
X722131Y401958D02*
X720860Y403229D01*
X719589Y401958D01*
X719589Y398145D01*
X716488Y398145D02*
X716488Y403229D01*
X715217Y403229D01*
X713946Y401958D01*
X713946Y398145D01*
X713946Y401958D02*
X712674Y403229D01*
X711403Y401958D01*
X711403Y398145D01*
X698845Y403229D02*
X696303Y403229D01*
X695032Y401958D01*
X695032Y398145D01*
X698845Y398145D01*
X700116Y399416D01*
X698845Y400687D01*
X695032Y400687D01*
X691930Y398145D02*
X691930Y403229D01*
X688117Y403229D01*
X686846Y401958D01*
X686846Y398145D01*
X682473Y399416D02*
X682473Y404500D01*
X682473Y399416D02*
X681202Y398145D01*
X681202Y403229D02*
X683745Y403229D01*
X738503Y431172D02*
X741045Y428629D01*
X738503Y431172D02*
X738503Y423545D01*
X741045Y423545D02*
X735961Y423545D01*
X732859Y431172D02*
X727775Y431172D01*
X727775Y429900D01*
X732859Y424816D01*
X732859Y423545D01*
X724673Y431172D02*
X719589Y431172D01*
X724673Y431172D02*
X724673Y427358D01*
X722131Y428629D01*
X720860Y428629D01*
X719589Y427358D01*
X719589Y424816D01*
X720860Y423545D01*
X723402Y423545D01*
X724673Y424816D01*
X716488Y423545D02*
X716488Y428629D01*
X715217Y428629D01*
X713946Y427358D01*
X713946Y423545D01*
X713946Y427358D02*
X712674Y428629D01*
X711403Y427358D01*
X711403Y423545D01*
X708302Y423545D02*
X708302Y428629D01*
X707031Y428629D01*
X705760Y427358D01*
X705760Y423545D01*
X705760Y427358D02*
X704489Y428629D01*
X703218Y427358D01*
X703218Y423545D01*
X690659Y428629D02*
X688117Y428629D01*
X686846Y427358D01*
X686846Y423545D01*
X690659Y423545D01*
X691930Y424816D01*
X690659Y426087D01*
X686846Y426087D01*
X683745Y423545D02*
X683745Y428629D01*
X679931Y428629D01*
X678660Y427358D01*
X678660Y423545D01*
X674288Y424816D02*
X674288Y429900D01*
X674288Y424816D02*
X673017Y423545D01*
X673017Y428629D02*
X675559Y428629D01*
D15*
X138767Y192285D02*
X135886Y192285D01*
X138767Y192285D02*
X140208Y190845D01*
X140208Y185083D01*
X138767Y183642D01*
X135886Y183642D01*
X134446Y185083D01*
X134446Y190845D01*
X135886Y192285D01*
X130853Y189404D02*
X130853Y180761D01*
X130853Y189404D02*
X126531Y189404D01*
X125091Y187964D01*
X125091Y185083D01*
X126531Y183642D01*
X130853Y183642D01*
X120057Y183642D02*
X117176Y183642D01*
X120057Y183642D02*
X121498Y185083D01*
X121498Y187964D01*
X120057Y189404D01*
X117176Y189404D01*
X115735Y187964D01*
X115735Y186523D01*
X121498Y186523D01*
X112142Y183642D02*
X112142Y189404D01*
X107821Y189404D01*
X106380Y187964D01*
X106380Y183642D01*
X102787Y187964D02*
X97025Y187964D01*
X93432Y192285D02*
X93432Y183642D01*
X93432Y187964D02*
X87670Y187964D01*
X87670Y192285D02*
X87670Y183642D01*
X82636Y189404D02*
X79755Y189404D01*
X78315Y187964D01*
X78315Y183642D01*
X82636Y183642D01*
X84077Y185083D01*
X82636Y186523D01*
X78315Y186523D01*
X74722Y183642D02*
X74722Y189404D01*
X74722Y186523D02*
X71841Y189404D01*
X70400Y189404D01*
X61163Y192285D02*
X61163Y183642D01*
X65485Y183642D01*
X66926Y185083D01*
X66926Y187964D01*
X65485Y189404D01*
X61163Y189404D01*
X57571Y189404D02*
X57571Y185083D01*
X56130Y183642D01*
X54689Y185083D01*
X53249Y183642D01*
X51808Y185083D01*
X51808Y189404D01*
X46775Y189404D02*
X43894Y189404D01*
X42453Y187964D01*
X42453Y183642D01*
X46775Y183642D01*
X48215Y185083D01*
X46775Y186523D01*
X42453Y186523D01*
X38860Y183642D02*
X38860Y189404D01*
X38860Y186523D02*
X35979Y189404D01*
X34538Y189404D01*
X29624Y183642D02*
X26743Y183642D01*
X29624Y183642D02*
X31064Y185083D01*
X31064Y187964D01*
X29624Y189404D01*
X26743Y189404D01*
X25302Y187964D01*
X25302Y186523D01*
X31064Y186523D01*
X982751Y678731D02*
X982751Y687375D01*
X982751Y678731D02*
X978429Y678731D01*
X976988Y680172D01*
X976988Y685934D01*
X978429Y687375D01*
X982751Y687375D01*
X971955Y678731D02*
X969074Y678731D01*
X971955Y678731D02*
X973395Y680172D01*
X973395Y683053D01*
X971955Y684493D01*
X969074Y684493D01*
X967633Y683053D01*
X967633Y681612D01*
X973395Y681612D01*
X964040Y678731D02*
X959719Y678731D01*
X958278Y680172D01*
X959719Y681612D01*
X962600Y681612D01*
X964040Y683053D01*
X962600Y684493D01*
X958278Y684493D01*
X954685Y684493D02*
X953244Y684493D01*
X953244Y678731D01*
X951804Y678731D02*
X954685Y678731D01*
X953244Y687375D02*
X953244Y688815D01*
X945567Y675850D02*
X944127Y675850D01*
X942686Y677291D01*
X942686Y684493D01*
X947008Y684493D01*
X948448Y683053D01*
X948448Y680172D01*
X947008Y678731D01*
X942686Y678731D01*
X939093Y678731D02*
X939093Y684493D01*
X934771Y684493D01*
X933331Y683053D01*
X933331Y678731D01*
X928297Y678731D02*
X925416Y678731D01*
X928297Y678731D02*
X929738Y680172D01*
X929738Y683053D01*
X928297Y684493D01*
X925416Y684493D01*
X923976Y683053D01*
X923976Y681612D01*
X929738Y681612D01*
X914620Y678731D02*
X914620Y687375D01*
X914620Y678731D02*
X918942Y678731D01*
X920383Y680172D01*
X920383Y683053D01*
X918942Y684493D01*
X914620Y684493D01*
X901672Y684493D02*
X900232Y684493D01*
X900232Y678731D01*
X901672Y678731D02*
X898791Y678731D01*
X900232Y687375D02*
X900232Y688815D01*
X895436Y684493D02*
X895436Y678731D01*
X895436Y684493D02*
X891114Y684493D01*
X889673Y683053D01*
X889673Y678731D01*
X986396Y626383D02*
X986396Y617739D01*
X980633Y617739D02*
X986396Y626383D01*
X980633Y626383D02*
X980633Y617739D01*
X975600Y617739D02*
X972719Y617739D01*
X971278Y619180D01*
X971278Y622061D01*
X972719Y623501D01*
X975600Y623501D01*
X977040Y622061D01*
X977040Y619180D01*
X975600Y617739D01*
X967685Y617739D02*
X967685Y623501D01*
X967685Y620620D02*
X964804Y623501D01*
X963364Y623501D01*
X958449Y624942D02*
X958449Y619180D01*
X957008Y617739D01*
X957008Y623501D02*
X959889Y623501D01*
X953652Y626383D02*
X953652Y617739D01*
X953652Y622061D02*
X952212Y623501D01*
X949331Y623501D01*
X947890Y622061D01*
X947890Y617739D01*
X934942Y617739D02*
X934942Y626383D01*
X932061Y620620D02*
X934942Y617739D01*
X932061Y620620D02*
X929180Y617739D01*
X929180Y626383D01*
X924146Y623501D02*
X921265Y623501D01*
X919825Y622061D01*
X919825Y617739D01*
X924146Y617739D01*
X925587Y619180D01*
X924146Y620620D01*
X919825Y620620D01*
X916232Y626383D02*
X914791Y626383D01*
X914791Y617739D01*
X913351Y617739D02*
X916232Y617739D01*
X908554Y617739D02*
X905673Y617739D01*
X908554Y617739D02*
X909995Y619180D01*
X909995Y622061D01*
X908554Y623501D01*
X905673Y623501D01*
X904233Y622061D01*
X904233Y620620D01*
X909995Y620620D01*
X900640Y617739D02*
X896318Y617739D01*
X894878Y619180D01*
X896318Y620620D01*
X899199Y620620D01*
X900640Y622061D01*
X899199Y623501D01*
X894878Y623501D01*
X984414Y609899D02*
X984414Y601255D01*
X981532Y607017D02*
X984414Y609899D01*
X981532Y607017D02*
X978651Y609899D01*
X978651Y601255D01*
X973618Y607017D02*
X970737Y607017D01*
X969296Y605577D01*
X969296Y601255D01*
X973618Y601255D01*
X975058Y602696D01*
X973618Y604136D01*
X969296Y604136D01*
X959941Y601255D02*
X959941Y609899D01*
X959941Y601255D02*
X964263Y601255D01*
X965703Y602696D01*
X965703Y605577D01*
X964263Y607017D01*
X959941Y607017D01*
X954907Y601255D02*
X952026Y601255D01*
X954907Y601255D02*
X956348Y602696D01*
X956348Y605577D01*
X954907Y607017D01*
X952026Y607017D01*
X950586Y605577D01*
X950586Y604136D01*
X956348Y604136D01*
X937638Y607017D02*
X936197Y607017D01*
X936197Y601255D01*
X934757Y601255D02*
X937638Y601255D01*
X936197Y609899D02*
X936197Y611339D01*
X931401Y607017D02*
X931401Y601255D01*
X931401Y607017D02*
X927079Y607017D01*
X925639Y605577D01*
X925639Y601255D01*
X912691Y602696D02*
X912691Y609899D01*
X912691Y602696D02*
X911250Y601255D01*
X908369Y601255D01*
X906928Y602696D01*
X906928Y609899D01*
X903335Y609899D02*
X903335Y601255D01*
X903335Y604136D02*
X897573Y609899D01*
X901895Y605577D02*
X897573Y601255D01*
D16*
X961202Y633329D03*
D17*
X961234Y633393D03*
D18*
X961202Y633456D03*
D19*
X961234Y633520D03*
D20*
X959234Y633520D03*
D21*
X961234Y633583D03*
D22*
X959265Y633583D03*
D23*
X961234Y633647D03*
D24*
X959297Y633647D03*
D25*
X961202Y633710D03*
D26*
X959329Y633710D03*
D27*
X961171Y633774D03*
D28*
X959329Y633774D03*
D29*
X930214Y633774D03*
D30*
X961171Y633837D03*
D31*
X959393Y633837D03*
D16*
X930214Y633837D03*
D32*
X961170Y633901D03*
D33*
X959424Y633901D03*
D17*
X930246Y633901D03*
D34*
X961139Y633964D03*
D35*
X959424Y633964D03*
D36*
X930246Y633964D03*
D37*
X961075Y634028D03*
D38*
X959488Y634028D03*
D29*
X951296Y634028D03*
X949645Y634028D03*
D39*
X930278Y634028D03*
D40*
X928754Y634028D03*
D22*
X961043Y634091D03*
D41*
X959488Y634091D03*
D30*
X951265Y634091D03*
D42*
X949709Y634091D03*
D21*
X930246Y634091D03*
D43*
X928722Y634091D03*
D44*
X959964Y634155D03*
D45*
X951233Y634155D03*
D46*
X949709Y634155D03*
D47*
X930214Y634155D03*
D48*
X928754Y634155D03*
D49*
X925039Y634155D03*
D50*
X919356Y634155D03*
D51*
X959932Y634218D03*
D52*
X951233Y634218D03*
D53*
X949740Y634218D03*
D54*
X930151Y634218D03*
D55*
X928785Y634218D03*
D56*
X925007Y634218D03*
D36*
X919387Y634218D03*
D57*
X959869Y634282D03*
D58*
X956027Y634282D03*
D59*
X951201Y634282D03*
D60*
X949772Y634282D03*
D61*
X929135Y634282D03*
D62*
X925039Y634282D03*
D39*
X919356Y634282D03*
D63*
X959837Y634345D03*
D64*
X956091Y634345D03*
D65*
X951201Y634345D03*
D66*
X949772Y634345D03*
D64*
X929040Y634345D03*
D67*
X925007Y634345D03*
D68*
X920499Y634345D03*
D21*
X919388Y634345D03*
D69*
X959742Y634409D03*
D57*
X956186Y634409D03*
D70*
X951169Y634409D03*
D45*
X949836Y634409D03*
D71*
X929008Y634409D03*
D72*
X925007Y634409D03*
D73*
X920372Y634409D03*
D19*
X919388Y634409D03*
D74*
X957932Y634472D03*
D75*
X950630Y634472D03*
D76*
X928913Y634472D03*
D77*
X925039Y634472D03*
D78*
X920086Y634472D03*
D79*
X957837Y634536D03*
D80*
X950693Y634536D03*
D50*
X947423Y634536D03*
D81*
X928817Y634536D03*
D82*
X925230Y634536D03*
D83*
X920118Y634536D03*
D84*
X957741Y634599D03*
D64*
X950757Y634599D03*
D36*
X947391Y634599D03*
D85*
X926658Y634599D03*
D86*
X920149Y634599D03*
D87*
X957615Y634663D03*
D62*
X950820Y634663D03*
D88*
X947359Y634663D03*
X946216Y634663D03*
D89*
X926626Y634663D03*
D90*
X920213Y634663D03*
D91*
X957488Y634726D03*
D76*
X950947Y634726D03*
D21*
X947328Y634726D03*
D92*
X946184Y634726D03*
D36*
X936278Y634726D03*
D84*
X926563Y634726D03*
D93*
X920276Y634726D03*
D94*
X955392Y634790D03*
D46*
X947296Y634790D03*
D59*
X946184Y634790D03*
D39*
X936247Y634790D03*
D89*
X926499Y634790D03*
D95*
X920308Y634790D03*
D96*
X955360Y634853D03*
D66*
X947232Y634853D03*
D43*
X946184Y634853D03*
D21*
X936215Y634853D03*
D84*
X926436Y634853D03*
D97*
X920372Y634853D03*
D98*
X955328Y634917D03*
D99*
X946470Y634917D03*
D46*
X936247Y634917D03*
D89*
X926372Y634917D03*
D100*
X920404Y634917D03*
D101*
X955297Y634980D03*
D102*
X946439Y634980D03*
D53*
X936215Y634980D03*
D84*
X926309Y634980D03*
D75*
X920467Y634980D03*
D103*
X955297Y635044D03*
D104*
X946407Y635044D03*
D39*
X943105Y635044D03*
D20*
X937517Y635044D03*
D105*
X936247Y635044D03*
D106*
X926214Y635044D03*
D107*
X920499Y635044D03*
D108*
X955265Y635107D03*
D93*
X946375Y635107D03*
D26*
X942946Y635107D03*
D22*
X937548Y635107D03*
D54*
X936247Y635107D03*
D109*
X926119Y635107D03*
D110*
X920594Y635107D03*
D111*
X955265Y635171D03*
D112*
X946311Y635171D03*
D113*
X942819Y635171D03*
D114*
X937548Y635171D03*
D32*
X936342Y635171D03*
D115*
X924468Y635171D03*
D116*
X955201Y635234D03*
D97*
X946280Y635234D03*
D117*
X942914Y635234D03*
D110*
X937167Y635234D03*
D36*
X929293Y635234D03*
X928722Y635234D03*
D118*
X923959Y635234D03*
D119*
X955138Y635298D03*
D100*
X946185Y635298D03*
D120*
X942946Y635298D03*
D121*
X937326Y635298D03*
D122*
X923991Y635298D03*
D123*
X954979Y635361D03*
D124*
X946153Y635361D03*
D125*
X942914Y635361D03*
D126*
X937390Y635361D03*
D16*
X931357Y635361D03*
D127*
X924055Y635361D03*
D128*
X954884Y635425D03*
D129*
X944184Y635425D03*
D81*
X937453Y635425D03*
D17*
X931325Y635425D03*
D130*
X924118Y635425D03*
D131*
X956186Y635488D03*
D64*
X951392Y635488D03*
D132*
X944057Y635488D03*
D133*
X937644Y635488D03*
D42*
X931294Y635488D03*
D21*
X929675Y635488D03*
D134*
X924182Y635488D03*
D135*
X956186Y635552D03*
D90*
X951265Y635552D03*
D136*
X943803Y635552D03*
D137*
X938025Y635552D03*
D19*
X931262Y635552D03*
D138*
X929611Y635552D03*
D139*
X925293Y635552D03*
D140*
X920753Y635552D03*
D141*
X955963Y635615D03*
D55*
X951201Y635615D03*
D142*
X941549Y635615D03*
D68*
X931167Y635615D03*
D143*
X926182Y635615D03*
D65*
X920721Y635615D03*
D29*
X962472Y635679D03*
D144*
X955932Y635679D03*
D70*
X951169Y635679D03*
D145*
X941517Y635679D03*
D60*
X931103Y635679D03*
D146*
X926468Y635679D03*
D36*
X962440Y635742D03*
D147*
X955995Y635742D03*
D25*
X951169Y635742D03*
D148*
X941517Y635742D03*
D30*
X931008Y635742D03*
D149*
X926595Y635742D03*
D17*
X962377Y635806D03*
D150*
X960694Y635806D03*
D151*
X956091Y635806D03*
D152*
X941486Y635806D03*
D153*
X927134Y635806D03*
D18*
X962345Y635869D03*
D52*
X960631Y635869D03*
D154*
X956154Y635869D03*
D155*
X941485Y635869D03*
D156*
X927135Y635869D03*
D19*
X962314Y635933D03*
D24*
X960567Y635933D03*
D157*
X956408Y635933D03*
D158*
X941486Y635933D03*
D159*
X927135Y635933D03*
D68*
X962282Y635996D03*
D160*
X957202Y635996D03*
D123*
X941390Y635996D03*
D161*
X927103Y635996D03*
D23*
X962250Y636060D03*
D162*
X957202Y636060D03*
D163*
X941168Y636060D03*
D164*
X927071Y636060D03*
D25*
X962218Y636123D03*
D165*
X957202Y636123D03*
D166*
X941231Y636123D03*
D167*
X927007Y636123D03*
D27*
X962123Y636187D03*
D153*
X957170Y636187D03*
D168*
X942724Y636187D03*
D90*
X937549Y636187D03*
D164*
X927007Y636187D03*
D92*
X962059Y636250D03*
D169*
X957138Y636250D03*
D170*
X942946Y636250D03*
D31*
X937485Y636250D03*
D171*
X928563Y636250D03*
D172*
X924563Y636250D03*
D37*
X961964Y636314D03*
D173*
X957107Y636314D03*
D174*
X943105Y636314D03*
D114*
X937421Y636314D03*
D90*
X929865Y636314D03*
D83*
X927611Y636314D03*
D120*
X924467Y636314D03*
D175*
X957583Y636377D03*
D176*
X943232Y636377D03*
D52*
X937390Y636377D03*
D78*
X929865Y636377D03*
D31*
X927706Y636377D03*
D177*
X924372Y636377D03*
D163*
X957551Y636441D03*
D168*
X943232Y636441D03*
D60*
X937453Y636441D03*
D58*
X929865Y636441D03*
D28*
X927769Y636441D03*
D178*
X924277Y636441D03*
D166*
X957487Y636504D03*
D179*
X943232Y636504D03*
D180*
X929897Y636504D03*
D26*
X927833Y636504D03*
D64*
X924277Y636504D03*
D163*
X957424Y636568D03*
D89*
X943200Y636568D03*
D24*
X929960Y636568D03*
D114*
X927896Y636568D03*
D178*
X924277Y636568D03*
D181*
X957392Y636631D03*
D182*
X943168Y636631D03*
D183*
X929992Y636631D03*
D184*
X927928Y636631D03*
D64*
X924277Y636631D03*
D185*
X957329Y636695D03*
D186*
X943105Y636695D03*
D187*
X927992Y636695D03*
D178*
X924277Y636695D03*
D181*
X957265Y636758D03*
D143*
X943073Y636758D03*
D188*
X928309Y636758D03*
D117*
X924245Y636758D03*
D163*
X957170Y636822D03*
D189*
X943010Y636822D03*
D58*
X928404Y636822D03*
D190*
X924245Y636822D03*
D166*
X957106Y636885D03*
D161*
X942978Y636885D03*
D191*
X928500Y636885D03*
D117*
X924245Y636885D03*
D112*
X960726Y636949D03*
D192*
X955900Y636949D03*
D50*
X948312Y636949D03*
D193*
X942914Y636949D03*
D33*
X928563Y636949D03*
D190*
X924245Y636949D03*
D78*
X960790Y637012D03*
D41*
X958345Y637012D03*
D194*
X954503Y637012D03*
D18*
X948248Y637012D03*
D195*
X942851Y637012D03*
D78*
X928659Y637012D03*
D117*
X924245Y637012D03*
D28*
X960853Y637076D03*
D196*
X958408Y637076D03*
D197*
X954217Y637076D03*
D19*
X948217Y637076D03*
D198*
X942819Y637076D03*
D199*
X928722Y637076D03*
D190*
X924245Y637076D03*
D22*
X960916Y637139D03*
D191*
X958472Y637139D03*
D200*
X954122Y637139D03*
D68*
X948185Y637139D03*
D201*
X945137Y637139D03*
D202*
X940470Y637139D03*
D78*
X928786Y637139D03*
D117*
X924245Y637139D03*
D46*
X960885Y637203D03*
D58*
X958567Y637203D03*
D203*
X954059Y637203D03*
D23*
X948089Y637203D03*
D204*
X945327Y637203D03*
D205*
X940279Y637203D03*
D199*
X928786Y637203D03*
D190*
X924245Y637203D03*
D206*
X958662Y637266D03*
D207*
X953963Y637266D03*
D54*
X948058Y637266D03*
D208*
X945454Y637266D03*
D209*
X940088Y637266D03*
D78*
X928849Y637266D03*
D117*
X924245Y637266D03*
D58*
X958757Y637330D03*
D210*
X953900Y637330D03*
D27*
X947963Y637330D03*
D211*
X945581Y637330D03*
D212*
X939930Y637330D03*
D213*
X928881Y637330D03*
D190*
X924245Y637330D03*
D55*
X958884Y637393D03*
D207*
X953836Y637393D03*
D214*
X945994Y637393D03*
D215*
X939803Y637393D03*
D216*
X928944Y637393D03*
D117*
X924245Y637393D03*
D213*
X958980Y637457D03*
D217*
X953804Y637457D03*
D218*
X946057Y637457D03*
D219*
X939644Y637457D03*
D58*
X928976Y637457D03*
D190*
X924245Y637457D03*
D55*
X959075Y637520D03*
D208*
X953709Y637520D03*
D220*
X946026Y637520D03*
D77*
X939517Y637520D03*
D55*
X929039Y637520D03*
D117*
X924245Y637520D03*
D58*
X959138Y637584D03*
D212*
X953646Y637584D03*
D137*
X946026Y637584D03*
D219*
X939454Y637584D03*
D58*
X929103Y637584D03*
D190*
X924245Y637584D03*
D55*
X959202Y637647D03*
D208*
X953582Y637647D03*
D221*
X945994Y637647D03*
D77*
X939327Y637647D03*
D222*
X930659Y637647D03*
D223*
X929135Y637647D03*
D117*
X924245Y637647D03*
D58*
X959265Y637711D03*
D219*
X953551Y637711D03*
D217*
X945930Y637711D03*
D219*
X939200Y637711D03*
D88*
X930595Y637711D03*
D58*
X929230Y637711D03*
D190*
X924245Y637711D03*
D55*
X959329Y637774D03*
D77*
X953487Y637774D03*
D224*
X945899Y637774D03*
D77*
X939136Y637774D03*
D68*
X930532Y637774D03*
D78*
X929357Y637774D03*
D117*
X924245Y637774D03*
D140*
X959361Y637838D03*
D219*
X953424Y637838D03*
D32*
X946946Y637838D03*
D90*
X945169Y637838D03*
D219*
X939009Y637838D03*
D225*
X929579Y637838D03*
D190*
X924245Y637838D03*
D55*
X959392Y637901D03*
D226*
X953328Y637901D03*
D86*
X945168Y637901D03*
D215*
X938914Y637901D03*
D16*
X932881Y637901D03*
D102*
X929611Y637901D03*
D117*
X924245Y637901D03*
D227*
X959424Y637965D03*
D228*
X953265Y637965D03*
D99*
X945200Y637965D03*
D219*
X938819Y637965D03*
D17*
X932849Y637965D03*
D38*
X929643Y637965D03*
D190*
X924245Y637965D03*
D31*
X959456Y638028D03*
D226*
X953201Y638028D03*
D229*
X945264Y638028D03*
D77*
X938692Y638028D03*
D42*
X932818Y638028D03*
D35*
X929579Y638028D03*
D64*
X924277Y638028D03*
D49*
X959456Y638092D03*
D230*
X953169Y638092D03*
D38*
X945264Y638092D03*
D219*
X938628Y638092D03*
D19*
X932786Y638092D03*
D58*
X929611Y638092D03*
D71*
X924309Y638092D03*
D31*
X959520Y638155D03*
D231*
X953106Y638155D03*
D86*
X945295Y638155D03*
D215*
X938533Y638155D03*
D21*
X932786Y638155D03*
D31*
X929611Y638155D03*
D232*
X924309Y638155D03*
D233*
X959551Y638219D03*
D230*
X953042Y638219D03*
D196*
X945327Y638219D03*
D211*
X938469Y638219D03*
D46*
X932818Y638219D03*
D28*
X929611Y638219D03*
D71*
X924309Y638219D03*
D234*
X959583Y638282D03*
D231*
X952979Y638282D03*
D35*
X945327Y638282D03*
D209*
X938374Y638282D03*
D53*
X932786Y638282D03*
D235*
X929643Y638282D03*
D232*
X924309Y638282D03*
D17*
X961678Y638346D03*
D28*
X959583Y638346D03*
D230*
X952915Y638346D03*
D199*
X945359Y638346D03*
D210*
X938279Y638346D03*
D23*
X932786Y638346D03*
D138*
X929611Y638346D03*
D62*
X924340Y638346D03*
D21*
X961615Y638409D03*
D180*
X959615Y638409D03*
D231*
X952852Y638409D03*
D78*
X945359Y638409D03*
D209*
X938183Y638409D03*
D25*
X932754Y638409D03*
D53*
X929674Y638409D03*
D236*
X924340Y638409D03*
D46*
X961520Y638473D03*
D237*
X959615Y638473D03*
D230*
X952788Y638473D03*
D213*
X945391Y638473D03*
D204*
X938088Y638473D03*
D60*
X932754Y638473D03*
D62*
X924340Y638473D03*
D25*
X961456Y638536D03*
D180*
X959615Y638536D03*
D133*
X952757Y638536D03*
D216*
X945454Y638536D03*
D221*
X938057Y638536D03*
D30*
X932786Y638536D03*
D236*
X924340Y638536D03*
D32*
X961297Y638600D03*
D238*
X959647Y638600D03*
D239*
X952693Y638600D03*
D58*
X945486Y638600D03*
D240*
X937961Y638600D03*
D150*
X932754Y638600D03*
D62*
X924340Y638600D03*
D64*
X960282Y638663D03*
D241*
X952662Y638663D03*
D16*
X947105Y638663D03*
D55*
X945486Y638663D03*
D200*
X937866Y638663D03*
D66*
X932754Y638663D03*
D177*
X924372Y638663D03*
D107*
X960250Y638727D03*
D69*
X952630Y638727D03*
D17*
X947010Y638727D03*
D33*
X945581Y638727D03*
D205*
X937802Y638727D03*
D150*
X932754Y638727D03*
D62*
X924404Y638727D03*
D97*
X960250Y638790D03*
D241*
X952598Y638790D03*
D21*
X946883Y638790D03*
D78*
X945740Y638790D03*
D200*
X937739Y638790D03*
D92*
X932786Y638790D03*
D236*
X924404Y638790D03*
D104*
X960250Y638854D03*
D242*
X952535Y638854D03*
D99*
X945962Y638854D03*
D137*
X937644Y638854D03*
D243*
X932754Y638854D03*
D244*
X924436Y638854D03*
D86*
X960218Y638917D03*
D133*
X952503Y638917D03*
D78*
X945931Y638917D03*
D202*
X937612Y638917D03*
D245*
X932754Y638917D03*
D246*
X924436Y638917D03*
D213*
X960250Y638981D03*
D242*
X952471Y638981D03*
D227*
X945962Y638981D03*
D218*
X937485Y638981D03*
D138*
X932786Y638981D03*
D244*
X924436Y638981D03*
D31*
X960218Y639044D03*
D241*
X952408Y639044D03*
D234*
X945930Y639044D03*
D247*
X937390Y639044D03*
D183*
X932786Y639044D03*
D76*
X924468Y639044D03*
D187*
X960250Y639108D03*
D69*
X952376Y639108D03*
D70*
X945962Y639108D03*
D248*
X937326Y639108D03*
D40*
X932818Y639108D03*
D121*
X924499Y639108D03*
D66*
X960313Y639171D03*
D241*
X952344Y639171D03*
D249*
X945899Y639171D03*
D194*
X937231Y639171D03*
D52*
X932818Y639171D03*
D177*
X924499Y639171D03*
D242*
X952281Y639235D03*
D250*
X937168Y639235D03*
D73*
X932818Y639235D03*
D251*
X924531Y639235D03*
D241*
X952281Y639298D03*
D16*
X947359Y639298D03*
D171*
X937072Y639298D03*
D65*
X932850Y639298D03*
D76*
X924531Y639298D03*
D242*
X952217Y639362D03*
D39*
X947296Y639362D03*
D252*
X937009Y639362D03*
D24*
X932881Y639362D03*
D251*
X924595Y639362D03*
D253*
X952185Y639425D03*
D21*
X947264Y639425D03*
D254*
X936914Y639425D03*
D43*
X932913Y639425D03*
D76*
X924595Y639425D03*
D242*
X952154Y639489D03*
D47*
X947232Y639489D03*
D255*
X936787Y639489D03*
D256*
X933008Y639489D03*
D257*
X924626Y639489D03*
D133*
X952122Y639552D03*
D258*
X947232Y639552D03*
D259*
X935802Y639552D03*
D260*
X924626Y639552D03*
D239*
X952058Y639616D03*
D23*
X947200Y639616D03*
D261*
X935802Y639616D03*
D120*
X924658Y639616D03*
D253*
X952058Y639679D03*
D30*
X947201Y639679D03*
D170*
X935771Y639679D03*
D262*
X924658Y639679D03*
D69*
X951995Y639743D03*
D27*
X947201Y639743D03*
D263*
X935802Y639743D03*
D120*
X924721Y639743D03*
D231*
X951963Y639806D03*
D249*
X947169Y639806D03*
D264*
X935770Y639806D03*
D67*
X924753Y639806D03*
D230*
X951899Y639870D03*
D32*
X947200Y639870D03*
D265*
X935770Y639870D03*
D81*
X924753Y639870D03*
D231*
X951899Y639933D03*
D34*
X947169Y639933D03*
D264*
X935770Y639933D03*
D266*
X924817Y639933D03*
D230*
X951836Y639997D03*
D138*
X947201Y639997D03*
D267*
X935771Y639997D03*
D44*
X924849Y639997D03*
D226*
X951804Y640060D03*
D183*
X947201Y640060D03*
D268*
X935771Y640060D03*
D269*
X924849Y640060D03*
D228*
X951741Y640124D03*
D37*
X947232Y640124D03*
D267*
X935771Y640124D03*
D270*
X924880Y640124D03*
D77*
X951709Y640187D03*
D22*
X947200Y640187D03*
D268*
X935771Y640187D03*
D63*
X924912Y640187D03*
D219*
X951646Y640251D03*
D271*
X947232Y640251D03*
D272*
X935770Y640251D03*
D273*
X924944Y640251D03*
D215*
X951614Y640314D03*
D65*
X947264Y640314D03*
D274*
X935770Y640314D03*
D241*
X924976Y640314D03*
D217*
X951582Y640378D03*
D275*
X947264Y640378D03*
D276*
X935802Y640378D03*
D242*
X925039Y640378D03*
D209*
X951518Y640441D03*
D277*
X947296Y640441D03*
D278*
X935834Y640441D03*
D133*
X925071Y640441D03*
D210*
X951487Y640505D03*
D114*
X947327Y640505D03*
D279*
X935802Y640505D03*
D230*
X925102Y640505D03*
D280*
X951423Y640568D03*
D26*
X947391Y640568D03*
D281*
X935834Y640568D03*
D231*
X925166Y640568D03*
D282*
X951360Y640632D03*
D237*
X947423Y640632D03*
D157*
X935834Y640632D03*
D228*
X925198Y640632D03*
D202*
X951265Y640695D03*
D31*
X947518Y640695D03*
D283*
X935866Y640695D03*
D208*
X925261Y640695D03*
D284*
X951169Y640759D03*
D33*
X947613Y640759D03*
D285*
X935866Y640759D03*
D217*
X925293Y640759D03*
D274*
X949994Y640822D03*
D286*
X935898Y640822D03*
D287*
X925325Y640822D03*
D272*
X949994Y640886D03*
D45*
X939803Y640886D03*
D288*
X935898Y640886D03*
D203*
X925357Y640886D03*
D17*
X921864Y640886D03*
D274*
X949994Y640949D03*
D91*
X936723Y640949D03*
D289*
X925388Y640949D03*
D53*
X921991Y640949D03*
D105*
X959107Y641013D03*
D290*
X949995Y641013D03*
D291*
X936850Y641013D03*
D218*
X925420Y641013D03*
D20*
X922150Y641013D03*
D65*
X958885Y641076D03*
D278*
X949995Y641076D03*
D292*
X936945Y641076D03*
D293*
X924753Y641076D03*
D187*
X958726Y641140D03*
D290*
X949995Y641140D03*
D294*
X937072Y641140D03*
D135*
X924817Y641140D03*
D43*
X958630Y641203D03*
D278*
X949995Y641203D03*
D295*
X937136Y641203D03*
D296*
X924880Y641203D03*
D70*
X958535Y641267D03*
D297*
X949963Y641267D03*
D189*
X937231Y641267D03*
D298*
X924975Y641267D03*
D235*
X958472Y641330D03*
D268*
X949868Y641330D03*
D299*
X937295Y641330D03*
D286*
X925039Y641330D03*
D300*
X958345Y641394D03*
D265*
X949740Y641394D03*
D301*
X937390Y641394D03*
D288*
X925103Y641394D03*
D26*
X958250Y641457D03*
D259*
X949645Y641457D03*
D302*
X937453Y641457D03*
D283*
X925198Y641457D03*
D238*
X958186Y641521D03*
D79*
X949582Y641521D03*
D301*
X937517Y641521D03*
D279*
X925261Y641521D03*
D180*
X958091Y641584D03*
D85*
X949518Y641584D03*
D299*
X937612Y641584D03*
D278*
X925357Y641584D03*
D256*
X958027Y641648D03*
D303*
X949455Y641648D03*
D189*
X937676Y641648D03*
D297*
X925452Y641648D03*
D234*
X957995Y641711D03*
D182*
X949391Y641711D03*
D299*
X937739Y641711D03*
D304*
X925579Y641711D03*
D28*
X957932Y641775D03*
D186*
X949328Y641775D03*
D189*
X937803Y641775D03*
D139*
X925801Y641775D03*
D188*
X957900Y641838D03*
D91*
X949296Y641838D03*
D299*
X937866Y641838D03*
D305*
X926023Y641838D03*
D28*
X957868Y641902D03*
D306*
X949264Y641902D03*
D189*
X937930Y641902D03*
D291*
X926309Y641902D03*
D307*
X957837Y641965D03*
D143*
X949232Y641965D03*
D299*
X937993Y641965D03*
D308*
X926531Y641965D03*
D49*
X957805Y642029D03*
D309*
X949201Y642029D03*
D294*
X938088Y642029D03*
D153*
X926626Y642029D03*
D188*
X957773Y642092D03*
D299*
X949169Y642092D03*
D295*
X938152Y642092D03*
D310*
X926754Y642092D03*
D49*
X957742Y642156D03*
D311*
X949137Y642156D03*
D294*
X938215Y642156D03*
D312*
X926849Y642156D03*
D31*
X957742Y642219D03*
D161*
X949074Y642219D03*
D143*
X938247Y642219D03*
D313*
X926976Y642219D03*
D140*
X957710Y642283D03*
D162*
X949074Y642283D03*
D314*
X938311Y642283D03*
D315*
X927071Y642283D03*
D223*
X957710Y642346D03*
D156*
X949042Y642346D03*
D91*
X938374Y642346D03*
D316*
X927198Y642346D03*
D58*
X957678Y642410D03*
D193*
X949010Y642410D03*
D186*
X938406Y642410D03*
D317*
X927293Y642410D03*
D216*
X957646Y642473D03*
D318*
X948978Y642473D03*
D319*
X938501Y642473D03*
D320*
X927357Y642473D03*
D33*
X957646Y642537D03*
D321*
X949010Y642537D03*
D146*
X938533Y642537D03*
D322*
X927452Y642537D03*
D35*
X957646Y642600D03*
D310*
X948979Y642600D03*
D323*
X938628Y642600D03*
D324*
X927547Y642600D03*
D196*
X957646Y642664D03*
D312*
X948947Y642664D03*
D303*
X938660Y642664D03*
D317*
X927674Y642664D03*
D76*
X957170Y642727D03*
D325*
X948947Y642727D03*
D84*
X938755Y642727D03*
D316*
X927770Y642727D03*
D44*
X957043Y642791D03*
D198*
X948915Y642791D03*
D106*
X938787Y642791D03*
D315*
X927897Y642791D03*
D241*
X956980Y642854D03*
D326*
X948915Y642854D03*
D85*
X938850Y642854D03*
D316*
X927960Y642854D03*
D230*
X956916Y642918D03*
D315*
X948979Y642918D03*
D192*
X938882Y642918D03*
D327*
X928055Y642918D03*
D209*
X956852Y642981D03*
D328*
X949042Y642981D03*
D179*
X938914Y642981D03*
D329*
X928182Y642981D03*
D203*
X956789Y643045D03*
D330*
X949105Y643045D03*
D261*
X938977Y643045D03*
D173*
X928278Y643045D03*
D200*
X956789Y643108D03*
D331*
X949137Y643108D03*
D332*
X939041Y643108D03*
D318*
X928404Y643108D03*
D82*
X956789Y643172D03*
D333*
X949169Y643172D03*
D334*
X939073Y643172D03*
D159*
X928532Y643172D03*
D335*
X956757Y643235D03*
D175*
X949201Y643235D03*
D336*
X939104Y643235D03*
D299*
X928659Y643235D03*
D337*
X956757Y643299D03*
D338*
X949264Y643299D03*
D265*
X939136Y643299D03*
D291*
X928785Y643299D03*
D339*
X956757Y643362D03*
D340*
X949264Y643362D03*
D304*
X939168Y643362D03*
D91*
X928913Y643362D03*
D341*
X956757Y643426D03*
D342*
X949264Y643426D03*
D267*
X939200Y643426D03*
D343*
X929071Y643426D03*
D344*
X956789Y643489D03*
D345*
X949264Y643489D03*
D268*
X939200Y643489D03*
D323*
X929167Y643489D03*
D346*
X951741Y643553D03*
D347*
X939231Y643553D03*
D89*
X929230Y643553D03*
D348*
X951741Y643616D03*
D349*
X939295Y643616D03*
D85*
X929325Y643616D03*
D350*
X951773Y643680D03*
D351*
X939295Y643680D03*
D79*
X929389Y643680D03*
D352*
X951804Y643743D03*
D274*
X939326Y643743D03*
D74*
X929484Y643743D03*
D353*
X951804Y643807D03*
D272*
X939326Y643807D03*
D261*
X929579Y643807D03*
D354*
X951804Y643870D03*
D131*
X939295Y643870D03*
D176*
X929643Y643870D03*
D355*
X951836Y643934D03*
D290*
X939327Y643934D03*
D265*
X929738Y643934D03*
D356*
X951836Y643997D03*
D278*
X939327Y643997D03*
D304*
X929770Y643997D03*
D357*
X951836Y644061D03*
D290*
X939327Y644061D03*
D267*
X929865Y644061D03*
D358*
X951836Y644124D03*
D281*
X939326Y644124D03*
D359*
X929960Y644124D03*
D360*
X951804Y644188D03*
D157*
X939326Y644188D03*
D297*
X930024Y644188D03*
D361*
X951772Y644251D03*
D281*
X939326Y644251D03*
D362*
X930151Y644251D03*
D363*
X951773Y644315D03*
D157*
X939326Y644315D03*
X930182Y644315D03*
D364*
X951772Y644378D03*
D286*
X939327Y644378D03*
D281*
X930246Y644378D03*
D365*
X951741Y644442D03*
D288*
X939327Y644442D03*
D285*
X930278Y644442D03*
D366*
X951709Y644505D03*
D286*
X939327Y644505D03*
X930373Y644505D03*
D367*
X951677Y644569D03*
D368*
X939295Y644569D03*
X930405Y644569D03*
D369*
X951645Y644632D03*
D370*
X939295Y644632D03*
D296*
X930468Y644632D03*
D371*
X951582Y644696D03*
D298*
X939263Y644696D03*
X930500Y644696D03*
D372*
X951519Y644759D03*
D373*
X939263Y644759D03*
D374*
X930532Y644759D03*
D375*
X951423Y644823D03*
D298*
X939263Y644823D03*
D376*
X930564Y644823D03*
D377*
X948375Y644886D03*
D293*
X930595Y644886D03*
D378*
X948407Y644950D03*
D379*
X930690Y644950D03*
D380*
X948407Y645013D03*
D381*
X930722Y645013D03*
D382*
X948407Y645077D03*
D383*
X930722Y645077D03*
D384*
X948407Y645140D03*
D154*
X930754Y645140D03*
D385*
X948439Y645204D03*
D386*
X930786Y645204D03*
D387*
X948439Y645267D03*
D388*
X930817Y645267D03*
D389*
X948439Y645331D03*
D390*
X930881Y645331D03*
D391*
X948439Y645394D03*
D392*
X930913Y645394D03*
D389*
X948439Y645458D03*
D151*
X930945Y645458D03*
D393*
X948471Y645521D03*
D394*
X930945Y645521D03*
D395*
X948439Y645585D03*
D396*
X930976Y645585D03*
D397*
X948470Y645648D03*
D398*
X931008Y645648D03*
D399*
X948439Y645712D03*
D400*
X931071Y645712D03*
D401*
X948439Y645775D03*
D398*
X931071Y645775D03*
D402*
X948439Y645839D03*
D400*
X931135Y645839D03*
D403*
X948439Y645902D03*
D398*
X931135Y645902D03*
D404*
X948439Y645966D03*
D400*
X931198Y645966D03*
D405*
X948407Y646029D03*
D398*
X931262Y646029D03*
D406*
X948407Y646093D03*
D400*
X931262Y646093D03*
D407*
X948407Y646156D03*
D398*
X931325Y646156D03*
D408*
X948375Y646220D03*
D396*
X931357Y646220D03*
D409*
X948312Y646283D03*
D394*
X931389Y646283D03*
D410*
X948312Y646347D03*
D151*
X931453Y646347D03*
D411*
X948280Y646410D03*
D412*
X931484Y646410D03*
D413*
X948248Y646474D03*
D414*
X931484Y646474D03*
D415*
X948248Y646537D03*
D388*
X931579Y646537D03*
D416*
X948217Y646601D03*
D417*
X931611Y646601D03*
D418*
X948185Y646664D03*
D154*
X931707Y646664D03*
D419*
X948121Y646728D03*
D379*
X931770Y646728D03*
D107*
X925325Y646728D03*
D420*
X948026Y646791D03*
D421*
X931834Y646791D03*
D125*
X925388Y646791D03*
D422*
X945137Y646855D03*
D205*
X925483Y646855D03*
D423*
X945137Y646918D03*
D424*
X925611Y646918D03*
D422*
X945137Y646982D03*
D425*
X925706Y646982D03*
D423*
X945137Y647045D03*
D381*
X925769Y647045D03*
D426*
X945200Y647109D03*
D368*
X925833Y647109D03*
D427*
X942025Y647172D03*
D428*
X941962Y647236D03*
D429*
X941898Y647299D03*
D430*
X941867Y647363D03*
D431*
X941835Y647426D03*
D432*
X941771Y647490D03*
D433*
X941740Y647553D03*
D434*
X941676Y647617D03*
D435*
X941676Y647680D03*
D436*
X941644Y647744D03*
D437*
X941612Y647807D03*
D438*
X941581Y647871D03*
D439*
X941549Y647934D03*
D440*
X941517Y647998D03*
D441*
X941486Y648061D03*
D442*
X941486Y648125D03*
D443*
X941454Y648188D03*
D444*
X941454Y648252D03*
D445*
X941422Y648315D03*
D446*
X941390Y648379D03*
D447*
X941390Y648442D03*
D448*
X956980Y648506D03*
D449*
X936659Y648506D03*
D175*
X956948Y648569D03*
D450*
X936596Y648569D03*
D451*
X956948Y648633D03*
D452*
X936564Y648633D03*
D175*
X956948Y648696D03*
D450*
X936532Y648696D03*
D451*
X956948Y648760D03*
D449*
X936469Y648760D03*
D453*
X956948Y648823D03*
D450*
X936469Y648823D03*
D185*
X956948Y648887D03*
D449*
X936405Y648887D03*
D453*
X956948Y648950D03*
D450*
X936342Y648950D03*
D218*
X959646Y649014D03*
D425*
X954662Y649014D03*
D449*
X936342Y649014D03*
D221*
X959837Y649077D03*
D454*
X954662Y649077D03*
D450*
X936278Y649077D03*
D211*
X959932Y649141D03*
D425*
X954662Y649141D03*
D449*
X936278Y649141D03*
D231*
X960027Y649204D03*
D398*
X954630Y649204D03*
D450*
X936215Y649204D03*
D69*
X960123Y649268D03*
D455*
X954662Y649268D03*
D452*
X936183Y649268D03*
D125*
X960186Y649331D03*
D456*
X954662Y649331D03*
D457*
X936120Y649331D03*
D57*
X960250Y649395D03*
D151*
X954630Y649395D03*
D458*
X936088Y649395D03*
D269*
X960282Y649458D03*
D394*
X954630Y649458D03*
D459*
X936056Y649458D03*
D120*
X960345Y649522D03*
D390*
X954630Y649522D03*
D458*
X936025Y649522D03*
D126*
X960377Y649585D03*
D388*
X954630Y649585D03*
D460*
X935993Y649585D03*
D251*
X960409Y649649D03*
D417*
X954598Y649649D03*
D461*
X935929Y649649D03*
D236*
X960472Y649712D03*
D462*
X954598Y649712D03*
D463*
X938977Y649712D03*
D202*
X922499Y649712D03*
D46*
X963298Y649776D03*
D71*
X960504Y649776D03*
D464*
X954567Y649776D03*
D378*
X939072Y649776D03*
D205*
X922372Y649776D03*
D465*
X963361Y649839D03*
D64*
X960536Y649839D03*
D466*
X954535Y649839D03*
D467*
X939168Y649839D03*
D221*
X922309Y649839D03*
D114*
X963393Y649903D03*
D178*
X960599Y649903D03*
D135*
X954535Y649903D03*
D468*
X939231Y649903D03*
D217*
X922181Y649903D03*
D469*
X963361Y649966D03*
D470*
X960631Y649966D03*
D296*
X954471Y649966D03*
D471*
X939231Y649966D03*
D226*
X922086Y649966D03*
D49*
X963393Y650030D03*
D80*
X960662Y650030D03*
D298*
X954439Y650030D03*
D472*
X939231Y650030D03*
D242*
X921991Y650030D03*
D55*
X963393Y650093D03*
D110*
X960662Y650093D03*
D370*
X954408Y650093D03*
D473*
X938787Y650093D03*
D474*
X921896Y650093D03*
D196*
X963361Y650157D03*
D475*
X960694Y650157D03*
D129*
X954344Y650157D03*
D476*
X937422Y650157D03*
D270*
X921832Y650157D03*
D86*
X963393Y650220D03*
D75*
X960726Y650220D03*
D362*
X954281Y650220D03*
D369*
X937485Y650220D03*
D266*
X921769Y650220D03*
D90*
X963393Y650284D03*
D100*
X960726Y650284D03*
D290*
X954249Y650284D03*
D477*
X937485Y650284D03*
D120*
X921673Y650284D03*
D102*
X963393Y650347D03*
D97*
X960758Y650347D03*
D274*
X954185Y650347D03*
D364*
X937485Y650347D03*
D76*
X921610Y650347D03*
D23*
X964282Y650411D03*
D256*
X962980Y650411D03*
D112*
X960789Y650411D03*
D267*
X954122Y650411D03*
D478*
X937422Y650411D03*
D121*
X921578Y650411D03*
D222*
X964441Y650474D03*
D26*
X962949Y650474D03*
D93*
X960789Y650474D03*
D170*
X953995Y650474D03*
D479*
X937390Y650474D03*
D246*
X921515Y650474D03*
D238*
X962949Y650538D03*
D112*
X960789Y650538D03*
D192*
X953868Y650538D03*
D480*
X937421Y650538D03*
D62*
X921483Y650538D03*
D469*
X962980Y650601D03*
D56*
X960821Y650601D03*
D319*
X953677Y650601D03*
D481*
X937421Y650601D03*
D117*
X921451Y650601D03*
D28*
X963012Y650665D03*
D225*
X960821Y650665D03*
D193*
X953328Y650665D03*
D482*
X937421Y650665D03*
D71*
X921388Y650665D03*
D234*
X963012Y650728D03*
D56*
X960821Y650728D03*
D316*
X953106Y650728D03*
D483*
X937453Y650728D03*
D277*
X924817Y650728D03*
D484*
X921324Y650728D03*
D48*
X963044Y650792D03*
D225*
X960821Y650792D03*
D485*
X952820Y650792D03*
D486*
X937453Y650792D03*
D213*
X924817Y650792D03*
D80*
X921292Y650792D03*
D307*
X963044Y650855D03*
D56*
X960821Y650855D03*
D487*
X952407Y650855D03*
D488*
X937517Y650855D03*
D41*
X924817Y650855D03*
D124*
X921261Y650855D03*
D48*
X963044Y650919D03*
D90*
X960853Y650919D03*
D489*
X952058Y650919D03*
D490*
X937549Y650919D03*
D80*
X924912Y650919D03*
X921229Y650919D03*
D31*
X963076Y650982D03*
D102*
X960853Y650982D03*
D491*
X951931Y650982D03*
D492*
X937548Y650982D03*
D117*
X924880Y650982D03*
D110*
X921229Y650982D03*
D49*
X963076Y651046D03*
D90*
X960853Y651046D03*
D493*
X951804Y651046D03*
D494*
X937580Y651046D03*
D251*
X924912Y651046D03*
D475*
X921197Y651046D03*
D31*
X963012Y651109D03*
D102*
X960853Y651109D03*
D495*
X951709Y651109D03*
D496*
X937612Y651109D03*
D266*
X924944Y651109D03*
D497*
X921197Y651109D03*
D49*
X963012Y651173D03*
D90*
X960853Y651173D03*
D98*
X951645Y651173D03*
D498*
X937612Y651173D03*
D57*
X924944Y651173D03*
D475*
X921197Y651173D03*
D31*
X963012Y651236D03*
D229*
X960885Y651236D03*
D499*
X951550Y651236D03*
D500*
X937644Y651236D03*
D241*
X924976Y651236D03*
D75*
X921166Y651236D03*
D233*
X962980Y651300D03*
D38*
X960885Y651300D03*
D501*
X951487Y651300D03*
D502*
X937644Y651300D03*
D239*
X925007Y651300D03*
D107*
X921134Y651300D03*
D188*
X962980Y651363D03*
D86*
X960853Y651363D03*
D503*
X951423Y651363D03*
D504*
X937676Y651363D03*
D226*
X925007Y651363D03*
D124*
X921134Y651363D03*
D28*
X962948Y651427D03*
D113*
X960853Y651427D03*
D505*
X951391Y651427D03*
D506*
X937707Y651427D03*
D219*
X925039Y651427D03*
D107*
X921134Y651427D03*
D234*
X962885Y651490D03*
D86*
X960853Y651490D03*
D507*
X951328Y651490D03*
D508*
X937771Y651490D03*
D208*
X925007Y651490D03*
D124*
X921134Y651490D03*
D256*
X962853Y651554D03*
D113*
X960853Y651554D03*
D509*
X951296Y651554D03*
D510*
X937803Y651554D03*
D217*
X925039Y651554D03*
D107*
X921134Y651554D03*
D235*
X962790Y651617D03*
D86*
X960853Y651617D03*
D511*
X951264Y651617D03*
D507*
X937866Y651617D03*
D221*
X925039Y651617D03*
D75*
X921102Y651617D03*
D114*
X962758Y651681D03*
D113*
X960853Y651681D03*
D512*
X951233Y651681D03*
D505*
X937929Y651681D03*
D282*
X925071Y651681D03*
D475*
X921070Y651681D03*
D43*
X962694Y651744D03*
D86*
X960853Y651744D03*
D513*
X951169Y651744D03*
D514*
X937961Y651744D03*
D515*
X925071Y651744D03*
D497*
X921070Y651744D03*
D187*
X962663Y651808D03*
D113*
X960853Y651808D03*
D510*
X951138Y651808D03*
D94*
X937993Y651808D03*
D137*
X925071Y651808D03*
D475*
X921070Y651808D03*
D65*
X962631Y651871D03*
D86*
X960853Y651871D03*
D516*
X951106Y651871D03*
D517*
X938025Y651871D03*
D201*
X925071Y651871D03*
D497*
X921070Y651871D03*
D275*
X962568Y651935D03*
D113*
X960853Y651935D03*
D518*
X951074Y651935D03*
D519*
X938088Y651935D03*
D82*
X925103Y651935D03*
D475*
X921070Y651935D03*
D520*
X962536Y651998D03*
D86*
X960853Y651998D03*
D521*
X951074Y651998D03*
D522*
X938088Y651998D03*
D36*
X930119Y651998D03*
D202*
X925103Y651998D03*
D497*
X921070Y651998D03*
D271*
X962472Y652062D03*
D113*
X960853Y652062D03*
D523*
X951042Y652062D03*
D524*
X937993Y652062D03*
D20*
X930532Y652062D03*
D284*
X925134Y652062D03*
D475*
X921070Y652062D03*
D525*
X962472Y652125D03*
D86*
X960853Y652125D03*
D526*
X951011Y652125D03*
D500*
X937009Y652125D03*
D527*
X925166Y652125D03*
D497*
X921070Y652125D03*
D73*
X962409Y652189D03*
D83*
X960885Y652189D03*
D528*
X950947Y652189D03*
D529*
X937072Y652189D03*
D337*
X925134Y652189D03*
D80*
X921102Y652189D03*
D65*
X962377Y652252D03*
D530*
X960885Y652252D03*
D531*
X950915Y652252D03*
X937199Y652252D03*
D124*
X926087Y652252D03*
D78*
X923896Y652252D03*
D110*
X921102Y652252D03*
D532*
X961393Y652316D03*
D533*
X950883Y652316D03*
D534*
X937263Y652316D03*
D104*
X926214Y652316D03*
D48*
X923801Y652316D03*
D80*
X921102Y652316D03*
D126*
X961393Y652379D03*
D535*
X950883Y652379D03*
D536*
X937390Y652379D03*
D36*
X929293Y652379D03*
D102*
X926309Y652379D03*
D469*
X923737Y652379D03*
D110*
X921102Y652379D03*
D532*
X961393Y652443D03*
D448*
X952598Y652443D03*
D273*
X946026Y652443D03*
D505*
X937485Y652443D03*
D47*
X929452Y652443D03*
D38*
X926341Y652443D03*
D300*
X923674Y652443D03*
D61*
X921134Y652443D03*
D76*
X961361Y652506D03*
D537*
X952693Y652506D03*
D76*
X945740Y652506D03*
D538*
X937548Y652506D03*
D25*
X929579Y652506D03*
D35*
X926404Y652506D03*
D43*
X923642Y652506D03*
D110*
X921165Y652506D03*
D251*
X961361Y652570D03*
D130*
X952820Y652570D03*
D121*
X945708Y652570D03*
D539*
X937644Y652570D03*
D150*
X929706Y652570D03*
D83*
X926468Y652570D03*
D275*
X923642Y652570D03*
D80*
X921165Y652570D03*
D76*
X961361Y652633D03*
D320*
X952884Y652633D03*
D236*
X945613Y652633D03*
D540*
X937739Y652633D03*
D245*
X929833Y652633D03*
D78*
X926500Y652633D03*
D525*
X923610Y652633D03*
D484*
X921197Y652633D03*
D251*
X961361Y652697D03*
D327*
X952947Y652697D03*
D62*
X945549Y652697D03*
D541*
X937834Y652697D03*
D243*
X929960Y652697D03*
D33*
X926531Y652697D03*
D37*
X923610Y652697D03*
D542*
X921197Y652697D03*
D76*
X961361Y652760D03*
D326*
X952979Y652760D03*
D64*
X945486Y652760D03*
D116*
X937929Y652760D03*
D465*
X930087Y652760D03*
D191*
X926595Y652760D03*
D183*
X923579Y652760D03*
D64*
X921229Y652760D03*
D251*
X961361Y652824D03*
D173*
X952979Y652824D03*
D178*
X945423Y652824D03*
D543*
X938025Y652824D03*
D275*
X930246Y652824D03*
D58*
X926626Y652824D03*
D32*
X923578Y652824D03*
D61*
X921261Y652824D03*
D76*
X961361Y652887D03*
D195*
X953011Y652887D03*
D470*
X945391Y652887D03*
D544*
X938120Y652887D03*
D43*
X930373Y652887D03*
D55*
X926626Y652887D03*
D249*
X923547Y652887D03*
D64*
X921293Y652887D03*
D251*
X961361Y652951D03*
D153*
X953042Y652951D03*
D542*
X945327Y652951D03*
D545*
X938215Y652951D03*
D238*
X930500Y652951D03*
D227*
X926658Y652951D03*
D27*
X923579Y652951D03*
D178*
X921293Y652951D03*
D126*
X961393Y653014D03*
D308*
X953074Y653014D03*
D110*
X945295Y653014D03*
D345*
X938342Y653014D03*
D234*
X930627Y653014D03*
D206*
X926658Y653014D03*
D53*
X923578Y653014D03*
D117*
X921324Y653014D03*
D532*
X961393Y653078D03*
D546*
X953074Y653078D03*
D107*
X945264Y653078D03*
D128*
X938438Y653078D03*
D49*
X930754Y653078D03*
D227*
X926658Y653078D03*
D47*
X923610Y653078D03*
D178*
X921356Y653078D03*
D126*
X961393Y653141D03*
D547*
X953074Y653141D03*
D497*
X945200Y653141D03*
D548*
X938565Y653141D03*
D191*
X930913Y653141D03*
D206*
X926658Y653141D03*
D21*
X923642Y653141D03*
D232*
X921388Y653141D03*
D120*
X961424Y653205D03*
D164*
X953106Y653205D03*
D475*
X945200Y653205D03*
D549*
X938660Y653205D03*
D113*
X931008Y653205D03*
D58*
X926690Y653205D03*
D17*
X923642Y653205D03*
D190*
X921451Y653205D03*
D262*
X961424Y653268D03*
D167*
X953106Y653268D03*
D75*
X945169Y653268D03*
D127*
X938787Y653268D03*
D41*
X931167Y653268D03*
D55*
X926690Y653268D03*
D236*
X921483Y653268D03*
D44*
X961488Y653332D03*
D311*
X953074Y653332D03*
D100*
X945169Y653332D03*
D315*
X938882Y653332D03*
D100*
X931326Y653332D03*
D58*
X926690Y653332D03*
D62*
X921546Y653332D03*
D63*
X961551Y653395D03*
D299*
X953106Y653395D03*
D97*
X945137Y653395D03*
D310*
X939009Y653395D03*
D470*
X931421Y653395D03*
D55*
X926690Y653395D03*
D177*
X921578Y653395D03*
D273*
X961647Y653459D03*
D189*
X953106Y653459D03*
D100*
X945105Y653459D03*
D162*
X939168Y653459D03*
D71*
X931548Y653459D03*
D58*
X926690Y653459D03*
D121*
X921578Y653459D03*
D253*
X961710Y653522D03*
D292*
X953074Y653522D03*
D550*
X945073Y653522D03*
D143*
X939326Y653522D03*
D262*
X931706Y653522D03*
D55*
X926690Y653522D03*
D246*
X921642Y653522D03*
D228*
X961774Y653586D03*
D546*
X952947Y653586D03*
D95*
X945073Y653586D03*
D146*
X939422Y653586D03*
D270*
X931865Y653586D03*
D33*
X926658Y653586D03*
D251*
X921674Y653586D03*
D77*
X961806Y653649D03*
D308*
X952820Y653649D03*
D550*
X945073Y653649D03*
D551*
X939549Y653649D03*
D253*
X931992Y653649D03*
D55*
X926626Y653649D03*
D126*
X921769Y653649D03*
D211*
X961837Y653713D03*
D552*
X952376Y653713D03*
D112*
X945041Y653713D03*
D334*
X939708Y653713D03*
D219*
X932151Y653713D03*
D213*
X926595Y653713D03*
D120*
X921800Y653713D03*
D77*
X961869Y653776D03*
D118*
X952344Y653776D03*
D97*
X945010Y653776D03*
D268*
X939835Y653776D03*
D515*
X932310Y653776D03*
D78*
X926563Y653776D03*
D262*
X921864Y653776D03*
D212*
X961901Y653840D03*
D330*
X952344Y653840D03*
D553*
X945010Y653840D03*
D279*
X939993Y653840D03*
D137*
X932437Y653840D03*
D199*
X926563Y653840D03*
D554*
X921896Y653840D03*
D209*
X961932Y653903D03*
D127*
X952376Y653903D03*
D97*
X945010Y653903D03*
D296*
X940120Y653903D03*
D247*
X932564Y653903D03*
D35*
X926531Y653903D03*
D67*
X921959Y653903D03*
D211*
X961964Y653967D03*
D555*
X952344Y653967D03*
D553*
X945010Y653967D03*
D464*
X940279Y653967D03*
D341*
X932754Y653967D03*
D113*
X926499Y653967D03*
D270*
X922086Y653967D03*
D209*
X961996Y654030D03*
D134*
X952376Y654030D03*
D97*
X945010Y654030D03*
D394*
X940406Y654030D03*
D556*
X932881Y654030D03*
D86*
X926499Y654030D03*
D474*
X922150Y654030D03*
D217*
X962059Y654094D03*
D315*
X952408Y654094D03*
D553*
X945010Y654094D03*
D255*
X940533Y654094D03*
D557*
X933040Y654094D03*
D113*
X926436Y654094D03*
D69*
X922277Y654094D03*
D209*
X962059Y654157D03*
D326*
X952407Y654157D03*
D97*
X945010Y654157D03*
D558*
X940755Y654157D03*
D398*
X933167Y654157D03*
D102*
X926373Y654157D03*
D226*
X922340Y654157D03*
D217*
X962123Y654221D03*
D559*
X952503Y654221D03*
D553*
X945010Y654221D03*
D197*
X941009Y654221D03*
D560*
X933326Y654221D03*
D225*
X926277Y654221D03*
D211*
X922467Y654221D03*
D209*
X962123Y654284D03*
D156*
X952535Y654284D03*
D75*
X944978Y654284D03*
D226*
X941263Y654284D03*
D466*
X933453Y654284D03*
D64*
X926055Y654284D03*
D16*
X924626Y654284D03*
D221*
X922626Y654284D03*
D217*
X962186Y654348D03*
D164*
X952598Y654348D03*
D100*
X944978Y654348D03*
D44*
X941486Y654348D03*
D561*
X933580Y654348D03*
D351*
X924055Y654348D03*
D208*
X962218Y654411D03*
D295*
X952630Y654411D03*
D75*
X944978Y654411D03*
D236*
X941676Y654411D03*
D132*
X933770Y654411D03*
D131*
X924055Y654411D03*
D29*
X965139Y654475D03*
D212*
X962282Y654475D03*
D562*
X952693Y654475D03*
D100*
X944978Y654475D03*
D553*
X941835Y654475D03*
D351*
X933961Y654475D03*
D290*
X924087Y654475D03*
D29*
X919038Y654475D03*
D183*
X964981Y654538D03*
D77*
X962314Y654538D03*
D149*
X952757Y654538D03*
D75*
X944978Y654538D03*
D78*
X942057Y654538D03*
D170*
X934120Y654538D03*
D281*
X924086Y654538D03*
D36*
X919070Y654538D03*
D187*
X964949Y654602D03*
D563*
X962345Y654602D03*
D89*
X952788Y654602D03*
D100*
X944978Y654602D03*
D70*
X942279Y654602D03*
D192*
X934247Y654602D03*
D129*
X924118Y654602D03*
D39*
X919102Y654602D03*
D16*
X966790Y654665D03*
D469*
X965012Y654665D03*
D224*
X962409Y654665D03*
D84*
X952788Y654665D03*
D75*
X944978Y654665D03*
D66*
X942533Y654665D03*
D149*
X934469Y654665D03*
D564*
X924118Y654665D03*
D21*
X919134Y654665D03*
D17*
X966822Y654729D03*
D227*
X965012Y654729D03*
D230*
X962440Y654729D03*
D106*
X952757Y654729D03*
D100*
X944978Y654729D03*
D294*
X934659Y654729D03*
D298*
X924150Y654729D03*
D23*
X919197Y654729D03*
D36*
X966822Y654792D03*
D565*
X963361Y654792D03*
D85*
X952693Y654792D03*
D75*
X944978Y654792D03*
D156*
X934818Y654792D03*
D421*
X924150Y654792D03*
D54*
X919229Y654792D03*
D17*
X966885Y654856D03*
D400*
X963456Y654856D03*
D89*
X952661Y654856D03*
D475*
X944946Y654856D03*
D312*
X934977Y654856D03*
D379*
X924150Y654856D03*
D27*
X919261Y654856D03*
D36*
X966885Y654919D03*
D398*
X963520Y654919D03*
D551*
X952630Y654919D03*
D497*
X944946Y654919D03*
D320*
X935104Y654919D03*
D154*
X924150Y654919D03*
D92*
X919324Y654919D03*
D19*
X966886Y654983D03*
D400*
X963583Y654983D03*
D566*
X952566Y654983D03*
D475*
X944946Y654983D03*
D567*
X935294Y654983D03*
D390*
X924213Y654983D03*
D32*
X919324Y654983D03*
D68*
X966854Y655046D03*
D398*
X963647Y655046D03*
D109*
X952535Y655046D03*
D497*
X944946Y655046D03*
D453*
X935612Y655046D03*
D394*
X924214Y655046D03*
D34*
X919356Y655046D03*
D23*
X966822Y655110D03*
D568*
X963742Y655110D03*
D106*
X952503Y655110D03*
D475*
X944946Y655110D03*
D115*
X935898Y655110D03*
D400*
X924213Y655110D03*
D243*
X919419Y655110D03*
D53*
X966822Y655173D03*
D454*
X963806Y655173D03*
D85*
X952439Y655173D03*
D497*
X944946Y655173D03*
D569*
X936152Y655173D03*
D454*
X924182Y655173D03*
D183*
X919451Y655173D03*
D60*
X966790Y655237D03*
D568*
X963869Y655237D03*
D192*
X952408Y655237D03*
D475*
X944946Y655237D03*
D570*
X936406Y655237D03*
D255*
X924150Y655237D03*
D40*
X919483Y655237D03*
D571*
X964218Y655300D03*
D109*
X952408Y655300D03*
D497*
X944946Y655300D03*
D495*
X936533Y655300D03*
D147*
X924118Y655300D03*
D22*
X919514Y655300D03*
D383*
X964250Y655364D03*
D192*
X952344Y655364D03*
D475*
X944946Y655364D03*
D98*
X936596Y655364D03*
D572*
X924118Y655364D03*
D271*
X919546Y655364D03*
D573*
X964314Y655427D03*
D574*
X952312Y655427D03*
D110*
X944914Y655427D03*
D575*
X936628Y655427D03*
D254*
X924087Y655427D03*
D65*
X919578Y655427D03*
D273*
X965457Y655491D03*
D99*
X962599Y655491D03*
D139*
X952280Y655491D03*
D80*
X944914Y655491D03*
D539*
X936628Y655491D03*
D252*
X924055Y655491D03*
D187*
X919610Y655491D03*
D51*
X965520Y655554D03*
D35*
X962599Y655554D03*
D179*
X952249Y655554D03*
D110*
X944914Y655554D03*
D575*
X936628Y655554D03*
D344*
X924023Y655554D03*
D277*
X919610Y655554D03*
D554*
X965584Y655618D03*
D196*
X962599Y655618D03*
D139*
X952217Y655618D03*
D107*
X944883Y655618D03*
D98*
X936596Y655618D03*
D576*
X923991Y655618D03*
D114*
X919641Y655618D03*
D262*
X965615Y655681D03*
D78*
X962568Y655681D03*
D259*
X952185Y655681D03*
D110*
X944851Y655681D03*
D577*
X936564Y655681D03*
D578*
X923928Y655681D03*
D43*
X919705Y655681D03*
D121*
X965647Y655745D03*
D33*
X962599Y655745D03*
D261*
X952185Y655745D03*
D80*
X944851Y655745D03*
D524*
X936533Y655745D03*
D57*
X924436Y655745D03*
D73*
X922150Y655745D03*
D300*
X919737Y655745D03*
D232*
X965711Y655808D03*
D55*
X962631Y655808D03*
D170*
X952154Y655808D03*
D110*
X944851Y655808D03*
D540*
X936469Y655808D03*
D76*
X924468Y655808D03*
D520*
X922150Y655808D03*
D235*
X919737Y655808D03*
D80*
X965742Y655872D03*
D58*
X962631Y655872D03*
D174*
X952122Y655872D03*
D542*
X944819Y655872D03*
D103*
X936374Y655872D03*
D107*
X924436Y655872D03*
D73*
X922150Y655872D03*
D238*
X919769Y655872D03*
D75*
X965806Y655935D03*
D55*
X962631Y655935D03*
D264*
X952090Y655935D03*
D484*
X944819Y655935D03*
D579*
X936310Y655935D03*
D31*
X924595Y655935D03*
D520*
X922150Y655935D03*
D469*
X919800Y655935D03*
D104*
X965838Y655999D03*
D213*
X962663Y655999D03*
D136*
X952058Y655999D03*
D80*
X944787Y655999D03*
D580*
X936247Y655999D03*
D138*
X924658Y655999D03*
D59*
X922118Y655999D03*
D256*
X919800Y655999D03*
D78*
X965870Y656062D03*
D55*
X962694Y656062D03*
D268*
X952027Y656062D03*
D470*
X944756Y656062D03*
D148*
X936183Y656062D03*
D22*
X922118Y656062D03*
D234*
X919832Y656062D03*
D233*
X965901Y656126D03*
D33*
X962726Y656126D03*
D272*
X952026Y656126D03*
D50*
X946661Y656126D03*
D61*
X944756Y656126D03*
D152*
X936088Y656126D03*
D59*
X922118Y656126D03*
D28*
X919832Y656126D03*
D43*
X965933Y656189D03*
D530*
X962790Y656189D03*
D274*
X952026Y656189D03*
D21*
X946756Y656189D03*
D470*
X944756Y656189D03*
D155*
X935961Y656189D03*
D22*
X922118Y656189D03*
D307*
X919864Y656189D03*
D243*
X965901Y656253D03*
D99*
X962853Y656253D03*
D272*
X951963Y656253D03*
D23*
X946819Y656253D03*
D178*
X944724Y656253D03*
D158*
X935898Y656253D03*
D59*
X922118Y656253D03*
D48*
X919864Y656253D03*
D41*
X962917Y656316D03*
D264*
X951772Y656316D03*
D92*
X946946Y656316D03*
D64*
X944724Y656316D03*
D581*
X935770Y656316D03*
D465*
X922086Y656316D03*
D31*
X919896Y656316D03*
D100*
X963012Y656380D03*
D582*
X951550Y656380D03*
D59*
X947073Y656380D03*
D542*
X944692Y656380D03*
D115*
X935707Y656380D03*
D59*
X922054Y656380D03*
D49*
X919896Y656380D03*
D124*
X963044Y656443D03*
D195*
X950852Y656443D03*
D64*
X944661Y656443D03*
D583*
X935612Y656443D03*
D22*
X922054Y656443D03*
D206*
X919927Y656443D03*
D542*
X963107Y656507D03*
D559*
X950852Y656507D03*
D178*
X944661Y656507D03*
D584*
X935485Y656507D03*
D59*
X922054Y656507D03*
D227*
X919927Y656507D03*
D55*
X963583Y656570D03*
D52*
X962282Y656570D03*
D165*
X950852Y656570D03*
D64*
X944661Y656570D03*
D249*
X941962Y656570D03*
D585*
X935390Y656570D03*
D520*
X922023Y656570D03*
D223*
X919991Y656570D03*
D213*
X963679Y656634D03*
D40*
X962282Y656634D03*
D162*
X950852Y656634D03*
D71*
X944629Y656634D03*
D271*
X941898Y656634D03*
D338*
X935294Y656634D03*
D73*
X922023Y656634D03*
D140*
X919991Y656634D03*
D191*
X963679Y656697D03*
D22*
X962250Y656697D03*
D160*
X950852Y656697D03*
D64*
X944597Y656697D03*
D43*
X941866Y656697D03*
D548*
X935199Y656697D03*
D22*
X921991Y656697D03*
D55*
X920022Y656697D03*
D33*
X963742Y656761D03*
D73*
X962282Y656761D03*
D301*
X950852Y656761D03*
D190*
X944565Y656761D03*
D237*
X941835Y656761D03*
D586*
X935104Y656761D03*
D271*
X921959Y656761D03*
D58*
X920022Y656761D03*
D191*
X963806Y656824D03*
D520*
X962282Y656824D03*
D295*
X950852Y656824D03*
D117*
X944565Y656824D03*
D188*
X941771Y656824D03*
D587*
X934977Y656824D03*
D525*
X921959Y656824D03*
D216*
X920054Y656824D03*
D33*
X963869Y656888D03*
D275*
X962314Y656888D03*
D314*
X950884Y656888D03*
D62*
X944533Y656888D03*
D140*
X941708Y656888D03*
D588*
X934882Y656888D03*
D275*
X921928Y656888D03*
D33*
X920054Y656888D03*
D78*
X963901Y656951D03*
D277*
X962282Y656951D03*
D182*
X950915Y656951D03*
D236*
X944470Y656951D03*
D78*
X941676Y656951D03*
D118*
X934754Y656951D03*
D277*
X921896Y656951D03*
D216*
X920054Y656951D03*
D213*
X963933Y657015D03*
D114*
X962313Y657015D03*
D589*
X950915Y657015D03*
D62*
X944470Y657015D03*
D38*
X941581Y657015D03*
D555*
X934628Y657015D03*
D275*
X921864Y657015D03*
D199*
X920086Y657015D03*
D216*
X963996Y657078D03*
D235*
X962282Y657078D03*
D551*
X950979Y657078D03*
D236*
X944470Y657078D03*
D93*
X941485Y657078D03*
D590*
X934532Y657078D03*
D184*
X921832Y657078D03*
D78*
X920086Y657078D03*
D33*
X963996Y657142D03*
D300*
X962282Y657142D03*
D79*
X950979Y657142D03*
D121*
X944438Y657142D03*
D95*
X941390Y657142D03*
D317*
X934405Y657142D03*
D114*
X921800Y657142D03*
D83*
X920118Y657142D03*
D55*
X964028Y657205D03*
D26*
X962314Y657205D03*
D170*
X951011Y657205D03*
D177*
X944438Y657205D03*
D484*
X941263Y657205D03*
D591*
X934278Y657205D03*
D43*
X921737Y657205D03*
D530*
X920118Y657205D03*
D213*
X964060Y657269D03*
D237*
X962282Y657269D03*
D136*
X951042Y657269D03*
D244*
X944375Y657269D03*
D62*
X941168Y657269D03*
D173*
X934120Y657269D03*
D57*
X920753Y657269D03*
D55*
X964091Y657332D03*
D180*
X962282Y657332D03*
D359*
X951042Y657332D03*
D246*
X944375Y657332D03*
D126*
X941073Y657332D03*
D318*
X933992Y657332D03*
D172*
X920753Y657332D03*
D58*
X964155Y657396D03*
D28*
X962313Y657396D03*
D290*
X951074Y657396D03*
D251*
X944343Y657396D03*
D44*
X940978Y657396D03*
D162*
X933834Y657396D03*
D44*
X920721Y657396D03*
D55*
X964155Y657459D03*
D234*
X962313Y657459D03*
D281*
X951074Y657459D03*
D260*
X944311Y657459D03*
D474*
X940819Y657459D03*
D160*
X933707Y657459D03*
D269*
X920721Y657459D03*
D58*
X964218Y657523D03*
D48*
X962282Y657523D03*
D129*
X951042Y657523D03*
D251*
X944280Y657523D03*
D230*
X940723Y657523D03*
D189*
X933548Y657523D03*
D81*
X920689Y657523D03*
D55*
X964282Y657586D03*
D307*
X962282Y657586D03*
D283*
X950979Y657586D03*
D126*
X944248Y657586D03*
D209*
X940596Y657586D03*
D592*
X933389Y657586D03*
D497*
X925007Y657586D03*
D67*
X920689Y657586D03*
D58*
X964345Y657650D03*
D48*
X962282Y657650D03*
D288*
X950947Y657650D03*
D532*
X944248Y657650D03*
D203*
X940470Y657650D03*
D593*
X933230Y657650D03*
D61*
X924817Y657650D03*
D120*
X920657Y657650D03*
D36*
X966250Y657713D03*
D35*
X964504Y657713D03*
D31*
X962314Y657713D03*
D564*
X950915Y657713D03*
D260*
X944184Y657713D03*
D289*
X940374Y657713D03*
D323*
X933040Y657713D03*
D232*
X924563Y657713D03*
D262*
X920657Y657713D03*
D71*
X964949Y657777D03*
D49*
X962314Y657777D03*
D368*
X950852Y657777D03*
D257*
X944184Y657777D03*
D284*
X940247Y657777D03*
D89*
X932849Y657777D03*
D251*
X924341Y657777D03*
D120*
X920657Y657777D03*
D484*
X965012Y657840D03*
D31*
X962314Y657840D03*
D373*
X950820Y657840D03*
D262*
X944152Y657840D03*
D214*
X940089Y657840D03*
D109*
X932659Y657840D03*
D260*
X924118Y657840D03*
D126*
X920626Y657840D03*
D475*
X965012Y657904D03*
D49*
X962314Y657904D03*
D298*
X950756Y657904D03*
D554*
X944121Y657904D03*
D341*
X939993Y657904D03*
D79*
X932437Y657904D03*
D554*
X923928Y657904D03*
D532*
X920626Y657904D03*
D550*
X965012Y657967D03*
D31*
X962314Y657967D03*
D374*
X950725Y657967D03*
D67*
X944057Y657967D03*
D171*
X939866Y657967D03*
D170*
X932215Y657967D03*
D269*
X923706Y657967D03*
D76*
X920594Y657967D03*
D225*
X965012Y658031D03*
D28*
X962313Y658031D03*
D594*
X950661Y658031D03*
D44*
X944026Y658031D03*
D595*
X939739Y658031D03*
D265*
X931960Y658031D03*
D376*
X922118Y658031D03*
D86*
X965044Y658094D03*
D234*
X962313Y658094D03*
D421*
X950630Y658094D03*
D172*
X943994Y658094D03*
D596*
X939549Y658094D03*
D359*
X931738Y658094D03*
D466*
X922023Y658094D03*
D199*
X965044Y658158D03*
D28*
X962313Y658158D03*
D135*
X950598Y658158D03*
D597*
X943962Y658158D03*
D568*
X939358Y658158D03*
D276*
X931484Y658158D03*
D417*
X921959Y658158D03*
D223*
X965076Y658221D03*
D180*
X962282Y658221D03*
D571*
X950566Y658221D03*
D63*
X943898Y658221D03*
D394*
X939136Y658221D03*
D286*
X931199Y658221D03*
D388*
X921864Y658221D03*
D49*
X965108Y658285D03*
D237*
X962282Y658285D03*
D383*
X950534Y658285D03*
D273*
X943867Y658285D03*
D390*
X938945Y658285D03*
D561*
X930913Y658285D03*
D414*
X921832Y658285D03*
D26*
X965108Y658348D03*
D235*
X962282Y658348D03*
D154*
X950503Y658348D03*
D241*
X943835Y658348D03*
D571*
X938755Y658348D03*
D466*
X930659Y658348D03*
D456*
X921769Y658348D03*
D275*
X965108Y658412D03*
D300*
X962282Y658412D03*
D23*
X956281Y658412D03*
D386*
X950471Y658412D03*
D50*
X945899Y658412D03*
D239*
X943803Y658412D03*
D135*
X938533Y658412D03*
D560*
X930405Y658412D03*
D255*
X921674Y658412D03*
D66*
X965139Y658475D03*
D277*
X962282Y658475D03*
D52*
X956059Y658475D03*
D462*
X950407Y658475D03*
D21*
X945931Y658475D03*
D133*
X943740Y658475D03*
D296*
X938342Y658475D03*
D141*
X929992Y658475D03*
X921610Y658475D03*
D275*
X962314Y658539D03*
D59*
X955963Y658539D03*
D390*
X950375Y658539D03*
D23*
X945994Y658539D03*
D230*
X943708Y658539D03*
D298*
X938120Y658539D03*
D248*
X929452Y658539D03*
D598*
X921547Y658539D03*
D525*
X962345Y658602D03*
D184*
X955868Y658602D03*
D392*
X950344Y658602D03*
D66*
X946089Y658602D03*
D226*
X943676Y658602D03*
D370*
X937898Y658602D03*
D209*
X928912Y658602D03*
D599*
X921515Y658602D03*
D275*
X962377Y658666D03*
D114*
X955773Y658666D03*
D151*
X950312Y658666D03*
D45*
X946153Y658666D03*
D219*
X943581Y658666D03*
D157*
X937675Y658666D03*
D230*
X928468Y658666D03*
D576*
X921451Y658666D03*
D22*
X962440Y658729D03*
D180*
X955678Y658729D03*
D600*
X950280Y658729D03*
D22*
X946248Y658729D03*
D209*
X943517Y658729D03*
D274*
X937358Y658729D03*
D236*
X927769Y658729D03*
D578*
X921388Y658729D03*
D37*
X962472Y658793D03*
D28*
X955582Y658793D03*
D396*
X950280Y658793D03*
D24*
X946343Y658793D03*
D203*
X943454Y658793D03*
D263*
X937072Y658793D03*
D225*
X927293Y658793D03*
D601*
X921293Y658793D03*
D465*
X962599Y658856D03*
D234*
X955519Y658856D03*
D398*
X950248Y658856D03*
D26*
X946439Y658856D03*
D515*
X943359Y658856D03*
D109*
X936723Y658856D03*
D216*
X926912Y658856D03*
D247*
X921261Y658856D03*
D138*
X962695Y658920D03*
D49*
X955456Y658920D03*
D425*
X950217Y658920D03*
D233*
X946597Y658920D03*
D197*
X943295Y658920D03*
D309*
X936247Y658920D03*
D256*
X926531Y658920D03*
D284*
X921197Y658920D03*
D465*
X962853Y658983D03*
D206*
X955360Y658983D03*
D332*
X949328Y658983D03*
D335*
X943168Y658983D03*
D169*
X935802Y658983D03*
D465*
X926150Y658983D03*
D202*
X921166Y658983D03*
D138*
X962949Y659047D03*
D140*
X955297Y659047D03*
D334*
X949296Y659047D03*
D602*
X943105Y659047D03*
D555*
X935390Y659047D03*
D40*
X925960Y659047D03*
D205*
X921102Y659047D03*
D68*
X963044Y659110D03*
D55*
X955265Y659110D03*
D176*
X949328Y659110D03*
D603*
X942978Y659110D03*
D175*
X934977Y659110D03*
D34*
X925706Y659110D03*
D280*
X921070Y659110D03*
D58*
X955201Y659174D03*
D174*
X949328Y659174D03*
D604*
X942882Y659174D03*
D605*
X934596Y659174D03*
D32*
X925483Y659174D03*
D210*
X921007Y659174D03*
D191*
X955170Y659237D03*
D304*
X949328Y659237D03*
D171*
X942787Y659237D03*
D544*
X934247Y659237D03*
D30*
X925230Y659237D03*
D208*
X920943Y659237D03*
D33*
X955106Y659301D03*
D267*
X949360Y659301D03*
D606*
X942692Y659301D03*
D111*
X933802Y659301D03*
D46*
X924944Y659301D03*
D212*
X920880Y659301D03*
D191*
X955043Y659364D03*
D359*
X949391Y659364D03*
D254*
X942565Y659364D03*
D96*
X933389Y659364D03*
D77*
X920848Y659364D03*
D213*
X955043Y659428D03*
D272*
X949359Y659428D03*
D557*
X942438Y659428D03*
D607*
X933072Y659428D03*
D563*
X920816Y659428D03*
D216*
X954979Y659491D03*
D608*
X949391Y659491D03*
D609*
X942343Y659491D03*
D513*
X932754Y659491D03*
D133*
X920753Y659491D03*
D199*
X954948Y659555D03*
D610*
X949455Y659555D03*
D568*
X942279Y659555D03*
D518*
X932532Y659555D03*
D242*
X920721Y659555D03*
D191*
X954916Y659618D03*
D283*
X949455Y659618D03*
D565*
X942152Y659618D03*
D611*
X932310Y659618D03*
D63*
X920657Y659618D03*
D33*
X954852Y659682D03*
D288*
X949487Y659682D03*
D400*
X942057Y659682D03*
D612*
X932088Y659682D03*
D57*
X920626Y659682D03*
D78*
X954821Y659745D03*
D564*
X949518Y659745D03*
D456*
X941962Y659745D03*
D613*
X931865Y659745D03*
D67*
X920562Y659745D03*
D196*
X954725Y659809D03*
D561*
X949582Y659809D03*
D151*
X941867Y659809D03*
D614*
X931675Y659809D03*
D120*
X920530Y659809D03*
D86*
X954693Y659872D03*
D421*
X949614Y659872D03*
D394*
X941740Y659872D03*
D615*
X931452Y659872D03*
D126*
X920499Y659872D03*
D113*
X954630Y659936D03*
D379*
X949677Y659936D03*
D414*
X941644Y659936D03*
D616*
X931294Y659936D03*
D121*
X920435Y659936D03*
D102*
X954567Y659999D03*
D154*
X949741Y659999D03*
D394*
X941486Y659999D03*
D617*
X931611Y659999D03*
D236*
X920403Y659999D03*
D100*
X954440Y660063D03*
D464*
X949868Y660063D03*
D396*
X941390Y660063D03*
D518*
X931643Y660063D03*
D178*
X920340Y660063D03*
D195*
X951360Y660126D03*
D398*
X941231Y660126D03*
D536*
X931675Y660126D03*
D64*
X920277Y660126D03*
D559*
X951360Y660190D03*
D400*
X941104Y660190D03*
D618*
X931738Y660190D03*
D80*
X920213Y660190D03*
D195*
X951360Y660253D03*
D398*
X940977Y660253D03*
D575*
X931802Y660253D03*
D497*
X920181Y660253D03*
D321*
X951296Y660317D03*
D425*
X940819Y660317D03*
D493*
X931865Y660317D03*
D553*
X920118Y660317D03*
D169*
X951296Y660380D03*
D619*
X940724Y660380D03*
D620*
X931929Y660380D03*
D93*
X920086Y660380D03*
D321*
X951296Y660444D03*
D621*
X940565Y660444D03*
D622*
X931929Y660444D03*
D225*
X920054Y660444D03*
D169*
X951296Y660507D03*
D141*
X940469Y660507D03*
D623*
X931929Y660507D03*
D102*
X920023Y660507D03*
D321*
X951296Y660571D03*
D557*
X940342Y660571D03*
D624*
X931960Y660571D03*
D38*
X919991Y660571D03*
D310*
X951265Y660634D03*
D141*
X940215Y660634D03*
D625*
X931929Y660634D03*
D35*
X919927Y660634D03*
D173*
X951265Y660698D03*
D144*
X940057Y660698D03*
D584*
X931929Y660698D03*
D83*
X919864Y660698D03*
D329*
X951296Y660761D03*
D254*
X939962Y660761D03*
D453*
X931929Y660761D03*
D78*
X919832Y660761D03*
D626*
X951296Y660825D03*
D598*
X939835Y660825D03*
D451*
X931929Y660825D03*
D33*
X919800Y660825D03*
D326*
X951264Y660888D03*
D556*
X939739Y660888D03*
D587*
X931929Y660888D03*
D55*
X919768Y660888D03*
D198*
X951264Y660952D03*
D595*
X939612Y660952D03*
D552*
X931929Y660952D03*
D58*
X919705Y660952D03*
D591*
X951296Y661015D03*
D556*
X939485Y661015D03*
D328*
X931897Y661015D03*
D206*
X919673Y661015D03*
D40*
X955170Y661079D03*
D186*
X950725Y661079D03*
D606*
X939326Y661079D03*
D315*
X931897Y661079D03*
D49*
X919642Y661079D03*
D34*
X955297Y661142D03*
D627*
X950598Y661142D03*
D171*
X939231Y661142D03*
D329*
X931865Y661142D03*
D307*
X919610Y661142D03*
D150*
X955360Y661206D03*
D45*
X953773Y661206D03*
D379*
X949804Y661206D03*
D576*
X939104Y661206D03*
D321*
X931865Y661206D03*
D28*
X919578Y661206D03*
D53*
X955455Y661269D03*
X953804Y661269D03*
D154*
X949741Y661269D03*
D171*
X938977Y661269D03*
D156*
X931834Y661269D03*
D469*
X919546Y661269D03*
D46*
X955551Y661333D03*
D50*
X953773Y661333D03*
D464*
X949677Y661333D03*
D628*
X938914Y661333D03*
D301*
X931802Y661333D03*
D237*
X919483Y661333D03*
D18*
X955614Y661396D03*
D462*
X949645Y661396D03*
D629*
X938787Y661396D03*
D143*
X931833Y661396D03*
D26*
X919451Y661396D03*
D17*
X959265Y661460D03*
X955963Y662222D03*
D390*
X949677Y661460D03*
D628*
X938660Y661460D03*
D186*
X931802Y661460D03*
D70*
X919419Y661460D03*
D18*
X959297Y661523D03*
D573*
X949709Y661523D03*
D629*
X938533Y661523D03*
D323*
X931770Y661523D03*
D43*
X919387Y661523D03*
D46*
X959361Y661587D03*
D383*
X949772Y661587D03*
D250*
X938438Y661587D03*
D89*
X931770Y661587D03*
D187*
X919356Y661587D03*
D25*
X959424Y661650D03*
D630*
X949836Y661650D03*
D424*
X938311Y661650D03*
D574*
X931738Y661650D03*
D65*
X919324Y661650D03*
D20*
X959488Y661714D03*
D594*
X949899Y661714D03*
D250*
X938184Y661714D03*
D334*
X931707Y661714D03*
D275*
X919261Y661714D03*
D66*
X959551Y661777D03*
D370*
X949963Y661777D03*
D558*
X938088Y661777D03*
D176*
X931675Y661777D03*
D520*
X919229Y661777D03*
D32*
X959583Y661841D03*
D157*
X950058Y661841D03*
D341*
X937961Y661841D03*
D267*
X931643Y661841D03*
D59*
X919197Y661841D03*
D183*
X959647Y661904D03*
D608*
X950153Y661904D03*
D558*
X937834Y661904D03*
D608*
X931611Y661904D03*
D465*
X919165Y661904D03*
D37*
X959678Y661968D03*
D267*
X950249Y661968D03*
D19*
X945740Y661968D03*
D604*
X937739Y661968D03*
D157*
X931579Y661968D03*
D40*
X919102Y661968D03*
D22*
X959710Y662031D03*
D259*
X950407Y662031D03*
D249*
X945899Y662031D03*
D194*
X937612Y662031D03*
D286*
X931580Y662031D03*
D183*
X919070Y662031D03*
D275*
X959774Y662095D03*
D58*
X956154Y662095D03*
D303*
X950598Y662095D03*
D59*
X946057Y662095D03*
D604*
X937548Y662095D03*
D561*
X931548Y662095D03*
D243*
X919038Y662095D03*
D184*
X959805Y662158D03*
D116*
X952344Y662158D03*
D631*
X946216Y662158D03*
D194*
X937421Y662158D03*
D293*
X931484Y662158D03*
D92*
X919006Y662158D03*
D300*
X959869Y662222D03*
D518*
X951899Y662222D03*
D604*
X937294Y662222D03*
D464*
X931453Y662222D03*
D32*
X918943Y662222D03*
D26*
X959901Y662285D03*
D535*
X952026Y662285D03*
D339*
X937199Y662285D03*
D573*
X931421Y662285D03*
D92*
X918943Y662285D03*
D28*
X959964Y662349D03*
D632*
X952185Y662349D03*
D248*
X937072Y662349D03*
D414*
X931357Y662349D03*
D150*
X918911Y662349D03*
D31*
X959964Y662412D03*
D633*
X952376Y662412D03*
D214*
X936977Y662412D03*
D398*
X931325Y662412D03*
D30*
X918880Y662412D03*
D634*
X953201Y662476D03*
D635*
X936882Y662476D03*
D425*
X931294Y662476D03*
D27*
X918816Y662476D03*
D636*
X953297Y662539D03*
D603*
X936755Y662539D03*
D147*
X931230Y662539D03*
D25*
X918784Y662539D03*
D230*
X959265Y662603D03*
D524*
X951455Y662603D03*
D601*
X936660Y662603D03*
D598*
X931199Y662603D03*
D23*
X918752Y662603D03*
D76*
X959647Y662666D03*
D637*
X951042Y662666D03*
D339*
X936564Y662666D03*
D599*
X931167Y662666D03*
D68*
X918721Y662666D03*
D178*
X959901Y662730D03*
D584*
X950852Y662730D03*
D601*
X936469Y662730D03*
D250*
X931135Y662730D03*
D47*
X918657Y662730D03*
D75*
X960091Y662793D03*
D34*
X955170Y662793D03*
D574*
X949518Y662793D03*
D214*
X936342Y662793D03*
D194*
X931071Y662793D03*
D21*
X918626Y662793D03*
D100*
X960155Y662857D03*
D79*
X949582Y662857D03*
D601*
X936215Y662857D03*
D635*
X931040Y662857D03*
D39*
X918594Y662857D03*
D110*
X960154Y662920D03*
D109*
X949677Y662920D03*
D603*
X936120Y662920D03*
D638*
X930976Y662920D03*
D36*
X918562Y662920D03*
D178*
X960218Y662984D03*
D192*
X949741Y662984D03*
D601*
X936025Y662984D03*
D82*
X930945Y662984D03*
D29*
X918530Y662984D03*
D236*
X960218Y663047D03*
D179*
X949836Y663047D03*
D214*
X935898Y663047D03*
D200*
X930881Y663047D03*
D639*
G36*
X918512Y663044D02*
X918464Y663002D01*
X918422Y663050D01*
X918470Y663092D01*
X918512Y663044D01*
G37*
D244*
X960250Y663111D03*
D37*
X955868Y663111D03*
D582*
X949899Y663111D03*
D601*
X935771Y663111D03*
D240*
X930849Y663111D03*
D76*
X960282Y663174D03*
D65*
X955837Y663174D03*
D109*
X950058Y663174D03*
D214*
X935707Y663174D03*
D287*
X930786Y663174D03*
D120*
X960281Y663238D03*
D238*
X955837Y663238D03*
D192*
X950185Y663238D03*
D635*
X935612Y663238D03*
D219*
X930754Y663238D03*
D51*
X960313Y663301D03*
D31*
X955837Y663301D03*
D74*
X950375Y663301D03*
D603*
X935485Y663301D03*
D226*
X930722Y663301D03*
D72*
X960313Y663365D03*
D140*
X955805Y663365D03*
D261*
X950534Y663365D03*
D601*
X935390Y663365D03*
D69*
X930659Y663365D03*
D253*
X960313Y663428D03*
D191*
X955805Y663428D03*
D74*
X950629Y663428D03*
D339*
X935294Y663428D03*
D125*
X930595Y663428D03*
D563*
X960313Y663492D03*
D338*
X951931Y663492D03*
D601*
X935199Y663492D03*
D270*
X930595Y663492D03*
D231*
X960408Y663555D03*
D453*
X951995Y663555D03*
D603*
X935104Y663555D03*
D266*
X930532Y663555D03*
D242*
X960536Y663619D03*
D185*
X951995Y663619D03*
D635*
X934977Y663619D03*
D120*
X930500Y663619D03*
D51*
X960694Y663682D03*
D181*
X952058Y663682D03*
D339*
X934913Y663682D03*
D76*
X930437Y663682D03*
D120*
X960853Y663746D03*
D128*
X952090Y663746D03*
D248*
X934786Y663746D03*
D244*
X930405Y663746D03*
D177*
X961075Y663809D03*
D585*
X952090Y663809D03*
D339*
X934659Y663809D03*
D117*
X930341Y663809D03*
D80*
X961234Y663873D03*
D128*
X952154Y663873D03*
D635*
X934596Y663873D03*
D178*
X930310Y663873D03*
D97*
X961393Y663936D03*
D585*
X952217Y663936D03*
D194*
X934500Y663936D03*
D110*
X930246Y663936D03*
D90*
X961552Y664000D03*
D128*
X952217Y664000D03*
D604*
X934373Y664000D03*
D475*
X930214Y664000D03*
D35*
X961710Y664063D03*
D585*
X952281Y664063D03*
D194*
X934310Y664063D03*
D97*
X930151Y664063D03*
D58*
X961869Y664127D03*
D128*
X952344Y664127D03*
D604*
X934183Y664127D03*
D112*
X930119Y664127D03*
D307*
X962028Y664190D03*
D453*
X952376Y664190D03*
D194*
X934119Y664190D03*
D102*
X930056Y664190D03*
D237*
X962155Y664254D03*
D338*
X952439Y664254D03*
D604*
X933992Y664254D03*
D38*
X930024Y664254D03*
D277*
X962282Y664317D03*
D585*
X952471Y664317D03*
D558*
X933897Y664317D03*
D86*
X929992Y664317D03*
D73*
X962409Y664381D03*
D185*
X952503Y664381D03*
D604*
X933802Y664381D03*
D199*
X929929Y664381D03*
D52*
X962536Y664444D03*
D181*
X952566Y664444D03*
D194*
X933738Y664444D03*
D191*
X929897Y664444D03*
D45*
X962663Y664508D03*
D82*
X955392Y664508D03*
D414*
X950534Y664508D03*
D601*
X933675Y664508D03*
D33*
X929833Y664508D03*
D249*
X962790Y664571D03*
D289*
X955487Y664571D03*
D394*
X950566Y664571D03*
D527*
X933675Y664571D03*
D223*
X929770Y664571D03*
D105*
X962917Y664635D03*
D137*
X955551Y664635D03*
D455*
X950598Y664635D03*
D82*
X933612Y664635D03*
D49*
X929738Y664635D03*
D68*
X963044Y664698D03*
D202*
X955583Y664698D03*
D398*
X950629Y664698D03*
D200*
X933611Y664698D03*
D307*
X929643Y664698D03*
D19*
X963139Y664762D03*
D82*
X955646Y664762D03*
D400*
X950629Y664762D03*
D282*
X933580Y664762D03*
D28*
X929611Y664762D03*
D16*
X963234Y664825D03*
D335*
X955741Y664825D03*
D565*
X950661Y664825D03*
D207*
X933516Y664825D03*
D469*
X929579Y664825D03*
D640*
X955805Y664889D03*
D621*
X950725Y664889D03*
D211*
X933516Y664889D03*
D237*
X929516Y664889D03*
D527*
X955900Y664952D03*
D141*
X950756Y664952D03*
D224*
X933453Y664952D03*
D631*
X929452Y664952D03*
D218*
X955963Y665016D03*
D572*
X950788Y665016D03*
D230*
X933421Y665016D03*
D114*
X929420Y665016D03*
D247*
X956059Y665079D03*
D254*
X950820Y665079D03*
D253*
X933389Y665079D03*
D277*
X929389Y665079D03*
D248*
X956122Y665143D03*
D606*
X950883Y665143D03*
D597*
X933357Y665143D03*
D24*
X929325Y665143D03*
D578*
X956186Y665206D03*
D171*
X950915Y665206D03*
D172*
X933326Y665206D03*
D65*
X929294Y665206D03*
D88*
X960186Y665270D03*
D598*
X956281Y665270D03*
D641*
X950979Y665270D03*
D44*
X933294Y665270D03*
D73*
X929262Y665270D03*
D21*
X960028Y665333D03*
D456*
X956440Y665333D03*
D339*
X951042Y665333D03*
D67*
X933262Y665333D03*
D525*
X929198Y665333D03*
D279*
X956884Y665397D03*
D601*
X951074Y665397D03*
D532*
X933199Y665397D03*
D40*
X929135Y665397D03*
D281*
X956789Y665460D03*
D339*
X951042Y665460D03*
D76*
X933167Y665460D03*
D183*
X929103Y665460D03*
D285*
X956694Y665524D03*
D604*
X951010Y665524D03*
D121*
X933135Y665524D03*
D37*
X929071Y665524D03*
D370*
X956567Y665587D03*
D578*
X950979Y665587D03*
D236*
X933103Y665587D03*
D34*
X929008Y665587D03*
D368*
X956440Y665651D03*
D576*
X950915Y665651D03*
D71*
X933072Y665651D03*
D243*
X928944Y665651D03*
D374*
X956313Y665714D03*
D344*
X950883Y665714D03*
D484*
X933008Y665714D03*
D34*
X928881Y665714D03*
D135*
X956186Y665778D03*
D598*
X950820Y665778D03*
D80*
X932976Y665778D03*
D32*
X928849Y665778D03*
D642*
X953582Y665841D03*
D124*
X932945Y665841D03*
D92*
X928785Y665841D03*
D203*
X956853Y665905D03*
D228*
X952884Y665905D03*
D251*
X949487Y665905D03*
D100*
X932913Y665905D03*
D32*
X928722Y665905D03*
D253*
X956884Y665968D03*
D67*
X953074Y665968D03*
D260*
X949391Y665968D03*
D93*
X932849Y665968D03*
D249*
X928627Y665968D03*
D120*
X956916Y666032D03*
D251*
X953106Y666032D03*
D270*
X949264Y666032D03*
D104*
X932818Y666032D03*
D27*
X928595Y666032D03*
D86*
X956916Y666095D03*
D236*
X953169Y666095D03*
D241*
X949106Y666095D03*
D102*
X932786Y666095D03*
D30*
X928532Y666095D03*
D178*
X953170Y666159D03*
D230*
X948978Y666159D03*
D90*
X932723Y666159D03*
D27*
X928468Y666159D03*
D497*
X953201Y666222D03*
D77*
X948852Y666222D03*
D86*
X932659Y666222D03*
D30*
X928405Y666222D03*
D112*
X953233Y666286D03*
D204*
X948756Y666286D03*
D196*
X932627Y666286D03*
D105*
X928373Y666286D03*
D229*
X953265Y666349D03*
D209*
X948724Y666349D03*
D530*
X932564Y666349D03*
D30*
X928278Y666349D03*
D196*
X953328Y666413D03*
D212*
X948693Y666413D03*
D199*
X932532Y666413D03*
D27*
X928214Y666413D03*
D223*
X953392Y666476D03*
D77*
X948661Y666476D03*
D78*
X932469Y666476D03*
D30*
X928151Y666476D03*
D28*
X953423Y666540D03*
D219*
X948661Y666540D03*
D58*
X932405Y666540D03*
D105*
X928119Y666540D03*
D631*
X953455Y666603D03*
D231*
X948661Y666603D03*
D206*
X932373Y666603D03*
D25*
X928055Y666603D03*
D138*
X953487Y666667D03*
D239*
X948629Y666667D03*
D140*
X932310Y666667D03*
D105*
X927992Y666667D03*
D30*
X953551Y666730D03*
D241*
X948598Y666730D03*
D31*
X932278Y666730D03*
D25*
X927928Y666730D03*
D72*
X948629Y666794D03*
D49*
X932215Y666794D03*
D105*
X927865Y666794D03*
D63*
X948597Y666857D03*
D234*
X932151Y666857D03*
D25*
X927801Y666857D03*
D57*
X948566Y666921D03*
D256*
X932119Y666921D03*
D105*
X927738Y666921D03*
D266*
X948566Y666984D03*
D180*
X932056Y666984D03*
D25*
X927674Y666984D03*
D554*
X948566Y667048D03*
D238*
X932024Y667048D03*
D27*
X927643Y667048D03*
D262*
X948534Y667111D03*
D26*
X931961Y667111D03*
D30*
X927579Y667111D03*
D257*
X948502Y667175D03*
D300*
X931929Y667175D03*
D27*
X927516Y667175D03*
D76*
X948471Y667238D03*
D43*
X931897Y667238D03*
D30*
X927452Y667238D03*
D251*
X948471Y667302D03*
D187*
X931802Y667302D03*
D27*
X927389Y667302D03*
D76*
X948407Y667365D03*
D65*
X931770Y667365D03*
D249*
X927357Y667365D03*
D120*
X948280Y667429D03*
D275*
X931707Y667429D03*
D150*
X927293Y667429D03*
D51*
X948121Y667492D03*
D520*
X931675Y667492D03*
D30*
X927262Y667492D03*
D239*
X947994Y667556D03*
D271*
X931611Y667556D03*
D27*
X927198Y667556D03*
D226*
X947867Y667619D03*
D520*
X931548Y667619D03*
D25*
X927166Y667619D03*
D643*
X333502Y408697D02*
X333502Y399884D01*
X329096Y395478D01*
X324689Y399884D01*
X324689Y408697D01*
X320405Y406494D02*
X318202Y408697D01*
X313795Y408697D01*
X311592Y406494D01*
X311592Y404291D01*
X313795Y402088D01*
X315998Y402088D01*
X313795Y402088D02*
X311592Y399884D01*
X311592Y397681D01*
X313795Y395478D01*
X318202Y395478D01*
X320405Y397681D01*
X307308Y397681D02*
X307308Y395478D01*
X307308Y397681D02*
X305104Y397681D01*
X305104Y395478D01*
X307308Y395478D01*
X294149Y395478D02*
X294149Y408697D01*
X300759Y402088D01*
X291946Y402088D01*
X287662Y397681D02*
X287662Y395478D01*
X287662Y397681D02*
X285458Y397681D01*
X285458Y395478D01*
X287662Y395478D01*
X281113Y408697D02*
X272300Y408697D01*
X281113Y408697D02*
X281113Y402088D01*
X276707Y404291D01*
X274503Y404291D01*
X272300Y402088D01*
X272300Y397681D01*
X274503Y395478D01*
X278910Y395478D01*
X281113Y397681D01*
D644*
X21982Y348936D02*
X640246Y348936D01*
X642018Y310038D02*
X21214Y310038D01*
D645*
X610271Y397533D02*
X624677Y397533D01*
X631880Y404735D01*
X631880Y419141D01*
X624677Y426344D01*
X610271Y426344D01*
X603069Y419141D01*
X603069Y411938D01*
X631880Y411938D01*
X585104Y397533D02*
X585104Y426344D01*
X577901Y426344D01*
X570698Y419141D01*
X570698Y397533D01*
X570698Y419141D02*
X563495Y426344D01*
X556293Y419141D01*
X556293Y397533D01*
X531125Y397533D02*
X516720Y397533D01*
X509517Y404735D01*
X509517Y419141D01*
X516720Y426344D01*
X531125Y426344D01*
X538328Y419141D01*
X538328Y404735D01*
X531125Y397533D01*
X491552Y397533D02*
X491552Y426344D01*
X469944Y426344D01*
X462741Y419141D01*
X462741Y397533D01*
X430370Y397533D02*
X430370Y440750D01*
X415965Y440750D02*
X444776Y440750D01*
X398000Y426344D02*
X369189Y397533D01*
X398000Y397533D02*
X369189Y426344D01*
D10*
X637621Y370049D02*
X637621Y362549D01*
X635121Y360050D01*
X632621Y362549D01*
X630122Y360050D01*
X627622Y362549D01*
X627622Y370049D01*
X621249Y370049D02*
X618750Y370049D01*
X618750Y360050D01*
X621249Y360050D02*
X616250Y360050D01*
X618750Y375048D02*
X618750Y377548D01*
X610335Y370049D02*
X610335Y360050D01*
X610335Y365049D02*
X605335Y370049D01*
X602836Y370049D01*
X594192Y360050D02*
X589193Y360050D01*
X594192Y360050D02*
X596692Y362549D01*
X596692Y367549D01*
X594192Y370049D01*
X589193Y370049D01*
X586693Y367549D01*
X586693Y365049D01*
X596692Y365049D01*
X580320Y375048D02*
X577821Y375048D01*
X577821Y360050D01*
X580320Y360050D02*
X575321Y360050D01*
X566906Y360050D02*
X561907Y360050D01*
X566906Y360050D02*
X569406Y362549D01*
X569406Y367549D01*
X566906Y370049D01*
X561907Y370049D01*
X559407Y367549D01*
X559407Y365049D01*
X569406Y365049D01*
X553035Y360050D02*
X545535Y360050D01*
X543035Y362549D01*
X545535Y365049D01*
X550535Y365049D01*
X553035Y367549D01*
X550535Y370049D01*
X543035Y370049D01*
X536663Y360050D02*
X529164Y360050D01*
X526664Y362549D01*
X529164Y365049D01*
X534163Y365049D01*
X536663Y367549D01*
X534163Y370049D01*
X526664Y370049D01*
X501420Y360050D02*
X496420Y360050D01*
X501420Y360050D02*
X503920Y362549D01*
X503920Y367549D01*
X501420Y370049D01*
X496420Y370049D01*
X493921Y367549D01*
X493921Y365049D01*
X503920Y365049D01*
X487548Y360050D02*
X487548Y370049D01*
X480049Y370049D01*
X477549Y367549D01*
X477549Y360050D01*
X468677Y360050D02*
X463677Y360050D01*
X468677Y360050D02*
X471177Y362549D01*
X471177Y367549D01*
X468677Y370049D01*
X463677Y370049D01*
X461178Y367549D01*
X461178Y365049D01*
X471177Y365049D01*
X454805Y360050D02*
X454805Y370049D01*
X449806Y370049D02*
X454805Y365049D01*
X449806Y370049D02*
X447306Y370049D01*
X436163Y355050D02*
X433663Y355050D01*
X431163Y357550D01*
X431163Y370049D01*
X438662Y370049D01*
X441162Y367549D01*
X441162Y362549D01*
X438662Y360050D01*
X431163Y360050D01*
X424791Y362549D02*
X424791Y370049D01*
X424791Y362549D02*
X422291Y360050D01*
X414791Y360050D01*
X414791Y357550D02*
X414791Y370049D01*
X414791Y357550D02*
X417291Y355050D01*
X419791Y355050D01*
X392047Y360050D02*
X392047Y370049D01*
X389548Y370049D01*
X387048Y367549D01*
X387048Y360050D01*
X387048Y367549D02*
X384548Y370049D01*
X382048Y367549D01*
X382048Y360050D01*
X373176Y360050D02*
X368177Y360050D01*
X365677Y362549D01*
X365677Y367549D01*
X368177Y370049D01*
X373176Y370049D01*
X375676Y367549D01*
X375676Y362549D01*
X373176Y360050D01*
X359304Y360050D02*
X359304Y370049D01*
X351805Y370049D01*
X349305Y367549D01*
X349305Y360050D01*
X342933Y370049D02*
X340433Y370049D01*
X340433Y360050D01*
X342933Y360050D02*
X337933Y360050D01*
X340433Y375048D02*
X340433Y377548D01*
X329519Y372549D02*
X329519Y362549D01*
X327019Y360050D01*
X327019Y370049D02*
X332018Y370049D01*
X318604Y360050D02*
X313605Y360050D01*
X311105Y362549D01*
X311105Y367549D01*
X313605Y370049D01*
X318604Y370049D01*
X321104Y367549D01*
X321104Y362549D01*
X318604Y360050D01*
X304732Y360050D02*
X304732Y370049D01*
X299733Y370049D02*
X304732Y365049D01*
X299733Y370049D02*
X297233Y370049D01*
X291090Y370049D02*
X288590Y370049D01*
X288590Y360050D01*
X291090Y360050D02*
X286090Y360050D01*
X288590Y375048D02*
X288590Y377548D01*
X280175Y370049D02*
X280175Y360050D01*
X280175Y370049D02*
X272676Y370049D01*
X270176Y367549D01*
X270176Y360050D01*
X258804Y355050D02*
X256304Y355050D01*
X253804Y357550D01*
X253804Y370049D01*
X261304Y370049D01*
X263804Y367549D01*
X263804Y362549D01*
X261304Y360050D01*
X253804Y360050D01*
X231060Y360050D02*
X231060Y370049D01*
X223561Y370049D01*
X221061Y367549D01*
X221061Y360050D01*
X212189Y360050D02*
X207189Y360050D01*
X204690Y362549D01*
X204690Y367549D01*
X207189Y370049D01*
X212189Y370049D01*
X214689Y367549D01*
X214689Y362549D01*
X212189Y360050D01*
X188318Y360050D02*
X188318Y375048D01*
X188318Y360050D02*
X195818Y360050D01*
X198317Y362549D01*
X198317Y367549D01*
X195818Y370049D01*
X188318Y370049D01*
X179446Y360050D02*
X174446Y360050D01*
X179446Y360050D02*
X181946Y362549D01*
X181946Y367549D01*
X179446Y370049D01*
X174446Y370049D01*
X171947Y367549D01*
X171947Y365049D01*
X181946Y365049D01*
D646*
X634490Y337423D02*
X634490Y325475D01*
X638473Y337423D02*
X630507Y337423D01*
X623618Y325475D02*
X619635Y325475D01*
X623618Y325475D02*
X625610Y327466D01*
X625610Y331449D01*
X623618Y333440D01*
X619635Y333440D01*
X617644Y331449D01*
X617644Y329457D01*
X625610Y329457D01*
X610755Y333440D02*
X604781Y333440D01*
X610755Y333440D02*
X612746Y331449D01*
X612746Y327466D01*
X610755Y325475D01*
X604781Y325475D01*
X599883Y325475D02*
X599883Y337423D01*
X597891Y333440D02*
X599883Y331449D01*
X597891Y333440D02*
X593909Y333440D01*
X591917Y331449D01*
X591917Y325475D01*
X587019Y325475D02*
X587019Y333440D01*
X581045Y333440D01*
X579054Y331449D01*
X579054Y325475D01*
X572165Y325475D02*
X568182Y325475D01*
X566191Y327466D01*
X566191Y331449D01*
X568182Y333440D01*
X572165Y333440D01*
X574156Y331449D01*
X574156Y327466D01*
X572165Y325475D01*
X561293Y337423D02*
X559301Y337423D01*
X559301Y325475D01*
X557310Y325475D02*
X561293Y325475D01*
X550726Y325475D02*
X546743Y325475D01*
X544752Y327466D01*
X544752Y331449D01*
X546743Y333440D01*
X550726Y333440D01*
X552717Y331449D01*
X552717Y327466D01*
X550726Y325475D01*
X535871Y321492D02*
X533880Y321492D01*
X531888Y323483D01*
X531888Y333440D01*
X537862Y333440D01*
X539854Y331449D01*
X539854Y327466D01*
X537862Y325475D01*
X531888Y325475D01*
X526990Y327466D02*
X526990Y333440D01*
X526990Y327466D02*
X524999Y325475D01*
X519025Y325475D01*
X519025Y323483D02*
X519025Y333440D01*
X519025Y323483D02*
X521016Y321492D01*
X523008Y321492D01*
X499272Y327466D02*
X499272Y335431D01*
X499272Y327466D02*
X497281Y325475D01*
X497281Y333440D02*
X501264Y333440D01*
X492688Y337423D02*
X492688Y325475D01*
X492688Y331449D02*
X490697Y333440D01*
X486714Y333440D01*
X484723Y331449D01*
X484723Y325475D01*
X477833Y333440D02*
X473851Y333440D01*
X471859Y331449D01*
X471859Y325475D01*
X477833Y325475D01*
X479825Y327466D01*
X477833Y329457D01*
X471859Y329457D01*
X464970Y327466D02*
X464970Y335431D01*
X464970Y327466D02*
X462979Y325475D01*
X462979Y333440D02*
X466961Y333440D01*
X445522Y337423D02*
X445522Y325475D01*
X445522Y331449D02*
X443531Y333440D01*
X439548Y333440D01*
X437557Y331449D01*
X437557Y325475D01*
X430668Y325475D02*
X426685Y325475D01*
X430668Y325475D02*
X432659Y327466D01*
X432659Y331449D01*
X430668Y333440D01*
X426685Y333440D01*
X424693Y331449D01*
X424693Y329457D01*
X432659Y329457D01*
X419796Y337423D02*
X417804Y337423D01*
X417804Y325475D01*
X415813Y325475D02*
X419796Y325475D01*
X411220Y321492D02*
X411220Y333440D01*
X405246Y333440D01*
X403254Y331449D01*
X403254Y327466D01*
X405246Y325475D01*
X411220Y325475D01*
X398357Y325475D02*
X392382Y325475D01*
X390391Y327466D01*
X392382Y329457D01*
X396365Y329457D01*
X398357Y331449D01*
X396365Y333440D01*
X390391Y333440D01*
X372630Y333440D02*
X372630Y327466D01*
X370638Y325475D01*
X364664Y325475D01*
X364664Y333440D01*
X359766Y325475D02*
X353792Y325475D01*
X351801Y327466D01*
X353792Y329457D01*
X357775Y329457D01*
X359766Y331449D01*
X357775Y333440D01*
X351801Y333440D01*
X334040Y337423D02*
X332048Y337423D01*
X332048Y325475D01*
X330057Y325475D02*
X334040Y325475D01*
X325464Y333440D02*
X323473Y333440D01*
X323473Y325475D01*
X325464Y325475D02*
X321481Y325475D01*
X323473Y337423D02*
X323473Y339414D01*
X316888Y333440D02*
X312906Y325475D01*
X308923Y333440D01*
X302034Y325475D02*
X298051Y325475D01*
X302034Y325475D02*
X304025Y327466D01*
X304025Y331449D01*
X302034Y333440D01*
X298051Y333440D01*
X296060Y331449D01*
X296060Y329457D01*
X304025Y329457D01*
X278298Y327466D02*
X278298Y333440D01*
X278298Y327466D02*
X276307Y325475D01*
X274316Y327466D01*
X272324Y325475D01*
X270333Y327466D01*
X270333Y333440D01*
X265435Y333440D02*
X263444Y333440D01*
X263444Y325475D01*
X265435Y325475D02*
X261452Y325475D01*
X263444Y337423D02*
X263444Y339414D01*
X254868Y335431D02*
X254868Y327466D01*
X252877Y325475D01*
X252877Y333440D02*
X256859Y333440D01*
X248284Y337423D02*
X248284Y325475D01*
X248284Y331449D02*
X246292Y333440D01*
X242310Y333440D01*
X240318Y331449D01*
X240318Y325475D01*
X235420Y333440D02*
X233429Y333440D01*
X233429Y325475D01*
X235420Y325475D02*
X231438Y325475D01*
X233429Y337423D02*
X233429Y339414D01*
X226845Y333440D02*
X226845Y325475D01*
X226845Y333440D02*
X220871Y333440D01*
X218879Y331449D01*
X218879Y325475D01*
X199127Y325475D02*
X195144Y325475D01*
X199127Y325475D02*
X201118Y327466D01*
X201118Y331449D01*
X199127Y333440D01*
X195144Y333440D01*
X193153Y331449D01*
X193153Y329457D01*
X201118Y329457D01*
X186263Y333440D02*
X180289Y333440D01*
X186263Y333440D02*
X188255Y331449D01*
X188255Y327466D01*
X186263Y325475D01*
X180289Y325475D01*
X173400Y325475D02*
X169417Y325475D01*
X167426Y327466D01*
X167426Y331449D01*
X169417Y333440D01*
X173400Y333440D01*
X175391Y331449D01*
X175391Y327466D01*
X173400Y325475D01*
X162528Y337423D02*
X160537Y337423D01*
X160537Y325475D01*
X162528Y325475D02*
X158545Y325475D01*
X151961Y325475D02*
X147978Y325475D01*
X145987Y327466D01*
X145987Y331449D01*
X147978Y333440D01*
X151961Y333440D01*
X153952Y331449D01*
X153952Y327466D01*
X151961Y325475D01*
X137106Y321492D02*
X135115Y321492D01*
X133124Y323483D01*
X133124Y333440D01*
X139098Y333440D01*
X141089Y331449D01*
X141089Y327466D01*
X139098Y325475D01*
X133124Y325475D01*
X128226Y333440D02*
X126234Y333440D01*
X126234Y325475D01*
X124243Y325475D02*
X128226Y325475D01*
X126234Y337423D02*
X126234Y339414D01*
X117659Y333440D02*
X111685Y333440D01*
X117659Y333440D02*
X119650Y331449D01*
X119650Y327466D01*
X117659Y325475D01*
X111685Y325475D01*
X104795Y333440D02*
X100813Y333440D01*
X98821Y331449D01*
X98821Y325475D01*
X104795Y325475D01*
X106787Y327466D01*
X104795Y329457D01*
X98821Y329457D01*
X93923Y337423D02*
X91932Y337423D01*
X91932Y325475D01*
X93923Y325475D02*
X89941Y325475D01*
X72484Y337423D02*
X70493Y337423D01*
X70493Y325475D01*
X72484Y325475D02*
X68502Y325475D01*
X63909Y333440D02*
X61917Y333440D01*
X61917Y325475D01*
X59926Y325475D02*
X63909Y325475D01*
X61917Y337423D02*
X61917Y339414D01*
X55333Y333440D02*
X55333Y325475D01*
X55333Y333440D02*
X53342Y333440D01*
X51350Y331449D01*
X51350Y325475D01*
X51350Y331449D02*
X49359Y333440D01*
X47368Y331449D01*
X47368Y325475D01*
X42470Y333440D02*
X40478Y333440D01*
X40478Y325475D01*
X38487Y325475D02*
X42470Y325475D01*
X40478Y337423D02*
X40478Y339414D01*
X31903Y335431D02*
X31903Y327466D01*
X29911Y325475D01*
X29911Y333440D02*
X33894Y333440D01*
X25319Y325475D02*
X19344Y325475D01*
X17353Y327466D01*
X19344Y329457D01*
X23327Y329457D01*
X25319Y331449D01*
X23327Y333440D01*
X17353Y333440D01*
X638742Y294260D02*
X638742Y283583D01*
X633403Y283583D01*
X631624Y285362D01*
X631624Y292480D01*
X633403Y294260D01*
X638742Y294260D01*
X625268Y283583D02*
X621709Y283583D01*
X625268Y283583D02*
X627048Y285362D01*
X627048Y288921D01*
X625268Y290701D01*
X621709Y290701D01*
X619930Y288921D01*
X619930Y287142D01*
X627048Y287142D01*
X615354Y283583D02*
X610015Y283583D01*
X608236Y285362D01*
X610015Y287142D01*
X613574Y287142D01*
X615354Y288921D01*
X613574Y290701D01*
X608236Y290701D01*
X603660Y290701D02*
X601881Y290701D01*
X601881Y283583D01*
X603660Y283583D02*
X600101Y283583D01*
X601881Y294260D02*
X601881Y296039D01*
X592305Y280024D02*
X590525Y280024D01*
X588746Y281803D01*
X588746Y290701D01*
X594085Y290701D01*
X595864Y288921D01*
X595864Y285362D01*
X594085Y283583D01*
X588746Y283583D01*
X584170Y283583D02*
X584170Y290701D01*
X578832Y290701D01*
X577052Y288921D01*
X577052Y283583D01*
X570697Y283583D02*
X567138Y283583D01*
X570697Y283583D02*
X572476Y285362D01*
X572476Y288921D01*
X570697Y290701D01*
X567138Y290701D01*
X565358Y288921D01*
X565358Y287142D01*
X572476Y287142D01*
X553664Y283583D02*
X553664Y294260D01*
X553664Y283583D02*
X559003Y283583D01*
X560782Y285362D01*
X560782Y288921D01*
X559003Y290701D01*
X553664Y290701D01*
X537394Y290701D02*
X535615Y290701D01*
X535615Y283583D01*
X537394Y283583D02*
X533835Y283583D01*
X535615Y294260D02*
X535615Y296039D01*
X529598Y290701D02*
X529598Y283583D01*
X529598Y290701D02*
X524260Y290701D01*
X522480Y288921D01*
X522480Y283583D01*
X506210Y283583D02*
X506210Y294260D01*
X499092Y283583D01*
X499092Y294260D01*
X492737Y283583D02*
X489178Y283583D01*
X487398Y285362D01*
X487398Y288921D01*
X489178Y290701D01*
X492737Y290701D01*
X494516Y288921D01*
X494516Y285362D01*
X492737Y283583D01*
X482822Y283583D02*
X482822Y290701D01*
X482822Y287142D02*
X479263Y290701D01*
X477484Y290701D01*
X471298Y292480D02*
X471298Y285362D01*
X469518Y283583D01*
X469518Y290701D02*
X473077Y290701D01*
X465281Y294260D02*
X465281Y283583D01*
X465281Y288921D02*
X463502Y290701D01*
X459943Y290701D01*
X458163Y288921D01*
X458163Y283583D01*
X441893Y283583D02*
X441893Y294260D01*
X438334Y287142D02*
X441893Y283583D01*
X438334Y287142D02*
X434775Y283583D01*
X434775Y294260D01*
X428420Y290701D02*
X424861Y290701D01*
X423081Y288921D01*
X423081Y283583D01*
X428420Y283583D01*
X430200Y285362D01*
X428420Y287142D01*
X423081Y287142D01*
X418506Y294260D02*
X416726Y294260D01*
X416726Y283583D01*
X414947Y283583D02*
X418506Y283583D01*
X408930Y283583D02*
X405371Y283583D01*
X408930Y283583D02*
X410710Y285362D01*
X410710Y288921D01*
X408930Y290701D01*
X405371Y290701D01*
X403592Y288921D01*
X403592Y287142D01*
X410710Y287142D01*
X399016Y283583D02*
X393677Y283583D01*
X391898Y285362D01*
X393677Y287142D01*
X397236Y287142D01*
X399016Y288921D01*
X397236Y290701D01*
X391898Y290701D01*
X375628Y294260D02*
X375628Y285362D01*
X373848Y283583D01*
X370289Y283583D01*
X368510Y285362D01*
X368510Y294260D01*
X363934Y294260D02*
X363934Y283583D01*
X363934Y287142D02*
X356816Y294260D01*
X362154Y288921D02*
X356816Y283583D01*
X340546Y283583D02*
X340546Y294260D01*
X340546Y283583D02*
X335207Y283583D01*
X333428Y285362D01*
X333428Y288921D01*
X335207Y290701D01*
X340546Y290701D01*
X328852Y290701D02*
X328852Y285362D01*
X327072Y283583D01*
X321734Y283583D01*
X321734Y281803D02*
X321734Y290701D01*
X321734Y281803D02*
X323513Y280024D01*
X325293Y280024D01*
X300125Y294260D02*
X298346Y292480D01*
X300125Y294260D02*
X303684Y294260D01*
X305464Y292480D01*
X305464Y285362D01*
X303684Y283583D01*
X300125Y283583D01*
X298346Y285362D01*
X298346Y288921D01*
X301905Y288921D01*
X293770Y294260D02*
X291990Y294260D01*
X291990Y283583D01*
X290211Y283583D02*
X293770Y283583D01*
X285974Y285362D02*
X285974Y290701D01*
X285974Y285362D02*
X284194Y283583D01*
X278856Y283583D01*
X278856Y281803D02*
X278856Y290701D01*
X278856Y281803D02*
X280635Y280024D01*
X282415Y280024D01*
X274280Y283583D02*
X274280Y290701D01*
X268941Y290701D01*
X267162Y288921D01*
X267162Y283583D01*
X250892Y283583D02*
X250892Y294260D01*
X250892Y288921D02*
X243774Y288921D01*
X243774Y283583D02*
X243774Y294260D01*
X239198Y290701D02*
X239198Y285362D01*
X237419Y283583D01*
X232080Y283583D01*
X232080Y290701D01*
X220386Y294260D02*
X220386Y283583D01*
X225725Y283583D01*
X227504Y285362D01*
X227504Y288921D01*
X225725Y290701D01*
X220386Y290701D01*
X215810Y283583D02*
X210472Y283583D01*
X208692Y285362D01*
X210472Y287142D01*
X214031Y287142D01*
X215810Y288921D01*
X214031Y290701D01*
X208692Y290701D01*
X202337Y283583D02*
X198778Y283583D01*
X196998Y285362D01*
X196998Y288921D01*
X198778Y290701D01*
X202337Y290701D01*
X204116Y288921D01*
X204116Y285362D01*
X202337Y283583D01*
X192422Y283583D02*
X192422Y290701D01*
X187084Y290701D01*
X185304Y288921D01*
X185304Y283583D01*
X165475Y283583D02*
X161916Y287142D01*
X165475Y283583D02*
X167255Y283583D01*
X169034Y285362D01*
X169034Y287142D01*
X165475Y290701D01*
X165475Y292480D01*
X167255Y294260D01*
X169034Y292480D01*
X169034Y290701D01*
X161916Y283583D01*
X142087Y283583D02*
X142087Y294260D01*
X145646Y294260D02*
X138528Y294260D01*
X133952Y290701D02*
X133952Y283583D01*
X133952Y287142D02*
X130393Y290701D01*
X128614Y290701D01*
X124207Y290701D02*
X124207Y285362D01*
X122428Y283583D01*
X117089Y283583D01*
X117089Y281803D02*
X117089Y290701D01*
X117089Y281803D02*
X118869Y280024D01*
X120648Y280024D01*
X112513Y283583D02*
X107175Y283583D01*
X105395Y285362D01*
X107175Y287142D01*
X110734Y287142D01*
X112513Y288921D01*
X110734Y290701D01*
X105395Y290701D01*
X99040Y292480D02*
X99040Y285362D01*
X97260Y283583D01*
X97260Y290701D02*
X100819Y290701D01*
X91244Y290701D02*
X87685Y290701D01*
X85905Y288921D01*
X85905Y283583D01*
X91244Y283583D01*
X93023Y285362D01*
X91244Y287142D01*
X85905Y287142D01*
X81329Y283583D02*
X81329Y290701D01*
X75991Y290701D01*
X74211Y288921D01*
X74211Y283583D01*
X57942Y283583D02*
X57942Y294260D01*
X57942Y283583D02*
X50823Y283583D01*
X44468Y283583D02*
X40909Y283583D01*
X44468Y283583D02*
X46248Y285362D01*
X46248Y288921D01*
X44468Y290701D01*
X40909Y290701D01*
X39130Y288921D01*
X39130Y287142D01*
X46248Y287142D01*
X32774Y290701D02*
X29215Y290701D01*
X27436Y288921D01*
X27436Y283583D01*
X32774Y283583D01*
X34554Y285362D01*
X32774Y287142D01*
X27436Y287142D01*
D15*
X623428Y24645D02*
X623428Y16002D01*
X617666Y16002D01*
X612632Y16002D02*
X609751Y16002D01*
X612632Y16002D02*
X614073Y17443D01*
X614073Y20324D01*
X612632Y21764D01*
X609751Y21764D01*
X608311Y20324D01*
X608311Y18883D01*
X614073Y18883D01*
X603277Y21764D02*
X600396Y21764D01*
X598955Y20324D01*
X598955Y16002D01*
X603277Y16002D01*
X604718Y17443D01*
X603277Y18883D01*
X598955Y18883D01*
X589600Y16002D02*
X589600Y24645D01*
X589600Y16002D02*
X593922Y16002D01*
X595362Y17443D01*
X595362Y20324D01*
X593922Y21764D01*
X589600Y21764D01*
X575212Y23205D02*
X575212Y16002D01*
X575212Y23205D02*
X573771Y24645D01*
X573771Y20324D02*
X576652Y20324D01*
X570415Y21764D02*
X570415Y16002D01*
X570415Y18883D02*
X567534Y21764D01*
X566094Y21764D01*
X561179Y16002D02*
X558298Y16002D01*
X561179Y16002D02*
X562619Y17443D01*
X562619Y20324D01*
X561179Y21764D01*
X558298Y21764D01*
X556857Y20324D01*
X556857Y18883D01*
X562619Y18883D01*
X551824Y16002D02*
X548942Y16002D01*
X551824Y16002D02*
X553264Y17443D01*
X553264Y20324D01*
X551824Y21764D01*
X548942Y21764D01*
X547502Y20324D01*
X547502Y18883D01*
X553264Y18883D01*
X534554Y16002D02*
X534554Y24645D01*
X530232Y24645D01*
X528792Y23205D01*
X528792Y20324D01*
X530232Y18883D01*
X534554Y18883D01*
X520877Y24645D02*
X519436Y23205D01*
X520877Y24645D02*
X523758Y24645D01*
X525199Y23205D01*
X525199Y17443D01*
X523758Y16002D01*
X520877Y16002D01*
X519436Y17443D01*
X515843Y16002D02*
X515843Y24645D01*
X511522Y24645D01*
X510081Y23205D01*
X510081Y21764D01*
X511522Y20324D01*
X510081Y18883D01*
X510081Y17443D01*
X511522Y16002D01*
X515843Y16002D01*
X515843Y20324D02*
X511522Y20324D01*
X497133Y20324D02*
X491371Y20324D01*
X478423Y24645D02*
X478423Y16002D01*
X478423Y24645D02*
X474101Y24645D01*
X472660Y23205D01*
X472660Y20324D01*
X474101Y18883D01*
X478423Y18883D01*
X475542Y18883D02*
X472660Y16002D01*
X467627Y16002D02*
X464746Y16002D01*
X463305Y17443D01*
X463305Y20324D01*
X464746Y21764D01*
X467627Y21764D01*
X469067Y20324D01*
X469067Y17443D01*
X467627Y16002D01*
X459712Y16002D02*
X459712Y24645D01*
X459712Y20324D02*
X453950Y20324D01*
X453950Y24645D02*
X453950Y16002D01*
X446035Y24645D02*
X444595Y23205D01*
X446035Y24645D02*
X448917Y24645D01*
X450357Y23205D01*
X450357Y21764D01*
X448917Y20324D01*
X446035Y20324D01*
X444595Y18883D01*
X444595Y17443D01*
X446035Y16002D01*
X448917Y16002D01*
X450357Y17443D01*
X430206Y21764D02*
X425884Y21764D01*
X430206Y21764D02*
X431647Y20324D01*
X431647Y17443D01*
X430206Y16002D01*
X425884Y16002D01*
X420851Y16002D02*
X417970Y16002D01*
X416529Y17443D01*
X416529Y20324D01*
X417970Y21764D01*
X420851Y21764D01*
X422292Y20324D01*
X422292Y17443D01*
X420851Y16002D01*
X412936Y16002D02*
X412936Y21764D01*
X411496Y21764D01*
X410055Y20324D01*
X410055Y16002D01*
X410055Y20324D02*
X408615Y21764D01*
X407174Y20324D01*
X407174Y16002D01*
X403581Y13121D02*
X403581Y21764D01*
X399259Y21764D01*
X397819Y20324D01*
X397819Y17443D01*
X399259Y16002D01*
X403581Y16002D01*
X392785Y16002D02*
X389904Y16002D01*
X388464Y17443D01*
X388464Y20324D01*
X389904Y21764D01*
X392785Y21764D01*
X394226Y20324D01*
X394226Y17443D01*
X392785Y16002D01*
X384871Y16002D02*
X384871Y21764D01*
X380549Y21764D01*
X379109Y20324D01*
X379109Y16002D01*
X374075Y16002D02*
X371194Y16002D01*
X374075Y16002D02*
X375516Y17443D01*
X375516Y20324D01*
X374075Y21764D01*
X371194Y21764D01*
X369753Y20324D01*
X369753Y18883D01*
X375516Y18883D01*
X366160Y16002D02*
X366160Y21764D01*
X361839Y21764D01*
X360398Y20324D01*
X360398Y16002D01*
X355365Y17443D02*
X355365Y23205D01*
X355365Y17443D02*
X353924Y16002D01*
X353924Y21764D02*
X356805Y21764D01*
X350568Y16002D02*
X346247Y16002D01*
X344806Y17443D01*
X346247Y18883D01*
X349128Y18883D01*
X350568Y20324D01*
X349128Y21764D01*
X344806Y21764D01*
X117355Y102378D02*
X117355Y108140D01*
X117355Y102378D02*
X113034Y102378D01*
X114474Y105259D01*
X114474Y106700D01*
X113034Y108140D01*
X110153Y108140D01*
X108712Y106700D01*
X108712Y103819D01*
X110153Y102378D01*
X111593Y111733D02*
X117355Y111733D01*
X111593Y111733D02*
X108712Y114614D01*
X111593Y117495D01*
X117355Y117495D01*
X151475Y102378D02*
X152915Y103819D01*
X152915Y106700D01*
X151475Y108140D01*
X150034Y108140D01*
X148594Y106700D01*
X148594Y105259D01*
X148594Y106700D02*
X147153Y108140D01*
X145713Y108140D01*
X144272Y106700D01*
X144272Y103819D01*
X145713Y102378D01*
X145713Y111733D02*
X144272Y111733D01*
X145713Y111733D02*
X145713Y113174D01*
X144272Y113174D01*
X144272Y111733D01*
X151475Y116411D02*
X152915Y117851D01*
X152915Y120732D01*
X151475Y122173D01*
X150034Y122173D01*
X148594Y120732D01*
X148594Y119292D01*
X148594Y120732D02*
X147153Y122173D01*
X145713Y122173D01*
X144272Y120732D01*
X144272Y117851D01*
X145713Y116411D01*
X147153Y125766D02*
X152915Y125766D01*
X147153Y125766D02*
X144272Y128647D01*
X147153Y131528D01*
X152915Y131528D01*
X185765Y108140D02*
X187205Y106700D01*
X187205Y103819D01*
X185765Y102378D01*
X180003Y102378D01*
X178562Y103819D01*
X178562Y106700D01*
X180003Y108140D01*
X182884Y108140D01*
X182884Y105259D01*
X187205Y111733D02*
X178562Y111733D01*
X178562Y117495D02*
X187205Y111733D01*
X187205Y117495D02*
X178562Y117495D01*
X178562Y121088D02*
X187205Y121088D01*
X178562Y121088D02*
X178562Y125410D01*
X180003Y126851D01*
X185765Y126851D01*
X187205Y125410D01*
X187205Y121088D01*
X220472Y102378D02*
X229115Y102378D01*
X220472Y102378D02*
X220472Y106700D01*
X221913Y108140D01*
X227675Y108140D01*
X229115Y106700D01*
X229115Y102378D01*
X226234Y111733D02*
X226234Y113174D01*
X220472Y113174D01*
X220472Y114614D02*
X220472Y111733D01*
X229115Y113174D02*
X230556Y113174D01*
X217591Y120851D02*
X217591Y122292D01*
X219031Y123732D01*
X226234Y123732D01*
X226234Y119411D01*
X224794Y117970D01*
X221913Y117970D01*
X220472Y119411D01*
X220472Y123732D01*
X227675Y127325D02*
X229115Y128766D01*
X229115Y131647D01*
X227675Y133087D01*
X226234Y133087D01*
X224794Y131647D01*
X224794Y130206D01*
X224794Y131647D02*
X223353Y133087D01*
X221913Y133087D01*
X220472Y131647D01*
X220472Y128766D01*
X221913Y127325D01*
X205232Y105259D02*
X205232Y102378D01*
X205232Y103819D02*
X213875Y103819D01*
X213875Y105259D02*
X213875Y102378D01*
X213875Y108615D02*
X205232Y108615D01*
X213875Y108615D02*
X213875Y112936D01*
X212435Y114377D01*
X209554Y114377D01*
X208113Y112936D01*
X208113Y108615D01*
X208113Y111496D02*
X205232Y114377D01*
X206673Y117970D02*
X212435Y117970D01*
X213875Y119411D01*
X213875Y122292D01*
X212435Y123732D01*
X206673Y123732D01*
X205232Y122292D01*
X205232Y119411D01*
X206673Y117970D01*
X208113Y120851D02*
X205232Y123732D01*
X210994Y127325D02*
X213875Y130206D01*
X205232Y130206D01*
X205232Y127325D02*
X205232Y133087D01*
X256032Y102378D02*
X261794Y102378D01*
X264675Y105259D01*
X261794Y108140D01*
X256032Y108140D01*
X260354Y108140D02*
X260354Y102378D01*
X264675Y111733D02*
X256032Y111733D01*
X256032Y116055D01*
X257473Y117495D01*
X263235Y117495D01*
X264675Y116055D01*
X264675Y111733D01*
X264675Y125410D02*
X263235Y126851D01*
X264675Y125410D02*
X264675Y122529D01*
X263235Y121088D01*
X257473Y121088D01*
X256032Y122529D01*
X256032Y125410D01*
X257473Y126851D01*
X264675Y130444D02*
X264675Y136206D01*
X264675Y130444D02*
X260354Y130444D01*
X261794Y133325D01*
X261794Y134765D01*
X260354Y136206D01*
X257473Y136206D01*
X256032Y134765D01*
X256032Y131884D01*
X257473Y130444D01*
X256032Y139799D02*
X264675Y145561D01*
X264675Y149154D02*
X256032Y149154D01*
X256032Y153476D01*
X257473Y154916D01*
X263235Y154916D01*
X264675Y153476D01*
X264675Y149154D01*
X261794Y158509D02*
X261794Y159950D01*
X256032Y159950D01*
X256032Y161390D02*
X256032Y158509D01*
X264675Y159950D02*
X266116Y159950D01*
X253151Y167627D02*
X253151Y169068D01*
X254591Y170508D01*
X261794Y170508D01*
X261794Y166186D01*
X260354Y164746D01*
X257473Y164746D01*
X256032Y166186D01*
X256032Y170508D01*
X261794Y174101D02*
X264675Y176982D01*
X256032Y176982D01*
X256032Y174101D02*
X256032Y179863D01*
X257473Y183456D02*
X256032Y184897D01*
X256032Y187778D01*
X257473Y189219D01*
X263235Y189219D01*
X264675Y187778D01*
X264675Y184897D01*
X263235Y183456D01*
X261794Y183456D01*
X260354Y184897D01*
X260354Y189219D01*
X249435Y102378D02*
X240792Y102378D01*
X240792Y106700D01*
X242233Y108140D01*
X247995Y108140D01*
X249435Y106700D01*
X249435Y102378D01*
X249435Y116055D02*
X247995Y117495D01*
X249435Y116055D02*
X249435Y113174D01*
X247995Y111733D01*
X246554Y111733D01*
X245114Y113174D01*
X245114Y116055D01*
X243673Y117495D01*
X242233Y117495D01*
X240792Y116055D01*
X240792Y113174D01*
X242233Y111733D01*
X246554Y121088D02*
X249435Y123970D01*
X240792Y123970D01*
X240792Y126851D02*
X240792Y121088D01*
X247995Y130444D02*
X249435Y131884D01*
X249435Y134765D01*
X247995Y136206D01*
X246554Y136206D01*
X245114Y134765D01*
X243673Y136206D01*
X242233Y136206D01*
X240792Y134765D01*
X240792Y131884D01*
X242233Y130444D01*
X243673Y130444D01*
X245114Y131884D01*
X246554Y130444D01*
X247995Y130444D01*
X245114Y131884D02*
X245114Y134765D01*
X240792Y139799D02*
X249435Y139799D01*
X249435Y144120D01*
X247995Y145561D01*
X246554Y145561D01*
X245114Y144120D01*
X243673Y145561D01*
X242233Y145561D01*
X240792Y144120D01*
X240792Y139799D01*
X245114Y139799D02*
X245114Y144120D01*
X240792Y149154D02*
X240792Y154916D01*
X240792Y149154D02*
X246554Y154916D01*
X247995Y154916D01*
X249435Y153476D01*
X249435Y150595D01*
X247995Y149154D01*
X247995Y158509D02*
X242233Y158509D01*
X247995Y158509D02*
X249435Y159950D01*
X249435Y162831D01*
X247995Y164271D01*
X242233Y164271D01*
X240792Y162831D01*
X240792Y159950D01*
X242233Y158509D01*
X247995Y164271D01*
X249435Y177220D02*
X240792Y177220D01*
X249435Y177220D02*
X249435Y181541D01*
X247995Y182982D01*
X245114Y182982D01*
X243673Y181541D01*
X243673Y177220D01*
X240792Y186575D02*
X249435Y186575D01*
X243673Y189456D02*
X240792Y186575D01*
X243673Y189456D02*
X240792Y192337D01*
X249435Y192337D01*
X249435Y195930D02*
X240792Y195930D01*
X249435Y195930D02*
X249435Y200252D01*
X247995Y201692D01*
X245114Y201692D01*
X243673Y200252D01*
X243673Y195930D01*
X243673Y198811D02*
X240792Y201692D01*
X292862Y102378D02*
X301505Y102378D01*
X292862Y102378D02*
X292862Y106700D01*
X294303Y108140D01*
X300065Y108140D01*
X301505Y106700D01*
X301505Y102378D01*
X298624Y111733D02*
X298624Y113174D01*
X292862Y113174D01*
X292862Y114614D02*
X292862Y111733D01*
X301505Y113174D02*
X302946Y113174D01*
X289981Y120851D02*
X289981Y122292D01*
X291421Y123732D01*
X298624Y123732D01*
X298624Y119411D01*
X297184Y117970D01*
X294303Y117970D01*
X292862Y119411D01*
X292862Y123732D01*
X301505Y136680D02*
X301505Y142443D01*
X301505Y136680D02*
X297184Y136680D01*
X298624Y139561D01*
X298624Y141002D01*
X297184Y142443D01*
X294303Y142443D01*
X292862Y141002D01*
X292862Y138121D01*
X294303Y136680D01*
X292862Y155391D02*
X301505Y155391D01*
X301505Y159712D01*
X300065Y161153D01*
X297184Y161153D01*
X295743Y159712D01*
X295743Y155391D01*
X292862Y164746D02*
X301505Y164746D01*
X295743Y167627D02*
X292862Y164746D01*
X295743Y167627D02*
X292862Y170508D01*
X301505Y170508D01*
X301505Y174101D02*
X292862Y174101D01*
X298624Y176982D02*
X301505Y174101D01*
X298624Y176982D02*
X301505Y179863D01*
X292862Y179863D01*
X286265Y102378D02*
X277622Y102378D01*
X277622Y106700D01*
X279063Y108140D01*
X284825Y108140D01*
X286265Y106700D01*
X286265Y102378D01*
X286265Y116055D02*
X284825Y117495D01*
X286265Y116055D02*
X286265Y113174D01*
X284825Y111733D01*
X283384Y111733D01*
X281944Y113174D01*
X281944Y116055D01*
X280503Y117495D01*
X279063Y117495D01*
X277622Y116055D01*
X277622Y113174D01*
X279063Y111733D01*
X283384Y121088D02*
X286265Y123970D01*
X277622Y123970D01*
X277622Y126851D02*
X277622Y121088D01*
X284825Y130444D02*
X286265Y131884D01*
X286265Y134765D01*
X284825Y136206D01*
X283384Y136206D01*
X281944Y134765D01*
X280503Y136206D01*
X279063Y136206D01*
X277622Y134765D01*
X277622Y131884D01*
X279063Y130444D01*
X280503Y130444D01*
X281944Y131884D01*
X283384Y130444D01*
X284825Y130444D01*
X281944Y131884D02*
X281944Y134765D01*
X277622Y139799D02*
X286265Y139799D01*
X286265Y144120D01*
X284825Y145561D01*
X283384Y145561D01*
X281944Y144120D01*
X280503Y145561D01*
X279063Y145561D01*
X277622Y144120D01*
X277622Y139799D01*
X281944Y139799D02*
X281944Y144120D01*
X277622Y149154D02*
X277622Y154916D01*
X277622Y149154D02*
X283384Y154916D01*
X284825Y154916D01*
X286265Y153476D01*
X286265Y150595D01*
X284825Y149154D01*
X284825Y158509D02*
X279063Y158509D01*
X284825Y158509D02*
X286265Y159950D01*
X286265Y162831D01*
X284825Y164271D01*
X279063Y164271D01*
X277622Y162831D01*
X277622Y159950D01*
X279063Y158509D01*
X284825Y164271D01*
X286265Y186575D02*
X277622Y186575D01*
X277622Y190896D01*
X279063Y192337D01*
X284825Y192337D01*
X286265Y190896D01*
X286265Y186575D01*
X283384Y197370D02*
X283384Y200252D01*
X281944Y201692D01*
X277622Y201692D01*
X277622Y197370D01*
X279063Y195930D01*
X280503Y197370D01*
X280503Y201692D01*
X279063Y206726D02*
X284825Y206726D01*
X279063Y206726D02*
X277622Y208166D01*
X283384Y208166D02*
X283384Y205285D01*
X283384Y212962D02*
X283384Y215844D01*
X281944Y217284D01*
X277622Y217284D01*
X277622Y212962D01*
X279063Y211522D01*
X280503Y212962D01*
X280503Y217284D01*
D11*
X855216Y366903D02*
X857377Y369064D01*
X855216Y366903D02*
X850894Y366903D01*
X848734Y369064D01*
X848734Y377707D01*
X850894Y379868D01*
X855216Y379868D01*
X857377Y377707D01*
X857377Y375546D01*
X855216Y373386D01*
X848734Y373386D01*
X843344Y375546D02*
X839023Y379868D01*
X839023Y366903D01*
X843344Y366903D02*
X834701Y366903D01*
X829311Y379868D02*
X820668Y379868D01*
X829311Y379868D02*
X829311Y373386D01*
X824990Y375546D01*
X822829Y375546D01*
X820668Y373386D01*
X820668Y369064D01*
X822829Y366903D01*
X827151Y366903D01*
X829311Y369064D01*
X815279Y366903D02*
X815279Y379868D01*
X810957Y375546D01*
X806635Y379868D01*
X806635Y366903D01*
X801246Y366903D02*
X801246Y379868D01*
X799085Y375546D02*
X801246Y373386D01*
X799085Y375546D02*
X794763Y375546D01*
X792603Y373386D01*
X792603Y366903D01*
X787213Y375546D02*
X778570Y375546D01*
X787213Y366903D01*
X778570Y366903D01*
D12*
X765175Y375285D03*
D14*
X741045Y377832D02*
X735961Y377832D01*
X735961Y376560D01*
X741045Y371476D01*
X741045Y370205D01*
X732859Y376560D02*
X731588Y377832D01*
X729046Y377832D01*
X727775Y376560D01*
X727775Y375289D01*
X729046Y374018D01*
X727775Y372747D01*
X727775Y371476D01*
X729046Y370205D01*
X731588Y370205D01*
X732859Y371476D01*
X732859Y372747D01*
X731588Y374018D01*
X732859Y375289D01*
X732859Y376560D01*
X731588Y374018D02*
X729046Y374018D01*
X724673Y375289D02*
X724673Y370205D01*
X724673Y375289D02*
X723402Y375289D01*
X722131Y374018D01*
X722131Y370205D01*
X722131Y374018D02*
X720860Y375289D01*
X719589Y374018D01*
X719589Y370205D01*
X716488Y370205D02*
X716488Y375289D01*
X715217Y375289D01*
X713946Y374018D01*
X713946Y370205D01*
X713946Y374018D02*
X712674Y375289D01*
X711403Y374018D01*
X711403Y370205D01*
X698845Y375289D02*
X696303Y375289D01*
X695032Y374018D01*
X695032Y370205D01*
X698845Y370205D01*
X700116Y371476D01*
X698845Y372747D01*
X695032Y372747D01*
X691930Y370205D02*
X691930Y375289D01*
X688117Y375289D01*
X686846Y374018D01*
X686846Y370205D01*
X682473Y371476D02*
X682473Y376560D01*
X682473Y371476D02*
X681202Y370205D01*
X681202Y375289D02*
X683745Y375289D01*
D647*
X778510Y293370D03*
D646*
X857504Y336296D02*
X857504Y348244D01*
X849539Y336296D01*
X849539Y348244D01*
X842649Y336296D02*
X838667Y336296D01*
X836675Y338287D01*
X836675Y342270D01*
X838667Y344261D01*
X842649Y344261D01*
X844641Y342270D01*
X844641Y338287D01*
X842649Y336296D01*
X823812Y336296D02*
X823812Y348244D01*
X823812Y336296D02*
X829786Y336296D01*
X831777Y338287D01*
X831777Y342270D01*
X829786Y344261D01*
X823812Y344261D01*
X816923Y336296D02*
X812940Y336296D01*
X816923Y336296D02*
X818914Y338287D01*
X818914Y342270D01*
X816923Y344261D01*
X812940Y344261D01*
X810948Y342270D01*
X810948Y340279D01*
X818914Y340279D01*
X793187Y336296D02*
X789204Y336296D01*
X791196Y336296D02*
X791196Y348244D01*
X793187Y348244D02*
X789204Y348244D01*
X784612Y348244D02*
X784612Y336296D01*
X778637Y336296D01*
X776646Y338287D01*
X776646Y346253D01*
X778637Y348244D01*
X784612Y348244D01*
X771748Y344261D02*
X769757Y344261D01*
X769757Y342270D01*
X771748Y342270D01*
X771748Y344261D01*
X771748Y338287D02*
X769757Y338287D01*
X769757Y336296D01*
X771748Y336296D01*
X771748Y338287D01*
D643*
X120406Y14670D02*
X116508Y18568D01*
X116508Y6874D01*
X120406Y6874D02*
X112610Y6874D01*
X148170Y6874D02*
X155966Y6874D01*
X148170Y14670D01*
X148170Y16619D01*
X150119Y18568D01*
X154017Y18568D01*
X155966Y16619D01*
X187037Y18568D02*
X188986Y16619D01*
X187037Y18568D02*
X183139Y18568D01*
X181190Y16619D01*
X181190Y14670D01*
X183139Y12721D01*
X185088Y12721D01*
X183139Y12721D02*
X181190Y10772D01*
X181190Y8823D01*
X183139Y6874D01*
X187037Y6874D01*
X188986Y8823D01*
X218699Y6874D02*
X218699Y18568D01*
X224546Y12721D01*
X216750Y12721D01*
X249770Y18568D02*
X257566Y18568D01*
X257566Y12721D01*
X253668Y14670D01*
X251719Y14670D01*
X249770Y12721D01*
X249770Y8823D01*
X251719Y6874D01*
X255617Y6874D01*
X257566Y8823D01*
X285330Y18568D02*
X289228Y16619D01*
X293126Y12721D01*
X293126Y8823D01*
X291177Y6874D01*
X287279Y6874D01*
X285330Y8823D01*
X285330Y10772D01*
X287279Y12721D01*
X293126Y12721D01*
D15*
X94996Y208534D02*
X89916Y219964D01*
X97536Y210058D02*
X94996Y208534D01*
X97536Y210058D02*
X103632Y205740D01*
X108204Y210566D01*
X104140Y216662D01*
X106680Y223520D02*
X114300Y224790D01*
X114300Y231394D01*
X106680Y232918D01*
X103886Y239268D02*
X108458Y245872D01*
X103632Y250444D01*
X97028Y245872D01*
X90678Y248412D02*
X89408Y256540D01*
X82550Y256540D01*
X81280Y248412D01*
X74930Y245872D02*
X68326Y250444D01*
X63500Y245872D01*
X68072Y239268D01*
X65278Y232918D02*
X57658Y231394D01*
X57658Y224790D01*
X65278Y223520D01*
X67818Y216662D02*
X63500Y210566D01*
X68326Y205740D01*
X74422Y210058D01*
X76962Y208534D01*
X81788Y219964D01*
X81788Y220218D02*
X81584Y220320D01*
X81383Y220427D01*
X81185Y220539D01*
X80989Y220655D01*
X80796Y220777D01*
X80606Y220902D01*
X80420Y221033D01*
X80236Y221168D01*
X80056Y221308D01*
X79880Y221452D01*
X79707Y221600D01*
X79537Y221752D01*
X79372Y221909D01*
X79210Y222069D01*
X79052Y222233D01*
X78899Y222402D01*
X78749Y222574D01*
X78604Y222749D01*
X78463Y222928D01*
X78326Y223110D01*
X78194Y223296D01*
X78067Y223485D01*
X77944Y223677D01*
X77826Y223872D01*
X77713Y224069D01*
X77605Y224270D01*
X77501Y224473D01*
X77403Y224678D01*
X77309Y224886D01*
X77221Y225096D01*
X77138Y225308D01*
X77060Y225522D01*
X76988Y225738D01*
X76920Y225956D01*
X76858Y226175D01*
X76802Y226395D01*
X76750Y226617D01*
X76705Y226841D01*
X76664Y227065D01*
X76630Y227290D01*
X76600Y227516D01*
X76577Y227742D01*
X76558Y227969D01*
X76546Y228197D01*
X76539Y228425D01*
X76537Y228652D01*
X76541Y228880D01*
X76551Y229108D01*
X76566Y229335D01*
X76587Y229562D01*
X76613Y229788D01*
X76645Y230014D01*
X76682Y230238D01*
X76725Y230462D01*
X76773Y230685D01*
X76827Y230906D01*
X76886Y231126D01*
X76951Y231345D01*
X77020Y231562D01*
X77095Y231777D01*
X77176Y231990D01*
X77261Y232201D01*
X77352Y232410D01*
X77448Y232617D01*
X77548Y232821D01*
X77654Y233023D01*
X77765Y233222D01*
X77880Y233418D01*
X78000Y233612D01*
X78125Y233802D01*
X78255Y233990D01*
X78389Y234174D01*
X78527Y234355D01*
X78670Y234532D01*
X78817Y234706D01*
X78969Y234876D01*
X79124Y235043D01*
X79284Y235205D01*
X79447Y235364D01*
X79615Y235518D01*
X79786Y235669D01*
X79960Y235815D01*
X80139Y235957D01*
X80320Y236095D01*
X80505Y236228D01*
X80693Y236356D01*
X80884Y236480D01*
X81079Y236599D01*
X81276Y236713D01*
X81475Y236823D01*
X81678Y236927D01*
X81883Y237027D01*
X82090Y237121D01*
X82299Y237211D01*
X82511Y237295D01*
X82725Y237374D01*
X82940Y237448D01*
X83157Y237517D01*
X83376Y237580D01*
X83597Y237638D01*
X83818Y237690D01*
X84041Y237737D01*
X84265Y237779D01*
X84490Y237815D01*
X84716Y237845D01*
X84942Y237870D01*
X85169Y237890D01*
X85397Y237904D01*
X85624Y237912D01*
X85852Y237915D01*
X86080Y237912D01*
X86307Y237904D01*
X86535Y237890D01*
X86762Y237870D01*
X86988Y237845D01*
X87214Y237815D01*
X87439Y237779D01*
X87663Y237737D01*
X87886Y237690D01*
X88107Y237638D01*
X88328Y237580D01*
X88547Y237517D01*
X88764Y237448D01*
X88979Y237374D01*
X89193Y237295D01*
X89405Y237211D01*
X89614Y237121D01*
X89821Y237027D01*
X90026Y236927D01*
X90229Y236823D01*
X90428Y236713D01*
X90625Y236599D01*
X90820Y236480D01*
X91011Y236356D01*
X91199Y236228D01*
X91384Y236095D01*
X91565Y235957D01*
X91744Y235815D01*
X91918Y235669D01*
X92089Y235518D01*
X92257Y235364D01*
X92420Y235205D01*
X92580Y235043D01*
X92735Y234876D01*
X92887Y234706D01*
X93034Y234532D01*
X93177Y234355D01*
X93315Y234174D01*
X93449Y233990D01*
X93579Y233802D01*
X93704Y233612D01*
X93824Y233418D01*
X93939Y233222D01*
X94050Y233023D01*
X94156Y232821D01*
X94256Y232617D01*
X94352Y232410D01*
X94443Y232201D01*
X94528Y231990D01*
X94609Y231777D01*
X94684Y231562D01*
X94753Y231345D01*
X94818Y231126D01*
X94877Y230906D01*
X94931Y230685D01*
X94979Y230462D01*
X95022Y230238D01*
X95059Y230014D01*
X95091Y229788D01*
X95117Y229562D01*
X95138Y229335D01*
X95153Y229108D01*
X95163Y228880D01*
X95167Y228652D01*
X95165Y228425D01*
X95158Y228197D01*
X95146Y227969D01*
X95127Y227742D01*
X95104Y227516D01*
X95074Y227290D01*
X95040Y227065D01*
X94999Y226841D01*
X94954Y226617D01*
X94902Y226395D01*
X94846Y226175D01*
X94784Y225956D01*
X94716Y225738D01*
X94644Y225522D01*
X94566Y225308D01*
X94483Y225096D01*
X94395Y224886D01*
X94301Y224678D01*
X94203Y224473D01*
X94099Y224270D01*
X93991Y224069D01*
X93878Y223872D01*
X93760Y223677D01*
X93637Y223485D01*
X93510Y223296D01*
X93378Y223110D01*
X93241Y222928D01*
X93100Y222749D01*
X92955Y222574D01*
X92805Y222402D01*
X92652Y222233D01*
X92494Y222069D01*
X92332Y221909D01*
X92167Y221752D01*
X91997Y221600D01*
X91824Y221452D01*
X91648Y221308D01*
X91468Y221168D01*
X91284Y221033D01*
X91098Y220902D01*
X90908Y220777D01*
X90715Y220655D01*
X90519Y220539D01*
X90321Y220427D01*
X90120Y220320D01*
X89916Y220218D01*
X104055Y216743D02*
X104317Y217191D01*
X104567Y217645D01*
X104807Y218105D01*
X105035Y218571D01*
X105251Y219042D01*
X105456Y219518D01*
X105649Y219999D01*
X105830Y220485D01*
X106000Y220975D01*
X106157Y221469D01*
X106302Y221967D01*
X106435Y222468D01*
X106555Y222972D01*
X106663Y223480D01*
X106521Y232919D02*
X106399Y233388D01*
X106266Y233854D01*
X106122Y234317D01*
X105968Y234776D01*
X105803Y235232D01*
X105628Y235684D01*
X105442Y236132D01*
X105247Y236575D01*
X105041Y237014D01*
X104825Y237448D01*
X104600Y237877D01*
X104364Y238301D01*
X104119Y238719D01*
X103865Y239132D01*
X96941Y245963D02*
X96504Y246219D01*
X96061Y246464D01*
X95612Y246699D01*
X95158Y246922D01*
X94699Y247135D01*
X94235Y247336D01*
X93766Y247527D01*
X93292Y247706D01*
X92815Y247874D01*
X92333Y248030D01*
X91848Y248175D01*
X91360Y248308D01*
X90868Y248429D01*
X81145Y248476D02*
X80670Y248361D01*
X80198Y248236D01*
X79729Y248100D01*
X79263Y247953D01*
X78801Y247796D01*
X78342Y247628D01*
X77887Y247450D01*
X77437Y247261D01*
X76991Y247061D01*
X76550Y246852D01*
X76113Y246633D01*
X75682Y246403D01*
X75256Y246164D01*
X74836Y245915D01*
X68101Y239227D02*
X67832Y238812D01*
X67573Y238389D01*
X67325Y237961D01*
X67087Y237527D01*
X66859Y237087D01*
X66642Y236642D01*
X66436Y236191D01*
X66240Y235736D01*
X66056Y235277D01*
X65883Y234813D01*
X65721Y234345D01*
X65570Y233873D01*
X65431Y233398D01*
X65303Y232919D01*
X65255Y223432D02*
X65349Y222955D01*
X65454Y222481D01*
X65571Y222009D01*
X65699Y221541D01*
X65838Y221075D01*
X65988Y220613D01*
X66149Y220154D01*
X66320Y219700D01*
X66503Y219249D01*
X66696Y218803D01*
X66899Y218362D01*
X67113Y217926D01*
X67337Y217495D01*
X67571Y217069D01*
X67816Y216649D01*
M02*
