G04 EAGLE Gerber RS-274X export*
G75*
%MOMM*%
%FSLAX34Y34*%
%LPD*%
%INSolderpaste Top*%
%IPPOS*%
%AMOC8*
5,1,8,0,0,1.08239X$1,22.5*%
G01*
%ADD10C,0.047459*%
%ADD11C,0.108444*%
%ADD12C,0.046988*%
%ADD13C,0.052125*%
%ADD14C,0.094444*%
%ADD15C,0.068950*%
%ADD16C,0.049409*%
%ADD17C,0.155934*%
%ADD18C,1.800000*%
%ADD19C,0.052444*%
%ADD20R,0.762000X1.333500*%
%ADD21C,0.150366*%
%ADD22C,0.050800*%
%ADD23C,0.073150*%
%ADD24C,0.062950*%
%ADD25C,0.049425*%


D10*
X562791Y633675D02*
X571809Y633675D01*
X571809Y623657D01*
X562791Y623657D01*
X562791Y633675D01*
X562791Y624108D02*
X571809Y624108D01*
X571809Y624559D02*
X562791Y624559D01*
X562791Y625010D02*
X571809Y625010D01*
X571809Y625461D02*
X562791Y625461D01*
X562791Y625912D02*
X571809Y625912D01*
X571809Y626363D02*
X562791Y626363D01*
X562791Y626814D02*
X571809Y626814D01*
X571809Y627265D02*
X562791Y627265D01*
X562791Y627716D02*
X571809Y627716D01*
X571809Y628167D02*
X562791Y628167D01*
X562791Y628618D02*
X571809Y628618D01*
X571809Y629069D02*
X562791Y629069D01*
X562791Y629520D02*
X571809Y629520D01*
X571809Y629971D02*
X562791Y629971D01*
X562791Y630422D02*
X571809Y630422D01*
X571809Y630873D02*
X562791Y630873D01*
X562791Y631324D02*
X571809Y631324D01*
X571809Y631775D02*
X562791Y631775D01*
X562791Y632226D02*
X571809Y632226D01*
X571809Y632677D02*
X562791Y632677D01*
X562791Y633128D02*
X571809Y633128D01*
X571809Y633579D02*
X562791Y633579D01*
X554809Y633675D02*
X545791Y633675D01*
X554809Y633675D02*
X554809Y623657D01*
X545791Y623657D01*
X545791Y633675D01*
X545791Y624108D02*
X554809Y624108D01*
X554809Y624559D02*
X545791Y624559D01*
X545791Y625010D02*
X554809Y625010D01*
X554809Y625461D02*
X545791Y625461D01*
X545791Y625912D02*
X554809Y625912D01*
X554809Y626363D02*
X545791Y626363D01*
X545791Y626814D02*
X554809Y626814D01*
X554809Y627265D02*
X545791Y627265D01*
X545791Y627716D02*
X554809Y627716D01*
X554809Y628167D02*
X545791Y628167D01*
X545791Y628618D02*
X554809Y628618D01*
X554809Y629069D02*
X545791Y629069D01*
X545791Y629520D02*
X554809Y629520D01*
X554809Y629971D02*
X545791Y629971D01*
X545791Y630422D02*
X554809Y630422D01*
X554809Y630873D02*
X545791Y630873D01*
X545791Y631324D02*
X554809Y631324D01*
X554809Y631775D02*
X545791Y631775D01*
X545791Y632226D02*
X554809Y632226D01*
X554809Y632677D02*
X545791Y632677D01*
X545791Y633128D02*
X554809Y633128D01*
X554809Y633579D02*
X545791Y633579D01*
X562791Y608275D02*
X571809Y608275D01*
X571809Y598257D01*
X562791Y598257D01*
X562791Y608275D01*
X562791Y598708D02*
X571809Y598708D01*
X571809Y599159D02*
X562791Y599159D01*
X562791Y599610D02*
X571809Y599610D01*
X571809Y600061D02*
X562791Y600061D01*
X562791Y600512D02*
X571809Y600512D01*
X571809Y600963D02*
X562791Y600963D01*
X562791Y601414D02*
X571809Y601414D01*
X571809Y601865D02*
X562791Y601865D01*
X562791Y602316D02*
X571809Y602316D01*
X571809Y602767D02*
X562791Y602767D01*
X562791Y603218D02*
X571809Y603218D01*
X571809Y603669D02*
X562791Y603669D01*
X562791Y604120D02*
X571809Y604120D01*
X571809Y604571D02*
X562791Y604571D01*
X562791Y605022D02*
X571809Y605022D01*
X571809Y605473D02*
X562791Y605473D01*
X562791Y605924D02*
X571809Y605924D01*
X571809Y606375D02*
X562791Y606375D01*
X562791Y606826D02*
X571809Y606826D01*
X571809Y607277D02*
X562791Y607277D01*
X562791Y607728D02*
X571809Y607728D01*
X571809Y608179D02*
X562791Y608179D01*
X554809Y608275D02*
X545791Y608275D01*
X554809Y608275D02*
X554809Y598257D01*
X545791Y598257D01*
X545791Y608275D01*
X545791Y598708D02*
X554809Y598708D01*
X554809Y599159D02*
X545791Y599159D01*
X545791Y599610D02*
X554809Y599610D01*
X554809Y600061D02*
X545791Y600061D01*
X545791Y600512D02*
X554809Y600512D01*
X554809Y600963D02*
X545791Y600963D01*
X545791Y601414D02*
X554809Y601414D01*
X554809Y601865D02*
X545791Y601865D01*
X545791Y602316D02*
X554809Y602316D01*
X554809Y602767D02*
X545791Y602767D01*
X545791Y603218D02*
X554809Y603218D01*
X554809Y603669D02*
X545791Y603669D01*
X545791Y604120D02*
X554809Y604120D01*
X554809Y604571D02*
X545791Y604571D01*
X545791Y605022D02*
X554809Y605022D01*
X554809Y605473D02*
X545791Y605473D01*
X545791Y605924D02*
X554809Y605924D01*
X554809Y606375D02*
X545791Y606375D01*
X545791Y606826D02*
X554809Y606826D01*
X554809Y607277D02*
X545791Y607277D01*
X545791Y607728D02*
X554809Y607728D01*
X554809Y608179D02*
X545791Y608179D01*
X767009Y542125D02*
X767009Y533107D01*
X756991Y533107D01*
X756991Y542125D01*
X767009Y542125D01*
X767009Y533558D02*
X756991Y533558D01*
X756991Y534009D02*
X767009Y534009D01*
X767009Y534460D02*
X756991Y534460D01*
X756991Y534911D02*
X767009Y534911D01*
X767009Y535362D02*
X756991Y535362D01*
X756991Y535813D02*
X767009Y535813D01*
X767009Y536264D02*
X756991Y536264D01*
X756991Y536715D02*
X767009Y536715D01*
X767009Y537166D02*
X756991Y537166D01*
X756991Y537617D02*
X767009Y537617D01*
X767009Y538068D02*
X756991Y538068D01*
X756991Y538519D02*
X767009Y538519D01*
X767009Y538970D02*
X756991Y538970D01*
X756991Y539421D02*
X767009Y539421D01*
X767009Y539872D02*
X756991Y539872D01*
X756991Y540323D02*
X767009Y540323D01*
X767009Y540774D02*
X756991Y540774D01*
X756991Y541225D02*
X767009Y541225D01*
X767009Y541676D02*
X756991Y541676D01*
X767009Y550107D02*
X767009Y559125D01*
X767009Y550107D02*
X756991Y550107D01*
X756991Y559125D01*
X767009Y559125D01*
X767009Y550558D02*
X756991Y550558D01*
X756991Y551009D02*
X767009Y551009D01*
X767009Y551460D02*
X756991Y551460D01*
X756991Y551911D02*
X767009Y551911D01*
X767009Y552362D02*
X756991Y552362D01*
X756991Y552813D02*
X767009Y552813D01*
X767009Y553264D02*
X756991Y553264D01*
X756991Y553715D02*
X767009Y553715D01*
X767009Y554166D02*
X756991Y554166D01*
X756991Y554617D02*
X767009Y554617D01*
X767009Y555068D02*
X756991Y555068D01*
X756991Y555519D02*
X767009Y555519D01*
X767009Y555970D02*
X756991Y555970D01*
X756991Y556421D02*
X767009Y556421D01*
X767009Y556872D02*
X756991Y556872D01*
X756991Y557323D02*
X767009Y557323D01*
X767009Y557774D02*
X756991Y557774D01*
X756991Y558225D02*
X767009Y558225D01*
X767009Y558676D02*
X756991Y558676D01*
X782391Y559125D02*
X782391Y550107D01*
X782391Y559125D02*
X792409Y559125D01*
X792409Y550107D01*
X782391Y550107D01*
X782391Y550558D02*
X792409Y550558D01*
X792409Y551009D02*
X782391Y551009D01*
X782391Y551460D02*
X792409Y551460D01*
X792409Y551911D02*
X782391Y551911D01*
X782391Y552362D02*
X792409Y552362D01*
X792409Y552813D02*
X782391Y552813D01*
X782391Y553264D02*
X792409Y553264D01*
X792409Y553715D02*
X782391Y553715D01*
X782391Y554166D02*
X792409Y554166D01*
X792409Y554617D02*
X782391Y554617D01*
X782391Y555068D02*
X792409Y555068D01*
X792409Y555519D02*
X782391Y555519D01*
X782391Y555970D02*
X792409Y555970D01*
X792409Y556421D02*
X782391Y556421D01*
X782391Y556872D02*
X792409Y556872D01*
X792409Y557323D02*
X782391Y557323D01*
X782391Y557774D02*
X792409Y557774D01*
X792409Y558225D02*
X782391Y558225D01*
X782391Y558676D02*
X792409Y558676D01*
X782391Y542125D02*
X782391Y533107D01*
X782391Y542125D02*
X792409Y542125D01*
X792409Y533107D01*
X782391Y533107D01*
X782391Y533558D02*
X792409Y533558D01*
X792409Y534009D02*
X782391Y534009D01*
X782391Y534460D02*
X792409Y534460D01*
X792409Y534911D02*
X782391Y534911D01*
X782391Y535362D02*
X792409Y535362D01*
X792409Y535813D02*
X782391Y535813D01*
X782391Y536264D02*
X792409Y536264D01*
X792409Y536715D02*
X782391Y536715D01*
X782391Y537166D02*
X792409Y537166D01*
X792409Y537617D02*
X782391Y537617D01*
X782391Y538068D02*
X792409Y538068D01*
X792409Y538519D02*
X782391Y538519D01*
X782391Y538970D02*
X792409Y538970D01*
X792409Y539421D02*
X782391Y539421D01*
X782391Y539872D02*
X792409Y539872D01*
X792409Y540323D02*
X782391Y540323D01*
X782391Y540774D02*
X792409Y540774D01*
X792409Y541225D02*
X782391Y541225D01*
X782391Y541676D02*
X792409Y541676D01*
X706191Y550107D02*
X706191Y559125D01*
X716209Y559125D01*
X716209Y550107D01*
X706191Y550107D01*
X706191Y550558D02*
X716209Y550558D01*
X716209Y551009D02*
X706191Y551009D01*
X706191Y551460D02*
X716209Y551460D01*
X716209Y551911D02*
X706191Y551911D01*
X706191Y552362D02*
X716209Y552362D01*
X716209Y552813D02*
X706191Y552813D01*
X706191Y553264D02*
X716209Y553264D01*
X716209Y553715D02*
X706191Y553715D01*
X706191Y554166D02*
X716209Y554166D01*
X716209Y554617D02*
X706191Y554617D01*
X706191Y555068D02*
X716209Y555068D01*
X716209Y555519D02*
X706191Y555519D01*
X706191Y555970D02*
X716209Y555970D01*
X716209Y556421D02*
X706191Y556421D01*
X706191Y556872D02*
X716209Y556872D01*
X716209Y557323D02*
X706191Y557323D01*
X706191Y557774D02*
X716209Y557774D01*
X716209Y558225D02*
X706191Y558225D01*
X706191Y558676D02*
X716209Y558676D01*
X706191Y542125D02*
X706191Y533107D01*
X706191Y542125D02*
X716209Y542125D01*
X716209Y533107D01*
X706191Y533107D01*
X706191Y533558D02*
X716209Y533558D01*
X716209Y534009D02*
X706191Y534009D01*
X706191Y534460D02*
X716209Y534460D01*
X716209Y534911D02*
X706191Y534911D01*
X706191Y535362D02*
X716209Y535362D01*
X716209Y535813D02*
X706191Y535813D01*
X706191Y536264D02*
X716209Y536264D01*
X716209Y536715D02*
X706191Y536715D01*
X706191Y537166D02*
X716209Y537166D01*
X716209Y537617D02*
X706191Y537617D01*
X706191Y538068D02*
X716209Y538068D01*
X716209Y538519D02*
X706191Y538519D01*
X706191Y538970D02*
X716209Y538970D01*
X716209Y539421D02*
X706191Y539421D01*
X706191Y539872D02*
X716209Y539872D01*
X716209Y540323D02*
X706191Y540323D01*
X706191Y540774D02*
X716209Y540774D01*
X716209Y541225D02*
X706191Y541225D01*
X706191Y541676D02*
X716209Y541676D01*
X741609Y542125D02*
X741609Y533107D01*
X731591Y533107D01*
X731591Y542125D01*
X741609Y542125D01*
X741609Y533558D02*
X731591Y533558D01*
X731591Y534009D02*
X741609Y534009D01*
X741609Y534460D02*
X731591Y534460D01*
X731591Y534911D02*
X741609Y534911D01*
X741609Y535362D02*
X731591Y535362D01*
X731591Y535813D02*
X741609Y535813D01*
X741609Y536264D02*
X731591Y536264D01*
X731591Y536715D02*
X741609Y536715D01*
X741609Y537166D02*
X731591Y537166D01*
X731591Y537617D02*
X741609Y537617D01*
X741609Y538068D02*
X731591Y538068D01*
X731591Y538519D02*
X741609Y538519D01*
X741609Y538970D02*
X731591Y538970D01*
X731591Y539421D02*
X741609Y539421D01*
X741609Y539872D02*
X731591Y539872D01*
X731591Y540323D02*
X741609Y540323D01*
X741609Y540774D02*
X731591Y540774D01*
X731591Y541225D02*
X741609Y541225D01*
X741609Y541676D02*
X731591Y541676D01*
X741609Y550107D02*
X741609Y559125D01*
X741609Y550107D02*
X731591Y550107D01*
X731591Y559125D01*
X741609Y559125D01*
X741609Y550558D02*
X731591Y550558D01*
X731591Y551009D02*
X741609Y551009D01*
X741609Y551460D02*
X731591Y551460D01*
X731591Y551911D02*
X741609Y551911D01*
X741609Y552362D02*
X731591Y552362D01*
X731591Y552813D02*
X741609Y552813D01*
X741609Y553264D02*
X731591Y553264D01*
X731591Y553715D02*
X741609Y553715D01*
X741609Y554166D02*
X731591Y554166D01*
X731591Y554617D02*
X741609Y554617D01*
X741609Y555068D02*
X731591Y555068D01*
X731591Y555519D02*
X741609Y555519D01*
X741609Y555970D02*
X731591Y555970D01*
X731591Y556421D02*
X741609Y556421D01*
X741609Y556872D02*
X731591Y556872D01*
X731591Y557323D02*
X741609Y557323D01*
X741609Y557774D02*
X731591Y557774D01*
X731591Y558225D02*
X741609Y558225D01*
X741609Y558676D02*
X731591Y558676D01*
X867591Y633675D02*
X876609Y633675D01*
X876609Y623657D01*
X867591Y623657D01*
X867591Y633675D01*
X867591Y624108D02*
X876609Y624108D01*
X876609Y624559D02*
X867591Y624559D01*
X867591Y625010D02*
X876609Y625010D01*
X876609Y625461D02*
X867591Y625461D01*
X867591Y625912D02*
X876609Y625912D01*
X876609Y626363D02*
X867591Y626363D01*
X867591Y626814D02*
X876609Y626814D01*
X876609Y627265D02*
X867591Y627265D01*
X867591Y627716D02*
X876609Y627716D01*
X876609Y628167D02*
X867591Y628167D01*
X867591Y628618D02*
X876609Y628618D01*
X876609Y629069D02*
X867591Y629069D01*
X867591Y629520D02*
X876609Y629520D01*
X876609Y629971D02*
X867591Y629971D01*
X867591Y630422D02*
X876609Y630422D01*
X876609Y630873D02*
X867591Y630873D01*
X867591Y631324D02*
X876609Y631324D01*
X876609Y631775D02*
X867591Y631775D01*
X867591Y632226D02*
X876609Y632226D01*
X876609Y632677D02*
X867591Y632677D01*
X867591Y633128D02*
X876609Y633128D01*
X876609Y633579D02*
X867591Y633579D01*
X859609Y633675D02*
X850591Y633675D01*
X859609Y633675D02*
X859609Y623657D01*
X850591Y623657D01*
X850591Y633675D01*
X850591Y624108D02*
X859609Y624108D01*
X859609Y624559D02*
X850591Y624559D01*
X850591Y625010D02*
X859609Y625010D01*
X859609Y625461D02*
X850591Y625461D01*
X850591Y625912D02*
X859609Y625912D01*
X859609Y626363D02*
X850591Y626363D01*
X850591Y626814D02*
X859609Y626814D01*
X859609Y627265D02*
X850591Y627265D01*
X850591Y627716D02*
X859609Y627716D01*
X859609Y628167D02*
X850591Y628167D01*
X850591Y628618D02*
X859609Y628618D01*
X859609Y629069D02*
X850591Y629069D01*
X850591Y629520D02*
X859609Y629520D01*
X859609Y629971D02*
X850591Y629971D01*
X850591Y630422D02*
X859609Y630422D01*
X859609Y630873D02*
X850591Y630873D01*
X850591Y631324D02*
X859609Y631324D01*
X859609Y631775D02*
X850591Y631775D01*
X850591Y632226D02*
X859609Y632226D01*
X859609Y632677D02*
X850591Y632677D01*
X850591Y633128D02*
X859609Y633128D01*
X859609Y633579D02*
X850591Y633579D01*
X867591Y608275D02*
X876609Y608275D01*
X876609Y598257D01*
X867591Y598257D01*
X867591Y608275D01*
X867591Y598708D02*
X876609Y598708D01*
X876609Y599159D02*
X867591Y599159D01*
X867591Y599610D02*
X876609Y599610D01*
X876609Y600061D02*
X867591Y600061D01*
X867591Y600512D02*
X876609Y600512D01*
X876609Y600963D02*
X867591Y600963D01*
X867591Y601414D02*
X876609Y601414D01*
X876609Y601865D02*
X867591Y601865D01*
X867591Y602316D02*
X876609Y602316D01*
X876609Y602767D02*
X867591Y602767D01*
X867591Y603218D02*
X876609Y603218D01*
X876609Y603669D02*
X867591Y603669D01*
X867591Y604120D02*
X876609Y604120D01*
X876609Y604571D02*
X867591Y604571D01*
X867591Y605022D02*
X876609Y605022D01*
X876609Y605473D02*
X867591Y605473D01*
X867591Y605924D02*
X876609Y605924D01*
X876609Y606375D02*
X867591Y606375D01*
X867591Y606826D02*
X876609Y606826D01*
X876609Y607277D02*
X867591Y607277D01*
X867591Y607728D02*
X876609Y607728D01*
X876609Y608179D02*
X867591Y608179D01*
X859609Y608275D02*
X850591Y608275D01*
X859609Y608275D02*
X859609Y598257D01*
X850591Y598257D01*
X850591Y608275D01*
X850591Y598708D02*
X859609Y598708D01*
X859609Y599159D02*
X850591Y599159D01*
X850591Y599610D02*
X859609Y599610D01*
X859609Y600061D02*
X850591Y600061D01*
X850591Y600512D02*
X859609Y600512D01*
X859609Y600963D02*
X850591Y600963D01*
X850591Y601414D02*
X859609Y601414D01*
X859609Y601865D02*
X850591Y601865D01*
X850591Y602316D02*
X859609Y602316D01*
X859609Y602767D02*
X850591Y602767D01*
X850591Y603218D02*
X859609Y603218D01*
X859609Y603669D02*
X850591Y603669D01*
X850591Y604120D02*
X859609Y604120D01*
X859609Y604571D02*
X850591Y604571D01*
X850591Y605022D02*
X859609Y605022D01*
X859609Y605473D02*
X850591Y605473D01*
X850591Y605924D02*
X859609Y605924D01*
X859609Y606375D02*
X850591Y606375D01*
X850591Y606826D02*
X859609Y606826D01*
X859609Y607277D02*
X850591Y607277D01*
X850591Y607728D02*
X859609Y607728D01*
X859609Y608179D02*
X850591Y608179D01*
X432109Y633675D02*
X423091Y633675D01*
X432109Y633675D02*
X432109Y623657D01*
X423091Y623657D01*
X423091Y633675D01*
X423091Y624108D02*
X432109Y624108D01*
X432109Y624559D02*
X423091Y624559D01*
X423091Y625010D02*
X432109Y625010D01*
X432109Y625461D02*
X423091Y625461D01*
X423091Y625912D02*
X432109Y625912D01*
X432109Y626363D02*
X423091Y626363D01*
X423091Y626814D02*
X432109Y626814D01*
X432109Y627265D02*
X423091Y627265D01*
X423091Y627716D02*
X432109Y627716D01*
X432109Y628167D02*
X423091Y628167D01*
X423091Y628618D02*
X432109Y628618D01*
X432109Y629069D02*
X423091Y629069D01*
X423091Y629520D02*
X432109Y629520D01*
X432109Y629971D02*
X423091Y629971D01*
X423091Y630422D02*
X432109Y630422D01*
X432109Y630873D02*
X423091Y630873D01*
X423091Y631324D02*
X432109Y631324D01*
X432109Y631775D02*
X423091Y631775D01*
X423091Y632226D02*
X432109Y632226D01*
X432109Y632677D02*
X423091Y632677D01*
X423091Y633128D02*
X432109Y633128D01*
X432109Y633579D02*
X423091Y633579D01*
X415109Y633675D02*
X406091Y633675D01*
X415109Y633675D02*
X415109Y623657D01*
X406091Y623657D01*
X406091Y633675D01*
X406091Y624108D02*
X415109Y624108D01*
X415109Y624559D02*
X406091Y624559D01*
X406091Y625010D02*
X415109Y625010D01*
X415109Y625461D02*
X406091Y625461D01*
X406091Y625912D02*
X415109Y625912D01*
X415109Y626363D02*
X406091Y626363D01*
X406091Y626814D02*
X415109Y626814D01*
X415109Y627265D02*
X406091Y627265D01*
X406091Y627716D02*
X415109Y627716D01*
X415109Y628167D02*
X406091Y628167D01*
X406091Y628618D02*
X415109Y628618D01*
X415109Y629069D02*
X406091Y629069D01*
X406091Y629520D02*
X415109Y629520D01*
X415109Y629971D02*
X406091Y629971D01*
X406091Y630422D02*
X415109Y630422D01*
X415109Y630873D02*
X406091Y630873D01*
X406091Y631324D02*
X415109Y631324D01*
X415109Y631775D02*
X406091Y631775D01*
X406091Y632226D02*
X415109Y632226D01*
X415109Y632677D02*
X406091Y632677D01*
X406091Y633128D02*
X415109Y633128D01*
X415109Y633579D02*
X406091Y633579D01*
X423091Y608275D02*
X432109Y608275D01*
X432109Y598257D01*
X423091Y598257D01*
X423091Y608275D01*
X423091Y598708D02*
X432109Y598708D01*
X432109Y599159D02*
X423091Y599159D01*
X423091Y599610D02*
X432109Y599610D01*
X432109Y600061D02*
X423091Y600061D01*
X423091Y600512D02*
X432109Y600512D01*
X432109Y600963D02*
X423091Y600963D01*
X423091Y601414D02*
X432109Y601414D01*
X432109Y601865D02*
X423091Y601865D01*
X423091Y602316D02*
X432109Y602316D01*
X432109Y602767D02*
X423091Y602767D01*
X423091Y603218D02*
X432109Y603218D01*
X432109Y603669D02*
X423091Y603669D01*
X423091Y604120D02*
X432109Y604120D01*
X432109Y604571D02*
X423091Y604571D01*
X423091Y605022D02*
X432109Y605022D01*
X432109Y605473D02*
X423091Y605473D01*
X423091Y605924D02*
X432109Y605924D01*
X432109Y606375D02*
X423091Y606375D01*
X423091Y606826D02*
X432109Y606826D01*
X432109Y607277D02*
X423091Y607277D01*
X423091Y607728D02*
X432109Y607728D01*
X432109Y608179D02*
X423091Y608179D01*
X415109Y608275D02*
X406091Y608275D01*
X415109Y608275D02*
X415109Y598257D01*
X406091Y598257D01*
X406091Y608275D01*
X406091Y598708D02*
X415109Y598708D01*
X415109Y599159D02*
X406091Y599159D01*
X406091Y599610D02*
X415109Y599610D01*
X415109Y600061D02*
X406091Y600061D01*
X406091Y600512D02*
X415109Y600512D01*
X415109Y600963D02*
X406091Y600963D01*
X406091Y601414D02*
X415109Y601414D01*
X415109Y601865D02*
X406091Y601865D01*
X406091Y602316D02*
X415109Y602316D01*
X415109Y602767D02*
X406091Y602767D01*
X406091Y603218D02*
X415109Y603218D01*
X415109Y603669D02*
X406091Y603669D01*
X406091Y604120D02*
X415109Y604120D01*
X415109Y604571D02*
X406091Y604571D01*
X406091Y605022D02*
X415109Y605022D01*
X415109Y605473D02*
X406091Y605473D01*
X406091Y605924D02*
X415109Y605924D01*
X415109Y606375D02*
X406091Y606375D01*
X406091Y606826D02*
X415109Y606826D01*
X415109Y607277D02*
X406091Y607277D01*
X406091Y607728D02*
X415109Y607728D01*
X415109Y608179D02*
X406091Y608179D01*
X408759Y502991D02*
X399741Y502991D01*
X399741Y513009D01*
X408759Y513009D01*
X408759Y502991D01*
X408759Y503442D02*
X399741Y503442D01*
X399741Y503893D02*
X408759Y503893D01*
X408759Y504344D02*
X399741Y504344D01*
X399741Y504795D02*
X408759Y504795D01*
X408759Y505246D02*
X399741Y505246D01*
X399741Y505697D02*
X408759Y505697D01*
X408759Y506148D02*
X399741Y506148D01*
X399741Y506599D02*
X408759Y506599D01*
X408759Y507050D02*
X399741Y507050D01*
X399741Y507501D02*
X408759Y507501D01*
X408759Y507952D02*
X399741Y507952D01*
X399741Y508403D02*
X408759Y508403D01*
X408759Y508854D02*
X399741Y508854D01*
X399741Y509305D02*
X408759Y509305D01*
X408759Y509756D02*
X399741Y509756D01*
X399741Y510207D02*
X408759Y510207D01*
X408759Y510658D02*
X399741Y510658D01*
X399741Y511109D02*
X408759Y511109D01*
X408759Y511560D02*
X399741Y511560D01*
X399741Y512011D02*
X408759Y512011D01*
X408759Y512462D02*
X399741Y512462D01*
X399741Y512913D02*
X408759Y512913D01*
X416741Y502991D02*
X425759Y502991D01*
X416741Y502991D02*
X416741Y513009D01*
X425759Y513009D01*
X425759Y502991D01*
X425759Y503442D02*
X416741Y503442D01*
X416741Y503893D02*
X425759Y503893D01*
X425759Y504344D02*
X416741Y504344D01*
X416741Y504795D02*
X425759Y504795D01*
X425759Y505246D02*
X416741Y505246D01*
X416741Y505697D02*
X425759Y505697D01*
X425759Y506148D02*
X416741Y506148D01*
X416741Y506599D02*
X425759Y506599D01*
X425759Y507050D02*
X416741Y507050D01*
X416741Y507501D02*
X425759Y507501D01*
X425759Y507952D02*
X416741Y507952D01*
X416741Y508403D02*
X425759Y508403D01*
X425759Y508854D02*
X416741Y508854D01*
X416741Y509305D02*
X425759Y509305D01*
X425759Y509756D02*
X416741Y509756D01*
X416741Y510207D02*
X425759Y510207D01*
X425759Y510658D02*
X416741Y510658D01*
X416741Y511109D02*
X425759Y511109D01*
X425759Y511560D02*
X416741Y511560D01*
X416741Y512011D02*
X425759Y512011D01*
X425759Y512462D02*
X416741Y512462D01*
X416741Y512913D02*
X425759Y512913D01*
X689791Y633675D02*
X698809Y633675D01*
X698809Y623657D01*
X689791Y623657D01*
X689791Y633675D01*
X689791Y624108D02*
X698809Y624108D01*
X698809Y624559D02*
X689791Y624559D01*
X689791Y625010D02*
X698809Y625010D01*
X698809Y625461D02*
X689791Y625461D01*
X689791Y625912D02*
X698809Y625912D01*
X698809Y626363D02*
X689791Y626363D01*
X689791Y626814D02*
X698809Y626814D01*
X698809Y627265D02*
X689791Y627265D01*
X689791Y627716D02*
X698809Y627716D01*
X698809Y628167D02*
X689791Y628167D01*
X689791Y628618D02*
X698809Y628618D01*
X698809Y629069D02*
X689791Y629069D01*
X689791Y629520D02*
X698809Y629520D01*
X698809Y629971D02*
X689791Y629971D01*
X689791Y630422D02*
X698809Y630422D01*
X698809Y630873D02*
X689791Y630873D01*
X689791Y631324D02*
X698809Y631324D01*
X698809Y631775D02*
X689791Y631775D01*
X689791Y632226D02*
X698809Y632226D01*
X698809Y632677D02*
X689791Y632677D01*
X689791Y633128D02*
X698809Y633128D01*
X698809Y633579D02*
X689791Y633579D01*
X681809Y633675D02*
X672791Y633675D01*
X681809Y633675D02*
X681809Y623657D01*
X672791Y623657D01*
X672791Y633675D01*
X672791Y624108D02*
X681809Y624108D01*
X681809Y624559D02*
X672791Y624559D01*
X672791Y625010D02*
X681809Y625010D01*
X681809Y625461D02*
X672791Y625461D01*
X672791Y625912D02*
X681809Y625912D01*
X681809Y626363D02*
X672791Y626363D01*
X672791Y626814D02*
X681809Y626814D01*
X681809Y627265D02*
X672791Y627265D01*
X672791Y627716D02*
X681809Y627716D01*
X681809Y628167D02*
X672791Y628167D01*
X672791Y628618D02*
X681809Y628618D01*
X681809Y629069D02*
X672791Y629069D01*
X672791Y629520D02*
X681809Y629520D01*
X681809Y629971D02*
X672791Y629971D01*
X672791Y630422D02*
X681809Y630422D01*
X681809Y630873D02*
X672791Y630873D01*
X672791Y631324D02*
X681809Y631324D01*
X681809Y631775D02*
X672791Y631775D01*
X672791Y632226D02*
X681809Y632226D01*
X681809Y632677D02*
X672791Y632677D01*
X672791Y633128D02*
X681809Y633128D01*
X681809Y633579D02*
X672791Y633579D01*
X689791Y608275D02*
X698809Y608275D01*
X698809Y598257D01*
X689791Y598257D01*
X689791Y608275D01*
X689791Y598708D02*
X698809Y598708D01*
X698809Y599159D02*
X689791Y599159D01*
X689791Y599610D02*
X698809Y599610D01*
X698809Y600061D02*
X689791Y600061D01*
X689791Y600512D02*
X698809Y600512D01*
X698809Y600963D02*
X689791Y600963D01*
X689791Y601414D02*
X698809Y601414D01*
X698809Y601865D02*
X689791Y601865D01*
X689791Y602316D02*
X698809Y602316D01*
X698809Y602767D02*
X689791Y602767D01*
X689791Y603218D02*
X698809Y603218D01*
X698809Y603669D02*
X689791Y603669D01*
X689791Y604120D02*
X698809Y604120D01*
X698809Y604571D02*
X689791Y604571D01*
X689791Y605022D02*
X698809Y605022D01*
X698809Y605473D02*
X689791Y605473D01*
X689791Y605924D02*
X698809Y605924D01*
X698809Y606375D02*
X689791Y606375D01*
X689791Y606826D02*
X698809Y606826D01*
X698809Y607277D02*
X689791Y607277D01*
X689791Y607728D02*
X698809Y607728D01*
X698809Y608179D02*
X689791Y608179D01*
X681809Y608275D02*
X672791Y608275D01*
X681809Y608275D02*
X681809Y598257D01*
X672791Y598257D01*
X672791Y608275D01*
X672791Y598708D02*
X681809Y598708D01*
X681809Y599159D02*
X672791Y599159D01*
X672791Y599610D02*
X681809Y599610D01*
X681809Y600061D02*
X672791Y600061D01*
X672791Y600512D02*
X681809Y600512D01*
X681809Y600963D02*
X672791Y600963D01*
X672791Y601414D02*
X681809Y601414D01*
X681809Y601865D02*
X672791Y601865D01*
X672791Y602316D02*
X681809Y602316D01*
X681809Y602767D02*
X672791Y602767D01*
X672791Y603218D02*
X681809Y603218D01*
X681809Y603669D02*
X672791Y603669D01*
X672791Y604120D02*
X681809Y604120D01*
X681809Y604571D02*
X672791Y604571D01*
X672791Y605022D02*
X681809Y605022D01*
X681809Y605473D02*
X672791Y605473D01*
X672791Y605924D02*
X681809Y605924D01*
X681809Y606375D02*
X672791Y606375D01*
X672791Y606826D02*
X681809Y606826D01*
X681809Y607277D02*
X672791Y607277D01*
X672791Y607728D02*
X681809Y607728D01*
X681809Y608179D02*
X672791Y608179D01*
D11*
X427824Y658547D02*
X413416Y658547D01*
X413416Y674985D01*
X427824Y674985D01*
X427824Y658547D01*
X427824Y659577D02*
X413416Y659577D01*
X413416Y660607D02*
X427824Y660607D01*
X427824Y661637D02*
X413416Y661637D01*
X413416Y662667D02*
X427824Y662667D01*
X427824Y663697D02*
X413416Y663697D01*
X413416Y664727D02*
X427824Y664727D01*
X427824Y665757D02*
X413416Y665757D01*
X413416Y666787D02*
X427824Y666787D01*
X427824Y667817D02*
X413416Y667817D01*
X413416Y668847D02*
X427824Y668847D01*
X427824Y669877D02*
X413416Y669877D01*
X413416Y670907D02*
X427824Y670907D01*
X427824Y671937D02*
X413416Y671937D01*
X413416Y672967D02*
X427824Y672967D01*
X427824Y673997D02*
X413416Y673997D01*
X399384Y658547D02*
X384976Y658547D01*
X384976Y674985D01*
X399384Y674985D01*
X399384Y658547D01*
X399384Y659577D02*
X384976Y659577D01*
X384976Y660607D02*
X399384Y660607D01*
X399384Y661637D02*
X384976Y661637D01*
X384976Y662667D02*
X399384Y662667D01*
X399384Y663697D02*
X384976Y663697D01*
X384976Y664727D02*
X399384Y664727D01*
X399384Y665757D02*
X384976Y665757D01*
X384976Y666787D02*
X399384Y666787D01*
X399384Y667817D02*
X384976Y667817D01*
X384976Y668847D02*
X399384Y668847D01*
X399384Y669877D02*
X384976Y669877D01*
X384976Y670907D02*
X399384Y670907D01*
X399384Y671937D02*
X384976Y671937D01*
X384976Y672967D02*
X399384Y672967D01*
X399384Y673997D02*
X384976Y673997D01*
X553116Y658547D02*
X567524Y658547D01*
X553116Y658547D02*
X553116Y674985D01*
X567524Y674985D01*
X567524Y658547D01*
X567524Y659577D02*
X553116Y659577D01*
X553116Y660607D02*
X567524Y660607D01*
X567524Y661637D02*
X553116Y661637D01*
X553116Y662667D02*
X567524Y662667D01*
X567524Y663697D02*
X553116Y663697D01*
X553116Y664727D02*
X567524Y664727D01*
X567524Y665757D02*
X553116Y665757D01*
X553116Y666787D02*
X567524Y666787D01*
X567524Y667817D02*
X553116Y667817D01*
X553116Y668847D02*
X567524Y668847D01*
X567524Y669877D02*
X553116Y669877D01*
X553116Y670907D02*
X567524Y670907D01*
X567524Y671937D02*
X553116Y671937D01*
X553116Y672967D02*
X567524Y672967D01*
X567524Y673997D02*
X553116Y673997D01*
X539084Y658547D02*
X524676Y658547D01*
X524676Y674985D01*
X539084Y674985D01*
X539084Y658547D01*
X539084Y659577D02*
X524676Y659577D01*
X524676Y660607D02*
X539084Y660607D01*
X539084Y661637D02*
X524676Y661637D01*
X524676Y662667D02*
X539084Y662667D01*
X539084Y663697D02*
X524676Y663697D01*
X524676Y664727D02*
X539084Y664727D01*
X539084Y665757D02*
X524676Y665757D01*
X524676Y666787D02*
X539084Y666787D01*
X539084Y667817D02*
X524676Y667817D01*
X524676Y668847D02*
X539084Y668847D01*
X539084Y669877D02*
X524676Y669877D01*
X524676Y670907D02*
X539084Y670907D01*
X539084Y671937D02*
X524676Y671937D01*
X524676Y672967D02*
X539084Y672967D01*
X539084Y673997D02*
X524676Y673997D01*
X680116Y658547D02*
X694524Y658547D01*
X680116Y658547D02*
X680116Y674985D01*
X694524Y674985D01*
X694524Y658547D01*
X694524Y659577D02*
X680116Y659577D01*
X680116Y660607D02*
X694524Y660607D01*
X694524Y661637D02*
X680116Y661637D01*
X680116Y662667D02*
X694524Y662667D01*
X694524Y663697D02*
X680116Y663697D01*
X680116Y664727D02*
X694524Y664727D01*
X694524Y665757D02*
X680116Y665757D01*
X680116Y666787D02*
X694524Y666787D01*
X694524Y667817D02*
X680116Y667817D01*
X680116Y668847D02*
X694524Y668847D01*
X694524Y669877D02*
X680116Y669877D01*
X680116Y670907D02*
X694524Y670907D01*
X694524Y671937D02*
X680116Y671937D01*
X680116Y672967D02*
X694524Y672967D01*
X694524Y673997D02*
X680116Y673997D01*
X666084Y658547D02*
X651676Y658547D01*
X651676Y674985D01*
X666084Y674985D01*
X666084Y658547D01*
X666084Y659577D02*
X651676Y659577D01*
X651676Y660607D02*
X666084Y660607D01*
X666084Y661637D02*
X651676Y661637D01*
X651676Y662667D02*
X666084Y662667D01*
X666084Y663697D02*
X651676Y663697D01*
X651676Y664727D02*
X666084Y664727D01*
X666084Y665757D02*
X651676Y665757D01*
X651676Y666787D02*
X666084Y666787D01*
X666084Y667817D02*
X651676Y667817D01*
X651676Y668847D02*
X666084Y668847D01*
X666084Y669877D02*
X651676Y669877D01*
X651676Y670907D02*
X666084Y670907D01*
X666084Y671937D02*
X651676Y671937D01*
X651676Y672967D02*
X666084Y672967D01*
X666084Y673997D02*
X651676Y673997D01*
X857916Y658547D02*
X872324Y658547D01*
X857916Y658547D02*
X857916Y674985D01*
X872324Y674985D01*
X872324Y658547D01*
X872324Y659577D02*
X857916Y659577D01*
X857916Y660607D02*
X872324Y660607D01*
X872324Y661637D02*
X857916Y661637D01*
X857916Y662667D02*
X872324Y662667D01*
X872324Y663697D02*
X857916Y663697D01*
X857916Y664727D02*
X872324Y664727D01*
X872324Y665757D02*
X857916Y665757D01*
X857916Y666787D02*
X872324Y666787D01*
X872324Y667817D02*
X857916Y667817D01*
X857916Y668847D02*
X872324Y668847D01*
X872324Y669877D02*
X857916Y669877D01*
X857916Y670907D02*
X872324Y670907D01*
X872324Y671937D02*
X857916Y671937D01*
X857916Y672967D02*
X872324Y672967D01*
X872324Y673997D02*
X857916Y673997D01*
X843884Y658547D02*
X829476Y658547D01*
X829476Y674985D01*
X843884Y674985D01*
X843884Y658547D01*
X843884Y659577D02*
X829476Y659577D01*
X829476Y660607D02*
X843884Y660607D01*
X843884Y661637D02*
X829476Y661637D01*
X829476Y662667D02*
X843884Y662667D01*
X843884Y663697D02*
X829476Y663697D01*
X829476Y664727D02*
X843884Y664727D01*
X843884Y665757D02*
X829476Y665757D01*
X829476Y666787D02*
X843884Y666787D01*
X843884Y667817D02*
X829476Y667817D01*
X829476Y668847D02*
X843884Y668847D01*
X843884Y669877D02*
X829476Y669877D01*
X829476Y670907D02*
X843884Y670907D01*
X843884Y671937D02*
X829476Y671937D01*
X829476Y672967D02*
X843884Y672967D01*
X843884Y673997D02*
X829476Y673997D01*
D10*
X445841Y635309D02*
X445841Y626291D01*
X445841Y635309D02*
X455859Y635309D01*
X455859Y626291D01*
X445841Y626291D01*
X445841Y626742D02*
X455859Y626742D01*
X455859Y627193D02*
X445841Y627193D01*
X445841Y627644D02*
X455859Y627644D01*
X455859Y628095D02*
X445841Y628095D01*
X445841Y628546D02*
X455859Y628546D01*
X455859Y628997D02*
X445841Y628997D01*
X445841Y629448D02*
X455859Y629448D01*
X455859Y629899D02*
X445841Y629899D01*
X445841Y630350D02*
X455859Y630350D01*
X455859Y630801D02*
X445841Y630801D01*
X445841Y631252D02*
X455859Y631252D01*
X455859Y631703D02*
X445841Y631703D01*
X445841Y632154D02*
X455859Y632154D01*
X455859Y632605D02*
X445841Y632605D01*
X445841Y633056D02*
X455859Y633056D01*
X455859Y633507D02*
X445841Y633507D01*
X445841Y633958D02*
X455859Y633958D01*
X455859Y634409D02*
X445841Y634409D01*
X445841Y634860D02*
X455859Y634860D01*
X445841Y618309D02*
X445841Y609291D01*
X445841Y618309D02*
X455859Y618309D01*
X455859Y609291D01*
X445841Y609291D01*
X445841Y609742D02*
X455859Y609742D01*
X455859Y610193D02*
X445841Y610193D01*
X445841Y610644D02*
X455859Y610644D01*
X455859Y611095D02*
X445841Y611095D01*
X445841Y611546D02*
X455859Y611546D01*
X455859Y611997D02*
X445841Y611997D01*
X445841Y612448D02*
X455859Y612448D01*
X455859Y612899D02*
X445841Y612899D01*
X445841Y613350D02*
X455859Y613350D01*
X455859Y613801D02*
X445841Y613801D01*
X445841Y614252D02*
X455859Y614252D01*
X455859Y614703D02*
X445841Y614703D01*
X445841Y615154D02*
X455859Y615154D01*
X455859Y615605D02*
X445841Y615605D01*
X445841Y616056D02*
X455859Y616056D01*
X455859Y616507D02*
X445841Y616507D01*
X445841Y616958D02*
X455859Y616958D01*
X455859Y617409D02*
X445841Y617409D01*
X445841Y617860D02*
X455859Y617860D01*
X585541Y626291D02*
X585541Y635309D01*
X595559Y635309D01*
X595559Y626291D01*
X585541Y626291D01*
X585541Y626742D02*
X595559Y626742D01*
X595559Y627193D02*
X585541Y627193D01*
X585541Y627644D02*
X595559Y627644D01*
X595559Y628095D02*
X585541Y628095D01*
X585541Y628546D02*
X595559Y628546D01*
X595559Y628997D02*
X585541Y628997D01*
X585541Y629448D02*
X595559Y629448D01*
X595559Y629899D02*
X585541Y629899D01*
X585541Y630350D02*
X595559Y630350D01*
X595559Y630801D02*
X585541Y630801D01*
X585541Y631252D02*
X595559Y631252D01*
X595559Y631703D02*
X585541Y631703D01*
X585541Y632154D02*
X595559Y632154D01*
X595559Y632605D02*
X585541Y632605D01*
X585541Y633056D02*
X595559Y633056D01*
X595559Y633507D02*
X585541Y633507D01*
X585541Y633958D02*
X595559Y633958D01*
X595559Y634409D02*
X585541Y634409D01*
X585541Y634860D02*
X595559Y634860D01*
X585541Y618309D02*
X585541Y609291D01*
X585541Y618309D02*
X595559Y618309D01*
X595559Y609291D01*
X585541Y609291D01*
X585541Y609742D02*
X595559Y609742D01*
X595559Y610193D02*
X585541Y610193D01*
X585541Y610644D02*
X595559Y610644D01*
X595559Y611095D02*
X585541Y611095D01*
X585541Y611546D02*
X595559Y611546D01*
X595559Y611997D02*
X585541Y611997D01*
X585541Y612448D02*
X595559Y612448D01*
X595559Y612899D02*
X585541Y612899D01*
X585541Y613350D02*
X595559Y613350D01*
X595559Y613801D02*
X585541Y613801D01*
X585541Y614252D02*
X595559Y614252D01*
X595559Y614703D02*
X585541Y614703D01*
X585541Y615154D02*
X595559Y615154D01*
X595559Y615605D02*
X585541Y615605D01*
X585541Y616056D02*
X595559Y616056D01*
X595559Y616507D02*
X585541Y616507D01*
X585541Y616958D02*
X595559Y616958D01*
X595559Y617409D02*
X585541Y617409D01*
X585541Y617860D02*
X595559Y617860D01*
X712541Y626291D02*
X712541Y635309D01*
X722559Y635309D01*
X722559Y626291D01*
X712541Y626291D01*
X712541Y626742D02*
X722559Y626742D01*
X722559Y627193D02*
X712541Y627193D01*
X712541Y627644D02*
X722559Y627644D01*
X722559Y628095D02*
X712541Y628095D01*
X712541Y628546D02*
X722559Y628546D01*
X722559Y628997D02*
X712541Y628997D01*
X712541Y629448D02*
X722559Y629448D01*
X722559Y629899D02*
X712541Y629899D01*
X712541Y630350D02*
X722559Y630350D01*
X722559Y630801D02*
X712541Y630801D01*
X712541Y631252D02*
X722559Y631252D01*
X722559Y631703D02*
X712541Y631703D01*
X712541Y632154D02*
X722559Y632154D01*
X722559Y632605D02*
X712541Y632605D01*
X712541Y633056D02*
X722559Y633056D01*
X722559Y633507D02*
X712541Y633507D01*
X712541Y633958D02*
X722559Y633958D01*
X722559Y634409D02*
X712541Y634409D01*
X712541Y634860D02*
X722559Y634860D01*
X712541Y618309D02*
X712541Y609291D01*
X712541Y618309D02*
X722559Y618309D01*
X722559Y609291D01*
X712541Y609291D01*
X712541Y609742D02*
X722559Y609742D01*
X722559Y610193D02*
X712541Y610193D01*
X712541Y610644D02*
X722559Y610644D01*
X722559Y611095D02*
X712541Y611095D01*
X712541Y611546D02*
X722559Y611546D01*
X722559Y611997D02*
X712541Y611997D01*
X712541Y612448D02*
X722559Y612448D01*
X722559Y612899D02*
X712541Y612899D01*
X712541Y613350D02*
X722559Y613350D01*
X722559Y613801D02*
X712541Y613801D01*
X712541Y614252D02*
X722559Y614252D01*
X722559Y614703D02*
X712541Y614703D01*
X712541Y615154D02*
X722559Y615154D01*
X722559Y615605D02*
X712541Y615605D01*
X712541Y616056D02*
X722559Y616056D01*
X722559Y616507D02*
X712541Y616507D01*
X712541Y616958D02*
X722559Y616958D01*
X722559Y617409D02*
X712541Y617409D01*
X712541Y617860D02*
X722559Y617860D01*
X890341Y626291D02*
X890341Y635309D01*
X900359Y635309D01*
X900359Y626291D01*
X890341Y626291D01*
X890341Y626742D02*
X900359Y626742D01*
X900359Y627193D02*
X890341Y627193D01*
X890341Y627644D02*
X900359Y627644D01*
X900359Y628095D02*
X890341Y628095D01*
X890341Y628546D02*
X900359Y628546D01*
X900359Y628997D02*
X890341Y628997D01*
X890341Y629448D02*
X900359Y629448D01*
X900359Y629899D02*
X890341Y629899D01*
X890341Y630350D02*
X900359Y630350D01*
X900359Y630801D02*
X890341Y630801D01*
X890341Y631252D02*
X900359Y631252D01*
X900359Y631703D02*
X890341Y631703D01*
X890341Y632154D02*
X900359Y632154D01*
X900359Y632605D02*
X890341Y632605D01*
X890341Y633056D02*
X900359Y633056D01*
X900359Y633507D02*
X890341Y633507D01*
X890341Y633958D02*
X900359Y633958D01*
X900359Y634409D02*
X890341Y634409D01*
X890341Y634860D02*
X900359Y634860D01*
X890341Y618309D02*
X890341Y609291D01*
X890341Y618309D02*
X900359Y618309D01*
X900359Y609291D01*
X890341Y609291D01*
X890341Y609742D02*
X900359Y609742D01*
X900359Y610193D02*
X890341Y610193D01*
X890341Y610644D02*
X900359Y610644D01*
X900359Y611095D02*
X890341Y611095D01*
X890341Y611546D02*
X900359Y611546D01*
X900359Y611997D02*
X890341Y611997D01*
X890341Y612448D02*
X900359Y612448D01*
X900359Y612899D02*
X890341Y612899D01*
X890341Y613350D02*
X900359Y613350D01*
X900359Y613801D02*
X890341Y613801D01*
X890341Y614252D02*
X900359Y614252D01*
X900359Y614703D02*
X890341Y614703D01*
X890341Y615154D02*
X900359Y615154D01*
X900359Y615605D02*
X890341Y615605D01*
X890341Y616056D02*
X900359Y616056D01*
X900359Y616507D02*
X890341Y616507D01*
X890341Y616958D02*
X900359Y616958D01*
X900359Y617409D02*
X890341Y617409D01*
X890341Y617860D02*
X900359Y617860D01*
D12*
X110725Y639934D02*
X110725Y648862D01*
X122955Y648862D01*
X122955Y639934D01*
X110725Y639934D01*
X110725Y640380D02*
X122955Y640380D01*
X122955Y640826D02*
X110725Y640826D01*
X110725Y641272D02*
X122955Y641272D01*
X122955Y641718D02*
X110725Y641718D01*
X110725Y642164D02*
X122955Y642164D01*
X122955Y642610D02*
X110725Y642610D01*
X110725Y643056D02*
X122955Y643056D01*
X122955Y643502D02*
X110725Y643502D01*
X110725Y643948D02*
X122955Y643948D01*
X122955Y644394D02*
X110725Y644394D01*
X110725Y644840D02*
X122955Y644840D01*
X122955Y645286D02*
X110725Y645286D01*
X110725Y645732D02*
X122955Y645732D01*
X122955Y646178D02*
X110725Y646178D01*
X110725Y646624D02*
X122955Y646624D01*
X122955Y647070D02*
X110725Y647070D01*
X110725Y647516D02*
X122955Y647516D01*
X122955Y647962D02*
X110725Y647962D01*
X110725Y648408D02*
X122955Y648408D01*
X122955Y648854D02*
X110725Y648854D01*
X110725Y630066D02*
X110725Y621138D01*
X110725Y630066D02*
X122955Y630066D01*
X122955Y621138D01*
X110725Y621138D01*
X110725Y621584D02*
X122955Y621584D01*
X122955Y622030D02*
X110725Y622030D01*
X110725Y622476D02*
X122955Y622476D01*
X122955Y622922D02*
X110725Y622922D01*
X110725Y623368D02*
X122955Y623368D01*
X122955Y623814D02*
X110725Y623814D01*
X110725Y624260D02*
X122955Y624260D01*
X122955Y624706D02*
X110725Y624706D01*
X110725Y625152D02*
X122955Y625152D01*
X122955Y625598D02*
X110725Y625598D01*
X110725Y626044D02*
X122955Y626044D01*
X122955Y626490D02*
X110725Y626490D01*
X110725Y626936D02*
X122955Y626936D01*
X122955Y627382D02*
X110725Y627382D01*
X110725Y627828D02*
X122955Y627828D01*
X122955Y628274D02*
X110725Y628274D01*
X110725Y628720D02*
X122955Y628720D01*
X122955Y629166D02*
X110725Y629166D01*
X110725Y629612D02*
X122955Y629612D01*
X122955Y630058D02*
X110725Y630058D01*
X131045Y630536D02*
X131045Y639464D01*
X143275Y639464D01*
X143275Y630536D01*
X131045Y630536D01*
X131045Y630982D02*
X143275Y630982D01*
X143275Y631428D02*
X131045Y631428D01*
X131045Y631874D02*
X143275Y631874D01*
X143275Y632320D02*
X131045Y632320D01*
X131045Y632766D02*
X143275Y632766D01*
X143275Y633212D02*
X131045Y633212D01*
X131045Y633658D02*
X143275Y633658D01*
X143275Y634104D02*
X131045Y634104D01*
X131045Y634550D02*
X143275Y634550D01*
X143275Y634996D02*
X131045Y634996D01*
X131045Y635442D02*
X143275Y635442D01*
X143275Y635888D02*
X131045Y635888D01*
X131045Y636334D02*
X143275Y636334D01*
X143275Y636780D02*
X131045Y636780D01*
X131045Y637226D02*
X143275Y637226D01*
X143275Y637672D02*
X131045Y637672D01*
X131045Y638118D02*
X143275Y638118D01*
X143275Y638564D02*
X131045Y638564D01*
X131045Y639010D02*
X143275Y639010D01*
X143275Y639456D02*
X131045Y639456D01*
D10*
X123509Y662257D02*
X113491Y662257D01*
X113491Y671275D01*
X123509Y671275D01*
X123509Y662257D01*
X123509Y662708D02*
X113491Y662708D01*
X113491Y663159D02*
X123509Y663159D01*
X123509Y663610D02*
X113491Y663610D01*
X113491Y664061D02*
X123509Y664061D01*
X123509Y664512D02*
X113491Y664512D01*
X113491Y664963D02*
X123509Y664963D01*
X123509Y665414D02*
X113491Y665414D01*
X113491Y665865D02*
X123509Y665865D01*
X123509Y666316D02*
X113491Y666316D01*
X113491Y666767D02*
X123509Y666767D01*
X123509Y667218D02*
X113491Y667218D01*
X113491Y667669D02*
X123509Y667669D01*
X123509Y668120D02*
X113491Y668120D01*
X113491Y668571D02*
X123509Y668571D01*
X123509Y669022D02*
X113491Y669022D01*
X113491Y669473D02*
X123509Y669473D01*
X123509Y669924D02*
X113491Y669924D01*
X113491Y670375D02*
X123509Y670375D01*
X123509Y670826D02*
X113491Y670826D01*
X130491Y662257D02*
X140509Y662257D01*
X130491Y662257D02*
X130491Y671275D01*
X140509Y671275D01*
X140509Y662257D01*
X140509Y662708D02*
X130491Y662708D01*
X130491Y663159D02*
X140509Y663159D01*
X140509Y663610D02*
X130491Y663610D01*
X130491Y664061D02*
X140509Y664061D01*
X140509Y664512D02*
X130491Y664512D01*
X130491Y664963D02*
X140509Y664963D01*
X140509Y665414D02*
X130491Y665414D01*
X130491Y665865D02*
X140509Y665865D01*
X140509Y666316D02*
X130491Y666316D01*
X130491Y666767D02*
X140509Y666767D01*
X140509Y667218D02*
X130491Y667218D01*
X130491Y667669D02*
X140509Y667669D01*
X140509Y668120D02*
X130491Y668120D01*
X130491Y668571D02*
X140509Y668571D01*
X140509Y669022D02*
X130491Y669022D01*
X130491Y669473D02*
X140509Y669473D01*
X140509Y669924D02*
X130491Y669924D01*
X130491Y670375D02*
X140509Y670375D01*
X140509Y670826D02*
X130491Y670826D01*
X130491Y607775D02*
X140509Y607775D01*
X140509Y598757D01*
X130491Y598757D01*
X130491Y607775D01*
X130491Y599208D02*
X140509Y599208D01*
X140509Y599659D02*
X130491Y599659D01*
X130491Y600110D02*
X140509Y600110D01*
X140509Y600561D02*
X130491Y600561D01*
X130491Y601012D02*
X140509Y601012D01*
X140509Y601463D02*
X130491Y601463D01*
X130491Y601914D02*
X140509Y601914D01*
X140509Y602365D02*
X130491Y602365D01*
X130491Y602816D02*
X140509Y602816D01*
X140509Y603267D02*
X130491Y603267D01*
X130491Y603718D02*
X140509Y603718D01*
X140509Y604169D02*
X130491Y604169D01*
X130491Y604620D02*
X140509Y604620D01*
X140509Y605071D02*
X130491Y605071D01*
X130491Y605522D02*
X140509Y605522D01*
X140509Y605973D02*
X130491Y605973D01*
X130491Y606424D02*
X140509Y606424D01*
X140509Y606875D02*
X130491Y606875D01*
X130491Y607326D02*
X140509Y607326D01*
X123509Y607775D02*
X113491Y607775D01*
X123509Y607775D02*
X123509Y598757D01*
X113491Y598757D01*
X113491Y607775D01*
X113491Y599208D02*
X123509Y599208D01*
X123509Y599659D02*
X113491Y599659D01*
X113491Y600110D02*
X123509Y600110D01*
X123509Y600561D02*
X113491Y600561D01*
X113491Y601012D02*
X123509Y601012D01*
X123509Y601463D02*
X113491Y601463D01*
X113491Y601914D02*
X123509Y601914D01*
X123509Y602365D02*
X113491Y602365D01*
X113491Y602816D02*
X123509Y602816D01*
X123509Y603267D02*
X113491Y603267D01*
X113491Y603718D02*
X123509Y603718D01*
X123509Y604169D02*
X113491Y604169D01*
X113491Y604620D02*
X123509Y604620D01*
X123509Y605071D02*
X113491Y605071D01*
X113491Y605522D02*
X123509Y605522D01*
X123509Y605973D02*
X113491Y605973D01*
X113491Y606424D02*
X123509Y606424D01*
X123509Y606875D02*
X113491Y606875D01*
X113491Y607326D02*
X123509Y607326D01*
X367491Y624157D02*
X377509Y624157D01*
X367491Y624157D02*
X367491Y633175D01*
X377509Y633175D01*
X377509Y624157D01*
X377509Y624608D02*
X367491Y624608D01*
X367491Y625059D02*
X377509Y625059D01*
X377509Y625510D02*
X367491Y625510D01*
X367491Y625961D02*
X377509Y625961D01*
X377509Y626412D02*
X367491Y626412D01*
X367491Y626863D02*
X377509Y626863D01*
X377509Y627314D02*
X367491Y627314D01*
X367491Y627765D02*
X377509Y627765D01*
X377509Y628216D02*
X367491Y628216D01*
X367491Y628667D02*
X377509Y628667D01*
X377509Y629118D02*
X367491Y629118D01*
X367491Y629569D02*
X377509Y629569D01*
X377509Y630020D02*
X367491Y630020D01*
X367491Y630471D02*
X377509Y630471D01*
X377509Y630922D02*
X367491Y630922D01*
X367491Y631373D02*
X377509Y631373D01*
X377509Y631824D02*
X367491Y631824D01*
X367491Y632275D02*
X377509Y632275D01*
X377509Y632726D02*
X367491Y632726D01*
X384491Y624157D02*
X394509Y624157D01*
X384491Y624157D02*
X384491Y633175D01*
X394509Y633175D01*
X394509Y624157D01*
X394509Y624608D02*
X384491Y624608D01*
X384491Y625059D02*
X394509Y625059D01*
X394509Y625510D02*
X384491Y625510D01*
X384491Y625961D02*
X394509Y625961D01*
X394509Y626412D02*
X384491Y626412D01*
X384491Y626863D02*
X394509Y626863D01*
X394509Y627314D02*
X384491Y627314D01*
X384491Y627765D02*
X394509Y627765D01*
X394509Y628216D02*
X384491Y628216D01*
X384491Y628667D02*
X394509Y628667D01*
X394509Y629118D02*
X384491Y629118D01*
X384491Y629569D02*
X394509Y629569D01*
X394509Y630020D02*
X384491Y630020D01*
X384491Y630471D02*
X394509Y630471D01*
X394509Y630922D02*
X384491Y630922D01*
X384491Y631373D02*
X394509Y631373D01*
X394509Y631824D02*
X384491Y631824D01*
X384491Y632275D02*
X394509Y632275D01*
X394509Y632726D02*
X384491Y632726D01*
X507191Y624157D02*
X517209Y624157D01*
X507191Y624157D02*
X507191Y633175D01*
X517209Y633175D01*
X517209Y624157D01*
X517209Y624608D02*
X507191Y624608D01*
X507191Y625059D02*
X517209Y625059D01*
X517209Y625510D02*
X507191Y625510D01*
X507191Y625961D02*
X517209Y625961D01*
X517209Y626412D02*
X507191Y626412D01*
X507191Y626863D02*
X517209Y626863D01*
X517209Y627314D02*
X507191Y627314D01*
X507191Y627765D02*
X517209Y627765D01*
X517209Y628216D02*
X507191Y628216D01*
X507191Y628667D02*
X517209Y628667D01*
X517209Y629118D02*
X507191Y629118D01*
X507191Y629569D02*
X517209Y629569D01*
X517209Y630020D02*
X507191Y630020D01*
X507191Y630471D02*
X517209Y630471D01*
X517209Y630922D02*
X507191Y630922D01*
X507191Y631373D02*
X517209Y631373D01*
X517209Y631824D02*
X507191Y631824D01*
X507191Y632275D02*
X517209Y632275D01*
X517209Y632726D02*
X507191Y632726D01*
X524191Y624157D02*
X534209Y624157D01*
X524191Y624157D02*
X524191Y633175D01*
X534209Y633175D01*
X534209Y624157D01*
X534209Y624608D02*
X524191Y624608D01*
X524191Y625059D02*
X534209Y625059D01*
X534209Y625510D02*
X524191Y625510D01*
X524191Y625961D02*
X534209Y625961D01*
X534209Y626412D02*
X524191Y626412D01*
X524191Y626863D02*
X534209Y626863D01*
X534209Y627314D02*
X524191Y627314D01*
X524191Y627765D02*
X534209Y627765D01*
X534209Y628216D02*
X524191Y628216D01*
X524191Y628667D02*
X534209Y628667D01*
X534209Y629118D02*
X524191Y629118D01*
X524191Y629569D02*
X534209Y629569D01*
X534209Y630020D02*
X524191Y630020D01*
X524191Y630471D02*
X534209Y630471D01*
X534209Y630922D02*
X524191Y630922D01*
X524191Y631373D02*
X534209Y631373D01*
X534209Y631824D02*
X524191Y631824D01*
X524191Y632275D02*
X534209Y632275D01*
X534209Y632726D02*
X524191Y632726D01*
X634191Y624157D02*
X644209Y624157D01*
X634191Y624157D02*
X634191Y633175D01*
X644209Y633175D01*
X644209Y624157D01*
X644209Y624608D02*
X634191Y624608D01*
X634191Y625059D02*
X644209Y625059D01*
X644209Y625510D02*
X634191Y625510D01*
X634191Y625961D02*
X644209Y625961D01*
X644209Y626412D02*
X634191Y626412D01*
X634191Y626863D02*
X644209Y626863D01*
X644209Y627314D02*
X634191Y627314D01*
X634191Y627765D02*
X644209Y627765D01*
X644209Y628216D02*
X634191Y628216D01*
X634191Y628667D02*
X644209Y628667D01*
X644209Y629118D02*
X634191Y629118D01*
X634191Y629569D02*
X644209Y629569D01*
X644209Y630020D02*
X634191Y630020D01*
X634191Y630471D02*
X644209Y630471D01*
X644209Y630922D02*
X634191Y630922D01*
X634191Y631373D02*
X644209Y631373D01*
X644209Y631824D02*
X634191Y631824D01*
X634191Y632275D02*
X644209Y632275D01*
X644209Y632726D02*
X634191Y632726D01*
X651191Y624157D02*
X661209Y624157D01*
X651191Y624157D02*
X651191Y633175D01*
X661209Y633175D01*
X661209Y624157D01*
X661209Y624608D02*
X651191Y624608D01*
X651191Y625059D02*
X661209Y625059D01*
X661209Y625510D02*
X651191Y625510D01*
X651191Y625961D02*
X661209Y625961D01*
X661209Y626412D02*
X651191Y626412D01*
X651191Y626863D02*
X661209Y626863D01*
X661209Y627314D02*
X651191Y627314D01*
X651191Y627765D02*
X661209Y627765D01*
X661209Y628216D02*
X651191Y628216D01*
X651191Y628667D02*
X661209Y628667D01*
X661209Y629118D02*
X651191Y629118D01*
X651191Y629569D02*
X661209Y629569D01*
X661209Y630020D02*
X651191Y630020D01*
X651191Y630471D02*
X661209Y630471D01*
X661209Y630922D02*
X651191Y630922D01*
X651191Y631373D02*
X661209Y631373D01*
X661209Y631824D02*
X651191Y631824D01*
X651191Y632275D02*
X661209Y632275D01*
X661209Y632726D02*
X651191Y632726D01*
X811991Y624157D02*
X822009Y624157D01*
X811991Y624157D02*
X811991Y633175D01*
X822009Y633175D01*
X822009Y624157D01*
X822009Y624608D02*
X811991Y624608D01*
X811991Y625059D02*
X822009Y625059D01*
X822009Y625510D02*
X811991Y625510D01*
X811991Y625961D02*
X822009Y625961D01*
X822009Y626412D02*
X811991Y626412D01*
X811991Y626863D02*
X822009Y626863D01*
X822009Y627314D02*
X811991Y627314D01*
X811991Y627765D02*
X822009Y627765D01*
X822009Y628216D02*
X811991Y628216D01*
X811991Y628667D02*
X822009Y628667D01*
X822009Y629118D02*
X811991Y629118D01*
X811991Y629569D02*
X822009Y629569D01*
X822009Y630020D02*
X811991Y630020D01*
X811991Y630471D02*
X822009Y630471D01*
X822009Y630922D02*
X811991Y630922D01*
X811991Y631373D02*
X822009Y631373D01*
X822009Y631824D02*
X811991Y631824D01*
X811991Y632275D02*
X822009Y632275D01*
X822009Y632726D02*
X811991Y632726D01*
X828991Y624157D02*
X839009Y624157D01*
X828991Y624157D02*
X828991Y633175D01*
X839009Y633175D01*
X839009Y624157D01*
X839009Y624608D02*
X828991Y624608D01*
X828991Y625059D02*
X839009Y625059D01*
X839009Y625510D02*
X828991Y625510D01*
X828991Y625961D02*
X839009Y625961D01*
X839009Y626412D02*
X828991Y626412D01*
X828991Y626863D02*
X839009Y626863D01*
X839009Y627314D02*
X828991Y627314D01*
X828991Y627765D02*
X839009Y627765D01*
X839009Y628216D02*
X828991Y628216D01*
X828991Y628667D02*
X839009Y628667D01*
X839009Y629118D02*
X828991Y629118D01*
X828991Y629569D02*
X839009Y629569D01*
X839009Y630020D02*
X828991Y630020D01*
X828991Y630471D02*
X839009Y630471D01*
X839009Y630922D02*
X828991Y630922D01*
X828991Y631373D02*
X839009Y631373D01*
X839009Y631824D02*
X828991Y631824D01*
X828991Y632275D02*
X839009Y632275D01*
X839009Y632726D02*
X828991Y632726D01*
X817309Y542625D02*
X817309Y532607D01*
X808291Y532607D01*
X808291Y542625D01*
X817309Y542625D01*
X817309Y533058D02*
X808291Y533058D01*
X808291Y533509D02*
X817309Y533509D01*
X817309Y533960D02*
X808291Y533960D01*
X808291Y534411D02*
X817309Y534411D01*
X817309Y534862D02*
X808291Y534862D01*
X808291Y535313D02*
X817309Y535313D01*
X817309Y535764D02*
X808291Y535764D01*
X808291Y536215D02*
X817309Y536215D01*
X817309Y536666D02*
X808291Y536666D01*
X808291Y537117D02*
X817309Y537117D01*
X817309Y537568D02*
X808291Y537568D01*
X808291Y538019D02*
X817309Y538019D01*
X817309Y538470D02*
X808291Y538470D01*
X808291Y538921D02*
X817309Y538921D01*
X817309Y539372D02*
X808291Y539372D01*
X808291Y539823D02*
X817309Y539823D01*
X817309Y540274D02*
X808291Y540274D01*
X808291Y540725D02*
X817309Y540725D01*
X817309Y541176D02*
X808291Y541176D01*
X808291Y541627D02*
X817309Y541627D01*
X817309Y542078D02*
X808291Y542078D01*
X808291Y542529D02*
X817309Y542529D01*
X817309Y549607D02*
X817309Y559625D01*
X817309Y549607D02*
X808291Y549607D01*
X808291Y559625D01*
X817309Y559625D01*
X817309Y550058D02*
X808291Y550058D01*
X808291Y550509D02*
X817309Y550509D01*
X817309Y550960D02*
X808291Y550960D01*
X808291Y551411D02*
X817309Y551411D01*
X817309Y551862D02*
X808291Y551862D01*
X808291Y552313D02*
X817309Y552313D01*
X817309Y552764D02*
X808291Y552764D01*
X808291Y553215D02*
X817309Y553215D01*
X817309Y553666D02*
X808291Y553666D01*
X808291Y554117D02*
X817309Y554117D01*
X817309Y554568D02*
X808291Y554568D01*
X808291Y555019D02*
X817309Y555019D01*
X817309Y555470D02*
X808291Y555470D01*
X808291Y555921D02*
X817309Y555921D01*
X817309Y556372D02*
X808291Y556372D01*
X808291Y556823D02*
X817309Y556823D01*
X817309Y557274D02*
X808291Y557274D01*
X808291Y557725D02*
X817309Y557725D01*
X817309Y558176D02*
X808291Y558176D01*
X808291Y558627D02*
X817309Y558627D01*
X817309Y559078D02*
X808291Y559078D01*
X808291Y559529D02*
X817309Y559529D01*
X686609Y556975D02*
X676591Y556975D01*
X686609Y556975D02*
X686609Y547957D01*
X676591Y547957D01*
X676591Y556975D01*
X676591Y548408D02*
X686609Y548408D01*
X686609Y548859D02*
X676591Y548859D01*
X676591Y549310D02*
X686609Y549310D01*
X686609Y549761D02*
X676591Y549761D01*
X676591Y550212D02*
X686609Y550212D01*
X686609Y550663D02*
X676591Y550663D01*
X676591Y551114D02*
X686609Y551114D01*
X686609Y551565D02*
X676591Y551565D01*
X676591Y552016D02*
X686609Y552016D01*
X686609Y552467D02*
X676591Y552467D01*
X676591Y552918D02*
X686609Y552918D01*
X686609Y553369D02*
X676591Y553369D01*
X676591Y553820D02*
X686609Y553820D01*
X686609Y554271D02*
X676591Y554271D01*
X676591Y554722D02*
X686609Y554722D01*
X686609Y555173D02*
X676591Y555173D01*
X676591Y555624D02*
X686609Y555624D01*
X686609Y556075D02*
X676591Y556075D01*
X676591Y556526D02*
X686609Y556526D01*
X669609Y556975D02*
X659591Y556975D01*
X669609Y556975D02*
X669609Y547957D01*
X659591Y547957D01*
X659591Y556975D01*
X659591Y548408D02*
X669609Y548408D01*
X669609Y548859D02*
X659591Y548859D01*
X659591Y549310D02*
X669609Y549310D01*
X669609Y549761D02*
X659591Y549761D01*
X659591Y550212D02*
X669609Y550212D01*
X669609Y550663D02*
X659591Y550663D01*
X659591Y551114D02*
X669609Y551114D01*
X669609Y551565D02*
X659591Y551565D01*
X659591Y552016D02*
X669609Y552016D01*
X669609Y552467D02*
X659591Y552467D01*
X659591Y552918D02*
X669609Y552918D01*
X669609Y553369D02*
X659591Y553369D01*
X659591Y553820D02*
X669609Y553820D01*
X669609Y554271D02*
X659591Y554271D01*
X659591Y554722D02*
X669609Y554722D01*
X669609Y555173D02*
X659591Y555173D01*
X659591Y555624D02*
X669609Y555624D01*
X669609Y556075D02*
X659591Y556075D01*
X659591Y556526D02*
X669609Y556526D01*
X797725Y513009D02*
X806743Y513009D01*
X806743Y502991D01*
X797725Y502991D01*
X797725Y513009D01*
X797725Y503442D02*
X806743Y503442D01*
X806743Y503893D02*
X797725Y503893D01*
X797725Y504344D02*
X806743Y504344D01*
X806743Y504795D02*
X797725Y504795D01*
X797725Y505246D02*
X806743Y505246D01*
X806743Y505697D02*
X797725Y505697D01*
X797725Y506148D02*
X806743Y506148D01*
X806743Y506599D02*
X797725Y506599D01*
X797725Y507050D02*
X806743Y507050D01*
X806743Y507501D02*
X797725Y507501D01*
X797725Y507952D02*
X806743Y507952D01*
X806743Y508403D02*
X797725Y508403D01*
X797725Y508854D02*
X806743Y508854D01*
X806743Y509305D02*
X797725Y509305D01*
X797725Y509756D02*
X806743Y509756D01*
X806743Y510207D02*
X797725Y510207D01*
X797725Y510658D02*
X806743Y510658D01*
X806743Y511109D02*
X797725Y511109D01*
X797725Y511560D02*
X806743Y511560D01*
X806743Y512011D02*
X797725Y512011D01*
X797725Y512462D02*
X806743Y512462D01*
X806743Y512913D02*
X797725Y512913D01*
X789743Y513009D02*
X780725Y513009D01*
X789743Y513009D02*
X789743Y502991D01*
X780725Y502991D01*
X780725Y513009D01*
X780725Y503442D02*
X789743Y503442D01*
X789743Y503893D02*
X780725Y503893D01*
X780725Y504344D02*
X789743Y504344D01*
X789743Y504795D02*
X780725Y504795D01*
X780725Y505246D02*
X789743Y505246D01*
X789743Y505697D02*
X780725Y505697D01*
X780725Y506148D02*
X789743Y506148D01*
X789743Y506599D02*
X780725Y506599D01*
X780725Y507050D02*
X789743Y507050D01*
X789743Y507501D02*
X780725Y507501D01*
X780725Y507952D02*
X789743Y507952D01*
X789743Y508403D02*
X780725Y508403D01*
X780725Y508854D02*
X789743Y508854D01*
X789743Y509305D02*
X780725Y509305D01*
X780725Y509756D02*
X789743Y509756D01*
X789743Y510207D02*
X780725Y510207D01*
X780725Y510658D02*
X789743Y510658D01*
X789743Y511109D02*
X780725Y511109D01*
X780725Y511560D02*
X789743Y511560D01*
X789743Y512011D02*
X780725Y512011D01*
X780725Y512462D02*
X789743Y512462D01*
X789743Y512913D02*
X780725Y512913D01*
D13*
X270536Y523430D02*
X265264Y523430D01*
X265264Y530702D01*
X270536Y530702D01*
X270536Y523430D01*
X270536Y523925D02*
X265264Y523925D01*
X265264Y524420D02*
X270536Y524420D01*
X270536Y524915D02*
X265264Y524915D01*
X265264Y525410D02*
X270536Y525410D01*
X270536Y525905D02*
X265264Y525905D01*
X265264Y526400D02*
X270536Y526400D01*
X270536Y526895D02*
X265264Y526895D01*
X265264Y527390D02*
X270536Y527390D01*
X270536Y527885D02*
X265264Y527885D01*
X265264Y528380D02*
X270536Y528380D01*
X270536Y528875D02*
X265264Y528875D01*
X265264Y529370D02*
X270536Y529370D01*
X270536Y529865D02*
X265264Y529865D01*
X265264Y530360D02*
X270536Y530360D01*
X288264Y523430D02*
X293536Y523430D01*
X288264Y523430D02*
X288264Y530702D01*
X293536Y530702D01*
X293536Y523430D01*
X293536Y523925D02*
X288264Y523925D01*
X288264Y524420D02*
X293536Y524420D01*
X293536Y524915D02*
X288264Y524915D01*
X288264Y525410D02*
X293536Y525410D01*
X293536Y525905D02*
X288264Y525905D01*
X288264Y526400D02*
X293536Y526400D01*
X293536Y526895D02*
X288264Y526895D01*
X288264Y527390D02*
X293536Y527390D01*
X293536Y527885D02*
X288264Y527885D01*
X288264Y528380D02*
X293536Y528380D01*
X293536Y528875D02*
X288264Y528875D01*
X288264Y529370D02*
X293536Y529370D01*
X293536Y529865D02*
X288264Y529865D01*
X288264Y530360D02*
X293536Y530360D01*
D11*
X208884Y535285D02*
X194476Y535285D01*
X208884Y535285D02*
X208884Y518847D01*
X194476Y518847D01*
X194476Y535285D01*
X194476Y519877D02*
X208884Y519877D01*
X208884Y520907D02*
X194476Y520907D01*
X194476Y521937D02*
X208884Y521937D01*
X208884Y522967D02*
X194476Y522967D01*
X194476Y523997D02*
X208884Y523997D01*
X208884Y525027D02*
X194476Y525027D01*
X194476Y526057D02*
X208884Y526057D01*
X208884Y527087D02*
X194476Y527087D01*
X194476Y528117D02*
X208884Y528117D01*
X208884Y529147D02*
X194476Y529147D01*
X194476Y530177D02*
X208884Y530177D01*
X208884Y531207D02*
X194476Y531207D01*
X194476Y532237D02*
X208884Y532237D01*
X208884Y533267D02*
X194476Y533267D01*
X194476Y534297D02*
X208884Y534297D01*
X222916Y535285D02*
X237324Y535285D01*
X237324Y518847D01*
X222916Y518847D01*
X222916Y535285D01*
X222916Y519877D02*
X237324Y519877D01*
X237324Y520907D02*
X222916Y520907D01*
X222916Y521937D02*
X237324Y521937D01*
X237324Y522967D02*
X222916Y522967D01*
X222916Y523997D02*
X237324Y523997D01*
X237324Y525027D02*
X222916Y525027D01*
X222916Y526057D02*
X237324Y526057D01*
X237324Y527087D02*
X222916Y527087D01*
X222916Y528117D02*
X237324Y528117D01*
X237324Y529147D02*
X222916Y529147D01*
X222916Y530177D02*
X237324Y530177D01*
X237324Y531207D02*
X222916Y531207D01*
X222916Y532237D02*
X237324Y532237D01*
X237324Y533267D02*
X222916Y533267D01*
X222916Y534297D02*
X237324Y534297D01*
D14*
X190560Y644726D02*
X190560Y673274D01*
X203108Y673274D01*
X203108Y644726D01*
X190560Y644726D01*
X190560Y645623D02*
X203108Y645623D01*
X203108Y646520D02*
X190560Y646520D01*
X190560Y647417D02*
X203108Y647417D01*
X203108Y648314D02*
X190560Y648314D01*
X190560Y649211D02*
X203108Y649211D01*
X203108Y650108D02*
X190560Y650108D01*
X190560Y651005D02*
X203108Y651005D01*
X203108Y651902D02*
X190560Y651902D01*
X190560Y652799D02*
X203108Y652799D01*
X203108Y653696D02*
X190560Y653696D01*
X190560Y654593D02*
X203108Y654593D01*
X203108Y655490D02*
X190560Y655490D01*
X190560Y656387D02*
X203108Y656387D01*
X203108Y657284D02*
X190560Y657284D01*
X190560Y658181D02*
X203108Y658181D01*
X203108Y659078D02*
X190560Y659078D01*
X190560Y659975D02*
X203108Y659975D01*
X203108Y660872D02*
X190560Y660872D01*
X190560Y661769D02*
X203108Y661769D01*
X203108Y662666D02*
X190560Y662666D01*
X190560Y663563D02*
X203108Y663563D01*
X203108Y664460D02*
X190560Y664460D01*
X190560Y665357D02*
X203108Y665357D01*
X203108Y666254D02*
X190560Y666254D01*
X190560Y667151D02*
X203108Y667151D01*
X203108Y668048D02*
X190560Y668048D01*
X190560Y668945D02*
X203108Y668945D01*
X203108Y669842D02*
X190560Y669842D01*
X190560Y670739D02*
X203108Y670739D01*
X203108Y671636D02*
X190560Y671636D01*
X190560Y672533D02*
X203108Y672533D01*
X190560Y625274D02*
X190560Y596726D01*
X190560Y625274D02*
X203108Y625274D01*
X203108Y596726D01*
X190560Y596726D01*
X190560Y597623D02*
X203108Y597623D01*
X203108Y598520D02*
X190560Y598520D01*
X190560Y599417D02*
X203108Y599417D01*
X203108Y600314D02*
X190560Y600314D01*
X190560Y601211D02*
X203108Y601211D01*
X203108Y602108D02*
X190560Y602108D01*
X190560Y603005D02*
X203108Y603005D01*
X203108Y603902D02*
X190560Y603902D01*
X190560Y604799D02*
X203108Y604799D01*
X203108Y605696D02*
X190560Y605696D01*
X190560Y606593D02*
X203108Y606593D01*
X203108Y607490D02*
X190560Y607490D01*
X190560Y608387D02*
X203108Y608387D01*
X203108Y609284D02*
X190560Y609284D01*
X190560Y610181D02*
X203108Y610181D01*
X203108Y611078D02*
X190560Y611078D01*
X190560Y611975D02*
X203108Y611975D01*
X203108Y612872D02*
X190560Y612872D01*
X190560Y613769D02*
X203108Y613769D01*
X203108Y614666D02*
X190560Y614666D01*
X190560Y615563D02*
X203108Y615563D01*
X203108Y616460D02*
X190560Y616460D01*
X190560Y617357D02*
X203108Y617357D01*
X203108Y618254D02*
X190560Y618254D01*
X190560Y619151D02*
X203108Y619151D01*
X203108Y620048D02*
X190560Y620048D01*
X190560Y620945D02*
X203108Y620945D01*
X203108Y621842D02*
X190560Y621842D01*
X190560Y622739D02*
X203108Y622739D01*
X203108Y623636D02*
X190560Y623636D01*
X190560Y624533D02*
X203108Y624533D01*
D10*
X140509Y582375D02*
X130491Y582375D01*
X140509Y582375D02*
X140509Y573357D01*
X130491Y573357D01*
X130491Y582375D01*
X130491Y573808D02*
X140509Y573808D01*
X140509Y574259D02*
X130491Y574259D01*
X130491Y574710D02*
X140509Y574710D01*
X140509Y575161D02*
X130491Y575161D01*
X130491Y575612D02*
X140509Y575612D01*
X140509Y576063D02*
X130491Y576063D01*
X130491Y576514D02*
X140509Y576514D01*
X140509Y576965D02*
X130491Y576965D01*
X130491Y577416D02*
X140509Y577416D01*
X140509Y577867D02*
X130491Y577867D01*
X130491Y578318D02*
X140509Y578318D01*
X140509Y578769D02*
X130491Y578769D01*
X130491Y579220D02*
X140509Y579220D01*
X140509Y579671D02*
X130491Y579671D01*
X130491Y580122D02*
X140509Y580122D01*
X140509Y580573D02*
X130491Y580573D01*
X130491Y581024D02*
X140509Y581024D01*
X140509Y581475D02*
X130491Y581475D01*
X130491Y581926D02*
X140509Y581926D01*
X123509Y582375D02*
X113491Y582375D01*
X123509Y582375D02*
X123509Y573357D01*
X113491Y573357D01*
X113491Y582375D01*
X113491Y573808D02*
X123509Y573808D01*
X123509Y574259D02*
X113491Y574259D01*
X113491Y574710D02*
X123509Y574710D01*
X123509Y575161D02*
X113491Y575161D01*
X113491Y575612D02*
X123509Y575612D01*
X123509Y576063D02*
X113491Y576063D01*
X113491Y576514D02*
X123509Y576514D01*
X123509Y576965D02*
X113491Y576965D01*
X113491Y577416D02*
X123509Y577416D01*
X123509Y577867D02*
X113491Y577867D01*
X113491Y578318D02*
X123509Y578318D01*
X123509Y578769D02*
X113491Y578769D01*
X113491Y579220D02*
X123509Y579220D01*
X123509Y579671D02*
X113491Y579671D01*
X113491Y580122D02*
X123509Y580122D01*
X123509Y580573D02*
X113491Y580573D01*
X113491Y581024D02*
X123509Y581024D01*
X123509Y581475D02*
X113491Y581475D01*
X113491Y581926D02*
X123509Y581926D01*
D15*
X204149Y779799D02*
X214951Y779799D01*
X204149Y779799D02*
X204149Y790601D01*
X214951Y790601D01*
X214951Y779799D01*
X214951Y780454D02*
X204149Y780454D01*
X204149Y781109D02*
X214951Y781109D01*
X214951Y781764D02*
X204149Y781764D01*
X204149Y782419D02*
X214951Y782419D01*
X214951Y783074D02*
X204149Y783074D01*
X204149Y783729D02*
X214951Y783729D01*
X214951Y784384D02*
X204149Y784384D01*
X204149Y785039D02*
X214951Y785039D01*
X214951Y785694D02*
X204149Y785694D01*
X204149Y786349D02*
X214951Y786349D01*
X214951Y787004D02*
X204149Y787004D01*
X204149Y787659D02*
X214951Y787659D01*
X214951Y788314D02*
X204149Y788314D01*
X204149Y788969D02*
X214951Y788969D01*
X214951Y789624D02*
X204149Y789624D01*
X204149Y790279D02*
X214951Y790279D01*
X214951Y758799D02*
X204149Y758799D01*
X204149Y769601D01*
X214951Y769601D01*
X214951Y758799D01*
X214951Y759454D02*
X204149Y759454D01*
X204149Y760109D02*
X214951Y760109D01*
X214951Y760764D02*
X204149Y760764D01*
X204149Y761419D02*
X214951Y761419D01*
X214951Y762074D02*
X204149Y762074D01*
X204149Y762729D02*
X214951Y762729D01*
X214951Y763384D02*
X204149Y763384D01*
X204149Y764039D02*
X214951Y764039D01*
X214951Y764694D02*
X204149Y764694D01*
X204149Y765349D02*
X214951Y765349D01*
X214951Y766004D02*
X204149Y766004D01*
X204149Y766659D02*
X214951Y766659D01*
X214951Y767314D02*
X204149Y767314D01*
X204149Y767969D02*
X214951Y767969D01*
X214951Y768624D02*
X204149Y768624D01*
X204149Y769279D02*
X214951Y769279D01*
D16*
X137701Y739599D02*
X137701Y702601D01*
X137701Y739599D02*
X141699Y739599D01*
X141699Y702601D01*
X137701Y702601D01*
X137701Y703070D02*
X141699Y703070D01*
X141699Y703539D02*
X137701Y703539D01*
X137701Y704008D02*
X141699Y704008D01*
X141699Y704477D02*
X137701Y704477D01*
X137701Y704946D02*
X141699Y704946D01*
X141699Y705415D02*
X137701Y705415D01*
X137701Y705884D02*
X141699Y705884D01*
X141699Y706353D02*
X137701Y706353D01*
X137701Y706822D02*
X141699Y706822D01*
X141699Y707291D02*
X137701Y707291D01*
X137701Y707760D02*
X141699Y707760D01*
X141699Y708229D02*
X137701Y708229D01*
X137701Y708698D02*
X141699Y708698D01*
X141699Y709167D02*
X137701Y709167D01*
X137701Y709636D02*
X141699Y709636D01*
X141699Y710105D02*
X137701Y710105D01*
X137701Y710574D02*
X141699Y710574D01*
X141699Y711043D02*
X137701Y711043D01*
X137701Y711512D02*
X141699Y711512D01*
X141699Y711981D02*
X137701Y711981D01*
X137701Y712450D02*
X141699Y712450D01*
X141699Y712919D02*
X137701Y712919D01*
X137701Y713388D02*
X141699Y713388D01*
X141699Y713857D02*
X137701Y713857D01*
X137701Y714326D02*
X141699Y714326D01*
X141699Y714795D02*
X137701Y714795D01*
X137701Y715264D02*
X141699Y715264D01*
X141699Y715733D02*
X137701Y715733D01*
X137701Y716202D02*
X141699Y716202D01*
X141699Y716671D02*
X137701Y716671D01*
X137701Y717140D02*
X141699Y717140D01*
X141699Y717609D02*
X137701Y717609D01*
X137701Y718078D02*
X141699Y718078D01*
X141699Y718547D02*
X137701Y718547D01*
X137701Y719016D02*
X141699Y719016D01*
X141699Y719485D02*
X137701Y719485D01*
X137701Y719954D02*
X141699Y719954D01*
X141699Y720423D02*
X137701Y720423D01*
X137701Y720892D02*
X141699Y720892D01*
X141699Y721361D02*
X137701Y721361D01*
X137701Y721830D02*
X141699Y721830D01*
X141699Y722299D02*
X137701Y722299D01*
X137701Y722768D02*
X141699Y722768D01*
X141699Y723237D02*
X137701Y723237D01*
X137701Y723706D02*
X141699Y723706D01*
X141699Y724175D02*
X137701Y724175D01*
X137701Y724644D02*
X141699Y724644D01*
X141699Y725113D02*
X137701Y725113D01*
X137701Y725582D02*
X141699Y725582D01*
X141699Y726051D02*
X137701Y726051D01*
X137701Y726520D02*
X141699Y726520D01*
X141699Y726989D02*
X137701Y726989D01*
X137701Y727458D02*
X141699Y727458D01*
X141699Y727927D02*
X137701Y727927D01*
X137701Y728396D02*
X141699Y728396D01*
X141699Y728865D02*
X137701Y728865D01*
X137701Y729334D02*
X141699Y729334D01*
X141699Y729803D02*
X137701Y729803D01*
X137701Y730272D02*
X141699Y730272D01*
X141699Y730741D02*
X137701Y730741D01*
X137701Y731210D02*
X141699Y731210D01*
X141699Y731679D02*
X137701Y731679D01*
X137701Y732148D02*
X141699Y732148D01*
X141699Y732617D02*
X137701Y732617D01*
X137701Y733086D02*
X141699Y733086D01*
X141699Y733555D02*
X137701Y733555D01*
X137701Y734024D02*
X141699Y734024D01*
X141699Y734493D02*
X137701Y734493D01*
X137701Y734962D02*
X141699Y734962D01*
X141699Y735431D02*
X137701Y735431D01*
X137701Y735900D02*
X141699Y735900D01*
X141699Y736369D02*
X137701Y736369D01*
X137701Y736838D02*
X141699Y736838D01*
X141699Y737307D02*
X137701Y737307D01*
X137701Y737776D02*
X141699Y737776D01*
X141699Y738245D02*
X137701Y738245D01*
X137701Y738714D02*
X141699Y738714D01*
X141699Y739183D02*
X137701Y739183D01*
X145701Y739599D02*
X145701Y702601D01*
X145701Y739599D02*
X149699Y739599D01*
X149699Y702601D01*
X145701Y702601D01*
X145701Y703070D02*
X149699Y703070D01*
X149699Y703539D02*
X145701Y703539D01*
X145701Y704008D02*
X149699Y704008D01*
X149699Y704477D02*
X145701Y704477D01*
X145701Y704946D02*
X149699Y704946D01*
X149699Y705415D02*
X145701Y705415D01*
X145701Y705884D02*
X149699Y705884D01*
X149699Y706353D02*
X145701Y706353D01*
X145701Y706822D02*
X149699Y706822D01*
X149699Y707291D02*
X145701Y707291D01*
X145701Y707760D02*
X149699Y707760D01*
X149699Y708229D02*
X145701Y708229D01*
X145701Y708698D02*
X149699Y708698D01*
X149699Y709167D02*
X145701Y709167D01*
X145701Y709636D02*
X149699Y709636D01*
X149699Y710105D02*
X145701Y710105D01*
X145701Y710574D02*
X149699Y710574D01*
X149699Y711043D02*
X145701Y711043D01*
X145701Y711512D02*
X149699Y711512D01*
X149699Y711981D02*
X145701Y711981D01*
X145701Y712450D02*
X149699Y712450D01*
X149699Y712919D02*
X145701Y712919D01*
X145701Y713388D02*
X149699Y713388D01*
X149699Y713857D02*
X145701Y713857D01*
X145701Y714326D02*
X149699Y714326D01*
X149699Y714795D02*
X145701Y714795D01*
X145701Y715264D02*
X149699Y715264D01*
X149699Y715733D02*
X145701Y715733D01*
X145701Y716202D02*
X149699Y716202D01*
X149699Y716671D02*
X145701Y716671D01*
X145701Y717140D02*
X149699Y717140D01*
X149699Y717609D02*
X145701Y717609D01*
X145701Y718078D02*
X149699Y718078D01*
X149699Y718547D02*
X145701Y718547D01*
X145701Y719016D02*
X149699Y719016D01*
X149699Y719485D02*
X145701Y719485D01*
X145701Y719954D02*
X149699Y719954D01*
X149699Y720423D02*
X145701Y720423D01*
X145701Y720892D02*
X149699Y720892D01*
X149699Y721361D02*
X145701Y721361D01*
X145701Y721830D02*
X149699Y721830D01*
X149699Y722299D02*
X145701Y722299D01*
X145701Y722768D02*
X149699Y722768D01*
X149699Y723237D02*
X145701Y723237D01*
X145701Y723706D02*
X149699Y723706D01*
X149699Y724175D02*
X145701Y724175D01*
X145701Y724644D02*
X149699Y724644D01*
X149699Y725113D02*
X145701Y725113D01*
X145701Y725582D02*
X149699Y725582D01*
X149699Y726051D02*
X145701Y726051D01*
X145701Y726520D02*
X149699Y726520D01*
X149699Y726989D02*
X145701Y726989D01*
X145701Y727458D02*
X149699Y727458D01*
X149699Y727927D02*
X145701Y727927D01*
X145701Y728396D02*
X149699Y728396D01*
X149699Y728865D02*
X145701Y728865D01*
X145701Y729334D02*
X149699Y729334D01*
X149699Y729803D02*
X145701Y729803D01*
X145701Y730272D02*
X149699Y730272D01*
X149699Y730741D02*
X145701Y730741D01*
X145701Y731210D02*
X149699Y731210D01*
X149699Y731679D02*
X145701Y731679D01*
X145701Y732148D02*
X149699Y732148D01*
X149699Y732617D02*
X145701Y732617D01*
X145701Y733086D02*
X149699Y733086D01*
X149699Y733555D02*
X145701Y733555D01*
X145701Y734024D02*
X149699Y734024D01*
X149699Y734493D02*
X145701Y734493D01*
X145701Y734962D02*
X149699Y734962D01*
X149699Y735431D02*
X145701Y735431D01*
X145701Y735900D02*
X149699Y735900D01*
X149699Y736369D02*
X145701Y736369D01*
X145701Y736838D02*
X149699Y736838D01*
X149699Y737307D02*
X145701Y737307D01*
X145701Y737776D02*
X149699Y737776D01*
X149699Y738245D02*
X145701Y738245D01*
X145701Y738714D02*
X149699Y738714D01*
X149699Y739183D02*
X145701Y739183D01*
X121701Y739599D02*
X121701Y702601D01*
X121701Y739599D02*
X125699Y739599D01*
X125699Y702601D01*
X121701Y702601D01*
X121701Y703070D02*
X125699Y703070D01*
X125699Y703539D02*
X121701Y703539D01*
X121701Y704008D02*
X125699Y704008D01*
X125699Y704477D02*
X121701Y704477D01*
X121701Y704946D02*
X125699Y704946D01*
X125699Y705415D02*
X121701Y705415D01*
X121701Y705884D02*
X125699Y705884D01*
X125699Y706353D02*
X121701Y706353D01*
X121701Y706822D02*
X125699Y706822D01*
X125699Y707291D02*
X121701Y707291D01*
X121701Y707760D02*
X125699Y707760D01*
X125699Y708229D02*
X121701Y708229D01*
X121701Y708698D02*
X125699Y708698D01*
X125699Y709167D02*
X121701Y709167D01*
X121701Y709636D02*
X125699Y709636D01*
X125699Y710105D02*
X121701Y710105D01*
X121701Y710574D02*
X125699Y710574D01*
X125699Y711043D02*
X121701Y711043D01*
X121701Y711512D02*
X125699Y711512D01*
X125699Y711981D02*
X121701Y711981D01*
X121701Y712450D02*
X125699Y712450D01*
X125699Y712919D02*
X121701Y712919D01*
X121701Y713388D02*
X125699Y713388D01*
X125699Y713857D02*
X121701Y713857D01*
X121701Y714326D02*
X125699Y714326D01*
X125699Y714795D02*
X121701Y714795D01*
X121701Y715264D02*
X125699Y715264D01*
X125699Y715733D02*
X121701Y715733D01*
X121701Y716202D02*
X125699Y716202D01*
X125699Y716671D02*
X121701Y716671D01*
X121701Y717140D02*
X125699Y717140D01*
X125699Y717609D02*
X121701Y717609D01*
X121701Y718078D02*
X125699Y718078D01*
X125699Y718547D02*
X121701Y718547D01*
X121701Y719016D02*
X125699Y719016D01*
X125699Y719485D02*
X121701Y719485D01*
X121701Y719954D02*
X125699Y719954D01*
X125699Y720423D02*
X121701Y720423D01*
X121701Y720892D02*
X125699Y720892D01*
X125699Y721361D02*
X121701Y721361D01*
X121701Y721830D02*
X125699Y721830D01*
X125699Y722299D02*
X121701Y722299D01*
X121701Y722768D02*
X125699Y722768D01*
X125699Y723237D02*
X121701Y723237D01*
X121701Y723706D02*
X125699Y723706D01*
X125699Y724175D02*
X121701Y724175D01*
X121701Y724644D02*
X125699Y724644D01*
X125699Y725113D02*
X121701Y725113D01*
X121701Y725582D02*
X125699Y725582D01*
X125699Y726051D02*
X121701Y726051D01*
X121701Y726520D02*
X125699Y726520D01*
X125699Y726989D02*
X121701Y726989D01*
X121701Y727458D02*
X125699Y727458D01*
X125699Y727927D02*
X121701Y727927D01*
X121701Y728396D02*
X125699Y728396D01*
X125699Y728865D02*
X121701Y728865D01*
X121701Y729334D02*
X125699Y729334D01*
X125699Y729803D02*
X121701Y729803D01*
X121701Y730272D02*
X125699Y730272D01*
X125699Y730741D02*
X121701Y730741D01*
X121701Y731210D02*
X125699Y731210D01*
X125699Y731679D02*
X121701Y731679D01*
X121701Y732148D02*
X125699Y732148D01*
X125699Y732617D02*
X121701Y732617D01*
X121701Y733086D02*
X125699Y733086D01*
X125699Y733555D02*
X121701Y733555D01*
X121701Y734024D02*
X125699Y734024D01*
X125699Y734493D02*
X121701Y734493D01*
X121701Y734962D02*
X125699Y734962D01*
X125699Y735431D02*
X121701Y735431D01*
X121701Y735900D02*
X125699Y735900D01*
X125699Y736369D02*
X121701Y736369D01*
X121701Y736838D02*
X125699Y736838D01*
X125699Y737307D02*
X121701Y737307D01*
X121701Y737776D02*
X125699Y737776D01*
X125699Y738245D02*
X121701Y738245D01*
X121701Y738714D02*
X125699Y738714D01*
X125699Y739183D02*
X121701Y739183D01*
X129701Y739599D02*
X129701Y702601D01*
X129701Y739599D02*
X133699Y739599D01*
X133699Y702601D01*
X129701Y702601D01*
X129701Y703070D02*
X133699Y703070D01*
X133699Y703539D02*
X129701Y703539D01*
X129701Y704008D02*
X133699Y704008D01*
X133699Y704477D02*
X129701Y704477D01*
X129701Y704946D02*
X133699Y704946D01*
X133699Y705415D02*
X129701Y705415D01*
X129701Y705884D02*
X133699Y705884D01*
X133699Y706353D02*
X129701Y706353D01*
X129701Y706822D02*
X133699Y706822D01*
X133699Y707291D02*
X129701Y707291D01*
X129701Y707760D02*
X133699Y707760D01*
X133699Y708229D02*
X129701Y708229D01*
X129701Y708698D02*
X133699Y708698D01*
X133699Y709167D02*
X129701Y709167D01*
X129701Y709636D02*
X133699Y709636D01*
X133699Y710105D02*
X129701Y710105D01*
X129701Y710574D02*
X133699Y710574D01*
X133699Y711043D02*
X129701Y711043D01*
X129701Y711512D02*
X133699Y711512D01*
X133699Y711981D02*
X129701Y711981D01*
X129701Y712450D02*
X133699Y712450D01*
X133699Y712919D02*
X129701Y712919D01*
X129701Y713388D02*
X133699Y713388D01*
X133699Y713857D02*
X129701Y713857D01*
X129701Y714326D02*
X133699Y714326D01*
X133699Y714795D02*
X129701Y714795D01*
X129701Y715264D02*
X133699Y715264D01*
X133699Y715733D02*
X129701Y715733D01*
X129701Y716202D02*
X133699Y716202D01*
X133699Y716671D02*
X129701Y716671D01*
X129701Y717140D02*
X133699Y717140D01*
X133699Y717609D02*
X129701Y717609D01*
X129701Y718078D02*
X133699Y718078D01*
X133699Y718547D02*
X129701Y718547D01*
X129701Y719016D02*
X133699Y719016D01*
X133699Y719485D02*
X129701Y719485D01*
X129701Y719954D02*
X133699Y719954D01*
X133699Y720423D02*
X129701Y720423D01*
X129701Y720892D02*
X133699Y720892D01*
X133699Y721361D02*
X129701Y721361D01*
X129701Y721830D02*
X133699Y721830D01*
X133699Y722299D02*
X129701Y722299D01*
X129701Y722768D02*
X133699Y722768D01*
X133699Y723237D02*
X129701Y723237D01*
X129701Y723706D02*
X133699Y723706D01*
X133699Y724175D02*
X129701Y724175D01*
X129701Y724644D02*
X133699Y724644D01*
X133699Y725113D02*
X129701Y725113D01*
X129701Y725582D02*
X133699Y725582D01*
X133699Y726051D02*
X129701Y726051D01*
X129701Y726520D02*
X133699Y726520D01*
X133699Y726989D02*
X129701Y726989D01*
X129701Y727458D02*
X133699Y727458D01*
X133699Y727927D02*
X129701Y727927D01*
X129701Y728396D02*
X133699Y728396D01*
X133699Y728865D02*
X129701Y728865D01*
X129701Y729334D02*
X133699Y729334D01*
X133699Y729803D02*
X129701Y729803D01*
X129701Y730272D02*
X133699Y730272D01*
X133699Y730741D02*
X129701Y730741D01*
X129701Y731210D02*
X133699Y731210D01*
X133699Y731679D02*
X129701Y731679D01*
X129701Y732148D02*
X133699Y732148D01*
X133699Y732617D02*
X129701Y732617D01*
X129701Y733086D02*
X133699Y733086D01*
X133699Y733555D02*
X129701Y733555D01*
X129701Y734024D02*
X133699Y734024D01*
X133699Y734493D02*
X129701Y734493D01*
X129701Y734962D02*
X133699Y734962D01*
X133699Y735431D02*
X129701Y735431D01*
X129701Y735900D02*
X133699Y735900D01*
X133699Y736369D02*
X129701Y736369D01*
X129701Y736838D02*
X133699Y736838D01*
X133699Y737307D02*
X129701Y737307D01*
X129701Y737776D02*
X133699Y737776D01*
X133699Y738245D02*
X129701Y738245D01*
X129701Y738714D02*
X133699Y738714D01*
X133699Y739183D02*
X129701Y739183D01*
D17*
X86233Y766133D02*
X86233Y789067D01*
X104167Y789067D01*
X104167Y766133D01*
X86233Y766133D01*
X86233Y767614D02*
X104167Y767614D01*
X104167Y769095D02*
X86233Y769095D01*
X86233Y770576D02*
X104167Y770576D01*
X104167Y772057D02*
X86233Y772057D01*
X86233Y773538D02*
X104167Y773538D01*
X104167Y775019D02*
X86233Y775019D01*
X86233Y776500D02*
X104167Y776500D01*
X104167Y777981D02*
X86233Y777981D01*
X86233Y779462D02*
X104167Y779462D01*
X104167Y780943D02*
X86233Y780943D01*
X86233Y782424D02*
X104167Y782424D01*
X104167Y783905D02*
X86233Y783905D01*
X86233Y785386D02*
X104167Y785386D01*
X104167Y786867D02*
X86233Y786867D01*
X86233Y788348D02*
X104167Y788348D01*
X175233Y789067D02*
X175233Y766133D01*
X175233Y789067D02*
X193167Y789067D01*
X193167Y766133D01*
X175233Y766133D01*
X175233Y767614D02*
X193167Y767614D01*
X193167Y769095D02*
X175233Y769095D01*
X175233Y770576D02*
X193167Y770576D01*
X193167Y772057D02*
X175233Y772057D01*
X175233Y773538D02*
X193167Y773538D01*
X193167Y775019D02*
X175233Y775019D01*
X175233Y776500D02*
X193167Y776500D01*
X193167Y777981D02*
X175233Y777981D01*
X175233Y779462D02*
X193167Y779462D01*
X193167Y780943D02*
X175233Y780943D01*
X175233Y782424D02*
X193167Y782424D01*
X193167Y783905D02*
X175233Y783905D01*
X175233Y785386D02*
X193167Y785386D01*
X193167Y786867D02*
X175233Y786867D01*
X175233Y788348D02*
X193167Y788348D01*
X86233Y734067D02*
X86233Y711133D01*
X86233Y734067D02*
X104167Y734067D01*
X104167Y711133D01*
X86233Y711133D01*
X86233Y712614D02*
X104167Y712614D01*
X104167Y714095D02*
X86233Y714095D01*
X86233Y715576D02*
X104167Y715576D01*
X104167Y717057D02*
X86233Y717057D01*
X86233Y718538D02*
X104167Y718538D01*
X104167Y720019D02*
X86233Y720019D01*
X86233Y721500D02*
X104167Y721500D01*
X104167Y722981D02*
X86233Y722981D01*
X86233Y724462D02*
X104167Y724462D01*
X104167Y725943D02*
X86233Y725943D01*
X86233Y727424D02*
X104167Y727424D01*
X104167Y728905D02*
X86233Y728905D01*
X86233Y730386D02*
X104167Y730386D01*
X104167Y731867D02*
X86233Y731867D01*
X86233Y733348D02*
X104167Y733348D01*
X175233Y734067D02*
X175233Y711133D01*
X175233Y734067D02*
X193167Y734067D01*
X193167Y711133D01*
X175233Y711133D01*
X175233Y712614D02*
X193167Y712614D01*
X193167Y714095D02*
X175233Y714095D01*
X175233Y715576D02*
X193167Y715576D01*
X193167Y717057D02*
X175233Y717057D01*
X175233Y718538D02*
X193167Y718538D01*
X193167Y720019D02*
X175233Y720019D01*
X175233Y721500D02*
X193167Y721500D01*
X193167Y722981D02*
X175233Y722981D01*
X175233Y724462D02*
X193167Y724462D01*
X193167Y725943D02*
X175233Y725943D01*
X175233Y727424D02*
X193167Y727424D01*
X193167Y728905D02*
X175233Y728905D01*
X175233Y730386D02*
X193167Y730386D01*
X193167Y731867D02*
X175233Y731867D01*
X175233Y733348D02*
X193167Y733348D01*
D16*
X153701Y739599D02*
X153701Y702601D01*
X153701Y739599D02*
X157699Y739599D01*
X157699Y702601D01*
X153701Y702601D01*
X153701Y703070D02*
X157699Y703070D01*
X157699Y703539D02*
X153701Y703539D01*
X153701Y704008D02*
X157699Y704008D01*
X157699Y704477D02*
X153701Y704477D01*
X153701Y704946D02*
X157699Y704946D01*
X157699Y705415D02*
X153701Y705415D01*
X153701Y705884D02*
X157699Y705884D01*
X157699Y706353D02*
X153701Y706353D01*
X153701Y706822D02*
X157699Y706822D01*
X157699Y707291D02*
X153701Y707291D01*
X153701Y707760D02*
X157699Y707760D01*
X157699Y708229D02*
X153701Y708229D01*
X153701Y708698D02*
X157699Y708698D01*
X157699Y709167D02*
X153701Y709167D01*
X153701Y709636D02*
X157699Y709636D01*
X157699Y710105D02*
X153701Y710105D01*
X153701Y710574D02*
X157699Y710574D01*
X157699Y711043D02*
X153701Y711043D01*
X153701Y711512D02*
X157699Y711512D01*
X157699Y711981D02*
X153701Y711981D01*
X153701Y712450D02*
X157699Y712450D01*
X157699Y712919D02*
X153701Y712919D01*
X153701Y713388D02*
X157699Y713388D01*
X157699Y713857D02*
X153701Y713857D01*
X153701Y714326D02*
X157699Y714326D01*
X157699Y714795D02*
X153701Y714795D01*
X153701Y715264D02*
X157699Y715264D01*
X157699Y715733D02*
X153701Y715733D01*
X153701Y716202D02*
X157699Y716202D01*
X157699Y716671D02*
X153701Y716671D01*
X153701Y717140D02*
X157699Y717140D01*
X157699Y717609D02*
X153701Y717609D01*
X153701Y718078D02*
X157699Y718078D01*
X157699Y718547D02*
X153701Y718547D01*
X153701Y719016D02*
X157699Y719016D01*
X157699Y719485D02*
X153701Y719485D01*
X153701Y719954D02*
X157699Y719954D01*
X157699Y720423D02*
X153701Y720423D01*
X153701Y720892D02*
X157699Y720892D01*
X157699Y721361D02*
X153701Y721361D01*
X153701Y721830D02*
X157699Y721830D01*
X157699Y722299D02*
X153701Y722299D01*
X153701Y722768D02*
X157699Y722768D01*
X157699Y723237D02*
X153701Y723237D01*
X153701Y723706D02*
X157699Y723706D01*
X157699Y724175D02*
X153701Y724175D01*
X153701Y724644D02*
X157699Y724644D01*
X157699Y725113D02*
X153701Y725113D01*
X153701Y725582D02*
X157699Y725582D01*
X157699Y726051D02*
X153701Y726051D01*
X153701Y726520D02*
X157699Y726520D01*
X157699Y726989D02*
X153701Y726989D01*
X153701Y727458D02*
X157699Y727458D01*
X157699Y727927D02*
X153701Y727927D01*
X153701Y728396D02*
X157699Y728396D01*
X157699Y728865D02*
X153701Y728865D01*
X153701Y729334D02*
X157699Y729334D01*
X157699Y729803D02*
X153701Y729803D01*
X153701Y730272D02*
X157699Y730272D01*
X157699Y730741D02*
X153701Y730741D01*
X153701Y731210D02*
X157699Y731210D01*
X157699Y731679D02*
X153701Y731679D01*
X153701Y732148D02*
X157699Y732148D01*
X157699Y732617D02*
X153701Y732617D01*
X153701Y733086D02*
X157699Y733086D01*
X157699Y733555D02*
X153701Y733555D01*
X153701Y734024D02*
X157699Y734024D01*
X157699Y734493D02*
X153701Y734493D01*
X153701Y734962D02*
X157699Y734962D01*
X157699Y735431D02*
X153701Y735431D01*
X153701Y735900D02*
X157699Y735900D01*
X157699Y736369D02*
X153701Y736369D01*
X153701Y736838D02*
X157699Y736838D01*
X157699Y737307D02*
X153701Y737307D01*
X153701Y737776D02*
X157699Y737776D01*
X157699Y738245D02*
X153701Y738245D01*
X153701Y738714D02*
X157699Y738714D01*
X157699Y739183D02*
X153701Y739183D01*
D18*
X152400Y518795D02*
X152400Y504190D01*
D19*
X163906Y546994D02*
X170874Y546994D01*
X170874Y534026D01*
X163906Y534026D01*
X163906Y546994D01*
X163906Y534524D02*
X170874Y534524D01*
X170874Y535022D02*
X163906Y535022D01*
X163906Y535520D02*
X170874Y535520D01*
X170874Y536018D02*
X163906Y536018D01*
X163906Y536516D02*
X170874Y536516D01*
X170874Y537014D02*
X163906Y537014D01*
X163906Y537512D02*
X170874Y537512D01*
X170874Y538010D02*
X163906Y538010D01*
X163906Y538508D02*
X170874Y538508D01*
X170874Y539006D02*
X163906Y539006D01*
X163906Y539504D02*
X170874Y539504D01*
X170874Y540002D02*
X163906Y540002D01*
X163906Y540500D02*
X170874Y540500D01*
X170874Y540998D02*
X163906Y540998D01*
X163906Y541496D02*
X170874Y541496D01*
X170874Y541994D02*
X163906Y541994D01*
X163906Y542492D02*
X170874Y542492D01*
X170874Y542990D02*
X163906Y542990D01*
X163906Y543488D02*
X170874Y543488D01*
X170874Y543986D02*
X163906Y543986D01*
X163906Y544484D02*
X170874Y544484D01*
X170874Y544982D02*
X163906Y544982D01*
X163906Y545480D02*
X170874Y545480D01*
X170874Y545978D02*
X163906Y545978D01*
X163906Y546476D02*
X170874Y546476D01*
X170874Y546974D02*
X163906Y546974D01*
X140894Y546994D02*
X133926Y546994D01*
X140894Y546994D02*
X140894Y534026D01*
X133926Y534026D01*
X133926Y546994D01*
X133926Y534524D02*
X140894Y534524D01*
X140894Y535022D02*
X133926Y535022D01*
X133926Y535520D02*
X140894Y535520D01*
X140894Y536018D02*
X133926Y536018D01*
X133926Y536516D02*
X140894Y536516D01*
X140894Y537014D02*
X133926Y537014D01*
X133926Y537512D02*
X140894Y537512D01*
X140894Y538010D02*
X133926Y538010D01*
X133926Y538508D02*
X140894Y538508D01*
X140894Y539006D02*
X133926Y539006D01*
X133926Y539504D02*
X140894Y539504D01*
X140894Y540002D02*
X133926Y540002D01*
X133926Y540500D02*
X140894Y540500D01*
X140894Y540998D02*
X133926Y540998D01*
X133926Y541496D02*
X140894Y541496D01*
X140894Y541994D02*
X133926Y541994D01*
X133926Y542492D02*
X140894Y542492D01*
X140894Y542990D02*
X133926Y542990D01*
X133926Y543488D02*
X140894Y543488D01*
X140894Y543986D02*
X133926Y543986D01*
X133926Y544484D02*
X140894Y544484D01*
X140894Y544982D02*
X133926Y544982D01*
X133926Y545480D02*
X140894Y545480D01*
X140894Y545978D02*
X133926Y545978D01*
X133926Y546476D02*
X140894Y546476D01*
X140894Y546974D02*
X133926Y546974D01*
D20*
X152400Y540703D03*
D10*
X846281Y436181D02*
X856299Y436181D01*
X846281Y436181D02*
X846281Y445199D01*
X856299Y445199D01*
X856299Y436181D01*
X856299Y436632D02*
X846281Y436632D01*
X846281Y437083D02*
X856299Y437083D01*
X856299Y437534D02*
X846281Y437534D01*
X846281Y437985D02*
X856299Y437985D01*
X856299Y438436D02*
X846281Y438436D01*
X846281Y438887D02*
X856299Y438887D01*
X856299Y439338D02*
X846281Y439338D01*
X846281Y439789D02*
X856299Y439789D01*
X856299Y440240D02*
X846281Y440240D01*
X846281Y440691D02*
X856299Y440691D01*
X856299Y441142D02*
X846281Y441142D01*
X846281Y441593D02*
X856299Y441593D01*
X856299Y442044D02*
X846281Y442044D01*
X846281Y442495D02*
X856299Y442495D01*
X856299Y442946D02*
X846281Y442946D01*
X846281Y443397D02*
X856299Y443397D01*
X856299Y443848D02*
X846281Y443848D01*
X846281Y444299D02*
X856299Y444299D01*
X856299Y444750D02*
X846281Y444750D01*
X863281Y436181D02*
X873299Y436181D01*
X863281Y436181D02*
X863281Y445199D01*
X873299Y445199D01*
X873299Y436181D01*
X873299Y436632D02*
X863281Y436632D01*
X863281Y437083D02*
X873299Y437083D01*
X873299Y437534D02*
X863281Y437534D01*
X863281Y437985D02*
X873299Y437985D01*
X873299Y438436D02*
X863281Y438436D01*
X863281Y438887D02*
X873299Y438887D01*
X873299Y439338D02*
X863281Y439338D01*
X863281Y439789D02*
X873299Y439789D01*
X873299Y440240D02*
X863281Y440240D01*
X863281Y440691D02*
X873299Y440691D01*
X873299Y441142D02*
X863281Y441142D01*
X863281Y441593D02*
X873299Y441593D01*
X873299Y442044D02*
X863281Y442044D01*
X863281Y442495D02*
X873299Y442495D01*
X873299Y442946D02*
X863281Y442946D01*
X863281Y443397D02*
X873299Y443397D01*
X873299Y443848D02*
X863281Y443848D01*
X863281Y444299D02*
X873299Y444299D01*
X873299Y444750D02*
X863281Y444750D01*
X849559Y533091D02*
X849559Y542109D01*
X849559Y533091D02*
X839541Y533091D01*
X839541Y542109D01*
X849559Y542109D01*
X849559Y533542D02*
X839541Y533542D01*
X839541Y533993D02*
X849559Y533993D01*
X849559Y534444D02*
X839541Y534444D01*
X839541Y534895D02*
X849559Y534895D01*
X849559Y535346D02*
X839541Y535346D01*
X839541Y535797D02*
X849559Y535797D01*
X849559Y536248D02*
X839541Y536248D01*
X839541Y536699D02*
X849559Y536699D01*
X849559Y537150D02*
X839541Y537150D01*
X839541Y537601D02*
X849559Y537601D01*
X849559Y538052D02*
X839541Y538052D01*
X839541Y538503D02*
X849559Y538503D01*
X849559Y538954D02*
X839541Y538954D01*
X839541Y539405D02*
X849559Y539405D01*
X849559Y539856D02*
X839541Y539856D01*
X839541Y540307D02*
X849559Y540307D01*
X849559Y540758D02*
X839541Y540758D01*
X839541Y541209D02*
X849559Y541209D01*
X849559Y541660D02*
X839541Y541660D01*
X849559Y550091D02*
X849559Y559109D01*
X849559Y550091D02*
X839541Y550091D01*
X839541Y559109D01*
X849559Y559109D01*
X849559Y550542D02*
X839541Y550542D01*
X839541Y550993D02*
X849559Y550993D01*
X849559Y551444D02*
X839541Y551444D01*
X839541Y551895D02*
X849559Y551895D01*
X849559Y552346D02*
X839541Y552346D01*
X839541Y552797D02*
X849559Y552797D01*
X849559Y553248D02*
X839541Y553248D01*
X839541Y553699D02*
X849559Y553699D01*
X849559Y554150D02*
X839541Y554150D01*
X839541Y554601D02*
X849559Y554601D01*
X849559Y555052D02*
X839541Y555052D01*
X839541Y555503D02*
X849559Y555503D01*
X849559Y555954D02*
X839541Y555954D01*
X839541Y556405D02*
X849559Y556405D01*
X849559Y556856D02*
X839541Y556856D01*
X839541Y557307D02*
X849559Y557307D01*
X849559Y557758D02*
X839541Y557758D01*
X839541Y558209D02*
X849559Y558209D01*
X849559Y558660D02*
X839541Y558660D01*
X743759Y371539D02*
X733741Y371539D01*
X743759Y371539D02*
X743759Y362521D01*
X733741Y362521D01*
X733741Y371539D01*
X733741Y362972D02*
X743759Y362972D01*
X743759Y363423D02*
X733741Y363423D01*
X733741Y363874D02*
X743759Y363874D01*
X743759Y364325D02*
X733741Y364325D01*
X733741Y364776D02*
X743759Y364776D01*
X743759Y365227D02*
X733741Y365227D01*
X733741Y365678D02*
X743759Y365678D01*
X743759Y366129D02*
X733741Y366129D01*
X733741Y366580D02*
X743759Y366580D01*
X743759Y367031D02*
X733741Y367031D01*
X733741Y367482D02*
X743759Y367482D01*
X743759Y367933D02*
X733741Y367933D01*
X733741Y368384D02*
X743759Y368384D01*
X743759Y368835D02*
X733741Y368835D01*
X733741Y369286D02*
X743759Y369286D01*
X743759Y369737D02*
X733741Y369737D01*
X733741Y370188D02*
X743759Y370188D01*
X743759Y370639D02*
X733741Y370639D01*
X733741Y371090D02*
X743759Y371090D01*
X726759Y371539D02*
X716741Y371539D01*
X726759Y371539D02*
X726759Y362521D01*
X716741Y362521D01*
X716741Y371539D01*
X716741Y362972D02*
X726759Y362972D01*
X726759Y363423D02*
X716741Y363423D01*
X716741Y363874D02*
X726759Y363874D01*
X726759Y364325D02*
X716741Y364325D01*
X716741Y364776D02*
X726759Y364776D01*
X726759Y365227D02*
X716741Y365227D01*
X716741Y365678D02*
X726759Y365678D01*
X726759Y366129D02*
X716741Y366129D01*
X716741Y366580D02*
X726759Y366580D01*
X726759Y367031D02*
X716741Y367031D01*
X716741Y367482D02*
X726759Y367482D01*
X726759Y367933D02*
X716741Y367933D01*
X716741Y368384D02*
X726759Y368384D01*
X726759Y368835D02*
X716741Y368835D01*
X716741Y369286D02*
X726759Y369286D01*
X726759Y369737D02*
X716741Y369737D01*
X716741Y370188D02*
X726759Y370188D01*
X726759Y370639D02*
X716741Y370639D01*
X716741Y371090D02*
X726759Y371090D01*
D21*
X716016Y336306D02*
X767344Y336306D01*
X767344Y319014D01*
X716016Y319014D01*
X716016Y336306D01*
X716016Y320443D02*
X767344Y320443D01*
X767344Y321872D02*
X716016Y321872D01*
X716016Y323301D02*
X767344Y323301D01*
X767344Y324730D02*
X716016Y324730D01*
X716016Y326159D02*
X767344Y326159D01*
X767344Y327588D02*
X716016Y327588D01*
X716016Y329017D02*
X767344Y329017D01*
X767344Y330446D02*
X716016Y330446D01*
X716016Y331875D02*
X767344Y331875D01*
X767344Y333304D02*
X716016Y333304D01*
X716016Y334733D02*
X767344Y334733D01*
X767344Y336162D02*
X716016Y336162D01*
X670824Y336306D02*
X619496Y336306D01*
X670824Y336306D02*
X670824Y319014D01*
X619496Y319014D01*
X619496Y336306D01*
X619496Y320443D02*
X670824Y320443D01*
X670824Y321872D02*
X619496Y321872D01*
X619496Y323301D02*
X670824Y323301D01*
X670824Y324730D02*
X619496Y324730D01*
X619496Y326159D02*
X670824Y326159D01*
X670824Y327588D02*
X619496Y327588D01*
X619496Y329017D02*
X670824Y329017D01*
X670824Y330446D02*
X619496Y330446D01*
X619496Y331875D02*
X670824Y331875D01*
X670824Y333304D02*
X619496Y333304D01*
X619496Y334733D02*
X670824Y334733D01*
X670824Y336162D02*
X619496Y336162D01*
D10*
X638001Y290131D02*
X648019Y290131D01*
X638001Y290131D02*
X638001Y299149D01*
X648019Y299149D01*
X648019Y290131D01*
X648019Y290582D02*
X638001Y290582D01*
X638001Y291033D02*
X648019Y291033D01*
X648019Y291484D02*
X638001Y291484D01*
X638001Y291935D02*
X648019Y291935D01*
X648019Y292386D02*
X638001Y292386D01*
X638001Y292837D02*
X648019Y292837D01*
X648019Y293288D02*
X638001Y293288D01*
X638001Y293739D02*
X648019Y293739D01*
X648019Y294190D02*
X638001Y294190D01*
X638001Y294641D02*
X648019Y294641D01*
X648019Y295092D02*
X638001Y295092D01*
X638001Y295543D02*
X648019Y295543D01*
X648019Y295994D02*
X638001Y295994D01*
X638001Y296445D02*
X648019Y296445D01*
X648019Y296896D02*
X638001Y296896D01*
X638001Y297347D02*
X648019Y297347D01*
X648019Y297798D02*
X638001Y297798D01*
X638001Y298249D02*
X648019Y298249D01*
X648019Y298700D02*
X638001Y298700D01*
X655001Y290131D02*
X665019Y290131D01*
X655001Y290131D02*
X655001Y299149D01*
X665019Y299149D01*
X665019Y290131D01*
X665019Y290582D02*
X655001Y290582D01*
X655001Y291033D02*
X665019Y291033D01*
X665019Y291484D02*
X655001Y291484D01*
X655001Y291935D02*
X665019Y291935D01*
X665019Y292386D02*
X655001Y292386D01*
X655001Y292837D02*
X665019Y292837D01*
X665019Y293288D02*
X655001Y293288D01*
X655001Y293739D02*
X665019Y293739D01*
X665019Y294190D02*
X655001Y294190D01*
X655001Y294641D02*
X665019Y294641D01*
X665019Y295092D02*
X655001Y295092D01*
X655001Y295543D02*
X665019Y295543D01*
X665019Y295994D02*
X655001Y295994D01*
X655001Y296445D02*
X665019Y296445D01*
X665019Y296896D02*
X655001Y296896D01*
X655001Y297347D02*
X665019Y297347D01*
X665019Y297798D02*
X655001Y297798D01*
X655001Y298249D02*
X665019Y298249D01*
X665019Y298700D02*
X655001Y298700D01*
X738821Y296609D02*
X748839Y296609D01*
X748839Y287591D01*
X738821Y287591D01*
X738821Y296609D01*
X738821Y288042D02*
X748839Y288042D01*
X748839Y288493D02*
X738821Y288493D01*
X738821Y288944D02*
X748839Y288944D01*
X748839Y289395D02*
X738821Y289395D01*
X738821Y289846D02*
X748839Y289846D01*
X748839Y290297D02*
X738821Y290297D01*
X738821Y290748D02*
X748839Y290748D01*
X748839Y291199D02*
X738821Y291199D01*
X738821Y291650D02*
X748839Y291650D01*
X748839Y292101D02*
X738821Y292101D01*
X738821Y292552D02*
X748839Y292552D01*
X748839Y293003D02*
X738821Y293003D01*
X738821Y293454D02*
X748839Y293454D01*
X748839Y293905D02*
X738821Y293905D01*
X738821Y294356D02*
X748839Y294356D01*
X748839Y294807D02*
X738821Y294807D01*
X738821Y295258D02*
X748839Y295258D01*
X748839Y295709D02*
X738821Y295709D01*
X738821Y296160D02*
X748839Y296160D01*
X731839Y296609D02*
X721821Y296609D01*
X731839Y296609D02*
X731839Y287591D01*
X721821Y287591D01*
X721821Y296609D01*
X721821Y288042D02*
X731839Y288042D01*
X731839Y288493D02*
X721821Y288493D01*
X721821Y288944D02*
X731839Y288944D01*
X731839Y289395D02*
X721821Y289395D01*
X721821Y289846D02*
X731839Y289846D01*
X731839Y290297D02*
X721821Y290297D01*
X721821Y290748D02*
X731839Y290748D01*
X731839Y291199D02*
X721821Y291199D01*
X721821Y291650D02*
X731839Y291650D01*
X731839Y292101D02*
X721821Y292101D01*
X721821Y292552D02*
X731839Y292552D01*
X731839Y293003D02*
X721821Y293003D01*
X721821Y293454D02*
X731839Y293454D01*
X731839Y293905D02*
X721821Y293905D01*
X721821Y294356D02*
X731839Y294356D01*
X731839Y294807D02*
X721821Y294807D01*
X721821Y295258D02*
X731839Y295258D01*
X731839Y295709D02*
X721821Y295709D01*
X721821Y296160D02*
X731839Y296160D01*
X899859Y532591D02*
X899859Y542609D01*
X899859Y532591D02*
X890841Y532591D01*
X890841Y542609D01*
X899859Y542609D01*
X899859Y533042D02*
X890841Y533042D01*
X890841Y533493D02*
X899859Y533493D01*
X899859Y533944D02*
X890841Y533944D01*
X890841Y534395D02*
X899859Y534395D01*
X899859Y534846D02*
X890841Y534846D01*
X890841Y535297D02*
X899859Y535297D01*
X899859Y535748D02*
X890841Y535748D01*
X890841Y536199D02*
X899859Y536199D01*
X899859Y536650D02*
X890841Y536650D01*
X890841Y537101D02*
X899859Y537101D01*
X899859Y537552D02*
X890841Y537552D01*
X890841Y538003D02*
X899859Y538003D01*
X899859Y538454D02*
X890841Y538454D01*
X890841Y538905D02*
X899859Y538905D01*
X899859Y539356D02*
X890841Y539356D01*
X890841Y539807D02*
X899859Y539807D01*
X899859Y540258D02*
X890841Y540258D01*
X890841Y540709D02*
X899859Y540709D01*
X899859Y541160D02*
X890841Y541160D01*
X890841Y541611D02*
X899859Y541611D01*
X899859Y542062D02*
X890841Y542062D01*
X890841Y542513D02*
X899859Y542513D01*
X899859Y549591D02*
X899859Y559609D01*
X899859Y549591D02*
X890841Y549591D01*
X890841Y559609D01*
X899859Y559609D01*
X899859Y550042D02*
X890841Y550042D01*
X890841Y550493D02*
X899859Y550493D01*
X899859Y550944D02*
X890841Y550944D01*
X890841Y551395D02*
X899859Y551395D01*
X899859Y551846D02*
X890841Y551846D01*
X890841Y552297D02*
X899859Y552297D01*
X899859Y552748D02*
X890841Y552748D01*
X890841Y553199D02*
X899859Y553199D01*
X899859Y553650D02*
X890841Y553650D01*
X890841Y554101D02*
X899859Y554101D01*
X899859Y554552D02*
X890841Y554552D01*
X890841Y555003D02*
X899859Y555003D01*
X899859Y555454D02*
X890841Y555454D01*
X890841Y555905D02*
X899859Y555905D01*
X899859Y556356D02*
X890841Y556356D01*
X890841Y556807D02*
X899859Y556807D01*
X899859Y557258D02*
X890841Y557258D01*
X890841Y557709D02*
X899859Y557709D01*
X899859Y558160D02*
X890841Y558160D01*
X890841Y558611D02*
X899859Y558611D01*
X899859Y559062D02*
X890841Y559062D01*
X890841Y559513D02*
X899859Y559513D01*
D22*
X736645Y411060D02*
X728384Y402799D01*
X725151Y406032D01*
X733412Y414293D01*
X736645Y411060D01*
X728867Y403282D02*
X727901Y403282D01*
X727418Y403765D02*
X729350Y403765D01*
X729833Y404248D02*
X726935Y404248D01*
X726452Y404731D02*
X730316Y404731D01*
X730799Y405214D02*
X725969Y405214D01*
X725486Y405697D02*
X731282Y405697D01*
X731765Y406180D02*
X725299Y406180D01*
X725782Y406663D02*
X732248Y406663D01*
X732731Y407146D02*
X726265Y407146D01*
X726748Y407629D02*
X733214Y407629D01*
X733697Y408112D02*
X727231Y408112D01*
X727714Y408595D02*
X734180Y408595D01*
X734663Y409078D02*
X728197Y409078D01*
X728680Y409561D02*
X735146Y409561D01*
X735629Y410044D02*
X729163Y410044D01*
X729646Y410527D02*
X736112Y410527D01*
X736595Y411010D02*
X730129Y411010D01*
X730612Y411493D02*
X736212Y411493D01*
X735729Y411976D02*
X731095Y411976D01*
X731578Y412459D02*
X735246Y412459D01*
X734763Y412942D02*
X732061Y412942D01*
X732544Y413425D02*
X734280Y413425D01*
X733797Y413908D02*
X733027Y413908D01*
X742302Y405403D02*
X734041Y397142D01*
X730808Y400375D01*
X739069Y408636D01*
X742302Y405403D01*
X734524Y397625D02*
X733558Y397625D01*
X733075Y398108D02*
X735007Y398108D01*
X735490Y398591D02*
X732592Y398591D01*
X732109Y399074D02*
X735973Y399074D01*
X736456Y399557D02*
X731626Y399557D01*
X731143Y400040D02*
X736939Y400040D01*
X737422Y400523D02*
X730956Y400523D01*
X731439Y401006D02*
X737905Y401006D01*
X738388Y401489D02*
X731922Y401489D01*
X732405Y401972D02*
X738871Y401972D01*
X739354Y402455D02*
X732888Y402455D01*
X733371Y402938D02*
X739837Y402938D01*
X740320Y403421D02*
X733854Y403421D01*
X734337Y403904D02*
X740803Y403904D01*
X741286Y404387D02*
X734820Y404387D01*
X735303Y404870D02*
X741769Y404870D01*
X742252Y405353D02*
X735786Y405353D01*
X736269Y405836D02*
X741869Y405836D01*
X741386Y406319D02*
X736752Y406319D01*
X737235Y406802D02*
X740903Y406802D01*
X740420Y407285D02*
X737718Y407285D01*
X738201Y407768D02*
X739937Y407768D01*
X739454Y408251D02*
X738684Y408251D01*
X747958Y399746D02*
X739697Y391485D01*
X736464Y394718D01*
X744725Y402979D01*
X747958Y399746D01*
X740180Y391968D02*
X739214Y391968D01*
X738731Y392451D02*
X740663Y392451D01*
X741146Y392934D02*
X738248Y392934D01*
X737765Y393417D02*
X741629Y393417D01*
X742112Y393900D02*
X737282Y393900D01*
X736799Y394383D02*
X742595Y394383D01*
X743078Y394866D02*
X736612Y394866D01*
X737095Y395349D02*
X743561Y395349D01*
X744044Y395832D02*
X737578Y395832D01*
X738061Y396315D02*
X744527Y396315D01*
X745010Y396798D02*
X738544Y396798D01*
X739027Y397281D02*
X745493Y397281D01*
X745976Y397764D02*
X739510Y397764D01*
X739993Y398247D02*
X746459Y398247D01*
X746942Y398730D02*
X740476Y398730D01*
X740959Y399213D02*
X747425Y399213D01*
X747908Y399696D02*
X741442Y399696D01*
X741925Y400179D02*
X747525Y400179D01*
X747042Y400662D02*
X742408Y400662D01*
X742891Y401145D02*
X746559Y401145D01*
X746076Y401628D02*
X743374Y401628D01*
X743857Y402111D02*
X745593Y402111D01*
X745110Y402594D02*
X744340Y402594D01*
X753615Y394089D02*
X745354Y385828D01*
X742121Y389061D01*
X750382Y397322D01*
X753615Y394089D01*
X745837Y386311D02*
X744871Y386311D01*
X744388Y386794D02*
X746320Y386794D01*
X746803Y387277D02*
X743905Y387277D01*
X743422Y387760D02*
X747286Y387760D01*
X747769Y388243D02*
X742939Y388243D01*
X742456Y388726D02*
X748252Y388726D01*
X748735Y389209D02*
X742269Y389209D01*
X742752Y389692D02*
X749218Y389692D01*
X749701Y390175D02*
X743235Y390175D01*
X743718Y390658D02*
X750184Y390658D01*
X750667Y391141D02*
X744201Y391141D01*
X744684Y391624D02*
X751150Y391624D01*
X751633Y392107D02*
X745167Y392107D01*
X745650Y392590D02*
X752116Y392590D01*
X752599Y393073D02*
X746133Y393073D01*
X746616Y393556D02*
X753082Y393556D01*
X753565Y394039D02*
X747099Y394039D01*
X747582Y394522D02*
X753182Y394522D01*
X752699Y395005D02*
X748065Y395005D01*
X748548Y395488D02*
X752216Y395488D01*
X751733Y395971D02*
X749031Y395971D01*
X749514Y396454D02*
X751250Y396454D01*
X750767Y396937D02*
X749997Y396937D01*
X759272Y388432D02*
X751011Y380171D01*
X747778Y383404D01*
X756039Y391665D01*
X759272Y388432D01*
X751494Y380654D02*
X750528Y380654D01*
X750045Y381137D02*
X751977Y381137D01*
X752460Y381620D02*
X749562Y381620D01*
X749079Y382103D02*
X752943Y382103D01*
X753426Y382586D02*
X748596Y382586D01*
X748113Y383069D02*
X753909Y383069D01*
X754392Y383552D02*
X747926Y383552D01*
X748409Y384035D02*
X754875Y384035D01*
X755358Y384518D02*
X748892Y384518D01*
X749375Y385001D02*
X755841Y385001D01*
X756324Y385484D02*
X749858Y385484D01*
X750341Y385967D02*
X756807Y385967D01*
X757290Y386450D02*
X750824Y386450D01*
X751307Y386933D02*
X757773Y386933D01*
X758256Y387416D02*
X751790Y387416D01*
X752273Y387899D02*
X758739Y387899D01*
X759222Y388382D02*
X752756Y388382D01*
X753239Y388865D02*
X758839Y388865D01*
X758356Y389348D02*
X753722Y389348D01*
X754205Y389831D02*
X757873Y389831D01*
X757390Y390314D02*
X754688Y390314D01*
X755171Y390797D02*
X756907Y390797D01*
X756424Y391280D02*
X755654Y391280D01*
X764929Y382775D02*
X756668Y374514D01*
X753435Y377747D01*
X761696Y386008D01*
X764929Y382775D01*
X757151Y374997D02*
X756185Y374997D01*
X755702Y375480D02*
X757634Y375480D01*
X758117Y375963D02*
X755219Y375963D01*
X754736Y376446D02*
X758600Y376446D01*
X759083Y376929D02*
X754253Y376929D01*
X753770Y377412D02*
X759566Y377412D01*
X760049Y377895D02*
X753583Y377895D01*
X754066Y378378D02*
X760532Y378378D01*
X761015Y378861D02*
X754549Y378861D01*
X755032Y379344D02*
X761498Y379344D01*
X761981Y379827D02*
X755515Y379827D01*
X755998Y380310D02*
X762464Y380310D01*
X762947Y380793D02*
X756481Y380793D01*
X756964Y381276D02*
X763430Y381276D01*
X763913Y381759D02*
X757447Y381759D01*
X757930Y382242D02*
X764396Y382242D01*
X764879Y382725D02*
X758413Y382725D01*
X758896Y383208D02*
X764496Y383208D01*
X764013Y383691D02*
X759379Y383691D01*
X759862Y384174D02*
X763530Y384174D01*
X763047Y384657D02*
X760345Y384657D01*
X760828Y385140D02*
X762564Y385140D01*
X762081Y385623D02*
X761311Y385623D01*
X770586Y377119D02*
X762325Y368858D01*
X759092Y372091D01*
X767353Y380352D01*
X770586Y377119D01*
X762808Y369341D02*
X761842Y369341D01*
X761359Y369824D02*
X763291Y369824D01*
X763774Y370307D02*
X760876Y370307D01*
X760393Y370790D02*
X764257Y370790D01*
X764740Y371273D02*
X759910Y371273D01*
X759427Y371756D02*
X765223Y371756D01*
X765706Y372239D02*
X759240Y372239D01*
X759723Y372722D02*
X766189Y372722D01*
X766672Y373205D02*
X760206Y373205D01*
X760689Y373688D02*
X767155Y373688D01*
X767638Y374171D02*
X761172Y374171D01*
X761655Y374654D02*
X768121Y374654D01*
X768604Y375137D02*
X762138Y375137D01*
X762621Y375620D02*
X769087Y375620D01*
X769570Y376103D02*
X763104Y376103D01*
X763587Y376586D02*
X770053Y376586D01*
X770536Y377069D02*
X764070Y377069D01*
X764553Y377552D02*
X770153Y377552D01*
X769670Y378035D02*
X765036Y378035D01*
X765519Y378518D02*
X769187Y378518D01*
X768704Y379001D02*
X766002Y379001D01*
X766485Y379484D02*
X768221Y379484D01*
X767738Y379967D02*
X766968Y379967D01*
X776243Y371462D02*
X767982Y363201D01*
X764749Y366434D01*
X773010Y374695D01*
X776243Y371462D01*
X768465Y363684D02*
X767499Y363684D01*
X767016Y364167D02*
X768948Y364167D01*
X769431Y364650D02*
X766533Y364650D01*
X766050Y365133D02*
X769914Y365133D01*
X770397Y365616D02*
X765567Y365616D01*
X765084Y366099D02*
X770880Y366099D01*
X771363Y366582D02*
X764897Y366582D01*
X765380Y367065D02*
X771846Y367065D01*
X772329Y367548D02*
X765863Y367548D01*
X766346Y368031D02*
X772812Y368031D01*
X773295Y368514D02*
X766829Y368514D01*
X767312Y368997D02*
X773778Y368997D01*
X774261Y369480D02*
X767795Y369480D01*
X768278Y369963D02*
X774744Y369963D01*
X775227Y370446D02*
X768761Y370446D01*
X769244Y370929D02*
X775710Y370929D01*
X776193Y371412D02*
X769727Y371412D01*
X770210Y371895D02*
X775810Y371895D01*
X775327Y372378D02*
X770693Y372378D01*
X771176Y372861D02*
X774844Y372861D01*
X774361Y373344D02*
X771659Y373344D01*
X772142Y373827D02*
X773878Y373827D01*
X773395Y374310D02*
X772625Y374310D01*
X794118Y363201D02*
X797351Y366434D01*
X794118Y363201D02*
X785857Y371462D01*
X789090Y374695D01*
X797351Y366434D01*
X794601Y363684D02*
X793635Y363684D01*
X793152Y364167D02*
X795084Y364167D01*
X795567Y364650D02*
X792669Y364650D01*
X792186Y365133D02*
X796050Y365133D01*
X796533Y365616D02*
X791703Y365616D01*
X791220Y366099D02*
X797016Y366099D01*
X797203Y366582D02*
X790737Y366582D01*
X790254Y367065D02*
X796720Y367065D01*
X796237Y367548D02*
X789771Y367548D01*
X789288Y368031D02*
X795754Y368031D01*
X795271Y368514D02*
X788805Y368514D01*
X788322Y368997D02*
X794788Y368997D01*
X794305Y369480D02*
X787839Y369480D01*
X787356Y369963D02*
X793822Y369963D01*
X793339Y370446D02*
X786873Y370446D01*
X786390Y370929D02*
X792856Y370929D01*
X792373Y371412D02*
X785907Y371412D01*
X786290Y371895D02*
X791890Y371895D01*
X791407Y372378D02*
X786773Y372378D01*
X787256Y372861D02*
X790924Y372861D01*
X790441Y373344D02*
X787739Y373344D01*
X788222Y373827D02*
X789958Y373827D01*
X789475Y374310D02*
X788705Y374310D01*
X799775Y368858D02*
X803008Y372091D01*
X799775Y368858D02*
X791514Y377119D01*
X794747Y380352D01*
X803008Y372091D01*
X800258Y369341D02*
X799292Y369341D01*
X798809Y369824D02*
X800741Y369824D01*
X801224Y370307D02*
X798326Y370307D01*
X797843Y370790D02*
X801707Y370790D01*
X802190Y371273D02*
X797360Y371273D01*
X796877Y371756D02*
X802673Y371756D01*
X802860Y372239D02*
X796394Y372239D01*
X795911Y372722D02*
X802377Y372722D01*
X801894Y373205D02*
X795428Y373205D01*
X794945Y373688D02*
X801411Y373688D01*
X800928Y374171D02*
X794462Y374171D01*
X793979Y374654D02*
X800445Y374654D01*
X799962Y375137D02*
X793496Y375137D01*
X793013Y375620D02*
X799479Y375620D01*
X798996Y376103D02*
X792530Y376103D01*
X792047Y376586D02*
X798513Y376586D01*
X798030Y377069D02*
X791564Y377069D01*
X791947Y377552D02*
X797547Y377552D01*
X797064Y378035D02*
X792430Y378035D01*
X792913Y378518D02*
X796581Y378518D01*
X796098Y379001D02*
X793396Y379001D01*
X793879Y379484D02*
X795615Y379484D01*
X795132Y379967D02*
X794362Y379967D01*
X805432Y374514D02*
X808665Y377747D01*
X805432Y374514D02*
X797171Y382775D01*
X800404Y386008D01*
X808665Y377747D01*
X805915Y374997D02*
X804949Y374997D01*
X804466Y375480D02*
X806398Y375480D01*
X806881Y375963D02*
X803983Y375963D01*
X803500Y376446D02*
X807364Y376446D01*
X807847Y376929D02*
X803017Y376929D01*
X802534Y377412D02*
X808330Y377412D01*
X808517Y377895D02*
X802051Y377895D01*
X801568Y378378D02*
X808034Y378378D01*
X807551Y378861D02*
X801085Y378861D01*
X800602Y379344D02*
X807068Y379344D01*
X806585Y379827D02*
X800119Y379827D01*
X799636Y380310D02*
X806102Y380310D01*
X805619Y380793D02*
X799153Y380793D01*
X798670Y381276D02*
X805136Y381276D01*
X804653Y381759D02*
X798187Y381759D01*
X797704Y382242D02*
X804170Y382242D01*
X803687Y382725D02*
X797221Y382725D01*
X797604Y383208D02*
X803204Y383208D01*
X802721Y383691D02*
X798087Y383691D01*
X798570Y384174D02*
X802238Y384174D01*
X801755Y384657D02*
X799053Y384657D01*
X799536Y385140D02*
X801272Y385140D01*
X800789Y385623D02*
X800019Y385623D01*
X811089Y380171D02*
X814322Y383404D01*
X811089Y380171D02*
X802828Y388432D01*
X806061Y391665D01*
X814322Y383404D01*
X811572Y380654D02*
X810606Y380654D01*
X810123Y381137D02*
X812055Y381137D01*
X812538Y381620D02*
X809640Y381620D01*
X809157Y382103D02*
X813021Y382103D01*
X813504Y382586D02*
X808674Y382586D01*
X808191Y383069D02*
X813987Y383069D01*
X814174Y383552D02*
X807708Y383552D01*
X807225Y384035D02*
X813691Y384035D01*
X813208Y384518D02*
X806742Y384518D01*
X806259Y385001D02*
X812725Y385001D01*
X812242Y385484D02*
X805776Y385484D01*
X805293Y385967D02*
X811759Y385967D01*
X811276Y386450D02*
X804810Y386450D01*
X804327Y386933D02*
X810793Y386933D01*
X810310Y387416D02*
X803844Y387416D01*
X803361Y387899D02*
X809827Y387899D01*
X809344Y388382D02*
X802878Y388382D01*
X803261Y388865D02*
X808861Y388865D01*
X808378Y389348D02*
X803744Y389348D01*
X804227Y389831D02*
X807895Y389831D01*
X807412Y390314D02*
X804710Y390314D01*
X805193Y390797D02*
X806929Y390797D01*
X806446Y391280D02*
X805676Y391280D01*
X816746Y385828D02*
X819979Y389061D01*
X816746Y385828D02*
X808485Y394089D01*
X811718Y397322D01*
X819979Y389061D01*
X817229Y386311D02*
X816263Y386311D01*
X815780Y386794D02*
X817712Y386794D01*
X818195Y387277D02*
X815297Y387277D01*
X814814Y387760D02*
X818678Y387760D01*
X819161Y388243D02*
X814331Y388243D01*
X813848Y388726D02*
X819644Y388726D01*
X819831Y389209D02*
X813365Y389209D01*
X812882Y389692D02*
X819348Y389692D01*
X818865Y390175D02*
X812399Y390175D01*
X811916Y390658D02*
X818382Y390658D01*
X817899Y391141D02*
X811433Y391141D01*
X810950Y391624D02*
X817416Y391624D01*
X816933Y392107D02*
X810467Y392107D01*
X809984Y392590D02*
X816450Y392590D01*
X815967Y393073D02*
X809501Y393073D01*
X809018Y393556D02*
X815484Y393556D01*
X815001Y394039D02*
X808535Y394039D01*
X808918Y394522D02*
X814518Y394522D01*
X814035Y395005D02*
X809401Y395005D01*
X809884Y395488D02*
X813552Y395488D01*
X813069Y395971D02*
X810367Y395971D01*
X810850Y396454D02*
X812586Y396454D01*
X812103Y396937D02*
X811333Y396937D01*
X822403Y391485D02*
X825636Y394718D01*
X822403Y391485D02*
X814142Y399746D01*
X817375Y402979D01*
X825636Y394718D01*
X822886Y391968D02*
X821920Y391968D01*
X821437Y392451D02*
X823369Y392451D01*
X823852Y392934D02*
X820954Y392934D01*
X820471Y393417D02*
X824335Y393417D01*
X824818Y393900D02*
X819988Y393900D01*
X819505Y394383D02*
X825301Y394383D01*
X825488Y394866D02*
X819022Y394866D01*
X818539Y395349D02*
X825005Y395349D01*
X824522Y395832D02*
X818056Y395832D01*
X817573Y396315D02*
X824039Y396315D01*
X823556Y396798D02*
X817090Y396798D01*
X816607Y397281D02*
X823073Y397281D01*
X822590Y397764D02*
X816124Y397764D01*
X815641Y398247D02*
X822107Y398247D01*
X821624Y398730D02*
X815158Y398730D01*
X814675Y399213D02*
X821141Y399213D01*
X820658Y399696D02*
X814192Y399696D01*
X814575Y400179D02*
X820175Y400179D01*
X819692Y400662D02*
X815058Y400662D01*
X815541Y401145D02*
X819209Y401145D01*
X818726Y401628D02*
X816024Y401628D01*
X816507Y402111D02*
X818243Y402111D01*
X817760Y402594D02*
X816990Y402594D01*
X828059Y397142D02*
X831292Y400375D01*
X828059Y397142D02*
X819798Y405403D01*
X823031Y408636D01*
X831292Y400375D01*
X828542Y397625D02*
X827576Y397625D01*
X827093Y398108D02*
X829025Y398108D01*
X829508Y398591D02*
X826610Y398591D01*
X826127Y399074D02*
X829991Y399074D01*
X830474Y399557D02*
X825644Y399557D01*
X825161Y400040D02*
X830957Y400040D01*
X831144Y400523D02*
X824678Y400523D01*
X824195Y401006D02*
X830661Y401006D01*
X830178Y401489D02*
X823712Y401489D01*
X823229Y401972D02*
X829695Y401972D01*
X829212Y402455D02*
X822746Y402455D01*
X822263Y402938D02*
X828729Y402938D01*
X828246Y403421D02*
X821780Y403421D01*
X821297Y403904D02*
X827763Y403904D01*
X827280Y404387D02*
X820814Y404387D01*
X820331Y404870D02*
X826797Y404870D01*
X826314Y405353D02*
X819848Y405353D01*
X820231Y405836D02*
X825831Y405836D01*
X825348Y406319D02*
X820714Y406319D01*
X821197Y406802D02*
X824865Y406802D01*
X824382Y407285D02*
X821680Y407285D01*
X822163Y407768D02*
X823899Y407768D01*
X823416Y408251D02*
X822646Y408251D01*
X833716Y402799D02*
X836949Y406032D01*
X833716Y402799D02*
X825455Y411060D01*
X828688Y414293D01*
X836949Y406032D01*
X834199Y403282D02*
X833233Y403282D01*
X832750Y403765D02*
X834682Y403765D01*
X835165Y404248D02*
X832267Y404248D01*
X831784Y404731D02*
X835648Y404731D01*
X836131Y405214D02*
X831301Y405214D01*
X830818Y405697D02*
X836614Y405697D01*
X836801Y406180D02*
X830335Y406180D01*
X829852Y406663D02*
X836318Y406663D01*
X835835Y407146D02*
X829369Y407146D01*
X828886Y407629D02*
X835352Y407629D01*
X834869Y408112D02*
X828403Y408112D01*
X827920Y408595D02*
X834386Y408595D01*
X833903Y409078D02*
X827437Y409078D01*
X826954Y409561D02*
X833420Y409561D01*
X832937Y410044D02*
X826471Y410044D01*
X825988Y410527D02*
X832454Y410527D01*
X831971Y411010D02*
X825505Y411010D01*
X825888Y411493D02*
X831488Y411493D01*
X831005Y411976D02*
X826371Y411976D01*
X826854Y412459D02*
X830522Y412459D01*
X830039Y412942D02*
X827337Y412942D01*
X827820Y413425D02*
X829556Y413425D01*
X829073Y413908D02*
X828303Y413908D01*
X828688Y423907D02*
X836949Y432168D01*
X828688Y423907D02*
X825455Y427140D01*
X833716Y435401D01*
X836949Y432168D01*
X829171Y424390D02*
X828205Y424390D01*
X827722Y424873D02*
X829654Y424873D01*
X830137Y425356D02*
X827239Y425356D01*
X826756Y425839D02*
X830620Y425839D01*
X831103Y426322D02*
X826273Y426322D01*
X825790Y426805D02*
X831586Y426805D01*
X832069Y427288D02*
X825603Y427288D01*
X826086Y427771D02*
X832552Y427771D01*
X833035Y428254D02*
X826569Y428254D01*
X827052Y428737D02*
X833518Y428737D01*
X834001Y429220D02*
X827535Y429220D01*
X828018Y429703D02*
X834484Y429703D01*
X834967Y430186D02*
X828501Y430186D01*
X828984Y430669D02*
X835450Y430669D01*
X835933Y431152D02*
X829467Y431152D01*
X829950Y431635D02*
X836416Y431635D01*
X836899Y432118D02*
X830433Y432118D01*
X830916Y432601D02*
X836516Y432601D01*
X836033Y433084D02*
X831399Y433084D01*
X831882Y433567D02*
X835550Y433567D01*
X835067Y434050D02*
X832365Y434050D01*
X832848Y434533D02*
X834584Y434533D01*
X834101Y435016D02*
X833331Y435016D01*
X831292Y437825D02*
X823031Y429564D01*
X819798Y432797D01*
X828059Y441058D01*
X831292Y437825D01*
X823514Y430047D02*
X822548Y430047D01*
X822065Y430530D02*
X823997Y430530D01*
X824480Y431013D02*
X821582Y431013D01*
X821099Y431496D02*
X824963Y431496D01*
X825446Y431979D02*
X820616Y431979D01*
X820133Y432462D02*
X825929Y432462D01*
X826412Y432945D02*
X819946Y432945D01*
X820429Y433428D02*
X826895Y433428D01*
X827378Y433911D02*
X820912Y433911D01*
X821395Y434394D02*
X827861Y434394D01*
X828344Y434877D02*
X821878Y434877D01*
X822361Y435360D02*
X828827Y435360D01*
X829310Y435843D02*
X822844Y435843D01*
X823327Y436326D02*
X829793Y436326D01*
X830276Y436809D02*
X823810Y436809D01*
X824293Y437292D02*
X830759Y437292D01*
X831242Y437775D02*
X824776Y437775D01*
X825259Y438258D02*
X830859Y438258D01*
X830376Y438741D02*
X825742Y438741D01*
X826225Y439224D02*
X829893Y439224D01*
X829410Y439707D02*
X826708Y439707D01*
X827191Y440190D02*
X828927Y440190D01*
X828444Y440673D02*
X827674Y440673D01*
X825636Y443482D02*
X817375Y435221D01*
X814142Y438454D01*
X822403Y446715D01*
X825636Y443482D01*
X817858Y435704D02*
X816892Y435704D01*
X816409Y436187D02*
X818341Y436187D01*
X818824Y436670D02*
X815926Y436670D01*
X815443Y437153D02*
X819307Y437153D01*
X819790Y437636D02*
X814960Y437636D01*
X814477Y438119D02*
X820273Y438119D01*
X820756Y438602D02*
X814290Y438602D01*
X814773Y439085D02*
X821239Y439085D01*
X821722Y439568D02*
X815256Y439568D01*
X815739Y440051D02*
X822205Y440051D01*
X822688Y440534D02*
X816222Y440534D01*
X816705Y441017D02*
X823171Y441017D01*
X823654Y441500D02*
X817188Y441500D01*
X817671Y441983D02*
X824137Y441983D01*
X824620Y442466D02*
X818154Y442466D01*
X818637Y442949D02*
X825103Y442949D01*
X825586Y443432D02*
X819120Y443432D01*
X819603Y443915D02*
X825203Y443915D01*
X824720Y444398D02*
X820086Y444398D01*
X820569Y444881D02*
X824237Y444881D01*
X823754Y445364D02*
X821052Y445364D01*
X821535Y445847D02*
X823271Y445847D01*
X822788Y446330D02*
X822018Y446330D01*
X819979Y449139D02*
X811718Y440878D01*
X808485Y444111D01*
X816746Y452372D01*
X819979Y449139D01*
X812201Y441361D02*
X811235Y441361D01*
X810752Y441844D02*
X812684Y441844D01*
X813167Y442327D02*
X810269Y442327D01*
X809786Y442810D02*
X813650Y442810D01*
X814133Y443293D02*
X809303Y443293D01*
X808820Y443776D02*
X814616Y443776D01*
X815099Y444259D02*
X808633Y444259D01*
X809116Y444742D02*
X815582Y444742D01*
X816065Y445225D02*
X809599Y445225D01*
X810082Y445708D02*
X816548Y445708D01*
X817031Y446191D02*
X810565Y446191D01*
X811048Y446674D02*
X817514Y446674D01*
X817997Y447157D02*
X811531Y447157D01*
X812014Y447640D02*
X818480Y447640D01*
X818963Y448123D02*
X812497Y448123D01*
X812980Y448606D02*
X819446Y448606D01*
X819929Y449089D02*
X813463Y449089D01*
X813946Y449572D02*
X819546Y449572D01*
X819063Y450055D02*
X814429Y450055D01*
X814912Y450538D02*
X818580Y450538D01*
X818097Y451021D02*
X815395Y451021D01*
X815878Y451504D02*
X817614Y451504D01*
X817131Y451987D02*
X816361Y451987D01*
X814322Y454796D02*
X806061Y446535D01*
X802828Y449768D01*
X811089Y458029D01*
X814322Y454796D01*
X806544Y447018D02*
X805578Y447018D01*
X805095Y447501D02*
X807027Y447501D01*
X807510Y447984D02*
X804612Y447984D01*
X804129Y448467D02*
X807993Y448467D01*
X808476Y448950D02*
X803646Y448950D01*
X803163Y449433D02*
X808959Y449433D01*
X809442Y449916D02*
X802976Y449916D01*
X803459Y450399D02*
X809925Y450399D01*
X810408Y450882D02*
X803942Y450882D01*
X804425Y451365D02*
X810891Y451365D01*
X811374Y451848D02*
X804908Y451848D01*
X805391Y452331D02*
X811857Y452331D01*
X812340Y452814D02*
X805874Y452814D01*
X806357Y453297D02*
X812823Y453297D01*
X813306Y453780D02*
X806840Y453780D01*
X807323Y454263D02*
X813789Y454263D01*
X814272Y454746D02*
X807806Y454746D01*
X808289Y455229D02*
X813889Y455229D01*
X813406Y455712D02*
X808772Y455712D01*
X809255Y456195D02*
X812923Y456195D01*
X812440Y456678D02*
X809738Y456678D01*
X810221Y457161D02*
X811957Y457161D01*
X811474Y457644D02*
X810704Y457644D01*
X808665Y460453D02*
X800404Y452192D01*
X797171Y455425D01*
X805432Y463686D01*
X808665Y460453D01*
X800887Y452675D02*
X799921Y452675D01*
X799438Y453158D02*
X801370Y453158D01*
X801853Y453641D02*
X798955Y453641D01*
X798472Y454124D02*
X802336Y454124D01*
X802819Y454607D02*
X797989Y454607D01*
X797506Y455090D02*
X803302Y455090D01*
X803785Y455573D02*
X797319Y455573D01*
X797802Y456056D02*
X804268Y456056D01*
X804751Y456539D02*
X798285Y456539D01*
X798768Y457022D02*
X805234Y457022D01*
X805717Y457505D02*
X799251Y457505D01*
X799734Y457988D02*
X806200Y457988D01*
X806683Y458471D02*
X800217Y458471D01*
X800700Y458954D02*
X807166Y458954D01*
X807649Y459437D02*
X801183Y459437D01*
X801666Y459920D02*
X808132Y459920D01*
X808615Y460403D02*
X802149Y460403D01*
X802632Y460886D02*
X808232Y460886D01*
X807749Y461369D02*
X803115Y461369D01*
X803598Y461852D02*
X807266Y461852D01*
X806783Y462335D02*
X804081Y462335D01*
X804564Y462818D02*
X806300Y462818D01*
X805817Y463301D02*
X805047Y463301D01*
X803008Y466109D02*
X794747Y457848D01*
X791514Y461081D01*
X799775Y469342D01*
X803008Y466109D01*
X795230Y458331D02*
X794264Y458331D01*
X793781Y458814D02*
X795713Y458814D01*
X796196Y459297D02*
X793298Y459297D01*
X792815Y459780D02*
X796679Y459780D01*
X797162Y460263D02*
X792332Y460263D01*
X791849Y460746D02*
X797645Y460746D01*
X798128Y461229D02*
X791662Y461229D01*
X792145Y461712D02*
X798611Y461712D01*
X799094Y462195D02*
X792628Y462195D01*
X793111Y462678D02*
X799577Y462678D01*
X800060Y463161D02*
X793594Y463161D01*
X794077Y463644D02*
X800543Y463644D01*
X801026Y464127D02*
X794560Y464127D01*
X795043Y464610D02*
X801509Y464610D01*
X801992Y465093D02*
X795526Y465093D01*
X796009Y465576D02*
X802475Y465576D01*
X802958Y466059D02*
X796492Y466059D01*
X796975Y466542D02*
X802575Y466542D01*
X802092Y467025D02*
X797458Y467025D01*
X797941Y467508D02*
X801609Y467508D01*
X801126Y467991D02*
X798424Y467991D01*
X798907Y468474D02*
X800643Y468474D01*
X800160Y468957D02*
X799390Y468957D01*
X797351Y471766D02*
X789090Y463505D01*
X785857Y466738D01*
X794118Y474999D01*
X797351Y471766D01*
X789573Y463988D02*
X788607Y463988D01*
X788124Y464471D02*
X790056Y464471D01*
X790539Y464954D02*
X787641Y464954D01*
X787158Y465437D02*
X791022Y465437D01*
X791505Y465920D02*
X786675Y465920D01*
X786192Y466403D02*
X791988Y466403D01*
X792471Y466886D02*
X786005Y466886D01*
X786488Y467369D02*
X792954Y467369D01*
X793437Y467852D02*
X786971Y467852D01*
X787454Y468335D02*
X793920Y468335D01*
X794403Y468818D02*
X787937Y468818D01*
X788420Y469301D02*
X794886Y469301D01*
X795369Y469784D02*
X788903Y469784D01*
X789386Y470267D02*
X795852Y470267D01*
X796335Y470750D02*
X789869Y470750D01*
X790352Y471233D02*
X796818Y471233D01*
X797301Y471716D02*
X790835Y471716D01*
X791318Y472199D02*
X796918Y472199D01*
X796435Y472682D02*
X791801Y472682D01*
X792284Y473165D02*
X795952Y473165D01*
X795469Y473648D02*
X792767Y473648D01*
X793250Y474131D02*
X794986Y474131D01*
X794503Y474614D02*
X793733Y474614D01*
X776243Y466738D02*
X773010Y463505D01*
X764749Y471766D01*
X767982Y474999D01*
X776243Y466738D01*
X773493Y463988D02*
X772527Y463988D01*
X772044Y464471D02*
X773976Y464471D01*
X774459Y464954D02*
X771561Y464954D01*
X771078Y465437D02*
X774942Y465437D01*
X775425Y465920D02*
X770595Y465920D01*
X770112Y466403D02*
X775908Y466403D01*
X776095Y466886D02*
X769629Y466886D01*
X769146Y467369D02*
X775612Y467369D01*
X775129Y467852D02*
X768663Y467852D01*
X768180Y468335D02*
X774646Y468335D01*
X774163Y468818D02*
X767697Y468818D01*
X767214Y469301D02*
X773680Y469301D01*
X773197Y469784D02*
X766731Y469784D01*
X766248Y470267D02*
X772714Y470267D01*
X772231Y470750D02*
X765765Y470750D01*
X765282Y471233D02*
X771748Y471233D01*
X771265Y471716D02*
X764799Y471716D01*
X765182Y472199D02*
X770782Y472199D01*
X770299Y472682D02*
X765665Y472682D01*
X766148Y473165D02*
X769816Y473165D01*
X769333Y473648D02*
X766631Y473648D01*
X767114Y474131D02*
X768850Y474131D01*
X768367Y474614D02*
X767597Y474614D01*
X770586Y461081D02*
X767353Y457848D01*
X759092Y466109D01*
X762325Y469342D01*
X770586Y461081D01*
X767836Y458331D02*
X766870Y458331D01*
X766387Y458814D02*
X768319Y458814D01*
X768802Y459297D02*
X765904Y459297D01*
X765421Y459780D02*
X769285Y459780D01*
X769768Y460263D02*
X764938Y460263D01*
X764455Y460746D02*
X770251Y460746D01*
X770438Y461229D02*
X763972Y461229D01*
X763489Y461712D02*
X769955Y461712D01*
X769472Y462195D02*
X763006Y462195D01*
X762523Y462678D02*
X768989Y462678D01*
X768506Y463161D02*
X762040Y463161D01*
X761557Y463644D02*
X768023Y463644D01*
X767540Y464127D02*
X761074Y464127D01*
X760591Y464610D02*
X767057Y464610D01*
X766574Y465093D02*
X760108Y465093D01*
X759625Y465576D02*
X766091Y465576D01*
X765608Y466059D02*
X759142Y466059D01*
X759525Y466542D02*
X765125Y466542D01*
X764642Y467025D02*
X760008Y467025D01*
X760491Y467508D02*
X764159Y467508D01*
X763676Y467991D02*
X760974Y467991D01*
X761457Y468474D02*
X763193Y468474D01*
X762710Y468957D02*
X761940Y468957D01*
X764929Y455425D02*
X761696Y452192D01*
X753435Y460453D01*
X756668Y463686D01*
X764929Y455425D01*
X762179Y452675D02*
X761213Y452675D01*
X760730Y453158D02*
X762662Y453158D01*
X763145Y453641D02*
X760247Y453641D01*
X759764Y454124D02*
X763628Y454124D01*
X764111Y454607D02*
X759281Y454607D01*
X758798Y455090D02*
X764594Y455090D01*
X764781Y455573D02*
X758315Y455573D01*
X757832Y456056D02*
X764298Y456056D01*
X763815Y456539D02*
X757349Y456539D01*
X756866Y457022D02*
X763332Y457022D01*
X762849Y457505D02*
X756383Y457505D01*
X755900Y457988D02*
X762366Y457988D01*
X761883Y458471D02*
X755417Y458471D01*
X754934Y458954D02*
X761400Y458954D01*
X760917Y459437D02*
X754451Y459437D01*
X753968Y459920D02*
X760434Y459920D01*
X759951Y460403D02*
X753485Y460403D01*
X753868Y460886D02*
X759468Y460886D01*
X758985Y461369D02*
X754351Y461369D01*
X754834Y461852D02*
X758502Y461852D01*
X758019Y462335D02*
X755317Y462335D01*
X755800Y462818D02*
X757536Y462818D01*
X757053Y463301D02*
X756283Y463301D01*
X759272Y449768D02*
X756039Y446535D01*
X747778Y454796D01*
X751011Y458029D01*
X759272Y449768D01*
X756522Y447018D02*
X755556Y447018D01*
X755073Y447501D02*
X757005Y447501D01*
X757488Y447984D02*
X754590Y447984D01*
X754107Y448467D02*
X757971Y448467D01*
X758454Y448950D02*
X753624Y448950D01*
X753141Y449433D02*
X758937Y449433D01*
X759124Y449916D02*
X752658Y449916D01*
X752175Y450399D02*
X758641Y450399D01*
X758158Y450882D02*
X751692Y450882D01*
X751209Y451365D02*
X757675Y451365D01*
X757192Y451848D02*
X750726Y451848D01*
X750243Y452331D02*
X756709Y452331D01*
X756226Y452814D02*
X749760Y452814D01*
X749277Y453297D02*
X755743Y453297D01*
X755260Y453780D02*
X748794Y453780D01*
X748311Y454263D02*
X754777Y454263D01*
X754294Y454746D02*
X747828Y454746D01*
X748211Y455229D02*
X753811Y455229D01*
X753328Y455712D02*
X748694Y455712D01*
X749177Y456195D02*
X752845Y456195D01*
X752362Y456678D02*
X749660Y456678D01*
X750143Y457161D02*
X751879Y457161D01*
X751396Y457644D02*
X750626Y457644D01*
X753615Y444111D02*
X750382Y440878D01*
X742121Y449139D01*
X745354Y452372D01*
X753615Y444111D01*
X750865Y441361D02*
X749899Y441361D01*
X749416Y441844D02*
X751348Y441844D01*
X751831Y442327D02*
X748933Y442327D01*
X748450Y442810D02*
X752314Y442810D01*
X752797Y443293D02*
X747967Y443293D01*
X747484Y443776D02*
X753280Y443776D01*
X753467Y444259D02*
X747001Y444259D01*
X746518Y444742D02*
X752984Y444742D01*
X752501Y445225D02*
X746035Y445225D01*
X745552Y445708D02*
X752018Y445708D01*
X751535Y446191D02*
X745069Y446191D01*
X744586Y446674D02*
X751052Y446674D01*
X750569Y447157D02*
X744103Y447157D01*
X743620Y447640D02*
X750086Y447640D01*
X749603Y448123D02*
X743137Y448123D01*
X742654Y448606D02*
X749120Y448606D01*
X748637Y449089D02*
X742171Y449089D01*
X742554Y449572D02*
X748154Y449572D01*
X747671Y450055D02*
X743037Y450055D01*
X743520Y450538D02*
X747188Y450538D01*
X746705Y451021D02*
X744003Y451021D01*
X744486Y451504D02*
X746222Y451504D01*
X745739Y451987D02*
X744969Y451987D01*
X747958Y438454D02*
X744725Y435221D01*
X736464Y443482D01*
X739697Y446715D01*
X747958Y438454D01*
X745208Y435704D02*
X744242Y435704D01*
X743759Y436187D02*
X745691Y436187D01*
X746174Y436670D02*
X743276Y436670D01*
X742793Y437153D02*
X746657Y437153D01*
X747140Y437636D02*
X742310Y437636D01*
X741827Y438119D02*
X747623Y438119D01*
X747810Y438602D02*
X741344Y438602D01*
X740861Y439085D02*
X747327Y439085D01*
X746844Y439568D02*
X740378Y439568D01*
X739895Y440051D02*
X746361Y440051D01*
X745878Y440534D02*
X739412Y440534D01*
X738929Y441017D02*
X745395Y441017D01*
X744912Y441500D02*
X738446Y441500D01*
X737963Y441983D02*
X744429Y441983D01*
X743946Y442466D02*
X737480Y442466D01*
X736997Y442949D02*
X743463Y442949D01*
X742980Y443432D02*
X736514Y443432D01*
X736897Y443915D02*
X742497Y443915D01*
X742014Y444398D02*
X737380Y444398D01*
X737863Y444881D02*
X741531Y444881D01*
X741048Y445364D02*
X738346Y445364D01*
X738829Y445847D02*
X740565Y445847D01*
X740082Y446330D02*
X739312Y446330D01*
X742302Y432797D02*
X739069Y429564D01*
X730808Y437825D01*
X734041Y441058D01*
X742302Y432797D01*
X739552Y430047D02*
X738586Y430047D01*
X738103Y430530D02*
X740035Y430530D01*
X740518Y431013D02*
X737620Y431013D01*
X737137Y431496D02*
X741001Y431496D01*
X741484Y431979D02*
X736654Y431979D01*
X736171Y432462D02*
X741967Y432462D01*
X742154Y432945D02*
X735688Y432945D01*
X735205Y433428D02*
X741671Y433428D01*
X741188Y433911D02*
X734722Y433911D01*
X734239Y434394D02*
X740705Y434394D01*
X740222Y434877D02*
X733756Y434877D01*
X733273Y435360D02*
X739739Y435360D01*
X739256Y435843D02*
X732790Y435843D01*
X732307Y436326D02*
X738773Y436326D01*
X738290Y436809D02*
X731824Y436809D01*
X731341Y437292D02*
X737807Y437292D01*
X737324Y437775D02*
X730858Y437775D01*
X731241Y438258D02*
X736841Y438258D01*
X736358Y438741D02*
X731724Y438741D01*
X732207Y439224D02*
X735875Y439224D01*
X735392Y439707D02*
X732690Y439707D01*
X733173Y440190D02*
X734909Y440190D01*
X734426Y440673D02*
X733656Y440673D01*
X736645Y427140D02*
X733412Y423907D01*
X725151Y432168D01*
X728384Y435401D01*
X736645Y427140D01*
X733895Y424390D02*
X732929Y424390D01*
X732446Y424873D02*
X734378Y424873D01*
X734861Y425356D02*
X731963Y425356D01*
X731480Y425839D02*
X735344Y425839D01*
X735827Y426322D02*
X730997Y426322D01*
X730514Y426805D02*
X736310Y426805D01*
X736497Y427288D02*
X730031Y427288D01*
X729548Y427771D02*
X736014Y427771D01*
X735531Y428254D02*
X729065Y428254D01*
X728582Y428737D02*
X735048Y428737D01*
X734565Y429220D02*
X728099Y429220D01*
X727616Y429703D02*
X734082Y429703D01*
X733599Y430186D02*
X727133Y430186D01*
X726650Y430669D02*
X733116Y430669D01*
X732633Y431152D02*
X726167Y431152D01*
X725684Y431635D02*
X732150Y431635D01*
X731667Y432118D02*
X725201Y432118D01*
X725584Y432601D02*
X731184Y432601D01*
X730701Y433084D02*
X726067Y433084D01*
X726550Y433567D02*
X730218Y433567D01*
X729735Y434050D02*
X727033Y434050D01*
X727516Y434533D02*
X729252Y434533D01*
X728769Y435016D02*
X727999Y435016D01*
D10*
X777991Y230109D02*
X788009Y230109D01*
X788009Y221091D01*
X777991Y221091D01*
X777991Y230109D01*
X777991Y221542D02*
X788009Y221542D01*
X788009Y221993D02*
X777991Y221993D01*
X777991Y222444D02*
X788009Y222444D01*
X788009Y222895D02*
X777991Y222895D01*
X777991Y223346D02*
X788009Y223346D01*
X788009Y223797D02*
X777991Y223797D01*
X777991Y224248D02*
X788009Y224248D01*
X788009Y224699D02*
X777991Y224699D01*
X777991Y225150D02*
X788009Y225150D01*
X788009Y225601D02*
X777991Y225601D01*
X777991Y226052D02*
X788009Y226052D01*
X788009Y226503D02*
X777991Y226503D01*
X777991Y226954D02*
X788009Y226954D01*
X788009Y227405D02*
X777991Y227405D01*
X777991Y227856D02*
X788009Y227856D01*
X788009Y228307D02*
X777991Y228307D01*
X777991Y228758D02*
X788009Y228758D01*
X788009Y229209D02*
X777991Y229209D01*
X777991Y229660D02*
X788009Y229660D01*
X771009Y230109D02*
X760991Y230109D01*
X771009Y230109D02*
X771009Y221091D01*
X760991Y221091D01*
X760991Y230109D01*
X760991Y221542D02*
X771009Y221542D01*
X771009Y221993D02*
X760991Y221993D01*
X760991Y222444D02*
X771009Y222444D01*
X771009Y222895D02*
X760991Y222895D01*
X760991Y223346D02*
X771009Y223346D01*
X771009Y223797D02*
X760991Y223797D01*
X760991Y224248D02*
X771009Y224248D01*
X771009Y224699D02*
X760991Y224699D01*
X760991Y225150D02*
X771009Y225150D01*
X771009Y225601D02*
X760991Y225601D01*
X760991Y226052D02*
X771009Y226052D01*
X771009Y226503D02*
X760991Y226503D01*
X760991Y226954D02*
X771009Y226954D01*
X771009Y227405D02*
X760991Y227405D01*
X760991Y227856D02*
X771009Y227856D01*
X771009Y228307D02*
X760991Y228307D01*
X760991Y228758D02*
X771009Y228758D01*
X771009Y229209D02*
X760991Y229209D01*
X760991Y229660D02*
X771009Y229660D01*
X814141Y95559D02*
X814141Y86541D01*
X814141Y95559D02*
X824159Y95559D01*
X824159Y86541D01*
X814141Y86541D01*
X814141Y86992D02*
X824159Y86992D01*
X824159Y87443D02*
X814141Y87443D01*
X814141Y87894D02*
X824159Y87894D01*
X824159Y88345D02*
X814141Y88345D01*
X814141Y88796D02*
X824159Y88796D01*
X824159Y89247D02*
X814141Y89247D01*
X814141Y89698D02*
X824159Y89698D01*
X824159Y90149D02*
X814141Y90149D01*
X814141Y90600D02*
X824159Y90600D01*
X824159Y91051D02*
X814141Y91051D01*
X814141Y91502D02*
X824159Y91502D01*
X824159Y91953D02*
X814141Y91953D01*
X814141Y92404D02*
X824159Y92404D01*
X824159Y92855D02*
X814141Y92855D01*
X814141Y93306D02*
X824159Y93306D01*
X824159Y93757D02*
X814141Y93757D01*
X814141Y94208D02*
X824159Y94208D01*
X824159Y94659D02*
X814141Y94659D01*
X814141Y95110D02*
X824159Y95110D01*
X814141Y78559D02*
X814141Y69541D01*
X814141Y78559D02*
X824159Y78559D01*
X824159Y69541D01*
X814141Y69541D01*
X814141Y69992D02*
X824159Y69992D01*
X824159Y70443D02*
X814141Y70443D01*
X814141Y70894D02*
X824159Y70894D01*
X824159Y71345D02*
X814141Y71345D01*
X814141Y71796D02*
X824159Y71796D01*
X824159Y72247D02*
X814141Y72247D01*
X814141Y72698D02*
X824159Y72698D01*
X824159Y73149D02*
X814141Y73149D01*
X814141Y73600D02*
X824159Y73600D01*
X824159Y74051D02*
X814141Y74051D01*
X814141Y74502D02*
X824159Y74502D01*
X824159Y74953D02*
X814141Y74953D01*
X814141Y75404D02*
X824159Y75404D01*
X824159Y75855D02*
X814141Y75855D01*
X814141Y76306D02*
X824159Y76306D01*
X824159Y76757D02*
X814141Y76757D01*
X814141Y77208D02*
X824159Y77208D01*
X824159Y77659D02*
X814141Y77659D01*
X814141Y78110D02*
X824159Y78110D01*
X831541Y83891D02*
X840559Y83891D01*
X831541Y83891D02*
X831541Y93909D01*
X840559Y93909D01*
X840559Y83891D01*
X840559Y84342D02*
X831541Y84342D01*
X831541Y84793D02*
X840559Y84793D01*
X840559Y85244D02*
X831541Y85244D01*
X831541Y85695D02*
X840559Y85695D01*
X840559Y86146D02*
X831541Y86146D01*
X831541Y86597D02*
X840559Y86597D01*
X840559Y87048D02*
X831541Y87048D01*
X831541Y87499D02*
X840559Y87499D01*
X840559Y87950D02*
X831541Y87950D01*
X831541Y88401D02*
X840559Y88401D01*
X840559Y88852D02*
X831541Y88852D01*
X831541Y89303D02*
X840559Y89303D01*
X840559Y89754D02*
X831541Y89754D01*
X831541Y90205D02*
X840559Y90205D01*
X840559Y90656D02*
X831541Y90656D01*
X831541Y91107D02*
X840559Y91107D01*
X840559Y91558D02*
X831541Y91558D01*
X831541Y92009D02*
X840559Y92009D01*
X840559Y92460D02*
X831541Y92460D01*
X831541Y92911D02*
X840559Y92911D01*
X840559Y93362D02*
X831541Y93362D01*
X831541Y93813D02*
X840559Y93813D01*
X848541Y83891D02*
X857559Y83891D01*
X848541Y83891D02*
X848541Y93909D01*
X857559Y93909D01*
X857559Y83891D01*
X857559Y84342D02*
X848541Y84342D01*
X848541Y84793D02*
X857559Y84793D01*
X857559Y85244D02*
X848541Y85244D01*
X848541Y85695D02*
X857559Y85695D01*
X857559Y86146D02*
X848541Y86146D01*
X848541Y86597D02*
X857559Y86597D01*
X857559Y87048D02*
X848541Y87048D01*
X848541Y87499D02*
X857559Y87499D01*
X857559Y87950D02*
X848541Y87950D01*
X848541Y88401D02*
X857559Y88401D01*
X857559Y88852D02*
X848541Y88852D01*
X848541Y89303D02*
X857559Y89303D01*
X857559Y89754D02*
X848541Y89754D01*
X848541Y90205D02*
X857559Y90205D01*
X857559Y90656D02*
X848541Y90656D01*
X848541Y91107D02*
X857559Y91107D01*
X857559Y91558D02*
X848541Y91558D01*
X848541Y92009D02*
X857559Y92009D01*
X857559Y92460D02*
X848541Y92460D01*
X848541Y92911D02*
X857559Y92911D01*
X857559Y93362D02*
X848541Y93362D01*
X848541Y93813D02*
X857559Y93813D01*
D23*
X930570Y290170D02*
X930570Y314330D01*
X942030Y314330D01*
X942030Y290170D01*
X930570Y290170D01*
X930570Y290865D02*
X942030Y290865D01*
X942030Y291560D02*
X930570Y291560D01*
X930570Y292255D02*
X942030Y292255D01*
X942030Y292950D02*
X930570Y292950D01*
X930570Y293645D02*
X942030Y293645D01*
X942030Y294340D02*
X930570Y294340D01*
X930570Y295035D02*
X942030Y295035D01*
X942030Y295730D02*
X930570Y295730D01*
X930570Y296425D02*
X942030Y296425D01*
X942030Y297120D02*
X930570Y297120D01*
X930570Y297815D02*
X942030Y297815D01*
X942030Y298510D02*
X930570Y298510D01*
X930570Y299205D02*
X942030Y299205D01*
X942030Y299900D02*
X930570Y299900D01*
X930570Y300595D02*
X942030Y300595D01*
X942030Y301290D02*
X930570Y301290D01*
X930570Y301985D02*
X942030Y301985D01*
X942030Y302680D02*
X930570Y302680D01*
X930570Y303375D02*
X942030Y303375D01*
X942030Y304070D02*
X930570Y304070D01*
X930570Y304765D02*
X942030Y304765D01*
X942030Y305460D02*
X930570Y305460D01*
X930570Y306155D02*
X942030Y306155D01*
X942030Y306850D02*
X930570Y306850D01*
X930570Y307545D02*
X942030Y307545D01*
X942030Y308240D02*
X930570Y308240D01*
X930570Y308935D02*
X942030Y308935D01*
X942030Y309630D02*
X930570Y309630D01*
X930570Y310325D02*
X942030Y310325D01*
X942030Y311020D02*
X930570Y311020D01*
X930570Y311715D02*
X942030Y311715D01*
X942030Y312410D02*
X930570Y312410D01*
X930570Y313105D02*
X942030Y313105D01*
X942030Y313800D02*
X930570Y313800D01*
X910570Y314330D02*
X910570Y290170D01*
X910570Y314330D02*
X922030Y314330D01*
X922030Y290170D01*
X910570Y290170D01*
X910570Y290865D02*
X922030Y290865D01*
X922030Y291560D02*
X910570Y291560D01*
X910570Y292255D02*
X922030Y292255D01*
X922030Y292950D02*
X910570Y292950D01*
X910570Y293645D02*
X922030Y293645D01*
X922030Y294340D02*
X910570Y294340D01*
X910570Y295035D02*
X922030Y295035D01*
X922030Y295730D02*
X910570Y295730D01*
X910570Y296425D02*
X922030Y296425D01*
X922030Y297120D02*
X910570Y297120D01*
X910570Y297815D02*
X922030Y297815D01*
X922030Y298510D02*
X910570Y298510D01*
X910570Y299205D02*
X922030Y299205D01*
X922030Y299900D02*
X910570Y299900D01*
X910570Y300595D02*
X922030Y300595D01*
X922030Y301290D02*
X910570Y301290D01*
X910570Y301985D02*
X922030Y301985D01*
X922030Y302680D02*
X910570Y302680D01*
X910570Y303375D02*
X922030Y303375D01*
X922030Y304070D02*
X910570Y304070D01*
X910570Y304765D02*
X922030Y304765D01*
X922030Y305460D02*
X910570Y305460D01*
X910570Y306155D02*
X922030Y306155D01*
X922030Y306850D02*
X910570Y306850D01*
X910570Y307545D02*
X922030Y307545D01*
X922030Y308240D02*
X910570Y308240D01*
X910570Y308935D02*
X922030Y308935D01*
X922030Y309630D02*
X910570Y309630D01*
X910570Y310325D02*
X922030Y310325D01*
X922030Y311020D02*
X910570Y311020D01*
X910570Y311715D02*
X922030Y311715D01*
X922030Y312410D02*
X910570Y312410D01*
X910570Y313105D02*
X922030Y313105D01*
X922030Y313800D02*
X910570Y313800D01*
X890570Y314330D02*
X890570Y290170D01*
X890570Y314330D02*
X902030Y314330D01*
X902030Y290170D01*
X890570Y290170D01*
X890570Y290865D02*
X902030Y290865D01*
X902030Y291560D02*
X890570Y291560D01*
X890570Y292255D02*
X902030Y292255D01*
X902030Y292950D02*
X890570Y292950D01*
X890570Y293645D02*
X902030Y293645D01*
X902030Y294340D02*
X890570Y294340D01*
X890570Y295035D02*
X902030Y295035D01*
X902030Y295730D02*
X890570Y295730D01*
X890570Y296425D02*
X902030Y296425D01*
X902030Y297120D02*
X890570Y297120D01*
X890570Y297815D02*
X902030Y297815D01*
X902030Y298510D02*
X890570Y298510D01*
X890570Y299205D02*
X902030Y299205D01*
X902030Y299900D02*
X890570Y299900D01*
X890570Y300595D02*
X902030Y300595D01*
X902030Y301290D02*
X890570Y301290D01*
X890570Y301985D02*
X902030Y301985D01*
X902030Y302680D02*
X890570Y302680D01*
X890570Y303375D02*
X902030Y303375D01*
X902030Y304070D02*
X890570Y304070D01*
X890570Y304765D02*
X902030Y304765D01*
X902030Y305460D02*
X890570Y305460D01*
X890570Y306155D02*
X902030Y306155D01*
X902030Y306850D02*
X890570Y306850D01*
X890570Y307545D02*
X902030Y307545D01*
X902030Y308240D02*
X890570Y308240D01*
X890570Y308935D02*
X902030Y308935D01*
X902030Y309630D02*
X890570Y309630D01*
X890570Y310325D02*
X902030Y310325D01*
X902030Y311020D02*
X890570Y311020D01*
X890570Y311715D02*
X902030Y311715D01*
X902030Y312410D02*
X890570Y312410D01*
X890570Y313105D02*
X902030Y313105D01*
X902030Y313800D02*
X890570Y313800D01*
X870570Y314330D02*
X870570Y290170D01*
X870570Y314330D02*
X882030Y314330D01*
X882030Y290170D01*
X870570Y290170D01*
X870570Y290865D02*
X882030Y290865D01*
X882030Y291560D02*
X870570Y291560D01*
X870570Y292255D02*
X882030Y292255D01*
X882030Y292950D02*
X870570Y292950D01*
X870570Y293645D02*
X882030Y293645D01*
X882030Y294340D02*
X870570Y294340D01*
X870570Y295035D02*
X882030Y295035D01*
X882030Y295730D02*
X870570Y295730D01*
X870570Y296425D02*
X882030Y296425D01*
X882030Y297120D02*
X870570Y297120D01*
X870570Y297815D02*
X882030Y297815D01*
X882030Y298510D02*
X870570Y298510D01*
X870570Y299205D02*
X882030Y299205D01*
X882030Y299900D02*
X870570Y299900D01*
X870570Y300595D02*
X882030Y300595D01*
X882030Y301290D02*
X870570Y301290D01*
X870570Y301985D02*
X882030Y301985D01*
X882030Y302680D02*
X870570Y302680D01*
X870570Y303375D02*
X882030Y303375D01*
X882030Y304070D02*
X870570Y304070D01*
X870570Y304765D02*
X882030Y304765D01*
X882030Y305460D02*
X870570Y305460D01*
X870570Y306155D02*
X882030Y306155D01*
X882030Y306850D02*
X870570Y306850D01*
X870570Y307545D02*
X882030Y307545D01*
X882030Y308240D02*
X870570Y308240D01*
X870570Y308935D02*
X882030Y308935D01*
X882030Y309630D02*
X870570Y309630D01*
X870570Y310325D02*
X882030Y310325D01*
X882030Y311020D02*
X870570Y311020D01*
X870570Y311715D02*
X882030Y311715D01*
X882030Y312410D02*
X870570Y312410D01*
X870570Y313105D02*
X882030Y313105D01*
X882030Y313800D02*
X870570Y313800D01*
X850570Y314330D02*
X850570Y290170D01*
X850570Y314330D02*
X862030Y314330D01*
X862030Y290170D01*
X850570Y290170D01*
X850570Y290865D02*
X862030Y290865D01*
X862030Y291560D02*
X850570Y291560D01*
X850570Y292255D02*
X862030Y292255D01*
X862030Y292950D02*
X850570Y292950D01*
X850570Y293645D02*
X862030Y293645D01*
X862030Y294340D02*
X850570Y294340D01*
X850570Y295035D02*
X862030Y295035D01*
X862030Y295730D02*
X850570Y295730D01*
X850570Y296425D02*
X862030Y296425D01*
X862030Y297120D02*
X850570Y297120D01*
X850570Y297815D02*
X862030Y297815D01*
X862030Y298510D02*
X850570Y298510D01*
X850570Y299205D02*
X862030Y299205D01*
X862030Y299900D02*
X850570Y299900D01*
X850570Y300595D02*
X862030Y300595D01*
X862030Y301290D02*
X850570Y301290D01*
X850570Y301985D02*
X862030Y301985D01*
X862030Y302680D02*
X850570Y302680D01*
X850570Y303375D02*
X862030Y303375D01*
X862030Y304070D02*
X850570Y304070D01*
X850570Y304765D02*
X862030Y304765D01*
X862030Y305460D02*
X850570Y305460D01*
X850570Y306155D02*
X862030Y306155D01*
X862030Y306850D02*
X850570Y306850D01*
X850570Y307545D02*
X862030Y307545D01*
X862030Y308240D02*
X850570Y308240D01*
X850570Y308935D02*
X862030Y308935D01*
X862030Y309630D02*
X850570Y309630D01*
X850570Y310325D02*
X862030Y310325D01*
X862030Y311020D02*
X850570Y311020D01*
X850570Y311715D02*
X862030Y311715D01*
X862030Y312410D02*
X850570Y312410D01*
X850570Y313105D02*
X862030Y313105D01*
X862030Y313800D02*
X850570Y313800D01*
X830570Y314330D02*
X830570Y290170D01*
X830570Y314330D02*
X842030Y314330D01*
X842030Y290170D01*
X830570Y290170D01*
X830570Y290865D02*
X842030Y290865D01*
X842030Y291560D02*
X830570Y291560D01*
X830570Y292255D02*
X842030Y292255D01*
X842030Y292950D02*
X830570Y292950D01*
X830570Y293645D02*
X842030Y293645D01*
X842030Y294340D02*
X830570Y294340D01*
X830570Y295035D02*
X842030Y295035D01*
X842030Y295730D02*
X830570Y295730D01*
X830570Y296425D02*
X842030Y296425D01*
X842030Y297120D02*
X830570Y297120D01*
X830570Y297815D02*
X842030Y297815D01*
X842030Y298510D02*
X830570Y298510D01*
X830570Y299205D02*
X842030Y299205D01*
X842030Y299900D02*
X830570Y299900D01*
X830570Y300595D02*
X842030Y300595D01*
X842030Y301290D02*
X830570Y301290D01*
X830570Y301985D02*
X842030Y301985D01*
X842030Y302680D02*
X830570Y302680D01*
X830570Y303375D02*
X842030Y303375D01*
X842030Y304070D02*
X830570Y304070D01*
X830570Y304765D02*
X842030Y304765D01*
X842030Y305460D02*
X830570Y305460D01*
X830570Y306155D02*
X842030Y306155D01*
X842030Y306850D02*
X830570Y306850D01*
X830570Y307545D02*
X842030Y307545D01*
X842030Y308240D02*
X830570Y308240D01*
X830570Y308935D02*
X842030Y308935D01*
X842030Y309630D02*
X830570Y309630D01*
X830570Y310325D02*
X842030Y310325D01*
X842030Y311020D02*
X830570Y311020D01*
X830570Y311715D02*
X842030Y311715D01*
X842030Y312410D02*
X830570Y312410D01*
X830570Y313105D02*
X842030Y313105D01*
X842030Y313800D02*
X830570Y313800D01*
X810570Y314330D02*
X810570Y290170D01*
X810570Y314330D02*
X822030Y314330D01*
X822030Y290170D01*
X810570Y290170D01*
X810570Y290865D02*
X822030Y290865D01*
X822030Y291560D02*
X810570Y291560D01*
X810570Y292255D02*
X822030Y292255D01*
X822030Y292950D02*
X810570Y292950D01*
X810570Y293645D02*
X822030Y293645D01*
X822030Y294340D02*
X810570Y294340D01*
X810570Y295035D02*
X822030Y295035D01*
X822030Y295730D02*
X810570Y295730D01*
X810570Y296425D02*
X822030Y296425D01*
X822030Y297120D02*
X810570Y297120D01*
X810570Y297815D02*
X822030Y297815D01*
X822030Y298510D02*
X810570Y298510D01*
X810570Y299205D02*
X822030Y299205D01*
X822030Y299900D02*
X810570Y299900D01*
X810570Y300595D02*
X822030Y300595D01*
X822030Y301290D02*
X810570Y301290D01*
X810570Y301985D02*
X822030Y301985D01*
X822030Y302680D02*
X810570Y302680D01*
X810570Y303375D02*
X822030Y303375D01*
X822030Y304070D02*
X810570Y304070D01*
X810570Y304765D02*
X822030Y304765D01*
X822030Y305460D02*
X810570Y305460D01*
X810570Y306155D02*
X822030Y306155D01*
X822030Y306850D02*
X810570Y306850D01*
X810570Y307545D02*
X822030Y307545D01*
X822030Y308240D02*
X810570Y308240D01*
X810570Y308935D02*
X822030Y308935D01*
X822030Y309630D02*
X810570Y309630D01*
X810570Y310325D02*
X822030Y310325D01*
X822030Y311020D02*
X810570Y311020D01*
X810570Y311715D02*
X822030Y311715D01*
X822030Y312410D02*
X810570Y312410D01*
X810570Y313105D02*
X822030Y313105D01*
X822030Y313800D02*
X810570Y313800D01*
X930570Y154330D02*
X930570Y130170D01*
X930570Y154330D02*
X942030Y154330D01*
X942030Y130170D01*
X930570Y130170D01*
X930570Y130865D02*
X942030Y130865D01*
X942030Y131560D02*
X930570Y131560D01*
X930570Y132255D02*
X942030Y132255D01*
X942030Y132950D02*
X930570Y132950D01*
X930570Y133645D02*
X942030Y133645D01*
X942030Y134340D02*
X930570Y134340D01*
X930570Y135035D02*
X942030Y135035D01*
X942030Y135730D02*
X930570Y135730D01*
X930570Y136425D02*
X942030Y136425D01*
X942030Y137120D02*
X930570Y137120D01*
X930570Y137815D02*
X942030Y137815D01*
X942030Y138510D02*
X930570Y138510D01*
X930570Y139205D02*
X942030Y139205D01*
X942030Y139900D02*
X930570Y139900D01*
X930570Y140595D02*
X942030Y140595D01*
X942030Y141290D02*
X930570Y141290D01*
X930570Y141985D02*
X942030Y141985D01*
X942030Y142680D02*
X930570Y142680D01*
X930570Y143375D02*
X942030Y143375D01*
X942030Y144070D02*
X930570Y144070D01*
X930570Y144765D02*
X942030Y144765D01*
X942030Y145460D02*
X930570Y145460D01*
X930570Y146155D02*
X942030Y146155D01*
X942030Y146850D02*
X930570Y146850D01*
X930570Y147545D02*
X942030Y147545D01*
X942030Y148240D02*
X930570Y148240D01*
X930570Y148935D02*
X942030Y148935D01*
X942030Y149630D02*
X930570Y149630D01*
X930570Y150325D02*
X942030Y150325D01*
X942030Y151020D02*
X930570Y151020D01*
X930570Y151715D02*
X942030Y151715D01*
X942030Y152410D02*
X930570Y152410D01*
X930570Y153105D02*
X942030Y153105D01*
X942030Y153800D02*
X930570Y153800D01*
X910570Y154330D02*
X910570Y130170D01*
X910570Y154330D02*
X922030Y154330D01*
X922030Y130170D01*
X910570Y130170D01*
X910570Y130865D02*
X922030Y130865D01*
X922030Y131560D02*
X910570Y131560D01*
X910570Y132255D02*
X922030Y132255D01*
X922030Y132950D02*
X910570Y132950D01*
X910570Y133645D02*
X922030Y133645D01*
X922030Y134340D02*
X910570Y134340D01*
X910570Y135035D02*
X922030Y135035D01*
X922030Y135730D02*
X910570Y135730D01*
X910570Y136425D02*
X922030Y136425D01*
X922030Y137120D02*
X910570Y137120D01*
X910570Y137815D02*
X922030Y137815D01*
X922030Y138510D02*
X910570Y138510D01*
X910570Y139205D02*
X922030Y139205D01*
X922030Y139900D02*
X910570Y139900D01*
X910570Y140595D02*
X922030Y140595D01*
X922030Y141290D02*
X910570Y141290D01*
X910570Y141985D02*
X922030Y141985D01*
X922030Y142680D02*
X910570Y142680D01*
X910570Y143375D02*
X922030Y143375D01*
X922030Y144070D02*
X910570Y144070D01*
X910570Y144765D02*
X922030Y144765D01*
X922030Y145460D02*
X910570Y145460D01*
X910570Y146155D02*
X922030Y146155D01*
X922030Y146850D02*
X910570Y146850D01*
X910570Y147545D02*
X922030Y147545D01*
X922030Y148240D02*
X910570Y148240D01*
X910570Y148935D02*
X922030Y148935D01*
X922030Y149630D02*
X910570Y149630D01*
X910570Y150325D02*
X922030Y150325D01*
X922030Y151020D02*
X910570Y151020D01*
X910570Y151715D02*
X922030Y151715D01*
X922030Y152410D02*
X910570Y152410D01*
X910570Y153105D02*
X922030Y153105D01*
X922030Y153800D02*
X910570Y153800D01*
X890570Y154330D02*
X890570Y130170D01*
X890570Y154330D02*
X902030Y154330D01*
X902030Y130170D01*
X890570Y130170D01*
X890570Y130865D02*
X902030Y130865D01*
X902030Y131560D02*
X890570Y131560D01*
X890570Y132255D02*
X902030Y132255D01*
X902030Y132950D02*
X890570Y132950D01*
X890570Y133645D02*
X902030Y133645D01*
X902030Y134340D02*
X890570Y134340D01*
X890570Y135035D02*
X902030Y135035D01*
X902030Y135730D02*
X890570Y135730D01*
X890570Y136425D02*
X902030Y136425D01*
X902030Y137120D02*
X890570Y137120D01*
X890570Y137815D02*
X902030Y137815D01*
X902030Y138510D02*
X890570Y138510D01*
X890570Y139205D02*
X902030Y139205D01*
X902030Y139900D02*
X890570Y139900D01*
X890570Y140595D02*
X902030Y140595D01*
X902030Y141290D02*
X890570Y141290D01*
X890570Y141985D02*
X902030Y141985D01*
X902030Y142680D02*
X890570Y142680D01*
X890570Y143375D02*
X902030Y143375D01*
X902030Y144070D02*
X890570Y144070D01*
X890570Y144765D02*
X902030Y144765D01*
X902030Y145460D02*
X890570Y145460D01*
X890570Y146155D02*
X902030Y146155D01*
X902030Y146850D02*
X890570Y146850D01*
X890570Y147545D02*
X902030Y147545D01*
X902030Y148240D02*
X890570Y148240D01*
X890570Y148935D02*
X902030Y148935D01*
X902030Y149630D02*
X890570Y149630D01*
X890570Y150325D02*
X902030Y150325D01*
X902030Y151020D02*
X890570Y151020D01*
X890570Y151715D02*
X902030Y151715D01*
X902030Y152410D02*
X890570Y152410D01*
X890570Y153105D02*
X902030Y153105D01*
X902030Y153800D02*
X890570Y153800D01*
X870570Y154330D02*
X870570Y130170D01*
X870570Y154330D02*
X882030Y154330D01*
X882030Y130170D01*
X870570Y130170D01*
X870570Y130865D02*
X882030Y130865D01*
X882030Y131560D02*
X870570Y131560D01*
X870570Y132255D02*
X882030Y132255D01*
X882030Y132950D02*
X870570Y132950D01*
X870570Y133645D02*
X882030Y133645D01*
X882030Y134340D02*
X870570Y134340D01*
X870570Y135035D02*
X882030Y135035D01*
X882030Y135730D02*
X870570Y135730D01*
X870570Y136425D02*
X882030Y136425D01*
X882030Y137120D02*
X870570Y137120D01*
X870570Y137815D02*
X882030Y137815D01*
X882030Y138510D02*
X870570Y138510D01*
X870570Y139205D02*
X882030Y139205D01*
X882030Y139900D02*
X870570Y139900D01*
X870570Y140595D02*
X882030Y140595D01*
X882030Y141290D02*
X870570Y141290D01*
X870570Y141985D02*
X882030Y141985D01*
X882030Y142680D02*
X870570Y142680D01*
X870570Y143375D02*
X882030Y143375D01*
X882030Y144070D02*
X870570Y144070D01*
X870570Y144765D02*
X882030Y144765D01*
X882030Y145460D02*
X870570Y145460D01*
X870570Y146155D02*
X882030Y146155D01*
X882030Y146850D02*
X870570Y146850D01*
X870570Y147545D02*
X882030Y147545D01*
X882030Y148240D02*
X870570Y148240D01*
X870570Y148935D02*
X882030Y148935D01*
X882030Y149630D02*
X870570Y149630D01*
X870570Y150325D02*
X882030Y150325D01*
X882030Y151020D02*
X870570Y151020D01*
X870570Y151715D02*
X882030Y151715D01*
X882030Y152410D02*
X870570Y152410D01*
X870570Y153105D02*
X882030Y153105D01*
X882030Y153800D02*
X870570Y153800D01*
X850570Y154330D02*
X850570Y130170D01*
X850570Y154330D02*
X862030Y154330D01*
X862030Y130170D01*
X850570Y130170D01*
X850570Y130865D02*
X862030Y130865D01*
X862030Y131560D02*
X850570Y131560D01*
X850570Y132255D02*
X862030Y132255D01*
X862030Y132950D02*
X850570Y132950D01*
X850570Y133645D02*
X862030Y133645D01*
X862030Y134340D02*
X850570Y134340D01*
X850570Y135035D02*
X862030Y135035D01*
X862030Y135730D02*
X850570Y135730D01*
X850570Y136425D02*
X862030Y136425D01*
X862030Y137120D02*
X850570Y137120D01*
X850570Y137815D02*
X862030Y137815D01*
X862030Y138510D02*
X850570Y138510D01*
X850570Y139205D02*
X862030Y139205D01*
X862030Y139900D02*
X850570Y139900D01*
X850570Y140595D02*
X862030Y140595D01*
X862030Y141290D02*
X850570Y141290D01*
X850570Y141985D02*
X862030Y141985D01*
X862030Y142680D02*
X850570Y142680D01*
X850570Y143375D02*
X862030Y143375D01*
X862030Y144070D02*
X850570Y144070D01*
X850570Y144765D02*
X862030Y144765D01*
X862030Y145460D02*
X850570Y145460D01*
X850570Y146155D02*
X862030Y146155D01*
X862030Y146850D02*
X850570Y146850D01*
X850570Y147545D02*
X862030Y147545D01*
X862030Y148240D02*
X850570Y148240D01*
X850570Y148935D02*
X862030Y148935D01*
X862030Y149630D02*
X850570Y149630D01*
X850570Y150325D02*
X862030Y150325D01*
X862030Y151020D02*
X850570Y151020D01*
X850570Y151715D02*
X862030Y151715D01*
X862030Y152410D02*
X850570Y152410D01*
X850570Y153105D02*
X862030Y153105D01*
X862030Y153800D02*
X850570Y153800D01*
X830570Y154330D02*
X830570Y130170D01*
X830570Y154330D02*
X842030Y154330D01*
X842030Y130170D01*
X830570Y130170D01*
X830570Y130865D02*
X842030Y130865D01*
X842030Y131560D02*
X830570Y131560D01*
X830570Y132255D02*
X842030Y132255D01*
X842030Y132950D02*
X830570Y132950D01*
X830570Y133645D02*
X842030Y133645D01*
X842030Y134340D02*
X830570Y134340D01*
X830570Y135035D02*
X842030Y135035D01*
X842030Y135730D02*
X830570Y135730D01*
X830570Y136425D02*
X842030Y136425D01*
X842030Y137120D02*
X830570Y137120D01*
X830570Y137815D02*
X842030Y137815D01*
X842030Y138510D02*
X830570Y138510D01*
X830570Y139205D02*
X842030Y139205D01*
X842030Y139900D02*
X830570Y139900D01*
X830570Y140595D02*
X842030Y140595D01*
X842030Y141290D02*
X830570Y141290D01*
X830570Y141985D02*
X842030Y141985D01*
X842030Y142680D02*
X830570Y142680D01*
X830570Y143375D02*
X842030Y143375D01*
X842030Y144070D02*
X830570Y144070D01*
X830570Y144765D02*
X842030Y144765D01*
X842030Y145460D02*
X830570Y145460D01*
X830570Y146155D02*
X842030Y146155D01*
X842030Y146850D02*
X830570Y146850D01*
X830570Y147545D02*
X842030Y147545D01*
X842030Y148240D02*
X830570Y148240D01*
X830570Y148935D02*
X842030Y148935D01*
X842030Y149630D02*
X830570Y149630D01*
X830570Y150325D02*
X842030Y150325D01*
X842030Y151020D02*
X830570Y151020D01*
X830570Y151715D02*
X842030Y151715D01*
X842030Y152410D02*
X830570Y152410D01*
X830570Y153105D02*
X842030Y153105D01*
X842030Y153800D02*
X830570Y153800D01*
X810570Y154330D02*
X810570Y130170D01*
X810570Y154330D02*
X822030Y154330D01*
X822030Y130170D01*
X810570Y130170D01*
X810570Y130865D02*
X822030Y130865D01*
X822030Y131560D02*
X810570Y131560D01*
X810570Y132255D02*
X822030Y132255D01*
X822030Y132950D02*
X810570Y132950D01*
X810570Y133645D02*
X822030Y133645D01*
X822030Y134340D02*
X810570Y134340D01*
X810570Y135035D02*
X822030Y135035D01*
X822030Y135730D02*
X810570Y135730D01*
X810570Y136425D02*
X822030Y136425D01*
X822030Y137120D02*
X810570Y137120D01*
X810570Y137815D02*
X822030Y137815D01*
X822030Y138510D02*
X810570Y138510D01*
X810570Y139205D02*
X822030Y139205D01*
X822030Y139900D02*
X810570Y139900D01*
X810570Y140595D02*
X822030Y140595D01*
X822030Y141290D02*
X810570Y141290D01*
X810570Y141985D02*
X822030Y141985D01*
X822030Y142680D02*
X810570Y142680D01*
X810570Y143375D02*
X822030Y143375D01*
X822030Y144070D02*
X810570Y144070D01*
X810570Y144765D02*
X822030Y144765D01*
X822030Y145460D02*
X810570Y145460D01*
X810570Y146155D02*
X822030Y146155D01*
X822030Y146850D02*
X810570Y146850D01*
X810570Y147545D02*
X822030Y147545D01*
X822030Y148240D02*
X810570Y148240D01*
X810570Y148935D02*
X822030Y148935D01*
X822030Y149630D02*
X810570Y149630D01*
X810570Y150325D02*
X822030Y150325D01*
X822030Y151020D02*
X810570Y151020D01*
X810570Y151715D02*
X822030Y151715D01*
X822030Y152410D02*
X810570Y152410D01*
X810570Y153105D02*
X822030Y153105D01*
X822030Y153800D02*
X810570Y153800D01*
D10*
X490791Y140509D02*
X490791Y130491D01*
X490791Y140509D02*
X499809Y140509D01*
X499809Y130491D01*
X490791Y130491D01*
X490791Y130942D02*
X499809Y130942D01*
X499809Y131393D02*
X490791Y131393D01*
X490791Y131844D02*
X499809Y131844D01*
X499809Y132295D02*
X490791Y132295D01*
X490791Y132746D02*
X499809Y132746D01*
X499809Y133197D02*
X490791Y133197D01*
X490791Y133648D02*
X499809Y133648D01*
X499809Y134099D02*
X490791Y134099D01*
X490791Y134550D02*
X499809Y134550D01*
X499809Y135001D02*
X490791Y135001D01*
X490791Y135452D02*
X499809Y135452D01*
X499809Y135903D02*
X490791Y135903D01*
X490791Y136354D02*
X499809Y136354D01*
X499809Y136805D02*
X490791Y136805D01*
X490791Y137256D02*
X499809Y137256D01*
X499809Y137707D02*
X490791Y137707D01*
X490791Y138158D02*
X499809Y138158D01*
X499809Y138609D02*
X490791Y138609D01*
X490791Y139060D02*
X499809Y139060D01*
X499809Y139511D02*
X490791Y139511D01*
X490791Y139962D02*
X499809Y139962D01*
X499809Y140413D02*
X490791Y140413D01*
X490791Y123509D02*
X490791Y113491D01*
X490791Y123509D02*
X499809Y123509D01*
X499809Y113491D01*
X490791Y113491D01*
X490791Y113942D02*
X499809Y113942D01*
X499809Y114393D02*
X490791Y114393D01*
X490791Y114844D02*
X499809Y114844D01*
X499809Y115295D02*
X490791Y115295D01*
X490791Y115746D02*
X499809Y115746D01*
X499809Y116197D02*
X490791Y116197D01*
X490791Y116648D02*
X499809Y116648D01*
X499809Y117099D02*
X490791Y117099D01*
X490791Y117550D02*
X499809Y117550D01*
X499809Y118001D02*
X490791Y118001D01*
X490791Y118452D02*
X499809Y118452D01*
X499809Y118903D02*
X490791Y118903D01*
X490791Y119354D02*
X499809Y119354D01*
X499809Y119805D02*
X490791Y119805D01*
X490791Y120256D02*
X499809Y120256D01*
X499809Y120707D02*
X490791Y120707D01*
X490791Y121158D02*
X499809Y121158D01*
X499809Y121609D02*
X490791Y121609D01*
X490791Y122060D02*
X499809Y122060D01*
X499809Y122511D02*
X490791Y122511D01*
X490791Y122962D02*
X499809Y122962D01*
X499809Y123413D02*
X490791Y123413D01*
X421459Y134691D02*
X412441Y134691D01*
X412441Y144709D01*
X421459Y144709D01*
X421459Y134691D01*
X421459Y135142D02*
X412441Y135142D01*
X412441Y135593D02*
X421459Y135593D01*
X421459Y136044D02*
X412441Y136044D01*
X412441Y136495D02*
X421459Y136495D01*
X421459Y136946D02*
X412441Y136946D01*
X412441Y137397D02*
X421459Y137397D01*
X421459Y137848D02*
X412441Y137848D01*
X412441Y138299D02*
X421459Y138299D01*
X421459Y138750D02*
X412441Y138750D01*
X412441Y139201D02*
X421459Y139201D01*
X421459Y139652D02*
X412441Y139652D01*
X412441Y140103D02*
X421459Y140103D01*
X421459Y140554D02*
X412441Y140554D01*
X412441Y141005D02*
X421459Y141005D01*
X421459Y141456D02*
X412441Y141456D01*
X412441Y141907D02*
X421459Y141907D01*
X421459Y142358D02*
X412441Y142358D01*
X412441Y142809D02*
X421459Y142809D01*
X421459Y143260D02*
X412441Y143260D01*
X412441Y143711D02*
X421459Y143711D01*
X421459Y144162D02*
X412441Y144162D01*
X412441Y144613D02*
X421459Y144613D01*
X429441Y134691D02*
X438459Y134691D01*
X429441Y134691D02*
X429441Y144709D01*
X438459Y144709D01*
X438459Y134691D01*
X438459Y135142D02*
X429441Y135142D01*
X429441Y135593D02*
X438459Y135593D01*
X438459Y136044D02*
X429441Y136044D01*
X429441Y136495D02*
X438459Y136495D01*
X438459Y136946D02*
X429441Y136946D01*
X429441Y137397D02*
X438459Y137397D01*
X438459Y137848D02*
X429441Y137848D01*
X429441Y138299D02*
X438459Y138299D01*
X438459Y138750D02*
X429441Y138750D01*
X429441Y139201D02*
X438459Y139201D01*
X438459Y139652D02*
X429441Y139652D01*
X429441Y140103D02*
X438459Y140103D01*
X438459Y140554D02*
X429441Y140554D01*
X429441Y141005D02*
X438459Y141005D01*
X438459Y141456D02*
X429441Y141456D01*
X429441Y141907D02*
X438459Y141907D01*
X438459Y142358D02*
X429441Y142358D01*
X429441Y142809D02*
X438459Y142809D01*
X438459Y143260D02*
X429441Y143260D01*
X429441Y143711D02*
X438459Y143711D01*
X438459Y144162D02*
X429441Y144162D01*
X429441Y144613D02*
X438459Y144613D01*
X933491Y345509D02*
X942509Y345509D01*
X942509Y335491D01*
X933491Y335491D01*
X933491Y345509D01*
X933491Y335942D02*
X942509Y335942D01*
X942509Y336393D02*
X933491Y336393D01*
X933491Y336844D02*
X942509Y336844D01*
X942509Y337295D02*
X933491Y337295D01*
X933491Y337746D02*
X942509Y337746D01*
X942509Y338197D02*
X933491Y338197D01*
X933491Y338648D02*
X942509Y338648D01*
X942509Y339099D02*
X933491Y339099D01*
X933491Y339550D02*
X942509Y339550D01*
X942509Y340001D02*
X933491Y340001D01*
X933491Y340452D02*
X942509Y340452D01*
X942509Y340903D02*
X933491Y340903D01*
X933491Y341354D02*
X942509Y341354D01*
X942509Y341805D02*
X933491Y341805D01*
X933491Y342256D02*
X942509Y342256D01*
X942509Y342707D02*
X933491Y342707D01*
X933491Y343158D02*
X942509Y343158D01*
X942509Y343609D02*
X933491Y343609D01*
X933491Y344060D02*
X942509Y344060D01*
X942509Y344511D02*
X933491Y344511D01*
X933491Y344962D02*
X942509Y344962D01*
X942509Y345413D02*
X933491Y345413D01*
X925509Y345509D02*
X916491Y345509D01*
X925509Y345509D02*
X925509Y335491D01*
X916491Y335491D01*
X916491Y345509D01*
X916491Y335942D02*
X925509Y335942D01*
X925509Y336393D02*
X916491Y336393D01*
X916491Y336844D02*
X925509Y336844D01*
X925509Y337295D02*
X916491Y337295D01*
X916491Y337746D02*
X925509Y337746D01*
X925509Y338197D02*
X916491Y338197D01*
X916491Y338648D02*
X925509Y338648D01*
X925509Y339099D02*
X916491Y339099D01*
X916491Y339550D02*
X925509Y339550D01*
X925509Y340001D02*
X916491Y340001D01*
X916491Y340452D02*
X925509Y340452D01*
X925509Y340903D02*
X916491Y340903D01*
X916491Y341354D02*
X925509Y341354D01*
X925509Y341805D02*
X916491Y341805D01*
X916491Y342256D02*
X925509Y342256D01*
X925509Y342707D02*
X916491Y342707D01*
X916491Y343158D02*
X925509Y343158D01*
X925509Y343609D02*
X916491Y343609D01*
X916491Y344060D02*
X925509Y344060D01*
X925509Y344511D02*
X916491Y344511D01*
X916491Y344962D02*
X925509Y344962D01*
X925509Y345413D02*
X916491Y345413D01*
D24*
X946931Y464969D02*
X946931Y474831D01*
X946931Y464969D02*
X928069Y464969D01*
X928069Y474831D01*
X946931Y474831D01*
X946931Y465567D02*
X928069Y465567D01*
X928069Y466165D02*
X946931Y466165D01*
X946931Y466763D02*
X928069Y466763D01*
X928069Y467361D02*
X946931Y467361D01*
X946931Y467959D02*
X928069Y467959D01*
X928069Y468557D02*
X946931Y468557D01*
X946931Y469155D02*
X928069Y469155D01*
X928069Y469753D02*
X946931Y469753D01*
X946931Y470351D02*
X928069Y470351D01*
X928069Y470949D02*
X946931Y470949D01*
X946931Y471547D02*
X928069Y471547D01*
X928069Y472145D02*
X946931Y472145D01*
X946931Y472743D02*
X928069Y472743D01*
X928069Y473341D02*
X946931Y473341D01*
X946931Y473939D02*
X928069Y473939D01*
X928069Y474537D02*
X946931Y474537D01*
X946931Y490369D02*
X946931Y500231D01*
X946931Y490369D02*
X928069Y490369D01*
X928069Y500231D01*
X946931Y500231D01*
X946931Y490967D02*
X928069Y490967D01*
X928069Y491565D02*
X946931Y491565D01*
X946931Y492163D02*
X928069Y492163D01*
X928069Y492761D02*
X946931Y492761D01*
X946931Y493359D02*
X928069Y493359D01*
X928069Y493957D02*
X946931Y493957D01*
X946931Y494555D02*
X928069Y494555D01*
X928069Y495153D02*
X946931Y495153D01*
X946931Y495751D02*
X928069Y495751D01*
X928069Y496349D02*
X946931Y496349D01*
X946931Y496947D02*
X928069Y496947D01*
X928069Y497545D02*
X946931Y497545D01*
X946931Y498143D02*
X928069Y498143D01*
X928069Y498741D02*
X946931Y498741D01*
X946931Y499339D02*
X928069Y499339D01*
X928069Y499937D02*
X946931Y499937D01*
X839769Y500231D02*
X839769Y490369D01*
X839769Y500231D02*
X858631Y500231D01*
X858631Y490369D01*
X839769Y490369D01*
X839769Y490967D02*
X858631Y490967D01*
X858631Y491565D02*
X839769Y491565D01*
X839769Y492163D02*
X858631Y492163D01*
X858631Y492761D02*
X839769Y492761D01*
X839769Y493359D02*
X858631Y493359D01*
X858631Y493957D02*
X839769Y493957D01*
X839769Y494555D02*
X858631Y494555D01*
X858631Y495153D02*
X839769Y495153D01*
X839769Y495751D02*
X858631Y495751D01*
X858631Y496349D02*
X839769Y496349D01*
X839769Y496947D02*
X858631Y496947D01*
X858631Y497545D02*
X839769Y497545D01*
X839769Y498143D02*
X858631Y498143D01*
X858631Y498741D02*
X839769Y498741D01*
X839769Y499339D02*
X858631Y499339D01*
X858631Y499937D02*
X839769Y499937D01*
X839769Y474831D02*
X839769Y464969D01*
X839769Y474831D02*
X858631Y474831D01*
X858631Y464969D01*
X839769Y464969D01*
X839769Y465567D02*
X858631Y465567D01*
X858631Y466165D02*
X839769Y466165D01*
X839769Y466763D02*
X858631Y466763D01*
X858631Y467361D02*
X839769Y467361D01*
X839769Y467959D02*
X858631Y467959D01*
X858631Y468557D02*
X839769Y468557D01*
X839769Y469155D02*
X858631Y469155D01*
X858631Y469753D02*
X839769Y469753D01*
X839769Y470351D02*
X858631Y470351D01*
X858631Y470949D02*
X839769Y470949D01*
X839769Y471547D02*
X858631Y471547D01*
X858631Y472145D02*
X839769Y472145D01*
X839769Y472743D02*
X858631Y472743D01*
X858631Y473341D02*
X839769Y473341D01*
X839769Y473939D02*
X858631Y473939D01*
X858631Y474537D02*
X839769Y474537D01*
D10*
X425759Y493959D02*
X416741Y493959D01*
X425759Y493959D02*
X425759Y483941D01*
X416741Y483941D01*
X416741Y493959D01*
X416741Y484392D02*
X425759Y484392D01*
X425759Y484843D02*
X416741Y484843D01*
X416741Y485294D02*
X425759Y485294D01*
X425759Y485745D02*
X416741Y485745D01*
X416741Y486196D02*
X425759Y486196D01*
X425759Y486647D02*
X416741Y486647D01*
X416741Y487098D02*
X425759Y487098D01*
X425759Y487549D02*
X416741Y487549D01*
X416741Y488000D02*
X425759Y488000D01*
X425759Y488451D02*
X416741Y488451D01*
X416741Y488902D02*
X425759Y488902D01*
X425759Y489353D02*
X416741Y489353D01*
X416741Y489804D02*
X425759Y489804D01*
X425759Y490255D02*
X416741Y490255D01*
X416741Y490706D02*
X425759Y490706D01*
X425759Y491157D02*
X416741Y491157D01*
X416741Y491608D02*
X425759Y491608D01*
X425759Y492059D02*
X416741Y492059D01*
X416741Y492510D02*
X425759Y492510D01*
X425759Y492961D02*
X416741Y492961D01*
X416741Y493412D02*
X425759Y493412D01*
X425759Y493863D02*
X416741Y493863D01*
X408759Y493959D02*
X399741Y493959D01*
X408759Y493959D02*
X408759Y483941D01*
X399741Y483941D01*
X399741Y493959D01*
X399741Y484392D02*
X408759Y484392D01*
X408759Y484843D02*
X399741Y484843D01*
X399741Y485294D02*
X408759Y485294D01*
X408759Y485745D02*
X399741Y485745D01*
X399741Y486196D02*
X408759Y486196D01*
X408759Y486647D02*
X399741Y486647D01*
X399741Y487098D02*
X408759Y487098D01*
X408759Y487549D02*
X399741Y487549D01*
X399741Y488000D02*
X408759Y488000D01*
X408759Y488451D02*
X399741Y488451D01*
X399741Y488902D02*
X408759Y488902D01*
X408759Y489353D02*
X399741Y489353D01*
X399741Y489804D02*
X408759Y489804D01*
X408759Y490255D02*
X399741Y490255D01*
X399741Y490706D02*
X408759Y490706D01*
X408759Y491157D02*
X399741Y491157D01*
X399741Y491608D02*
X408759Y491608D01*
X408759Y492059D02*
X399741Y492059D01*
X399741Y492510D02*
X408759Y492510D01*
X408759Y492961D02*
X399741Y492961D01*
X399741Y493412D02*
X408759Y493412D01*
X408759Y493863D02*
X399741Y493863D01*
X399741Y458541D02*
X408759Y458541D01*
X399741Y458541D02*
X399741Y468559D01*
X408759Y468559D01*
X408759Y458541D01*
X408759Y458992D02*
X399741Y458992D01*
X399741Y459443D02*
X408759Y459443D01*
X408759Y459894D02*
X399741Y459894D01*
X399741Y460345D02*
X408759Y460345D01*
X408759Y460796D02*
X399741Y460796D01*
X399741Y461247D02*
X408759Y461247D01*
X408759Y461698D02*
X399741Y461698D01*
X399741Y462149D02*
X408759Y462149D01*
X408759Y462600D02*
X399741Y462600D01*
X399741Y463051D02*
X408759Y463051D01*
X408759Y463502D02*
X399741Y463502D01*
X399741Y463953D02*
X408759Y463953D01*
X408759Y464404D02*
X399741Y464404D01*
X399741Y464855D02*
X408759Y464855D01*
X408759Y465306D02*
X399741Y465306D01*
X399741Y465757D02*
X408759Y465757D01*
X408759Y466208D02*
X399741Y466208D01*
X399741Y466659D02*
X408759Y466659D01*
X408759Y467110D02*
X399741Y467110D01*
X399741Y467561D02*
X408759Y467561D01*
X408759Y468012D02*
X399741Y468012D01*
X399741Y468463D02*
X408759Y468463D01*
X416741Y458541D02*
X425759Y458541D01*
X416741Y458541D02*
X416741Y468559D01*
X425759Y468559D01*
X425759Y458541D01*
X425759Y458992D02*
X416741Y458992D01*
X416741Y459443D02*
X425759Y459443D01*
X425759Y459894D02*
X416741Y459894D01*
X416741Y460345D02*
X425759Y460345D01*
X425759Y460796D02*
X416741Y460796D01*
X416741Y461247D02*
X425759Y461247D01*
X425759Y461698D02*
X416741Y461698D01*
X416741Y462149D02*
X425759Y462149D01*
X425759Y462600D02*
X416741Y462600D01*
X416741Y463051D02*
X425759Y463051D01*
X425759Y463502D02*
X416741Y463502D01*
X416741Y463953D02*
X425759Y463953D01*
X425759Y464404D02*
X416741Y464404D01*
X416741Y464855D02*
X425759Y464855D01*
X425759Y465306D02*
X416741Y465306D01*
X416741Y465757D02*
X425759Y465757D01*
X425759Y466208D02*
X416741Y466208D01*
X416741Y466659D02*
X425759Y466659D01*
X425759Y467110D02*
X416741Y467110D01*
X416741Y467561D02*
X425759Y467561D01*
X425759Y468012D02*
X416741Y468012D01*
X416741Y468463D02*
X425759Y468463D01*
X811991Y103441D02*
X822009Y103441D01*
X811991Y103441D02*
X811991Y112459D01*
X822009Y112459D01*
X822009Y103441D01*
X822009Y103892D02*
X811991Y103892D01*
X811991Y104343D02*
X822009Y104343D01*
X822009Y104794D02*
X811991Y104794D01*
X811991Y105245D02*
X822009Y105245D01*
X822009Y105696D02*
X811991Y105696D01*
X811991Y106147D02*
X822009Y106147D01*
X822009Y106598D02*
X811991Y106598D01*
X811991Y107049D02*
X822009Y107049D01*
X822009Y107500D02*
X811991Y107500D01*
X811991Y107951D02*
X822009Y107951D01*
X822009Y108402D02*
X811991Y108402D01*
X811991Y108853D02*
X822009Y108853D01*
X822009Y109304D02*
X811991Y109304D01*
X811991Y109755D02*
X822009Y109755D01*
X822009Y110206D02*
X811991Y110206D01*
X811991Y110657D02*
X822009Y110657D01*
X822009Y111108D02*
X811991Y111108D01*
X811991Y111559D02*
X822009Y111559D01*
X822009Y112010D02*
X811991Y112010D01*
X828991Y103441D02*
X839009Y103441D01*
X828991Y103441D02*
X828991Y112459D01*
X839009Y112459D01*
X839009Y103441D01*
X839009Y103892D02*
X828991Y103892D01*
X828991Y104343D02*
X839009Y104343D01*
X839009Y104794D02*
X828991Y104794D01*
X828991Y105245D02*
X839009Y105245D01*
X839009Y105696D02*
X828991Y105696D01*
X828991Y106147D02*
X839009Y106147D01*
X839009Y106598D02*
X828991Y106598D01*
X828991Y107049D02*
X839009Y107049D01*
X839009Y107500D02*
X828991Y107500D01*
X828991Y107951D02*
X839009Y107951D01*
X839009Y108402D02*
X828991Y108402D01*
X828991Y108853D02*
X839009Y108853D01*
X839009Y109304D02*
X828991Y109304D01*
X828991Y109755D02*
X839009Y109755D01*
X839009Y110206D02*
X828991Y110206D01*
X828991Y110657D02*
X839009Y110657D01*
X839009Y111108D02*
X828991Y111108D01*
X828991Y111559D02*
X839009Y111559D01*
X839009Y112010D02*
X828991Y112010D01*
D25*
X682949Y500301D02*
X675951Y500301D01*
X675951Y505299D01*
X682949Y505299D01*
X682949Y500301D01*
X682949Y500770D02*
X675951Y500770D01*
X675951Y501239D02*
X682949Y501239D01*
X682949Y501708D02*
X675951Y501708D01*
X675951Y502177D02*
X682949Y502177D01*
X682949Y502646D02*
X675951Y502646D01*
X675951Y503115D02*
X682949Y503115D01*
X682949Y503584D02*
X675951Y503584D01*
X675951Y504053D02*
X682949Y504053D01*
X682949Y504522D02*
X675951Y504522D01*
X675951Y504991D02*
X682949Y504991D01*
X682949Y485301D02*
X675951Y485301D01*
X675951Y490299D01*
X682949Y490299D01*
X682949Y485301D01*
X682949Y485770D02*
X675951Y485770D01*
X675951Y486239D02*
X682949Y486239D01*
X682949Y486708D02*
X675951Y486708D01*
X675951Y487177D02*
X682949Y487177D01*
X682949Y487646D02*
X675951Y487646D01*
X675951Y488115D02*
X682949Y488115D01*
X682949Y488584D02*
X675951Y488584D01*
X675951Y489053D02*
X682949Y489053D01*
X682949Y489522D02*
X675951Y489522D01*
X675951Y489991D02*
X682949Y489991D01*
X688651Y500301D02*
X695649Y500301D01*
X688651Y500301D02*
X688651Y505299D01*
X695649Y505299D01*
X695649Y500301D01*
X695649Y500770D02*
X688651Y500770D01*
X688651Y501239D02*
X695649Y501239D01*
X695649Y501708D02*
X688651Y501708D01*
X688651Y502177D02*
X695649Y502177D01*
X695649Y502646D02*
X688651Y502646D01*
X688651Y503115D02*
X695649Y503115D01*
X695649Y503584D02*
X688651Y503584D01*
X688651Y504053D02*
X695649Y504053D01*
X695649Y504522D02*
X688651Y504522D01*
X688651Y504991D02*
X695649Y504991D01*
X695649Y485301D02*
X688651Y485301D01*
X688651Y490299D01*
X695649Y490299D01*
X695649Y485301D01*
X695649Y485770D02*
X688651Y485770D01*
X688651Y486239D02*
X695649Y486239D01*
X695649Y486708D02*
X688651Y486708D01*
X688651Y487177D02*
X695649Y487177D01*
X695649Y487646D02*
X688651Y487646D01*
X688651Y488115D02*
X695649Y488115D01*
X695649Y488584D02*
X688651Y488584D01*
X688651Y489053D02*
X695649Y489053D01*
X695649Y489522D02*
X688651Y489522D01*
X688651Y489991D02*
X695649Y489991D01*
X701351Y500301D02*
X708349Y500301D01*
X701351Y500301D02*
X701351Y505299D01*
X708349Y505299D01*
X708349Y500301D01*
X708349Y500770D02*
X701351Y500770D01*
X701351Y501239D02*
X708349Y501239D01*
X708349Y501708D02*
X701351Y501708D01*
X701351Y502177D02*
X708349Y502177D01*
X708349Y502646D02*
X701351Y502646D01*
X701351Y503115D02*
X708349Y503115D01*
X708349Y503584D02*
X701351Y503584D01*
X701351Y504053D02*
X708349Y504053D01*
X708349Y504522D02*
X701351Y504522D01*
X701351Y504991D02*
X708349Y504991D01*
X708349Y485301D02*
X701351Y485301D01*
X701351Y490299D01*
X708349Y490299D01*
X708349Y485301D01*
X708349Y485770D02*
X701351Y485770D01*
X701351Y486239D02*
X708349Y486239D01*
X708349Y486708D02*
X701351Y486708D01*
X701351Y487177D02*
X708349Y487177D01*
X708349Y487646D02*
X701351Y487646D01*
X701351Y488115D02*
X708349Y488115D01*
X708349Y488584D02*
X701351Y488584D01*
X701351Y489053D02*
X708349Y489053D01*
X708349Y489522D02*
X701351Y489522D01*
X701351Y489991D02*
X708349Y489991D01*
X714051Y500301D02*
X721049Y500301D01*
X714051Y500301D02*
X714051Y505299D01*
X721049Y505299D01*
X721049Y500301D01*
X721049Y500770D02*
X714051Y500770D01*
X714051Y501239D02*
X721049Y501239D01*
X721049Y501708D02*
X714051Y501708D01*
X714051Y502177D02*
X721049Y502177D01*
X721049Y502646D02*
X714051Y502646D01*
X714051Y503115D02*
X721049Y503115D01*
X721049Y503584D02*
X714051Y503584D01*
X714051Y504053D02*
X721049Y504053D01*
X721049Y504522D02*
X714051Y504522D01*
X714051Y504991D02*
X721049Y504991D01*
X721049Y485301D02*
X714051Y485301D01*
X714051Y490299D01*
X721049Y490299D01*
X721049Y485301D01*
X721049Y485770D02*
X714051Y485770D01*
X714051Y486239D02*
X721049Y486239D01*
X721049Y486708D02*
X714051Y486708D01*
X714051Y487177D02*
X721049Y487177D01*
X721049Y487646D02*
X714051Y487646D01*
X714051Y488115D02*
X721049Y488115D01*
X721049Y488584D02*
X714051Y488584D01*
X714051Y489053D02*
X721049Y489053D01*
X721049Y489522D02*
X714051Y489522D01*
X714051Y489991D02*
X721049Y489991D01*
X807799Y492449D02*
X807799Y485451D01*
X802801Y485451D01*
X802801Y492449D01*
X807799Y492449D01*
X807799Y485920D02*
X802801Y485920D01*
X802801Y486389D02*
X807799Y486389D01*
X807799Y486858D02*
X802801Y486858D01*
X802801Y487327D02*
X807799Y487327D01*
X807799Y487796D02*
X802801Y487796D01*
X802801Y488265D02*
X807799Y488265D01*
X807799Y488734D02*
X802801Y488734D01*
X802801Y489203D02*
X807799Y489203D01*
X807799Y489672D02*
X802801Y489672D01*
X802801Y490141D02*
X807799Y490141D01*
X807799Y490610D02*
X802801Y490610D01*
X802801Y491079D02*
X807799Y491079D01*
X807799Y491548D02*
X802801Y491548D01*
X802801Y492017D02*
X807799Y492017D01*
X822799Y492449D02*
X822799Y485451D01*
X817801Y485451D01*
X817801Y492449D01*
X822799Y492449D01*
X822799Y485920D02*
X817801Y485920D01*
X817801Y486389D02*
X822799Y486389D01*
X822799Y486858D02*
X817801Y486858D01*
X817801Y487327D02*
X822799Y487327D01*
X822799Y487796D02*
X817801Y487796D01*
X817801Y488265D02*
X822799Y488265D01*
X822799Y488734D02*
X817801Y488734D01*
X817801Y489203D02*
X822799Y489203D01*
X822799Y489672D02*
X817801Y489672D01*
X817801Y490141D02*
X822799Y490141D01*
X822799Y490610D02*
X817801Y490610D01*
X817801Y491079D02*
X822799Y491079D01*
X822799Y491548D02*
X817801Y491548D01*
X817801Y492017D02*
X822799Y492017D01*
D10*
X788209Y252159D02*
X778191Y252159D01*
X788209Y252159D02*
X788209Y243141D01*
X778191Y243141D01*
X778191Y252159D01*
X778191Y243592D02*
X788209Y243592D01*
X788209Y244043D02*
X778191Y244043D01*
X778191Y244494D02*
X788209Y244494D01*
X788209Y244945D02*
X778191Y244945D01*
X778191Y245396D02*
X788209Y245396D01*
X788209Y245847D02*
X778191Y245847D01*
X778191Y246298D02*
X788209Y246298D01*
X788209Y246749D02*
X778191Y246749D01*
X778191Y247200D02*
X788209Y247200D01*
X788209Y247651D02*
X778191Y247651D01*
X778191Y248102D02*
X788209Y248102D01*
X788209Y248553D02*
X778191Y248553D01*
X778191Y249004D02*
X788209Y249004D01*
X788209Y249455D02*
X778191Y249455D01*
X778191Y249906D02*
X788209Y249906D01*
X788209Y250357D02*
X778191Y250357D01*
X778191Y250808D02*
X788209Y250808D01*
X788209Y251259D02*
X778191Y251259D01*
X778191Y251710D02*
X788209Y251710D01*
X771209Y252159D02*
X761191Y252159D01*
X771209Y252159D02*
X771209Y243141D01*
X761191Y243141D01*
X761191Y252159D01*
X761191Y243592D02*
X771209Y243592D01*
X771209Y244043D02*
X761191Y244043D01*
X761191Y244494D02*
X771209Y244494D01*
X771209Y244945D02*
X761191Y244945D01*
X761191Y245396D02*
X771209Y245396D01*
X771209Y245847D02*
X761191Y245847D01*
X761191Y246298D02*
X771209Y246298D01*
X771209Y246749D02*
X761191Y246749D01*
X761191Y247200D02*
X771209Y247200D01*
X771209Y247651D02*
X761191Y247651D01*
X761191Y248102D02*
X771209Y248102D01*
X771209Y248553D02*
X761191Y248553D01*
X761191Y249004D02*
X771209Y249004D01*
X771209Y249455D02*
X761191Y249455D01*
X761191Y249906D02*
X771209Y249906D01*
X771209Y250357D02*
X761191Y250357D01*
X761191Y250808D02*
X771209Y250808D01*
X771209Y251259D02*
X761191Y251259D01*
X761191Y251710D02*
X771209Y251710D01*
M02*
