G04 EAGLE Gerber RS-274X export*
G75*
%MOMM*%
%FSLAX34Y34*%
%LPD*%
%INSolderpaste Bottom*%
%IPPOS*%
%AMOC8*
5,1,8,0,0,1.08239X$1,22.5*%
G01*
%ADD10C,0.103122*%


D10*
X888499Y70351D02*
X902201Y70351D01*
X902201Y31249D01*
X888499Y31249D01*
X888499Y70351D01*
X888499Y32228D02*
X902201Y32228D01*
X902201Y33207D02*
X888499Y33207D01*
X888499Y34186D02*
X902201Y34186D01*
X902201Y35165D02*
X888499Y35165D01*
X888499Y36144D02*
X902201Y36144D01*
X902201Y37123D02*
X888499Y37123D01*
X888499Y38102D02*
X902201Y38102D01*
X902201Y39081D02*
X888499Y39081D01*
X888499Y40060D02*
X902201Y40060D01*
X902201Y41039D02*
X888499Y41039D01*
X888499Y42018D02*
X902201Y42018D01*
X902201Y42997D02*
X888499Y42997D01*
X888499Y43976D02*
X902201Y43976D01*
X902201Y44955D02*
X888499Y44955D01*
X888499Y45934D02*
X902201Y45934D01*
X902201Y46913D02*
X888499Y46913D01*
X888499Y47892D02*
X902201Y47892D01*
X902201Y48871D02*
X888499Y48871D01*
X888499Y49850D02*
X902201Y49850D01*
X902201Y50829D02*
X888499Y50829D01*
X888499Y51808D02*
X902201Y51808D01*
X902201Y52787D02*
X888499Y52787D01*
X888499Y53766D02*
X902201Y53766D01*
X902201Y54745D02*
X888499Y54745D01*
X888499Y55724D02*
X902201Y55724D01*
X902201Y56703D02*
X888499Y56703D01*
X888499Y57682D02*
X902201Y57682D01*
X902201Y58661D02*
X888499Y58661D01*
X888499Y59640D02*
X902201Y59640D01*
X902201Y60619D02*
X888499Y60619D01*
X888499Y61598D02*
X902201Y61598D01*
X902201Y62577D02*
X888499Y62577D01*
X888499Y63556D02*
X902201Y63556D01*
X902201Y64535D02*
X888499Y64535D01*
X888499Y65514D02*
X902201Y65514D01*
X902201Y66493D02*
X888499Y66493D01*
X888499Y67472D02*
X902201Y67472D01*
X902201Y68451D02*
X888499Y68451D01*
X888499Y69430D02*
X902201Y69430D01*
X851401Y70351D02*
X837699Y70351D01*
X851401Y70351D02*
X851401Y31249D01*
X837699Y31249D01*
X837699Y70351D01*
X837699Y32228D02*
X851401Y32228D01*
X851401Y33207D02*
X837699Y33207D01*
X837699Y34186D02*
X851401Y34186D01*
X851401Y35165D02*
X837699Y35165D01*
X837699Y36144D02*
X851401Y36144D01*
X851401Y37123D02*
X837699Y37123D01*
X837699Y38102D02*
X851401Y38102D01*
X851401Y39081D02*
X837699Y39081D01*
X837699Y40060D02*
X851401Y40060D01*
X851401Y41039D02*
X837699Y41039D01*
X837699Y42018D02*
X851401Y42018D01*
X851401Y42997D02*
X837699Y42997D01*
X837699Y43976D02*
X851401Y43976D01*
X851401Y44955D02*
X837699Y44955D01*
X837699Y45934D02*
X851401Y45934D01*
X851401Y46913D02*
X837699Y46913D01*
X837699Y47892D02*
X851401Y47892D01*
X851401Y48871D02*
X837699Y48871D01*
X837699Y49850D02*
X851401Y49850D01*
X851401Y50829D02*
X837699Y50829D01*
X837699Y51808D02*
X851401Y51808D01*
X851401Y52787D02*
X837699Y52787D01*
X837699Y53766D02*
X851401Y53766D01*
X851401Y54745D02*
X837699Y54745D01*
X837699Y55724D02*
X851401Y55724D01*
X851401Y56703D02*
X837699Y56703D01*
X837699Y57682D02*
X851401Y57682D01*
X851401Y58661D02*
X837699Y58661D01*
X837699Y59640D02*
X851401Y59640D01*
X851401Y60619D02*
X837699Y60619D01*
X837699Y61598D02*
X851401Y61598D01*
X851401Y62577D02*
X837699Y62577D01*
X837699Y63556D02*
X851401Y63556D01*
X851401Y64535D02*
X837699Y64535D01*
X837699Y65514D02*
X851401Y65514D01*
X851401Y66493D02*
X837699Y66493D01*
X837699Y67472D02*
X851401Y67472D01*
X851401Y68451D02*
X837699Y68451D01*
X837699Y69430D02*
X851401Y69430D01*
M02*
