G75*
%MOIN*%
%OFA0B0*%
%FSLAX25Y25*%
%IPPOS*%
%LPD*%
%AMOC8*
5,1,8,0,0,1.08239X$1,22.5*
%
%ADD10C,0.10400*%
%ADD11C,0.09258*%
%ADD12C,0.06306*%
%ADD13OC8,0.05200*%
%ADD14C,0.07400*%
%ADD15C,0.03550*%
%ADD16C,0.12998*%
%ADD17C,0.12211*%
%ADD18C,0.07800*%
%ADD19C,0.06400*%
%ADD20OC8,0.07400*%
%ADD21C,0.03943*%
%ADD22C,0.09000*%
%ADD23C,0.10400*%
%ADD24OC8,0.10400*%
%ADD25C,0.00640*%
%ADD26OC8,0.07800*%
%ADD27R,0.07800X0.07800*%
%ADD28C,0.09000*%
%ADD29OC8,0.08900*%
D10*
X0140700Y0112442D03*
X0168300Y0112442D03*
X0166587Y0379865D03*
X0218142Y0379865D03*
X0270760Y0379865D03*
X0340878Y0379865D03*
D11*
X0350327Y0360180D03*
X0360957Y0360180D03*
X0331429Y0360180D03*
X0320799Y0360180D03*
X0290839Y0360180D03*
X0280209Y0360180D03*
X0261311Y0360180D03*
X0250681Y0360180D03*
X0238220Y0360180D03*
X0227591Y0360180D03*
X0208693Y0360180D03*
X0198063Y0360180D03*
X0186665Y0360180D03*
X0176035Y0360180D03*
X0157138Y0360180D03*
X0146508Y0360180D03*
D12*
X0146902Y0379865D03*
X0186272Y0379865D03*
X0198457Y0379865D03*
X0237827Y0379865D03*
X0251075Y0379865D03*
X0290445Y0379865D03*
X0321193Y0379865D03*
X0360563Y0379865D03*
D13*
X0354500Y0339944D03*
X0324500Y0339944D03*
X0284500Y0339944D03*
X0254500Y0339944D03*
X0234500Y0339944D03*
X0204500Y0339944D03*
X0179500Y0339944D03*
X0149500Y0339944D03*
D14*
X0036035Y0275390D02*
X0036035Y0271190D01*
X0036035Y0224209D02*
X0036035Y0220009D01*
D15*
X0036035Y0222109D03*
X0036035Y0273290D03*
D16*
X0140366Y0273290D03*
X0140366Y0155180D03*
X0261528Y0120745D03*
X0306528Y0120745D03*
D17*
X0020642Y0093605D03*
X0381665Y0093605D03*
X0381665Y0375889D03*
X0020642Y0375889D03*
D18*
X0022500Y0250644D03*
X0022500Y0239244D03*
X0183130Y0228505D03*
X0193130Y0228505D03*
X0203130Y0228505D03*
X0213130Y0228505D03*
X0223130Y0228505D03*
X0233130Y0228505D03*
X0271528Y0155745D03*
X0281528Y0155745D03*
X0291528Y0155745D03*
X0301528Y0155745D03*
X0296528Y0145745D03*
X0286528Y0145745D03*
X0276528Y0145745D03*
X0241980Y0111204D03*
X0231980Y0111204D03*
X0221980Y0111204D03*
X0211980Y0111204D03*
X0201980Y0111204D03*
X0191980Y0111204D03*
D19*
X0031300Y0319944D02*
X0027700Y0319944D01*
X0027700Y0329944D02*
X0031300Y0329944D01*
X0031300Y0339944D02*
X0027700Y0339944D01*
D20*
X0145600Y0102642D03*
X0163400Y0102642D03*
D21*
X0068161Y0371965D03*
X0050839Y0371965D03*
D22*
X0091114Y0365844D02*
X0091114Y0360684D01*
X0107432Y0376060D02*
X0112592Y0376060D01*
D23*
X0113012Y0351453D02*
X0107012Y0351453D01*
D24*
X0320500Y0098938D03*
D25*
X0334120Y0105318D02*
X0339880Y0105318D01*
X0339880Y0089558D01*
X0334120Y0089558D01*
X0334120Y0105318D01*
X0334120Y0090197D02*
X0339880Y0090197D01*
X0339880Y0090836D02*
X0334120Y0090836D01*
X0334120Y0091475D02*
X0339880Y0091475D01*
X0339880Y0092114D02*
X0334120Y0092114D01*
X0334120Y0092753D02*
X0339880Y0092753D01*
X0339880Y0093392D02*
X0334120Y0093392D01*
X0334120Y0094031D02*
X0339880Y0094031D01*
X0339880Y0094670D02*
X0334120Y0094670D01*
X0334120Y0095309D02*
X0339880Y0095309D01*
X0339880Y0095948D02*
X0334120Y0095948D01*
X0334120Y0096587D02*
X0339880Y0096587D01*
X0339880Y0097226D02*
X0334120Y0097226D01*
X0334120Y0097865D02*
X0339880Y0097865D01*
X0339880Y0098504D02*
X0334120Y0098504D01*
X0334120Y0099143D02*
X0339880Y0099143D01*
X0339880Y0099782D02*
X0334120Y0099782D01*
X0334120Y0100421D02*
X0339880Y0100421D01*
X0339880Y0101060D02*
X0334120Y0101060D01*
X0334120Y0101699D02*
X0339880Y0101699D01*
X0339880Y0102338D02*
X0334120Y0102338D01*
X0334120Y0102977D02*
X0339880Y0102977D01*
X0339880Y0103616D02*
X0334120Y0103616D01*
X0334120Y0104255D02*
X0339880Y0104255D01*
X0339880Y0104894D02*
X0334120Y0104894D01*
X0354120Y0105318D02*
X0359880Y0105318D01*
X0359880Y0089558D01*
X0354120Y0089558D01*
X0354120Y0105318D01*
X0354120Y0090197D02*
X0359880Y0090197D01*
X0359880Y0090836D02*
X0354120Y0090836D01*
X0354120Y0091475D02*
X0359880Y0091475D01*
X0359880Y0092114D02*
X0354120Y0092114D01*
X0354120Y0092753D02*
X0359880Y0092753D01*
X0359880Y0093392D02*
X0354120Y0093392D01*
X0354120Y0094031D02*
X0359880Y0094031D01*
X0359880Y0094670D02*
X0354120Y0094670D01*
X0354120Y0095309D02*
X0359880Y0095309D01*
X0359880Y0095948D02*
X0354120Y0095948D01*
X0354120Y0096587D02*
X0359880Y0096587D01*
X0359880Y0097226D02*
X0354120Y0097226D01*
X0354120Y0097865D02*
X0359880Y0097865D01*
X0359880Y0098504D02*
X0354120Y0098504D01*
X0354120Y0099143D02*
X0359880Y0099143D01*
X0359880Y0099782D02*
X0354120Y0099782D01*
X0354120Y0100421D02*
X0359880Y0100421D01*
X0359880Y0101060D02*
X0354120Y0101060D01*
X0354120Y0101699D02*
X0359880Y0101699D01*
X0359880Y0102338D02*
X0354120Y0102338D01*
X0354120Y0102977D02*
X0359880Y0102977D01*
X0359880Y0103616D02*
X0354120Y0103616D01*
X0354120Y0104255D02*
X0359880Y0104255D01*
X0359880Y0104894D02*
X0354120Y0104894D01*
D26*
X0358752Y0227438D03*
X0358752Y0237438D03*
X0358752Y0247438D03*
X0368752Y0247438D03*
X0368752Y0237438D03*
X0368752Y0227438D03*
D27*
X0266528Y0145745D03*
D28*
X0117689Y0091755D03*
X0103909Y0091755D03*
X0090130Y0091755D03*
X0076350Y0091755D03*
X0062571Y0091755D03*
X0048791Y0091755D03*
D29*
X0048500Y0110438D03*
X0062500Y0110438D03*
X0076500Y0110438D03*
X0089500Y0110438D03*
X0103500Y0110438D03*
X0117500Y0110438D03*
M02*
