G75*
%MOIN*%
%OFA0B0*%
%FSLAX25Y25*%
%IPPOS*%
%LPD*%
%AMOC8*
5,1,8,0,0,1.08239X$1,22.5*
%
%ADD10C,0.00600*%
%ADD11C,0.10000*%
%ADD12C,0.08858*%
%ADD13OC8,0.04800*%
%ADD14C,0.07000*%
%ADD15C,0.07400*%
%ADD16C,0.06000*%
%ADD17OC8,0.07000*%
%ADD18C,0.08600*%
%ADD19C,0.10000*%
%ADD20OC8,0.10000*%
%ADD21OC8,0.07400*%
%ADD22R,0.07400X0.07400*%
%ADD23C,0.08600*%
%ADD24OC8,0.08500*%
%ADD25C,0.03569*%
%ADD26C,0.02000*%
%ADD27C,0.00800*%
%ADD28C,0.01600*%
%ADD29C,0.01000*%
%ADD30C,0.03000*%
D10*
X0334300Y0105138D02*
X0339700Y0105138D01*
X0339700Y0089738D01*
X0334300Y0089738D01*
X0334300Y0105138D01*
X0334300Y0090337D02*
X0339700Y0090337D01*
X0339700Y0090936D02*
X0334300Y0090936D01*
X0334300Y0091535D02*
X0339700Y0091535D01*
X0339700Y0092134D02*
X0334300Y0092134D01*
X0334300Y0092733D02*
X0339700Y0092733D01*
X0339700Y0093332D02*
X0334300Y0093332D01*
X0334300Y0093931D02*
X0339700Y0093931D01*
X0339700Y0094530D02*
X0334300Y0094530D01*
X0334300Y0095129D02*
X0339700Y0095129D01*
X0339700Y0095728D02*
X0334300Y0095728D01*
X0334300Y0096327D02*
X0339700Y0096327D01*
X0339700Y0096926D02*
X0334300Y0096926D01*
X0334300Y0097525D02*
X0339700Y0097525D01*
X0339700Y0098124D02*
X0334300Y0098124D01*
X0334300Y0098723D02*
X0339700Y0098723D01*
X0339700Y0099322D02*
X0334300Y0099322D01*
X0334300Y0099921D02*
X0339700Y0099921D01*
X0339700Y0100520D02*
X0334300Y0100520D01*
X0334300Y0101119D02*
X0339700Y0101119D01*
X0339700Y0101718D02*
X0334300Y0101718D01*
X0334300Y0102317D02*
X0339700Y0102317D01*
X0339700Y0102916D02*
X0334300Y0102916D01*
X0334300Y0103515D02*
X0339700Y0103515D01*
X0339700Y0104114D02*
X0334300Y0104114D01*
X0334300Y0104713D02*
X0339700Y0104713D01*
X0354300Y0105138D02*
X0359700Y0105138D01*
X0359700Y0089738D01*
X0354300Y0089738D01*
X0354300Y0105138D01*
X0354300Y0090337D02*
X0359700Y0090337D01*
X0359700Y0090936D02*
X0354300Y0090936D01*
X0354300Y0091535D02*
X0359700Y0091535D01*
X0359700Y0092134D02*
X0354300Y0092134D01*
X0354300Y0092733D02*
X0359700Y0092733D01*
X0359700Y0093332D02*
X0354300Y0093332D01*
X0354300Y0093931D02*
X0359700Y0093931D01*
X0359700Y0094530D02*
X0354300Y0094530D01*
X0354300Y0095129D02*
X0359700Y0095129D01*
X0359700Y0095728D02*
X0354300Y0095728D01*
X0354300Y0096327D02*
X0359700Y0096327D01*
X0359700Y0096926D02*
X0354300Y0096926D01*
X0354300Y0097525D02*
X0359700Y0097525D01*
X0359700Y0098124D02*
X0354300Y0098124D01*
X0354300Y0098723D02*
X0359700Y0098723D01*
X0359700Y0099322D02*
X0354300Y0099322D01*
X0354300Y0099921D02*
X0359700Y0099921D01*
X0359700Y0100520D02*
X0354300Y0100520D01*
X0354300Y0101119D02*
X0359700Y0101119D01*
X0359700Y0101718D02*
X0354300Y0101718D01*
X0354300Y0102317D02*
X0359700Y0102317D01*
X0359700Y0102916D02*
X0354300Y0102916D01*
X0354300Y0103515D02*
X0359700Y0103515D01*
X0359700Y0104114D02*
X0354300Y0104114D01*
X0354300Y0104713D02*
X0359700Y0104713D01*
X0012698Y0243681D02*
X0011881Y0242864D01*
X0008611Y0242864D01*
X0007794Y0243681D01*
X0007794Y0245316D01*
X0008611Y0246133D01*
X0011881Y0246133D01*
X0012698Y0245316D01*
X0012698Y0243681D01*
X0011063Y0247928D02*
X0006159Y0247928D01*
X0007794Y0247928D02*
X0007794Y0250380D01*
X0008611Y0251197D01*
X0010246Y0251197D01*
X0011063Y0250380D01*
X0011063Y0247928D01*
X0010246Y0252992D02*
X0011063Y0253810D01*
X0011063Y0255444D01*
X0010246Y0256262D01*
X0009428Y0256262D01*
X0009428Y0252992D01*
X0008611Y0252992D02*
X0010246Y0252992D01*
X0008611Y0252992D02*
X0007794Y0253810D01*
X0007794Y0255444D01*
X0007794Y0258057D02*
X0011063Y0258057D01*
X0011063Y0260509D01*
X0010246Y0261326D01*
X0007794Y0261326D01*
X0007794Y0263121D02*
X0007794Y0266390D01*
X0007794Y0268185D02*
X0011063Y0268185D01*
X0011063Y0270637D01*
X0010246Y0271455D01*
X0007794Y0271455D01*
X0008611Y0273250D02*
X0010246Y0273250D01*
X0011063Y0274067D01*
X0011063Y0275702D01*
X0010246Y0276519D01*
X0009428Y0276519D01*
X0009428Y0273250D01*
X0008611Y0273250D02*
X0007794Y0274067D01*
X0007794Y0275702D01*
X0007794Y0278314D02*
X0011063Y0278314D01*
X0009428Y0278314D02*
X0011063Y0279949D01*
X0011063Y0280766D01*
X0010246Y0282534D02*
X0008611Y0282534D01*
X0007794Y0283352D01*
X0007794Y0285804D01*
X0006976Y0285804D02*
X0011063Y0285804D01*
X0011063Y0283352D01*
X0010246Y0282534D01*
X0006159Y0284169D02*
X0006159Y0284986D01*
X0006976Y0285804D01*
X0008611Y0287598D02*
X0007794Y0288416D01*
X0007794Y0290868D01*
X0006976Y0290868D02*
X0006159Y0290051D01*
X0006159Y0289233D01*
X0006976Y0290868D02*
X0011063Y0290868D01*
X0012698Y0292663D02*
X0011063Y0294298D01*
X0012698Y0295932D01*
X0007794Y0295932D01*
X0008611Y0297727D02*
X0007794Y0298544D01*
X0007794Y0300179D01*
X0008611Y0300997D01*
X0010246Y0300997D01*
X0011063Y0300179D01*
X0011063Y0298544D01*
X0010246Y0297727D01*
X0008611Y0297727D01*
X0007794Y0292663D02*
X0012698Y0292663D01*
X0011063Y0287598D02*
X0008611Y0287598D01*
X0007794Y0302791D02*
X0011063Y0302791D01*
X0011063Y0305244D01*
X0010246Y0306061D01*
X0007794Y0306061D01*
X0007794Y0307856D02*
X0007794Y0309490D01*
X0007794Y0308673D02*
X0011063Y0308673D01*
X0011063Y0307856D01*
X0012698Y0308673D02*
X0013515Y0308673D01*
X0011063Y0311232D02*
X0011063Y0312867D01*
X0011881Y0312049D02*
X0008611Y0312049D01*
X0007794Y0312867D01*
X0008611Y0314608D02*
X0007794Y0315426D01*
X0007794Y0317060D01*
X0008611Y0317878D01*
X0010246Y0317878D01*
X0011063Y0317060D01*
X0011063Y0315426D01*
X0010246Y0314608D01*
X0008611Y0314608D01*
X0007794Y0319673D02*
X0011063Y0319673D01*
X0011063Y0321307D02*
X0009428Y0319673D01*
X0011063Y0321307D02*
X0011063Y0322125D01*
X0008611Y0323893D02*
X0008611Y0324710D01*
X0007794Y0324710D01*
X0007794Y0323893D01*
X0008611Y0323893D01*
X0008611Y0326425D02*
X0007794Y0327242D01*
X0007794Y0328877D01*
X0008611Y0329694D01*
X0010246Y0329694D01*
X0011063Y0328877D01*
X0011063Y0327242D01*
X0010246Y0326425D01*
X0008611Y0326425D01*
X0007794Y0331489D02*
X0011063Y0331489D01*
X0009428Y0331489D02*
X0011063Y0333124D01*
X0011063Y0333941D01*
X0010246Y0335710D02*
X0008611Y0335710D01*
X0007794Y0336527D01*
X0007794Y0338979D01*
X0006976Y0338979D02*
X0011063Y0338979D01*
X0011063Y0336527D01*
X0010246Y0335710D01*
X0006159Y0337344D02*
X0006159Y0338162D01*
X0006976Y0338979D01*
X0012698Y0266390D02*
X0012698Y0263121D01*
X0007794Y0263121D01*
X0010246Y0263121D02*
X0010246Y0264756D01*
D11*
X0166587Y0379865D03*
X0218142Y0379865D03*
X0270760Y0379865D03*
X0340878Y0379865D03*
X0168300Y0112442D03*
X0140700Y0112442D03*
D12*
X0146508Y0360180D03*
X0157138Y0360180D03*
X0176035Y0360180D03*
X0186665Y0360180D03*
X0198063Y0360180D03*
X0208693Y0360180D03*
X0227591Y0360180D03*
X0238220Y0360180D03*
X0250681Y0360180D03*
X0261311Y0360180D03*
X0280209Y0360180D03*
X0290839Y0360180D03*
X0320799Y0360180D03*
X0331429Y0360180D03*
X0350327Y0360180D03*
X0360957Y0360180D03*
D13*
X0354500Y0339944D03*
X0324500Y0339944D03*
X0284500Y0339944D03*
X0254500Y0339944D03*
X0234500Y0339944D03*
X0204500Y0339944D03*
X0179500Y0339944D03*
X0149500Y0339944D03*
D14*
X0036035Y0275390D02*
X0036035Y0271190D01*
X0036035Y0224209D02*
X0036035Y0220009D01*
D15*
X0022500Y0239244D03*
X0022500Y0250644D03*
X0183130Y0228505D03*
X0193130Y0228505D03*
X0203130Y0228505D03*
X0213130Y0228505D03*
X0223130Y0228505D03*
X0233130Y0228505D03*
X0271528Y0155745D03*
X0281528Y0155745D03*
X0291528Y0155745D03*
X0301528Y0155745D03*
X0296528Y0145745D03*
X0286528Y0145745D03*
X0276528Y0145745D03*
X0241980Y0111204D03*
X0231980Y0111204D03*
X0221980Y0111204D03*
X0211980Y0111204D03*
X0201980Y0111204D03*
X0191980Y0111204D03*
D16*
X0031300Y0319944D02*
X0027700Y0319944D01*
X0027700Y0329944D02*
X0031300Y0329944D01*
X0031300Y0339944D02*
X0027700Y0339944D01*
D17*
X0145600Y0102642D03*
X0163400Y0102642D03*
D18*
X0091114Y0360684D02*
X0091114Y0365844D01*
X0107432Y0376060D02*
X0112592Y0376060D01*
D19*
X0113012Y0351453D02*
X0107012Y0351453D01*
D20*
X0320500Y0098938D03*
D21*
X0358752Y0227438D03*
X0358752Y0237438D03*
X0358752Y0247438D03*
X0368752Y0247438D03*
X0368752Y0237438D03*
X0368752Y0227438D03*
D22*
X0266528Y0145745D03*
D23*
X0117689Y0091755D03*
X0103909Y0091755D03*
X0090130Y0091755D03*
X0076350Y0091755D03*
X0062571Y0091755D03*
X0048791Y0091755D03*
D24*
X0048500Y0110438D03*
X0062500Y0110438D03*
X0076500Y0110438D03*
X0089500Y0110438D03*
X0103500Y0110438D03*
X0117500Y0110438D03*
D25*
X0129500Y0081438D03*
X0180126Y0098075D03*
X0213000Y0096938D03*
X0247000Y0087938D03*
X0314500Y0104938D03*
X0330500Y0096938D03*
X0330500Y0090938D03*
X0324500Y0090938D03*
X0318500Y0084938D03*
X0357500Y0111938D03*
X0366500Y0108938D03*
X0365500Y0119438D03*
X0349500Y0122938D03*
X0341500Y0123938D03*
X0341500Y0144938D03*
X0307000Y0133438D03*
X0304500Y0145438D03*
X0279500Y0173938D03*
X0292000Y0180938D03*
X0271500Y0188938D03*
X0283500Y0198938D03*
X0305000Y0213438D03*
X0311000Y0218938D03*
X0324000Y0213438D03*
X0326000Y0205438D03*
X0345500Y0213938D03*
X0359000Y0211438D03*
X0373000Y0204938D03*
X0389000Y0193438D03*
X0335500Y0223938D03*
X0330000Y0221938D03*
X0315000Y0238938D03*
X0309000Y0238938D03*
X0308500Y0245438D03*
X0315000Y0244938D03*
X0330500Y0258438D03*
X0336000Y0256438D03*
X0326500Y0264438D03*
X0327500Y0275438D03*
X0334500Y0278938D03*
X0350000Y0272438D03*
X0351500Y0262438D03*
X0367500Y0278438D03*
X0365500Y0288938D03*
X0370500Y0295438D03*
X0387000Y0293438D03*
X0357500Y0309438D03*
X0331500Y0317438D03*
X0313000Y0310438D03*
X0331500Y0296438D03*
X0299500Y0284938D03*
X0286000Y0283438D03*
X0281000Y0280438D03*
X0294500Y0273438D03*
X0303500Y0273438D03*
X0303500Y0267438D03*
X0283000Y0257438D03*
X0266500Y0270438D03*
X0256500Y0278438D03*
X0234500Y0279438D03*
X0224000Y0283438D03*
X0214500Y0272438D03*
X0195500Y0277438D03*
X0212000Y0294438D03*
X0227000Y0304938D03*
X0237500Y0298438D03*
X0255500Y0312938D03*
X0263000Y0318938D03*
X0269500Y0304938D03*
X0287500Y0312438D03*
X0300000Y0340938D03*
X0245500Y0332438D03*
X0213000Y0318938D03*
X0198000Y0312438D03*
X0191000Y0298438D03*
X0169500Y0304938D03*
X0168500Y0289438D03*
X0149500Y0295438D03*
X0127000Y0304938D03*
X0157500Y0319938D03*
X0191500Y0334938D03*
X0125500Y0272438D03*
X0100000Y0270938D03*
X0082500Y0266438D03*
X0075000Y0276938D03*
X0074500Y0252438D03*
X0064500Y0252438D03*
X0093500Y0230938D03*
X0105000Y0221438D03*
X0164000Y0201938D03*
X0176154Y0208540D03*
X0201500Y0201438D03*
X0179500Y0178438D03*
X0169500Y0159438D03*
X0225000Y0154438D03*
X0240500Y0140438D03*
X0243500Y0186438D03*
X0266000Y0221438D03*
X0266000Y0237438D03*
X0280000Y0232438D03*
X0281000Y0238438D03*
X0291000Y0230438D03*
X0283500Y0224438D03*
X0243500Y0242938D03*
X0219500Y0254938D03*
X0214000Y0249938D03*
X0195445Y0243579D03*
X0314500Y0179438D03*
X0321000Y0184938D03*
X0388500Y0150938D03*
X0391500Y0131938D03*
X0390500Y0116938D03*
X0363500Y0097938D03*
X0363500Y0089938D03*
X0345500Y0242938D03*
X0335500Y0242938D03*
X0382000Y0247438D03*
X0115000Y0146438D03*
X0030000Y0174938D03*
X0016600Y0275638D03*
X0069000Y0312938D03*
X0064500Y0320438D03*
X0067000Y0332438D03*
X0031500Y0358438D03*
X0082500Y0372438D03*
D26*
X0044500Y0334938D02*
X0039494Y0339944D01*
X0029500Y0339944D01*
X0044500Y0334938D02*
X0064500Y0334938D01*
X0067000Y0332438D01*
X0074500Y0252438D02*
X0074500Y0242438D01*
X0054172Y0222109D01*
X0076500Y0199781D01*
X0076500Y0110438D01*
X0054172Y0222109D02*
X0036035Y0222109D01*
X0022706Y0250644D02*
X0022500Y0250644D01*
X0022706Y0250644D02*
X0024500Y0252438D01*
D27*
X0042888Y0266438D02*
X0036035Y0273290D01*
X0042888Y0266438D02*
X0082500Y0266438D01*
X0105000Y0221438D02*
X0105000Y0111938D01*
X0103500Y0110438D01*
X0087238Y0102642D02*
X0076350Y0091755D01*
X0087238Y0102642D02*
X0145600Y0102642D01*
X0145600Y0099838D01*
X0152500Y0092938D01*
X0235000Y0092938D01*
X0242000Y0099938D01*
X0242000Y0111184D01*
X0241980Y0111204D01*
X0211980Y0111204D02*
X0211980Y0106965D01*
X0205287Y0100272D01*
X0189933Y0100272D01*
X0182453Y0107753D01*
X0182453Y0122713D01*
X0186783Y0127044D01*
X0186783Y0183343D01*
X0176154Y0193973D01*
X0176154Y0208540D01*
X0179697Y0220745D02*
X0174972Y0225469D01*
X0174972Y0232949D01*
X0179303Y0237280D01*
X0200563Y0237280D01*
X0201343Y0237280D01*
X0214000Y0249938D01*
X0200563Y0237280D02*
X0203319Y0234524D01*
X0203319Y0228694D01*
X0203130Y0228505D01*
X0195445Y0243579D02*
X0195445Y0277383D01*
X0195500Y0277438D01*
X0214500Y0272438D02*
X0224000Y0281938D01*
X0224000Y0283438D01*
X0247922Y0257438D02*
X0239933Y0249448D01*
X0239933Y0152874D01*
X0239816Y0151757D01*
X0239816Y0149119D01*
X0240500Y0147434D01*
X0240500Y0140438D01*
X0262000Y0152938D02*
X0262000Y0179438D01*
X0271500Y0188938D01*
X0283500Y0198938D02*
X0283500Y0224438D01*
X0290000Y0230938D01*
X0291000Y0230438D01*
X0287500Y0238438D02*
X0281000Y0238438D01*
X0280000Y0232438D02*
X0279500Y0231938D01*
X0279500Y0173938D01*
X0282000Y0161438D02*
X0282000Y0156217D01*
X0281528Y0155745D01*
X0282000Y0161438D02*
X0309500Y0188938D01*
X0309500Y0215938D01*
X0311000Y0217438D01*
X0311000Y0218938D01*
X0312500Y0214438D02*
X0333500Y0235438D01*
X0333500Y0238938D01*
X0330500Y0241938D01*
X0330500Y0250938D01*
X0336000Y0256438D01*
X0330500Y0258438D02*
X0330500Y0262438D01*
X0350500Y0282438D01*
X0359000Y0282438D01*
X0365500Y0288938D01*
X0371500Y0286438D02*
X0371500Y0294438D01*
X0370500Y0295438D01*
X0374500Y0295438D01*
X0376500Y0293438D01*
X0387000Y0293438D01*
X0372500Y0293438D02*
X0370500Y0295438D01*
X0371500Y0286438D02*
X0367500Y0282438D01*
X0367500Y0278438D01*
X0350000Y0272438D02*
X0350000Y0269938D01*
X0347500Y0267438D01*
X0347500Y0258938D01*
X0349000Y0257438D01*
X0349000Y0231938D01*
X0341000Y0223938D01*
X0335500Y0223938D01*
X0332000Y0219938D02*
X0330000Y0221938D01*
X0332000Y0219938D02*
X0342000Y0219938D01*
X0351500Y0229438D01*
X0351500Y0262438D01*
X0358752Y0247438D02*
X0366752Y0255438D01*
X0377500Y0255438D01*
X0382000Y0250938D01*
X0382000Y0247438D01*
X0376500Y0237438D02*
X0368752Y0237438D01*
X0376500Y0237438D02*
X0385000Y0228938D01*
X0385000Y0124438D01*
X0380000Y0119438D01*
X0365500Y0119438D01*
X0337000Y0097438D02*
X0337000Y0096938D01*
X0326750Y0086688D01*
X0324250Y0086688D01*
X0323000Y0085438D01*
X0273652Y0085438D01*
X0201980Y0104446D02*
X0201350Y0103816D01*
X0189539Y0103816D01*
X0185209Y0108146D01*
X0185209Y0120745D01*
X0189146Y0124682D01*
X0189146Y0184524D01*
X0179697Y0193973D01*
X0179697Y0220745D01*
X0183240Y0228394D02*
X0183130Y0228505D01*
X0183240Y0228394D02*
X0183240Y0193579D01*
X0191980Y0184839D01*
X0191980Y0111204D01*
X0201980Y0111204D02*
X0201980Y0104446D01*
X0201980Y0111204D02*
X0202000Y0111223D01*
X0169500Y0159438D02*
X0169500Y0168438D01*
X0179500Y0178438D01*
X0243500Y0186438D02*
X0243500Y0242938D01*
X0247922Y0257438D02*
X0283000Y0257438D01*
X0285364Y0255074D01*
X0297136Y0255074D01*
X0321000Y0278938D01*
X0334500Y0278938D01*
X0327500Y0275438D02*
X0326500Y0274438D01*
X0326500Y0264438D01*
X0335500Y0242938D02*
X0345500Y0242938D01*
X0358752Y0227438D02*
X0359000Y0227190D01*
X0359000Y0211438D01*
X0345500Y0213938D02*
X0337000Y0205438D01*
X0326000Y0205438D01*
X0321000Y0210438D02*
X0324000Y0213438D01*
X0323500Y0212438D01*
X0321000Y0210438D02*
X0321000Y0184938D01*
X0312500Y0184938D02*
X0312500Y0214438D01*
X0305500Y0213938D02*
X0305500Y0220438D01*
X0287500Y0238438D01*
X0290000Y0255938D02*
X0284500Y0255938D01*
X0283000Y0257438D01*
X0286000Y0283438D02*
X0288500Y0284938D01*
X0299500Y0284938D01*
X0368752Y0227438D02*
X0373000Y0223190D01*
X0373000Y0204938D01*
X0312500Y0184938D02*
X0301528Y0173965D01*
X0301528Y0155745D01*
X0304500Y0145438D02*
X0305000Y0144938D01*
X0341500Y0144938D01*
X0304500Y0145438D02*
X0304000Y0144938D01*
X0305000Y0213438D02*
X0305500Y0213938D01*
X0305000Y0213438D02*
X0305000Y0214438D01*
X0064500Y0320438D02*
X0054700Y0320438D01*
X0044000Y0331138D01*
X0030694Y0331138D01*
X0029500Y0329944D01*
D28*
X0029500Y0319944D02*
X0044506Y0304938D01*
X0127000Y0304938D01*
X0157500Y0319938D02*
X0158346Y0319091D01*
X0262846Y0319091D01*
X0263000Y0318938D01*
X0263000Y0358491D01*
X0261311Y0360180D01*
X0213000Y0355873D02*
X0208693Y0360180D01*
X0213000Y0355873D02*
X0213000Y0318938D01*
X0200000Y0304938D02*
X0199500Y0304438D01*
X0170000Y0304438D01*
X0169500Y0304938D01*
X0191000Y0298438D02*
X0195000Y0294438D01*
X0212000Y0294438D01*
X0200000Y0304938D02*
X0227000Y0304938D01*
X0269500Y0304938D01*
X0263000Y0318938D02*
X0330000Y0318938D01*
X0331500Y0317438D01*
X0331500Y0296438D01*
X0326500Y0283938D02*
X0342000Y0283938D01*
X0351500Y0293438D01*
X0351500Y0303438D01*
X0357500Y0309438D01*
X0326500Y0283938D02*
X0324500Y0281938D01*
X0305500Y0281938D01*
X0298000Y0274438D01*
X0295500Y0274438D01*
X0294500Y0273438D01*
X0290500Y0270438D02*
X0291500Y0269438D01*
X0299500Y0269438D01*
X0303500Y0273438D01*
X0303500Y0267438D02*
X0302500Y0267438D01*
X0300500Y0265438D01*
X0255500Y0265438D01*
X0253500Y0267438D01*
X0253500Y0275438D01*
X0256500Y0278438D01*
X0256500Y0279438D01*
X0237500Y0298438D01*
X0266500Y0270438D02*
X0290500Y0270438D01*
X0281000Y0280438D02*
X0281000Y0292938D01*
X0287500Y0299438D01*
X0287500Y0312438D01*
X0353000Y0227438D02*
X0358752Y0227438D01*
X0353000Y0227438D02*
X0343000Y0217438D01*
X0321500Y0217438D01*
X0315000Y0210938D01*
X0315000Y0179938D01*
X0314500Y0179438D01*
X0296528Y0145745D02*
X0296500Y0145717D01*
X0296500Y0139438D01*
X0288500Y0131438D01*
X0239500Y0131438D01*
X0224745Y0131438D01*
X0213130Y0143053D01*
X0213130Y0142456D01*
X0213130Y0143053D02*
X0213130Y0228505D01*
X0239500Y0131438D02*
X0221980Y0113918D01*
X0221980Y0111204D01*
X0129500Y0081438D02*
X0059109Y0081438D01*
X0048791Y0091755D01*
D29*
X0032233Y0080229D02*
X0030879Y0079358D01*
X0057655Y0079356D01*
X0050884Y0086127D01*
X0049985Y0085755D01*
X0047598Y0085755D01*
X0045393Y0086668D01*
X0043705Y0088356D01*
X0042791Y0090562D01*
X0042791Y0092948D01*
X0043705Y0095154D01*
X0045393Y0096842D01*
X0047598Y0097755D01*
X0049985Y0097755D01*
X0052190Y0096842D01*
X0053878Y0095154D01*
X0054791Y0092948D01*
X0054791Y0090562D01*
X0054419Y0089663D01*
X0060144Y0083938D01*
X0127073Y0083938D01*
X0127526Y0084391D01*
X0128807Y0084922D01*
X0130193Y0084922D01*
X0131474Y0084391D01*
X0132454Y0083411D01*
X0132984Y0082131D01*
X0132984Y0080745D01*
X0132454Y0079464D01*
X0132340Y0079350D01*
X0325831Y0079335D01*
X0325831Y0086097D01*
X0326943Y0087209D01*
X0365326Y0087209D01*
X0364682Y0088619D01*
X0364682Y0088619D01*
X0363965Y0093605D01*
X0363965Y0093605D01*
X0364682Y0098592D01*
X0364682Y0098592D01*
X0366775Y0103175D01*
X0366775Y0103175D01*
X0370074Y0106982D01*
X0374312Y0109706D01*
X0374312Y0109706D01*
X0379146Y0111125D01*
X0384184Y0111125D01*
X0389018Y0109706D01*
X0389018Y0109706D01*
X0393256Y0106982D01*
X0393256Y0106982D01*
X0395910Y0103919D01*
X0395910Y0301438D01*
X0354000Y0301438D01*
X0354000Y0292940D01*
X0353619Y0292022D01*
X0348500Y0286902D01*
X0348500Y0283407D01*
X0349630Y0284538D01*
X0358130Y0284538D01*
X0362016Y0288423D01*
X0362016Y0289631D01*
X0362546Y0290911D01*
X0363526Y0291891D01*
X0364807Y0292422D01*
X0366193Y0292422D01*
X0367474Y0291891D01*
X0368454Y0290911D01*
X0368984Y0289631D01*
X0368984Y0288245D01*
X0368454Y0286964D01*
X0367474Y0285984D01*
X0366193Y0285453D01*
X0364986Y0285453D01*
X0359870Y0280338D01*
X0351370Y0280338D01*
X0348500Y0277468D01*
X0348500Y0275588D01*
X0349307Y0275922D01*
X0350693Y0275922D01*
X0351974Y0275391D01*
X0352954Y0274411D01*
X0353484Y0273131D01*
X0353484Y0271745D01*
X0352954Y0270464D01*
X0352100Y0269610D01*
X0352100Y0269068D01*
X0350870Y0267838D01*
X0349600Y0266568D01*
X0349600Y0265422D01*
X0350807Y0265922D01*
X0352193Y0265922D01*
X0353474Y0265391D01*
X0354454Y0264411D01*
X0354984Y0263131D01*
X0354984Y0261745D01*
X0354454Y0260464D01*
X0353600Y0259610D01*
X0353600Y0239922D01*
X0356398Y0242720D01*
X0353752Y0245367D01*
X0353752Y0246938D01*
X0358252Y0246938D01*
X0358252Y0247938D01*
X0358252Y0252438D01*
X0356681Y0252438D01*
X0353752Y0249509D01*
X0353752Y0247938D01*
X0358252Y0247938D01*
X0359252Y0247938D01*
X0359252Y0252438D01*
X0360823Y0252438D01*
X0363469Y0249792D01*
X0366515Y0252838D01*
X0370989Y0252838D01*
X0374152Y0249674D01*
X0374152Y0245201D01*
X0371389Y0242438D01*
X0374152Y0239674D01*
X0374152Y0239538D01*
X0377370Y0239538D01*
X0378600Y0238308D01*
X0387100Y0229808D01*
X0387100Y0123568D01*
X0385870Y0122338D01*
X0380870Y0117338D01*
X0368327Y0117338D01*
X0367474Y0116484D01*
X0366193Y0115953D01*
X0364807Y0115953D01*
X0363526Y0116484D01*
X0362546Y0117464D01*
X0362016Y0118745D01*
X0362016Y0120131D01*
X0362546Y0121411D01*
X0363526Y0122391D01*
X0364807Y0122922D01*
X0366193Y0122922D01*
X0367474Y0122391D01*
X0368327Y0121538D01*
X0379130Y0121538D01*
X0382900Y0125308D01*
X0382900Y0228068D01*
X0375630Y0235338D01*
X0374152Y0235338D01*
X0374152Y0235201D01*
X0371389Y0232438D01*
X0374152Y0229674D01*
X0374152Y0225201D01*
X0374055Y0225104D01*
X0375100Y0224059D01*
X0375100Y0207765D01*
X0375954Y0206911D01*
X0376484Y0205631D01*
X0376484Y0204245D01*
X0375954Y0202964D01*
X0374974Y0201984D01*
X0373693Y0201453D01*
X0372307Y0201453D01*
X0371026Y0201984D01*
X0370046Y0202964D01*
X0369516Y0204245D01*
X0369516Y0205631D01*
X0370046Y0206911D01*
X0370900Y0207765D01*
X0370900Y0222038D01*
X0366515Y0222038D01*
X0363752Y0224801D01*
X0361100Y0222149D01*
X0361100Y0214265D01*
X0361954Y0213411D01*
X0362484Y0212131D01*
X0362484Y0210745D01*
X0361954Y0209464D01*
X0360974Y0208484D01*
X0359693Y0207953D01*
X0358307Y0207953D01*
X0357026Y0208484D01*
X0356046Y0209464D01*
X0355516Y0210745D01*
X0355516Y0212131D01*
X0356046Y0213411D01*
X0356900Y0214265D01*
X0356900Y0222038D01*
X0356515Y0222038D01*
X0353825Y0224728D01*
X0344416Y0215318D01*
X0343497Y0214938D01*
X0327150Y0214938D01*
X0327484Y0214131D01*
X0327484Y0212745D01*
X0326954Y0211464D01*
X0325974Y0210484D01*
X0324693Y0209953D01*
X0323486Y0209953D01*
X0323100Y0209568D01*
X0323100Y0187765D01*
X0323954Y0186911D01*
X0324484Y0185631D01*
X0324484Y0184245D01*
X0323954Y0182964D01*
X0322974Y0181984D01*
X0321693Y0181453D01*
X0320307Y0181453D01*
X0319026Y0181984D01*
X0318046Y0182964D01*
X0317516Y0184245D01*
X0317516Y0185631D01*
X0318046Y0186911D01*
X0318900Y0187765D01*
X0318900Y0211302D01*
X0317500Y0209902D01*
X0317500Y0181300D01*
X0317984Y0180131D01*
X0317984Y0178745D01*
X0317454Y0177464D01*
X0316474Y0176484D01*
X0315193Y0175953D01*
X0313807Y0175953D01*
X0312526Y0176484D01*
X0311546Y0177464D01*
X0311016Y0178745D01*
X0311016Y0180131D01*
X0311265Y0180733D01*
X0303628Y0173095D01*
X0303628Y0160720D01*
X0304586Y0160323D01*
X0306105Y0158804D01*
X0306928Y0156819D01*
X0306928Y0154671D01*
X0306105Y0152686D01*
X0304586Y0151167D01*
X0302602Y0150345D01*
X0300453Y0150345D01*
X0298469Y0151167D01*
X0296950Y0152686D01*
X0296528Y0153705D01*
X0296105Y0152686D01*
X0294586Y0151167D01*
X0292602Y0150345D01*
X0290453Y0150345D01*
X0288469Y0151167D01*
X0286950Y0152686D01*
X0286528Y0153705D01*
X0286105Y0152686D01*
X0284586Y0151167D01*
X0282602Y0150345D01*
X0280453Y0150345D01*
X0278469Y0151167D01*
X0276950Y0152686D01*
X0276528Y0153705D01*
X0276105Y0152686D01*
X0274586Y0151167D01*
X0272602Y0150345D01*
X0271732Y0150345D01*
X0271928Y0150149D01*
X0271928Y0148750D01*
X0271950Y0148804D01*
X0273469Y0150323D01*
X0275453Y0151145D01*
X0277602Y0151145D01*
X0279586Y0150323D01*
X0281105Y0148804D01*
X0281755Y0147236D01*
X0281894Y0147664D01*
X0282251Y0148365D01*
X0282714Y0149002D01*
X0283270Y0149559D01*
X0283907Y0150021D01*
X0284608Y0150378D01*
X0285357Y0150622D01*
X0286043Y0150730D01*
X0286043Y0146229D01*
X0287012Y0146229D01*
X0287012Y0150730D01*
X0287698Y0150622D01*
X0288447Y0150378D01*
X0289148Y0150021D01*
X0289785Y0149559D01*
X0290341Y0149002D01*
X0290804Y0148365D01*
X0291161Y0147664D01*
X0291300Y0147236D01*
X0291950Y0148804D01*
X0293469Y0150323D01*
X0295453Y0151145D01*
X0297602Y0151145D01*
X0299586Y0150323D01*
X0301105Y0148804D01*
X0301928Y0146819D01*
X0301928Y0144671D01*
X0301105Y0142686D01*
X0299586Y0141167D01*
X0299000Y0140924D01*
X0299000Y0138940D01*
X0298619Y0138022D01*
X0297916Y0137318D01*
X0289916Y0129318D01*
X0288997Y0128938D01*
X0240536Y0128938D01*
X0226209Y0114611D01*
X0226558Y0114263D01*
X0226980Y0113244D01*
X0227402Y0114263D01*
X0228921Y0115782D01*
X0230906Y0116604D01*
X0233054Y0116604D01*
X0235039Y0115782D01*
X0236558Y0114263D01*
X0237208Y0112695D01*
X0237347Y0113123D01*
X0237704Y0113824D01*
X0238167Y0114461D01*
X0238723Y0115018D01*
X0239360Y0115480D01*
X0240061Y0115837D01*
X0240809Y0116081D01*
X0241480Y0116187D01*
X0241480Y0111704D01*
X0242480Y0111704D01*
X0242480Y0116187D01*
X0243151Y0116081D01*
X0243900Y0115837D01*
X0244601Y0115480D01*
X0245238Y0115018D01*
X0245794Y0114461D01*
X0246257Y0113824D01*
X0246614Y0113123D01*
X0246857Y0112375D01*
X0246963Y0111704D01*
X0242480Y0111704D01*
X0242480Y0110704D01*
X0242480Y0106221D01*
X0243151Y0106327D01*
X0243900Y0106570D01*
X0244601Y0106927D01*
X0245238Y0107390D01*
X0245794Y0107947D01*
X0246257Y0108583D01*
X0246614Y0109284D01*
X0246857Y0110033D01*
X0246963Y0110704D01*
X0242480Y0110704D01*
X0241480Y0110704D01*
X0241480Y0106221D01*
X0240809Y0106327D01*
X0240061Y0106570D01*
X0239360Y0106927D01*
X0238723Y0107390D01*
X0238167Y0107947D01*
X0237704Y0108583D01*
X0237347Y0109284D01*
X0237208Y0109713D01*
X0236558Y0108145D01*
X0235039Y0106626D01*
X0233054Y0105804D01*
X0230906Y0105804D01*
X0228921Y0106626D01*
X0227402Y0108145D01*
X0226980Y0109164D01*
X0226558Y0108145D01*
X0225039Y0106626D01*
X0223054Y0105804D01*
X0220906Y0105804D01*
X0218921Y0106626D01*
X0217402Y0108145D01*
X0216980Y0109164D01*
X0216558Y0108145D01*
X0215039Y0106626D01*
X0214080Y0106229D01*
X0214080Y0106095D01*
X0207387Y0099402D01*
X0206157Y0098172D01*
X0189063Y0098172D01*
X0181583Y0105653D01*
X0180353Y0106883D01*
X0180353Y0123583D01*
X0184683Y0127914D01*
X0184683Y0182473D01*
X0174054Y0193103D01*
X0174054Y0205713D01*
X0173200Y0206566D01*
X0172669Y0207847D01*
X0172669Y0209233D01*
X0173200Y0210514D01*
X0174180Y0211494D01*
X0175460Y0212024D01*
X0176847Y0212024D01*
X0177597Y0211713D01*
X0177597Y0219875D01*
X0174103Y0223369D01*
X0172872Y0224599D01*
X0172872Y0233819D01*
X0174103Y0235049D01*
X0174103Y0235049D01*
X0177203Y0238150D01*
X0177203Y0238150D01*
X0178433Y0239380D01*
X0200473Y0239380D01*
X0208629Y0247536D01*
X0197545Y0247536D01*
X0197545Y0246407D01*
X0198399Y0245553D01*
X0198929Y0244272D01*
X0198929Y0242886D01*
X0198399Y0241606D01*
X0197419Y0240626D01*
X0196138Y0240095D01*
X0194752Y0240095D01*
X0193471Y0240626D01*
X0192491Y0241606D01*
X0191961Y0242886D01*
X0191961Y0244272D01*
X0192491Y0245553D01*
X0193345Y0246407D01*
X0193345Y0247536D01*
X0136969Y0247536D01*
X0137035Y0266012D01*
X0135835Y0266509D01*
X0133585Y0268759D01*
X0132367Y0271699D01*
X0132367Y0274882D01*
X0133585Y0277822D01*
X0135835Y0280072D01*
X0137087Y0280591D01*
X0137174Y0304653D01*
X0130089Y0311738D01*
X0106089Y0311738D01*
X0104800Y0313026D01*
X0093800Y0324026D01*
X0093800Y0338526D01*
X0080300Y0352026D01*
X0080300Y0369710D01*
X0079546Y0370464D01*
X0079016Y0371745D01*
X0079016Y0373131D01*
X0079546Y0374411D01*
X0080526Y0375391D01*
X0081807Y0375922D01*
X0083193Y0375922D01*
X0084474Y0375391D01*
X0085454Y0374411D01*
X0085984Y0373131D01*
X0085984Y0371745D01*
X0085454Y0370464D01*
X0084700Y0369710D01*
X0084700Y0353849D01*
X0096911Y0341638D01*
X0098200Y0340349D01*
X0098200Y0325849D01*
X0107911Y0316138D01*
X0131911Y0316138D01*
X0137196Y0310853D01*
X0137481Y0390134D01*
X0030882Y0390134D01*
X0032233Y0389266D01*
X0032233Y0389266D01*
X0035532Y0385458D01*
X0035532Y0385458D01*
X0037625Y0380876D01*
X0037625Y0380875D01*
X0038342Y0375889D01*
X0037625Y0370902D01*
X0037625Y0370902D01*
X0035532Y0366320D01*
X0035532Y0366319D01*
X0032233Y0362512D01*
X0032233Y0362512D01*
X0032233Y0362512D01*
X0027995Y0359788D01*
X0027995Y0359788D01*
X0023161Y0358369D01*
X0018123Y0358369D01*
X0013289Y0359788D01*
X0013289Y0359788D01*
X0009051Y0362512D01*
X0009051Y0362512D01*
X0006397Y0365575D01*
X0006397Y0340979D01*
X0011892Y0340979D01*
X0013063Y0339807D01*
X0013063Y0335698D01*
X0012599Y0335234D01*
X0013063Y0334770D01*
X0013063Y0330661D01*
X0012585Y0330183D01*
X0013063Y0329705D01*
X0013063Y0326414D01*
X0012246Y0325597D01*
X0011074Y0324425D01*
X0010611Y0324425D01*
X0010611Y0324125D01*
X0011892Y0324125D01*
X0013063Y0322953D01*
X0013063Y0318844D01*
X0012585Y0318366D01*
X0013063Y0317889D01*
X0013063Y0314597D01*
X0012612Y0314146D01*
X0012709Y0314049D01*
X0012709Y0314049D01*
X0013881Y0312878D01*
X0013881Y0311221D01*
X0013333Y0310673D01*
X0014344Y0310673D01*
X0015515Y0309502D01*
X0015515Y0307845D01*
X0014344Y0306673D01*
X0012709Y0306673D01*
X0012585Y0306550D01*
X0013063Y0306072D01*
X0013063Y0301963D01*
X0012585Y0301485D01*
X0013063Y0301008D01*
X0013063Y0297932D01*
X0013526Y0297932D01*
X0014698Y0296761D01*
X0014698Y0295104D01*
X0013892Y0294298D01*
X0014698Y0293491D01*
X0014698Y0291834D01*
X0013526Y0290663D01*
X0013063Y0290663D01*
X0013063Y0290039D01*
X0012257Y0289233D01*
X0013063Y0288427D01*
X0013063Y0286770D01*
X0012994Y0286701D01*
X0013063Y0286632D01*
X0013063Y0282523D01*
X0012599Y0282059D01*
X0013063Y0281594D01*
X0013063Y0277485D01*
X0012585Y0277008D01*
X0013063Y0276530D01*
X0013063Y0273238D01*
X0012246Y0272421D01*
X0012246Y0272421D01*
X0012177Y0272352D01*
X0012246Y0272283D01*
X0013063Y0271466D01*
X0013063Y0268390D01*
X0013526Y0268390D01*
X0014698Y0267219D01*
X0014698Y0262292D01*
X0013526Y0261121D01*
X0013063Y0261121D01*
X0013063Y0257228D01*
X0012585Y0256750D01*
X0013063Y0256273D01*
X0013063Y0252981D01*
X0012177Y0252095D01*
X0012246Y0252026D01*
X0013063Y0251208D01*
X0013063Y0247779D01*
X0014698Y0246144D01*
X0014698Y0242853D01*
X0013881Y0242035D01*
X0013881Y0242035D01*
X0012709Y0240864D01*
X0007783Y0240864D01*
X0006965Y0241681D01*
X0006397Y0242249D01*
X0006397Y0103919D01*
X0009051Y0106982D01*
X0009051Y0106982D01*
X0009051Y0106982D01*
X0013289Y0109706D01*
X0013289Y0109706D01*
X0018123Y0111125D01*
X0023161Y0111125D01*
X0027995Y0109706D01*
X0027995Y0109706D01*
X0032233Y0106982D01*
X0032233Y0106982D01*
X0035532Y0103175D01*
X0035532Y0103175D01*
X0037625Y0098592D01*
X0037625Y0098592D01*
X0038342Y0093605D01*
X0037625Y0088619D01*
X0037625Y0088619D01*
X0035532Y0084036D01*
X0032233Y0080229D01*
X0032233Y0080229D01*
X0032410Y0080433D02*
X0056578Y0080433D01*
X0057576Y0079435D02*
X0030997Y0079435D01*
X0033275Y0081432D02*
X0055579Y0081432D01*
X0054581Y0082430D02*
X0034140Y0082430D01*
X0035006Y0083429D02*
X0053582Y0083429D01*
X0052584Y0084427D02*
X0035711Y0084427D01*
X0036167Y0085426D02*
X0051585Y0085426D01*
X0054662Y0089420D02*
X0057044Y0089420D01*
X0056630Y0090418D02*
X0054732Y0090418D01*
X0054791Y0091417D02*
X0056571Y0091417D01*
X0056571Y0090562D02*
X0057484Y0088356D01*
X0059172Y0086668D01*
X0061377Y0085755D01*
X0063764Y0085755D01*
X0065970Y0086668D01*
X0067657Y0088356D01*
X0068571Y0090562D01*
X0068571Y0092948D01*
X0067657Y0095154D01*
X0065970Y0096842D01*
X0063764Y0097755D01*
X0061377Y0097755D01*
X0059172Y0096842D01*
X0057484Y0095154D01*
X0056571Y0092948D01*
X0056571Y0090562D01*
X0056571Y0092415D02*
X0054791Y0092415D01*
X0054599Y0093414D02*
X0056764Y0093414D01*
X0057177Y0094412D02*
X0054185Y0094412D01*
X0053621Y0095411D02*
X0057741Y0095411D01*
X0058740Y0096409D02*
X0052622Y0096409D01*
X0050823Y0097408D02*
X0060539Y0097408D01*
X0064602Y0097408D02*
X0088099Y0097408D01*
X0088936Y0097755D02*
X0086731Y0096842D01*
X0085043Y0095154D01*
X0084130Y0092948D01*
X0084130Y0090562D01*
X0085043Y0088356D01*
X0086731Y0086668D01*
X0088936Y0085755D01*
X0091323Y0085755D01*
X0093529Y0086668D01*
X0095216Y0088356D01*
X0096130Y0090562D01*
X0096130Y0092948D01*
X0095216Y0095154D01*
X0093529Y0096842D01*
X0091323Y0097755D01*
X0088936Y0097755D01*
X0086299Y0096409D02*
X0079471Y0096409D01*
X0079285Y0096545D02*
X0078500Y0096945D01*
X0077662Y0097217D01*
X0076835Y0097348D01*
X0076835Y0092239D01*
X0081943Y0092239D01*
X0081812Y0093066D01*
X0081540Y0093905D01*
X0081140Y0094690D01*
X0080622Y0095403D01*
X0079999Y0096026D01*
X0079285Y0096545D01*
X0080614Y0095411D02*
X0085301Y0095411D01*
X0084736Y0094412D02*
X0081281Y0094412D01*
X0081700Y0093414D02*
X0084323Y0093414D01*
X0084130Y0092415D02*
X0081916Y0092415D01*
X0081943Y0091271D02*
X0076835Y0091271D01*
X0076835Y0092239D01*
X0075866Y0092239D01*
X0075866Y0091271D01*
X0070757Y0091271D01*
X0070888Y0090444D01*
X0071161Y0089605D01*
X0071561Y0088820D01*
X0072079Y0088107D01*
X0072702Y0087484D01*
X0073415Y0086965D01*
X0074201Y0086565D01*
X0075039Y0086293D01*
X0075866Y0086162D01*
X0075866Y0091271D01*
X0076835Y0091271D01*
X0076835Y0086162D01*
X0077662Y0086293D01*
X0078500Y0086565D01*
X0079285Y0086965D01*
X0079999Y0087484D01*
X0080622Y0088107D01*
X0081140Y0088820D01*
X0081540Y0089605D01*
X0081812Y0090444D01*
X0081943Y0091271D01*
X0081804Y0090418D02*
X0084189Y0090418D01*
X0084130Y0091417D02*
X0076835Y0091417D01*
X0076500Y0091905D02*
X0076350Y0091755D01*
X0076500Y0091905D02*
X0076500Y0110438D01*
X0077000Y0110389D02*
X0083550Y0110389D01*
X0083550Y0111387D02*
X0082050Y0111387D01*
X0082050Y0110938D02*
X0082050Y0112737D01*
X0078799Y0115988D01*
X0077000Y0115988D01*
X0077000Y0110938D01*
X0076000Y0110938D01*
X0076000Y0115988D01*
X0074201Y0115988D01*
X0070950Y0112737D01*
X0070950Y0110938D01*
X0076000Y0110938D01*
X0076000Y0109938D01*
X0070950Y0109938D01*
X0070950Y0108139D01*
X0074201Y0104888D01*
X0076000Y0104888D01*
X0076000Y0109938D01*
X0077000Y0109938D01*
X0077000Y0110938D01*
X0082050Y0110938D01*
X0082050Y0109938D02*
X0077000Y0109938D01*
X0077000Y0104888D01*
X0078799Y0104888D01*
X0082050Y0108139D01*
X0082050Y0109938D01*
X0082050Y0109390D02*
X0083550Y0109390D01*
X0083550Y0108392D02*
X0082050Y0108392D01*
X0081304Y0107393D02*
X0084130Y0107393D01*
X0083550Y0107973D02*
X0087035Y0104488D01*
X0091965Y0104488D01*
X0095450Y0107973D01*
X0095450Y0112902D01*
X0091965Y0116388D01*
X0087035Y0116388D01*
X0083550Y0112902D01*
X0083550Y0107973D01*
X0085129Y0106394D02*
X0080306Y0106394D01*
X0079307Y0105396D02*
X0086127Y0105396D01*
X0092873Y0105396D02*
X0100127Y0105396D01*
X0101035Y0104488D02*
X0105965Y0104488D01*
X0109450Y0107973D01*
X0109450Y0112902D01*
X0107100Y0115252D01*
X0107100Y0218610D01*
X0107954Y0219464D01*
X0108484Y0220745D01*
X0108484Y0222131D01*
X0107954Y0223411D01*
X0106974Y0224391D01*
X0105693Y0224922D01*
X0104307Y0224922D01*
X0103026Y0224391D01*
X0102046Y0223411D01*
X0101516Y0222131D01*
X0101516Y0220745D01*
X0102046Y0219464D01*
X0102900Y0218610D01*
X0102900Y0116388D01*
X0101035Y0116388D01*
X0097550Y0112902D01*
X0097550Y0107973D01*
X0101035Y0104488D01*
X0099129Y0106394D02*
X0093871Y0106394D01*
X0094870Y0107393D02*
X0098130Y0107393D01*
X0097550Y0108392D02*
X0095450Y0108392D01*
X0095450Y0109390D02*
X0097550Y0109390D01*
X0097550Y0110389D02*
X0095450Y0110389D01*
X0095450Y0111387D02*
X0097550Y0111387D01*
X0097550Y0112386D02*
X0095450Y0112386D01*
X0094968Y0113384D02*
X0098032Y0113384D01*
X0099030Y0114383D02*
X0093970Y0114383D01*
X0092971Y0115381D02*
X0100029Y0115381D01*
X0101027Y0116380D02*
X0091973Y0116380D01*
X0087027Y0116380D02*
X0064973Y0116380D01*
X0064965Y0116388D02*
X0060035Y0116388D01*
X0056550Y0112902D01*
X0056550Y0107973D01*
X0060035Y0104488D01*
X0064965Y0104488D01*
X0068450Y0107973D01*
X0068450Y0112902D01*
X0064965Y0116388D01*
X0065971Y0115381D02*
X0073595Y0115381D01*
X0072596Y0114383D02*
X0066970Y0114383D01*
X0067968Y0113384D02*
X0071598Y0113384D01*
X0070950Y0112386D02*
X0068450Y0112386D01*
X0068450Y0111387D02*
X0070950Y0111387D01*
X0070950Y0109390D02*
X0068450Y0109390D01*
X0068450Y0108392D02*
X0070950Y0108392D01*
X0071696Y0107393D02*
X0067870Y0107393D01*
X0066871Y0106394D02*
X0072694Y0106394D01*
X0073693Y0105396D02*
X0065873Y0105396D01*
X0068450Y0110389D02*
X0076000Y0110389D01*
X0076000Y0111387D02*
X0077000Y0111387D01*
X0077000Y0112386D02*
X0076000Y0112386D01*
X0076000Y0113384D02*
X0077000Y0113384D01*
X0077000Y0114383D02*
X0076000Y0114383D01*
X0076000Y0115381D02*
X0077000Y0115381D01*
X0079405Y0115381D02*
X0086029Y0115381D01*
X0085030Y0114383D02*
X0080404Y0114383D01*
X0081402Y0113384D02*
X0084032Y0113384D01*
X0083550Y0112386D02*
X0082050Y0112386D01*
X0077000Y0109390D02*
X0076000Y0109390D01*
X0076000Y0108392D02*
X0077000Y0108392D01*
X0077000Y0107393D02*
X0076000Y0107393D01*
X0076000Y0106394D02*
X0077000Y0106394D01*
X0077000Y0105396D02*
X0076000Y0105396D01*
X0075866Y0097348D02*
X0075039Y0097217D01*
X0074201Y0096945D01*
X0073415Y0096545D01*
X0072702Y0096026D01*
X0072079Y0095403D01*
X0071561Y0094690D01*
X0071161Y0093905D01*
X0070888Y0093066D01*
X0070757Y0092239D01*
X0075866Y0092239D01*
X0075866Y0097348D01*
X0075866Y0096409D02*
X0076835Y0096409D01*
X0076835Y0095411D02*
X0075866Y0095411D01*
X0075866Y0094412D02*
X0076835Y0094412D01*
X0076835Y0093414D02*
X0075866Y0093414D01*
X0075866Y0092415D02*
X0076835Y0092415D01*
X0075866Y0091417D02*
X0068571Y0091417D01*
X0068571Y0092415D02*
X0070785Y0092415D01*
X0071001Y0093414D02*
X0068378Y0093414D01*
X0067964Y0094412D02*
X0071419Y0094412D01*
X0072087Y0095411D02*
X0067400Y0095411D01*
X0066402Y0096409D02*
X0073229Y0096409D01*
X0070897Y0090418D02*
X0068512Y0090418D01*
X0068098Y0089420D02*
X0071255Y0089420D01*
X0071850Y0088421D02*
X0067684Y0088421D01*
X0066724Y0087423D02*
X0072786Y0087423D01*
X0074635Y0086424D02*
X0065380Y0086424D01*
X0059762Y0086424D02*
X0057658Y0086424D01*
X0058418Y0087423D02*
X0056659Y0087423D01*
X0057457Y0088421D02*
X0055661Y0088421D01*
X0058656Y0085426D02*
X0325831Y0085426D01*
X0325831Y0084427D02*
X0131387Y0084427D01*
X0132436Y0083429D02*
X0325831Y0083429D01*
X0325831Y0082430D02*
X0132860Y0082430D01*
X0132984Y0081432D02*
X0325831Y0081432D01*
X0325831Y0080433D02*
X0132855Y0080433D01*
X0132424Y0079435D02*
X0325831Y0079435D01*
X0326158Y0086424D02*
X0120498Y0086424D01*
X0121088Y0086668D02*
X0122776Y0088356D01*
X0123689Y0090562D01*
X0123689Y0092948D01*
X0122776Y0095154D01*
X0121088Y0096842D01*
X0118882Y0097755D01*
X0116495Y0097755D01*
X0114290Y0096842D01*
X0112602Y0095154D01*
X0111689Y0092948D01*
X0111689Y0090562D01*
X0112602Y0088356D01*
X0114290Y0086668D01*
X0116495Y0085755D01*
X0118882Y0085755D01*
X0121088Y0086668D01*
X0121842Y0087423D02*
X0365228Y0087423D01*
X0364772Y0088421D02*
X0360620Y0088421D01*
X0360682Y0088457D02*
X0360980Y0088755D01*
X0361191Y0089120D01*
X0361300Y0089527D01*
X0361300Y0096938D01*
X0357500Y0096938D01*
X0357500Y0097938D01*
X0356500Y0097938D01*
X0356500Y0106738D01*
X0354089Y0106738D01*
X0353682Y0106629D01*
X0353318Y0106418D01*
X0353020Y0106120D01*
X0352809Y0105755D01*
X0352700Y0105348D01*
X0352700Y0097938D01*
X0356500Y0097938D01*
X0356500Y0096938D01*
X0352700Y0096938D01*
X0352700Y0089527D01*
X0352809Y0089120D01*
X0353020Y0088755D01*
X0353318Y0088457D01*
X0353682Y0088247D01*
X0354089Y0088138D01*
X0356500Y0088138D01*
X0356500Y0096938D01*
X0357500Y0096938D01*
X0357500Y0088138D01*
X0359911Y0088138D01*
X0360318Y0088247D01*
X0360682Y0088457D01*
X0361271Y0089420D02*
X0364567Y0089420D01*
X0364424Y0090418D02*
X0361300Y0090418D01*
X0361300Y0091417D02*
X0364280Y0091417D01*
X0364136Y0092415D02*
X0361300Y0092415D01*
X0361300Y0093414D02*
X0363993Y0093414D01*
X0364081Y0094412D02*
X0361300Y0094412D01*
X0361300Y0095411D02*
X0364225Y0095411D01*
X0364369Y0096409D02*
X0361300Y0096409D01*
X0361300Y0097938D02*
X0361300Y0105348D01*
X0361191Y0105755D01*
X0360980Y0106120D01*
X0360682Y0106418D01*
X0360318Y0106629D01*
X0359911Y0106738D01*
X0357500Y0106738D01*
X0357500Y0097938D01*
X0361300Y0097938D01*
X0361300Y0098406D02*
X0364656Y0098406D01*
X0364512Y0097408D02*
X0357500Y0097408D01*
X0357500Y0098406D02*
X0356500Y0098406D01*
X0356500Y0097408D02*
X0337500Y0097408D01*
X0337500Y0096938D02*
X0337500Y0097938D01*
X0336500Y0097938D01*
X0336500Y0106738D01*
X0334089Y0106738D01*
X0333682Y0106629D01*
X0333318Y0106418D01*
X0333020Y0106120D01*
X0332809Y0105755D01*
X0332700Y0105348D01*
X0332700Y0097938D01*
X0336500Y0097938D01*
X0336500Y0096938D01*
X0332700Y0096938D01*
X0332700Y0089527D01*
X0332809Y0089120D01*
X0333020Y0088755D01*
X0333318Y0088457D01*
X0333682Y0088247D01*
X0334089Y0088138D01*
X0336500Y0088138D01*
X0336500Y0096938D01*
X0337500Y0096938D01*
X0341300Y0096938D01*
X0341300Y0089527D01*
X0341191Y0089120D01*
X0340980Y0088755D01*
X0340682Y0088457D01*
X0340318Y0088247D01*
X0339911Y0088138D01*
X0337500Y0088138D01*
X0337500Y0096938D01*
X0337500Y0096409D02*
X0336500Y0096409D01*
X0336500Y0095411D02*
X0337500Y0095411D01*
X0337500Y0094412D02*
X0336500Y0094412D01*
X0336500Y0093414D02*
X0337500Y0093414D01*
X0337500Y0092415D02*
X0336500Y0092415D01*
X0336500Y0091417D02*
X0337500Y0091417D01*
X0337500Y0090418D02*
X0336500Y0090418D01*
X0336500Y0089420D02*
X0337500Y0089420D01*
X0337500Y0088421D02*
X0336500Y0088421D01*
X0333380Y0088421D02*
X0122802Y0088421D01*
X0123216Y0089420D02*
X0332729Y0089420D01*
X0332700Y0090418D02*
X0123630Y0090418D01*
X0123689Y0091417D02*
X0332700Y0091417D01*
X0332700Y0092415D02*
X0323453Y0092415D01*
X0323275Y0092238D02*
X0327200Y0096162D01*
X0327200Y0101713D01*
X0323275Y0105638D01*
X0317725Y0105638D01*
X0313800Y0101713D01*
X0313800Y0096162D01*
X0317725Y0092238D01*
X0323275Y0092238D01*
X0324451Y0093414D02*
X0332700Y0093414D01*
X0332700Y0094412D02*
X0325450Y0094412D01*
X0326448Y0095411D02*
X0332700Y0095411D01*
X0332700Y0096409D02*
X0327200Y0096409D01*
X0327200Y0097408D02*
X0336500Y0097408D01*
X0336500Y0098406D02*
X0337500Y0098406D01*
X0337500Y0097938D02*
X0337500Y0106738D01*
X0339911Y0106738D01*
X0340318Y0106629D01*
X0340682Y0106418D01*
X0340980Y0106120D01*
X0341191Y0105755D01*
X0341300Y0105348D01*
X0341300Y0097938D01*
X0337500Y0097938D01*
X0337500Y0099405D02*
X0336500Y0099405D01*
X0336500Y0100403D02*
X0337500Y0100403D01*
X0337500Y0101402D02*
X0336500Y0101402D01*
X0336500Y0102400D02*
X0337500Y0102400D01*
X0337500Y0103399D02*
X0336500Y0103399D01*
X0336500Y0104397D02*
X0337500Y0104397D01*
X0337500Y0105396D02*
X0336500Y0105396D01*
X0336500Y0106394D02*
X0337500Y0106394D01*
X0340706Y0106394D02*
X0353294Y0106394D01*
X0352713Y0105396D02*
X0341287Y0105396D01*
X0341300Y0104397D02*
X0352700Y0104397D01*
X0352700Y0103399D02*
X0341300Y0103399D01*
X0341300Y0102400D02*
X0352700Y0102400D01*
X0352700Y0101402D02*
X0341300Y0101402D01*
X0341300Y0100403D02*
X0352700Y0100403D01*
X0352700Y0099405D02*
X0341300Y0099405D01*
X0341300Y0098406D02*
X0352700Y0098406D01*
X0352700Y0096409D02*
X0341300Y0096409D01*
X0341300Y0095411D02*
X0352700Y0095411D01*
X0352700Y0094412D02*
X0341300Y0094412D01*
X0341300Y0093414D02*
X0352700Y0093414D01*
X0352700Y0092415D02*
X0341300Y0092415D01*
X0341300Y0091417D02*
X0352700Y0091417D01*
X0352700Y0090418D02*
X0341300Y0090418D01*
X0341271Y0089420D02*
X0352729Y0089420D01*
X0353380Y0088421D02*
X0340620Y0088421D01*
X0332700Y0098406D02*
X0327200Y0098406D01*
X0327200Y0099405D02*
X0332700Y0099405D01*
X0332700Y0100403D02*
X0327200Y0100403D01*
X0327200Y0101402D02*
X0332700Y0101402D01*
X0332700Y0102400D02*
X0326512Y0102400D01*
X0325514Y0103399D02*
X0332700Y0103399D01*
X0332700Y0104397D02*
X0324515Y0104397D01*
X0323517Y0105396D02*
X0332713Y0105396D01*
X0333294Y0106394D02*
X0243359Y0106394D01*
X0242480Y0106394D02*
X0241480Y0106394D01*
X0240602Y0106394D02*
X0234480Y0106394D01*
X0235806Y0107393D02*
X0238720Y0107393D01*
X0237843Y0108392D02*
X0236660Y0108392D01*
X0237074Y0109390D02*
X0237312Y0109390D01*
X0237480Y0113384D02*
X0236922Y0113384D01*
X0236438Y0114383D02*
X0238109Y0114383D01*
X0239223Y0115381D02*
X0235440Y0115381D01*
X0233596Y0116380D02*
X0254677Y0116380D01*
X0254746Y0116214D02*
X0256996Y0113963D01*
X0259936Y0112746D01*
X0263119Y0112746D01*
X0266059Y0113963D01*
X0268309Y0116214D01*
X0269527Y0119154D01*
X0269527Y0122336D01*
X0268309Y0125276D01*
X0266059Y0127526D01*
X0263119Y0128744D01*
X0259936Y0128744D01*
X0256996Y0127526D01*
X0254746Y0125276D01*
X0253528Y0122336D01*
X0253528Y0119154D01*
X0254746Y0116214D01*
X0255579Y0115381D02*
X0244737Y0115381D01*
X0245851Y0114383D02*
X0256577Y0114383D01*
X0258395Y0113384D02*
X0246481Y0113384D01*
X0246854Y0112386D02*
X0395910Y0112386D01*
X0395910Y0113384D02*
X0309660Y0113384D01*
X0311059Y0113963D02*
X0313309Y0116214D01*
X0314527Y0119154D01*
X0314527Y0122336D01*
X0313309Y0125276D01*
X0311059Y0127526D01*
X0308119Y0128744D01*
X0304936Y0128744D01*
X0301996Y0127526D01*
X0299746Y0125276D01*
X0298528Y0122336D01*
X0298528Y0119154D01*
X0299746Y0116214D01*
X0301996Y0113963D01*
X0304936Y0112746D01*
X0308119Y0112746D01*
X0311059Y0113963D01*
X0311478Y0114383D02*
X0395910Y0114383D01*
X0395910Y0115381D02*
X0312477Y0115381D01*
X0313378Y0116380D02*
X0363778Y0116380D01*
X0362632Y0117378D02*
X0313791Y0117378D01*
X0314205Y0118377D02*
X0362168Y0118377D01*
X0362016Y0119375D02*
X0314527Y0119375D01*
X0314527Y0120374D02*
X0362116Y0120374D01*
X0362530Y0121372D02*
X0314527Y0121372D01*
X0314512Y0122371D02*
X0363506Y0122371D01*
X0367494Y0122371D02*
X0379963Y0122371D01*
X0380962Y0123369D02*
X0314099Y0123369D01*
X0313685Y0124368D02*
X0381960Y0124368D01*
X0382900Y0125366D02*
X0313219Y0125366D01*
X0312220Y0126365D02*
X0382900Y0126365D01*
X0382900Y0127363D02*
X0311222Y0127363D01*
X0309041Y0128362D02*
X0382900Y0128362D01*
X0382900Y0129360D02*
X0289958Y0129360D01*
X0290957Y0130359D02*
X0382900Y0130359D01*
X0382900Y0131357D02*
X0291955Y0131357D01*
X0292954Y0132356D02*
X0382900Y0132356D01*
X0382900Y0133354D02*
X0293952Y0133354D01*
X0294951Y0134353D02*
X0382900Y0134353D01*
X0382900Y0135351D02*
X0295949Y0135351D01*
X0296948Y0136350D02*
X0382900Y0136350D01*
X0382900Y0137348D02*
X0297946Y0137348D01*
X0298754Y0138347D02*
X0382900Y0138347D01*
X0382900Y0139345D02*
X0299000Y0139345D01*
X0299000Y0140344D02*
X0382900Y0140344D01*
X0382900Y0141342D02*
X0299762Y0141342D01*
X0300760Y0142341D02*
X0382900Y0142341D01*
X0382900Y0143339D02*
X0301376Y0143339D01*
X0301790Y0144338D02*
X0382900Y0144338D01*
X0382900Y0145336D02*
X0301928Y0145336D01*
X0301928Y0146335D02*
X0382900Y0146335D01*
X0382900Y0147333D02*
X0301714Y0147333D01*
X0301301Y0148332D02*
X0382900Y0148332D01*
X0382900Y0149330D02*
X0300579Y0149330D01*
X0299571Y0150329D02*
X0382900Y0150329D01*
X0382900Y0151327D02*
X0304747Y0151327D01*
X0305746Y0152326D02*
X0382900Y0152326D01*
X0382900Y0153325D02*
X0306370Y0153325D01*
X0306784Y0154323D02*
X0382900Y0154323D01*
X0382900Y0155322D02*
X0306928Y0155322D01*
X0306928Y0156320D02*
X0382900Y0156320D01*
X0382900Y0157319D02*
X0306721Y0157319D01*
X0306307Y0158317D02*
X0382900Y0158317D01*
X0382900Y0159316D02*
X0305593Y0159316D01*
X0304595Y0160314D02*
X0382900Y0160314D01*
X0382900Y0161313D02*
X0303628Y0161313D01*
X0303628Y0162311D02*
X0382900Y0162311D01*
X0382900Y0163310D02*
X0303628Y0163310D01*
X0303628Y0164308D02*
X0382900Y0164308D01*
X0382900Y0165307D02*
X0303628Y0165307D01*
X0303628Y0166305D02*
X0382900Y0166305D01*
X0382900Y0167304D02*
X0303628Y0167304D01*
X0303628Y0168302D02*
X0382900Y0168302D01*
X0382900Y0169301D02*
X0303628Y0169301D01*
X0303628Y0170299D02*
X0382900Y0170299D01*
X0382900Y0171298D02*
X0303628Y0171298D01*
X0303628Y0172296D02*
X0382900Y0172296D01*
X0382900Y0173295D02*
X0303827Y0173295D01*
X0304825Y0174293D02*
X0382900Y0174293D01*
X0382900Y0175292D02*
X0305824Y0175292D01*
X0306822Y0176290D02*
X0312994Y0176290D01*
X0311721Y0177289D02*
X0307821Y0177289D01*
X0308819Y0178287D02*
X0311205Y0178287D01*
X0311016Y0179286D02*
X0309818Y0179286D01*
X0310816Y0180284D02*
X0311079Y0180284D01*
X0316006Y0176290D02*
X0382900Y0176290D01*
X0382900Y0177289D02*
X0317279Y0177289D01*
X0317795Y0178287D02*
X0382900Y0178287D01*
X0382900Y0179286D02*
X0317984Y0179286D01*
X0317921Y0180284D02*
X0382900Y0180284D01*
X0382900Y0181283D02*
X0317507Y0181283D01*
X0317500Y0182281D02*
X0318729Y0182281D01*
X0317915Y0183280D02*
X0317500Y0183280D01*
X0317500Y0184278D02*
X0317516Y0184278D01*
X0317500Y0185277D02*
X0317516Y0185277D01*
X0317500Y0186275D02*
X0317783Y0186275D01*
X0317500Y0187274D02*
X0318409Y0187274D01*
X0318900Y0188272D02*
X0317500Y0188272D01*
X0317500Y0189271D02*
X0318900Y0189271D01*
X0318900Y0190269D02*
X0317500Y0190269D01*
X0317500Y0191268D02*
X0318900Y0191268D01*
X0318900Y0192266D02*
X0317500Y0192266D01*
X0317500Y0193265D02*
X0318900Y0193265D01*
X0318900Y0194263D02*
X0317500Y0194263D01*
X0317500Y0195262D02*
X0318900Y0195262D01*
X0318900Y0196261D02*
X0317500Y0196261D01*
X0317500Y0197259D02*
X0318900Y0197259D01*
X0318900Y0198258D02*
X0317500Y0198258D01*
X0317500Y0199256D02*
X0318900Y0199256D01*
X0318900Y0200255D02*
X0317500Y0200255D01*
X0317500Y0201253D02*
X0318900Y0201253D01*
X0318900Y0202252D02*
X0317500Y0202252D01*
X0317500Y0203250D02*
X0318900Y0203250D01*
X0318900Y0204249D02*
X0317500Y0204249D01*
X0317500Y0205247D02*
X0318900Y0205247D01*
X0318900Y0206246D02*
X0317500Y0206246D01*
X0317500Y0207244D02*
X0318900Y0207244D01*
X0318900Y0208243D02*
X0317500Y0208243D01*
X0317500Y0209241D02*
X0318900Y0209241D01*
X0318900Y0210240D02*
X0317838Y0210240D01*
X0318836Y0211238D02*
X0318900Y0211238D01*
X0323100Y0209241D02*
X0356269Y0209241D01*
X0355725Y0210240D02*
X0325384Y0210240D01*
X0326728Y0211238D02*
X0355516Y0211238D01*
X0355560Y0212237D02*
X0327274Y0212237D01*
X0327484Y0213235D02*
X0355973Y0213235D01*
X0356869Y0214234D02*
X0327442Y0214234D01*
X0323100Y0208243D02*
X0357609Y0208243D01*
X0360391Y0208243D02*
X0370900Y0208243D01*
X0370900Y0209241D02*
X0361731Y0209241D01*
X0362275Y0210240D02*
X0370900Y0210240D01*
X0370900Y0211238D02*
X0362484Y0211238D01*
X0362440Y0212237D02*
X0370900Y0212237D01*
X0370900Y0213235D02*
X0362027Y0213235D01*
X0361131Y0214234D02*
X0370900Y0214234D01*
X0370900Y0215232D02*
X0361100Y0215232D01*
X0361100Y0216231D02*
X0370900Y0216231D01*
X0370900Y0217229D02*
X0361100Y0217229D01*
X0361100Y0218228D02*
X0370900Y0218228D01*
X0370900Y0219226D02*
X0361100Y0219226D01*
X0361100Y0220225D02*
X0370900Y0220225D01*
X0370900Y0221223D02*
X0361100Y0221223D01*
X0361173Y0222222D02*
X0366331Y0222222D01*
X0365333Y0223220D02*
X0362171Y0223220D01*
X0363170Y0224219D02*
X0364334Y0224219D01*
X0356900Y0221223D02*
X0350321Y0221223D01*
X0349323Y0220225D02*
X0356900Y0220225D01*
X0356900Y0219226D02*
X0348324Y0219226D01*
X0347326Y0218228D02*
X0356900Y0218228D01*
X0356900Y0217229D02*
X0346327Y0217229D01*
X0345329Y0216231D02*
X0356900Y0216231D01*
X0356900Y0215232D02*
X0344208Y0215232D01*
X0351320Y0222222D02*
X0356331Y0222222D01*
X0355333Y0223220D02*
X0352318Y0223220D01*
X0353317Y0224219D02*
X0354334Y0224219D01*
X0371619Y0232207D02*
X0378761Y0232207D01*
X0379759Y0231208D02*
X0372618Y0231208D01*
X0373616Y0230210D02*
X0380758Y0230210D01*
X0381756Y0229211D02*
X0374152Y0229211D01*
X0374152Y0228213D02*
X0382755Y0228213D01*
X0382900Y0227214D02*
X0374152Y0227214D01*
X0374152Y0226216D02*
X0382900Y0226216D01*
X0382900Y0225217D02*
X0374152Y0225217D01*
X0374941Y0224219D02*
X0382900Y0224219D01*
X0382900Y0223220D02*
X0375100Y0223220D01*
X0375100Y0222222D02*
X0382900Y0222222D01*
X0382900Y0221223D02*
X0375100Y0221223D01*
X0375100Y0220225D02*
X0382900Y0220225D01*
X0382900Y0219226D02*
X0375100Y0219226D01*
X0375100Y0218228D02*
X0382900Y0218228D01*
X0382900Y0217229D02*
X0375100Y0217229D01*
X0375100Y0216231D02*
X0382900Y0216231D01*
X0382900Y0215232D02*
X0375100Y0215232D01*
X0375100Y0214234D02*
X0382900Y0214234D01*
X0382900Y0213235D02*
X0375100Y0213235D01*
X0375100Y0212237D02*
X0382900Y0212237D01*
X0382900Y0211238D02*
X0375100Y0211238D01*
X0375100Y0210240D02*
X0382900Y0210240D01*
X0382900Y0209241D02*
X0375100Y0209241D01*
X0375100Y0208243D02*
X0382900Y0208243D01*
X0382900Y0207244D02*
X0375621Y0207244D01*
X0376230Y0206246D02*
X0382900Y0206246D01*
X0382900Y0205247D02*
X0376484Y0205247D01*
X0376484Y0204249D02*
X0382900Y0204249D01*
X0382900Y0203250D02*
X0376072Y0203250D01*
X0375241Y0202252D02*
X0382900Y0202252D01*
X0382900Y0201253D02*
X0323100Y0201253D01*
X0323100Y0200255D02*
X0382900Y0200255D01*
X0382900Y0199256D02*
X0323100Y0199256D01*
X0323100Y0198258D02*
X0382900Y0198258D01*
X0382900Y0197259D02*
X0323100Y0197259D01*
X0323100Y0196261D02*
X0382900Y0196261D01*
X0382900Y0195262D02*
X0323100Y0195262D01*
X0323100Y0194263D02*
X0382900Y0194263D01*
X0382900Y0193265D02*
X0323100Y0193265D01*
X0323100Y0192266D02*
X0382900Y0192266D01*
X0382900Y0191268D02*
X0323100Y0191268D01*
X0323100Y0190269D02*
X0382900Y0190269D01*
X0382900Y0189271D02*
X0323100Y0189271D01*
X0323100Y0188272D02*
X0382900Y0188272D01*
X0382900Y0187274D02*
X0323591Y0187274D01*
X0324217Y0186275D02*
X0382900Y0186275D01*
X0382900Y0185277D02*
X0324484Y0185277D01*
X0324484Y0184278D02*
X0382900Y0184278D01*
X0382900Y0183280D02*
X0324085Y0183280D01*
X0323271Y0182281D02*
X0382900Y0182281D01*
X0387100Y0182281D02*
X0395910Y0182281D01*
X0395910Y0181283D02*
X0387100Y0181283D01*
X0387100Y0180284D02*
X0395910Y0180284D01*
X0395910Y0179286D02*
X0387100Y0179286D01*
X0387100Y0178287D02*
X0395910Y0178287D01*
X0395910Y0177289D02*
X0387100Y0177289D01*
X0387100Y0176290D02*
X0395910Y0176290D01*
X0395910Y0175292D02*
X0387100Y0175292D01*
X0387100Y0174293D02*
X0395910Y0174293D01*
X0395910Y0173295D02*
X0387100Y0173295D01*
X0387100Y0172296D02*
X0395910Y0172296D01*
X0395910Y0171298D02*
X0387100Y0171298D01*
X0387100Y0170299D02*
X0395910Y0170299D01*
X0395910Y0169301D02*
X0387100Y0169301D01*
X0387100Y0168302D02*
X0395910Y0168302D01*
X0395910Y0167304D02*
X0387100Y0167304D01*
X0387100Y0166305D02*
X0395910Y0166305D01*
X0395910Y0165307D02*
X0387100Y0165307D01*
X0387100Y0164308D02*
X0395910Y0164308D01*
X0395910Y0163310D02*
X0387100Y0163310D01*
X0387100Y0162311D02*
X0395910Y0162311D01*
X0395910Y0161313D02*
X0387100Y0161313D01*
X0387100Y0160314D02*
X0395910Y0160314D01*
X0395910Y0159316D02*
X0387100Y0159316D01*
X0387100Y0158317D02*
X0395910Y0158317D01*
X0395910Y0157319D02*
X0387100Y0157319D01*
X0387100Y0156320D02*
X0395910Y0156320D01*
X0395910Y0155322D02*
X0387100Y0155322D01*
X0387100Y0154323D02*
X0395910Y0154323D01*
X0395910Y0153325D02*
X0387100Y0153325D01*
X0387100Y0152326D02*
X0395910Y0152326D01*
X0395910Y0151327D02*
X0387100Y0151327D01*
X0387100Y0150329D02*
X0395910Y0150329D01*
X0395910Y0149330D02*
X0387100Y0149330D01*
X0387100Y0148332D02*
X0395910Y0148332D01*
X0395910Y0147333D02*
X0387100Y0147333D01*
X0387100Y0146335D02*
X0395910Y0146335D01*
X0395910Y0145336D02*
X0387100Y0145336D01*
X0387100Y0144338D02*
X0395910Y0144338D01*
X0395910Y0143339D02*
X0387100Y0143339D01*
X0387100Y0142341D02*
X0395910Y0142341D01*
X0395910Y0141342D02*
X0387100Y0141342D01*
X0387100Y0140344D02*
X0395910Y0140344D01*
X0395910Y0139345D02*
X0387100Y0139345D01*
X0387100Y0138347D02*
X0395910Y0138347D01*
X0395910Y0137348D02*
X0387100Y0137348D01*
X0387100Y0136350D02*
X0395910Y0136350D01*
X0395910Y0135351D02*
X0387100Y0135351D01*
X0387100Y0134353D02*
X0395910Y0134353D01*
X0395910Y0133354D02*
X0387100Y0133354D01*
X0387100Y0132356D02*
X0395910Y0132356D01*
X0395910Y0131357D02*
X0387100Y0131357D01*
X0387100Y0130359D02*
X0395910Y0130359D01*
X0395910Y0129360D02*
X0387100Y0129360D01*
X0387100Y0128362D02*
X0395910Y0128362D01*
X0395910Y0127363D02*
X0387100Y0127363D01*
X0387100Y0126365D02*
X0395910Y0126365D01*
X0395910Y0125366D02*
X0387100Y0125366D01*
X0387100Y0124368D02*
X0395910Y0124368D01*
X0395910Y0123369D02*
X0386901Y0123369D01*
X0385903Y0122371D02*
X0395910Y0122371D01*
X0395910Y0121372D02*
X0384904Y0121372D01*
X0383906Y0120374D02*
X0395910Y0120374D01*
X0395910Y0119375D02*
X0382907Y0119375D01*
X0381909Y0118377D02*
X0395910Y0118377D01*
X0395910Y0117378D02*
X0380910Y0117378D01*
X0376637Y0110389D02*
X0246913Y0110389D01*
X0246648Y0109390D02*
X0373821Y0109390D01*
X0372267Y0108392D02*
X0246117Y0108392D01*
X0245241Y0107393D02*
X0370714Y0107393D01*
X0369565Y0106394D02*
X0360706Y0106394D01*
X0361287Y0105396D02*
X0368700Y0105396D01*
X0367835Y0104397D02*
X0361300Y0104397D01*
X0361300Y0103399D02*
X0366969Y0103399D01*
X0366422Y0102400D02*
X0361300Y0102400D01*
X0361300Y0101402D02*
X0365966Y0101402D01*
X0365510Y0100403D02*
X0361300Y0100403D01*
X0361300Y0099405D02*
X0365054Y0099405D01*
X0357500Y0099405D02*
X0356500Y0099405D01*
X0356500Y0100403D02*
X0357500Y0100403D01*
X0357500Y0101402D02*
X0356500Y0101402D01*
X0356500Y0102400D02*
X0357500Y0102400D01*
X0357500Y0103399D02*
X0356500Y0103399D01*
X0356500Y0104397D02*
X0357500Y0104397D01*
X0357500Y0105396D02*
X0356500Y0105396D01*
X0356500Y0106394D02*
X0357500Y0106394D01*
X0357500Y0096409D02*
X0356500Y0096409D01*
X0356500Y0095411D02*
X0357500Y0095411D01*
X0357500Y0094412D02*
X0356500Y0094412D01*
X0356500Y0093414D02*
X0357500Y0093414D01*
X0357500Y0092415D02*
X0356500Y0092415D01*
X0356500Y0091417D02*
X0357500Y0091417D01*
X0357500Y0090418D02*
X0356500Y0090418D01*
X0356500Y0089420D02*
X0357500Y0089420D01*
X0357500Y0088421D02*
X0356500Y0088421D01*
X0386693Y0110389D02*
X0395910Y0110389D01*
X0395910Y0111387D02*
X0242480Y0111387D01*
X0242480Y0110389D02*
X0241480Y0110389D01*
X0241480Y0109390D02*
X0242480Y0109390D01*
X0242480Y0108392D02*
X0241480Y0108392D01*
X0241480Y0107393D02*
X0242480Y0107393D01*
X0242480Y0112386D02*
X0241480Y0112386D01*
X0241480Y0113384D02*
X0242480Y0113384D01*
X0242480Y0114383D02*
X0241480Y0114383D01*
X0241480Y0115381D02*
X0242480Y0115381D01*
X0232970Y0121372D02*
X0253528Y0121372D01*
X0253528Y0120374D02*
X0231972Y0120374D01*
X0230973Y0119375D02*
X0253528Y0119375D01*
X0253850Y0118377D02*
X0229974Y0118377D01*
X0228976Y0117378D02*
X0254264Y0117378D01*
X0264660Y0113384D02*
X0303395Y0113384D01*
X0301577Y0114383D02*
X0266478Y0114383D01*
X0267477Y0115381D02*
X0300579Y0115381D01*
X0299677Y0116380D02*
X0268378Y0116380D01*
X0268791Y0117378D02*
X0299264Y0117378D01*
X0298850Y0118377D02*
X0269205Y0118377D01*
X0269527Y0119375D02*
X0298528Y0119375D01*
X0298528Y0120374D02*
X0269527Y0120374D01*
X0269527Y0121372D02*
X0298528Y0121372D01*
X0298543Y0122371D02*
X0269512Y0122371D01*
X0269099Y0123369D02*
X0298956Y0123369D01*
X0299370Y0124368D02*
X0268685Y0124368D01*
X0268219Y0125366D02*
X0299836Y0125366D01*
X0300835Y0126365D02*
X0267220Y0126365D01*
X0266222Y0127363D02*
X0301833Y0127363D01*
X0304014Y0128362D02*
X0264041Y0128362D01*
X0259014Y0128362D02*
X0239960Y0128362D01*
X0238961Y0127363D02*
X0256833Y0127363D01*
X0255835Y0126365D02*
X0237963Y0126365D01*
X0236964Y0125366D02*
X0254836Y0125366D01*
X0254370Y0124368D02*
X0235966Y0124368D01*
X0234967Y0123369D02*
X0253956Y0123369D01*
X0253543Y0122371D02*
X0233969Y0122371D01*
X0230892Y0126365D02*
X0194080Y0126365D01*
X0194080Y0127363D02*
X0231890Y0127363D01*
X0232889Y0128362D02*
X0194080Y0128362D01*
X0194080Y0129360D02*
X0223287Y0129360D01*
X0223329Y0129318D02*
X0224248Y0128938D01*
X0233464Y0128938D01*
X0221131Y0116604D01*
X0220906Y0116604D01*
X0218921Y0115782D01*
X0217402Y0114263D01*
X0216980Y0113244D01*
X0216558Y0114263D01*
X0215039Y0115782D01*
X0213054Y0116604D01*
X0210906Y0116604D01*
X0208921Y0115782D01*
X0207402Y0114263D01*
X0206980Y0113244D01*
X0206558Y0114263D01*
X0205039Y0115782D01*
X0203054Y0116604D01*
X0200906Y0116604D01*
X0198921Y0115782D01*
X0197402Y0114263D01*
X0196980Y0113244D01*
X0196558Y0114263D01*
X0195039Y0115782D01*
X0194080Y0116179D01*
X0194080Y0185709D01*
X0185340Y0194449D01*
X0185340Y0223575D01*
X0186189Y0223927D01*
X0187708Y0225446D01*
X0188130Y0226465D01*
X0188552Y0225446D01*
X0190071Y0223927D01*
X0192056Y0223105D01*
X0194204Y0223105D01*
X0196189Y0223927D01*
X0197708Y0225446D01*
X0198130Y0226465D01*
X0198552Y0225446D01*
X0200071Y0223927D01*
X0202056Y0223105D01*
X0204204Y0223105D01*
X0206189Y0223927D01*
X0207708Y0225446D01*
X0208130Y0226465D01*
X0208552Y0225446D01*
X0210071Y0223927D01*
X0210630Y0223695D01*
X0210630Y0141959D01*
X0211011Y0141040D01*
X0211714Y0140336D01*
X0212633Y0139956D01*
X0212691Y0139956D01*
X0223329Y0129318D01*
X0222288Y0130359D02*
X0194080Y0130359D01*
X0194080Y0131357D02*
X0221290Y0131357D01*
X0220291Y0132356D02*
X0194080Y0132356D01*
X0194080Y0133354D02*
X0219293Y0133354D01*
X0218294Y0134353D02*
X0194080Y0134353D01*
X0194080Y0135351D02*
X0217296Y0135351D01*
X0216297Y0136350D02*
X0194080Y0136350D01*
X0194080Y0137348D02*
X0215299Y0137348D01*
X0214300Y0138347D02*
X0194080Y0138347D01*
X0194080Y0139345D02*
X0213302Y0139345D01*
X0211706Y0140344D02*
X0194080Y0140344D01*
X0194080Y0141342D02*
X0210885Y0141342D01*
X0210630Y0142341D02*
X0194080Y0142341D01*
X0194080Y0143339D02*
X0210630Y0143339D01*
X0210630Y0144338D02*
X0194080Y0144338D01*
X0194080Y0145336D02*
X0210630Y0145336D01*
X0210630Y0146335D02*
X0194080Y0146335D01*
X0194080Y0147333D02*
X0210630Y0147333D01*
X0210630Y0148332D02*
X0194080Y0148332D01*
X0194080Y0149330D02*
X0210630Y0149330D01*
X0210630Y0150329D02*
X0194080Y0150329D01*
X0194080Y0151327D02*
X0210630Y0151327D01*
X0210630Y0152326D02*
X0194080Y0152326D01*
X0194080Y0153325D02*
X0210630Y0153325D01*
X0210630Y0154323D02*
X0194080Y0154323D01*
X0194080Y0155322D02*
X0210630Y0155322D01*
X0210630Y0156320D02*
X0194080Y0156320D01*
X0194080Y0157319D02*
X0210630Y0157319D01*
X0210630Y0158317D02*
X0194080Y0158317D01*
X0194080Y0159316D02*
X0210630Y0159316D01*
X0210630Y0160314D02*
X0194080Y0160314D01*
X0194080Y0161313D02*
X0210630Y0161313D01*
X0210630Y0162311D02*
X0194080Y0162311D01*
X0194080Y0163310D02*
X0210630Y0163310D01*
X0210630Y0164308D02*
X0194080Y0164308D01*
X0194080Y0165307D02*
X0210630Y0165307D01*
X0210630Y0166305D02*
X0194080Y0166305D01*
X0194080Y0167304D02*
X0210630Y0167304D01*
X0210630Y0168302D02*
X0194080Y0168302D01*
X0194080Y0169301D02*
X0210630Y0169301D01*
X0210630Y0170299D02*
X0194080Y0170299D01*
X0194080Y0171298D02*
X0210630Y0171298D01*
X0210630Y0172296D02*
X0194080Y0172296D01*
X0194080Y0173295D02*
X0210630Y0173295D01*
X0210630Y0174293D02*
X0194080Y0174293D01*
X0194080Y0175292D02*
X0210630Y0175292D01*
X0210630Y0176290D02*
X0194080Y0176290D01*
X0194080Y0177289D02*
X0210630Y0177289D01*
X0210630Y0178287D02*
X0194080Y0178287D01*
X0194080Y0179286D02*
X0210630Y0179286D01*
X0210630Y0180284D02*
X0194080Y0180284D01*
X0194080Y0181283D02*
X0210630Y0181283D01*
X0210630Y0182281D02*
X0194080Y0182281D01*
X0194080Y0183280D02*
X0210630Y0183280D01*
X0210630Y0184278D02*
X0194080Y0184278D01*
X0194080Y0185277D02*
X0210630Y0185277D01*
X0210630Y0186275D02*
X0193514Y0186275D01*
X0192515Y0187274D02*
X0210630Y0187274D01*
X0210630Y0188272D02*
X0191517Y0188272D01*
X0190518Y0189271D02*
X0210630Y0189271D01*
X0210630Y0190269D02*
X0189520Y0190269D01*
X0188521Y0191268D02*
X0210630Y0191268D01*
X0210630Y0192266D02*
X0187523Y0192266D01*
X0186524Y0193265D02*
X0210630Y0193265D01*
X0210630Y0194263D02*
X0185526Y0194263D01*
X0185340Y0195262D02*
X0210630Y0195262D01*
X0210630Y0196261D02*
X0185340Y0196261D01*
X0185340Y0197259D02*
X0210630Y0197259D01*
X0210630Y0198258D02*
X0185340Y0198258D01*
X0185340Y0199256D02*
X0210630Y0199256D01*
X0210630Y0200255D02*
X0185340Y0200255D01*
X0185340Y0201253D02*
X0210630Y0201253D01*
X0210630Y0202252D02*
X0185340Y0202252D01*
X0185340Y0203250D02*
X0210630Y0203250D01*
X0210630Y0204249D02*
X0185340Y0204249D01*
X0185340Y0205247D02*
X0210630Y0205247D01*
X0210630Y0206246D02*
X0185340Y0206246D01*
X0185340Y0207244D02*
X0210630Y0207244D01*
X0210630Y0208243D02*
X0185340Y0208243D01*
X0185340Y0209241D02*
X0210630Y0209241D01*
X0210630Y0210240D02*
X0185340Y0210240D01*
X0185340Y0211238D02*
X0210630Y0211238D01*
X0210630Y0212237D02*
X0185340Y0212237D01*
X0185340Y0213235D02*
X0210630Y0213235D01*
X0210630Y0214234D02*
X0185340Y0214234D01*
X0185340Y0215232D02*
X0210630Y0215232D01*
X0210630Y0216231D02*
X0185340Y0216231D01*
X0185340Y0217229D02*
X0210630Y0217229D01*
X0210630Y0218228D02*
X0185340Y0218228D01*
X0185340Y0219226D02*
X0210630Y0219226D01*
X0210630Y0220225D02*
X0185340Y0220225D01*
X0185340Y0221223D02*
X0210630Y0221223D01*
X0210630Y0222222D02*
X0185340Y0222222D01*
X0185340Y0223220D02*
X0191776Y0223220D01*
X0189779Y0224219D02*
X0186481Y0224219D01*
X0187479Y0225217D02*
X0188780Y0225217D01*
X0188233Y0226216D02*
X0188027Y0226216D01*
X0194483Y0223220D02*
X0201776Y0223220D01*
X0199779Y0224219D02*
X0196481Y0224219D01*
X0197479Y0225217D02*
X0198780Y0225217D01*
X0198233Y0226216D02*
X0198027Y0226216D01*
X0204483Y0223220D02*
X0210630Y0223220D01*
X0209779Y0224219D02*
X0206481Y0224219D01*
X0207479Y0225217D02*
X0208780Y0225217D01*
X0208233Y0226216D02*
X0208027Y0226216D01*
X0208130Y0230544D02*
X0207708Y0231563D01*
X0206189Y0233082D01*
X0205419Y0233401D01*
X0205419Y0235394D01*
X0204189Y0236624D01*
X0203923Y0236890D01*
X0213486Y0246453D01*
X0214693Y0246453D01*
X0215974Y0246984D01*
X0216526Y0247536D01*
X0237833Y0247536D01*
X0237833Y0230210D01*
X0237764Y0230424D01*
X0237406Y0231125D01*
X0236944Y0231762D01*
X0236387Y0232318D01*
X0235750Y0232781D01*
X0235049Y0233138D01*
X0234301Y0233381D01*
X0233630Y0233488D01*
X0233630Y0229005D01*
X0232630Y0229005D01*
X0232630Y0233488D01*
X0231959Y0233381D01*
X0231211Y0233138D01*
X0230509Y0232781D01*
X0229873Y0232318D01*
X0229316Y0231762D01*
X0228854Y0231125D01*
X0228496Y0230424D01*
X0228357Y0229996D01*
X0227708Y0231563D01*
X0226189Y0233082D01*
X0224204Y0233905D01*
X0222056Y0233905D01*
X0220071Y0233082D01*
X0218552Y0231563D01*
X0218130Y0230544D01*
X0217708Y0231563D01*
X0216189Y0233082D01*
X0214204Y0233905D01*
X0212056Y0233905D01*
X0210071Y0233082D01*
X0208552Y0231563D01*
X0208130Y0230544D01*
X0207855Y0231208D02*
X0208405Y0231208D01*
X0209195Y0232207D02*
X0207064Y0232207D01*
X0205892Y0233205D02*
X0210368Y0233205D01*
X0205419Y0234204D02*
X0237833Y0234204D01*
X0237833Y0235202D02*
X0205419Y0235202D01*
X0204612Y0236201D02*
X0237833Y0236201D01*
X0237833Y0237199D02*
X0204232Y0237199D01*
X0205230Y0238198D02*
X0237833Y0238198D01*
X0237833Y0239196D02*
X0206229Y0239196D01*
X0207227Y0240195D02*
X0237833Y0240195D01*
X0237833Y0241194D02*
X0208226Y0241194D01*
X0209224Y0242192D02*
X0237833Y0242192D01*
X0237833Y0243191D02*
X0210223Y0243191D01*
X0211221Y0244189D02*
X0237833Y0244189D01*
X0237833Y0245188D02*
X0212220Y0245188D01*
X0213218Y0246186D02*
X0237833Y0246186D01*
X0238033Y0246400D02*
X0213089Y0246340D01*
X0213403Y0246653D01*
X0214653Y0246653D01*
X0215860Y0247153D01*
X0216784Y0248077D01*
X0217284Y0249284D01*
X0217284Y0250591D01*
X0216784Y0251798D01*
X0215860Y0252722D01*
X0214653Y0253222D01*
X0213347Y0253222D01*
X0212140Y0252722D01*
X0211216Y0251798D01*
X0210716Y0250591D01*
X0210716Y0249340D01*
X0207702Y0246326D01*
X0197367Y0246301D01*
X0197345Y0246324D01*
X0197345Y0274647D01*
X0197360Y0274653D01*
X0198284Y0275577D01*
X0198784Y0276784D01*
X0198784Y0278091D01*
X0198284Y0279298D01*
X0197360Y0280222D01*
X0196153Y0280722D01*
X0194847Y0280722D01*
X0193640Y0280222D01*
X0192716Y0279298D01*
X0192216Y0278091D01*
X0192216Y0276784D01*
X0192716Y0275577D01*
X0193545Y0274748D01*
X0193545Y0246324D01*
X0193513Y0246292D01*
X0139969Y0246162D01*
X0140043Y0265691D01*
X0141878Y0265691D01*
X0144671Y0266848D01*
X0146808Y0268986D01*
X0147965Y0271779D01*
X0147965Y0274802D01*
X0146808Y0277595D01*
X0144671Y0279733D01*
X0141878Y0280890D01*
X0140101Y0280890D01*
X0140181Y0301928D01*
X0146216Y0295893D01*
X0146216Y0294784D01*
X0146716Y0293577D01*
X0147640Y0292653D01*
X0148847Y0292153D01*
X0150153Y0292153D01*
X0151360Y0292653D01*
X0152284Y0293577D01*
X0152784Y0294784D01*
X0152784Y0296091D01*
X0152284Y0297298D01*
X0151360Y0298222D01*
X0150153Y0298722D01*
X0149044Y0298722D01*
X0140203Y0307563D01*
X0140500Y0385438D01*
X0163054Y0385438D01*
X0162905Y0385376D01*
X0161076Y0383547D01*
X0160087Y0381158D01*
X0160087Y0378572D01*
X0161076Y0376183D01*
X0162905Y0374355D01*
X0165294Y0373365D01*
X0167880Y0373365D01*
X0170269Y0374355D01*
X0172097Y0376183D01*
X0173087Y0378572D01*
X0173087Y0381158D01*
X0172097Y0383547D01*
X0170269Y0385376D01*
X0170119Y0385438D01*
X0214609Y0385438D01*
X0214460Y0385376D01*
X0212631Y0383547D01*
X0211642Y0381158D01*
X0211642Y0378572D01*
X0212631Y0376183D01*
X0214460Y0374355D01*
X0216849Y0373365D01*
X0219435Y0373365D01*
X0221824Y0374355D01*
X0223652Y0376183D01*
X0224642Y0378572D01*
X0224642Y0381158D01*
X0223652Y0383547D01*
X0221824Y0385376D01*
X0221674Y0385438D01*
X0267228Y0385438D01*
X0267078Y0385376D01*
X0265249Y0383547D01*
X0264260Y0381158D01*
X0264260Y0378572D01*
X0265249Y0376183D01*
X0267078Y0374355D01*
X0269467Y0373365D01*
X0272053Y0373365D01*
X0274442Y0374355D01*
X0276270Y0376183D01*
X0277260Y0378572D01*
X0277260Y0381158D01*
X0276270Y0383547D01*
X0274442Y0385376D01*
X0274292Y0385438D01*
X0337346Y0385438D01*
X0337196Y0385376D01*
X0335368Y0383547D01*
X0334378Y0381158D01*
X0334378Y0378572D01*
X0335368Y0376183D01*
X0337196Y0374355D01*
X0339585Y0373365D01*
X0342171Y0373365D01*
X0344160Y0374189D01*
X0345346Y0290536D01*
X0341047Y0286238D01*
X0325547Y0286238D01*
X0324200Y0284890D01*
X0323547Y0284238D01*
X0304547Y0284238D01*
X0297047Y0276738D01*
X0294547Y0276738D01*
X0294532Y0276722D01*
X0293847Y0276722D01*
X0292640Y0276222D01*
X0291716Y0275298D01*
X0291216Y0274091D01*
X0291216Y0272784D01*
X0291235Y0272738D01*
X0268845Y0272738D01*
X0268360Y0273222D01*
X0267153Y0273722D01*
X0265847Y0273722D01*
X0264640Y0273222D01*
X0263716Y0272298D01*
X0263216Y0271091D01*
X0263216Y0269784D01*
X0263716Y0268577D01*
X0264555Y0267738D01*
X0256453Y0267738D01*
X0255800Y0268390D01*
X0255800Y0274485D01*
X0256468Y0275153D01*
X0257153Y0275153D01*
X0258360Y0275653D01*
X0259284Y0276577D01*
X0259784Y0277784D01*
X0259784Y0279091D01*
X0259284Y0280298D01*
X0258360Y0281222D01*
X0257691Y0281499D01*
X0240784Y0298406D01*
X0240784Y0299091D01*
X0240284Y0300298D01*
X0239360Y0301222D01*
X0238153Y0301722D01*
X0236847Y0301722D01*
X0235640Y0301222D01*
X0234716Y0300298D01*
X0234216Y0299091D01*
X0234216Y0297784D01*
X0234716Y0296577D01*
X0235640Y0295653D01*
X0236847Y0295153D01*
X0237532Y0295153D01*
X0253327Y0279358D01*
X0253216Y0279091D01*
X0253216Y0278406D01*
X0251200Y0276390D01*
X0251200Y0266485D01*
X0252547Y0265138D01*
X0254547Y0263138D01*
X0301453Y0263138D01*
X0302579Y0264264D01*
X0302847Y0264153D01*
X0303529Y0264153D01*
X0296349Y0256974D01*
X0291651Y0256974D01*
X0290787Y0257838D01*
X0286284Y0257838D01*
X0286284Y0258091D01*
X0285784Y0259298D01*
X0284860Y0260222D01*
X0283653Y0260722D01*
X0282347Y0260722D01*
X0281140Y0260222D01*
X0280255Y0259338D01*
X0247135Y0259338D01*
X0239146Y0251348D01*
X0238033Y0250235D01*
X0238033Y0246400D01*
X0238033Y0247185D02*
X0215892Y0247185D01*
X0216174Y0247185D02*
X0237833Y0247185D01*
X0238033Y0248183D02*
X0216828Y0248183D01*
X0217242Y0249182D02*
X0238033Y0249182D01*
X0238033Y0250180D02*
X0217284Y0250180D01*
X0217041Y0251179D02*
X0238976Y0251179D01*
X0239975Y0252177D02*
X0221384Y0252177D01*
X0221360Y0252153D02*
X0222284Y0253077D01*
X0222784Y0254284D01*
X0222784Y0255591D01*
X0222284Y0256798D01*
X0221360Y0257722D01*
X0220153Y0258222D01*
X0218847Y0258222D01*
X0217640Y0257722D01*
X0216716Y0256798D01*
X0216216Y0255591D01*
X0216216Y0254284D01*
X0216716Y0253077D01*
X0217640Y0252153D01*
X0218847Y0251653D01*
X0220153Y0251653D01*
X0221360Y0252153D01*
X0222325Y0253176D02*
X0240973Y0253176D01*
X0241972Y0254174D02*
X0222739Y0254174D01*
X0222784Y0255173D02*
X0242970Y0255173D01*
X0243969Y0256171D02*
X0222544Y0256171D01*
X0221913Y0257170D02*
X0244967Y0257170D01*
X0245966Y0258168D02*
X0220283Y0258168D01*
X0218717Y0258168D02*
X0197345Y0258168D01*
X0197345Y0257170D02*
X0217087Y0257170D01*
X0216456Y0256171D02*
X0197345Y0256171D01*
X0197345Y0255173D02*
X0216216Y0255173D01*
X0216261Y0254174D02*
X0197345Y0254174D01*
X0197345Y0253176D02*
X0213235Y0253176D01*
X0214765Y0253176D02*
X0216675Y0253176D01*
X0216405Y0252177D02*
X0217616Y0252177D01*
X0211595Y0252177D02*
X0197345Y0252177D01*
X0197345Y0251179D02*
X0210959Y0251179D01*
X0210716Y0250180D02*
X0197345Y0250180D01*
X0197345Y0249182D02*
X0210557Y0249182D01*
X0209558Y0248183D02*
X0197345Y0248183D01*
X0197345Y0247185D02*
X0208560Y0247185D01*
X0208277Y0247185D02*
X0197545Y0247185D01*
X0197766Y0246186D02*
X0207279Y0246186D01*
X0206280Y0245188D02*
X0198550Y0245188D01*
X0198929Y0244189D02*
X0205282Y0244189D01*
X0204283Y0243191D02*
X0198929Y0243191D01*
X0198642Y0242192D02*
X0203285Y0242192D01*
X0202286Y0241194D02*
X0197986Y0241194D01*
X0196379Y0240195D02*
X0201287Y0240195D01*
X0194511Y0240195D02*
X0027900Y0240195D01*
X0027900Y0240318D02*
X0027078Y0242303D01*
X0025559Y0243822D01*
X0023574Y0244644D01*
X0021426Y0244644D01*
X0019441Y0243822D01*
X0017922Y0242303D01*
X0017100Y0240318D01*
X0017100Y0238170D01*
X0017922Y0236185D01*
X0019441Y0234666D01*
X0021426Y0233844D01*
X0023574Y0233844D01*
X0025559Y0234666D01*
X0027078Y0236185D01*
X0027900Y0238170D01*
X0027900Y0240318D01*
X0027537Y0241194D02*
X0192903Y0241194D01*
X0192248Y0242192D02*
X0027124Y0242192D01*
X0026190Y0243191D02*
X0191961Y0243191D01*
X0191961Y0244189D02*
X0024672Y0244189D01*
X0023574Y0245244D02*
X0025559Y0246066D01*
X0027078Y0247585D01*
X0027762Y0249238D01*
X0063121Y0249238D01*
X0063807Y0248953D01*
X0065193Y0248953D01*
X0066474Y0249484D01*
X0067454Y0250464D01*
X0067984Y0251745D01*
X0067984Y0253131D01*
X0067454Y0254411D01*
X0066474Y0255391D01*
X0065193Y0255922D01*
X0063807Y0255922D01*
X0063121Y0255638D01*
X0024555Y0255638D01*
X0023574Y0256044D01*
X0021426Y0256044D01*
X0019441Y0255222D01*
X0017922Y0253703D01*
X0017100Y0251718D01*
X0017100Y0249570D01*
X0017922Y0247585D01*
X0019441Y0246066D01*
X0021426Y0245244D01*
X0023574Y0245244D01*
X0025679Y0246186D02*
X0193124Y0246186D01*
X0193345Y0247185D02*
X0026677Y0247185D01*
X0027326Y0248183D02*
X0136971Y0248183D01*
X0136974Y0249182D02*
X0065744Y0249182D01*
X0067170Y0250180D02*
X0136978Y0250180D01*
X0136982Y0251179D02*
X0067750Y0251179D01*
X0067984Y0252177D02*
X0136985Y0252177D01*
X0136989Y0253176D02*
X0067966Y0253176D01*
X0067552Y0254174D02*
X0136992Y0254174D01*
X0136996Y0255173D02*
X0066692Y0255173D01*
X0063256Y0249182D02*
X0027739Y0249182D01*
X0019321Y0246186D02*
X0014656Y0246186D01*
X0014698Y0245188D02*
X0192340Y0245188D01*
X0193545Y0247185D02*
X0139972Y0247185D01*
X0139976Y0248183D02*
X0193545Y0248183D01*
X0193545Y0249182D02*
X0139980Y0249182D01*
X0139984Y0250180D02*
X0193545Y0250180D01*
X0193545Y0251179D02*
X0139988Y0251179D01*
X0139991Y0252177D02*
X0193545Y0252177D01*
X0193545Y0253176D02*
X0139995Y0253176D01*
X0139999Y0254174D02*
X0193545Y0254174D01*
X0193545Y0255173D02*
X0140003Y0255173D01*
X0140007Y0256171D02*
X0193545Y0256171D01*
X0193545Y0257170D02*
X0140011Y0257170D01*
X0140014Y0258168D02*
X0193545Y0258168D01*
X0193545Y0259167D02*
X0140018Y0259167D01*
X0140022Y0260165D02*
X0193545Y0260165D01*
X0193545Y0261164D02*
X0140026Y0261164D01*
X0140030Y0262162D02*
X0193545Y0262162D01*
X0193545Y0263161D02*
X0140033Y0263161D01*
X0140037Y0264159D02*
X0193545Y0264159D01*
X0193545Y0265158D02*
X0140041Y0265158D01*
X0137032Y0265158D02*
X0085741Y0265158D01*
X0085984Y0265745D02*
X0085984Y0267131D01*
X0085454Y0268411D01*
X0084474Y0269391D01*
X0083193Y0269922D01*
X0081807Y0269922D01*
X0080526Y0269391D01*
X0079673Y0268538D01*
X0043758Y0268538D01*
X0041235Y0271060D01*
X0041235Y0276425D01*
X0040444Y0278336D01*
X0038981Y0279799D01*
X0037070Y0280590D01*
X0035001Y0280590D01*
X0033090Y0279799D01*
X0031627Y0278336D01*
X0030835Y0276425D01*
X0030835Y0270156D01*
X0031627Y0268245D01*
X0033090Y0266782D01*
X0035001Y0265990D01*
X0037070Y0265990D01*
X0038981Y0266782D01*
X0039277Y0267079D01*
X0042018Y0264338D01*
X0079673Y0264338D01*
X0080526Y0263484D01*
X0081807Y0262953D01*
X0083193Y0262953D01*
X0084474Y0263484D01*
X0085454Y0264464D01*
X0085984Y0265745D01*
X0085984Y0266156D02*
X0136686Y0266156D01*
X0135189Y0267155D02*
X0085974Y0267155D01*
X0085561Y0268153D02*
X0134191Y0268153D01*
X0133422Y0269152D02*
X0084713Y0269152D01*
X0080287Y0269152D02*
X0043144Y0269152D01*
X0042145Y0270150D02*
X0133009Y0270150D01*
X0132595Y0271149D02*
X0041235Y0271149D01*
X0041235Y0272147D02*
X0132367Y0272147D01*
X0132367Y0273146D02*
X0041235Y0273146D01*
X0041235Y0274144D02*
X0132367Y0274144D01*
X0132475Y0275143D02*
X0041235Y0275143D01*
X0041235Y0276141D02*
X0132889Y0276141D01*
X0133302Y0277140D02*
X0040939Y0277140D01*
X0040526Y0278138D02*
X0133902Y0278138D01*
X0134900Y0279137D02*
X0039643Y0279137D01*
X0038168Y0280135D02*
X0135989Y0280135D01*
X0137089Y0281134D02*
X0013063Y0281134D01*
X0013063Y0280135D02*
X0033903Y0280135D01*
X0032428Y0279137D02*
X0013063Y0279137D01*
X0013063Y0278138D02*
X0031545Y0278138D01*
X0031132Y0277140D02*
X0012718Y0277140D01*
X0013063Y0276141D02*
X0030835Y0276141D01*
X0030835Y0275143D02*
X0013063Y0275143D01*
X0013063Y0274144D02*
X0030835Y0274144D01*
X0030835Y0273146D02*
X0012971Y0273146D01*
X0012382Y0272147D02*
X0030835Y0272147D01*
X0030835Y0271149D02*
X0013063Y0271149D01*
X0013063Y0270150D02*
X0030838Y0270150D01*
X0031251Y0269152D02*
X0013063Y0269152D01*
X0013763Y0268153D02*
X0031719Y0268153D01*
X0032717Y0267155D02*
X0014698Y0267155D01*
X0014698Y0266156D02*
X0034601Y0266156D01*
X0037470Y0266156D02*
X0040200Y0266156D01*
X0041198Y0265158D02*
X0014698Y0265158D01*
X0014698Y0264159D02*
X0079851Y0264159D01*
X0081306Y0263161D02*
X0014698Y0263161D01*
X0014568Y0262162D02*
X0137021Y0262162D01*
X0137017Y0261164D02*
X0013569Y0261164D01*
X0013063Y0260165D02*
X0137014Y0260165D01*
X0137010Y0259167D02*
X0013063Y0259167D01*
X0013063Y0258168D02*
X0137007Y0258168D01*
X0137003Y0257170D02*
X0013005Y0257170D01*
X0013063Y0256171D02*
X0137000Y0256171D01*
X0137025Y0263161D02*
X0083694Y0263161D01*
X0085149Y0264159D02*
X0137028Y0264159D01*
X0143001Y0266156D02*
X0193545Y0266156D01*
X0193545Y0267155D02*
X0144977Y0267155D01*
X0145976Y0268153D02*
X0193545Y0268153D01*
X0193545Y0269152D02*
X0146877Y0269152D01*
X0147291Y0270150D02*
X0193545Y0270150D01*
X0193545Y0271149D02*
X0147704Y0271149D01*
X0147965Y0272147D02*
X0193545Y0272147D01*
X0193545Y0273146D02*
X0147965Y0273146D01*
X0147965Y0274144D02*
X0193545Y0274144D01*
X0193150Y0275143D02*
X0147824Y0275143D01*
X0147411Y0276141D02*
X0192482Y0276141D01*
X0192216Y0277140D02*
X0146997Y0277140D01*
X0146265Y0278138D02*
X0192235Y0278138D01*
X0192649Y0279137D02*
X0145266Y0279137D01*
X0143698Y0280135D02*
X0193553Y0280135D01*
X0197447Y0280135D02*
X0219511Y0280135D01*
X0218512Y0279137D02*
X0198351Y0279137D01*
X0198765Y0278138D02*
X0217514Y0278138D01*
X0216515Y0277140D02*
X0198784Y0277140D01*
X0198518Y0276141D02*
X0215517Y0276141D01*
X0215097Y0275722D02*
X0213847Y0275722D01*
X0212640Y0275222D01*
X0211716Y0274298D01*
X0211216Y0273091D01*
X0211216Y0271784D01*
X0211716Y0270577D01*
X0212640Y0269653D01*
X0213847Y0269153D01*
X0215153Y0269153D01*
X0216360Y0269653D01*
X0217284Y0270577D01*
X0217784Y0271784D01*
X0217784Y0273035D01*
X0225079Y0280330D01*
X0225860Y0280653D01*
X0226784Y0281577D01*
X0227284Y0282784D01*
X0227284Y0284091D01*
X0226784Y0285298D01*
X0225860Y0286222D01*
X0224653Y0286722D01*
X0223347Y0286722D01*
X0222140Y0286222D01*
X0221216Y0285298D01*
X0220716Y0284091D01*
X0220716Y0282784D01*
X0221139Y0281763D01*
X0215097Y0275722D01*
X0212561Y0275143D02*
X0197850Y0275143D01*
X0197345Y0274144D02*
X0211652Y0274144D01*
X0211239Y0273146D02*
X0197345Y0273146D01*
X0197345Y0272147D02*
X0211216Y0272147D01*
X0211479Y0271149D02*
X0197345Y0271149D01*
X0197345Y0270150D02*
X0212143Y0270150D01*
X0216857Y0270150D02*
X0251200Y0270150D01*
X0251200Y0269152D02*
X0197345Y0269152D01*
X0197345Y0268153D02*
X0251200Y0268153D01*
X0251200Y0267155D02*
X0197345Y0267155D01*
X0197345Y0266156D02*
X0251529Y0266156D01*
X0252527Y0265158D02*
X0197345Y0265158D01*
X0197345Y0264159D02*
X0253526Y0264159D01*
X0254524Y0263161D02*
X0197345Y0263161D01*
X0197345Y0262162D02*
X0301538Y0262162D01*
X0301476Y0263161D02*
X0302536Y0263161D01*
X0302474Y0264159D02*
X0302833Y0264159D01*
X0300539Y0261164D02*
X0197345Y0261164D01*
X0197345Y0260165D02*
X0281083Y0260165D01*
X0284917Y0260165D02*
X0299541Y0260165D01*
X0298542Y0259167D02*
X0285839Y0259167D01*
X0286252Y0258168D02*
X0297544Y0258168D01*
X0296545Y0257170D02*
X0291455Y0257170D01*
X0297923Y0253174D02*
X0284577Y0253174D01*
X0283597Y0254153D01*
X0282347Y0254153D01*
X0281140Y0254653D01*
X0280255Y0255538D01*
X0248709Y0255538D01*
X0241833Y0248661D01*
X0241833Y0246409D01*
X0305412Y0246564D01*
X0305716Y0247298D01*
X0306640Y0248222D01*
X0307847Y0248722D01*
X0309153Y0248722D01*
X0310360Y0248222D01*
X0311284Y0247298D01*
X0311582Y0246579D01*
X0312125Y0246580D01*
X0312216Y0246798D01*
X0313140Y0247722D01*
X0314347Y0248222D01*
X0315653Y0248222D01*
X0316860Y0247722D01*
X0317784Y0246798D01*
X0317869Y0246594D01*
X0328600Y0246620D01*
X0328600Y0251725D01*
X0329713Y0252838D01*
X0329713Y0252838D01*
X0332716Y0255840D01*
X0332716Y0256009D01*
X0332360Y0255653D01*
X0331153Y0255153D01*
X0329847Y0255153D01*
X0328640Y0255653D01*
X0327716Y0256577D01*
X0327216Y0257784D01*
X0327216Y0259091D01*
X0327716Y0260298D01*
X0328600Y0261182D01*
X0328600Y0263225D01*
X0329713Y0264338D01*
X0345494Y0280119D01*
X0345437Y0284122D01*
X0342953Y0281638D01*
X0336445Y0281638D01*
X0337284Y0280798D01*
X0337784Y0279591D01*
X0337784Y0278284D01*
X0337284Y0277077D01*
X0336360Y0276153D01*
X0335153Y0275653D01*
X0333847Y0275653D01*
X0332640Y0276153D01*
X0331755Y0277038D01*
X0321787Y0277038D01*
X0299036Y0254287D01*
X0297923Y0253174D01*
X0297925Y0253176D02*
X0330051Y0253176D01*
X0331050Y0254174D02*
X0298924Y0254174D01*
X0299922Y0255173D02*
X0329800Y0255173D01*
X0331200Y0255173D02*
X0332048Y0255173D01*
X0328122Y0256171D02*
X0300921Y0256171D01*
X0301919Y0257170D02*
X0327470Y0257170D01*
X0327216Y0258168D02*
X0302918Y0258168D01*
X0303916Y0259167D02*
X0327247Y0259167D01*
X0327661Y0260165D02*
X0304915Y0260165D01*
X0305913Y0261164D02*
X0328581Y0261164D01*
X0328600Y0262162D02*
X0306912Y0262162D01*
X0307910Y0263161D02*
X0328600Y0263161D01*
X0329535Y0264159D02*
X0308909Y0264159D01*
X0309907Y0265158D02*
X0330533Y0265158D01*
X0331532Y0266156D02*
X0310906Y0266156D01*
X0311904Y0267155D02*
X0332530Y0267155D01*
X0333529Y0268153D02*
X0312903Y0268153D01*
X0313901Y0269152D02*
X0334527Y0269152D01*
X0335526Y0270150D02*
X0314900Y0270150D01*
X0315898Y0271149D02*
X0336524Y0271149D01*
X0337523Y0272147D02*
X0316897Y0272147D01*
X0317895Y0273146D02*
X0338521Y0273146D01*
X0339520Y0274144D02*
X0318894Y0274144D01*
X0319892Y0275143D02*
X0340518Y0275143D01*
X0341517Y0276141D02*
X0336331Y0276141D01*
X0337310Y0277140D02*
X0342515Y0277140D01*
X0343514Y0278138D02*
X0337724Y0278138D01*
X0337784Y0279137D02*
X0344512Y0279137D01*
X0345494Y0280135D02*
X0337559Y0280135D01*
X0336948Y0281134D02*
X0345480Y0281134D01*
X0345465Y0282132D02*
X0343447Y0282132D01*
X0344446Y0283131D02*
X0345451Y0283131D01*
X0348500Y0284130D02*
X0349222Y0284130D01*
X0348500Y0285128D02*
X0358721Y0285128D01*
X0359719Y0286127D02*
X0348500Y0286127D01*
X0348723Y0287125D02*
X0360718Y0287125D01*
X0361716Y0288124D02*
X0349721Y0288124D01*
X0350720Y0289122D02*
X0362016Y0289122D01*
X0362219Y0290121D02*
X0351718Y0290121D01*
X0352717Y0291119D02*
X0362754Y0291119D01*
X0364072Y0292118D02*
X0353659Y0292118D01*
X0354000Y0293116D02*
X0395910Y0293116D01*
X0395910Y0292118D02*
X0366928Y0292118D01*
X0368246Y0291119D02*
X0395910Y0291119D01*
X0395910Y0290121D02*
X0368781Y0290121D01*
X0368984Y0289122D02*
X0395910Y0289122D01*
X0395910Y0288124D02*
X0368934Y0288124D01*
X0368521Y0287125D02*
X0395910Y0287125D01*
X0395910Y0286127D02*
X0367616Y0286127D01*
X0364660Y0285128D02*
X0395910Y0285128D01*
X0395910Y0284130D02*
X0363662Y0284130D01*
X0362663Y0283131D02*
X0395910Y0283131D01*
X0395910Y0282132D02*
X0361665Y0282132D01*
X0360666Y0281134D02*
X0395910Y0281134D01*
X0395910Y0280135D02*
X0351168Y0280135D01*
X0350169Y0279137D02*
X0395910Y0279137D01*
X0395910Y0278138D02*
X0349171Y0278138D01*
X0348500Y0277140D02*
X0395910Y0277140D01*
X0395910Y0276141D02*
X0348500Y0276141D01*
X0352222Y0275143D02*
X0395910Y0275143D01*
X0395910Y0274144D02*
X0353064Y0274144D01*
X0353478Y0273146D02*
X0395910Y0273146D01*
X0395910Y0272147D02*
X0353484Y0272147D01*
X0353237Y0271149D02*
X0395910Y0271149D01*
X0395910Y0270150D02*
X0352640Y0270150D01*
X0352100Y0269152D02*
X0395910Y0269152D01*
X0395910Y0268153D02*
X0351186Y0268153D01*
X0350187Y0267155D02*
X0395910Y0267155D01*
X0395910Y0266156D02*
X0349600Y0266156D01*
X0353707Y0265158D02*
X0395910Y0265158D01*
X0395910Y0264159D02*
X0354558Y0264159D01*
X0354972Y0263161D02*
X0395910Y0263161D01*
X0395910Y0262162D02*
X0354984Y0262162D01*
X0354744Y0261164D02*
X0395910Y0261164D01*
X0395910Y0260165D02*
X0354155Y0260165D01*
X0353600Y0259167D02*
X0395910Y0259167D01*
X0395910Y0258168D02*
X0353600Y0258168D01*
X0353600Y0257170D02*
X0395910Y0257170D01*
X0395910Y0256171D02*
X0353600Y0256171D01*
X0353600Y0255173D02*
X0395910Y0255173D01*
X0395910Y0254174D02*
X0353600Y0254174D01*
X0353600Y0253176D02*
X0395910Y0253176D01*
X0395910Y0252177D02*
X0371649Y0252177D01*
X0372648Y0251179D02*
X0395910Y0251179D01*
X0395910Y0250180D02*
X0373646Y0250180D01*
X0374152Y0249182D02*
X0395910Y0249182D01*
X0395910Y0248183D02*
X0374152Y0248183D01*
X0374152Y0247185D02*
X0395910Y0247185D01*
X0395910Y0246186D02*
X0374152Y0246186D01*
X0374139Y0245188D02*
X0395910Y0245188D01*
X0395910Y0244189D02*
X0373140Y0244189D01*
X0372142Y0243191D02*
X0395910Y0243191D01*
X0395910Y0242192D02*
X0371634Y0242192D01*
X0372633Y0241194D02*
X0395910Y0241194D01*
X0395910Y0240195D02*
X0373631Y0240195D01*
X0377711Y0239196D02*
X0395910Y0239196D01*
X0395910Y0238198D02*
X0378710Y0238198D01*
X0379708Y0237199D02*
X0395910Y0237199D01*
X0395910Y0236201D02*
X0380707Y0236201D01*
X0381705Y0235202D02*
X0395910Y0235202D01*
X0395910Y0234204D02*
X0382704Y0234204D01*
X0383702Y0233205D02*
X0395910Y0233205D01*
X0395910Y0232207D02*
X0384701Y0232207D01*
X0385699Y0231208D02*
X0395910Y0231208D01*
X0395910Y0230210D02*
X0386698Y0230210D01*
X0387100Y0229211D02*
X0395910Y0229211D01*
X0395910Y0228213D02*
X0387100Y0228213D01*
X0387100Y0227214D02*
X0395910Y0227214D01*
X0395910Y0226216D02*
X0387100Y0226216D01*
X0387100Y0225217D02*
X0395910Y0225217D01*
X0395910Y0224219D02*
X0387100Y0224219D01*
X0387100Y0223220D02*
X0395910Y0223220D01*
X0395910Y0222222D02*
X0387100Y0222222D01*
X0387100Y0221223D02*
X0395910Y0221223D01*
X0395910Y0220225D02*
X0387100Y0220225D01*
X0387100Y0219226D02*
X0395910Y0219226D01*
X0395910Y0218228D02*
X0387100Y0218228D01*
X0387100Y0217229D02*
X0395910Y0217229D01*
X0395910Y0216231D02*
X0387100Y0216231D01*
X0387100Y0215232D02*
X0395910Y0215232D01*
X0395910Y0214234D02*
X0387100Y0214234D01*
X0387100Y0213235D02*
X0395910Y0213235D01*
X0395910Y0212237D02*
X0387100Y0212237D01*
X0387100Y0211238D02*
X0395910Y0211238D01*
X0395910Y0210240D02*
X0387100Y0210240D01*
X0387100Y0209241D02*
X0395910Y0209241D01*
X0395910Y0208243D02*
X0387100Y0208243D01*
X0387100Y0207244D02*
X0395910Y0207244D01*
X0395910Y0206246D02*
X0387100Y0206246D01*
X0387100Y0205247D02*
X0395910Y0205247D01*
X0395910Y0204249D02*
X0387100Y0204249D01*
X0387100Y0203250D02*
X0395910Y0203250D01*
X0395910Y0202252D02*
X0387100Y0202252D01*
X0387100Y0201253D02*
X0395910Y0201253D01*
X0395910Y0200255D02*
X0387100Y0200255D01*
X0387100Y0199256D02*
X0395910Y0199256D01*
X0395910Y0198258D02*
X0387100Y0198258D01*
X0387100Y0197259D02*
X0395910Y0197259D01*
X0395910Y0196261D02*
X0387100Y0196261D01*
X0387100Y0195262D02*
X0395910Y0195262D01*
X0395910Y0194263D02*
X0387100Y0194263D01*
X0387100Y0193265D02*
X0395910Y0193265D01*
X0395910Y0192266D02*
X0387100Y0192266D01*
X0387100Y0191268D02*
X0395910Y0191268D01*
X0395910Y0190269D02*
X0387100Y0190269D01*
X0387100Y0189271D02*
X0395910Y0189271D01*
X0395910Y0188272D02*
X0387100Y0188272D01*
X0387100Y0187274D02*
X0395910Y0187274D01*
X0395910Y0186275D02*
X0387100Y0186275D01*
X0387100Y0185277D02*
X0395910Y0185277D01*
X0395910Y0184278D02*
X0387100Y0184278D01*
X0387100Y0183280D02*
X0395910Y0183280D01*
X0370759Y0202252D02*
X0323100Y0202252D01*
X0323100Y0203250D02*
X0369928Y0203250D01*
X0369516Y0204249D02*
X0323100Y0204249D01*
X0323100Y0205247D02*
X0369516Y0205247D01*
X0369770Y0206246D02*
X0323100Y0206246D01*
X0323100Y0207244D02*
X0370379Y0207244D01*
X0372156Y0233205D02*
X0377762Y0233205D01*
X0376764Y0234204D02*
X0373155Y0234204D01*
X0374152Y0235202D02*
X0375765Y0235202D01*
X0363858Y0250180D02*
X0363081Y0250180D01*
X0362082Y0251179D02*
X0364856Y0251179D01*
X0365855Y0252177D02*
X0361084Y0252177D01*
X0359252Y0252177D02*
X0358252Y0252177D01*
X0358252Y0251179D02*
X0359252Y0251179D01*
X0359252Y0250180D02*
X0358252Y0250180D01*
X0358252Y0249182D02*
X0359252Y0249182D01*
X0359252Y0248183D02*
X0358252Y0248183D01*
X0358252Y0247185D02*
X0353600Y0247185D01*
X0353600Y0248183D02*
X0353752Y0248183D01*
X0353752Y0249182D02*
X0353600Y0249182D01*
X0353600Y0250180D02*
X0354423Y0250180D01*
X0353600Y0251179D02*
X0355422Y0251179D01*
X0356420Y0252177D02*
X0353600Y0252177D01*
X0353600Y0246186D02*
X0353752Y0246186D01*
X0353600Y0245188D02*
X0353931Y0245188D01*
X0353600Y0244189D02*
X0354930Y0244189D01*
X0355928Y0243191D02*
X0353600Y0243191D01*
X0353600Y0242192D02*
X0355870Y0242192D01*
X0354871Y0241194D02*
X0353600Y0241194D01*
X0353600Y0240195D02*
X0353873Y0240195D01*
X0331400Y0238068D02*
X0331400Y0236308D01*
X0314484Y0219392D01*
X0314484Y0219631D01*
X0313954Y0220911D01*
X0312974Y0221891D01*
X0311693Y0222422D01*
X0310307Y0222422D01*
X0309026Y0221891D01*
X0308046Y0220911D01*
X0307600Y0219834D01*
X0307600Y0221308D01*
X0306370Y0222538D01*
X0288370Y0240538D01*
X0283827Y0240538D01*
X0282974Y0241391D01*
X0281693Y0241922D01*
X0280307Y0241922D01*
X0279026Y0241391D01*
X0278046Y0240411D01*
X0277516Y0239131D01*
X0277516Y0237745D01*
X0278046Y0236464D01*
X0278799Y0235711D01*
X0278026Y0235391D01*
X0277046Y0234411D01*
X0276516Y0233131D01*
X0276516Y0231745D01*
X0277046Y0230464D01*
X0277400Y0230110D01*
X0277400Y0176765D01*
X0276546Y0175911D01*
X0276016Y0174631D01*
X0276016Y0173245D01*
X0276546Y0171964D01*
X0277526Y0170984D01*
X0277929Y0170817D01*
X0269238Y0161701D01*
X0268815Y0161278D01*
X0268800Y0161241D01*
X0268772Y0161213D01*
X0268557Y0160655D01*
X0268384Y0160238D01*
X0266950Y0158804D01*
X0266128Y0156819D01*
X0266128Y0154671D01*
X0266950Y0152686D01*
X0268469Y0151167D01*
X0268522Y0151145D01*
X0262123Y0151145D01*
X0261128Y0150149D01*
X0261128Y0141341D01*
X0262123Y0140345D01*
X0270932Y0140345D01*
X0271928Y0141341D01*
X0271928Y0142739D01*
X0271950Y0142686D01*
X0273469Y0141167D01*
X0275453Y0140345D01*
X0277602Y0140345D01*
X0279586Y0141167D01*
X0281105Y0142686D01*
X0281755Y0144254D01*
X0281894Y0143825D01*
X0282251Y0143124D01*
X0282714Y0142487D01*
X0283270Y0141931D01*
X0283907Y0141468D01*
X0284608Y0141111D01*
X0285357Y0140868D01*
X0286043Y0140759D01*
X0286043Y0145260D01*
X0287012Y0145260D01*
X0287012Y0140759D01*
X0287698Y0140868D01*
X0288447Y0141111D01*
X0289148Y0141468D01*
X0289785Y0141931D01*
X0290341Y0142487D01*
X0290804Y0143124D01*
X0291161Y0143825D01*
X0291300Y0144254D01*
X0291950Y0142686D01*
X0293469Y0141167D01*
X0294000Y0140947D01*
X0294000Y0140473D01*
X0287464Y0133938D01*
X0225781Y0133938D01*
X0215630Y0144088D01*
X0215630Y0223695D01*
X0216189Y0223927D01*
X0217708Y0225446D01*
X0218130Y0226465D01*
X0218552Y0225446D01*
X0220071Y0223927D01*
X0222056Y0223105D01*
X0224204Y0223105D01*
X0226189Y0223927D01*
X0227708Y0225446D01*
X0228357Y0227013D01*
X0228496Y0226585D01*
X0228854Y0225884D01*
X0229316Y0225247D01*
X0229873Y0224691D01*
X0230509Y0224228D01*
X0231211Y0223871D01*
X0231959Y0223628D01*
X0232630Y0223521D01*
X0232630Y0228005D01*
X0233630Y0228005D01*
X0233630Y0223521D01*
X0234301Y0223628D01*
X0235049Y0223871D01*
X0235750Y0224228D01*
X0236387Y0224691D01*
X0236944Y0225247D01*
X0237406Y0225884D01*
X0237764Y0226585D01*
X0237833Y0226799D01*
X0237833Y0152984D01*
X0237805Y0152716D01*
X0237716Y0152626D01*
X0237716Y0151867D01*
X0237636Y0151111D01*
X0237716Y0151013D01*
X0237716Y0149544D01*
X0237543Y0149134D01*
X0237716Y0148708D01*
X0237716Y0148249D01*
X0238030Y0147934D01*
X0238400Y0147024D01*
X0238400Y0143265D01*
X0237546Y0142411D01*
X0237016Y0141131D01*
X0237016Y0139745D01*
X0237546Y0138464D01*
X0238526Y0137484D01*
X0239807Y0136953D01*
X0241193Y0136953D01*
X0242474Y0137484D01*
X0243454Y0138464D01*
X0243984Y0139745D01*
X0243984Y0141131D01*
X0243454Y0142411D01*
X0242600Y0143265D01*
X0242600Y0147009D01*
X0242773Y0147419D01*
X0242600Y0147845D01*
X0242600Y0148304D01*
X0242286Y0148619D01*
X0241916Y0149529D01*
X0241916Y0151647D01*
X0241944Y0151915D01*
X0242033Y0152004D01*
X0242033Y0152764D01*
X0242112Y0153520D01*
X0242033Y0153618D01*
X0242033Y0183274D01*
X0242807Y0182953D01*
X0244193Y0182953D01*
X0245474Y0183484D01*
X0246454Y0184464D01*
X0246984Y0185745D01*
X0246984Y0187131D01*
X0246454Y0188411D01*
X0245600Y0189265D01*
X0245600Y0240110D01*
X0246454Y0240964D01*
X0246984Y0242245D01*
X0246984Y0243631D01*
X0246454Y0244911D01*
X0245474Y0245891D01*
X0244193Y0246422D01*
X0242807Y0246422D01*
X0242033Y0246101D01*
X0242033Y0247536D01*
X0328400Y0247536D01*
X0328400Y0241068D01*
X0329630Y0239838D01*
X0331400Y0238068D01*
X0331270Y0238198D02*
X0290710Y0238198D01*
X0291708Y0237199D02*
X0331400Y0237199D01*
X0331293Y0236201D02*
X0292707Y0236201D01*
X0293705Y0235202D02*
X0330295Y0235202D01*
X0329296Y0234204D02*
X0294704Y0234204D01*
X0295702Y0233205D02*
X0328298Y0233205D01*
X0327299Y0232207D02*
X0296701Y0232207D01*
X0297699Y0231208D02*
X0326301Y0231208D01*
X0325302Y0230210D02*
X0298698Y0230210D01*
X0299696Y0229211D02*
X0324304Y0229211D01*
X0323305Y0228213D02*
X0300695Y0228213D01*
X0301693Y0227214D02*
X0322307Y0227214D01*
X0321308Y0226216D02*
X0302692Y0226216D01*
X0303690Y0225217D02*
X0320310Y0225217D01*
X0319311Y0224219D02*
X0304689Y0224219D01*
X0305687Y0223220D02*
X0318313Y0223220D01*
X0317314Y0222222D02*
X0312176Y0222222D01*
X0313642Y0221223D02*
X0316316Y0221223D01*
X0315317Y0220225D02*
X0314238Y0220225D01*
X0309824Y0222222D02*
X0306686Y0222222D01*
X0307600Y0221223D02*
X0308358Y0221223D01*
X0307762Y0220225D02*
X0307600Y0220225D01*
X0303400Y0219568D02*
X0303400Y0216546D01*
X0303026Y0216391D01*
X0302046Y0215411D01*
X0301516Y0214131D01*
X0301516Y0212745D01*
X0302046Y0211464D01*
X0303026Y0210484D01*
X0304307Y0209953D01*
X0305693Y0209953D01*
X0306974Y0210484D01*
X0307400Y0210910D01*
X0307400Y0189808D01*
X0281130Y0163538D01*
X0279900Y0162308D01*
X0279900Y0160915D01*
X0278469Y0160323D01*
X0276950Y0158804D01*
X0276528Y0157785D01*
X0276105Y0158804D01*
X0275702Y0159207D01*
X0293365Y0177732D01*
X0293974Y0177984D01*
X0294954Y0178964D01*
X0295484Y0180245D01*
X0295484Y0181631D01*
X0294954Y0182911D01*
X0293974Y0183891D01*
X0292693Y0184422D01*
X0291307Y0184422D01*
X0290026Y0183891D01*
X0289046Y0182911D01*
X0288728Y0182143D01*
X0282555Y0175668D01*
X0282454Y0175911D01*
X0281600Y0176765D01*
X0281600Y0229329D01*
X0281974Y0229484D01*
X0282954Y0230464D01*
X0283484Y0231745D01*
X0283484Y0233131D01*
X0282954Y0234411D01*
X0282201Y0235164D01*
X0282974Y0235484D01*
X0283827Y0236338D01*
X0286630Y0236338D01*
X0303400Y0219568D01*
X0303400Y0219226D02*
X0281600Y0219226D01*
X0281600Y0218228D02*
X0303400Y0218228D01*
X0303400Y0217229D02*
X0281600Y0217229D01*
X0281600Y0216231D02*
X0302866Y0216231D01*
X0301972Y0215232D02*
X0281600Y0215232D01*
X0281600Y0214234D02*
X0301558Y0214234D01*
X0301516Y0213235D02*
X0281600Y0213235D01*
X0281600Y0212237D02*
X0301726Y0212237D01*
X0302272Y0211238D02*
X0281600Y0211238D01*
X0281600Y0210240D02*
X0303616Y0210240D01*
X0306384Y0210240D02*
X0307400Y0210240D01*
X0307400Y0209241D02*
X0281600Y0209241D01*
X0281600Y0208243D02*
X0307400Y0208243D01*
X0307400Y0207244D02*
X0281600Y0207244D01*
X0281600Y0206246D02*
X0307400Y0206246D01*
X0307400Y0205247D02*
X0281600Y0205247D01*
X0281600Y0204249D02*
X0307400Y0204249D01*
X0307400Y0203250D02*
X0281600Y0203250D01*
X0281600Y0202252D02*
X0307400Y0202252D01*
X0307400Y0201253D02*
X0281600Y0201253D01*
X0281600Y0200255D02*
X0307400Y0200255D01*
X0307400Y0199256D02*
X0281600Y0199256D01*
X0281600Y0198258D02*
X0307400Y0198258D01*
X0307400Y0197259D02*
X0281600Y0197259D01*
X0281600Y0196261D02*
X0307400Y0196261D01*
X0307400Y0195262D02*
X0281600Y0195262D01*
X0281600Y0194263D02*
X0307400Y0194263D01*
X0307400Y0193265D02*
X0281600Y0193265D01*
X0281600Y0192266D02*
X0307400Y0192266D01*
X0307400Y0191268D02*
X0281600Y0191268D01*
X0281600Y0190269D02*
X0307400Y0190269D01*
X0306863Y0189271D02*
X0281600Y0189271D01*
X0281600Y0188272D02*
X0305865Y0188272D01*
X0304866Y0187274D02*
X0281600Y0187274D01*
X0281600Y0186275D02*
X0303868Y0186275D01*
X0302869Y0185277D02*
X0281600Y0185277D01*
X0281600Y0184278D02*
X0290960Y0184278D01*
X0289415Y0183280D02*
X0281600Y0183280D01*
X0281600Y0182281D02*
X0288785Y0182281D01*
X0287908Y0181283D02*
X0281600Y0181283D01*
X0281600Y0180284D02*
X0286956Y0180284D01*
X0286004Y0179286D02*
X0281600Y0179286D01*
X0281600Y0178287D02*
X0285052Y0178287D01*
X0284100Y0177289D02*
X0281600Y0177289D01*
X0282075Y0176290D02*
X0283148Y0176290D01*
X0277400Y0177289D02*
X0242033Y0177289D01*
X0242033Y0178287D02*
X0277400Y0178287D01*
X0277400Y0179286D02*
X0242033Y0179286D01*
X0242033Y0180284D02*
X0277400Y0180284D01*
X0277400Y0181283D02*
X0242033Y0181283D01*
X0242033Y0182281D02*
X0277400Y0182281D01*
X0277400Y0183280D02*
X0244981Y0183280D01*
X0246268Y0184278D02*
X0277400Y0184278D01*
X0277400Y0185277D02*
X0246791Y0185277D01*
X0246984Y0186275D02*
X0277400Y0186275D01*
X0277400Y0187274D02*
X0246925Y0187274D01*
X0246511Y0188272D02*
X0277400Y0188272D01*
X0277400Y0189271D02*
X0245600Y0189271D01*
X0245600Y0190269D02*
X0277400Y0190269D01*
X0277400Y0191268D02*
X0245600Y0191268D01*
X0245600Y0192266D02*
X0277400Y0192266D01*
X0277400Y0193265D02*
X0245600Y0193265D01*
X0245600Y0194263D02*
X0277400Y0194263D01*
X0277400Y0195262D02*
X0245600Y0195262D01*
X0245600Y0196261D02*
X0277400Y0196261D01*
X0277400Y0197259D02*
X0245600Y0197259D01*
X0245600Y0198258D02*
X0277400Y0198258D01*
X0277400Y0199256D02*
X0245600Y0199256D01*
X0245600Y0200255D02*
X0277400Y0200255D01*
X0277400Y0201253D02*
X0245600Y0201253D01*
X0245600Y0202252D02*
X0277400Y0202252D01*
X0277400Y0203250D02*
X0245600Y0203250D01*
X0245600Y0204249D02*
X0277400Y0204249D01*
X0277400Y0205247D02*
X0245600Y0205247D01*
X0245600Y0206246D02*
X0277400Y0206246D01*
X0277400Y0207244D02*
X0245600Y0207244D01*
X0245600Y0208243D02*
X0277400Y0208243D01*
X0277400Y0209241D02*
X0245600Y0209241D01*
X0245600Y0210240D02*
X0277400Y0210240D01*
X0277400Y0211238D02*
X0245600Y0211238D01*
X0245600Y0212237D02*
X0277400Y0212237D01*
X0277400Y0213235D02*
X0245600Y0213235D01*
X0245600Y0214234D02*
X0277400Y0214234D01*
X0277400Y0215232D02*
X0245600Y0215232D01*
X0245600Y0216231D02*
X0277400Y0216231D01*
X0277400Y0217229D02*
X0245600Y0217229D01*
X0245600Y0218228D02*
X0277400Y0218228D01*
X0277400Y0219226D02*
X0245600Y0219226D01*
X0245600Y0220225D02*
X0277400Y0220225D01*
X0277400Y0221223D02*
X0245600Y0221223D01*
X0245600Y0222222D02*
X0277400Y0222222D01*
X0277400Y0223220D02*
X0245600Y0223220D01*
X0245600Y0224219D02*
X0277400Y0224219D01*
X0277400Y0225217D02*
X0245600Y0225217D01*
X0245600Y0226216D02*
X0277400Y0226216D01*
X0277400Y0227214D02*
X0245600Y0227214D01*
X0245600Y0228213D02*
X0277400Y0228213D01*
X0277400Y0229211D02*
X0245600Y0229211D01*
X0245600Y0230210D02*
X0277300Y0230210D01*
X0276738Y0231208D02*
X0245600Y0231208D01*
X0245600Y0232207D02*
X0276516Y0232207D01*
X0276547Y0233205D02*
X0245600Y0233205D01*
X0245600Y0234204D02*
X0276960Y0234204D01*
X0277837Y0235202D02*
X0245600Y0235202D01*
X0245600Y0236201D02*
X0278309Y0236201D01*
X0277742Y0237199D02*
X0245600Y0237199D01*
X0245600Y0238198D02*
X0277516Y0238198D01*
X0277543Y0239196D02*
X0245600Y0239196D01*
X0245685Y0240195D02*
X0277957Y0240195D01*
X0278828Y0241194D02*
X0246549Y0241194D01*
X0246962Y0242192D02*
X0328400Y0242192D01*
X0328400Y0241194D02*
X0283172Y0241194D01*
X0283691Y0236201D02*
X0286767Y0236201D01*
X0287765Y0235202D02*
X0282294Y0235202D01*
X0283040Y0234204D02*
X0288764Y0234204D01*
X0289762Y0233205D02*
X0283453Y0233205D01*
X0283484Y0232207D02*
X0290761Y0232207D01*
X0291759Y0231208D02*
X0283262Y0231208D01*
X0282700Y0230210D02*
X0292758Y0230210D01*
X0293756Y0229211D02*
X0281600Y0229211D01*
X0281600Y0228213D02*
X0294755Y0228213D01*
X0295753Y0227214D02*
X0281600Y0227214D01*
X0281600Y0226216D02*
X0296752Y0226216D01*
X0297750Y0225217D02*
X0281600Y0225217D01*
X0281600Y0224219D02*
X0298749Y0224219D01*
X0299747Y0223220D02*
X0281600Y0223220D01*
X0281600Y0222222D02*
X0300746Y0222222D01*
X0301745Y0221223D02*
X0281600Y0221223D01*
X0281600Y0220225D02*
X0302743Y0220225D01*
X0289711Y0239196D02*
X0330271Y0239196D01*
X0329273Y0240195D02*
X0288712Y0240195D01*
X0305669Y0247185D02*
X0241833Y0247185D01*
X0242033Y0247185D02*
X0328400Y0247185D01*
X0328600Y0247185D02*
X0317398Y0247185D01*
X0315747Y0248183D02*
X0328600Y0248183D01*
X0328600Y0249182D02*
X0242353Y0249182D01*
X0241833Y0248183D02*
X0306601Y0248183D01*
X0310399Y0248183D02*
X0314253Y0248183D01*
X0312602Y0247185D02*
X0311331Y0247185D01*
X0328400Y0246186D02*
X0244762Y0246186D01*
X0246178Y0245188D02*
X0328400Y0245188D01*
X0328400Y0244189D02*
X0246753Y0244189D01*
X0246984Y0243191D02*
X0328400Y0243191D01*
X0328600Y0250180D02*
X0243352Y0250180D01*
X0244350Y0251179D02*
X0328600Y0251179D01*
X0329052Y0252177D02*
X0245349Y0252177D01*
X0246347Y0253176D02*
X0284575Y0253176D01*
X0282297Y0254174D02*
X0247346Y0254174D01*
X0248344Y0255173D02*
X0280620Y0255173D01*
X0264140Y0268153D02*
X0256037Y0268153D01*
X0255800Y0269152D02*
X0263478Y0269152D01*
X0263216Y0270150D02*
X0255800Y0270150D01*
X0255800Y0271149D02*
X0263240Y0271149D01*
X0263653Y0272147D02*
X0255800Y0272147D01*
X0255800Y0273146D02*
X0264564Y0273146D01*
X0268436Y0273146D02*
X0291216Y0273146D01*
X0291238Y0274144D02*
X0255800Y0274144D01*
X0256458Y0275143D02*
X0291652Y0275143D01*
X0292559Y0276141D02*
X0258848Y0276141D01*
X0259517Y0277140D02*
X0297450Y0277140D01*
X0298448Y0278138D02*
X0283345Y0278138D01*
X0283784Y0278577D02*
X0284284Y0279784D01*
X0284284Y0280594D01*
X0285347Y0280153D01*
X0286653Y0280153D01*
X0287860Y0280653D01*
X0288784Y0281577D01*
X0289284Y0282784D01*
X0289284Y0283038D01*
X0296755Y0283038D01*
X0297640Y0282153D01*
X0298847Y0281653D01*
X0300153Y0281653D01*
X0301360Y0282153D01*
X0302284Y0283077D01*
X0302784Y0284284D01*
X0302784Y0285591D01*
X0302284Y0286798D01*
X0301360Y0287722D01*
X0300153Y0288222D01*
X0298847Y0288222D01*
X0297640Y0287722D01*
X0296755Y0286838D01*
X0288734Y0286838D01*
X0288197Y0286972D01*
X0287974Y0286838D01*
X0287713Y0286838D01*
X0287322Y0286447D01*
X0287320Y0286446D01*
X0286653Y0286722D01*
X0285347Y0286722D01*
X0284140Y0286222D01*
X0283300Y0285382D01*
X0283300Y0291985D01*
X0289800Y0298485D01*
X0289800Y0310093D01*
X0290284Y0310577D01*
X0290784Y0311784D01*
X0290784Y0313091D01*
X0290284Y0314298D01*
X0289360Y0315222D01*
X0288153Y0315722D01*
X0286847Y0315722D01*
X0285640Y0315222D01*
X0284716Y0314298D01*
X0284216Y0313091D01*
X0284216Y0311784D01*
X0284716Y0310577D01*
X0285200Y0310093D01*
X0285200Y0300390D01*
X0278700Y0293890D01*
X0278700Y0282782D01*
X0278216Y0282298D01*
X0277716Y0281091D01*
X0277716Y0279784D01*
X0278216Y0278577D01*
X0279140Y0277653D01*
X0280347Y0277153D01*
X0281653Y0277153D01*
X0282860Y0277653D01*
X0283784Y0278577D01*
X0284016Y0279137D02*
X0299447Y0279137D01*
X0300445Y0280135D02*
X0284284Y0280135D01*
X0288341Y0281134D02*
X0301444Y0281134D01*
X0301310Y0282132D02*
X0302442Y0282132D01*
X0302306Y0283131D02*
X0303441Y0283131D01*
X0302720Y0284130D02*
X0304439Y0284130D01*
X0302784Y0285128D02*
X0324438Y0285128D01*
X0325436Y0286127D02*
X0302562Y0286127D01*
X0301957Y0287125D02*
X0341935Y0287125D01*
X0342933Y0288124D02*
X0300391Y0288124D01*
X0298609Y0288124D02*
X0283300Y0288124D01*
X0283300Y0289122D02*
X0343932Y0289122D01*
X0344930Y0290121D02*
X0283300Y0290121D01*
X0283300Y0291119D02*
X0345338Y0291119D01*
X0345324Y0292118D02*
X0283433Y0292118D01*
X0284431Y0293116D02*
X0345310Y0293116D01*
X0345295Y0294115D02*
X0285430Y0294115D01*
X0286428Y0295113D02*
X0345281Y0295113D01*
X0345267Y0296112D02*
X0287427Y0296112D01*
X0288425Y0297110D02*
X0345253Y0297110D01*
X0345239Y0298109D02*
X0289424Y0298109D01*
X0289800Y0299107D02*
X0345225Y0299107D01*
X0345210Y0300106D02*
X0289800Y0300106D01*
X0289800Y0301104D02*
X0345196Y0301104D01*
X0345182Y0302103D02*
X0289800Y0302103D01*
X0289800Y0303101D02*
X0345168Y0303101D01*
X0345154Y0304100D02*
X0289800Y0304100D01*
X0289800Y0305098D02*
X0345140Y0305098D01*
X0345125Y0306097D02*
X0289800Y0306097D01*
X0289800Y0307095D02*
X0345111Y0307095D01*
X0345097Y0308094D02*
X0289800Y0308094D01*
X0289800Y0309092D02*
X0345083Y0309092D01*
X0345069Y0310091D02*
X0289800Y0310091D01*
X0290496Y0311089D02*
X0345055Y0311089D01*
X0345040Y0312088D02*
X0290784Y0312088D01*
X0290784Y0313086D02*
X0345026Y0313086D01*
X0345012Y0314085D02*
X0290373Y0314085D01*
X0289499Y0315083D02*
X0344998Y0315083D01*
X0344984Y0316082D02*
X0140235Y0316082D01*
X0140239Y0317080D02*
X0344970Y0317080D01*
X0344955Y0318079D02*
X0140243Y0318079D01*
X0140247Y0319077D02*
X0344941Y0319077D01*
X0344927Y0320076D02*
X0140251Y0320076D01*
X0140254Y0321074D02*
X0344913Y0321074D01*
X0344899Y0322073D02*
X0140258Y0322073D01*
X0140262Y0323071D02*
X0344885Y0323071D01*
X0344870Y0324070D02*
X0140266Y0324070D01*
X0140270Y0325068D02*
X0344856Y0325068D01*
X0344842Y0326067D02*
X0140273Y0326067D01*
X0140277Y0327065D02*
X0344828Y0327065D01*
X0344814Y0328064D02*
X0140281Y0328064D01*
X0140285Y0329063D02*
X0344800Y0329063D01*
X0344785Y0330061D02*
X0140289Y0330061D01*
X0140292Y0331060D02*
X0344771Y0331060D01*
X0344757Y0332058D02*
X0140296Y0332058D01*
X0140300Y0333057D02*
X0344743Y0333057D01*
X0344729Y0334055D02*
X0140304Y0334055D01*
X0140308Y0335054D02*
X0344715Y0335054D01*
X0344701Y0336052D02*
X0326124Y0336052D01*
X0326115Y0336044D02*
X0328400Y0338329D01*
X0328400Y0341559D01*
X0326115Y0343844D01*
X0322885Y0343844D01*
X0320600Y0341559D01*
X0320600Y0338329D01*
X0322885Y0336044D01*
X0326115Y0336044D01*
X0327122Y0337051D02*
X0344686Y0337051D01*
X0344672Y0338049D02*
X0328121Y0338049D01*
X0328400Y0339048D02*
X0344658Y0339048D01*
X0344644Y0340046D02*
X0328400Y0340046D01*
X0328400Y0341045D02*
X0344630Y0341045D01*
X0344616Y0342043D02*
X0327916Y0342043D01*
X0326918Y0343042D02*
X0344601Y0343042D01*
X0344587Y0344040D02*
X0140342Y0344040D01*
X0140338Y0343042D02*
X0147082Y0343042D01*
X0147885Y0343844D02*
X0145600Y0341559D01*
X0145600Y0338329D01*
X0147885Y0336044D01*
X0151115Y0336044D01*
X0153400Y0338329D01*
X0153400Y0341559D01*
X0151115Y0343844D01*
X0147885Y0343844D01*
X0146084Y0342043D02*
X0140334Y0342043D01*
X0140331Y0341045D02*
X0145600Y0341045D01*
X0145600Y0340046D02*
X0140327Y0340046D01*
X0140323Y0339048D02*
X0145600Y0339048D01*
X0145879Y0338049D02*
X0140319Y0338049D01*
X0140315Y0337051D02*
X0146878Y0337051D01*
X0147876Y0336052D02*
X0140312Y0336052D01*
X0137287Y0336052D02*
X0098200Y0336052D01*
X0098200Y0335054D02*
X0137283Y0335054D01*
X0137279Y0334055D02*
X0098200Y0334055D01*
X0098200Y0333057D02*
X0137276Y0333057D01*
X0137272Y0332058D02*
X0098200Y0332058D01*
X0098200Y0331060D02*
X0137269Y0331060D01*
X0137265Y0330061D02*
X0098200Y0330061D01*
X0098200Y0329063D02*
X0137261Y0329063D01*
X0137258Y0328064D02*
X0098200Y0328064D01*
X0098200Y0327065D02*
X0137254Y0327065D01*
X0137251Y0326067D02*
X0098200Y0326067D01*
X0098980Y0325068D02*
X0137247Y0325068D01*
X0137244Y0324070D02*
X0099979Y0324070D01*
X0100977Y0323071D02*
X0137240Y0323071D01*
X0137236Y0322073D02*
X0101976Y0322073D01*
X0102974Y0321074D02*
X0137233Y0321074D01*
X0137229Y0320076D02*
X0103973Y0320076D01*
X0104972Y0319077D02*
X0137226Y0319077D01*
X0137222Y0318079D02*
X0105970Y0318079D01*
X0106969Y0317080D02*
X0137218Y0317080D01*
X0137215Y0316082D02*
X0131967Y0316082D01*
X0132966Y0315083D02*
X0137211Y0315083D01*
X0137208Y0314085D02*
X0133964Y0314085D01*
X0134963Y0313086D02*
X0137204Y0313086D01*
X0137200Y0312088D02*
X0135961Y0312088D01*
X0136960Y0311089D02*
X0137197Y0311089D01*
X0140216Y0311089D02*
X0284504Y0311089D01*
X0284216Y0312088D02*
X0140220Y0312088D01*
X0140224Y0313086D02*
X0284216Y0313086D01*
X0284627Y0314085D02*
X0140228Y0314085D01*
X0140232Y0315083D02*
X0285501Y0315083D01*
X0285200Y0310091D02*
X0140212Y0310091D01*
X0140209Y0309092D02*
X0285200Y0309092D01*
X0285200Y0308094D02*
X0270463Y0308094D01*
X0270153Y0308222D02*
X0268847Y0308222D01*
X0267640Y0307722D01*
X0267155Y0307238D01*
X0229345Y0307238D01*
X0228860Y0307722D01*
X0227653Y0308222D01*
X0226347Y0308222D01*
X0225140Y0307722D01*
X0224655Y0307238D01*
X0199047Y0307238D01*
X0198547Y0306738D01*
X0172309Y0306738D01*
X0172284Y0306798D01*
X0171360Y0307722D01*
X0170153Y0308222D01*
X0168847Y0308222D01*
X0167640Y0307722D01*
X0166716Y0306798D01*
X0166216Y0305591D01*
X0166216Y0304284D01*
X0166716Y0303077D01*
X0167640Y0302153D01*
X0168847Y0301653D01*
X0170153Y0301653D01*
X0171322Y0302138D01*
X0200453Y0302138D01*
X0200953Y0302638D01*
X0224655Y0302638D01*
X0225140Y0302153D01*
X0226347Y0301653D01*
X0227653Y0301653D01*
X0228860Y0302153D01*
X0229345Y0302638D01*
X0267155Y0302638D01*
X0267640Y0302153D01*
X0268847Y0301653D01*
X0270153Y0301653D01*
X0271360Y0302153D01*
X0272284Y0303077D01*
X0272784Y0304284D01*
X0272784Y0305591D01*
X0272284Y0306798D01*
X0271360Y0307722D01*
X0270153Y0308222D01*
X0268537Y0308094D02*
X0227963Y0308094D01*
X0226037Y0308094D02*
X0170463Y0308094D01*
X0171987Y0307095D02*
X0198905Y0307095D01*
X0192978Y0301104D02*
X0235522Y0301104D01*
X0234636Y0300106D02*
X0193864Y0300106D01*
X0193784Y0300298D02*
X0192860Y0301222D01*
X0191653Y0301722D01*
X0190347Y0301722D01*
X0189140Y0301222D01*
X0188216Y0300298D01*
X0187716Y0299091D01*
X0187716Y0297784D01*
X0188216Y0296577D01*
X0189140Y0295653D01*
X0190347Y0295153D01*
X0191032Y0295153D01*
X0194047Y0292138D01*
X0209655Y0292138D01*
X0210140Y0291653D01*
X0211347Y0291153D01*
X0212653Y0291153D01*
X0213860Y0291653D01*
X0214784Y0292577D01*
X0215284Y0293784D01*
X0215284Y0295091D01*
X0214784Y0296298D01*
X0213860Y0297222D01*
X0212653Y0297722D01*
X0211347Y0297722D01*
X0210140Y0297222D01*
X0209655Y0296738D01*
X0195953Y0296738D01*
X0194284Y0298406D01*
X0194284Y0299091D01*
X0193784Y0300298D01*
X0194278Y0299107D02*
X0234222Y0299107D01*
X0234216Y0298109D02*
X0194582Y0298109D01*
X0195580Y0297110D02*
X0210028Y0297110D01*
X0213972Y0297110D02*
X0234495Y0297110D01*
X0235181Y0296112D02*
X0214861Y0296112D01*
X0215275Y0295113D02*
X0237572Y0295113D01*
X0238570Y0294115D02*
X0215284Y0294115D01*
X0215007Y0293116D02*
X0239569Y0293116D01*
X0240567Y0292118D02*
X0214325Y0292118D01*
X0209675Y0292118D02*
X0140144Y0292118D01*
X0140148Y0293116D02*
X0147177Y0293116D01*
X0146493Y0294115D02*
X0140151Y0294115D01*
X0140155Y0295113D02*
X0146216Y0295113D01*
X0145998Y0296112D02*
X0140159Y0296112D01*
X0140163Y0297110D02*
X0144999Y0297110D01*
X0144001Y0298109D02*
X0140167Y0298109D01*
X0140171Y0299107D02*
X0143002Y0299107D01*
X0142004Y0300106D02*
X0140174Y0300106D01*
X0140178Y0301104D02*
X0141005Y0301104D01*
X0137161Y0301104D02*
X0012967Y0301104D01*
X0013063Y0300106D02*
X0137157Y0300106D01*
X0137154Y0299107D02*
X0013063Y0299107D01*
X0013063Y0298109D02*
X0137150Y0298109D01*
X0137147Y0297110D02*
X0014348Y0297110D01*
X0014698Y0296112D02*
X0137143Y0296112D01*
X0137139Y0295113D02*
X0014698Y0295113D01*
X0014074Y0294115D02*
X0137136Y0294115D01*
X0137132Y0293116D02*
X0014698Y0293116D01*
X0014698Y0292118D02*
X0137129Y0292118D01*
X0137125Y0291119D02*
X0013983Y0291119D01*
X0013063Y0290121D02*
X0137122Y0290121D01*
X0137118Y0289122D02*
X0012368Y0289122D01*
X0013063Y0288124D02*
X0137114Y0288124D01*
X0137111Y0287125D02*
X0013063Y0287125D01*
X0013063Y0286127D02*
X0137107Y0286127D01*
X0137104Y0285128D02*
X0013063Y0285128D01*
X0013063Y0284130D02*
X0137100Y0284130D01*
X0137096Y0283131D02*
X0013063Y0283131D01*
X0012673Y0282132D02*
X0137093Y0282132D01*
X0140106Y0282132D02*
X0220986Y0282132D01*
X0220716Y0283131D02*
X0140110Y0283131D01*
X0140113Y0284130D02*
X0220732Y0284130D01*
X0221145Y0285128D02*
X0140117Y0285128D01*
X0140121Y0286127D02*
X0222044Y0286127D01*
X0225956Y0286127D02*
X0246558Y0286127D01*
X0245560Y0287125D02*
X0140125Y0287125D01*
X0140129Y0288124D02*
X0244561Y0288124D01*
X0243563Y0289122D02*
X0140132Y0289122D01*
X0140136Y0290121D02*
X0242564Y0290121D01*
X0241566Y0291119D02*
X0140140Y0291119D01*
X0149500Y0295438D02*
X0131000Y0313938D01*
X0107000Y0313938D01*
X0096000Y0324938D01*
X0096000Y0339438D01*
X0082500Y0352938D01*
X0082500Y0372438D01*
X0080009Y0370001D02*
X0071106Y0370001D01*
X0071105Y0369999D02*
X0071633Y0371275D01*
X0071633Y0372656D01*
X0071105Y0373932D01*
X0070128Y0374908D01*
X0068852Y0375437D01*
X0067471Y0375437D01*
X0066195Y0374908D01*
X0065218Y0373932D01*
X0064690Y0372656D01*
X0064690Y0371275D01*
X0065218Y0369999D01*
X0066195Y0369022D01*
X0067471Y0368494D01*
X0068852Y0368494D01*
X0070128Y0369022D01*
X0071105Y0369999D01*
X0071519Y0371000D02*
X0079324Y0371000D01*
X0079016Y0371998D02*
X0071633Y0371998D01*
X0071492Y0372997D02*
X0079016Y0372997D01*
X0079374Y0373996D02*
X0071041Y0373996D01*
X0069921Y0374994D02*
X0080129Y0374994D01*
X0084871Y0374994D02*
X0101931Y0374994D01*
X0101970Y0374748D02*
X0102242Y0373910D01*
X0102642Y0373125D01*
X0103160Y0372412D01*
X0103784Y0371788D01*
X0104497Y0371270D01*
X0105282Y0370870D01*
X0106120Y0370598D01*
X0106991Y0370460D01*
X0109724Y0370460D01*
X0109724Y0375772D01*
X0101832Y0375772D01*
X0101832Y0375619D01*
X0101970Y0374748D01*
X0102214Y0373996D02*
X0085626Y0373996D01*
X0085984Y0372997D02*
X0102735Y0372997D01*
X0103573Y0371998D02*
X0085984Y0371998D01*
X0085676Y0371000D02*
X0088897Y0371000D01*
X0088965Y0371034D02*
X0088179Y0370634D01*
X0087466Y0370116D01*
X0086843Y0369493D01*
X0086325Y0368779D01*
X0085924Y0367994D01*
X0085652Y0367156D01*
X0085514Y0366285D01*
X0085514Y0363552D01*
X0090827Y0363552D01*
X0090827Y0371444D01*
X0090673Y0371444D01*
X0089803Y0371307D01*
X0088965Y0371034D01*
X0090827Y0371000D02*
X0091402Y0371000D01*
X0091402Y0371444D02*
X0091402Y0363552D01*
X0096714Y0363552D01*
X0096714Y0366285D01*
X0096576Y0367156D01*
X0096304Y0367994D01*
X0095904Y0368779D01*
X0095386Y0369493D01*
X0094762Y0370116D01*
X0094049Y0370634D01*
X0093264Y0371034D01*
X0092426Y0371307D01*
X0091555Y0371444D01*
X0091402Y0371444D01*
X0091402Y0370001D02*
X0090827Y0370001D01*
X0090827Y0369003D02*
X0091402Y0369003D01*
X0091402Y0368004D02*
X0090827Y0368004D01*
X0090827Y0367006D02*
X0091402Y0367006D01*
X0091402Y0366007D02*
X0090827Y0366007D01*
X0090827Y0365009D02*
X0091402Y0365009D01*
X0091402Y0364010D02*
X0090827Y0364010D01*
X0090827Y0363552D02*
X0091402Y0363552D01*
X0091402Y0362977D01*
X0096714Y0362977D01*
X0096714Y0360244D01*
X0096576Y0359373D01*
X0096304Y0358535D01*
X0095904Y0357749D01*
X0095386Y0357036D01*
X0094762Y0356413D01*
X0094049Y0355895D01*
X0093264Y0355495D01*
X0092426Y0355222D01*
X0091555Y0355084D01*
X0091402Y0355084D01*
X0091402Y0362977D01*
X0090827Y0362977D01*
X0090827Y0355084D01*
X0090673Y0355084D01*
X0089803Y0355222D01*
X0088965Y0355495D01*
X0088179Y0355895D01*
X0087466Y0356413D01*
X0086843Y0357036D01*
X0086325Y0357749D01*
X0085924Y0358535D01*
X0085652Y0359373D01*
X0085514Y0360244D01*
X0085514Y0362977D01*
X0090827Y0362977D01*
X0090827Y0363552D01*
X0090827Y0363012D02*
X0084700Y0363012D01*
X0084700Y0364010D02*
X0085514Y0364010D01*
X0085514Y0365009D02*
X0084700Y0365009D01*
X0084700Y0366007D02*
X0085514Y0366007D01*
X0085628Y0367006D02*
X0084700Y0367006D01*
X0084700Y0368004D02*
X0085930Y0368004D01*
X0086487Y0369003D02*
X0084700Y0369003D01*
X0084991Y0370001D02*
X0087352Y0370001D01*
X0093331Y0371000D02*
X0105027Y0371000D01*
X0109724Y0371000D02*
X0110299Y0371000D01*
X0110299Y0370460D02*
X0113033Y0370460D01*
X0113903Y0370598D01*
X0114741Y0370870D01*
X0115527Y0371270D01*
X0116240Y0371788D01*
X0116863Y0372412D01*
X0117381Y0373125D01*
X0117782Y0373910D01*
X0118054Y0374748D01*
X0118192Y0375619D01*
X0118192Y0375772D01*
X0110299Y0375772D01*
X0110299Y0370460D01*
X0110299Y0371998D02*
X0109724Y0371998D01*
X0109724Y0372997D02*
X0110299Y0372997D01*
X0110299Y0373996D02*
X0109724Y0373996D01*
X0109724Y0374994D02*
X0110299Y0374994D01*
X0110299Y0375772D02*
X0109724Y0375772D01*
X0109724Y0376347D01*
X0101832Y0376347D01*
X0101832Y0376500D01*
X0101970Y0377371D01*
X0102242Y0378209D01*
X0102642Y0378995D01*
X0103160Y0379708D01*
X0103784Y0380331D01*
X0104497Y0380849D01*
X0105282Y0381249D01*
X0106120Y0381522D01*
X0106991Y0381660D01*
X0109724Y0381660D01*
X0109724Y0376347D01*
X0110299Y0376347D01*
X0110299Y0381660D01*
X0113033Y0381660D01*
X0113903Y0381522D01*
X0114741Y0381249D01*
X0115527Y0380849D01*
X0116240Y0380331D01*
X0116863Y0379708D01*
X0117381Y0378995D01*
X0117782Y0378209D01*
X0118054Y0377371D01*
X0118192Y0376500D01*
X0118192Y0376347D01*
X0110299Y0376347D01*
X0110299Y0375772D01*
X0110299Y0375993D02*
X0137430Y0375993D01*
X0137434Y0376991D02*
X0118114Y0376991D01*
X0117853Y0377990D02*
X0137437Y0377990D01*
X0137441Y0378988D02*
X0117385Y0378988D01*
X0116584Y0379987D02*
X0137444Y0379987D01*
X0137448Y0380985D02*
X0115260Y0380985D01*
X0110299Y0380985D02*
X0109724Y0380985D01*
X0109724Y0379987D02*
X0110299Y0379987D01*
X0110299Y0378988D02*
X0109724Y0378988D01*
X0109724Y0377990D02*
X0110299Y0377990D01*
X0110299Y0376991D02*
X0109724Y0376991D01*
X0109724Y0375993D02*
X0038327Y0375993D01*
X0038213Y0374994D02*
X0049079Y0374994D01*
X0048872Y0374908D02*
X0047895Y0373932D01*
X0047367Y0372656D01*
X0047367Y0371275D01*
X0047895Y0369999D01*
X0048872Y0369022D01*
X0050148Y0368494D01*
X0051529Y0368494D01*
X0052805Y0369022D01*
X0053782Y0369999D01*
X0054310Y0371275D01*
X0054310Y0372656D01*
X0053782Y0373932D01*
X0052805Y0374908D01*
X0051529Y0375437D01*
X0050148Y0375437D01*
X0048872Y0374908D01*
X0047959Y0373996D02*
X0038069Y0373996D01*
X0037926Y0372997D02*
X0047508Y0372997D01*
X0047367Y0371998D02*
X0037782Y0371998D01*
X0037639Y0371000D02*
X0047481Y0371000D01*
X0047894Y0370001D02*
X0037213Y0370001D01*
X0036757Y0369003D02*
X0048918Y0369003D01*
X0052759Y0369003D02*
X0066241Y0369003D01*
X0065217Y0370001D02*
X0053783Y0370001D01*
X0054196Y0371000D02*
X0064804Y0371000D01*
X0064690Y0371998D02*
X0054310Y0371998D01*
X0054169Y0372997D02*
X0064831Y0372997D01*
X0065282Y0373996D02*
X0053718Y0373996D01*
X0052598Y0374994D02*
X0066402Y0374994D01*
X0070082Y0369003D02*
X0080300Y0369003D01*
X0080300Y0368004D02*
X0036301Y0368004D01*
X0035845Y0367006D02*
X0080300Y0367006D01*
X0080300Y0366007D02*
X0035262Y0366007D01*
X0034396Y0365009D02*
X0080300Y0365009D01*
X0080300Y0364010D02*
X0033531Y0364010D01*
X0032666Y0363012D02*
X0080300Y0363012D01*
X0080300Y0362013D02*
X0031457Y0362013D01*
X0029903Y0361015D02*
X0080300Y0361015D01*
X0080300Y0360016D02*
X0028349Y0360016D01*
X0025370Y0359018D02*
X0080300Y0359018D01*
X0080300Y0358019D02*
X0006397Y0358019D01*
X0006397Y0357021D02*
X0080300Y0357021D01*
X0080300Y0356022D02*
X0006397Y0356022D01*
X0006397Y0355024D02*
X0080300Y0355024D01*
X0080300Y0354025D02*
X0006397Y0354025D01*
X0006397Y0353027D02*
X0080300Y0353027D01*
X0080300Y0352028D02*
X0006397Y0352028D01*
X0006397Y0351030D02*
X0081297Y0351030D01*
X0082295Y0350031D02*
X0006397Y0350031D01*
X0006397Y0349033D02*
X0083294Y0349033D01*
X0084292Y0348034D02*
X0006397Y0348034D01*
X0006397Y0347036D02*
X0085291Y0347036D01*
X0086289Y0346037D02*
X0006397Y0346037D01*
X0006397Y0345039D02*
X0087288Y0345039D01*
X0088286Y0344040D02*
X0033693Y0344040D01*
X0033962Y0343928D02*
X0032235Y0344644D01*
X0026765Y0344644D01*
X0025038Y0343928D01*
X0023716Y0342606D01*
X0023000Y0340879D01*
X0023000Y0339009D01*
X0023716Y0337282D01*
X0025038Y0335959D01*
X0026765Y0335244D01*
X0032235Y0335244D01*
X0033962Y0335959D01*
X0035247Y0337244D01*
X0038375Y0337244D01*
X0042971Y0332649D01*
X0043963Y0332238D01*
X0063382Y0332238D01*
X0063516Y0332104D01*
X0063516Y0331745D01*
X0064046Y0330464D01*
X0065026Y0329484D01*
X0066307Y0328953D01*
X0067693Y0328953D01*
X0068974Y0329484D01*
X0069954Y0330464D01*
X0070484Y0331745D01*
X0070484Y0333131D01*
X0069954Y0334411D01*
X0068974Y0335391D01*
X0067693Y0335922D01*
X0067334Y0335922D01*
X0066789Y0336467D01*
X0066029Y0337227D01*
X0065037Y0337638D01*
X0045618Y0337638D01*
X0041783Y0341473D01*
X0041023Y0342233D01*
X0040031Y0342644D01*
X0035247Y0342644D01*
X0033962Y0343928D01*
X0034849Y0343042D02*
X0089285Y0343042D01*
X0090283Y0342043D02*
X0041213Y0342043D01*
X0042211Y0341045D02*
X0091282Y0341045D01*
X0092280Y0340046D02*
X0043210Y0340046D01*
X0044208Y0339048D02*
X0093279Y0339048D01*
X0093800Y0338049D02*
X0045207Y0338049D01*
X0041564Y0334055D02*
X0032562Y0334055D01*
X0032307Y0334138D02*
X0032951Y0333929D01*
X0033554Y0333622D01*
X0034101Y0333224D01*
X0034580Y0332745D01*
X0034978Y0332198D01*
X0035285Y0331595D01*
X0035494Y0330951D01*
X0035574Y0330444D01*
X0030000Y0330444D01*
X0029000Y0330444D01*
X0029000Y0334244D01*
X0027362Y0334244D01*
X0026693Y0334138D01*
X0026049Y0333929D01*
X0025446Y0333622D01*
X0024899Y0333224D01*
X0024420Y0332745D01*
X0024022Y0332198D01*
X0023715Y0331595D01*
X0023506Y0330951D01*
X0023426Y0330444D01*
X0029000Y0330444D01*
X0029000Y0329444D01*
X0023426Y0329444D01*
X0023506Y0328937D01*
X0023715Y0328293D01*
X0024022Y0327690D01*
X0024420Y0327143D01*
X0024899Y0326664D01*
X0025446Y0326266D01*
X0026049Y0325959D01*
X0026693Y0325750D01*
X0027362Y0325644D01*
X0029000Y0325644D01*
X0029000Y0329444D01*
X0030000Y0329444D01*
X0030000Y0330444D01*
X0030000Y0334244D01*
X0031638Y0334244D01*
X0032307Y0334138D01*
X0034269Y0333057D02*
X0042563Y0333057D01*
X0040566Y0335054D02*
X0012779Y0335054D01*
X0013063Y0336052D02*
X0024945Y0336052D01*
X0023947Y0337051D02*
X0013063Y0337051D01*
X0013063Y0338049D02*
X0023398Y0338049D01*
X0023000Y0339048D02*
X0013063Y0339048D01*
X0012824Y0340046D02*
X0023000Y0340046D01*
X0023069Y0341045D02*
X0006397Y0341045D01*
X0006397Y0342043D02*
X0023482Y0342043D01*
X0024151Y0343042D02*
X0006397Y0343042D01*
X0006397Y0344040D02*
X0025307Y0344040D01*
X0034055Y0336052D02*
X0039567Y0336052D01*
X0038569Y0337051D02*
X0035053Y0337051D01*
X0035049Y0332058D02*
X0063516Y0332058D01*
X0063799Y0331060D02*
X0035459Y0331060D01*
X0035574Y0329444D02*
X0030000Y0329444D01*
X0030000Y0325644D01*
X0031638Y0325644D01*
X0032307Y0325750D01*
X0032951Y0325959D01*
X0033554Y0326266D01*
X0034101Y0326664D01*
X0034580Y0327143D01*
X0034978Y0327690D01*
X0035285Y0328293D01*
X0035494Y0328937D01*
X0035574Y0329444D01*
X0035514Y0329063D02*
X0066044Y0329063D01*
X0064449Y0330061D02*
X0030000Y0330061D01*
X0030000Y0329063D02*
X0029000Y0329063D01*
X0029000Y0330061D02*
X0012708Y0330061D01*
X0013063Y0329063D02*
X0023486Y0329063D01*
X0023832Y0328064D02*
X0013063Y0328064D01*
X0013063Y0327065D02*
X0024497Y0327065D01*
X0025837Y0326067D02*
X0012716Y0326067D01*
X0011718Y0325068D02*
X0093800Y0325068D01*
X0093800Y0324070D02*
X0033621Y0324070D01*
X0033962Y0323928D02*
X0032235Y0324644D01*
X0026765Y0324644D01*
X0025038Y0323928D01*
X0023716Y0322606D01*
X0023000Y0320879D01*
X0023000Y0319009D01*
X0023716Y0317282D01*
X0025038Y0315959D01*
X0026765Y0315244D01*
X0030664Y0315244D01*
X0043090Y0302818D01*
X0044009Y0302438D01*
X0124573Y0302438D01*
X0125026Y0301984D01*
X0126307Y0301453D01*
X0127693Y0301453D01*
X0128974Y0301984D01*
X0129954Y0302964D01*
X0130484Y0304245D01*
X0130484Y0305631D01*
X0129954Y0306911D01*
X0128974Y0307891D01*
X0127693Y0308422D01*
X0126307Y0308422D01*
X0125026Y0307891D01*
X0124573Y0307438D01*
X0045542Y0307438D01*
X0035406Y0317574D01*
X0036000Y0319009D01*
X0036000Y0320879D01*
X0035284Y0322606D01*
X0033962Y0323928D01*
X0034819Y0323071D02*
X0094755Y0323071D01*
X0095753Y0322073D02*
X0035505Y0322073D01*
X0035919Y0321074D02*
X0096752Y0321074D01*
X0097750Y0320076D02*
X0036000Y0320076D01*
X0036000Y0319077D02*
X0098749Y0319077D01*
X0099747Y0318079D02*
X0035615Y0318079D01*
X0035899Y0317080D02*
X0100746Y0317080D01*
X0101745Y0316082D02*
X0036898Y0316082D01*
X0037896Y0315083D02*
X0102743Y0315083D01*
X0103742Y0314085D02*
X0038895Y0314085D01*
X0039893Y0313086D02*
X0104740Y0313086D01*
X0105739Y0312088D02*
X0040892Y0312088D01*
X0041890Y0311089D02*
X0130737Y0311089D01*
X0131736Y0310091D02*
X0042889Y0310091D01*
X0043887Y0309092D02*
X0132734Y0309092D01*
X0133733Y0308094D02*
X0128485Y0308094D01*
X0129770Y0307095D02*
X0134731Y0307095D01*
X0135730Y0306097D02*
X0130291Y0306097D01*
X0130484Y0305098D02*
X0136728Y0305098D01*
X0137172Y0304100D02*
X0130424Y0304100D01*
X0130011Y0303101D02*
X0137168Y0303101D01*
X0137165Y0302103D02*
X0129093Y0302103D01*
X0124907Y0302103D02*
X0013063Y0302103D01*
X0013063Y0303101D02*
X0042807Y0303101D01*
X0041809Y0304100D02*
X0013063Y0304100D01*
X0013063Y0305098D02*
X0040810Y0305098D01*
X0039812Y0306097D02*
X0013038Y0306097D01*
X0014766Y0307095D02*
X0038813Y0307095D01*
X0037815Y0308094D02*
X0015515Y0308094D01*
X0015515Y0309092D02*
X0036816Y0309092D01*
X0035818Y0310091D02*
X0014926Y0310091D01*
X0013749Y0311089D02*
X0034819Y0311089D01*
X0033821Y0312088D02*
X0013881Y0312088D01*
X0013672Y0313086D02*
X0032822Y0313086D01*
X0031824Y0314085D02*
X0012673Y0314085D01*
X0013063Y0315083D02*
X0030825Y0315083D01*
X0024915Y0316082D02*
X0013063Y0316082D01*
X0013063Y0317080D02*
X0023917Y0317080D01*
X0023385Y0318079D02*
X0012873Y0318079D01*
X0013063Y0319077D02*
X0023000Y0319077D01*
X0023000Y0320076D02*
X0013063Y0320076D01*
X0013063Y0321074D02*
X0023081Y0321074D01*
X0023495Y0322073D02*
X0013063Y0322073D01*
X0012945Y0323071D02*
X0024181Y0323071D01*
X0025379Y0324070D02*
X0011946Y0324070D01*
X0013063Y0331060D02*
X0023541Y0331060D01*
X0023951Y0332058D02*
X0013063Y0332058D01*
X0013063Y0333057D02*
X0024731Y0333057D01*
X0026438Y0334055D02*
X0013063Y0334055D01*
X0029000Y0334055D02*
X0030000Y0334055D01*
X0030000Y0333057D02*
X0029000Y0333057D01*
X0029000Y0332058D02*
X0030000Y0332058D01*
X0030000Y0331060D02*
X0029000Y0331060D01*
X0029000Y0328064D02*
X0030000Y0328064D01*
X0030000Y0327065D02*
X0029000Y0327065D01*
X0029000Y0326067D02*
X0030000Y0326067D01*
X0033163Y0326067D02*
X0093800Y0326067D01*
X0093800Y0327065D02*
X0034503Y0327065D01*
X0035168Y0328064D02*
X0093800Y0328064D01*
X0093800Y0329063D02*
X0067956Y0329063D01*
X0069551Y0330061D02*
X0093800Y0330061D01*
X0093800Y0331060D02*
X0070200Y0331060D01*
X0070484Y0332058D02*
X0093800Y0332058D01*
X0093800Y0333057D02*
X0070484Y0333057D01*
X0070101Y0334055D02*
X0093800Y0334055D01*
X0093800Y0335054D02*
X0069312Y0335054D01*
X0067204Y0336052D02*
X0093800Y0336052D01*
X0093800Y0337051D02*
X0066205Y0337051D01*
X0086521Y0352028D02*
X0100312Y0352028D01*
X0100312Y0352786D02*
X0100312Y0350121D01*
X0101332Y0347658D01*
X0103217Y0345773D01*
X0105679Y0344753D01*
X0114345Y0344753D01*
X0116807Y0345773D01*
X0118692Y0347658D01*
X0119712Y0350121D01*
X0119712Y0352786D01*
X0118692Y0355249D01*
X0116807Y0357133D01*
X0114345Y0358153D01*
X0105679Y0358153D01*
X0103217Y0357133D01*
X0101332Y0355249D01*
X0100312Y0352786D01*
X0100412Y0353027D02*
X0085522Y0353027D01*
X0084700Y0354025D02*
X0100825Y0354025D01*
X0101239Y0355024D02*
X0084700Y0355024D01*
X0084700Y0356022D02*
X0088004Y0356022D01*
X0086858Y0357021D02*
X0084700Y0357021D01*
X0084700Y0358019D02*
X0086187Y0358019D01*
X0085767Y0359018D02*
X0084700Y0359018D01*
X0084700Y0360016D02*
X0085550Y0360016D01*
X0085514Y0361015D02*
X0084700Y0361015D01*
X0084700Y0362013D02*
X0085514Y0362013D01*
X0090827Y0362013D02*
X0091402Y0362013D01*
X0091402Y0361015D02*
X0090827Y0361015D01*
X0090827Y0360016D02*
X0091402Y0360016D01*
X0091402Y0359018D02*
X0090827Y0359018D01*
X0090827Y0358019D02*
X0091402Y0358019D01*
X0091402Y0357021D02*
X0090827Y0357021D01*
X0090827Y0356022D02*
X0091402Y0356022D01*
X0094225Y0356022D02*
X0102105Y0356022D01*
X0103104Y0357021D02*
X0095370Y0357021D01*
X0096041Y0358019D02*
X0105355Y0358019D01*
X0096678Y0360016D02*
X0137373Y0360016D01*
X0137369Y0359018D02*
X0096461Y0359018D01*
X0096714Y0361015D02*
X0137376Y0361015D01*
X0137380Y0362013D02*
X0096714Y0362013D01*
X0096714Y0364010D02*
X0137387Y0364010D01*
X0137383Y0363012D02*
X0091402Y0363012D01*
X0096714Y0365009D02*
X0137391Y0365009D01*
X0137394Y0366007D02*
X0096714Y0366007D01*
X0096600Y0367006D02*
X0137398Y0367006D01*
X0137401Y0368004D02*
X0096299Y0368004D01*
X0095741Y0369003D02*
X0137405Y0369003D01*
X0137409Y0370001D02*
X0094877Y0370001D01*
X0101910Y0376991D02*
X0038183Y0376991D01*
X0038040Y0377990D02*
X0102171Y0377990D01*
X0102639Y0378988D02*
X0037896Y0378988D01*
X0037753Y0379987D02*
X0103439Y0379987D01*
X0104763Y0380985D02*
X0037575Y0380985D01*
X0037119Y0381984D02*
X0137452Y0381984D01*
X0137455Y0382982D02*
X0036663Y0382982D01*
X0036207Y0383981D02*
X0137459Y0383981D01*
X0137462Y0384979D02*
X0035751Y0384979D01*
X0035082Y0385978D02*
X0137466Y0385978D01*
X0137470Y0386976D02*
X0034217Y0386976D01*
X0033351Y0387975D02*
X0137473Y0387975D01*
X0137477Y0388973D02*
X0032486Y0388973D01*
X0031134Y0389972D02*
X0137480Y0389972D01*
X0140498Y0384979D02*
X0162508Y0384979D01*
X0161510Y0383981D02*
X0148079Y0383981D01*
X0147748Y0384118D02*
X0146056Y0384118D01*
X0144493Y0383471D01*
X0143296Y0382274D01*
X0142649Y0380711D01*
X0142649Y0379019D01*
X0143296Y0377456D01*
X0144493Y0376260D01*
X0146056Y0375612D01*
X0147748Y0375612D01*
X0149311Y0376260D01*
X0150507Y0377456D01*
X0151154Y0379019D01*
X0151154Y0380711D01*
X0150507Y0382274D01*
X0149311Y0383471D01*
X0147748Y0384118D01*
X0145724Y0383981D02*
X0140494Y0383981D01*
X0140491Y0382982D02*
X0144004Y0382982D01*
X0143176Y0381984D02*
X0140487Y0381984D01*
X0140483Y0380985D02*
X0142762Y0380985D01*
X0142649Y0379987D02*
X0140479Y0379987D01*
X0140475Y0378988D02*
X0142662Y0378988D01*
X0143075Y0377990D02*
X0140472Y0377990D01*
X0140468Y0376991D02*
X0143761Y0376991D01*
X0145138Y0375993D02*
X0140464Y0375993D01*
X0140460Y0374994D02*
X0162265Y0374994D01*
X0161267Y0375993D02*
X0148665Y0375993D01*
X0150042Y0376991D02*
X0160742Y0376991D01*
X0160328Y0377990D02*
X0150728Y0377990D01*
X0151141Y0378988D02*
X0160087Y0378988D01*
X0160087Y0379987D02*
X0151154Y0379987D01*
X0151041Y0380985D02*
X0160087Y0380985D01*
X0160429Y0381984D02*
X0150627Y0381984D01*
X0149799Y0382982D02*
X0160842Y0382982D01*
X0163772Y0373996D02*
X0140456Y0373996D01*
X0140453Y0372997D02*
X0344176Y0372997D01*
X0344191Y0371998D02*
X0140449Y0371998D01*
X0140445Y0371000D02*
X0344205Y0371000D01*
X0344219Y0370001D02*
X0140441Y0370001D01*
X0140437Y0369003D02*
X0344233Y0369003D01*
X0344247Y0368004D02*
X0140433Y0368004D01*
X0140430Y0367006D02*
X0344261Y0367006D01*
X0344276Y0366007D02*
X0322225Y0366007D01*
X0321979Y0366109D02*
X0319620Y0366109D01*
X0317441Y0365207D01*
X0315773Y0363539D01*
X0314870Y0361360D01*
X0314870Y0359001D01*
X0315773Y0356822D01*
X0317441Y0355154D01*
X0319620Y0354251D01*
X0321979Y0354251D01*
X0324158Y0355154D01*
X0325826Y0356822D01*
X0326222Y0357779D01*
X0326529Y0357177D01*
X0327059Y0356448D01*
X0327697Y0355810D01*
X0328426Y0355280D01*
X0329230Y0354871D01*
X0330088Y0354592D01*
X0330929Y0354459D01*
X0330929Y0359680D01*
X0331929Y0359680D01*
X0331929Y0354459D01*
X0332771Y0354592D01*
X0333628Y0354871D01*
X0334432Y0355280D01*
X0335161Y0355810D01*
X0335799Y0356448D01*
X0336329Y0357177D01*
X0336739Y0357981D01*
X0337017Y0358839D01*
X0337150Y0359680D01*
X0331929Y0359680D01*
X0331929Y0360680D01*
X0337150Y0360680D01*
X0337017Y0361522D01*
X0336739Y0362379D01*
X0336329Y0363183D01*
X0335799Y0363912D01*
X0335161Y0364550D01*
X0334432Y0365080D01*
X0333628Y0365490D01*
X0332771Y0365768D01*
X0331929Y0365902D01*
X0331929Y0360680D01*
X0330929Y0360680D01*
X0330929Y0365902D01*
X0330088Y0365768D01*
X0329230Y0365490D01*
X0328426Y0365080D01*
X0327697Y0364550D01*
X0327059Y0363912D01*
X0326529Y0363183D01*
X0326222Y0362581D01*
X0325826Y0363539D01*
X0324158Y0365207D01*
X0321979Y0366109D01*
X0319374Y0366007D02*
X0292264Y0366007D01*
X0292018Y0366109D02*
X0289659Y0366109D01*
X0287480Y0365207D01*
X0285812Y0363539D01*
X0285524Y0362842D01*
X0285235Y0363539D01*
X0283567Y0365207D01*
X0281388Y0366109D01*
X0279029Y0366109D01*
X0276850Y0365207D01*
X0275182Y0363539D01*
X0274280Y0361360D01*
X0274280Y0359001D01*
X0275182Y0356822D01*
X0276850Y0355154D01*
X0279029Y0354251D01*
X0281388Y0354251D01*
X0283567Y0355154D01*
X0285235Y0356822D01*
X0285524Y0357518D01*
X0285812Y0356822D01*
X0287480Y0355154D01*
X0289659Y0354251D01*
X0292018Y0354251D01*
X0294197Y0355154D01*
X0295865Y0356822D01*
X0296768Y0359001D01*
X0296768Y0361360D01*
X0295865Y0363539D01*
X0294197Y0365207D01*
X0292018Y0366109D01*
X0289413Y0366007D02*
X0281634Y0366007D01*
X0283765Y0365009D02*
X0287282Y0365009D01*
X0286284Y0364010D02*
X0284763Y0364010D01*
X0285453Y0363012D02*
X0285594Y0363012D01*
X0285730Y0357021D02*
X0285318Y0357021D01*
X0284436Y0356022D02*
X0286611Y0356022D01*
X0287794Y0355024D02*
X0283254Y0355024D01*
X0277164Y0355024D02*
X0263811Y0355024D01*
X0263510Y0354871D02*
X0264314Y0355280D01*
X0265043Y0355810D01*
X0265681Y0356448D01*
X0266211Y0357177D01*
X0266620Y0357981D01*
X0266899Y0358839D01*
X0267032Y0359680D01*
X0261811Y0359680D01*
X0261811Y0354459D01*
X0262653Y0354592D01*
X0263510Y0354871D01*
X0261811Y0355024D02*
X0260811Y0355024D01*
X0260811Y0354459D02*
X0260811Y0359680D01*
X0261811Y0359680D01*
X0261811Y0360680D01*
X0267032Y0360680D01*
X0266899Y0361522D01*
X0266620Y0362379D01*
X0266211Y0363183D01*
X0265681Y0363912D01*
X0265043Y0364550D01*
X0264314Y0365080D01*
X0263510Y0365490D01*
X0262653Y0365768D01*
X0261811Y0365902D01*
X0261811Y0360680D01*
X0260811Y0360680D01*
X0260811Y0365902D01*
X0259969Y0365768D01*
X0259112Y0365490D01*
X0258308Y0365080D01*
X0257579Y0364550D01*
X0256941Y0363912D01*
X0256411Y0363183D01*
X0256104Y0362581D01*
X0255708Y0363539D01*
X0254040Y0365207D01*
X0251860Y0366109D01*
X0249502Y0366109D01*
X0247323Y0365207D01*
X0245655Y0363539D01*
X0244752Y0361360D01*
X0244752Y0359001D01*
X0245655Y0356822D01*
X0247323Y0355154D01*
X0249502Y0354251D01*
X0251860Y0354251D01*
X0254040Y0355154D01*
X0255708Y0356822D01*
X0256104Y0357779D01*
X0256411Y0357177D01*
X0256941Y0356448D01*
X0257579Y0355810D01*
X0258308Y0355280D01*
X0259112Y0354871D01*
X0259969Y0354592D01*
X0260811Y0354459D01*
X0260811Y0356022D02*
X0261811Y0356022D01*
X0261811Y0357021D02*
X0260811Y0357021D01*
X0260811Y0358019D02*
X0261811Y0358019D01*
X0261811Y0359018D02*
X0260811Y0359018D01*
X0261811Y0360016D02*
X0274280Y0360016D01*
X0274280Y0359018D02*
X0266927Y0359018D01*
X0266633Y0358019D02*
X0274686Y0358019D01*
X0275100Y0357021D02*
X0266097Y0357021D01*
X0265255Y0356022D02*
X0275981Y0356022D01*
X0274280Y0361015D02*
X0266979Y0361015D01*
X0266739Y0362013D02*
X0274550Y0362013D01*
X0274964Y0363012D02*
X0266298Y0363012D01*
X0265583Y0364010D02*
X0275654Y0364010D01*
X0276652Y0365009D02*
X0264412Y0365009D01*
X0261811Y0365009D02*
X0260811Y0365009D01*
X0260811Y0364010D02*
X0261811Y0364010D01*
X0261811Y0363012D02*
X0260811Y0363012D01*
X0260811Y0362013D02*
X0261811Y0362013D01*
X0261811Y0361015D02*
X0260811Y0361015D01*
X0258210Y0365009D02*
X0254237Y0365009D01*
X0255236Y0364010D02*
X0257039Y0364010D01*
X0256324Y0363012D02*
X0255926Y0363012D01*
X0252106Y0366007D02*
X0278783Y0366007D01*
X0273574Y0373996D02*
X0338063Y0373996D01*
X0336557Y0374994D02*
X0275081Y0374994D01*
X0276080Y0375993D02*
X0288681Y0375993D01*
X0288036Y0376260D02*
X0289599Y0375612D01*
X0291291Y0375612D01*
X0292854Y0376260D01*
X0294050Y0377456D01*
X0294698Y0379019D01*
X0294698Y0380711D01*
X0294050Y0382274D01*
X0292854Y0383471D01*
X0291291Y0384118D01*
X0289599Y0384118D01*
X0288036Y0383471D01*
X0286840Y0382274D01*
X0286192Y0380711D01*
X0286192Y0379019D01*
X0286840Y0377456D01*
X0288036Y0376260D01*
X0287305Y0376991D02*
X0276605Y0376991D01*
X0277018Y0377990D02*
X0286619Y0377990D01*
X0286205Y0378988D02*
X0277260Y0378988D01*
X0277260Y0379987D02*
X0286192Y0379987D01*
X0286306Y0380985D02*
X0277260Y0380985D01*
X0276918Y0381984D02*
X0286719Y0381984D01*
X0287547Y0382982D02*
X0276504Y0382982D01*
X0275837Y0383981D02*
X0289267Y0383981D01*
X0291622Y0383981D02*
X0320015Y0383981D01*
X0320347Y0384118D02*
X0318784Y0383471D01*
X0317588Y0382274D01*
X0316940Y0380711D01*
X0316940Y0379019D01*
X0317588Y0377456D01*
X0318784Y0376260D01*
X0320347Y0375612D01*
X0322039Y0375612D01*
X0323602Y0376260D01*
X0324798Y0377456D01*
X0325446Y0379019D01*
X0325446Y0380711D01*
X0324798Y0382274D01*
X0323602Y0383471D01*
X0322039Y0384118D01*
X0320347Y0384118D01*
X0322370Y0383981D02*
X0335801Y0383981D01*
X0335133Y0382982D02*
X0324090Y0382982D01*
X0324919Y0381984D02*
X0334720Y0381984D01*
X0334378Y0380985D02*
X0325332Y0380985D01*
X0325446Y0379987D02*
X0334378Y0379987D01*
X0334378Y0378988D02*
X0325433Y0378988D01*
X0325019Y0377990D02*
X0334619Y0377990D01*
X0335033Y0376991D02*
X0324333Y0376991D01*
X0322956Y0375993D02*
X0335558Y0375993D01*
X0343693Y0373996D02*
X0344162Y0373996D01*
X0344290Y0365009D02*
X0334530Y0365009D01*
X0335701Y0364010D02*
X0344304Y0364010D01*
X0344318Y0363012D02*
X0336416Y0363012D01*
X0336857Y0362013D02*
X0344332Y0362013D01*
X0344346Y0361015D02*
X0337097Y0361015D01*
X0337046Y0359018D02*
X0344375Y0359018D01*
X0344361Y0360016D02*
X0331929Y0360016D01*
X0331929Y0359018D02*
X0330929Y0359018D01*
X0330929Y0358019D02*
X0331929Y0358019D01*
X0331929Y0357021D02*
X0330929Y0357021D01*
X0330929Y0356022D02*
X0331929Y0356022D01*
X0331929Y0355024D02*
X0330929Y0355024D01*
X0328930Y0355024D02*
X0323844Y0355024D01*
X0325026Y0356022D02*
X0327485Y0356022D01*
X0326643Y0357021D02*
X0325908Y0357021D01*
X0326044Y0363012D02*
X0326442Y0363012D01*
X0327157Y0364010D02*
X0325354Y0364010D01*
X0324356Y0365009D02*
X0328328Y0365009D01*
X0330929Y0365009D02*
X0331929Y0365009D01*
X0331929Y0364010D02*
X0330929Y0364010D01*
X0330929Y0363012D02*
X0331929Y0363012D01*
X0331929Y0362013D02*
X0330929Y0362013D01*
X0330929Y0361015D02*
X0331929Y0361015D01*
X0336751Y0358019D02*
X0344389Y0358019D01*
X0344403Y0357021D02*
X0336215Y0357021D01*
X0335373Y0356022D02*
X0344417Y0356022D01*
X0344431Y0355024D02*
X0333929Y0355024D01*
X0344446Y0354025D02*
X0140380Y0354025D01*
X0140376Y0353027D02*
X0344460Y0353027D01*
X0344474Y0352028D02*
X0140373Y0352028D01*
X0140369Y0351030D02*
X0344488Y0351030D01*
X0344502Y0350031D02*
X0140365Y0350031D01*
X0140361Y0349033D02*
X0344516Y0349033D01*
X0344531Y0348034D02*
X0140357Y0348034D01*
X0140353Y0347036D02*
X0344545Y0347036D01*
X0344559Y0346037D02*
X0140350Y0346037D01*
X0140346Y0345039D02*
X0344573Y0345039D01*
X0322082Y0343042D02*
X0286918Y0343042D01*
X0286115Y0343844D02*
X0288400Y0341559D01*
X0288400Y0338329D01*
X0286115Y0336044D01*
X0282885Y0336044D01*
X0280600Y0338329D01*
X0280600Y0341559D01*
X0282885Y0343844D01*
X0286115Y0343844D01*
X0287916Y0342043D02*
X0321084Y0342043D01*
X0320600Y0341045D02*
X0288400Y0341045D01*
X0288400Y0340046D02*
X0320600Y0340046D01*
X0320600Y0339048D02*
X0288400Y0339048D01*
X0288121Y0338049D02*
X0320879Y0338049D01*
X0321878Y0337051D02*
X0287122Y0337051D01*
X0286124Y0336052D02*
X0322876Y0336052D01*
X0317754Y0355024D02*
X0293884Y0355024D01*
X0295066Y0356022D02*
X0316572Y0356022D01*
X0315690Y0357021D02*
X0295948Y0357021D01*
X0296361Y0358019D02*
X0315277Y0358019D01*
X0314870Y0359018D02*
X0296768Y0359018D01*
X0296768Y0360016D02*
X0314870Y0360016D01*
X0314870Y0361015D02*
X0296768Y0361015D01*
X0296497Y0362013D02*
X0315141Y0362013D01*
X0315555Y0363012D02*
X0296083Y0363012D01*
X0295393Y0364010D02*
X0316244Y0364010D01*
X0317243Y0365009D02*
X0294395Y0365009D01*
X0292208Y0375993D02*
X0319429Y0375993D01*
X0318053Y0376991D02*
X0293585Y0376991D01*
X0294271Y0377990D02*
X0317367Y0377990D01*
X0316953Y0378988D02*
X0294685Y0378988D01*
X0294698Y0379987D02*
X0316940Y0379987D01*
X0317054Y0380985D02*
X0294584Y0380985D01*
X0294171Y0381984D02*
X0317467Y0381984D01*
X0318296Y0382982D02*
X0293342Y0382982D01*
X0274838Y0384979D02*
X0336799Y0384979D01*
X0282082Y0343042D02*
X0256918Y0343042D01*
X0256115Y0343844D02*
X0258400Y0341559D01*
X0258400Y0338329D01*
X0256115Y0336044D01*
X0252885Y0336044D01*
X0250600Y0338329D01*
X0250600Y0341559D01*
X0252885Y0343844D01*
X0256115Y0343844D01*
X0257916Y0342043D02*
X0281084Y0342043D01*
X0280600Y0341045D02*
X0258400Y0341045D01*
X0258400Y0340046D02*
X0280600Y0340046D01*
X0280600Y0339048D02*
X0258400Y0339048D01*
X0258121Y0338049D02*
X0280879Y0338049D01*
X0281878Y0337051D02*
X0257122Y0337051D01*
X0256124Y0336052D02*
X0282876Y0336052D01*
X0252876Y0336052D02*
X0236124Y0336052D01*
X0236115Y0336044D02*
X0238400Y0338329D01*
X0238400Y0341559D01*
X0236115Y0343844D01*
X0232885Y0343844D01*
X0230600Y0341559D01*
X0230600Y0338329D01*
X0232885Y0336044D01*
X0236115Y0336044D01*
X0237122Y0337051D02*
X0251878Y0337051D01*
X0250879Y0338049D02*
X0238121Y0338049D01*
X0238400Y0339048D02*
X0250600Y0339048D01*
X0250600Y0340046D02*
X0238400Y0340046D01*
X0238400Y0341045D02*
X0250600Y0341045D01*
X0251084Y0342043D02*
X0237916Y0342043D01*
X0236918Y0343042D02*
X0252082Y0343042D01*
X0232082Y0343042D02*
X0206918Y0343042D01*
X0206115Y0343844D02*
X0208400Y0341559D01*
X0208400Y0338329D01*
X0206115Y0336044D01*
X0202885Y0336044D01*
X0200600Y0338329D01*
X0200600Y0341559D01*
X0202885Y0343844D01*
X0206115Y0343844D01*
X0207916Y0342043D02*
X0231084Y0342043D01*
X0230600Y0341045D02*
X0208400Y0341045D01*
X0208400Y0340046D02*
X0230600Y0340046D01*
X0230600Y0339048D02*
X0208400Y0339048D01*
X0208121Y0338049D02*
X0230879Y0338049D01*
X0231878Y0337051D02*
X0207122Y0337051D01*
X0206124Y0336052D02*
X0232876Y0336052D01*
X0228770Y0354251D02*
X0230949Y0355154D01*
X0232617Y0356822D01*
X0232905Y0357518D01*
X0233194Y0356822D01*
X0234862Y0355154D01*
X0237041Y0354251D01*
X0239400Y0354251D01*
X0241579Y0355154D01*
X0243247Y0356822D01*
X0244150Y0359001D01*
X0244150Y0361360D01*
X0243247Y0363539D01*
X0241579Y0365207D01*
X0239400Y0366109D01*
X0237041Y0366109D01*
X0234862Y0365207D01*
X0233194Y0363539D01*
X0232905Y0362842D01*
X0232617Y0363539D01*
X0230949Y0365207D01*
X0228770Y0366109D01*
X0226411Y0366109D01*
X0224232Y0365207D01*
X0222564Y0363539D01*
X0221661Y0361360D01*
X0221661Y0359001D01*
X0222564Y0356822D01*
X0224232Y0355154D01*
X0226411Y0354251D01*
X0228770Y0354251D01*
X0230636Y0355024D02*
X0235175Y0355024D01*
X0233993Y0356022D02*
X0231818Y0356022D01*
X0232700Y0357021D02*
X0233111Y0357021D01*
X0232976Y0363012D02*
X0232835Y0363012D01*
X0232145Y0364010D02*
X0233666Y0364010D01*
X0234664Y0365009D02*
X0231147Y0365009D01*
X0229016Y0366007D02*
X0236795Y0366007D01*
X0239646Y0366007D02*
X0249256Y0366007D01*
X0247125Y0365009D02*
X0241777Y0365009D01*
X0242775Y0364010D02*
X0246126Y0364010D01*
X0245436Y0363012D02*
X0243465Y0363012D01*
X0243879Y0362013D02*
X0245023Y0362013D01*
X0244752Y0361015D02*
X0244150Y0361015D01*
X0244150Y0360016D02*
X0244752Y0360016D01*
X0244752Y0359018D02*
X0244150Y0359018D01*
X0243743Y0358019D02*
X0245158Y0358019D01*
X0245572Y0357021D02*
X0243329Y0357021D01*
X0242448Y0356022D02*
X0246454Y0356022D01*
X0247636Y0355024D02*
X0241265Y0355024D01*
X0253726Y0355024D02*
X0258811Y0355024D01*
X0257367Y0356022D02*
X0254908Y0356022D01*
X0255790Y0357021D02*
X0256525Y0357021D01*
X0267945Y0373996D02*
X0220956Y0373996D01*
X0222463Y0374994D02*
X0266439Y0374994D01*
X0265440Y0375993D02*
X0252838Y0375993D01*
X0253484Y0376260D02*
X0254680Y0377456D01*
X0255328Y0379019D01*
X0255328Y0380711D01*
X0254680Y0382274D01*
X0253484Y0383471D01*
X0251921Y0384118D01*
X0250229Y0384118D01*
X0248666Y0383471D01*
X0247469Y0382274D01*
X0246822Y0380711D01*
X0246822Y0379019D01*
X0247469Y0377456D01*
X0248666Y0376260D01*
X0250229Y0375612D01*
X0251921Y0375612D01*
X0253484Y0376260D01*
X0254215Y0376991D02*
X0264915Y0376991D01*
X0264501Y0377990D02*
X0254901Y0377990D01*
X0255315Y0378988D02*
X0264260Y0378988D01*
X0264260Y0379987D02*
X0255328Y0379987D01*
X0255214Y0380985D02*
X0264260Y0380985D01*
X0264602Y0381984D02*
X0254800Y0381984D01*
X0253972Y0382982D02*
X0265015Y0382982D01*
X0265683Y0383981D02*
X0252252Y0383981D01*
X0249897Y0383981D02*
X0239004Y0383981D01*
X0238673Y0384118D02*
X0240236Y0383471D01*
X0241432Y0382274D01*
X0242080Y0380711D01*
X0242080Y0379019D01*
X0241432Y0377456D01*
X0240236Y0376260D01*
X0238673Y0375612D01*
X0236981Y0375612D01*
X0235418Y0376260D01*
X0234221Y0377456D01*
X0233574Y0379019D01*
X0233574Y0380711D01*
X0234221Y0382274D01*
X0235418Y0383471D01*
X0236981Y0384118D01*
X0238673Y0384118D01*
X0236649Y0383981D02*
X0223219Y0383981D01*
X0223886Y0382982D02*
X0234929Y0382982D01*
X0234101Y0381984D02*
X0224300Y0381984D01*
X0224642Y0380985D02*
X0233687Y0380985D01*
X0233574Y0379987D02*
X0224642Y0379987D01*
X0224642Y0378988D02*
X0233587Y0378988D01*
X0234001Y0377990D02*
X0224400Y0377990D01*
X0223987Y0376991D02*
X0234687Y0376991D01*
X0236063Y0375993D02*
X0223461Y0375993D01*
X0215327Y0373996D02*
X0169401Y0373996D01*
X0170908Y0374994D02*
X0213821Y0374994D01*
X0212822Y0375993D02*
X0200220Y0375993D01*
X0200866Y0376260D02*
X0202062Y0377456D01*
X0202709Y0379019D01*
X0202709Y0380711D01*
X0202062Y0382274D01*
X0200866Y0383471D01*
X0199303Y0384118D01*
X0197611Y0384118D01*
X0196048Y0383471D01*
X0194851Y0382274D01*
X0194204Y0380711D01*
X0194204Y0379019D01*
X0194851Y0377456D01*
X0196048Y0376260D01*
X0197611Y0375612D01*
X0199303Y0375612D01*
X0200866Y0376260D01*
X0201597Y0376991D02*
X0212297Y0376991D01*
X0211883Y0377990D02*
X0202283Y0377990D01*
X0202697Y0378988D02*
X0211642Y0378988D01*
X0211642Y0379987D02*
X0202709Y0379987D01*
X0202596Y0380985D02*
X0211642Y0380985D01*
X0211984Y0381984D02*
X0202182Y0381984D01*
X0201354Y0382982D02*
X0212397Y0382982D01*
X0213065Y0383981D02*
X0199634Y0383981D01*
X0197279Y0383981D02*
X0187449Y0383981D01*
X0187118Y0384118D02*
X0185426Y0384118D01*
X0183863Y0383471D01*
X0182666Y0382274D01*
X0182019Y0380711D01*
X0182019Y0379019D01*
X0182666Y0377456D01*
X0183863Y0376260D01*
X0185426Y0375612D01*
X0187118Y0375612D01*
X0188681Y0376260D01*
X0189877Y0377456D01*
X0190524Y0379019D01*
X0190524Y0380711D01*
X0189877Y0382274D01*
X0188681Y0383471D01*
X0187118Y0384118D01*
X0185094Y0383981D02*
X0171664Y0383981D01*
X0172331Y0382982D02*
X0183374Y0382982D01*
X0182546Y0381984D02*
X0172745Y0381984D01*
X0173087Y0380985D02*
X0182132Y0380985D01*
X0182019Y0379987D02*
X0173087Y0379987D01*
X0173087Y0378988D02*
X0182032Y0378988D01*
X0182445Y0377990D02*
X0172845Y0377990D01*
X0172432Y0376991D02*
X0183132Y0376991D01*
X0184508Y0375993D02*
X0171906Y0375993D01*
X0170665Y0384979D02*
X0214063Y0384979D01*
X0222220Y0384979D02*
X0266681Y0384979D01*
X0248177Y0382982D02*
X0240724Y0382982D01*
X0241552Y0381984D02*
X0247349Y0381984D01*
X0246936Y0380985D02*
X0241966Y0380985D01*
X0242080Y0379987D02*
X0246822Y0379987D01*
X0246835Y0378988D02*
X0242067Y0378988D01*
X0241653Y0377990D02*
X0247249Y0377990D01*
X0247935Y0376991D02*
X0240967Y0376991D01*
X0239590Y0375993D02*
X0249311Y0375993D01*
X0226165Y0366007D02*
X0199488Y0366007D01*
X0199242Y0366109D02*
X0196884Y0366109D01*
X0194704Y0365207D01*
X0193037Y0363539D01*
X0192364Y0361916D01*
X0191692Y0363539D01*
X0190024Y0365207D01*
X0187845Y0366109D01*
X0185486Y0366109D01*
X0183307Y0365207D01*
X0181639Y0363539D01*
X0181350Y0362842D01*
X0181062Y0363539D01*
X0179394Y0365207D01*
X0177215Y0366109D01*
X0174856Y0366109D01*
X0172677Y0365207D01*
X0171009Y0363539D01*
X0170106Y0361360D01*
X0170106Y0359001D01*
X0171009Y0356822D01*
X0172677Y0355154D01*
X0174856Y0354251D01*
X0177215Y0354251D01*
X0179394Y0355154D01*
X0181062Y0356822D01*
X0181350Y0357518D01*
X0181639Y0356822D01*
X0183307Y0355154D01*
X0185486Y0354251D01*
X0187845Y0354251D01*
X0190024Y0355154D01*
X0191692Y0356822D01*
X0192364Y0358445D01*
X0193037Y0356822D01*
X0194704Y0355154D01*
X0196884Y0354251D01*
X0199242Y0354251D01*
X0201422Y0355154D01*
X0203089Y0356822D01*
X0203486Y0357779D01*
X0203793Y0357177D01*
X0204323Y0356448D01*
X0204961Y0355810D01*
X0205690Y0355280D01*
X0206494Y0354871D01*
X0207351Y0354592D01*
X0208193Y0354459D01*
X0208193Y0359680D01*
X0209193Y0359680D01*
X0209193Y0354459D01*
X0210034Y0354592D01*
X0210892Y0354871D01*
X0211696Y0355280D01*
X0212425Y0355810D01*
X0213063Y0356448D01*
X0213593Y0357177D01*
X0214002Y0357981D01*
X0214281Y0358839D01*
X0214414Y0359680D01*
X0209193Y0359680D01*
X0209193Y0360680D01*
X0214414Y0360680D01*
X0214281Y0361522D01*
X0214002Y0362379D01*
X0213593Y0363183D01*
X0213063Y0363912D01*
X0212425Y0364550D01*
X0211696Y0365080D01*
X0210892Y0365490D01*
X0210034Y0365768D01*
X0209193Y0365902D01*
X0209193Y0360680D01*
X0208193Y0360680D01*
X0208193Y0365902D01*
X0207351Y0365768D01*
X0206494Y0365490D01*
X0205690Y0365080D01*
X0204961Y0364550D01*
X0204323Y0363912D01*
X0203793Y0363183D01*
X0203486Y0362581D01*
X0203089Y0363539D01*
X0201422Y0365207D01*
X0199242Y0366109D01*
X0196638Y0366007D02*
X0188091Y0366007D01*
X0190222Y0365009D02*
X0194507Y0365009D01*
X0193508Y0364010D02*
X0191220Y0364010D01*
X0191910Y0363012D02*
X0192818Y0363012D01*
X0192405Y0362013D02*
X0192324Y0362013D01*
X0192188Y0358019D02*
X0192540Y0358019D01*
X0192954Y0357021D02*
X0191774Y0357021D01*
X0190893Y0356022D02*
X0193836Y0356022D01*
X0195018Y0355024D02*
X0189710Y0355024D01*
X0183620Y0355024D02*
X0179080Y0355024D01*
X0180263Y0356022D02*
X0182438Y0356022D01*
X0181556Y0357021D02*
X0181144Y0357021D01*
X0181280Y0363012D02*
X0181421Y0363012D01*
X0182111Y0364010D02*
X0180590Y0364010D01*
X0179592Y0365009D02*
X0183109Y0365009D01*
X0185240Y0366007D02*
X0177461Y0366007D01*
X0174610Y0366007D02*
X0147933Y0366007D01*
X0147687Y0366109D02*
X0145328Y0366109D01*
X0143149Y0365207D01*
X0141481Y0363539D01*
X0140579Y0361360D01*
X0140579Y0359001D01*
X0141481Y0356822D01*
X0143149Y0355154D01*
X0145328Y0354251D01*
X0147687Y0354251D01*
X0149866Y0355154D01*
X0151534Y0356822D01*
X0151931Y0357779D01*
X0152238Y0357177D01*
X0152768Y0356448D01*
X0153406Y0355810D01*
X0154135Y0355280D01*
X0154939Y0354871D01*
X0155796Y0354592D01*
X0156638Y0354459D01*
X0156638Y0359680D01*
X0157638Y0359680D01*
X0157638Y0360680D01*
X0162859Y0360680D01*
X0162726Y0361522D01*
X0162447Y0362379D01*
X0162038Y0363183D01*
X0161508Y0363912D01*
X0160870Y0364550D01*
X0160141Y0365080D01*
X0159337Y0365490D01*
X0158479Y0365768D01*
X0157638Y0365902D01*
X0157638Y0360680D01*
X0156638Y0360680D01*
X0156638Y0365902D01*
X0155796Y0365768D01*
X0154939Y0365490D01*
X0154135Y0365080D01*
X0153406Y0364550D01*
X0152768Y0363912D01*
X0152238Y0363183D01*
X0151931Y0362581D01*
X0151534Y0363539D01*
X0149866Y0365207D01*
X0147687Y0366109D01*
X0145083Y0366007D02*
X0140426Y0366007D01*
X0140422Y0365009D02*
X0142952Y0365009D01*
X0141953Y0364010D02*
X0140418Y0364010D01*
X0140414Y0363012D02*
X0141263Y0363012D01*
X0140850Y0362013D02*
X0140411Y0362013D01*
X0140407Y0361015D02*
X0140579Y0361015D01*
X0140579Y0360016D02*
X0140403Y0360016D01*
X0140399Y0359018D02*
X0140579Y0359018D01*
X0140395Y0358019D02*
X0140985Y0358019D01*
X0141399Y0357021D02*
X0140392Y0357021D01*
X0140388Y0356022D02*
X0142281Y0356022D01*
X0143463Y0355024D02*
X0140384Y0355024D01*
X0137355Y0355024D02*
X0118785Y0355024D01*
X0119199Y0354025D02*
X0137351Y0354025D01*
X0137348Y0353027D02*
X0119612Y0353027D01*
X0119712Y0352028D02*
X0137344Y0352028D01*
X0137340Y0351030D02*
X0119712Y0351030D01*
X0119675Y0350031D02*
X0137337Y0350031D01*
X0137333Y0349033D02*
X0119261Y0349033D01*
X0118848Y0348034D02*
X0137330Y0348034D01*
X0137326Y0347036D02*
X0118069Y0347036D01*
X0117071Y0346037D02*
X0137322Y0346037D01*
X0137319Y0345039D02*
X0115033Y0345039D01*
X0104990Y0345039D02*
X0093510Y0345039D01*
X0092512Y0346037D02*
X0102953Y0346037D01*
X0101954Y0347036D02*
X0091513Y0347036D01*
X0090515Y0348034D02*
X0101176Y0348034D01*
X0100762Y0349033D02*
X0089516Y0349033D01*
X0088518Y0350031D02*
X0100349Y0350031D01*
X0100312Y0351030D02*
X0087519Y0351030D01*
X0094509Y0344040D02*
X0137315Y0344040D01*
X0137312Y0343042D02*
X0095507Y0343042D01*
X0096506Y0342043D02*
X0137308Y0342043D01*
X0137305Y0341045D02*
X0097504Y0341045D01*
X0098200Y0340046D02*
X0137301Y0340046D01*
X0137297Y0339048D02*
X0098200Y0339048D01*
X0098200Y0338049D02*
X0137294Y0338049D01*
X0137290Y0337051D02*
X0098200Y0337051D01*
X0117918Y0356022D02*
X0137358Y0356022D01*
X0137362Y0357021D02*
X0116920Y0357021D01*
X0114668Y0358019D02*
X0137366Y0358019D01*
X0149553Y0355024D02*
X0154638Y0355024D01*
X0153193Y0356022D02*
X0150735Y0356022D01*
X0151617Y0357021D02*
X0152352Y0357021D01*
X0156638Y0357021D02*
X0157638Y0357021D01*
X0157638Y0358019D02*
X0156638Y0358019D01*
X0156638Y0359018D02*
X0157638Y0359018D01*
X0157638Y0359680D02*
X0157638Y0354459D01*
X0158479Y0354592D01*
X0159337Y0354871D01*
X0160141Y0355280D01*
X0160870Y0355810D01*
X0161508Y0356448D01*
X0162038Y0357177D01*
X0162447Y0357981D01*
X0162726Y0358839D01*
X0162859Y0359680D01*
X0157638Y0359680D01*
X0157500Y0359818D02*
X0157138Y0360180D01*
X0157500Y0359818D02*
X0157500Y0319938D01*
X0167013Y0307095D02*
X0140671Y0307095D01*
X0140205Y0308094D02*
X0168537Y0308094D01*
X0166425Y0306097D02*
X0141669Y0306097D01*
X0142668Y0305098D02*
X0166216Y0305098D01*
X0166292Y0304100D02*
X0143666Y0304100D01*
X0144665Y0303101D02*
X0166706Y0303101D01*
X0167762Y0302103D02*
X0145663Y0302103D01*
X0146662Y0301104D02*
X0189022Y0301104D01*
X0188136Y0300106D02*
X0147660Y0300106D01*
X0148659Y0299107D02*
X0187722Y0299107D01*
X0187716Y0298109D02*
X0151474Y0298109D01*
X0152362Y0297110D02*
X0187995Y0297110D01*
X0188681Y0296112D02*
X0152776Y0296112D01*
X0152784Y0295113D02*
X0191072Y0295113D01*
X0192070Y0294115D02*
X0152507Y0294115D01*
X0151823Y0293116D02*
X0193069Y0293116D01*
X0171238Y0302103D02*
X0225262Y0302103D01*
X0228738Y0302103D02*
X0267762Y0302103D01*
X0271238Y0302103D02*
X0285200Y0302103D01*
X0285200Y0303101D02*
X0272294Y0303101D01*
X0272708Y0304100D02*
X0285200Y0304100D01*
X0285200Y0305098D02*
X0272784Y0305098D01*
X0272575Y0306097D02*
X0285200Y0306097D01*
X0285200Y0307095D02*
X0271987Y0307095D01*
X0282918Y0298109D02*
X0241082Y0298109D01*
X0240778Y0299107D02*
X0283917Y0299107D01*
X0284915Y0300106D02*
X0240364Y0300106D01*
X0239478Y0301104D02*
X0285200Y0301104D01*
X0281920Y0297110D02*
X0242080Y0297110D01*
X0243079Y0296112D02*
X0280921Y0296112D01*
X0279923Y0295113D02*
X0244077Y0295113D01*
X0245076Y0294115D02*
X0278924Y0294115D01*
X0278700Y0293116D02*
X0246074Y0293116D01*
X0247073Y0292118D02*
X0278700Y0292118D01*
X0278700Y0291119D02*
X0248071Y0291119D01*
X0249070Y0290121D02*
X0278700Y0290121D01*
X0278700Y0289122D02*
X0250068Y0289122D01*
X0251067Y0288124D02*
X0278700Y0288124D01*
X0278700Y0287125D02*
X0252065Y0287125D01*
X0253064Y0286127D02*
X0278700Y0286127D01*
X0278700Y0285128D02*
X0254062Y0285128D01*
X0255061Y0284130D02*
X0278700Y0284130D01*
X0278700Y0283131D02*
X0256059Y0283131D01*
X0257058Y0282132D02*
X0278147Y0282132D01*
X0277734Y0281134D02*
X0258448Y0281134D01*
X0259352Y0280135D02*
X0277716Y0280135D01*
X0277984Y0279137D02*
X0259765Y0279137D01*
X0259784Y0278138D02*
X0278655Y0278138D01*
X0283300Y0286127D02*
X0284044Y0286127D01*
X0283300Y0287125D02*
X0297043Y0287125D01*
X0297690Y0282132D02*
X0289014Y0282132D01*
X0320891Y0276141D02*
X0332669Y0276141D01*
X0354000Y0294115D02*
X0395910Y0294115D01*
X0395910Y0295113D02*
X0354000Y0295113D01*
X0354000Y0296112D02*
X0395910Y0296112D01*
X0395910Y0297110D02*
X0354000Y0297110D01*
X0354000Y0298109D02*
X0395910Y0298109D01*
X0395910Y0299107D02*
X0354000Y0299107D01*
X0354000Y0300106D02*
X0395910Y0300106D01*
X0395910Y0301104D02*
X0354000Y0301104D01*
X0253235Y0279137D02*
X0223886Y0279137D01*
X0222888Y0278138D02*
X0252948Y0278138D01*
X0251950Y0277140D02*
X0221889Y0277140D01*
X0220891Y0276141D02*
X0251200Y0276141D01*
X0251200Y0275143D02*
X0219892Y0275143D01*
X0218894Y0274144D02*
X0251200Y0274144D01*
X0251200Y0273146D02*
X0217895Y0273146D01*
X0217784Y0272147D02*
X0251200Y0272147D01*
X0251200Y0271149D02*
X0217521Y0271149D01*
X0220509Y0281134D02*
X0140102Y0281134D01*
X0125515Y0308094D02*
X0044886Y0308094D01*
X0015913Y0359018D02*
X0006397Y0359018D01*
X0006397Y0360016D02*
X0012934Y0360016D01*
X0011380Y0361015D02*
X0006397Y0361015D01*
X0006397Y0362013D02*
X0009827Y0362013D01*
X0008618Y0363012D02*
X0006397Y0363012D01*
X0006397Y0364010D02*
X0007752Y0364010D01*
X0006887Y0365009D02*
X0006397Y0365009D01*
X0114997Y0371000D02*
X0137412Y0371000D01*
X0137416Y0371998D02*
X0116450Y0371998D01*
X0117289Y0372997D02*
X0137419Y0372997D01*
X0137423Y0373996D02*
X0117809Y0373996D01*
X0118093Y0374994D02*
X0137427Y0374994D01*
X0150064Y0365009D02*
X0154037Y0365009D01*
X0152866Y0364010D02*
X0151063Y0364010D01*
X0151753Y0363012D02*
X0152151Y0363012D01*
X0156638Y0363012D02*
X0157638Y0363012D01*
X0157638Y0364010D02*
X0156638Y0364010D01*
X0156638Y0365009D02*
X0157638Y0365009D01*
X0160239Y0365009D02*
X0172479Y0365009D01*
X0171481Y0364010D02*
X0161410Y0364010D01*
X0162125Y0363012D02*
X0170791Y0363012D01*
X0170377Y0362013D02*
X0162566Y0362013D01*
X0162806Y0361015D02*
X0170106Y0361015D01*
X0170106Y0360016D02*
X0157638Y0360016D01*
X0157638Y0361015D02*
X0156638Y0361015D01*
X0156638Y0362013D02*
X0157638Y0362013D01*
X0162754Y0359018D02*
X0170106Y0359018D01*
X0170513Y0358019D02*
X0162460Y0358019D01*
X0161924Y0357021D02*
X0170926Y0357021D01*
X0171808Y0356022D02*
X0161082Y0356022D01*
X0159637Y0355024D02*
X0172990Y0355024D01*
X0177885Y0343844D02*
X0175600Y0341559D01*
X0175600Y0338329D01*
X0177885Y0336044D01*
X0181115Y0336044D01*
X0183400Y0338329D01*
X0183400Y0341559D01*
X0181115Y0343844D01*
X0177885Y0343844D01*
X0177082Y0343042D02*
X0151918Y0343042D01*
X0152916Y0342043D02*
X0176084Y0342043D01*
X0175600Y0341045D02*
X0153400Y0341045D01*
X0153400Y0340046D02*
X0175600Y0340046D01*
X0175600Y0339048D02*
X0153400Y0339048D01*
X0153121Y0338049D02*
X0175879Y0338049D01*
X0176878Y0337051D02*
X0152122Y0337051D01*
X0151124Y0336052D02*
X0177876Y0336052D01*
X0181124Y0336052D02*
X0202876Y0336052D01*
X0201878Y0337051D02*
X0182122Y0337051D01*
X0183121Y0338049D02*
X0200879Y0338049D01*
X0200600Y0339048D02*
X0183400Y0339048D01*
X0183400Y0340046D02*
X0200600Y0340046D01*
X0200600Y0341045D02*
X0183400Y0341045D01*
X0182916Y0342043D02*
X0201084Y0342043D01*
X0202082Y0343042D02*
X0181918Y0343042D01*
X0201108Y0355024D02*
X0206193Y0355024D01*
X0204749Y0356022D02*
X0202290Y0356022D01*
X0203172Y0357021D02*
X0203907Y0357021D01*
X0208193Y0357021D02*
X0209193Y0357021D01*
X0209193Y0358019D02*
X0208193Y0358019D01*
X0208193Y0359018D02*
X0209193Y0359018D01*
X0209193Y0360016D02*
X0221661Y0360016D01*
X0221661Y0359018D02*
X0214309Y0359018D01*
X0214015Y0358019D02*
X0222068Y0358019D01*
X0222482Y0357021D02*
X0213479Y0357021D01*
X0212637Y0356022D02*
X0223363Y0356022D01*
X0224546Y0355024D02*
X0211192Y0355024D01*
X0209193Y0355024D02*
X0208193Y0355024D01*
X0208193Y0356022D02*
X0209193Y0356022D01*
X0209193Y0361015D02*
X0208193Y0361015D01*
X0208193Y0362013D02*
X0209193Y0362013D01*
X0209193Y0363012D02*
X0208193Y0363012D01*
X0208193Y0364010D02*
X0209193Y0364010D01*
X0209193Y0365009D02*
X0208193Y0365009D01*
X0205592Y0365009D02*
X0201619Y0365009D01*
X0202618Y0364010D02*
X0204421Y0364010D01*
X0203706Y0363012D02*
X0203308Y0363012D01*
X0211794Y0365009D02*
X0224034Y0365009D01*
X0223036Y0364010D02*
X0212965Y0364010D01*
X0213680Y0363012D02*
X0222346Y0363012D01*
X0221932Y0362013D02*
X0214121Y0362013D01*
X0214361Y0361015D02*
X0221661Y0361015D01*
X0196693Y0375993D02*
X0188035Y0375993D01*
X0189412Y0376991D02*
X0195317Y0376991D01*
X0194630Y0377990D02*
X0190098Y0377990D01*
X0190511Y0378988D02*
X0194217Y0378988D01*
X0194204Y0379987D02*
X0190524Y0379987D01*
X0190411Y0380985D02*
X0194317Y0380985D01*
X0194731Y0381984D02*
X0189997Y0381984D01*
X0189169Y0382982D02*
X0195559Y0382982D01*
X0157638Y0356022D02*
X0156638Y0356022D01*
X0156638Y0355024D02*
X0157638Y0355024D01*
X0226855Y0285128D02*
X0247557Y0285128D01*
X0248555Y0284130D02*
X0227268Y0284130D01*
X0227284Y0283131D02*
X0249554Y0283131D01*
X0250552Y0282132D02*
X0227014Y0282132D01*
X0226341Y0281134D02*
X0251551Y0281134D01*
X0252550Y0280135D02*
X0224885Y0280135D01*
X0246964Y0259167D02*
X0197345Y0259167D01*
X0178250Y0239196D02*
X0027900Y0239196D01*
X0027900Y0238198D02*
X0177251Y0238198D01*
X0176253Y0237199D02*
X0027498Y0237199D01*
X0027084Y0236201D02*
X0175254Y0236201D01*
X0174256Y0235202D02*
X0026095Y0235202D01*
X0024443Y0234204D02*
X0173257Y0234204D01*
X0172872Y0233205D02*
X0006397Y0233205D01*
X0006397Y0232207D02*
X0172872Y0232207D01*
X0172872Y0231208D02*
X0006397Y0231208D01*
X0006397Y0230210D02*
X0172872Y0230210D01*
X0172872Y0229211D02*
X0006397Y0229211D01*
X0006397Y0228213D02*
X0033380Y0228213D01*
X0033520Y0228315D02*
X0032908Y0227871D01*
X0032374Y0227336D01*
X0031930Y0226725D01*
X0031587Y0226052D01*
X0031354Y0225333D01*
X0031235Y0224587D01*
X0031235Y0222609D01*
X0032761Y0222609D01*
X0032761Y0221609D01*
X0031235Y0221609D01*
X0031235Y0219632D01*
X0031354Y0218885D01*
X0031587Y0218167D01*
X0031930Y0217494D01*
X0032374Y0216882D01*
X0032908Y0216348D01*
X0033520Y0215904D01*
X0034193Y0215561D01*
X0034911Y0215328D01*
X0035535Y0215229D01*
X0035535Y0218835D01*
X0036535Y0218835D01*
X0036535Y0215229D01*
X0037159Y0215328D01*
X0037878Y0215561D01*
X0038551Y0215904D01*
X0039162Y0216348D01*
X0039697Y0216882D01*
X0040141Y0217494D01*
X0040484Y0218167D01*
X0040717Y0218885D01*
X0040835Y0219632D01*
X0040835Y0221609D01*
X0039310Y0221609D01*
X0039310Y0222609D01*
X0040835Y0222609D01*
X0040835Y0224587D01*
X0040717Y0225333D01*
X0040484Y0226052D01*
X0040141Y0226725D01*
X0039697Y0227336D01*
X0039162Y0227871D01*
X0038551Y0228315D01*
X0037878Y0228658D01*
X0037159Y0228891D01*
X0036535Y0228990D01*
X0036535Y0225384D01*
X0035535Y0225384D01*
X0035535Y0228990D01*
X0034911Y0228891D01*
X0034193Y0228658D01*
X0033520Y0228315D01*
X0032286Y0227214D02*
X0006397Y0227214D01*
X0006397Y0226216D02*
X0031671Y0226216D01*
X0031335Y0225217D02*
X0006397Y0225217D01*
X0006397Y0224219D02*
X0031235Y0224219D01*
X0031235Y0223220D02*
X0006397Y0223220D01*
X0006397Y0222222D02*
X0032761Y0222222D01*
X0031235Y0221223D02*
X0006397Y0221223D01*
X0006397Y0220225D02*
X0031235Y0220225D01*
X0031300Y0219226D02*
X0006397Y0219226D01*
X0006397Y0218228D02*
X0031567Y0218228D01*
X0032122Y0217229D02*
X0006397Y0217229D01*
X0006397Y0216231D02*
X0033070Y0216231D01*
X0035535Y0216231D02*
X0036535Y0216231D01*
X0036535Y0217229D02*
X0035535Y0217229D01*
X0035535Y0218228D02*
X0036535Y0218228D01*
X0036535Y0215232D02*
X0035535Y0215232D01*
X0035513Y0215232D02*
X0006397Y0215232D01*
X0006397Y0214234D02*
X0102900Y0214234D01*
X0102900Y0215232D02*
X0036558Y0215232D01*
X0039001Y0216231D02*
X0102900Y0216231D01*
X0102900Y0217229D02*
X0039949Y0217229D01*
X0040504Y0218228D02*
X0102900Y0218228D01*
X0102284Y0219226D02*
X0040771Y0219226D01*
X0040835Y0220225D02*
X0101731Y0220225D01*
X0101516Y0221223D02*
X0040835Y0221223D01*
X0039310Y0222222D02*
X0101553Y0222222D01*
X0101967Y0223220D02*
X0040835Y0223220D01*
X0040835Y0224219D02*
X0102854Y0224219D01*
X0107146Y0224219D02*
X0173253Y0224219D01*
X0172872Y0225217D02*
X0040736Y0225217D01*
X0040400Y0226216D02*
X0172872Y0226216D01*
X0172872Y0227214D02*
X0039785Y0227214D01*
X0038691Y0228213D02*
X0172872Y0228213D01*
X0174251Y0223220D02*
X0108033Y0223220D01*
X0108447Y0222222D02*
X0175250Y0222222D01*
X0176248Y0221223D02*
X0108484Y0221223D01*
X0108269Y0220225D02*
X0177247Y0220225D01*
X0177597Y0219226D02*
X0107716Y0219226D01*
X0107100Y0218228D02*
X0177597Y0218228D01*
X0177597Y0217229D02*
X0107100Y0217229D01*
X0107100Y0216231D02*
X0177597Y0216231D01*
X0177597Y0215232D02*
X0107100Y0215232D01*
X0107100Y0214234D02*
X0177597Y0214234D01*
X0177597Y0213235D02*
X0107100Y0213235D01*
X0107100Y0212237D02*
X0177597Y0212237D01*
X0173924Y0211238D02*
X0107100Y0211238D01*
X0107100Y0210240D02*
X0173086Y0210240D01*
X0172673Y0209241D02*
X0107100Y0209241D01*
X0107100Y0208243D02*
X0172669Y0208243D01*
X0172919Y0207244D02*
X0107100Y0207244D01*
X0107100Y0206246D02*
X0173520Y0206246D01*
X0174054Y0205247D02*
X0107100Y0205247D01*
X0107100Y0204249D02*
X0174054Y0204249D01*
X0174054Y0203250D02*
X0107100Y0203250D01*
X0107100Y0202252D02*
X0174054Y0202252D01*
X0174054Y0201253D02*
X0107100Y0201253D01*
X0107100Y0200255D02*
X0174054Y0200255D01*
X0174054Y0199256D02*
X0107100Y0199256D01*
X0107100Y0198258D02*
X0174054Y0198258D01*
X0174054Y0197259D02*
X0107100Y0197259D01*
X0107100Y0196261D02*
X0174054Y0196261D01*
X0174054Y0195262D02*
X0107100Y0195262D01*
X0107100Y0194263D02*
X0174054Y0194263D01*
X0174054Y0193265D02*
X0107100Y0193265D01*
X0107100Y0192266D02*
X0174890Y0192266D01*
X0175889Y0191268D02*
X0107100Y0191268D01*
X0107100Y0190269D02*
X0176887Y0190269D01*
X0177886Y0189271D02*
X0107100Y0189271D01*
X0107100Y0188272D02*
X0178884Y0188272D01*
X0179883Y0187274D02*
X0107100Y0187274D01*
X0107100Y0186275D02*
X0180881Y0186275D01*
X0181880Y0185277D02*
X0107100Y0185277D01*
X0107100Y0184278D02*
X0182878Y0184278D01*
X0183877Y0183280D02*
X0107100Y0183280D01*
X0107100Y0182281D02*
X0184683Y0182281D01*
X0184683Y0181283D02*
X0181582Y0181283D01*
X0181474Y0181391D02*
X0180193Y0181922D01*
X0178807Y0181922D01*
X0177526Y0181391D01*
X0176546Y0180411D01*
X0176016Y0179131D01*
X0176016Y0177923D01*
X0167400Y0169308D01*
X0167400Y0162265D01*
X0166546Y0161411D01*
X0166016Y0160131D01*
X0166016Y0158745D01*
X0166546Y0157464D01*
X0167526Y0156484D01*
X0168807Y0155953D01*
X0170193Y0155953D01*
X0171474Y0156484D01*
X0172454Y0157464D01*
X0172984Y0158745D01*
X0172984Y0160131D01*
X0172454Y0161411D01*
X0171600Y0162265D01*
X0171600Y0167568D01*
X0178986Y0174953D01*
X0180193Y0174953D01*
X0181474Y0175484D01*
X0182454Y0176464D01*
X0182984Y0177745D01*
X0182984Y0179131D01*
X0182454Y0180411D01*
X0181474Y0181391D01*
X0182506Y0180284D02*
X0184683Y0180284D01*
X0184683Y0179286D02*
X0182920Y0179286D01*
X0182984Y0178287D02*
X0184683Y0178287D01*
X0184683Y0177289D02*
X0182795Y0177289D01*
X0182280Y0176290D02*
X0184683Y0176290D01*
X0184683Y0175292D02*
X0181010Y0175292D01*
X0178325Y0174293D02*
X0184683Y0174293D01*
X0184683Y0173295D02*
X0177327Y0173295D01*
X0176328Y0172296D02*
X0184683Y0172296D01*
X0184683Y0171298D02*
X0175330Y0171298D01*
X0174331Y0170299D02*
X0184683Y0170299D01*
X0184683Y0169301D02*
X0173333Y0169301D01*
X0172334Y0168302D02*
X0184683Y0168302D01*
X0184683Y0167304D02*
X0171600Y0167304D01*
X0171600Y0166305D02*
X0184683Y0166305D01*
X0184683Y0165307D02*
X0171600Y0165307D01*
X0171600Y0164308D02*
X0184683Y0164308D01*
X0184683Y0163310D02*
X0171600Y0163310D01*
X0171600Y0162311D02*
X0184683Y0162311D01*
X0184683Y0161313D02*
X0172495Y0161313D01*
X0172908Y0160314D02*
X0184683Y0160314D01*
X0184683Y0159316D02*
X0172984Y0159316D01*
X0172807Y0158317D02*
X0184683Y0158317D01*
X0184683Y0157319D02*
X0172308Y0157319D01*
X0171078Y0156320D02*
X0184683Y0156320D01*
X0184683Y0155322D02*
X0148365Y0155322D01*
X0148365Y0156320D02*
X0167922Y0156320D01*
X0166692Y0157319D02*
X0148139Y0157319D01*
X0148365Y0156771D02*
X0147148Y0159711D01*
X0144897Y0161962D01*
X0141957Y0163179D01*
X0138775Y0163179D01*
X0135835Y0161962D01*
X0133585Y0159711D01*
X0132367Y0156771D01*
X0132367Y0153589D01*
X0133585Y0150649D01*
X0135835Y0148399D01*
X0138775Y0147181D01*
X0141957Y0147181D01*
X0144897Y0148399D01*
X0147148Y0150649D01*
X0148365Y0153589D01*
X0148365Y0156771D01*
X0147725Y0158317D02*
X0166193Y0158317D01*
X0166016Y0159316D02*
X0147311Y0159316D01*
X0146545Y0160314D02*
X0166092Y0160314D01*
X0166505Y0161313D02*
X0145546Y0161313D01*
X0144053Y0162311D02*
X0167400Y0162311D01*
X0167400Y0163310D02*
X0107100Y0163310D01*
X0107100Y0164308D02*
X0167400Y0164308D01*
X0167400Y0165307D02*
X0107100Y0165307D01*
X0107100Y0166305D02*
X0167400Y0166305D01*
X0167400Y0167304D02*
X0107100Y0167304D01*
X0107100Y0168302D02*
X0167400Y0168302D01*
X0167400Y0169301D02*
X0107100Y0169301D01*
X0107100Y0170299D02*
X0168392Y0170299D01*
X0169390Y0171298D02*
X0107100Y0171298D01*
X0107100Y0172296D02*
X0170389Y0172296D01*
X0171387Y0173295D02*
X0107100Y0173295D01*
X0107100Y0174293D02*
X0172386Y0174293D01*
X0173384Y0175292D02*
X0107100Y0175292D01*
X0107100Y0176290D02*
X0174383Y0176290D01*
X0175381Y0177289D02*
X0107100Y0177289D01*
X0107100Y0178287D02*
X0176016Y0178287D01*
X0176080Y0179286D02*
X0107100Y0179286D01*
X0107100Y0180284D02*
X0176494Y0180284D01*
X0177418Y0181283D02*
X0107100Y0181283D01*
X0102900Y0181283D02*
X0006397Y0181283D01*
X0006397Y0182281D02*
X0102900Y0182281D01*
X0102900Y0183280D02*
X0006397Y0183280D01*
X0006397Y0184278D02*
X0102900Y0184278D01*
X0102900Y0185277D02*
X0006397Y0185277D01*
X0006397Y0186275D02*
X0102900Y0186275D01*
X0102900Y0187274D02*
X0006397Y0187274D01*
X0006397Y0188272D02*
X0102900Y0188272D01*
X0102900Y0189271D02*
X0006397Y0189271D01*
X0006397Y0190269D02*
X0102900Y0190269D01*
X0102900Y0191268D02*
X0006397Y0191268D01*
X0006397Y0192266D02*
X0102900Y0192266D01*
X0102900Y0193265D02*
X0006397Y0193265D01*
X0006397Y0194263D02*
X0102900Y0194263D01*
X0102900Y0195262D02*
X0006397Y0195262D01*
X0006397Y0196261D02*
X0102900Y0196261D01*
X0102900Y0197259D02*
X0006397Y0197259D01*
X0006397Y0198258D02*
X0102900Y0198258D01*
X0102900Y0199256D02*
X0006397Y0199256D01*
X0006397Y0200255D02*
X0102900Y0200255D01*
X0102900Y0201253D02*
X0006397Y0201253D01*
X0006397Y0202252D02*
X0102900Y0202252D01*
X0102900Y0203250D02*
X0006397Y0203250D01*
X0006397Y0204249D02*
X0102900Y0204249D01*
X0102900Y0205247D02*
X0006397Y0205247D01*
X0006397Y0206246D02*
X0102900Y0206246D01*
X0102900Y0207244D02*
X0006397Y0207244D01*
X0006397Y0208243D02*
X0102900Y0208243D01*
X0102900Y0209241D02*
X0006397Y0209241D01*
X0006397Y0210240D02*
X0102900Y0210240D01*
X0102900Y0211238D02*
X0006397Y0211238D01*
X0006397Y0212237D02*
X0102900Y0212237D01*
X0102900Y0213235D02*
X0006397Y0213235D01*
X0006397Y0234204D02*
X0020557Y0234204D01*
X0018905Y0235202D02*
X0006397Y0235202D01*
X0006397Y0236201D02*
X0017916Y0236201D01*
X0017502Y0237199D02*
X0006397Y0237199D01*
X0006397Y0238198D02*
X0017100Y0238198D01*
X0017100Y0239196D02*
X0006397Y0239196D01*
X0006397Y0240195D02*
X0017100Y0240195D01*
X0017463Y0241194D02*
X0013039Y0241194D01*
X0014037Y0242192D02*
X0017876Y0242192D01*
X0018810Y0243191D02*
X0014698Y0243191D01*
X0014698Y0244189D02*
X0020328Y0244189D01*
X0018323Y0247185D02*
X0013657Y0247185D01*
X0013063Y0248183D02*
X0017674Y0248183D01*
X0017261Y0249182D02*
X0013063Y0249182D01*
X0013063Y0250180D02*
X0017100Y0250180D01*
X0017100Y0251179D02*
X0013063Y0251179D01*
X0012259Y0252177D02*
X0017290Y0252177D01*
X0017704Y0253176D02*
X0013063Y0253176D01*
X0013063Y0254174D02*
X0018393Y0254174D01*
X0019392Y0255173D02*
X0013063Y0255173D01*
X0006454Y0242192D02*
X0006397Y0242192D01*
X0006397Y0241194D02*
X0007453Y0241194D01*
X0035535Y0228213D02*
X0036535Y0228213D01*
X0036535Y0227214D02*
X0035535Y0227214D01*
X0035535Y0226216D02*
X0036535Y0226216D01*
X0006397Y0180284D02*
X0102900Y0180284D01*
X0102900Y0179286D02*
X0006397Y0179286D01*
X0006397Y0178287D02*
X0102900Y0178287D01*
X0102900Y0177289D02*
X0006397Y0177289D01*
X0006397Y0176290D02*
X0102900Y0176290D01*
X0102900Y0175292D02*
X0006397Y0175292D01*
X0006397Y0174293D02*
X0102900Y0174293D01*
X0102900Y0173295D02*
X0006397Y0173295D01*
X0006397Y0172296D02*
X0102900Y0172296D01*
X0102900Y0171298D02*
X0006397Y0171298D01*
X0006397Y0170299D02*
X0102900Y0170299D01*
X0102900Y0169301D02*
X0006397Y0169301D01*
X0006397Y0168302D02*
X0102900Y0168302D01*
X0102900Y0167304D02*
X0006397Y0167304D01*
X0006397Y0166305D02*
X0102900Y0166305D01*
X0102900Y0165307D02*
X0006397Y0165307D01*
X0006397Y0164308D02*
X0102900Y0164308D01*
X0102900Y0163310D02*
X0006397Y0163310D01*
X0006397Y0162311D02*
X0102900Y0162311D01*
X0102900Y0161313D02*
X0006397Y0161313D01*
X0006397Y0160314D02*
X0102900Y0160314D01*
X0102900Y0159316D02*
X0006397Y0159316D01*
X0006397Y0158317D02*
X0102900Y0158317D01*
X0102900Y0157319D02*
X0006397Y0157319D01*
X0006397Y0156320D02*
X0102900Y0156320D01*
X0102900Y0155322D02*
X0006397Y0155322D01*
X0006397Y0154323D02*
X0102900Y0154323D01*
X0102900Y0153325D02*
X0006397Y0153325D01*
X0006397Y0152326D02*
X0102900Y0152326D01*
X0102900Y0151327D02*
X0006397Y0151327D01*
X0006397Y0150329D02*
X0102900Y0150329D01*
X0102900Y0149330D02*
X0006397Y0149330D01*
X0006397Y0148332D02*
X0102900Y0148332D01*
X0102900Y0147333D02*
X0006397Y0147333D01*
X0006397Y0146335D02*
X0102900Y0146335D01*
X0102900Y0145336D02*
X0006397Y0145336D01*
X0006397Y0144338D02*
X0102900Y0144338D01*
X0102900Y0143339D02*
X0006397Y0143339D01*
X0006397Y0142341D02*
X0102900Y0142341D01*
X0102900Y0141342D02*
X0006397Y0141342D01*
X0006397Y0140344D02*
X0102900Y0140344D01*
X0102900Y0139345D02*
X0006397Y0139345D01*
X0006397Y0138347D02*
X0102900Y0138347D01*
X0102900Y0137348D02*
X0006397Y0137348D01*
X0006397Y0136350D02*
X0102900Y0136350D01*
X0102900Y0135351D02*
X0006397Y0135351D01*
X0006397Y0134353D02*
X0102900Y0134353D01*
X0102900Y0133354D02*
X0006397Y0133354D01*
X0006397Y0132356D02*
X0102900Y0132356D01*
X0102900Y0131357D02*
X0006397Y0131357D01*
X0006397Y0130359D02*
X0102900Y0130359D01*
X0102900Y0129360D02*
X0006397Y0129360D01*
X0006397Y0128362D02*
X0102900Y0128362D01*
X0102900Y0127363D02*
X0006397Y0127363D01*
X0006397Y0126365D02*
X0102900Y0126365D01*
X0102900Y0125366D02*
X0006397Y0125366D01*
X0006397Y0124368D02*
X0102900Y0124368D01*
X0102900Y0123369D02*
X0006397Y0123369D01*
X0006397Y0122371D02*
X0102900Y0122371D01*
X0102900Y0121372D02*
X0006397Y0121372D01*
X0006397Y0120374D02*
X0102900Y0120374D01*
X0102900Y0119375D02*
X0006397Y0119375D01*
X0006397Y0118377D02*
X0102900Y0118377D01*
X0102900Y0117378D02*
X0006397Y0117378D01*
X0006397Y0116380D02*
X0046027Y0116380D01*
X0046035Y0116388D02*
X0042550Y0112902D01*
X0042550Y0107973D01*
X0046035Y0104488D01*
X0050965Y0104488D01*
X0054450Y0107973D01*
X0054450Y0112902D01*
X0050965Y0116388D01*
X0046035Y0116388D01*
X0045029Y0115381D02*
X0006397Y0115381D01*
X0006397Y0114383D02*
X0044030Y0114383D01*
X0043032Y0113384D02*
X0006397Y0113384D01*
X0006397Y0112386D02*
X0042550Y0112386D01*
X0042550Y0111387D02*
X0006397Y0111387D01*
X0006397Y0110389D02*
X0015614Y0110389D01*
X0012797Y0109390D02*
X0006397Y0109390D01*
X0006397Y0108392D02*
X0011244Y0108392D01*
X0009690Y0107393D02*
X0006397Y0107393D01*
X0006397Y0106394D02*
X0008542Y0106394D01*
X0007676Y0105396D02*
X0006397Y0105396D01*
X0006397Y0104397D02*
X0006811Y0104397D01*
X0025670Y0110389D02*
X0042550Y0110389D01*
X0042550Y0109390D02*
X0028486Y0109390D01*
X0030040Y0108392D02*
X0042550Y0108392D01*
X0043130Y0107393D02*
X0031593Y0107393D01*
X0032742Y0106394D02*
X0044129Y0106394D01*
X0045127Y0105396D02*
X0033607Y0105396D01*
X0034472Y0104397D02*
X0140800Y0104397D01*
X0140800Y0104631D02*
X0140800Y0103142D01*
X0145100Y0103142D01*
X0145100Y0102142D01*
X0146100Y0102142D01*
X0146100Y0097842D01*
X0147588Y0097842D01*
X0150400Y0100654D01*
X0150400Y0102142D01*
X0146100Y0102142D01*
X0146100Y0103142D01*
X0150400Y0103142D01*
X0150400Y0104631D01*
X0147588Y0107442D01*
X0146100Y0107442D01*
X0146100Y0103142D01*
X0145100Y0103142D01*
X0145100Y0107367D01*
X0146380Y0108647D01*
X0147400Y0111110D01*
X0147400Y0113775D01*
X0146380Y0116238D01*
X0144495Y0118122D01*
X0142033Y0119142D01*
X0139367Y0119142D01*
X0136905Y0118122D01*
X0135020Y0116238D01*
X0134000Y0113775D01*
X0134000Y0111110D01*
X0135020Y0108647D01*
X0136905Y0106762D01*
X0139367Y0105742D01*
X0141912Y0105742D01*
X0140800Y0104631D01*
X0141565Y0105396D02*
X0120873Y0105396D01*
X0119965Y0104488D02*
X0123450Y0107973D01*
X0123450Y0112902D01*
X0119965Y0116388D01*
X0115035Y0116388D01*
X0111550Y0112902D01*
X0111550Y0107973D01*
X0115035Y0104488D01*
X0119965Y0104488D01*
X0121871Y0106394D02*
X0137793Y0106394D01*
X0136274Y0107393D02*
X0122870Y0107393D01*
X0123450Y0108392D02*
X0135276Y0108392D01*
X0134712Y0109390D02*
X0123450Y0109390D01*
X0123450Y0110389D02*
X0134299Y0110389D01*
X0134000Y0111387D02*
X0123450Y0111387D01*
X0123450Y0112386D02*
X0134000Y0112386D01*
X0134000Y0113384D02*
X0122968Y0113384D01*
X0121970Y0114383D02*
X0134252Y0114383D01*
X0134665Y0115381D02*
X0120971Y0115381D01*
X0119973Y0116380D02*
X0135162Y0116380D01*
X0136161Y0117378D02*
X0107100Y0117378D01*
X0107100Y0116380D02*
X0115027Y0116380D01*
X0114029Y0115381D02*
X0107100Y0115381D01*
X0107970Y0114383D02*
X0113030Y0114383D01*
X0112032Y0113384D02*
X0108968Y0113384D01*
X0109450Y0112386D02*
X0111550Y0112386D01*
X0111550Y0111387D02*
X0109450Y0111387D01*
X0109450Y0110389D02*
X0111550Y0110389D01*
X0111550Y0109390D02*
X0109450Y0109390D01*
X0109450Y0108392D02*
X0111550Y0108392D01*
X0112130Y0107393D02*
X0108870Y0107393D01*
X0107871Y0106394D02*
X0113129Y0106394D01*
X0114127Y0105396D02*
X0106873Y0105396D01*
X0105103Y0097755D02*
X0102716Y0097755D01*
X0100511Y0096842D01*
X0098823Y0095154D01*
X0097909Y0092948D01*
X0097909Y0090562D01*
X0098823Y0088356D01*
X0100511Y0086668D01*
X0102716Y0085755D01*
X0105103Y0085755D01*
X0107308Y0086668D01*
X0108996Y0088356D01*
X0109909Y0090562D01*
X0109909Y0092948D01*
X0108996Y0095154D01*
X0107308Y0096842D01*
X0105103Y0097755D01*
X0105941Y0097408D02*
X0115658Y0097408D01*
X0113858Y0096409D02*
X0107740Y0096409D01*
X0108739Y0095411D02*
X0112860Y0095411D01*
X0112295Y0094412D02*
X0109303Y0094412D01*
X0109717Y0093414D02*
X0111882Y0093414D01*
X0111689Y0092415D02*
X0109909Y0092415D01*
X0109909Y0091417D02*
X0111689Y0091417D01*
X0111748Y0090418D02*
X0109850Y0090418D01*
X0109437Y0089420D02*
X0112162Y0089420D01*
X0112575Y0088421D02*
X0109023Y0088421D01*
X0108063Y0087423D02*
X0113536Y0087423D01*
X0114880Y0086424D02*
X0106719Y0086424D01*
X0101100Y0086424D02*
X0092939Y0086424D01*
X0094283Y0087423D02*
X0099756Y0087423D01*
X0098796Y0088421D02*
X0095243Y0088421D01*
X0095657Y0089420D02*
X0098382Y0089420D01*
X0097969Y0090418D02*
X0096071Y0090418D01*
X0096130Y0091417D02*
X0097909Y0091417D01*
X0097909Y0092415D02*
X0096130Y0092415D01*
X0095937Y0093414D02*
X0098102Y0093414D01*
X0098516Y0094412D02*
X0095524Y0094412D01*
X0094959Y0095411D02*
X0099080Y0095411D01*
X0100079Y0096409D02*
X0093961Y0096409D01*
X0092161Y0097408D02*
X0101878Y0097408D01*
X0087321Y0086424D02*
X0078066Y0086424D01*
X0076835Y0086424D02*
X0075866Y0086424D01*
X0075866Y0087423D02*
X0076835Y0087423D01*
X0076835Y0088421D02*
X0075866Y0088421D01*
X0075866Y0089420D02*
X0076835Y0089420D01*
X0076835Y0090418D02*
X0075866Y0090418D01*
X0079915Y0087423D02*
X0085977Y0087423D01*
X0085016Y0088421D02*
X0080850Y0088421D01*
X0081446Y0089420D02*
X0084603Y0089420D01*
X0059655Y0084427D02*
X0127613Y0084427D01*
X0123689Y0092415D02*
X0317547Y0092415D01*
X0316549Y0093414D02*
X0123496Y0093414D01*
X0123083Y0094412D02*
X0315550Y0094412D01*
X0314552Y0095411D02*
X0122518Y0095411D01*
X0121520Y0096409D02*
X0313800Y0096409D01*
X0313800Y0097408D02*
X0119720Y0097408D01*
X0140800Y0100654D02*
X0143612Y0097842D01*
X0145100Y0097842D01*
X0145100Y0102142D01*
X0140800Y0102142D01*
X0140800Y0100654D01*
X0141051Y0100403D02*
X0036798Y0100403D01*
X0037254Y0099405D02*
X0142049Y0099405D01*
X0143048Y0098406D02*
X0037651Y0098406D01*
X0037795Y0097408D02*
X0046760Y0097408D01*
X0044960Y0096409D02*
X0037939Y0096409D01*
X0038082Y0095411D02*
X0043962Y0095411D01*
X0043398Y0094412D02*
X0038226Y0094412D01*
X0038314Y0093414D02*
X0042984Y0093414D01*
X0042791Y0092415D02*
X0038171Y0092415D01*
X0038027Y0091417D02*
X0042791Y0091417D01*
X0042851Y0090418D02*
X0037883Y0090418D01*
X0037740Y0089420D02*
X0043264Y0089420D01*
X0043678Y0088421D02*
X0037535Y0088421D01*
X0037079Y0087423D02*
X0044638Y0087423D01*
X0045982Y0086424D02*
X0036623Y0086424D01*
X0036342Y0101402D02*
X0140800Y0101402D01*
X0140800Y0103399D02*
X0035338Y0103399D01*
X0035886Y0102400D02*
X0145100Y0102400D01*
X0145100Y0101402D02*
X0146100Y0101402D01*
X0146100Y0102400D02*
X0158200Y0102400D01*
X0158200Y0101402D02*
X0150400Y0101402D01*
X0150149Y0100403D02*
X0158285Y0100403D01*
X0158200Y0100488D02*
X0161246Y0097442D01*
X0165554Y0097442D01*
X0168600Y0100488D01*
X0168600Y0104796D01*
X0167654Y0105742D01*
X0169633Y0105742D01*
X0172095Y0106762D01*
X0173980Y0108647D01*
X0175000Y0111110D01*
X0175000Y0113775D01*
X0173980Y0116238D01*
X0172095Y0118122D01*
X0169633Y0119142D01*
X0166967Y0119142D01*
X0164505Y0118122D01*
X0162620Y0116238D01*
X0161600Y0113775D01*
X0161600Y0111110D01*
X0162620Y0108647D01*
X0163425Y0107842D01*
X0161246Y0107842D01*
X0158200Y0104796D01*
X0158200Y0100488D01*
X0159284Y0099405D02*
X0149151Y0099405D01*
X0148152Y0098406D02*
X0160282Y0098406D01*
X0158200Y0103399D02*
X0150400Y0103399D01*
X0150400Y0104397D02*
X0158200Y0104397D01*
X0158800Y0105396D02*
X0149635Y0105396D01*
X0148636Y0106394D02*
X0159798Y0106394D01*
X0160797Y0107393D02*
X0147638Y0107393D01*
X0146100Y0107393D02*
X0145126Y0107393D01*
X0145100Y0106394D02*
X0146100Y0106394D01*
X0146100Y0105396D02*
X0145100Y0105396D01*
X0145100Y0104397D02*
X0146100Y0104397D01*
X0146100Y0103399D02*
X0145100Y0103399D01*
X0145100Y0100403D02*
X0146100Y0100403D01*
X0146100Y0099405D02*
X0145100Y0099405D01*
X0145100Y0098406D02*
X0146100Y0098406D01*
X0146124Y0108392D02*
X0162876Y0108392D01*
X0162312Y0109390D02*
X0146688Y0109390D01*
X0147101Y0110389D02*
X0161899Y0110389D01*
X0161600Y0111387D02*
X0147400Y0111387D01*
X0147400Y0112386D02*
X0161600Y0112386D01*
X0161600Y0113384D02*
X0147400Y0113384D01*
X0147148Y0114383D02*
X0161852Y0114383D01*
X0162265Y0115381D02*
X0146735Y0115381D01*
X0146238Y0116380D02*
X0162762Y0116380D01*
X0163761Y0117378D02*
X0145239Y0117378D01*
X0143881Y0118377D02*
X0165119Y0118377D01*
X0171481Y0118377D02*
X0180353Y0118377D01*
X0180353Y0119375D02*
X0107100Y0119375D01*
X0107100Y0118377D02*
X0137519Y0118377D01*
X0168000Y0105396D02*
X0181840Y0105396D01*
X0182838Y0104397D02*
X0168600Y0104397D01*
X0168600Y0103399D02*
X0183837Y0103399D01*
X0184835Y0102400D02*
X0168600Y0102400D01*
X0168600Y0101402D02*
X0185834Y0101402D01*
X0186832Y0100403D02*
X0168515Y0100403D01*
X0167516Y0099405D02*
X0187831Y0099405D01*
X0188829Y0098406D02*
X0166518Y0098406D01*
X0171207Y0106394D02*
X0180841Y0106394D01*
X0180353Y0107393D02*
X0172726Y0107393D01*
X0173724Y0108392D02*
X0180353Y0108392D01*
X0180353Y0109390D02*
X0174288Y0109390D01*
X0174701Y0110389D02*
X0180353Y0110389D01*
X0180353Y0111387D02*
X0175000Y0111387D01*
X0175000Y0112386D02*
X0180353Y0112386D01*
X0180353Y0113384D02*
X0175000Y0113384D01*
X0174748Y0114383D02*
X0180353Y0114383D01*
X0180353Y0115381D02*
X0174335Y0115381D01*
X0173838Y0116380D02*
X0180353Y0116380D01*
X0180353Y0117378D02*
X0172839Y0117378D01*
X0180353Y0120374D02*
X0107100Y0120374D01*
X0107100Y0121372D02*
X0180353Y0121372D01*
X0180353Y0122371D02*
X0107100Y0122371D01*
X0107100Y0123369D02*
X0180353Y0123369D01*
X0181137Y0124368D02*
X0107100Y0124368D01*
X0107100Y0125366D02*
X0182136Y0125366D01*
X0183134Y0126365D02*
X0107100Y0126365D01*
X0107100Y0127363D02*
X0184133Y0127363D01*
X0184683Y0128362D02*
X0107100Y0128362D01*
X0107100Y0129360D02*
X0184683Y0129360D01*
X0184683Y0130359D02*
X0107100Y0130359D01*
X0107100Y0131357D02*
X0184683Y0131357D01*
X0184683Y0132356D02*
X0107100Y0132356D01*
X0107100Y0133354D02*
X0184683Y0133354D01*
X0184683Y0134353D02*
X0107100Y0134353D01*
X0107100Y0135351D02*
X0184683Y0135351D01*
X0184683Y0136350D02*
X0107100Y0136350D01*
X0107100Y0137348D02*
X0184683Y0137348D01*
X0184683Y0138347D02*
X0107100Y0138347D01*
X0107100Y0139345D02*
X0184683Y0139345D01*
X0184683Y0140344D02*
X0107100Y0140344D01*
X0107100Y0141342D02*
X0184683Y0141342D01*
X0184683Y0142341D02*
X0107100Y0142341D01*
X0107100Y0143339D02*
X0184683Y0143339D01*
X0184683Y0144338D02*
X0107100Y0144338D01*
X0107100Y0145336D02*
X0184683Y0145336D01*
X0184683Y0146335D02*
X0107100Y0146335D01*
X0107100Y0147333D02*
X0138407Y0147333D01*
X0135996Y0148332D02*
X0107100Y0148332D01*
X0107100Y0149330D02*
X0134903Y0149330D01*
X0133905Y0150329D02*
X0107100Y0150329D01*
X0107100Y0151327D02*
X0133304Y0151327D01*
X0132890Y0152326D02*
X0107100Y0152326D01*
X0107100Y0153325D02*
X0132476Y0153325D01*
X0132367Y0154323D02*
X0107100Y0154323D01*
X0107100Y0155322D02*
X0132367Y0155322D01*
X0132367Y0156320D02*
X0107100Y0156320D01*
X0107100Y0157319D02*
X0132594Y0157319D01*
X0133007Y0158317D02*
X0107100Y0158317D01*
X0107100Y0159316D02*
X0133421Y0159316D01*
X0134187Y0160314D02*
X0107100Y0160314D01*
X0107100Y0161313D02*
X0135186Y0161313D01*
X0136679Y0162311D02*
X0107100Y0162311D01*
X0142325Y0147333D02*
X0184683Y0147333D01*
X0184683Y0148332D02*
X0144736Y0148332D01*
X0145829Y0149330D02*
X0184683Y0149330D01*
X0184683Y0150329D02*
X0146828Y0150329D01*
X0147429Y0151327D02*
X0184683Y0151327D01*
X0184683Y0152326D02*
X0147842Y0152326D01*
X0148256Y0153325D02*
X0184683Y0153325D01*
X0184683Y0154323D02*
X0148365Y0154323D01*
X0194080Y0125366D02*
X0229893Y0125366D01*
X0228895Y0124368D02*
X0194080Y0124368D01*
X0194080Y0123369D02*
X0227896Y0123369D01*
X0226897Y0122371D02*
X0194080Y0122371D01*
X0194080Y0121372D02*
X0225899Y0121372D01*
X0224900Y0120374D02*
X0194080Y0120374D01*
X0194080Y0119375D02*
X0223902Y0119375D01*
X0222903Y0118377D02*
X0194080Y0118377D01*
X0194080Y0117378D02*
X0221905Y0117378D01*
X0220365Y0116380D02*
X0213596Y0116380D01*
X0215440Y0115381D02*
X0218521Y0115381D01*
X0217522Y0114383D02*
X0216438Y0114383D01*
X0216922Y0113384D02*
X0217038Y0113384D01*
X0217300Y0108392D02*
X0216660Y0108392D01*
X0215806Y0107393D02*
X0218154Y0107393D01*
X0219480Y0106394D02*
X0214480Y0106394D01*
X0213381Y0105396D02*
X0317483Y0105396D01*
X0316485Y0104397D02*
X0212382Y0104397D01*
X0211384Y0103399D02*
X0315486Y0103399D01*
X0314488Y0102400D02*
X0210385Y0102400D01*
X0209387Y0101402D02*
X0313800Y0101402D01*
X0313800Y0100403D02*
X0208388Y0100403D01*
X0207390Y0099405D02*
X0313800Y0099405D01*
X0313800Y0098406D02*
X0206391Y0098406D01*
X0224480Y0106394D02*
X0229480Y0106394D01*
X0228154Y0107393D02*
X0225806Y0107393D01*
X0226660Y0108392D02*
X0227300Y0108392D01*
X0227038Y0113384D02*
X0226922Y0113384D01*
X0226438Y0114383D02*
X0227522Y0114383D01*
X0226979Y0115381D02*
X0228521Y0115381D01*
X0227977Y0116380D02*
X0230365Y0116380D01*
X0210365Y0116380D02*
X0203596Y0116380D01*
X0205440Y0115381D02*
X0208521Y0115381D01*
X0207522Y0114383D02*
X0206438Y0114383D01*
X0206922Y0113384D02*
X0207038Y0113384D01*
X0200365Y0116380D02*
X0194080Y0116380D01*
X0195440Y0115381D02*
X0198521Y0115381D01*
X0197522Y0114383D02*
X0196438Y0114383D01*
X0196922Y0113384D02*
X0197038Y0113384D01*
X0224367Y0135351D02*
X0288878Y0135351D01*
X0287880Y0134353D02*
X0225365Y0134353D01*
X0223368Y0136350D02*
X0289877Y0136350D01*
X0290875Y0137348D02*
X0242147Y0137348D01*
X0243337Y0138347D02*
X0291874Y0138347D01*
X0292872Y0139345D02*
X0243819Y0139345D01*
X0243984Y0140344D02*
X0293871Y0140344D01*
X0293293Y0141342D02*
X0288901Y0141342D01*
X0290195Y0142341D02*
X0292295Y0142341D01*
X0291679Y0143339D02*
X0290914Y0143339D01*
X0287012Y0143339D02*
X0286043Y0143339D01*
X0286043Y0142341D02*
X0287012Y0142341D01*
X0287012Y0141342D02*
X0286043Y0141342D01*
X0284154Y0141342D02*
X0279762Y0141342D01*
X0280760Y0142341D02*
X0282860Y0142341D01*
X0282141Y0143339D02*
X0281376Y0143339D01*
X0281714Y0147333D02*
X0281786Y0147333D01*
X0282234Y0148332D02*
X0281301Y0148332D01*
X0280579Y0149330D02*
X0283042Y0149330D01*
X0284511Y0150329D02*
X0279571Y0150329D01*
X0278308Y0151327D02*
X0274747Y0151327D01*
X0275746Y0152326D02*
X0277310Y0152326D01*
X0276685Y0153325D02*
X0276370Y0153325D01*
X0273484Y0150329D02*
X0271747Y0150329D01*
X0271928Y0149330D02*
X0272477Y0149330D01*
X0268308Y0151327D02*
X0241916Y0151327D01*
X0241916Y0150329D02*
X0261308Y0150329D01*
X0261128Y0149330D02*
X0241996Y0149330D01*
X0242572Y0148332D02*
X0261128Y0148332D01*
X0261128Y0147333D02*
X0242737Y0147333D01*
X0242600Y0146335D02*
X0261128Y0146335D01*
X0261128Y0145336D02*
X0242600Y0145336D01*
X0242600Y0144338D02*
X0261128Y0144338D01*
X0261128Y0143339D02*
X0242600Y0143339D01*
X0243483Y0142341D02*
X0261128Y0142341D01*
X0261128Y0141342D02*
X0243897Y0141342D01*
X0238400Y0143339D02*
X0216379Y0143339D01*
X0215630Y0144338D02*
X0238400Y0144338D01*
X0238400Y0145336D02*
X0215630Y0145336D01*
X0215630Y0146335D02*
X0238400Y0146335D01*
X0238274Y0147333D02*
X0215630Y0147333D01*
X0215630Y0148332D02*
X0237716Y0148332D01*
X0237626Y0149330D02*
X0215630Y0149330D01*
X0215630Y0150329D02*
X0237716Y0150329D01*
X0237659Y0151327D02*
X0215630Y0151327D01*
X0215630Y0152326D02*
X0237716Y0152326D01*
X0237833Y0153325D02*
X0215630Y0153325D01*
X0215630Y0154323D02*
X0237833Y0154323D01*
X0237833Y0155322D02*
X0215630Y0155322D01*
X0215630Y0156320D02*
X0237833Y0156320D01*
X0237833Y0157319D02*
X0215630Y0157319D01*
X0215630Y0158317D02*
X0237833Y0158317D01*
X0237833Y0159316D02*
X0215630Y0159316D01*
X0215630Y0160314D02*
X0237833Y0160314D01*
X0237833Y0161313D02*
X0215630Y0161313D01*
X0215630Y0162311D02*
X0237833Y0162311D01*
X0237833Y0163310D02*
X0215630Y0163310D01*
X0215630Y0164308D02*
X0237833Y0164308D01*
X0237833Y0165307D02*
X0215630Y0165307D01*
X0215630Y0166305D02*
X0237833Y0166305D01*
X0237833Y0167304D02*
X0215630Y0167304D01*
X0215630Y0168302D02*
X0237833Y0168302D01*
X0237833Y0169301D02*
X0215630Y0169301D01*
X0215630Y0170299D02*
X0237833Y0170299D01*
X0237833Y0171298D02*
X0215630Y0171298D01*
X0215630Y0172296D02*
X0237833Y0172296D01*
X0237833Y0173295D02*
X0215630Y0173295D01*
X0215630Y0174293D02*
X0237833Y0174293D01*
X0237833Y0175292D02*
X0215630Y0175292D01*
X0215630Y0176290D02*
X0237833Y0176290D01*
X0237833Y0177289D02*
X0215630Y0177289D01*
X0215630Y0178287D02*
X0237833Y0178287D01*
X0237833Y0179286D02*
X0215630Y0179286D01*
X0215630Y0180284D02*
X0237833Y0180284D01*
X0237833Y0181283D02*
X0215630Y0181283D01*
X0215630Y0182281D02*
X0237833Y0182281D01*
X0237833Y0183280D02*
X0215630Y0183280D01*
X0215630Y0184278D02*
X0237833Y0184278D01*
X0237833Y0185277D02*
X0215630Y0185277D01*
X0215630Y0186275D02*
X0237833Y0186275D01*
X0237833Y0187274D02*
X0215630Y0187274D01*
X0215630Y0188272D02*
X0237833Y0188272D01*
X0237833Y0189271D02*
X0215630Y0189271D01*
X0215630Y0190269D02*
X0237833Y0190269D01*
X0237833Y0191268D02*
X0215630Y0191268D01*
X0215630Y0192266D02*
X0237833Y0192266D01*
X0237833Y0193265D02*
X0215630Y0193265D01*
X0215630Y0194263D02*
X0237833Y0194263D01*
X0237833Y0195262D02*
X0215630Y0195262D01*
X0215630Y0196261D02*
X0237833Y0196261D01*
X0237833Y0197259D02*
X0215630Y0197259D01*
X0215630Y0198258D02*
X0237833Y0198258D01*
X0237833Y0199256D02*
X0215630Y0199256D01*
X0215630Y0200255D02*
X0237833Y0200255D01*
X0237833Y0201253D02*
X0215630Y0201253D01*
X0215630Y0202252D02*
X0237833Y0202252D01*
X0237833Y0203250D02*
X0215630Y0203250D01*
X0215630Y0204249D02*
X0237833Y0204249D01*
X0237833Y0205247D02*
X0215630Y0205247D01*
X0215630Y0206246D02*
X0237833Y0206246D01*
X0237833Y0207244D02*
X0215630Y0207244D01*
X0215630Y0208243D02*
X0237833Y0208243D01*
X0237833Y0209241D02*
X0215630Y0209241D01*
X0215630Y0210240D02*
X0237833Y0210240D01*
X0237833Y0211238D02*
X0215630Y0211238D01*
X0215630Y0212237D02*
X0237833Y0212237D01*
X0237833Y0213235D02*
X0215630Y0213235D01*
X0215630Y0214234D02*
X0237833Y0214234D01*
X0237833Y0215232D02*
X0215630Y0215232D01*
X0215630Y0216231D02*
X0237833Y0216231D01*
X0237833Y0217229D02*
X0215630Y0217229D01*
X0215630Y0218228D02*
X0237833Y0218228D01*
X0237833Y0219226D02*
X0215630Y0219226D01*
X0215630Y0220225D02*
X0237833Y0220225D01*
X0237833Y0221223D02*
X0215630Y0221223D01*
X0215630Y0222222D02*
X0237833Y0222222D01*
X0237833Y0223220D02*
X0224483Y0223220D01*
X0226481Y0224219D02*
X0230528Y0224219D01*
X0229346Y0225217D02*
X0227479Y0225217D01*
X0228027Y0226216D02*
X0228684Y0226216D01*
X0232630Y0226216D02*
X0233630Y0226216D01*
X0233630Y0227214D02*
X0232630Y0227214D01*
X0232630Y0225217D02*
X0233630Y0225217D01*
X0233630Y0224219D02*
X0232630Y0224219D01*
X0235732Y0224219D02*
X0237833Y0224219D01*
X0237833Y0225217D02*
X0236914Y0225217D01*
X0237575Y0226216D02*
X0237833Y0226216D01*
X0237833Y0231208D02*
X0237346Y0231208D01*
X0237833Y0232207D02*
X0236499Y0232207D01*
X0237833Y0233205D02*
X0234843Y0233205D01*
X0233630Y0233205D02*
X0232630Y0233205D01*
X0232630Y0232207D02*
X0233630Y0232207D01*
X0233630Y0231208D02*
X0232630Y0231208D01*
X0232630Y0230210D02*
X0233630Y0230210D01*
X0233630Y0229211D02*
X0232630Y0229211D01*
X0229761Y0232207D02*
X0227064Y0232207D01*
X0227855Y0231208D02*
X0228914Y0231208D01*
X0228427Y0230210D02*
X0228268Y0230210D01*
X0225892Y0233205D02*
X0231417Y0233205D01*
X0220368Y0233205D02*
X0215892Y0233205D01*
X0217064Y0232207D02*
X0219195Y0232207D01*
X0218405Y0231208D02*
X0217855Y0231208D01*
X0218027Y0226216D02*
X0218233Y0226216D01*
X0218780Y0225217D02*
X0217479Y0225217D01*
X0216481Y0224219D02*
X0219779Y0224219D01*
X0221776Y0223220D02*
X0215630Y0223220D01*
X0242033Y0246186D02*
X0242238Y0246186D01*
X0293040Y0184278D02*
X0301871Y0184278D01*
X0300872Y0183280D02*
X0294585Y0183280D01*
X0295215Y0182281D02*
X0299874Y0182281D01*
X0298875Y0181283D02*
X0295484Y0181283D01*
X0295484Y0180284D02*
X0297877Y0180284D01*
X0296878Y0179286D02*
X0295087Y0179286D01*
X0295880Y0178287D02*
X0294277Y0178287D01*
X0294881Y0177289D02*
X0292942Y0177289D01*
X0293883Y0176290D02*
X0291990Y0176290D01*
X0292884Y0175292D02*
X0291038Y0175292D01*
X0291886Y0174293D02*
X0290086Y0174293D01*
X0290887Y0173295D02*
X0289134Y0173295D01*
X0289889Y0172296D02*
X0288182Y0172296D01*
X0288890Y0171298D02*
X0287230Y0171298D01*
X0287892Y0170299D02*
X0286278Y0170299D01*
X0286893Y0169301D02*
X0285326Y0169301D01*
X0285895Y0168302D02*
X0284374Y0168302D01*
X0284896Y0167304D02*
X0283422Y0167304D01*
X0283898Y0166305D02*
X0282470Y0166305D01*
X0282899Y0165307D02*
X0281518Y0165307D01*
X0281901Y0164308D02*
X0280566Y0164308D01*
X0280902Y0163310D02*
X0279614Y0163310D01*
X0279904Y0162311D02*
X0278662Y0162311D01*
X0277710Y0161313D02*
X0279900Y0161313D01*
X0278460Y0160314D02*
X0276758Y0160314D01*
X0277462Y0159316D02*
X0275806Y0159316D01*
X0276307Y0158317D02*
X0276748Y0158317D01*
X0270772Y0163310D02*
X0242033Y0163310D01*
X0242033Y0164308D02*
X0271724Y0164308D01*
X0272676Y0165307D02*
X0242033Y0165307D01*
X0242033Y0166305D02*
X0273628Y0166305D01*
X0274580Y0167304D02*
X0242033Y0167304D01*
X0242033Y0168302D02*
X0275532Y0168302D01*
X0276484Y0169301D02*
X0242033Y0169301D01*
X0242033Y0170299D02*
X0277436Y0170299D01*
X0277212Y0171298D02*
X0242033Y0171298D01*
X0242033Y0172296D02*
X0276409Y0172296D01*
X0276016Y0173295D02*
X0242033Y0173295D01*
X0242033Y0174293D02*
X0276016Y0174293D01*
X0276290Y0175292D02*
X0242033Y0175292D01*
X0242033Y0176290D02*
X0276925Y0176290D01*
X0269820Y0162311D02*
X0242033Y0162311D01*
X0242033Y0161313D02*
X0268849Y0161313D01*
X0268416Y0160314D02*
X0242033Y0160314D01*
X0242033Y0159316D02*
X0267462Y0159316D01*
X0266748Y0158317D02*
X0242033Y0158317D01*
X0242033Y0157319D02*
X0266335Y0157319D01*
X0266128Y0156320D02*
X0242033Y0156320D01*
X0242033Y0155322D02*
X0266128Y0155322D01*
X0266272Y0154323D02*
X0242033Y0154323D01*
X0242092Y0153325D02*
X0266685Y0153325D01*
X0267310Y0152326D02*
X0242033Y0152326D01*
X0237517Y0142341D02*
X0217377Y0142341D01*
X0218376Y0141342D02*
X0237103Y0141342D01*
X0237016Y0140344D02*
X0219374Y0140344D01*
X0220373Y0139345D02*
X0237181Y0139345D01*
X0237663Y0138347D02*
X0221371Y0138347D01*
X0222370Y0137348D02*
X0238853Y0137348D01*
X0271928Y0141342D02*
X0273293Y0141342D01*
X0272295Y0142341D02*
X0271928Y0142341D01*
X0286043Y0144338D02*
X0287012Y0144338D01*
X0287012Y0146335D02*
X0286043Y0146335D01*
X0286043Y0147333D02*
X0287012Y0147333D01*
X0287012Y0148332D02*
X0286043Y0148332D01*
X0286043Y0149330D02*
X0287012Y0149330D01*
X0287012Y0150329D02*
X0286043Y0150329D01*
X0284747Y0151327D02*
X0288308Y0151327D01*
X0288544Y0150329D02*
X0293484Y0150329D01*
X0292477Y0149330D02*
X0290013Y0149330D01*
X0290821Y0148332D02*
X0291754Y0148332D01*
X0291341Y0147333D02*
X0291269Y0147333D01*
X0294747Y0151327D02*
X0298308Y0151327D01*
X0297310Y0152326D02*
X0295746Y0152326D01*
X0296370Y0153325D02*
X0296685Y0153325D01*
X0287310Y0152326D02*
X0285746Y0152326D01*
X0286370Y0153325D02*
X0286685Y0153325D01*
X0367222Y0116380D02*
X0395910Y0116380D01*
X0395910Y0109390D02*
X0389510Y0109390D01*
X0391063Y0108392D02*
X0395910Y0108392D01*
X0395910Y0107393D02*
X0392617Y0107393D01*
X0393766Y0106394D02*
X0395910Y0106394D01*
X0395910Y0105396D02*
X0394631Y0105396D01*
X0395496Y0104397D02*
X0395910Y0104397D01*
X0149858Y0246186D02*
X0139969Y0246186D01*
X0060027Y0116380D02*
X0050973Y0116380D01*
X0051971Y0115381D02*
X0059029Y0115381D01*
X0058030Y0114383D02*
X0052970Y0114383D01*
X0053968Y0113384D02*
X0057032Y0113384D01*
X0056550Y0112386D02*
X0054450Y0112386D01*
X0054450Y0111387D02*
X0056550Y0111387D01*
X0056550Y0110389D02*
X0054450Y0110389D01*
X0054450Y0109390D02*
X0056550Y0109390D01*
X0056550Y0108392D02*
X0054450Y0108392D01*
X0053870Y0107393D02*
X0057130Y0107393D01*
X0058129Y0106394D02*
X0052871Y0106394D01*
X0051873Y0105396D02*
X0059127Y0105396D01*
D30*
X0271528Y0155745D02*
X0271528Y0159465D01*
X0292000Y0180938D01*
X0064500Y0252438D02*
X0024500Y0252438D01*
M02*
