G75*
%MOIN*%
%OFA0B0*%
%FSLAX25Y25*%
%IPPOS*%
%LPD*%
%AMOC8*
5,1,8,0,0,1.08239X$1,22.5*
%
%ADD10C,0.01100*%
%ADD11C,0.00900*%
%ADD12R,0.07500X0.07500*%
%ADD13C,0.01600*%
%ADD14C,0.00500*%
%ADD15C,0.00600*%
%ADD16R,0.00025X0.00025*%
%ADD17R,0.00050X0.00025*%
%ADD18R,0.00075X0.00025*%
%ADD19R,0.00100X0.00025*%
%ADD20R,0.00225X0.00025*%
%ADD21R,0.00100X0.00025*%
%ADD22R,0.00350X0.00025*%
%ADD23R,0.00150X0.00025*%
%ADD24R,0.00425X0.00025*%
%ADD25R,0.00175X0.00025*%
%ADD26R,0.00500X0.00025*%
%ADD27R,0.00200X0.00025*%
%ADD28R,0.00550X0.00025*%
%ADD29R,0.00025X0.00025*%
%ADD30R,0.00200X0.00025*%
%ADD31R,0.00600X0.00025*%
%ADD32R,0.00250X0.00025*%
%ADD33R,0.00675X0.00025*%
%ADD34R,0.00275X0.00025*%
%ADD35R,0.00725X0.00025*%
%ADD36R,0.00050X0.00025*%
%ADD37R,0.00325X0.00025*%
%ADD38R,0.00775X0.00025*%
%ADD39R,0.00075X0.00025*%
%ADD40R,0.00325X0.00025*%
%ADD41R,0.00825X0.00025*%
%ADD42R,0.00075X0.00025*%
%ADD43R,0.00450X0.00025*%
%ADD44R,0.01200X0.00025*%
%ADD45R,0.00275X0.00025*%
%ADD46R,0.00125X0.00025*%
%ADD47R,0.00125X0.00025*%
%ADD48R,0.00575X0.00025*%
%ADD49R,0.00600X0.00025*%
%ADD50R,0.00025X0.00025*%
%ADD51R,0.01225X0.00025*%
%ADD52R,0.00325X0.00025*%
%ADD53R,0.00150X0.00025*%
%ADD54R,0.00175X0.00025*%
%ADD55R,0.00650X0.00025*%
%ADD56R,0.00825X0.00025*%
%ADD57R,0.01225X0.00025*%
%ADD58R,0.00650X0.00025*%
%ADD59R,0.00350X0.00025*%
%ADD60R,0.00175X0.00025*%
%ADD61R,0.00975X0.00025*%
%ADD62R,0.01050X0.00025*%
%ADD63R,0.01250X0.00025*%
%ADD64R,0.01000X0.00025*%
%ADD65R,0.00400X0.00025*%
%ADD66R,0.00225X0.00025*%
%ADD67R,0.01175X0.00025*%
%ADD68R,0.00125X0.00025*%
%ADD69R,0.01325X0.00025*%
%ADD70R,0.00475X0.00025*%
%ADD71R,0.01025X0.00025*%
%ADD72R,0.01275X0.00025*%
%ADD73R,0.00375X0.00025*%
%ADD74R,0.02750X0.00025*%
%ADD75R,0.00900X0.00025*%
%ADD76R,0.01100X0.00025*%
%ADD77R,0.01400X0.00025*%
%ADD78R,0.00700X0.00025*%
%ADD79R,0.02775X0.00025*%
%ADD80R,0.00950X0.00025*%
%ADD81R,0.01175X0.00025*%
%ADD82R,0.01600X0.00025*%
%ADD83R,0.00725X0.00025*%
%ADD84R,0.02850X0.00025*%
%ADD85R,0.02825X0.00025*%
%ADD86R,0.00750X0.00025*%
%ADD87R,0.02900X0.00025*%
%ADD88R,0.00075X0.00025*%
%ADD89R,0.02850X0.00025*%
%ADD90R,0.00800X0.00025*%
%ADD91R,0.03000X0.00025*%
%ADD92R,0.00250X0.00025*%
%ADD93R,0.00850X0.00025*%
%ADD94R,0.04600X0.00025*%
%ADD95R,0.00875X0.00025*%
%ADD96R,0.04575X0.00025*%
%ADD97R,0.00875X0.00025*%
%ADD98R,0.04550X0.00025*%
%ADD99R,0.00775X0.00025*%
%ADD100R,0.00900X0.00025*%
%ADD101R,0.04475X0.00025*%
%ADD102R,0.00800X0.00025*%
%ADD103R,0.04425X0.00025*%
%ADD104R,0.00825X0.00025*%
%ADD105R,0.00175X0.00025*%
%ADD106R,0.02825X0.00025*%
%ADD107R,0.00925X0.00025*%
%ADD108R,0.04400X0.00025*%
%ADD109R,0.02800X0.00025*%
%ADD110R,0.00950X0.00025*%
%ADD111R,0.04350X0.00025*%
%ADD112R,0.00850X0.00025*%
%ADD113R,0.00750X0.00025*%
%ADD114R,0.00450X0.00025*%
%ADD115R,0.04000X0.00025*%
%ADD116R,0.04250X0.00025*%
%ADD117R,0.01025X0.00025*%
%ADD118R,0.03550X0.00025*%
%ADD119R,0.04150X0.00025*%
%ADD120R,0.01150X0.00025*%
%ADD121R,0.01075X0.00025*%
%ADD122R,0.03525X0.00025*%
%ADD123R,0.03975X0.00025*%
%ADD124R,0.00925X0.00025*%
%ADD125R,0.01275X0.00025*%
%ADD126R,0.01125X0.00025*%
%ADD127R,0.03525X0.00025*%
%ADD128R,0.03800X0.00025*%
%ADD129R,0.02425X0.00025*%
%ADD130R,0.03475X0.00025*%
%ADD131R,0.02525X0.00025*%
%ADD132R,0.02475X0.00025*%
%ADD133R,0.01325X0.00025*%
%ADD134R,0.03475X0.00025*%
%ADD135R,0.02275X0.00025*%
%ADD136R,0.02625X0.00025*%
%ADD137R,0.01575X0.00025*%
%ADD138R,0.00300X0.00025*%
%ADD139R,0.02750X0.00025*%
%ADD140R,0.00625X0.00025*%
%ADD141R,0.01950X0.00025*%
%ADD142R,0.04350X0.00025*%
%ADD143R,0.03050X0.00025*%
%ADD144R,0.01925X0.00025*%
%ADD145R,0.04325X0.00025*%
%ADD146R,0.02925X0.00025*%
%ADD147R,0.01975X0.00025*%
%ADD148R,0.04275X0.00025*%
%ADD149R,0.02925X0.00025*%
%ADD150R,0.00225X0.00025*%
%ADD151R,0.02100X0.00025*%
%ADD152R,0.04200X0.00025*%
%ADD153R,0.03250X0.00025*%
%ADD154R,0.02200X0.00025*%
%ADD155R,0.04150X0.00025*%
%ADD156R,0.03200X0.00025*%
%ADD157R,0.02450X0.00025*%
%ADD158R,0.04100X0.00025*%
%ADD159R,0.03200X0.00025*%
%ADD160R,0.03125X0.00025*%
%ADD161R,0.03175X0.00025*%
%ADD162R,0.03175X0.00025*%
%ADD163R,0.03750X0.00025*%
%ADD164R,0.03150X0.00025*%
%ADD165R,0.03225X0.00025*%
%ADD166R,0.03750X0.00025*%
%ADD167R,0.03150X0.00025*%
%ADD168R,0.02725X0.00025*%
%ADD169R,0.03275X0.00025*%
%ADD170R,0.02700X0.00025*%
%ADD171R,0.01825X0.00025*%
%ADD172R,0.01225X0.00025*%
%ADD173R,0.03300X0.00025*%
%ADD174R,0.02675X0.00025*%
%ADD175R,0.03725X0.00025*%
%ADD176R,0.02675X0.00025*%
%ADD177R,0.01075X0.00025*%
%ADD178R,0.01000X0.00025*%
%ADD179R,0.02775X0.00025*%
%ADD180R,0.00525X0.00025*%
%ADD181R,0.03775X0.00025*%
%ADD182R,0.02925X0.00025*%
%ADD183R,0.00300X0.00025*%
%ADD184R,0.00425X0.00025*%
%ADD185R,0.03775X0.00025*%
%ADD186R,0.02975X0.00025*%
%ADD187R,0.00425X0.00025*%
%ADD188R,0.00575X0.00025*%
%ADD189R,0.03100X0.00025*%
%ADD190R,0.01025X0.00025*%
%ADD191R,0.00675X0.00025*%
%ADD192R,0.02800X0.00025*%
%ADD193R,0.03225X0.00025*%
%ADD194R,0.01750X0.00025*%
%ADD195R,0.03275X0.00025*%
%ADD196R,0.00725X0.00025*%
%ADD197R,0.01575X0.00025*%
%ADD198R,0.03350X0.00025*%
%ADD199R,0.00700X0.00025*%
%ADD200R,0.01550X0.00025*%
%ADD201R,0.01575X0.00025*%
%ADD202R,0.01600X0.00025*%
%ADD203R,0.01500X0.00025*%
%ADD204R,0.01475X0.00025*%
%ADD205R,0.01550X0.00025*%
%ADD206R,0.00625X0.00025*%
%ADD207R,0.01475X0.00025*%
%ADD208R,0.01425X0.00025*%
%ADD209R,0.01450X0.00025*%
%ADD210R,0.01475X0.00025*%
%ADD211R,0.01425X0.00025*%
%ADD212R,0.01425X0.00025*%
%ADD213R,0.00675X0.00025*%
%ADD214R,0.01700X0.00025*%
%ADD215R,0.01425X0.00025*%
%ADD216R,0.00675X0.00025*%
%ADD217R,0.01450X0.00025*%
%ADD218R,0.01650X0.00025*%
%ADD219R,0.01400X0.00025*%
%ADD220R,0.01625X0.00025*%
%ADD221R,0.01500X0.00025*%
%ADD222R,0.00025X0.00025*%
%ADD223R,0.00625X0.00025*%
%ADD224R,0.01375X0.00025*%
%ADD225R,0.00825X0.00025*%
%ADD226R,0.01375X0.00025*%
%ADD227R,0.00625X0.00025*%
%ADD228R,0.01375X0.00025*%
%ADD229R,0.00775X0.00025*%
%ADD230R,0.01350X0.00025*%
%ADD231R,0.01350X0.00025*%
%ADD232R,0.01025X0.00025*%
%ADD233R,0.00575X0.00025*%
%ADD234R,0.00550X0.00025*%
%ADD235R,0.00475X0.00025*%
%ADD236R,0.01050X0.00025*%
%ADD237R,0.00525X0.00025*%
%ADD238R,0.00500X0.00025*%
%ADD239R,0.01325X0.00025*%
%ADD240R,0.01525X0.00025*%
%ADD241R,0.01300X0.00025*%
%ADD242R,0.01300X0.00025*%
%ADD243R,0.00275X0.00025*%
%ADD244R,0.01075X0.00025*%
%ADD245R,0.00275X0.00025*%
%ADD246R,0.01075X0.00025*%
%ADD247R,0.01675X0.00025*%
%ADD248R,0.01725X0.00025*%
%ADD249R,0.00225X0.00025*%
%ADD250R,0.01800X0.00025*%
%ADD251R,0.01100X0.00025*%
%ADD252R,0.01875X0.00025*%
%ADD253R,0.01325X0.00025*%
%ADD254R,0.01900X0.00025*%
%ADD255R,0.02000X0.00025*%
%ADD256R,0.00525X0.00025*%
%ADD257R,0.01125X0.00025*%
%ADD258R,0.00125X0.00025*%
%ADD259R,0.02725X0.00025*%
%ADD260R,0.01125X0.00025*%
%ADD261R,0.02725X0.00025*%
%ADD262R,0.01150X0.00025*%
%ADD263R,0.02675X0.00025*%
%ADD264R,0.02650X0.00025*%
%ADD265R,0.02650X0.00025*%
%ADD266R,0.01175X0.00025*%
%ADD267R,0.02600X0.00025*%
%ADD268R,0.02600X0.00025*%
%ADD269R,0.01200X0.00025*%
%ADD270R,0.01225X0.00025*%
%ADD271R,0.00375X0.00025*%
%ADD272R,0.02550X0.00025*%
%ADD273R,0.01275X0.00025*%
%ADD274R,0.02550X0.00025*%
%ADD275R,0.00400X0.00025*%
%ADD276R,0.02525X0.00025*%
%ADD277R,0.00425X0.00025*%
%ADD278R,0.02500X0.00025*%
%ADD279R,0.02475X0.00025*%
%ADD280R,0.01525X0.00025*%
%ADD281R,0.02450X0.00025*%
%ADD282R,0.01525X0.00025*%
%ADD283R,0.02425X0.00025*%
%ADD284R,0.01625X0.00025*%
%ADD285R,0.02425X0.00025*%
%ADD286R,0.02400X0.00025*%
%ADD287R,0.01475X0.00025*%
%ADD288R,0.02400X0.00025*%
%ADD289R,0.01575X0.00025*%
%ADD290R,0.02500X0.00025*%
%ADD291R,0.03050X0.00025*%
%ADD292R,0.03075X0.00025*%
%ADD293R,0.02275X0.00025*%
%ADD294R,0.03075X0.00025*%
%ADD295R,0.03075X0.00025*%
%ADD296R,0.02325X0.00025*%
%ADD297R,0.02525X0.00025*%
%ADD298R,0.02350X0.00025*%
%ADD299R,0.03100X0.00025*%
%ADD300R,0.00475X0.00025*%
%ADD301R,0.03125X0.00025*%
%ADD302R,0.03125X0.00025*%
%ADD303R,0.02875X0.00025*%
%ADD304R,0.02625X0.00025*%
%ADD305R,0.02875X0.00025*%
%ADD306R,0.03025X0.00025*%
%ADD307R,0.00575X0.00025*%
%ADD308R,0.03225X0.00025*%
%ADD309R,0.03075X0.00025*%
%ADD310R,0.03300X0.00025*%
%ADD311R,0.03125X0.00025*%
%ADD312R,0.03325X0.00025*%
%ADD313R,0.03375X0.00025*%
%ADD314R,0.03000X0.00025*%
%ADD315R,0.03400X0.00025*%
%ADD316R,0.03400X0.00025*%
%ADD317R,0.03425X0.00025*%
%ADD318R,0.03250X0.00025*%
%ADD319R,0.02950X0.00025*%
%ADD320R,0.03425X0.00025*%
%ADD321R,0.03275X0.00025*%
%ADD322R,0.03450X0.00025*%
%ADD323R,0.02900X0.00025*%
%ADD324R,0.03425X0.00025*%
%ADD325R,0.03325X0.00025*%
%ADD326R,0.03350X0.00025*%
%ADD327R,0.03375X0.00025*%
%ADD328R,0.03500X0.00025*%
%ADD329R,0.03325X0.00025*%
%ADD330R,0.03550X0.00025*%
%ADD331R,0.03625X0.00025*%
%ADD332R,0.02725X0.00025*%
%ADD333R,0.03650X0.00025*%
%ADD334R,0.02700X0.00025*%
%ADD335R,0.01625X0.00025*%
%ADD336R,0.02675X0.00025*%
%ADD337R,0.01675X0.00025*%
%ADD338R,0.03775X0.00025*%
%ADD339R,0.01725X0.00025*%
%ADD340R,0.03825X0.00025*%
%ADD341R,0.01775X0.00025*%
%ADD342R,0.03875X0.00025*%
%ADD343R,0.02925X0.00025*%
%ADD344R,0.01850X0.00025*%
%ADD345R,0.03925X0.00025*%
%ADD346R,0.05875X0.00025*%
%ADD347R,0.02575X0.00025*%
%ADD348R,0.05925X0.00025*%
%ADD349R,0.02575X0.00025*%
%ADD350R,0.06000X0.00025*%
%ADD351R,0.02575X0.00025*%
%ADD352R,0.06025X0.00025*%
%ADD353R,0.06075X0.00025*%
%ADD354R,0.06125X0.00025*%
%ADD355R,0.06200X0.00025*%
%ADD356R,0.06250X0.00025*%
%ADD357R,0.06300X0.00025*%
%ADD358R,0.06350X0.00025*%
%ADD359R,0.02575X0.00025*%
%ADD360R,0.06425X0.00025*%
%ADD361R,0.06450X0.00025*%
%ADD362R,0.02475X0.00025*%
%ADD363R,0.06500X0.00025*%
%ADD364R,0.06550X0.00025*%
%ADD365R,0.06625X0.00025*%
%ADD366R,0.06700X0.00025*%
%ADD367R,0.06775X0.00025*%
%ADD368R,0.02375X0.00025*%
%ADD369R,0.06850X0.00025*%
%ADD370R,0.02375X0.00025*%
%ADD371R,0.06900X0.00025*%
%ADD372R,0.07000X0.00025*%
%ADD373R,0.02350X0.00025*%
%ADD374R,0.02325X0.00025*%
%ADD375R,0.07125X0.00025*%
%ADD376R,0.02300X0.00025*%
%ADD377R,0.09525X0.00025*%
%ADD378R,0.09550X0.00025*%
%ADD379R,0.02250X0.00025*%
%ADD380R,0.09550X0.00025*%
%ADD381R,0.02225X0.00025*%
%ADD382R,0.09600X0.00025*%
%ADD383R,0.02225X0.00025*%
%ADD384R,0.09600X0.00025*%
%ADD385R,0.09625X0.00025*%
%ADD386R,0.02175X0.00025*%
%ADD387R,0.09625X0.00025*%
%ADD388R,0.02150X0.00025*%
%ADD389R,0.09675X0.00025*%
%ADD390R,0.02150X0.00025*%
%ADD391R,0.09675X0.00025*%
%ADD392R,0.02125X0.00025*%
%ADD393R,0.09700X0.00025*%
%ADD394R,0.02100X0.00025*%
%ADD395R,0.09725X0.00025*%
%ADD396R,0.02075X0.00025*%
%ADD397R,0.09750X0.00025*%
%ADD398R,0.02050X0.00025*%
%ADD399R,0.09775X0.00025*%
%ADD400R,0.02050X0.00025*%
%ADD401R,0.09775X0.00025*%
%ADD402R,0.09825X0.00025*%
%ADD403R,0.09825X0.00025*%
%ADD404R,0.09875X0.00025*%
%ADD405R,0.09900X0.00025*%
%ADD406R,0.09900X0.00025*%
%ADD407R,0.09950X0.00025*%
%ADD408R,0.09975X0.00025*%
%ADD409R,0.10025X0.00025*%
%ADD410R,0.10075X0.00025*%
%ADD411R,0.10100X0.00025*%
%ADD412R,0.02125X0.00025*%
%ADD413R,0.10125X0.00025*%
%ADD414R,0.02125X0.00025*%
%ADD415R,0.10175X0.00025*%
%ADD416R,0.10200X0.00025*%
%ADD417R,0.02175X0.00025*%
%ADD418R,0.10275X0.00025*%
%ADD419R,0.10325X0.00025*%
%ADD420R,0.10400X0.00025*%
%ADD421R,0.02300X0.00025*%
%ADD422R,0.12725X0.00025*%
%ADD423R,0.12725X0.00025*%
%ADD424R,0.01800X0.00025*%
%ADD425R,0.02025X0.00025*%
%ADD426R,0.12725X0.00025*%
%ADD427R,0.15225X0.00025*%
%ADD428R,0.15275X0.00025*%
%ADD429R,0.15325X0.00025*%
%ADD430R,0.15400X0.00025*%
%ADD431R,0.15425X0.00025*%
%ADD432R,0.15475X0.00025*%
%ADD433R,0.15500X0.00025*%
%ADD434R,0.15550X0.00025*%
%ADD435R,0.15600X0.00025*%
%ADD436R,0.15625X0.00025*%
%ADD437R,0.15650X0.00025*%
%ADD438R,0.15675X0.00025*%
%ADD439R,0.15750X0.00025*%
%ADD440R,0.15775X0.00025*%
%ADD441R,0.15800X0.00025*%
%ADD442R,0.15800X0.00025*%
%ADD443R,0.15825X0.00025*%
%ADD444R,0.15875X0.00025*%
%ADD445R,0.15900X0.00025*%
%ADD446R,0.15925X0.00025*%
%ADD447R,0.15925X0.00025*%
%ADD448R,0.03700X0.00025*%
%ADD449R,0.12250X0.00025*%
%ADD450R,0.12250X0.00025*%
%ADD451R,0.03725X0.00025*%
%ADD452R,0.12225X0.00025*%
%ADD453R,0.03775X0.00025*%
%ADD454R,0.02025X0.00025*%
%ADD455R,0.02075X0.00025*%
%ADD456R,0.02075X0.00025*%
%ADD457R,0.12225X0.00025*%
%ADD458R,0.12200X0.00025*%
%ADD459R,0.12225X0.00025*%
%ADD460R,0.12175X0.00025*%
%ADD461R,0.12175X0.00025*%
%ADD462R,0.02175X0.00025*%
%ADD463R,0.09675X0.00025*%
%ADD464R,0.02200X0.00025*%
%ADD465R,0.00325X0.00025*%
%ADD466R,0.02225X0.00025*%
%ADD467R,0.09375X0.00025*%
%ADD468R,0.09175X0.00025*%
%ADD469R,0.00525X0.00025*%
%ADD470R,0.00975X0.00025*%
%ADD471R,0.08975X0.00025*%
%ADD472R,0.08775X0.00025*%
%ADD473R,0.08225X0.00025*%
%ADD474R,0.01275X0.00025*%
%ADD475R,0.00925X0.00025*%
%ADD476R,0.07000X0.00025*%
%ADD477R,0.06700X0.00025*%
%ADD478R,0.06400X0.00025*%
%ADD479R,0.06275X0.00025*%
%ADD480R,0.06150X0.00025*%
%ADD481R,0.06050X0.00025*%
%ADD482R,0.05950X0.00025*%
%ADD483R,0.05875X0.00025*%
%ADD484R,0.00975X0.00025*%
%ADD485R,0.03625X0.00025*%
%ADD486R,0.05775X0.00025*%
%ADD487R,0.03950X0.00025*%
%ADD488R,0.05675X0.00025*%
%ADD489R,0.04225X0.00025*%
%ADD490R,0.05600X0.00025*%
%ADD491R,0.04325X0.00025*%
%ADD492R,0.05550X0.00025*%
%ADD493R,0.04425X0.00025*%
%ADD494R,0.05475X0.00025*%
%ADD495R,0.04500X0.00025*%
%ADD496R,0.05400X0.00025*%
%ADD497R,0.00925X0.00025*%
%ADD498R,0.05300X0.00025*%
%ADD499R,0.04625X0.00025*%
%ADD500R,0.05225X0.00025*%
%ADD501R,0.04675X0.00025*%
%ADD502R,0.05175X0.00025*%
%ADD503R,0.04725X0.00025*%
%ADD504R,0.05100X0.00025*%
%ADD505R,0.04750X0.00025*%
%ADD506R,0.05025X0.00025*%
%ADD507R,0.04800X0.00025*%
%ADD508R,0.04975X0.00025*%
%ADD509R,0.04825X0.00025*%
%ADD510R,0.04900X0.00025*%
%ADD511R,0.04850X0.00025*%
%ADD512R,0.04875X0.00025*%
%ADD513R,0.04875X0.00025*%
%ADD514R,0.04675X0.00025*%
%ADD515R,0.01525X0.00025*%
%ADD516R,0.04925X0.00025*%
%ADD517R,0.04525X0.00025*%
%ADD518R,0.04950X0.00025*%
%ADD519R,0.04475X0.00025*%
%ADD520R,0.00375X0.00025*%
%ADD521R,0.04950X0.00025*%
%ADD522R,0.04425X0.00025*%
%ADD523R,0.04975X0.00025*%
%ADD524R,0.04500X0.00025*%
%ADD525R,0.00375X0.00025*%
%ADD526R,0.05000X0.00025*%
%ADD527R,0.01650X0.00025*%
%ADD528R,0.05000X0.00025*%
%ADD529R,0.05125X0.00025*%
%ADD530R,0.00725X0.00025*%
%ADD531R,0.05025X0.00025*%
%ADD532R,0.01125X0.00025*%
%ADD533R,0.05050X0.00025*%
%ADD534R,0.04925X0.00025*%
%ADD535R,0.05050X0.00025*%
%ADD536R,0.04825X0.00025*%
%ADD537R,0.03575X0.00025*%
%ADD538R,0.04650X0.00025*%
%ADD539R,0.04575X0.00025*%
%ADD540R,0.04450X0.00025*%
%ADD541R,0.04375X0.00025*%
%ADD542R,0.00975X0.00025*%
%ADD543R,0.04175X0.00025*%
%ADD544R,0.04100X0.00025*%
%ADD545R,0.04025X0.00025*%
%ADD546R,0.03175X0.00025*%
%ADD547R,0.03175X0.00025*%
%ADD548R,0.03700X0.00025*%
%ADD549R,0.03625X0.00025*%
%ADD550R,0.00875X0.00025*%
%ADD551R,0.02825X0.00025*%
%ADD552R,0.03575X0.00025*%
%ADD553R,0.00875X0.00025*%
%ADD554R,0.01175X0.00025*%
%ADD555R,0.03500X0.00025*%
%ADD556R,0.01875X0.00025*%
%ADD557R,0.01950X0.00025*%
%ADD558R,0.01775X0.00025*%
%ADD559R,0.03275X0.00025*%
%ADD560R,0.02125X0.00025*%
%ADD561R,0.02325X0.00025*%
%ADD562R,0.02975X0.00025*%
%ADD563R,0.01375X0.00025*%
%ADD564R,0.02375X0.00025*%
%ADD565R,0.02025X0.00025*%
%ADD566R,0.02825X0.00025*%
%ADD567R,0.03575X0.00025*%
%ADD568R,0.02025X0.00025*%
%ADD569R,0.04200X0.00025*%
%ADD570R,0.04400X0.00025*%
%ADD571R,0.02250X0.00025*%
%ADD572R,0.01925X0.00025*%
%ADD573R,0.02175X0.00025*%
%ADD574R,0.02775X0.00025*%
%ADD575R,0.04575X0.00025*%
%ADD576R,0.01825X0.00025*%
%ADD577R,0.04525X0.00025*%
%ADD578R,0.01775X0.00025*%
%ADD579R,0.04375X0.00025*%
%ADD580R,0.04325X0.00025*%
%ADD581R,0.04050X0.00025*%
%ADD582R,0.02775X0.00025*%
%ADD583R,0.03925X0.00025*%
%ADD584R,0.03875X0.00025*%
%ADD585R,0.03800X0.00025*%
%ADD586R,0.03675X0.00025*%
%ADD587R,0.03625X0.00025*%
%ADD588R,0.03600X0.00025*%
%ADD589R,0.02875X0.00025*%
%ADD590R,0.03475X0.00025*%
%ADD591R,0.03375X0.00025*%
%ADD592R,0.03025X0.00025*%
%ADD593R,0.02950X0.00025*%
%ADD594R,0.02325X0.00025*%
%ADD595R,0.01875X0.00025*%
%ADD596R,0.01925X0.00025*%
%ADD597R,0.01250X0.00025*%
%ADD598R,0.01900X0.00025*%
%ADD599R,0.01875X0.00025*%
%ADD600R,0.02075X0.00025*%
%ADD601R,0.01700X0.00025*%
%ADD602R,0.01675X0.00025*%
%ADD603R,0.01725X0.00025*%
%ADD604R,0.01750X0.00025*%
%ADD605R,0.03925X0.00025*%
%ADD606R,0.01850X0.00025*%
%ADD607R,0.04775X0.00025*%
%ADD608R,0.02525X0.00025*%
%ADD609R,0.01975X0.00025*%
%ADD610R,0.02475X0.00025*%
%ADD611R,0.05025X0.00025*%
%ADD612R,0.05100X0.00025*%
%ADD613R,0.05175X0.00025*%
%ADD614R,0.05275X0.00025*%
%ADD615R,0.05350X0.00025*%
%ADD616R,0.05375X0.00025*%
%ADD617R,0.05075X0.00025*%
%ADD618R,0.04725X0.00025*%
%ADD619R,0.02000X0.00025*%
%ADD620R,0.04325X0.00025*%
%ADD621R,0.01975X0.00025*%
%ADD622R,0.04225X0.00025*%
%ADD623R,0.04125X0.00025*%
%ADD624R,0.04050X0.00025*%
%ADD625R,0.03975X0.00025*%
%ADD626R,0.03325X0.00025*%
%ADD627R,0.02875X0.00025*%
%ADD628R,0.01825X0.00025*%
%ADD629R,0.01825X0.00025*%
%ADD630R,0.02275X0.00025*%
%ADD631R,0.00475X0.00025*%
%ADD632R,0.05175X0.00025*%
%ADD633R,0.05325X0.00025*%
%ADD634R,0.05975X0.00025*%
%ADD635R,0.01725X0.00025*%
%ADD636R,0.06000X0.00025*%
%ADD637R,0.04125X0.00025*%
%ADD638R,0.01675X0.00025*%
%ADD639R,0.00025X0.00025*%
%ADD640R,0.01625X0.00025*%
%ADD641R,0.01775X0.00025*%
%ADD642R,0.04175X0.00025*%
%ADD643C,0.00400*%
%ADD644C,0.01200*%
%ADD645C,0.03000*%
%ADD646C,0.00800*%
%ADD647R,0.69000X0.27000*%
D10*
X0256346Y0130503D02*
X0256346Y0135424D01*
X0259298Y0135424D01*
X0260283Y0134440D01*
X0260283Y0132472D01*
X0259298Y0131488D01*
X0256346Y0131488D01*
X0256346Y0130503D02*
X0257330Y0129519D01*
X0258314Y0129519D01*
X0262701Y0135424D02*
X0263685Y0135424D01*
X0265654Y0133456D01*
X0265654Y0131488D02*
X0265654Y0135424D01*
X0268163Y0134440D02*
X0269147Y0135424D01*
X0271115Y0135424D01*
X0272099Y0134440D01*
X0272099Y0132472D01*
X0271115Y0131488D01*
X0269147Y0131488D01*
X0268163Y0132472D01*
X0268163Y0134440D01*
X0274338Y0132472D02*
X0274338Y0131488D01*
X0275322Y0131488D01*
X0275322Y0132472D01*
X0274338Y0132472D01*
X0277741Y0135424D02*
X0278725Y0135424D01*
X0280693Y0133456D01*
X0280693Y0131488D02*
X0280693Y0135424D01*
X0283202Y0134440D02*
X0284186Y0135424D01*
X0286155Y0135424D01*
X0287139Y0134440D01*
X0287139Y0132472D01*
X0286155Y0131488D01*
X0284186Y0131488D01*
X0283202Y0132472D01*
X0283202Y0134440D01*
X0289467Y0135424D02*
X0291436Y0135424D01*
X0290452Y0136409D02*
X0290452Y0132472D01*
X0289467Y0131488D01*
X0293764Y0131488D02*
X0295733Y0131488D01*
X0294749Y0131488D02*
X0294749Y0135424D01*
X0295733Y0135424D01*
X0294749Y0137393D02*
X0294749Y0138377D01*
X0298242Y0134440D02*
X0298242Y0131488D01*
X0298242Y0134440D02*
X0299226Y0135424D01*
X0302178Y0135424D01*
X0302178Y0131488D01*
X0304687Y0132472D02*
X0304687Y0134440D01*
X0305671Y0135424D01*
X0307640Y0135424D01*
X0308624Y0134440D01*
X0308624Y0132472D01*
X0307640Y0131488D01*
X0305671Y0131488D01*
X0304687Y0132472D01*
X0311133Y0131488D02*
X0311133Y0137393D01*
X0313101Y0135424D01*
X0315069Y0137393D01*
X0315069Y0131488D01*
X0317578Y0131488D02*
X0320531Y0131488D01*
X0321515Y0132472D01*
X0321515Y0135424D01*
X0324024Y0135424D02*
X0326976Y0135424D01*
X0327960Y0134440D01*
X0327960Y0132472D01*
X0326976Y0131488D01*
X0324024Y0131488D01*
X0324024Y0130503D02*
X0324024Y0135424D01*
X0324024Y0130503D02*
X0325008Y0129519D01*
X0325992Y0129519D01*
X0319546Y0129519D02*
X0318562Y0129519D01*
X0317578Y0130503D01*
X0317578Y0135424D01*
X0330379Y0135424D02*
X0331363Y0135424D01*
X0333332Y0133456D01*
X0333332Y0131488D02*
X0333332Y0135424D01*
X0335840Y0134440D02*
X0335840Y0133456D01*
X0339777Y0133456D01*
X0339777Y0134440D02*
X0338793Y0135424D01*
X0336824Y0135424D01*
X0335840Y0134440D01*
X0336824Y0131488D02*
X0338793Y0131488D01*
X0339777Y0132472D01*
X0339777Y0134440D01*
X0342286Y0134440D02*
X0342286Y0131488D01*
X0342286Y0134440D02*
X0343270Y0135424D01*
X0346223Y0135424D01*
X0346223Y0131488D01*
X0348731Y0131488D02*
X0352668Y0131488D01*
X0352668Y0137393D01*
X0348731Y0137393D01*
X0350700Y0134440D02*
X0352668Y0134440D01*
X0355177Y0134440D02*
X0355177Y0131488D01*
X0355177Y0134440D02*
X0356161Y0135424D01*
X0359114Y0135424D01*
X0359114Y0131488D01*
X0361622Y0133456D02*
X0365559Y0133456D01*
X0365559Y0134440D02*
X0364575Y0135424D01*
X0362606Y0135424D01*
X0361622Y0134440D01*
X0361622Y0133456D01*
X0362606Y0131488D02*
X0364575Y0131488D01*
X0365559Y0132472D01*
X0365559Y0134440D01*
X0368068Y0134440D02*
X0368068Y0132472D01*
X0369052Y0131488D01*
X0372005Y0131488D01*
X0372005Y0129519D02*
X0372005Y0135424D01*
X0369052Y0135424D01*
X0368068Y0134440D01*
X0374513Y0132472D02*
X0374513Y0136409D01*
X0375497Y0137393D01*
X0377466Y0137393D01*
X0378450Y0136409D01*
X0378450Y0132472D01*
X0377466Y0131488D01*
X0375497Y0131488D01*
X0374513Y0132472D01*
X0255532Y0220174D02*
X0254548Y0219189D01*
X0253564Y0220174D01*
X0252579Y0219189D01*
X0251595Y0220174D01*
X0251595Y0223126D01*
X0249086Y0223126D02*
X0248102Y0223126D01*
X0248102Y0219189D01*
X0249086Y0219189D02*
X0247118Y0219189D01*
X0244789Y0219189D02*
X0244789Y0223126D01*
X0242821Y0223126D02*
X0241837Y0223126D01*
X0242821Y0223126D02*
X0244789Y0221158D01*
X0248102Y0225095D02*
X0248102Y0226079D01*
X0255532Y0223126D02*
X0255532Y0220174D01*
X0239418Y0220174D02*
X0239418Y0222142D01*
X0238434Y0223126D01*
X0236466Y0223126D01*
X0235481Y0222142D01*
X0235481Y0221158D01*
X0239418Y0221158D01*
X0239418Y0220174D02*
X0238434Y0219189D01*
X0236466Y0219189D01*
X0232973Y0219189D02*
X0231004Y0219189D01*
X0231988Y0219189D02*
X0231988Y0225095D01*
X0232973Y0225095D01*
X0228676Y0222142D02*
X0228676Y0220174D01*
X0227691Y0219189D01*
X0225723Y0219189D01*
X0224739Y0221158D02*
X0228676Y0221158D01*
X0228676Y0222142D02*
X0227691Y0223126D01*
X0225723Y0223126D01*
X0224739Y0222142D01*
X0224739Y0221158D01*
X0222230Y0222142D02*
X0221246Y0221158D01*
X0219278Y0221158D01*
X0218293Y0220174D01*
X0219278Y0219189D01*
X0222230Y0219189D01*
X0222230Y0222142D02*
X0221246Y0223126D01*
X0218293Y0223126D01*
X0215785Y0222142D02*
X0214800Y0223126D01*
X0211848Y0223126D01*
X0212832Y0221158D02*
X0214800Y0221158D01*
X0215785Y0222142D01*
X0215785Y0219189D02*
X0212832Y0219189D01*
X0211848Y0220174D01*
X0212832Y0221158D01*
X0202894Y0221158D02*
X0198957Y0221158D01*
X0198957Y0222142D01*
X0199941Y0223126D01*
X0201909Y0223126D01*
X0202894Y0222142D01*
X0202894Y0220174D01*
X0201909Y0219189D01*
X0199941Y0219189D01*
X0196448Y0219189D02*
X0196448Y0223126D01*
X0193496Y0223126D01*
X0192511Y0222142D01*
X0192511Y0219189D01*
X0190003Y0220174D02*
X0190003Y0222142D01*
X0189018Y0223126D01*
X0187050Y0223126D01*
X0186066Y0222142D01*
X0186066Y0221158D01*
X0190003Y0221158D01*
X0190003Y0220174D02*
X0189018Y0219189D01*
X0187050Y0219189D01*
X0183557Y0219189D02*
X0183557Y0223126D01*
X0183557Y0221158D02*
X0181589Y0223126D01*
X0180605Y0223126D01*
X0178186Y0222142D02*
X0178186Y0220174D01*
X0177202Y0219189D01*
X0174249Y0219189D01*
X0174249Y0218205D02*
X0174249Y0223126D01*
X0177202Y0223126D01*
X0178186Y0222142D01*
X0176218Y0217221D02*
X0175233Y0217221D01*
X0174249Y0218205D01*
X0171740Y0220174D02*
X0170756Y0219189D01*
X0167804Y0219189D01*
X0167804Y0218205D02*
X0168788Y0217221D01*
X0169772Y0217221D01*
X0167804Y0218205D02*
X0167804Y0223126D01*
X0171740Y0223126D02*
X0171740Y0220174D01*
X0158849Y0219189D02*
X0158849Y0223126D01*
X0157865Y0223126D01*
X0156881Y0222142D01*
X0155897Y0223126D01*
X0154913Y0222142D01*
X0154913Y0219189D01*
X0156881Y0219189D02*
X0156881Y0222142D01*
X0152404Y0222142D02*
X0152404Y0220174D01*
X0151420Y0219189D01*
X0149451Y0219189D01*
X0148467Y0220174D01*
X0148467Y0222142D01*
X0149451Y0223126D01*
X0151420Y0223126D01*
X0152404Y0222142D01*
X0145958Y0223126D02*
X0145958Y0219189D01*
X0142022Y0219189D02*
X0142022Y0222142D01*
X0143006Y0223126D01*
X0145958Y0223126D01*
X0139513Y0223126D02*
X0138529Y0223126D01*
X0138529Y0219189D01*
X0139513Y0219189D02*
X0137545Y0219189D01*
X0134232Y0220174D02*
X0134232Y0224110D01*
X0135216Y0223126D02*
X0133248Y0223126D01*
X0130919Y0222142D02*
X0130919Y0220174D01*
X0129935Y0219189D01*
X0127966Y0219189D01*
X0126982Y0220174D01*
X0126982Y0222142D01*
X0127966Y0223126D01*
X0129935Y0223126D01*
X0130919Y0222142D01*
X0133248Y0219189D02*
X0134232Y0220174D01*
X0138529Y0225095D02*
X0138529Y0226079D01*
X0124473Y0223126D02*
X0124473Y0219189D01*
X0124473Y0221158D02*
X0122505Y0223126D01*
X0121521Y0223126D01*
X0119102Y0223126D02*
X0118118Y0223126D01*
X0118118Y0219189D01*
X0119102Y0219189D02*
X0117134Y0219189D01*
X0114805Y0219189D02*
X0114805Y0223126D01*
X0111853Y0223126D01*
X0110868Y0222142D01*
X0110868Y0219189D01*
X0108360Y0220174D02*
X0108360Y0222142D01*
X0107376Y0223126D01*
X0104423Y0223126D01*
X0104423Y0218205D01*
X0105407Y0217221D01*
X0106391Y0217221D01*
X0107376Y0219189D02*
X0104423Y0219189D01*
X0107376Y0219189D02*
X0108360Y0220174D01*
X0118118Y0225095D02*
X0118118Y0226079D01*
X0095469Y0223126D02*
X0095469Y0219189D01*
X0091532Y0219189D02*
X0091532Y0222142D01*
X0092516Y0223126D01*
X0095469Y0223126D01*
X0089023Y0222142D02*
X0089023Y0220174D01*
X0088039Y0219189D01*
X0086071Y0219189D01*
X0085086Y0220174D01*
X0085086Y0222142D01*
X0086071Y0223126D01*
X0088039Y0223126D01*
X0089023Y0222142D01*
X0082578Y0222142D02*
X0082578Y0220174D01*
X0081594Y0219189D01*
X0078641Y0219189D01*
X0078641Y0225095D01*
X0078641Y0223126D02*
X0081594Y0223126D01*
X0082578Y0222142D01*
X0076132Y0222142D02*
X0076132Y0220174D01*
X0075148Y0219189D01*
X0073180Y0219189D01*
X0072195Y0221158D02*
X0076132Y0221158D01*
X0076132Y0222142D02*
X0075148Y0223126D01*
X0073180Y0223126D01*
X0072195Y0222142D01*
X0072195Y0221158D01*
D11*
X0311024Y0221888D02*
X0314426Y0221888D01*
X0311024Y0225291D01*
X0314426Y0225291D01*
X0316548Y0224440D02*
X0316548Y0221888D01*
X0316548Y0224440D02*
X0317399Y0225291D01*
X0319100Y0225291D01*
X0319951Y0224440D01*
X0319951Y0226992D02*
X0319951Y0221888D01*
X0322073Y0221888D02*
X0322073Y0226992D01*
X0323774Y0225291D01*
X0325476Y0226992D01*
X0325476Y0221888D01*
X0327598Y0222738D02*
X0328448Y0221888D01*
X0330150Y0221888D01*
X0331001Y0222738D01*
X0331001Y0224440D02*
X0329299Y0225291D01*
X0328448Y0225291D01*
X0327598Y0224440D01*
X0327598Y0222738D01*
X0331001Y0224440D02*
X0331001Y0226992D01*
X0327598Y0226992D01*
X0328448Y0231888D02*
X0330150Y0231888D01*
X0331001Y0232738D01*
X0331001Y0233589D01*
X0330150Y0234440D01*
X0328448Y0234440D01*
X0327598Y0233589D01*
X0327598Y0232738D01*
X0328448Y0231888D01*
X0328448Y0234440D02*
X0327598Y0235291D01*
X0327598Y0236141D01*
X0328448Y0236992D01*
X0330150Y0236992D01*
X0331001Y0236141D01*
X0331001Y0235291D01*
X0330150Y0234440D01*
X0333122Y0233589D02*
X0333973Y0234440D01*
X0336525Y0234440D01*
X0336525Y0232738D01*
X0335675Y0231888D01*
X0333973Y0231888D01*
X0333122Y0232738D01*
X0333122Y0233589D01*
X0334824Y0236141D02*
X0333122Y0236992D01*
X0334824Y0236141D02*
X0336525Y0234440D01*
X0338647Y0235291D02*
X0339498Y0234440D01*
X0341199Y0234440D01*
X0342050Y0235291D01*
X0342050Y0236141D01*
X0341199Y0236992D01*
X0339498Y0236992D01*
X0338647Y0236141D01*
X0338647Y0235291D01*
X0339498Y0234440D02*
X0338647Y0233589D01*
X0338647Y0232738D01*
X0339498Y0231888D01*
X0341199Y0231888D01*
X0342050Y0232738D01*
X0342050Y0233589D01*
X0341199Y0234440D01*
X0341199Y0226992D02*
X0342050Y0226141D01*
X0342050Y0225291D01*
X0341199Y0224440D01*
X0338647Y0224440D01*
X0338647Y0226141D02*
X0338647Y0222738D01*
X0339498Y0221888D01*
X0341199Y0221888D01*
X0342050Y0222738D01*
X0341199Y0226992D02*
X0339498Y0226992D01*
X0338647Y0226141D01*
X0336525Y0225291D02*
X0334824Y0226992D01*
X0334824Y0221888D01*
X0336525Y0221888D02*
X0333122Y0221888D01*
X0325476Y0231888D02*
X0325476Y0236992D01*
X0323774Y0235291D01*
X0322073Y0236992D01*
X0322073Y0231888D01*
X0319951Y0231888D02*
X0319951Y0236992D01*
X0319100Y0235291D02*
X0317399Y0235291D01*
X0316548Y0234440D01*
X0316548Y0231888D01*
X0314426Y0231888D02*
X0311024Y0231888D01*
X0314426Y0231888D02*
X0311024Y0235291D01*
X0314426Y0235291D01*
X0319100Y0235291D02*
X0319951Y0234440D01*
X0319951Y0241888D02*
X0319951Y0246992D01*
X0319100Y0245291D02*
X0317399Y0245291D01*
X0316548Y0244440D01*
X0316548Y0241888D01*
X0314426Y0241888D02*
X0311024Y0241888D01*
X0314426Y0241888D02*
X0311024Y0245291D01*
X0314426Y0245291D01*
X0319100Y0245291D02*
X0319951Y0244440D01*
X0322073Y0246992D02*
X0322073Y0241888D01*
X0325476Y0241888D02*
X0325476Y0246992D01*
X0323774Y0245291D01*
X0322073Y0246992D01*
X0327598Y0246141D02*
X0327598Y0245291D01*
X0328448Y0244440D01*
X0327598Y0243589D01*
X0327598Y0242738D01*
X0328448Y0241888D01*
X0330150Y0241888D01*
X0331001Y0242738D01*
X0333122Y0242738D02*
X0333973Y0241888D01*
X0335675Y0241888D01*
X0336525Y0242738D01*
X0334824Y0244440D02*
X0333973Y0244440D01*
X0333122Y0243589D01*
X0333122Y0242738D01*
X0333973Y0244440D02*
X0333122Y0245291D01*
X0333122Y0246141D01*
X0333973Y0246992D01*
X0335675Y0246992D01*
X0336525Y0246141D01*
X0338647Y0244440D02*
X0342050Y0244440D01*
X0339498Y0246992D01*
X0339498Y0241888D01*
X0331001Y0246141D02*
X0330150Y0246992D01*
X0328448Y0246992D01*
X0327598Y0246141D01*
X0328448Y0244440D02*
X0329299Y0244440D01*
D12*
X0305750Y0245188D03*
X0305750Y0235188D03*
X0305750Y0225188D03*
D13*
X0299500Y0218938D02*
X0344000Y0218938D01*
X0344000Y0251438D01*
X0299500Y0251438D01*
X0299500Y0218938D01*
D14*
X0296250Y0223188D02*
X0296250Y0223688D01*
X0294248Y0225690D01*
X0294248Y0226190D01*
X0296250Y0226190D01*
X0293027Y0225690D02*
X0293027Y0225189D01*
X0292527Y0224689D01*
X0291526Y0224689D01*
X0291026Y0224189D01*
X0291026Y0223688D01*
X0291526Y0223188D01*
X0292527Y0223188D01*
X0293027Y0223688D01*
X0293027Y0224189D01*
X0292527Y0224689D01*
X0291526Y0224689D02*
X0291026Y0225189D01*
X0291026Y0225690D01*
X0291526Y0226190D01*
X0292527Y0226190D01*
X0293027Y0225690D01*
X0289805Y0225189D02*
X0289304Y0225189D01*
X0288804Y0224689D01*
X0288303Y0225189D01*
X0287803Y0224689D01*
X0287803Y0223188D01*
X0288804Y0223188D02*
X0288804Y0224689D01*
X0289805Y0225189D02*
X0289805Y0223188D01*
X0286582Y0223188D02*
X0286582Y0225189D01*
X0286081Y0225189D01*
X0285581Y0224689D01*
X0285080Y0225189D01*
X0284580Y0224689D01*
X0284580Y0223188D01*
X0285581Y0223188D02*
X0285581Y0224689D01*
X0280136Y0223688D02*
X0279636Y0224189D01*
X0278135Y0224189D01*
X0278135Y0224689D02*
X0278135Y0223188D01*
X0279636Y0223188D01*
X0280136Y0223688D01*
X0279636Y0225189D02*
X0278635Y0225189D01*
X0278135Y0224689D01*
X0276914Y0225189D02*
X0275412Y0225189D01*
X0274912Y0224689D01*
X0274912Y0223188D01*
X0273190Y0223688D02*
X0272690Y0223188D01*
X0273190Y0223688D02*
X0273190Y0225690D01*
X0272690Y0225189D02*
X0273691Y0225189D01*
X0276914Y0225189D02*
X0276914Y0223188D01*
X0276914Y0234188D02*
X0276914Y0236189D01*
X0275412Y0236189D01*
X0274912Y0235689D01*
X0274912Y0234188D01*
X0273190Y0234688D02*
X0272690Y0234188D01*
X0273190Y0234688D02*
X0273190Y0236690D01*
X0272690Y0236189D02*
X0273691Y0236189D01*
X0278135Y0235689D02*
X0278135Y0234188D01*
X0279636Y0234188D01*
X0280136Y0234688D01*
X0279636Y0235189D01*
X0278135Y0235189D01*
X0278135Y0235689D02*
X0278635Y0236189D01*
X0279636Y0236189D01*
X0284580Y0235689D02*
X0284580Y0234188D01*
X0285581Y0234188D02*
X0285581Y0235689D01*
X0285080Y0236189D01*
X0284580Y0235689D01*
X0285581Y0235689D02*
X0286081Y0236189D01*
X0286582Y0236189D01*
X0286582Y0234188D01*
X0287803Y0234188D02*
X0287803Y0235689D01*
X0288303Y0236189D01*
X0288804Y0235689D01*
X0288804Y0234188D01*
X0289805Y0234188D02*
X0289805Y0236189D01*
X0289304Y0236189D01*
X0288804Y0235689D01*
X0291026Y0236690D02*
X0293027Y0234688D01*
X0293027Y0234188D01*
X0294248Y0234688D02*
X0294248Y0235189D01*
X0294749Y0235689D01*
X0295750Y0235689D01*
X0296250Y0236189D01*
X0296250Y0236690D01*
X0295750Y0237190D01*
X0294749Y0237190D01*
X0294248Y0236690D01*
X0294248Y0236189D01*
X0294749Y0235689D01*
X0295750Y0235689D02*
X0296250Y0235189D01*
X0296250Y0234688D01*
X0295750Y0234188D01*
X0294749Y0234188D01*
X0294248Y0234688D01*
X0293027Y0237190D02*
X0291026Y0237190D01*
X0291026Y0236690D01*
X0289304Y0244188D02*
X0289805Y0244688D01*
X0289304Y0244188D02*
X0288303Y0244188D01*
X0287803Y0244688D01*
X0287803Y0245689D01*
X0288303Y0246189D01*
X0288804Y0246189D01*
X0289805Y0245689D01*
X0289805Y0247190D01*
X0287803Y0247190D01*
X0286582Y0246189D02*
X0286081Y0246189D01*
X0285581Y0245689D01*
X0285080Y0246189D01*
X0284580Y0245689D01*
X0284580Y0244188D01*
X0285581Y0244188D02*
X0285581Y0245689D01*
X0286582Y0246189D02*
X0286582Y0244188D01*
X0283359Y0244188D02*
X0283359Y0246189D01*
X0282859Y0246189D01*
X0282358Y0245689D01*
X0281858Y0246189D01*
X0281357Y0245689D01*
X0281357Y0244188D01*
X0282358Y0244188D02*
X0282358Y0245689D01*
X0276914Y0244688D02*
X0276413Y0245189D01*
X0274912Y0245189D01*
X0274912Y0245689D02*
X0274912Y0244188D01*
X0276413Y0244188D01*
X0276914Y0244688D01*
X0276413Y0246189D02*
X0275412Y0246189D01*
X0274912Y0245689D01*
X0273691Y0246189D02*
X0272189Y0246189D01*
X0271689Y0245689D01*
X0271689Y0244188D01*
X0269968Y0244688D02*
X0269467Y0244188D01*
X0269968Y0244688D02*
X0269968Y0246690D01*
X0270468Y0246189D02*
X0269467Y0246189D01*
X0273691Y0246189D02*
X0273691Y0244188D01*
X0291026Y0246690D02*
X0293027Y0244688D01*
X0293027Y0244188D01*
X0294248Y0244188D02*
X0296250Y0244188D01*
X0295249Y0244188D02*
X0295249Y0247190D01*
X0296250Y0246189D01*
X0293027Y0247190D02*
X0291026Y0247190D01*
X0291026Y0246690D01*
D15*
X0357875Y0314152D02*
X0359577Y0315854D01*
X0360144Y0315287D02*
X0357875Y0317555D01*
X0360144Y0317555D02*
X0360144Y0314152D01*
X0361558Y0314719D02*
X0361558Y0317555D01*
X0363827Y0317555D02*
X0363827Y0314719D01*
X0363260Y0314152D01*
X0362126Y0314152D01*
X0361558Y0314719D01*
X0361064Y0320642D02*
X0362199Y0320642D01*
X0362766Y0321209D01*
X0362766Y0322344D01*
X0362199Y0322911D01*
X0361064Y0322911D01*
X0360497Y0322344D01*
X0360497Y0321776D01*
X0362766Y0321776D01*
X0364087Y0320642D02*
X0365221Y0320642D01*
X0364654Y0320642D02*
X0364654Y0324045D01*
X0365221Y0324045D01*
X0366636Y0322344D02*
X0366636Y0320642D01*
X0368337Y0320642D01*
X0368904Y0321209D01*
X0368337Y0321776D01*
X0366636Y0321776D01*
X0366636Y0322344D02*
X0367203Y0322911D01*
X0368337Y0322911D01*
X0370319Y0324045D02*
X0370319Y0320642D01*
X0371453Y0321776D01*
X0372587Y0320642D01*
X0372587Y0324045D01*
X0377685Y0322344D02*
X0377685Y0320642D01*
X0377685Y0322344D02*
X0378252Y0322911D01*
X0379387Y0322911D01*
X0379954Y0322344D01*
X0381275Y0322911D02*
X0382409Y0322911D01*
X0381842Y0323478D02*
X0381842Y0321209D01*
X0381275Y0320642D01*
X0379954Y0320642D02*
X0379954Y0324045D01*
X0383777Y0322911D02*
X0384344Y0322911D01*
X0385478Y0321776D01*
X0385478Y0320642D02*
X0385478Y0322911D01*
X0386893Y0322344D02*
X0387460Y0322911D01*
X0388594Y0322911D01*
X0389162Y0322344D01*
X0389162Y0321209D01*
X0388594Y0320642D01*
X0387460Y0320642D01*
X0386893Y0321209D01*
X0386893Y0322344D01*
X0390576Y0324045D02*
X0390576Y0320642D01*
X0392845Y0324045D01*
X0392845Y0320642D01*
X0392064Y0317555D02*
X0390930Y0316421D01*
X0389796Y0317555D01*
X0389796Y0314152D01*
X0388381Y0314719D02*
X0387814Y0315287D01*
X0386113Y0315287D01*
X0386113Y0315854D02*
X0386113Y0314152D01*
X0387814Y0314152D01*
X0388381Y0314719D01*
X0387814Y0316421D02*
X0386680Y0316421D01*
X0386113Y0315854D01*
X0384698Y0315854D02*
X0384131Y0316421D01*
X0382430Y0316421D01*
X0382430Y0317555D02*
X0382430Y0314152D01*
X0384131Y0314152D01*
X0384698Y0314719D01*
X0384698Y0315854D01*
X0381015Y0315854D02*
X0380448Y0316421D01*
X0379314Y0316421D01*
X0378746Y0315854D01*
X0378746Y0315287D01*
X0381015Y0315287D01*
X0381015Y0315854D02*
X0381015Y0314719D01*
X0380448Y0314152D01*
X0379314Y0314152D01*
X0373649Y0314152D02*
X0372514Y0314152D01*
X0373082Y0314152D02*
X0373082Y0316421D01*
X0373649Y0316421D01*
X0373082Y0317555D02*
X0373082Y0318122D01*
X0371193Y0316421D02*
X0369492Y0316421D01*
X0368925Y0315854D01*
X0368925Y0314152D01*
X0371193Y0314152D02*
X0371193Y0316421D01*
X0359083Y0320642D02*
X0357381Y0320642D01*
X0356814Y0321209D01*
X0357381Y0321776D01*
X0358515Y0321776D01*
X0359083Y0322344D01*
X0358515Y0322911D01*
X0356814Y0322911D01*
X0357034Y0344655D02*
X0357034Y0346923D01*
X0355332Y0346923D01*
X0354765Y0346356D01*
X0354765Y0344655D01*
X0358355Y0344655D02*
X0359489Y0344655D01*
X0358922Y0344655D02*
X0358922Y0346923D01*
X0359489Y0346923D01*
X0358922Y0348058D02*
X0358922Y0348625D01*
X0364587Y0348058D02*
X0364587Y0344655D01*
X0366288Y0344655D01*
X0366855Y0345222D01*
X0366855Y0346356D01*
X0366288Y0346923D01*
X0364587Y0346923D01*
X0368270Y0346356D02*
X0368270Y0345789D01*
X0370539Y0345789D01*
X0370539Y0346356D02*
X0369971Y0346923D01*
X0368837Y0346923D01*
X0368270Y0346356D01*
X0368837Y0344655D02*
X0369971Y0344655D01*
X0370539Y0345222D01*
X0370539Y0346356D01*
X0371953Y0346356D02*
X0371953Y0344655D01*
X0371953Y0346356D02*
X0372520Y0346923D01*
X0374222Y0346923D01*
X0374222Y0344655D01*
X0375636Y0344655D02*
X0377338Y0344655D01*
X0377905Y0345222D01*
X0377905Y0346356D01*
X0377338Y0346923D01*
X0375636Y0346923D01*
X0375636Y0344088D01*
X0376203Y0343520D01*
X0376771Y0343520D01*
X0379226Y0344655D02*
X0380360Y0344655D01*
X0379793Y0344655D02*
X0379793Y0346923D01*
X0380360Y0346923D01*
X0379793Y0348058D02*
X0379793Y0348625D01*
X0381775Y0346923D02*
X0383476Y0346923D01*
X0384043Y0346356D01*
X0383476Y0345789D01*
X0382342Y0345789D01*
X0381775Y0345222D01*
X0382342Y0344655D01*
X0384043Y0344655D01*
X0385458Y0345789D02*
X0387727Y0345789D01*
X0387727Y0346356D02*
X0387159Y0346923D01*
X0386025Y0346923D01*
X0385458Y0346356D01*
X0385458Y0345789D01*
X0386025Y0344655D02*
X0387159Y0344655D01*
X0387727Y0345222D01*
X0387727Y0346356D01*
X0389141Y0345222D02*
X0389141Y0347490D01*
X0389708Y0348058D01*
X0391410Y0348058D01*
X0391410Y0344655D01*
X0389708Y0344655D01*
X0389141Y0345222D01*
X0392064Y0317555D02*
X0392064Y0314152D01*
X0123203Y0148250D02*
X0119800Y0148250D01*
X0119800Y0145981D02*
X0123203Y0145981D01*
X0122069Y0147116D01*
X0123203Y0148250D01*
X0123203Y0144567D02*
X0119800Y0144567D01*
X0120934Y0143433D01*
X0119800Y0142298D01*
X0123203Y0142298D01*
X0122636Y0140884D02*
X0123203Y0140317D01*
X0123203Y0138615D01*
X0119800Y0138615D01*
X0120934Y0138615D02*
X0120934Y0140317D01*
X0121501Y0140884D01*
X0122636Y0140884D01*
X0117203Y0140410D02*
X0117203Y0141544D01*
X0116636Y0142111D01*
X0114367Y0139843D01*
X0113800Y0140410D01*
X0113800Y0141544D01*
X0114367Y0142111D01*
X0116636Y0142111D01*
X0117203Y0140410D02*
X0116636Y0139843D01*
X0114367Y0139843D01*
X0113800Y0138428D02*
X0113800Y0136160D01*
X0116069Y0138428D01*
X0116636Y0138428D01*
X0117203Y0137861D01*
X0117203Y0136727D01*
X0116636Y0136160D01*
X0116636Y0134745D02*
X0116069Y0134745D01*
X0115501Y0134178D01*
X0115501Y0132477D01*
X0114934Y0131062D02*
X0114367Y0131062D01*
X0113800Y0130495D01*
X0113800Y0129361D01*
X0114367Y0128793D01*
X0114934Y0128793D01*
X0115501Y0129361D01*
X0115501Y0130495D01*
X0114934Y0131062D01*
X0115501Y0130495D02*
X0116069Y0131062D01*
X0116636Y0131062D01*
X0117203Y0130495D01*
X0117203Y0129361D01*
X0116636Y0128793D01*
X0116069Y0128793D01*
X0115501Y0129361D01*
X0113800Y0127379D02*
X0113800Y0125110D01*
X0113800Y0126245D02*
X0117203Y0126245D01*
X0116069Y0125110D01*
X0116636Y0123696D02*
X0117203Y0123129D01*
X0117203Y0121994D01*
X0116636Y0121427D01*
X0116069Y0121427D01*
X0115501Y0121994D01*
X0115501Y0123129D01*
X0114934Y0123696D01*
X0114367Y0123696D01*
X0113800Y0123129D01*
X0113800Y0121994D01*
X0114367Y0121427D01*
X0114367Y0120013D02*
X0116636Y0120013D01*
X0117203Y0119445D01*
X0117203Y0117744D01*
X0113800Y0117744D01*
X0113800Y0119445D01*
X0114367Y0120013D01*
X0119800Y0119445D02*
X0120367Y0120013D01*
X0122636Y0120013D01*
X0123203Y0119445D01*
X0123203Y0117744D01*
X0119800Y0117744D01*
X0119800Y0119445D01*
X0119800Y0121427D02*
X0119800Y0122561D01*
X0119800Y0121994D02*
X0122069Y0121994D01*
X0122069Y0121427D01*
X0123203Y0121994D02*
X0123770Y0121994D01*
X0121501Y0123883D02*
X0120367Y0123883D01*
X0119800Y0124450D01*
X0119800Y0126151D01*
X0119233Y0126151D02*
X0122069Y0126151D01*
X0122069Y0124450D01*
X0121501Y0123883D01*
X0118666Y0125017D02*
X0118666Y0125584D01*
X0119233Y0126151D01*
X0120367Y0131249D02*
X0119800Y0131816D01*
X0119800Y0132950D01*
X0120367Y0133517D01*
X0121501Y0133517D01*
X0122069Y0132950D01*
X0122069Y0132383D01*
X0121501Y0131249D01*
X0123203Y0131249D01*
X0123203Y0133517D01*
X0117203Y0134178D02*
X0116636Y0134745D01*
X0117203Y0134178D02*
X0117203Y0132477D01*
X0113800Y0132477D01*
X0113800Y0134178D01*
X0114367Y0134745D01*
X0114934Y0134745D01*
X0115501Y0134178D01*
X0108703Y0134745D02*
X0105300Y0132477D01*
X0105867Y0131062D02*
X0105300Y0130495D01*
X0105300Y0129361D01*
X0105867Y0128793D01*
X0107001Y0128793D02*
X0107569Y0129928D01*
X0107569Y0130495D01*
X0107001Y0131062D01*
X0105867Y0131062D01*
X0107001Y0128793D02*
X0108703Y0128793D01*
X0108703Y0131062D01*
X0108136Y0127379D02*
X0108703Y0126812D01*
X0108703Y0125677D01*
X0108136Y0125110D01*
X0105867Y0125110D01*
X0105300Y0125677D01*
X0105300Y0126812D01*
X0105867Y0127379D01*
X0102703Y0126245D02*
X0099300Y0126245D01*
X0099300Y0127379D02*
X0099300Y0125110D01*
X0099867Y0123696D02*
X0099300Y0123129D01*
X0099300Y0121994D01*
X0099867Y0121427D01*
X0101001Y0121994D02*
X0101569Y0121427D01*
X0102136Y0121427D01*
X0102703Y0121994D01*
X0102703Y0123129D01*
X0102136Y0123696D01*
X0101001Y0123129D02*
X0100434Y0123696D01*
X0099867Y0123696D01*
X0101001Y0123129D02*
X0101001Y0121994D01*
X0099867Y0120013D02*
X0102136Y0120013D01*
X0102703Y0119445D01*
X0102703Y0117744D01*
X0099300Y0117744D01*
X0099300Y0119445D01*
X0099867Y0120013D01*
X0095270Y0121994D02*
X0094703Y0121994D01*
X0093569Y0121994D02*
X0091300Y0121994D01*
X0091300Y0121427D02*
X0091300Y0122561D01*
X0091867Y0123883D02*
X0091300Y0124450D01*
X0091300Y0126151D01*
X0090733Y0126151D02*
X0093569Y0126151D01*
X0093569Y0124450D01*
X0093001Y0123883D01*
X0091867Y0123883D01*
X0090166Y0125017D02*
X0090166Y0125584D01*
X0090733Y0126151D01*
X0091867Y0127566D02*
X0091300Y0128133D01*
X0091300Y0129267D01*
X0091867Y0129834D01*
X0092434Y0129834D01*
X0093001Y0129267D01*
X0093001Y0128700D01*
X0093001Y0129267D02*
X0093569Y0129834D01*
X0094136Y0129834D01*
X0094703Y0129267D01*
X0094703Y0128133D01*
X0094136Y0127566D01*
X0099300Y0129361D02*
X0099867Y0128793D01*
X0100434Y0128793D01*
X0101001Y0129361D01*
X0101001Y0130495D01*
X0100434Y0131062D01*
X0099867Y0131062D01*
X0099300Y0130495D01*
X0099300Y0129361D01*
X0101001Y0129361D02*
X0101569Y0128793D01*
X0102136Y0128793D01*
X0102703Y0129361D01*
X0102703Y0130495D01*
X0102136Y0131062D01*
X0101569Y0131062D01*
X0101001Y0130495D01*
X0101001Y0132477D02*
X0101001Y0134178D01*
X0100434Y0134745D01*
X0099867Y0134745D01*
X0099300Y0134178D01*
X0099300Y0132477D01*
X0102703Y0132477D01*
X0102703Y0134178D01*
X0102136Y0134745D01*
X0101569Y0134745D01*
X0101001Y0134178D01*
X0102136Y0136160D02*
X0102703Y0136727D01*
X0102703Y0137861D01*
X0102136Y0138428D01*
X0101569Y0138428D01*
X0099300Y0136160D01*
X0099300Y0138428D01*
X0099867Y0139843D02*
X0102136Y0142111D01*
X0099867Y0142111D01*
X0099300Y0141544D01*
X0099300Y0140410D01*
X0099867Y0139843D01*
X0102136Y0139843D01*
X0102703Y0140410D01*
X0102703Y0141544D01*
X0102136Y0142111D01*
X0104166Y0143433D02*
X0104166Y0144000D01*
X0104733Y0144567D01*
X0107569Y0144567D01*
X0107569Y0142865D01*
X0107001Y0142298D01*
X0105867Y0142298D01*
X0105300Y0142865D01*
X0105300Y0144567D01*
X0105300Y0145981D02*
X0105300Y0148250D01*
X0105300Y0147116D02*
X0108703Y0147116D01*
X0107569Y0145981D01*
X0107569Y0149665D02*
X0107001Y0150232D01*
X0107001Y0151933D01*
X0105867Y0151933D02*
X0108136Y0151933D01*
X0108703Y0151366D01*
X0108703Y0150232D01*
X0108136Y0149665D01*
X0107569Y0149665D01*
X0105867Y0149665D02*
X0105300Y0150232D01*
X0105300Y0151366D01*
X0105867Y0151933D01*
X0102703Y0150892D02*
X0099300Y0150892D01*
X0100434Y0152027D01*
X0099300Y0153161D01*
X0102703Y0153161D01*
X0102703Y0154575D02*
X0099300Y0154575D01*
X0100434Y0154575D02*
X0100434Y0156277D01*
X0101001Y0156844D01*
X0102136Y0156844D01*
X0102703Y0156277D01*
X0102703Y0154575D01*
X0100434Y0155710D02*
X0099300Y0156844D01*
X0101001Y0149478D02*
X0100434Y0148911D01*
X0100434Y0147209D01*
X0099300Y0147209D02*
X0102703Y0147209D01*
X0102703Y0148911D01*
X0102136Y0149478D01*
X0101001Y0149478D01*
X0105300Y0140977D02*
X0105300Y0139843D01*
X0105300Y0140410D02*
X0107569Y0140410D01*
X0107569Y0139843D01*
X0108703Y0140410D02*
X0109270Y0140410D01*
X0108136Y0138428D02*
X0108703Y0137861D01*
X0108703Y0136160D01*
X0105300Y0136160D01*
X0105300Y0137861D01*
X0105867Y0138428D01*
X0108136Y0138428D01*
X0102703Y0126245D02*
X0101569Y0125110D01*
X0105300Y0123129D02*
X0105300Y0121427D01*
X0108703Y0121427D01*
X0108703Y0123129D01*
X0108136Y0123696D01*
X0105867Y0123696D01*
X0105300Y0123129D01*
X0105300Y0120013D02*
X0107569Y0120013D01*
X0108703Y0118878D01*
X0107569Y0117744D01*
X0105300Y0117744D01*
X0107001Y0117744D02*
X0107001Y0120013D01*
X0094703Y0119445D02*
X0094703Y0117744D01*
X0091300Y0117744D01*
X0091300Y0119445D01*
X0091867Y0120013D01*
X0094136Y0120013D01*
X0094703Y0119445D01*
X0093569Y0121427D02*
X0093569Y0121994D01*
X0088703Y0121901D02*
X0088703Y0120199D01*
X0085300Y0120199D01*
X0086434Y0120199D02*
X0086434Y0121901D01*
X0087001Y0122468D01*
X0088136Y0122468D01*
X0088703Y0121901D01*
X0088136Y0123883D02*
X0088703Y0124450D01*
X0088703Y0125584D01*
X0088136Y0126151D01*
X0085867Y0126151D01*
X0085300Y0125584D01*
X0085300Y0124450D01*
X0085867Y0123883D01*
X0088136Y0123883D01*
X0086434Y0125017D02*
X0085300Y0126151D01*
X0085300Y0127566D02*
X0085300Y0129834D01*
X0085300Y0128700D02*
X0088703Y0128700D01*
X0087569Y0127566D01*
X0085300Y0122468D02*
X0086434Y0121334D01*
X0085300Y0118878D02*
X0085300Y0117744D01*
X0085300Y0118311D02*
X0088703Y0118311D01*
X0088703Y0117744D02*
X0088703Y0118878D01*
X0078203Y0118311D02*
X0077636Y0117744D01*
X0075367Y0117744D01*
X0074800Y0118311D01*
X0074800Y0119445D01*
X0075367Y0120013D01*
X0076501Y0120013D01*
X0076501Y0118878D01*
X0077636Y0120013D02*
X0078203Y0119445D01*
X0078203Y0118311D01*
X0078203Y0121427D02*
X0074800Y0123696D01*
X0078203Y0123696D01*
X0078203Y0125110D02*
X0078203Y0126812D01*
X0077636Y0127379D01*
X0075367Y0127379D01*
X0074800Y0126812D01*
X0074800Y0125110D01*
X0078203Y0125110D01*
X0078203Y0121427D02*
X0074800Y0121427D01*
X0064703Y0119445D02*
X0064136Y0120013D01*
X0063569Y0120013D01*
X0063001Y0119445D01*
X0062434Y0120013D01*
X0061867Y0120013D01*
X0061300Y0119445D01*
X0061300Y0118311D01*
X0061867Y0117744D01*
X0063001Y0118878D02*
X0063001Y0119445D01*
X0064703Y0119445D02*
X0064703Y0118311D01*
X0064136Y0117744D01*
X0061867Y0121427D02*
X0061867Y0121994D01*
X0061300Y0121994D01*
X0061300Y0121427D01*
X0061867Y0121427D01*
X0061867Y0123269D02*
X0061300Y0123836D01*
X0061300Y0124970D01*
X0061867Y0125537D01*
X0062434Y0125537D01*
X0063001Y0124970D01*
X0063001Y0124403D01*
X0063001Y0124970D02*
X0063569Y0125537D01*
X0064136Y0125537D01*
X0064703Y0124970D01*
X0064703Y0123836D01*
X0064136Y0123269D01*
X0064703Y0126952D02*
X0062434Y0126952D01*
X0061300Y0128086D01*
X0062434Y0129220D01*
X0064703Y0129220D01*
X0050703Y0123696D02*
X0048434Y0123696D01*
X0047300Y0122561D01*
X0048434Y0121427D01*
X0050703Y0121427D01*
X0050703Y0120013D02*
X0050703Y0117744D01*
X0049001Y0117744D01*
X0049569Y0118878D01*
X0049569Y0119445D01*
X0049001Y0120013D01*
X0047867Y0120013D01*
X0047300Y0119445D01*
X0047300Y0118311D01*
X0047867Y0117744D01*
X0056017Y0148603D02*
X0056017Y0152006D01*
X0054315Y0152006D01*
X0053748Y0151439D01*
X0053748Y0150305D01*
X0054315Y0149738D01*
X0056017Y0149738D01*
X0057431Y0150305D02*
X0057431Y0152573D01*
X0057999Y0153141D01*
X0059133Y0153141D01*
X0059700Y0152573D01*
X0059700Y0150305D01*
X0059133Y0149738D01*
X0057999Y0149738D01*
X0057431Y0150305D01*
X0052334Y0150305D02*
X0052334Y0151439D01*
X0051767Y0152006D01*
X0050632Y0152006D01*
X0050065Y0151439D01*
X0050065Y0150872D01*
X0052334Y0150872D01*
X0052334Y0150305D02*
X0051767Y0149738D01*
X0050632Y0149738D01*
X0048651Y0149738D02*
X0048651Y0152006D01*
X0046949Y0152006D01*
X0046382Y0151439D01*
X0046382Y0149738D01*
X0044967Y0151439D02*
X0042699Y0151439D01*
X0041284Y0151439D02*
X0039016Y0151439D01*
X0039016Y0149738D02*
X0039016Y0153141D01*
X0041284Y0153141D02*
X0041284Y0149738D01*
X0037601Y0150305D02*
X0037034Y0150872D01*
X0035333Y0150872D01*
X0035333Y0151439D02*
X0035333Y0149738D01*
X0037034Y0149738D01*
X0037601Y0150305D01*
X0037034Y0152006D02*
X0035900Y0152006D01*
X0035333Y0151439D01*
X0033918Y0150872D02*
X0032784Y0152006D01*
X0032217Y0152006D01*
X0030849Y0151439D02*
X0030282Y0152006D01*
X0028580Y0152006D01*
X0028580Y0153141D02*
X0028580Y0149738D01*
X0030282Y0149738D01*
X0030849Y0150305D01*
X0030849Y0151439D01*
X0033918Y0152006D02*
X0033918Y0149738D01*
X0027166Y0150305D02*
X0026598Y0149738D01*
X0026031Y0150305D01*
X0025464Y0149738D01*
X0024897Y0150305D01*
X0024897Y0152006D01*
X0022915Y0152006D02*
X0021781Y0152006D01*
X0021214Y0151439D01*
X0021214Y0149738D01*
X0022915Y0149738D01*
X0023482Y0150305D01*
X0022915Y0150872D01*
X0021214Y0150872D01*
X0019799Y0150872D02*
X0018665Y0152006D01*
X0018098Y0152006D01*
X0016730Y0151439D02*
X0016163Y0152006D01*
X0015029Y0152006D01*
X0014461Y0151439D01*
X0014461Y0150872D01*
X0016730Y0150872D01*
X0016730Y0150305D02*
X0016730Y0151439D01*
X0016730Y0150305D02*
X0016163Y0149738D01*
X0015029Y0149738D01*
X0019799Y0149738D02*
X0019799Y0152006D01*
X0027166Y0152006D02*
X0027166Y0150305D01*
X0031400Y0158438D02*
X0033800Y0160138D01*
X0034800Y0159538D01*
X0036700Y0164038D01*
X0031200Y0162732D02*
X0031104Y0162898D01*
X0031011Y0163065D01*
X0030923Y0163235D01*
X0030839Y0163407D01*
X0030759Y0163580D01*
X0030683Y0163756D01*
X0030611Y0163933D01*
X0030544Y0164112D01*
X0030480Y0164293D01*
X0030421Y0164475D01*
X0030367Y0164658D01*
X0030316Y0164843D01*
X0030270Y0165028D01*
X0030229Y0165215D01*
X0030192Y0165403D01*
X0030200Y0165438D02*
X0027200Y0165938D01*
X0027200Y0168538D01*
X0030200Y0169138D01*
X0031300Y0171638D02*
X0029500Y0174238D01*
X0031400Y0176038D01*
X0034000Y0174238D01*
X0036500Y0175238D02*
X0037000Y0178438D01*
X0039700Y0178438D01*
X0040200Y0175238D01*
X0042700Y0174238D02*
X0045300Y0176038D01*
X0047200Y0174238D01*
X0045400Y0171638D01*
X0046500Y0169138D02*
X0049500Y0168538D01*
X0049500Y0165938D01*
X0046500Y0165438D01*
X0045500Y0162738D02*
X0047100Y0160338D01*
X0045300Y0158438D01*
X0042900Y0160138D01*
X0041900Y0159538D01*
X0039900Y0164038D01*
X0045467Y0162770D02*
X0045570Y0162946D01*
X0045669Y0163125D01*
X0045763Y0163306D01*
X0045853Y0163489D01*
X0045938Y0163675D01*
X0046019Y0163862D01*
X0046095Y0164052D01*
X0046166Y0164243D01*
X0046233Y0164436D01*
X0046294Y0164631D01*
X0046352Y0164827D01*
X0046404Y0165024D01*
X0046451Y0165222D01*
X0046494Y0165422D01*
X0042666Y0174274D02*
X0042494Y0174374D01*
X0042319Y0174471D01*
X0042143Y0174563D01*
X0041964Y0174651D01*
X0041783Y0174735D01*
X0041600Y0174814D01*
X0041416Y0174889D01*
X0041229Y0174960D01*
X0041041Y0175026D01*
X0040852Y0175087D01*
X0040661Y0175144D01*
X0040468Y0175197D01*
X0040275Y0175244D01*
X0039900Y0164138D02*
X0040007Y0164193D01*
X0040113Y0164250D01*
X0040216Y0164312D01*
X0040318Y0164376D01*
X0040417Y0164444D01*
X0040514Y0164515D01*
X0040609Y0164589D01*
X0040701Y0164666D01*
X0040791Y0164747D01*
X0040878Y0164830D01*
X0040962Y0164916D01*
X0041043Y0165004D01*
X0041121Y0165096D01*
X0041197Y0165190D01*
X0041269Y0165286D01*
X0041338Y0165384D01*
X0041404Y0165485D01*
X0041466Y0165588D01*
X0041525Y0165693D01*
X0041581Y0165799D01*
X0041633Y0165908D01*
X0041681Y0166018D01*
X0041726Y0166130D01*
X0041767Y0166243D01*
X0041804Y0166357D01*
X0041838Y0166473D01*
X0041867Y0166589D01*
X0041893Y0166707D01*
X0041915Y0166825D01*
X0041934Y0166944D01*
X0041948Y0167063D01*
X0041958Y0167183D01*
X0041965Y0167303D01*
X0041967Y0167424D01*
X0041965Y0167544D01*
X0041960Y0167664D01*
X0041951Y0167784D01*
X0041937Y0167904D01*
X0041920Y0168023D01*
X0041899Y0168141D01*
X0041874Y0168259D01*
X0041845Y0168376D01*
X0041812Y0168491D01*
X0041776Y0168606D01*
X0041736Y0168719D01*
X0041692Y0168831D01*
X0041644Y0168942D01*
X0041593Y0169051D01*
X0041539Y0169158D01*
X0041480Y0169263D01*
X0041419Y0169367D01*
X0041354Y0169468D01*
X0041286Y0169567D01*
X0041214Y0169664D01*
X0041140Y0169758D01*
X0041062Y0169850D01*
X0040982Y0169939D01*
X0040898Y0170026D01*
X0040812Y0170110D01*
X0040723Y0170191D01*
X0040631Y0170269D01*
X0040537Y0170344D01*
X0040441Y0170415D01*
X0040342Y0170484D01*
X0040241Y0170549D01*
X0040138Y0170611D01*
X0040033Y0170670D01*
X0039926Y0170725D01*
X0039817Y0170777D01*
X0039707Y0170824D01*
X0039595Y0170869D01*
X0039482Y0170909D01*
X0039367Y0170946D01*
X0039251Y0170979D01*
X0039135Y0171009D01*
X0039017Y0171034D01*
X0038899Y0171056D01*
X0038780Y0171073D01*
X0038660Y0171087D01*
X0038540Y0171097D01*
X0038420Y0171103D01*
X0038300Y0171105D01*
X0038180Y0171103D01*
X0038060Y0171097D01*
X0037940Y0171087D01*
X0037820Y0171073D01*
X0037701Y0171056D01*
X0037583Y0171034D01*
X0037465Y0171009D01*
X0037349Y0170979D01*
X0037233Y0170946D01*
X0037118Y0170909D01*
X0037005Y0170869D01*
X0036893Y0170824D01*
X0036783Y0170777D01*
X0036674Y0170725D01*
X0036567Y0170670D01*
X0036462Y0170611D01*
X0036359Y0170549D01*
X0036258Y0170484D01*
X0036159Y0170415D01*
X0036063Y0170344D01*
X0035969Y0170269D01*
X0035877Y0170191D01*
X0035788Y0170110D01*
X0035702Y0170026D01*
X0035618Y0169939D01*
X0035538Y0169850D01*
X0035460Y0169758D01*
X0035386Y0169664D01*
X0035314Y0169567D01*
X0035246Y0169468D01*
X0035181Y0169367D01*
X0035120Y0169263D01*
X0035061Y0169158D01*
X0035007Y0169051D01*
X0034956Y0168942D01*
X0034908Y0168831D01*
X0034864Y0168719D01*
X0034824Y0168606D01*
X0034788Y0168491D01*
X0034755Y0168376D01*
X0034726Y0168259D01*
X0034701Y0168141D01*
X0034680Y0168023D01*
X0034663Y0167904D01*
X0034649Y0167784D01*
X0034640Y0167664D01*
X0034635Y0167544D01*
X0034633Y0167424D01*
X0034635Y0167303D01*
X0034642Y0167183D01*
X0034652Y0167063D01*
X0034666Y0166944D01*
X0034685Y0166825D01*
X0034707Y0166707D01*
X0034733Y0166589D01*
X0034762Y0166473D01*
X0034796Y0166357D01*
X0034833Y0166243D01*
X0034874Y0166130D01*
X0034919Y0166018D01*
X0034967Y0165908D01*
X0035019Y0165799D01*
X0035075Y0165693D01*
X0035134Y0165588D01*
X0035196Y0165485D01*
X0035262Y0165384D01*
X0035331Y0165286D01*
X0035403Y0165190D01*
X0035479Y0165096D01*
X0035557Y0165004D01*
X0035638Y0164916D01*
X0035722Y0164830D01*
X0035809Y0164747D01*
X0035899Y0164666D01*
X0035991Y0164589D01*
X0036086Y0164515D01*
X0036183Y0164444D01*
X0036282Y0164376D01*
X0036384Y0164312D01*
X0036487Y0164250D01*
X0036593Y0164193D01*
X0036700Y0164138D01*
X0030210Y0169138D02*
X0030260Y0169326D01*
X0030315Y0169513D01*
X0030374Y0169699D01*
X0030438Y0169883D01*
X0030506Y0170066D01*
X0030579Y0170247D01*
X0030656Y0170426D01*
X0030737Y0170603D01*
X0030823Y0170779D01*
X0030912Y0170952D01*
X0031006Y0171123D01*
X0031104Y0171291D01*
X0031206Y0171458D01*
X0031311Y0171621D01*
X0033963Y0174255D02*
X0034128Y0174353D01*
X0034296Y0174447D01*
X0034466Y0174537D01*
X0034638Y0174624D01*
X0034811Y0174706D01*
X0034987Y0174785D01*
X0035164Y0174859D01*
X0035343Y0174929D01*
X0035524Y0174995D01*
X0035706Y0175057D01*
X0035889Y0175115D01*
X0036074Y0175169D01*
X0036260Y0175218D01*
X0036447Y0175263D01*
X0045392Y0171584D02*
X0045492Y0171422D01*
X0045589Y0171257D01*
X0045682Y0171090D01*
X0045770Y0170921D01*
X0045855Y0170751D01*
X0045936Y0170578D01*
X0046013Y0170403D01*
X0046086Y0170227D01*
X0046155Y0170049D01*
X0046220Y0169869D01*
X0046281Y0169689D01*
X0046337Y0169506D01*
X0046390Y0169323D01*
X0046438Y0169138D01*
X0031200Y0162738D02*
X0029500Y0160338D01*
X0031400Y0158438D01*
X0113800Y0159393D02*
X0114367Y0158826D01*
X0116636Y0158826D01*
X0116069Y0158259D02*
X0116069Y0159393D01*
X0116069Y0161281D02*
X0116069Y0162415D01*
X0115501Y0162983D01*
X0113800Y0162983D01*
X0113800Y0161281D01*
X0114367Y0160714D01*
X0114934Y0161281D01*
X0114934Y0162983D01*
X0114934Y0156844D02*
X0114934Y0155143D01*
X0114367Y0154575D01*
X0113800Y0155143D01*
X0113800Y0156844D01*
X0115501Y0156844D01*
X0116069Y0156277D01*
X0116069Y0155143D01*
X0116636Y0153161D02*
X0114367Y0153161D01*
X0113800Y0152594D01*
X0113800Y0150892D01*
X0117203Y0150892D01*
X0117203Y0152594D01*
X0116636Y0153161D01*
X0140250Y0086006D02*
X0141952Y0086006D01*
X0142519Y0085439D01*
X0141952Y0084872D01*
X0140818Y0084872D01*
X0140250Y0084305D01*
X0140818Y0083738D01*
X0142519Y0083738D01*
X0143840Y0083738D02*
X0144407Y0084305D01*
X0144407Y0086573D01*
X0144974Y0086006D02*
X0143840Y0086006D01*
X0146389Y0085439D02*
X0146956Y0086006D01*
X0148658Y0086006D01*
X0148658Y0083738D01*
X0150072Y0084872D02*
X0152341Y0084872D01*
X0152341Y0085439D02*
X0151774Y0086006D01*
X0150639Y0086006D01*
X0150072Y0085439D01*
X0150072Y0084872D01*
X0150639Y0083738D02*
X0151774Y0083738D01*
X0152341Y0084305D01*
X0152341Y0085439D01*
X0153755Y0085439D02*
X0153755Y0083738D01*
X0153755Y0085439D02*
X0154322Y0086006D01*
X0156024Y0086006D01*
X0156024Y0083738D01*
X0157438Y0084305D02*
X0157438Y0085439D01*
X0158006Y0086006D01*
X0159140Y0086006D01*
X0159707Y0085439D01*
X0159707Y0084305D01*
X0159140Y0083738D01*
X0158006Y0083738D01*
X0157438Y0084305D01*
X0161122Y0084305D02*
X0161689Y0083738D01*
X0163390Y0083738D01*
X0163390Y0082603D02*
X0163390Y0086006D01*
X0161689Y0086006D01*
X0161122Y0085439D01*
X0161122Y0084305D01*
X0164805Y0083738D02*
X0164805Y0085439D01*
X0165372Y0086006D01*
X0165939Y0085439D01*
X0165939Y0083738D01*
X0167073Y0083738D02*
X0167073Y0086006D01*
X0166506Y0086006D01*
X0165939Y0085439D01*
X0168488Y0085439D02*
X0169055Y0086006D01*
X0170189Y0086006D01*
X0170756Y0085439D01*
X0170756Y0084305D01*
X0170189Y0083738D01*
X0169055Y0083738D01*
X0168488Y0084305D01*
X0168488Y0085439D01*
X0172171Y0086006D02*
X0173872Y0086006D01*
X0174440Y0085439D01*
X0174440Y0084305D01*
X0173872Y0083738D01*
X0172171Y0083738D01*
X0179537Y0084305D02*
X0180104Y0083738D01*
X0181239Y0083738D01*
X0181806Y0084305D01*
X0181239Y0085439D02*
X0180104Y0085439D01*
X0179537Y0084872D01*
X0179537Y0084305D01*
X0181239Y0085439D02*
X0181806Y0086006D01*
X0181806Y0086573D01*
X0181239Y0087141D01*
X0180104Y0087141D01*
X0179537Y0086573D01*
X0183220Y0087141D02*
X0183220Y0083738D01*
X0183220Y0085439D02*
X0185489Y0085439D01*
X0186904Y0085439D02*
X0187471Y0086006D01*
X0188605Y0086006D01*
X0189172Y0085439D01*
X0189172Y0084305D01*
X0188605Y0083738D01*
X0187471Y0083738D01*
X0186904Y0084305D01*
X0186904Y0085439D01*
X0185489Y0083738D02*
X0185489Y0087141D01*
X0190587Y0086573D02*
X0190587Y0085439D01*
X0191154Y0084872D01*
X0192855Y0084872D01*
X0191721Y0084872D02*
X0190587Y0083738D01*
X0192855Y0083738D02*
X0192855Y0087141D01*
X0191154Y0087141D01*
X0190587Y0086573D01*
X0197953Y0085439D02*
X0200222Y0085439D01*
X0205319Y0084872D02*
X0205319Y0084305D01*
X0205886Y0083738D01*
X0207588Y0083738D01*
X0207588Y0087141D01*
X0205886Y0087141D01*
X0205319Y0086573D01*
X0205319Y0086006D01*
X0205886Y0085439D01*
X0207588Y0085439D01*
X0205886Y0085439D02*
X0205319Y0084872D01*
X0209002Y0084305D02*
X0209570Y0083738D01*
X0210704Y0083738D01*
X0211271Y0084305D01*
X0211271Y0086573D01*
X0210704Y0087141D01*
X0209570Y0087141D01*
X0209002Y0086573D01*
X0212686Y0086573D02*
X0212686Y0085439D01*
X0213253Y0084872D01*
X0214954Y0084872D01*
X0214954Y0083738D02*
X0214954Y0087141D01*
X0213253Y0087141D01*
X0212686Y0086573D01*
X0220052Y0085439D02*
X0220052Y0084872D01*
X0222321Y0084872D01*
X0222321Y0085439D02*
X0221753Y0086006D01*
X0220619Y0086006D01*
X0220052Y0085439D01*
X0220619Y0083738D02*
X0221753Y0083738D01*
X0222321Y0084305D01*
X0222321Y0085439D01*
X0223735Y0085439D02*
X0223735Y0084872D01*
X0226004Y0084872D01*
X0226004Y0085439D02*
X0225437Y0086006D01*
X0224302Y0086006D01*
X0223735Y0085439D01*
X0224302Y0083738D02*
X0225437Y0083738D01*
X0226004Y0084305D01*
X0226004Y0085439D01*
X0227371Y0086006D02*
X0227939Y0086006D01*
X0229073Y0084872D01*
X0229073Y0083738D02*
X0229073Y0086006D01*
X0230394Y0085439D02*
X0231528Y0085439D01*
X0230961Y0086573D02*
X0230961Y0083738D01*
X0230961Y0086573D02*
X0230394Y0087141D01*
X0236626Y0087141D02*
X0236626Y0083738D01*
X0238328Y0083738D01*
X0238895Y0084305D01*
X0238895Y0085439D01*
X0238328Y0086006D01*
X0236626Y0086006D01*
X0240309Y0085439D02*
X0240309Y0083738D01*
X0242011Y0083738D01*
X0242578Y0084305D01*
X0242011Y0084872D01*
X0240309Y0084872D01*
X0240309Y0085439D02*
X0240876Y0086006D01*
X0242011Y0086006D01*
X0243992Y0085439D02*
X0244559Y0086006D01*
X0245694Y0086006D01*
X0246261Y0085439D01*
X0246261Y0084305D01*
X0245694Y0083738D01*
X0244559Y0083738D01*
X0243992Y0084872D02*
X0246261Y0084872D01*
X0247675Y0083738D02*
X0249944Y0083738D01*
X0249944Y0087141D01*
X0243992Y0085439D02*
X0243992Y0084872D01*
X0146389Y0085439D02*
X0146389Y0083738D01*
D16*
X0370726Y0326980D03*
X0371176Y0327580D03*
X0371776Y0328580D03*
X0377376Y0328880D03*
X0377476Y0329130D03*
X0382926Y0326780D03*
X0385126Y0335180D03*
X0383726Y0339180D03*
X0368526Y0335030D03*
D17*
X0368139Y0334605D03*
X0367439Y0329755D03*
X0370739Y0327005D03*
X0371163Y0327605D03*
X0371763Y0328605D03*
X0377339Y0328905D03*
X0383113Y0328755D03*
X0383389Y0327755D03*
X0382939Y0326805D03*
X0385139Y0335205D03*
X0385163Y0335255D03*
X0382163Y0337855D03*
X0380863Y0338155D03*
D18*
X0380726Y0337830D03*
X0382176Y0337880D03*
X0383376Y0327780D03*
X0382926Y0326830D03*
X0377826Y0328230D03*
D19*
X0377814Y0328255D03*
X0382938Y0326855D03*
X0383364Y0327805D03*
X0385164Y0335305D03*
X0383688Y0339155D03*
X0376838Y0338055D03*
X0371738Y0328655D03*
X0371138Y0327655D03*
X0366464Y0327205D03*
D20*
X0367551Y0329805D03*
X0370851Y0334155D03*
X0373601Y0327455D03*
X0382151Y0326855D03*
X0382251Y0337955D03*
D21*
X0382464Y0339380D03*
X0376914Y0336680D03*
X0377238Y0335780D03*
X0377438Y0329180D03*
X0377288Y0328930D03*
X0377464Y0327330D03*
X0373088Y0327380D03*
X0371738Y0328680D03*
X0370514Y0327630D03*
X0370738Y0327080D03*
X0366464Y0327180D03*
X0368138Y0334580D03*
X0366364Y0335180D03*
X0366164Y0338380D03*
X0383088Y0328780D03*
X0382938Y0326880D03*
D22*
X0382863Y0327080D03*
X0382163Y0326880D03*
X0382813Y0328280D03*
X0377413Y0329480D03*
X0373613Y0327480D03*
X0377039Y0336780D03*
X0382339Y0338080D03*
X0383413Y0336780D03*
X0383339Y0335980D03*
X0367539Y0335780D03*
X0367539Y0335730D03*
X0367513Y0335880D03*
X0367489Y0335980D03*
X0366513Y0335430D03*
D23*
X0366389Y0335205D03*
X0366213Y0338305D03*
X0376939Y0336705D03*
X0377263Y0335805D03*
X0380989Y0336655D03*
X0385139Y0335355D03*
X0384139Y0333505D03*
X0383339Y0327855D03*
X0382939Y0326905D03*
X0377763Y0328305D03*
X0377413Y0329255D03*
X0371739Y0328755D03*
D24*
X0371776Y0329155D03*
X0370626Y0328055D03*
X0377076Y0336805D03*
X0370376Y0339305D03*
X0382676Y0327805D03*
X0382176Y0326905D03*
D25*
X0382926Y0326930D03*
X0383326Y0327880D03*
X0383026Y0328830D03*
X0378976Y0327730D03*
X0371726Y0328780D03*
X0370476Y0334330D03*
X0369876Y0339880D03*
X0369826Y0339930D03*
X0369776Y0339980D03*
X0369726Y0340030D03*
X0369526Y0340280D03*
X0366226Y0338280D03*
X0382226Y0337930D03*
D26*
X0382414Y0338180D03*
X0383364Y0336180D03*
X0384464Y0336630D03*
X0383614Y0333530D03*
X0381764Y0329980D03*
X0382188Y0326930D03*
X0377488Y0329630D03*
X0375738Y0327480D03*
X0369788Y0328030D03*
X0366488Y0337830D03*
X0371414Y0340080D03*
X0377114Y0336830D03*
D27*
X0370088Y0339655D03*
X0370038Y0339705D03*
X0369938Y0339805D03*
X0369714Y0340055D03*
X0369664Y0340105D03*
X0369614Y0340155D03*
X0369538Y0340255D03*
X0366238Y0338255D03*
X0366414Y0335255D03*
X0368114Y0334505D03*
X0377414Y0329305D03*
X0377714Y0328355D03*
X0382914Y0326955D03*
X0383288Y0327905D03*
D28*
X0382789Y0328255D03*
X0382289Y0328755D03*
X0381639Y0330105D03*
X0381613Y0330155D03*
X0382189Y0326955D03*
X0383639Y0333605D03*
X0383613Y0333905D03*
X0383363Y0336255D03*
X0383363Y0336505D03*
X0383363Y0336555D03*
X0382439Y0338205D03*
X0380713Y0336805D03*
X0379863Y0339855D03*
X0370489Y0339155D03*
X0366539Y0337755D03*
X0366639Y0335755D03*
X0370489Y0328705D03*
X0369763Y0328005D03*
D29*
X0370726Y0326955D03*
X0378376Y0327055D03*
X0379026Y0327055D03*
X0383426Y0327705D03*
X0384476Y0335105D03*
X0366326Y0335105D03*
X0366126Y0338455D03*
D30*
X0366264Y0338230D03*
X0368764Y0336980D03*
X0370064Y0339680D03*
X0370014Y0339730D03*
X0369964Y0339780D03*
X0369914Y0339830D03*
X0369688Y0340080D03*
X0369638Y0340130D03*
X0369564Y0340230D03*
X0379914Y0339930D03*
X0377414Y0329280D03*
X0379014Y0327080D03*
X0382914Y0326980D03*
X0371738Y0328830D03*
X0371038Y0327730D03*
D31*
X0370488Y0328680D03*
X0369738Y0327980D03*
X0373588Y0327930D03*
X0377538Y0329680D03*
X0381564Y0330280D03*
X0382538Y0329030D03*
X0382264Y0328680D03*
X0382238Y0328630D03*
X0382214Y0326980D03*
X0383664Y0333730D03*
X0383638Y0333780D03*
X0383638Y0333830D03*
X0383364Y0336380D03*
X0383364Y0336430D03*
X0383364Y0336480D03*
X0382438Y0338230D03*
X0380814Y0338580D03*
X0371538Y0339930D03*
X0368514Y0335680D03*
X0366664Y0335830D03*
D32*
X0366439Y0335305D03*
X0368113Y0334455D03*
X0368863Y0336955D03*
X0366289Y0338155D03*
X0370139Y0339605D03*
X0370189Y0339555D03*
X0382289Y0338005D03*
X0382963Y0328855D03*
X0382913Y0327005D03*
X0377313Y0328555D03*
X0377413Y0329355D03*
X0373139Y0327505D03*
D33*
X0370076Y0328205D03*
X0376776Y0328905D03*
X0377576Y0329705D03*
X0381526Y0330405D03*
X0382226Y0327005D03*
X0383476Y0335605D03*
X0383526Y0335755D03*
X0383926Y0336005D03*
X0383976Y0336055D03*
X0384026Y0336155D03*
X0380526Y0337005D03*
X0380426Y0337155D03*
X0370576Y0339055D03*
X0366626Y0337605D03*
X0366726Y0336055D03*
X0369326Y0334755D03*
X0369276Y0334405D03*
D34*
X0368951Y0336930D03*
X0370251Y0339480D03*
X0370201Y0339530D03*
X0366451Y0335330D03*
X0377401Y0329380D03*
X0382901Y0327030D03*
X0380601Y0337730D03*
X0380551Y0338380D03*
D35*
X0383126Y0338880D03*
X0384226Y0336380D03*
X0383476Y0335530D03*
X0381526Y0330430D03*
X0382226Y0327030D03*
X0376676Y0328730D03*
X0370476Y0328630D03*
X0369226Y0334330D03*
X0369276Y0334880D03*
X0366676Y0337530D03*
D36*
X0366139Y0338430D03*
X0366339Y0335130D03*
X0370363Y0334280D03*
X0370689Y0334130D03*
X0370363Y0327530D03*
X0370139Y0327530D03*
X0370739Y0327030D03*
X0373113Y0327330D03*
X0377489Y0327280D03*
X0383413Y0327730D03*
X0385139Y0335230D03*
X0385163Y0335280D03*
X0384913Y0336380D03*
X0366463Y0327130D03*
D37*
X0368126Y0334405D03*
X0370276Y0339455D03*
X0380826Y0338505D03*
X0382326Y0338055D03*
X0383426Y0336805D03*
X0383226Y0327955D03*
X0382876Y0327055D03*
X0377426Y0329455D03*
D38*
X0376651Y0328655D03*
X0382251Y0327055D03*
X0382801Y0333855D03*
X0375201Y0336105D03*
X0370651Y0338955D03*
X0366701Y0337505D03*
X0369201Y0334305D03*
X0370501Y0328605D03*
D39*
X0370751Y0327055D03*
X0373101Y0327355D03*
X0375801Y0327455D03*
X0377451Y0329155D03*
X0366451Y0327155D03*
X0366351Y0335155D03*
X0366151Y0338405D03*
D40*
X0366351Y0338055D03*
X0366501Y0335405D03*
X0369051Y0336905D03*
X0370301Y0339405D03*
X0380551Y0337705D03*
X0383351Y0335955D03*
X0371751Y0329055D03*
X0370151Y0327055D03*
D41*
X0368601Y0333680D03*
X0371101Y0334630D03*
X0381801Y0328230D03*
X0382251Y0327080D03*
X0383601Y0335830D03*
D42*
X0378401Y0327080D03*
X0371751Y0328630D03*
X0371151Y0327630D03*
D43*
X0370139Y0327080D03*
X0371789Y0329180D03*
X0377013Y0327380D03*
X0381913Y0329880D03*
X0383513Y0334030D03*
X0384789Y0335780D03*
X0375313Y0335980D03*
X0370789Y0334480D03*
X0368139Y0334330D03*
X0366589Y0335580D03*
X0367389Y0336180D03*
X0366463Y0337880D03*
X0371389Y0340130D03*
D44*
X0371938Y0339355D03*
X0374964Y0336255D03*
X0375164Y0335055D03*
X0376164Y0336505D03*
X0383038Y0334655D03*
X0381288Y0330505D03*
X0382438Y0327105D03*
X0368614Y0329405D03*
X0366988Y0336255D03*
D45*
X0374501Y0329755D03*
X0378451Y0327205D03*
X0379001Y0327105D03*
X0377001Y0336755D03*
X0380001Y0337755D03*
X0383501Y0339055D03*
D46*
X0382201Y0337905D03*
X0380701Y0337805D03*
X0383751Y0333255D03*
X0383051Y0328805D03*
X0382801Y0328305D03*
X0378401Y0327105D03*
X0377451Y0327355D03*
X0373101Y0327405D03*
X0371751Y0328705D03*
X0368651Y0337005D03*
D47*
X0368126Y0334555D03*
X0370426Y0334305D03*
X0366176Y0338355D03*
X0370726Y0327105D03*
X0377426Y0329205D03*
D48*
X0370151Y0327105D03*
X0368201Y0334255D03*
X0366651Y0335805D03*
X0383351Y0336305D03*
X0383351Y0336355D03*
X0383651Y0333705D03*
X0383651Y0333655D03*
D49*
X0383664Y0333755D03*
X0383638Y0333805D03*
X0383788Y0333355D03*
X0383364Y0336405D03*
X0383364Y0336455D03*
X0384464Y0336605D03*
X0380664Y0336855D03*
X0381564Y0330255D03*
X0381588Y0330205D03*
X0382238Y0328655D03*
X0370938Y0334555D03*
X0366664Y0335855D03*
X0366564Y0337705D03*
X0370538Y0339105D03*
X0371514Y0339955D03*
X0368688Y0327105D03*
D50*
X0366451Y0327105D03*
X0377501Y0327255D03*
X0377851Y0328205D03*
X0377201Y0335755D03*
X0376901Y0336655D03*
X0380001Y0337805D03*
D51*
X0382576Y0338580D03*
X0382726Y0338730D03*
X0384626Y0335530D03*
X0377776Y0340230D03*
X0382426Y0327130D03*
D52*
X0382701Y0327780D03*
X0379001Y0327130D03*
X0373551Y0327980D03*
X0371751Y0329080D03*
X0380901Y0336680D03*
X0383351Y0335930D03*
X0383451Y0339030D03*
D53*
X0380663Y0337780D03*
X0380013Y0337780D03*
X0385139Y0335380D03*
X0378413Y0327130D03*
X0373089Y0327430D03*
X0371739Y0328730D03*
X0370513Y0328780D03*
X0367489Y0329780D03*
X0368113Y0334530D03*
D54*
X0366401Y0335230D03*
X0370701Y0327130D03*
X0373101Y0327480D03*
X0377751Y0328330D03*
D55*
X0376739Y0328880D03*
X0378989Y0327680D03*
X0382013Y0328380D03*
X0382089Y0328430D03*
X0382139Y0328480D03*
X0382189Y0328530D03*
X0382213Y0328580D03*
X0383789Y0333380D03*
X0383489Y0335630D03*
X0383489Y0335680D03*
X0383513Y0335730D03*
X0383863Y0335930D03*
X0384039Y0336180D03*
X0384063Y0336230D03*
X0384089Y0336280D03*
X0384139Y0336330D03*
X0380589Y0336930D03*
X0369339Y0334730D03*
X0369339Y0334680D03*
X0369339Y0334630D03*
X0369313Y0334780D03*
X0369313Y0334480D03*
X0366713Y0335980D03*
X0366613Y0337630D03*
X0370263Y0328430D03*
X0370163Y0327130D03*
D56*
X0368676Y0327130D03*
X0382776Y0333580D03*
X0382776Y0333630D03*
X0382776Y0333680D03*
D57*
X0382551Y0333105D03*
X0382401Y0327155D03*
X0380951Y0327205D03*
X0368651Y0333805D03*
X0368451Y0335605D03*
X0367001Y0336205D03*
X0366951Y0337155D03*
X0377951Y0340005D03*
D58*
X0380939Y0338105D03*
X0380563Y0336955D03*
X0383489Y0335655D03*
X0384089Y0336255D03*
X0384113Y0336305D03*
X0384163Y0336355D03*
X0383189Y0338905D03*
X0381539Y0330355D03*
X0382163Y0328505D03*
X0382113Y0328455D03*
X0381963Y0328355D03*
X0381889Y0328305D03*
X0380889Y0327155D03*
X0376739Y0328855D03*
X0370589Y0328005D03*
X0370239Y0328405D03*
X0370289Y0328455D03*
X0370339Y0328505D03*
X0370489Y0328655D03*
X0370013Y0328155D03*
X0369313Y0334455D03*
X0369339Y0334605D03*
X0369339Y0334655D03*
X0369339Y0334705D03*
X0366713Y0336005D03*
X0366589Y0337655D03*
X0371589Y0339855D03*
D59*
X0366389Y0338005D03*
X0367513Y0335905D03*
X0367513Y0335855D03*
X0367539Y0335805D03*
X0367539Y0335755D03*
X0367539Y0335705D03*
X0376963Y0338105D03*
X0377363Y0335855D03*
X0380863Y0336705D03*
X0378989Y0327155D03*
X0377013Y0327355D03*
D60*
X0378426Y0327155D03*
X0373576Y0328005D03*
X0371726Y0328805D03*
X0371076Y0327705D03*
X0385126Y0335405D03*
D61*
X0376451Y0335755D03*
X0368601Y0336355D03*
X0367201Y0334455D03*
X0367151Y0334305D03*
X0370301Y0327155D03*
D62*
X0368689Y0327155D03*
X0368413Y0328755D03*
X0368413Y0328805D03*
X0368413Y0328855D03*
X0368439Y0328905D03*
X0367289Y0333555D03*
X0367313Y0334655D03*
X0375039Y0336205D03*
X0376339Y0336105D03*
X0376363Y0336055D03*
X0376763Y0334405D03*
X0378839Y0327305D03*
D63*
X0382389Y0327180D03*
X0383063Y0334680D03*
X0376113Y0336580D03*
X0377963Y0339980D03*
X0366963Y0337130D03*
X0368639Y0329480D03*
D64*
X0368388Y0328630D03*
X0368388Y0328080D03*
X0368388Y0328030D03*
X0370264Y0327180D03*
X0378814Y0327280D03*
X0379064Y0327630D03*
X0380914Y0327180D03*
X0382564Y0328880D03*
X0382664Y0333280D03*
X0376738Y0334430D03*
X0376438Y0335830D03*
X0376414Y0335880D03*
X0376414Y0335930D03*
X0376388Y0335980D03*
X0369088Y0335030D03*
X0367214Y0334480D03*
X0367188Y0334430D03*
X0366814Y0337330D03*
D65*
X0366438Y0337930D03*
X0366538Y0335480D03*
X0370364Y0339330D03*
X0371338Y0340180D03*
X0380814Y0338530D03*
X0383388Y0334230D03*
X0383488Y0334080D03*
X0382014Y0329830D03*
X0378988Y0327180D03*
X0377438Y0329530D03*
X0371764Y0329130D03*
X0366988Y0327680D03*
D66*
X0371726Y0328880D03*
X0377426Y0327380D03*
X0378426Y0327180D03*
X0382576Y0329080D03*
X0384476Y0336680D03*
X0382276Y0337980D03*
X0376976Y0336730D03*
X0375576Y0335180D03*
D67*
X0376176Y0336480D03*
X0379726Y0339630D03*
X0371926Y0339380D03*
X0366926Y0337180D03*
X0366976Y0336330D03*
X0367476Y0334880D03*
X0368576Y0329330D03*
X0368676Y0327180D03*
D68*
X0366901Y0327180D03*
X0370851Y0328530D03*
X0371101Y0327680D03*
X0377801Y0328280D03*
X0383351Y0327830D03*
X0385151Y0335330D03*
X0383651Y0336930D03*
X0383651Y0339130D03*
X0366201Y0338330D03*
D69*
X0367601Y0334955D03*
X0370901Y0338605D03*
X0382501Y0333055D03*
X0379301Y0329305D03*
X0379451Y0329055D03*
X0379551Y0328905D03*
X0382351Y0327205D03*
D70*
X0381876Y0329905D03*
X0378976Y0327705D03*
X0378976Y0327205D03*
X0376926Y0329055D03*
X0375476Y0335155D03*
X0366476Y0337855D03*
D71*
X0367251Y0333605D03*
X0371251Y0334705D03*
X0371851Y0339505D03*
X0376401Y0335955D03*
X0382651Y0333255D03*
X0384401Y0336405D03*
X0370251Y0327205D03*
X0368401Y0328655D03*
X0368401Y0328705D03*
D72*
X0368676Y0327205D03*
X0377976Y0339955D03*
X0382576Y0338605D03*
D73*
X0383401Y0339005D03*
X0383351Y0336005D03*
X0383401Y0334205D03*
X0371751Y0329105D03*
X0366851Y0327205D03*
X0367551Y0335605D03*
X0367551Y0335655D03*
X0367501Y0335955D03*
X0370351Y0339355D03*
D74*
X0378663Y0338580D03*
X0378763Y0338630D03*
X0370439Y0330880D03*
X0381639Y0327230D03*
D75*
X0378764Y0327230D03*
X0382738Y0333430D03*
X0384738Y0335680D03*
X0382488Y0338380D03*
X0376538Y0335230D03*
X0376538Y0335180D03*
X0376538Y0335130D03*
X0376538Y0335080D03*
X0376538Y0335030D03*
X0376614Y0334630D03*
X0367164Y0333830D03*
X0367138Y0333980D03*
X0366888Y0327430D03*
D76*
X0368464Y0329030D03*
X0368488Y0329130D03*
X0368514Y0329180D03*
X0370214Y0327230D03*
X0367338Y0333480D03*
X0368464Y0335630D03*
X0366938Y0336480D03*
X0370814Y0338730D03*
X0371888Y0339430D03*
X0377888Y0340180D03*
X0377914Y0340130D03*
X0382314Y0338330D03*
X0382564Y0338530D03*
X0382988Y0334480D03*
X0382988Y0334430D03*
X0382988Y0334380D03*
X0382988Y0334330D03*
X0381338Y0330480D03*
X0378888Y0327330D03*
X0376838Y0334330D03*
D77*
X0378064Y0339730D03*
X0377988Y0339830D03*
X0383364Y0335130D03*
X0383188Y0334830D03*
X0383164Y0334780D03*
X0379188Y0329480D03*
X0379888Y0328530D03*
X0374388Y0328430D03*
X0374314Y0328480D03*
X0374238Y0328530D03*
X0374064Y0328630D03*
X0368688Y0327230D03*
X0367038Y0337030D03*
D78*
X0366638Y0337580D03*
X0366738Y0336130D03*
X0368238Y0334230D03*
X0369264Y0334380D03*
X0369288Y0334830D03*
X0371614Y0339830D03*
X0375238Y0336080D03*
X0375388Y0335130D03*
X0380414Y0337180D03*
X0383464Y0335580D03*
X0383988Y0336080D03*
X0384764Y0335730D03*
X0382764Y0328230D03*
X0376914Y0328980D03*
X0376838Y0328930D03*
X0376688Y0328780D03*
X0370588Y0327980D03*
X0370164Y0328280D03*
X0370188Y0328330D03*
X0370114Y0328230D03*
X0370388Y0328530D03*
X0366738Y0327230D03*
D79*
X0370401Y0330855D03*
X0371601Y0336455D03*
X0378351Y0338405D03*
X0378901Y0336155D03*
X0378351Y0330005D03*
X0381601Y0327255D03*
D80*
X0378789Y0327255D03*
X0382713Y0333355D03*
X0384713Y0335655D03*
X0382939Y0338805D03*
X0376463Y0335705D03*
X0376489Y0335605D03*
X0376513Y0335505D03*
X0371813Y0339555D03*
X0366789Y0337355D03*
X0367163Y0334355D03*
X0367139Y0334255D03*
X0367139Y0334205D03*
X0367189Y0333705D03*
X0367213Y0333655D03*
X0368639Y0333705D03*
D81*
X0366976Y0336305D03*
X0368576Y0329355D03*
X0370176Y0327255D03*
X0373576Y0327605D03*
D82*
X0368764Y0327255D03*
X0381188Y0330655D03*
X0371014Y0338455D03*
X0372064Y0339105D03*
X0368714Y0334105D03*
X0380638Y0339055D03*
X0380738Y0339155D03*
D83*
X0382801Y0334205D03*
X0369251Y0334355D03*
X0366751Y0336155D03*
X0366651Y0337555D03*
X0369701Y0327955D03*
X0366751Y0327255D03*
D84*
X0369189Y0327430D03*
X0369239Y0327380D03*
X0369289Y0327330D03*
X0374089Y0330480D03*
X0379613Y0335180D03*
X0381563Y0327280D03*
D85*
X0378326Y0330030D03*
X0374126Y0330530D03*
X0370376Y0330830D03*
X0369326Y0327280D03*
X0379576Y0335230D03*
X0379476Y0335380D03*
D86*
X0380363Y0337230D03*
X0381239Y0339680D03*
X0384439Y0336530D03*
X0382789Y0334180D03*
X0382789Y0334130D03*
X0382789Y0334080D03*
X0382789Y0334030D03*
X0382789Y0333980D03*
X0382789Y0333930D03*
X0382789Y0333880D03*
X0383789Y0333430D03*
X0382539Y0328980D03*
X0376663Y0328680D03*
X0376613Y0328580D03*
X0369263Y0334930D03*
X0370639Y0338980D03*
X0371689Y0339730D03*
X0366763Y0327280D03*
D87*
X0381514Y0327305D03*
D88*
X0377476Y0327305D03*
X0377026Y0327305D03*
X0370876Y0328505D03*
X0382526Y0339355D03*
D89*
X0379563Y0335255D03*
X0379613Y0335155D03*
X0371763Y0336405D03*
X0371339Y0337905D03*
X0370339Y0330805D03*
X0369213Y0327405D03*
X0369263Y0327355D03*
X0369313Y0327305D03*
X0375839Y0328055D03*
D90*
X0376614Y0328555D03*
X0379014Y0327655D03*
X0373614Y0327905D03*
X0370588Y0327955D03*
X0366788Y0327305D03*
X0371714Y0339705D03*
X0383064Y0338855D03*
X0382788Y0333805D03*
X0382788Y0333755D03*
X0382788Y0333705D03*
X0383788Y0333455D03*
D91*
X0378238Y0330130D03*
X0381464Y0327330D03*
X0373938Y0330330D03*
X0373288Y0329780D03*
X0370214Y0330730D03*
D92*
X0371739Y0328930D03*
X0377013Y0327330D03*
X0383263Y0327930D03*
X0377313Y0335830D03*
X0370163Y0339580D03*
X0366313Y0338130D03*
X0366289Y0338180D03*
X0366439Y0335280D03*
D93*
X0366739Y0337430D03*
X0371763Y0339630D03*
X0375163Y0336130D03*
X0382763Y0333530D03*
X0377089Y0327480D03*
X0366813Y0327330D03*
D94*
X0373788Y0334055D03*
X0380638Y0327355D03*
D95*
X0376576Y0334755D03*
X0375126Y0336155D03*
X0366826Y0327355D03*
D96*
X0371976Y0337030D03*
X0380626Y0327380D03*
D97*
X0382551Y0328930D03*
X0382751Y0333480D03*
X0376601Y0334680D03*
X0376551Y0334830D03*
X0376551Y0334880D03*
X0376551Y0334930D03*
X0376551Y0334980D03*
X0370701Y0338880D03*
X0383001Y0338830D03*
X0377051Y0327530D03*
X0366851Y0327380D03*
D98*
X0373239Y0335455D03*
X0373239Y0335555D03*
X0379163Y0333805D03*
X0380613Y0327405D03*
D99*
X0377126Y0327405D03*
X0376626Y0328605D03*
X0376926Y0328955D03*
X0383476Y0335505D03*
X0383576Y0335805D03*
D100*
X0383638Y0335855D03*
X0382738Y0333455D03*
X0380264Y0337305D03*
X0382514Y0338405D03*
X0376538Y0335205D03*
X0376538Y0335155D03*
X0376538Y0335105D03*
X0376538Y0335055D03*
X0376588Y0334705D03*
X0376614Y0334655D03*
X0371164Y0334655D03*
X0371788Y0339605D03*
X0377014Y0327555D03*
X0366864Y0327405D03*
D101*
X0380601Y0327430D03*
D102*
X0377114Y0327430D03*
X0370488Y0328580D03*
X0369188Y0334280D03*
X0369214Y0334980D03*
X0366714Y0337480D03*
X0370664Y0338930D03*
X0371738Y0339680D03*
X0380314Y0337280D03*
X0382788Y0333780D03*
X0382788Y0333730D03*
X0383788Y0333480D03*
D103*
X0380601Y0327455D03*
X0373151Y0335655D03*
D104*
X0371751Y0339655D03*
X0369151Y0334255D03*
X0377101Y0327455D03*
X0382551Y0328955D03*
X0384751Y0335705D03*
D105*
X0383601Y0339105D03*
X0382101Y0329805D03*
X0373101Y0327455D03*
X0370001Y0339755D03*
X0369901Y0339855D03*
X0369851Y0339905D03*
X0369801Y0339955D03*
X0369751Y0340005D03*
D106*
X0379501Y0335355D03*
X0379601Y0335205D03*
X0374101Y0330505D03*
X0369151Y0327455D03*
D107*
X0366901Y0327455D03*
X0368801Y0332055D03*
X0367151Y0333855D03*
X0367151Y0333905D03*
X0367151Y0333955D03*
X0368451Y0335655D03*
X0376501Y0335555D03*
X0376651Y0334555D03*
X0382551Y0328905D03*
D108*
X0380588Y0327480D03*
D109*
X0369114Y0327480D03*
X0371688Y0336430D03*
X0373288Y0336830D03*
X0378388Y0338430D03*
X0378538Y0338530D03*
X0379464Y0335430D03*
X0379514Y0335330D03*
D110*
X0376663Y0334530D03*
X0376513Y0335480D03*
X0376513Y0335530D03*
X0376489Y0335580D03*
X0376489Y0335630D03*
X0370739Y0338830D03*
X0367163Y0334330D03*
X0367139Y0334280D03*
X0367139Y0334230D03*
X0367189Y0333730D03*
X0366939Y0327480D03*
X0373463Y0327530D03*
X0382713Y0333380D03*
X0382513Y0338430D03*
D111*
X0372139Y0337005D03*
X0380589Y0327505D03*
D112*
X0382739Y0328205D03*
X0382763Y0333505D03*
X0382763Y0333555D03*
X0376563Y0334805D03*
X0379789Y0339755D03*
X0370689Y0338905D03*
X0377063Y0327505D03*
D113*
X0375689Y0327505D03*
X0382789Y0333905D03*
X0382789Y0333955D03*
X0382789Y0334005D03*
X0382789Y0334055D03*
X0382789Y0334105D03*
X0382789Y0334155D03*
X0380339Y0337255D03*
X0371039Y0334605D03*
X0369263Y0334905D03*
X0369239Y0334955D03*
D114*
X0367413Y0336155D03*
X0366563Y0335555D03*
X0370413Y0339255D03*
X0380789Y0336755D03*
X0383363Y0336105D03*
X0383539Y0334005D03*
X0383789Y0333305D03*
X0377463Y0329605D03*
X0373563Y0327955D03*
X0373613Y0327505D03*
X0369813Y0328055D03*
D115*
X0368464Y0327505D03*
X0372964Y0335355D03*
X0372888Y0335855D03*
D116*
X0373763Y0334430D03*
X0379439Y0338130D03*
X0380563Y0327530D03*
D117*
X0375726Y0327530D03*
X0368626Y0333730D03*
X0367276Y0333580D03*
X0367226Y0334530D03*
X0370776Y0338780D03*
X0376376Y0336030D03*
X0368376Y0328580D03*
X0368376Y0328530D03*
X0368376Y0328480D03*
X0368376Y0328430D03*
X0368376Y0328380D03*
X0368376Y0328330D03*
X0368376Y0328280D03*
X0368376Y0328230D03*
X0368376Y0328180D03*
X0368376Y0328130D03*
D118*
X0368263Y0327530D03*
X0372513Y0336080D03*
X0379439Y0334830D03*
D119*
X0380539Y0327555D03*
D120*
X0375739Y0327555D03*
X0368563Y0329305D03*
X0368539Y0329255D03*
X0368463Y0327955D03*
X0367363Y0333455D03*
X0367413Y0334805D03*
X0366963Y0336355D03*
X0366963Y0336405D03*
X0366913Y0337205D03*
X0370839Y0338705D03*
X0377839Y0340205D03*
X0381239Y0339655D03*
X0382563Y0338555D03*
X0382789Y0338755D03*
X0383013Y0334605D03*
X0382589Y0333155D03*
D121*
X0384676Y0335605D03*
X0376826Y0334355D03*
X0376326Y0336155D03*
X0371876Y0339455D03*
X0366876Y0337255D03*
X0367326Y0334705D03*
X0367326Y0333505D03*
X0368476Y0329055D03*
X0373526Y0327555D03*
D122*
X0368276Y0327555D03*
D123*
X0375126Y0327830D03*
X0380476Y0327580D03*
D124*
X0377001Y0327580D03*
X0369101Y0334230D03*
X0367151Y0333930D03*
X0367151Y0333880D03*
X0367201Y0333680D03*
X0371801Y0339580D03*
X0383651Y0335880D03*
D125*
X0382526Y0333080D03*
X0375726Y0327580D03*
X0368826Y0332080D03*
X0370876Y0338630D03*
D126*
X0366901Y0337230D03*
X0366951Y0336430D03*
X0367401Y0334780D03*
X0375001Y0336230D03*
X0376251Y0336330D03*
X0383001Y0334580D03*
X0383001Y0334530D03*
X0383001Y0334280D03*
X0382601Y0333180D03*
X0373551Y0327580D03*
D127*
X0368301Y0327580D03*
X0374101Y0334630D03*
X0379451Y0334880D03*
D128*
X0379338Y0338755D03*
X0379364Y0338805D03*
X0379388Y0338855D03*
X0379438Y0338905D03*
X0373964Y0334555D03*
X0380438Y0327605D03*
D129*
X0376226Y0327605D03*
X0380226Y0333405D03*
X0378926Y0336305D03*
X0368326Y0335155D03*
D130*
X0368326Y0327605D03*
X0379626Y0334355D03*
D131*
X0374301Y0330930D03*
X0368301Y0335080D03*
X0380951Y0327630D03*
D132*
X0376176Y0327630D03*
X0372126Y0335080D03*
D133*
X0376051Y0336680D03*
X0368701Y0329580D03*
X0373651Y0327630D03*
X0379351Y0329230D03*
X0379501Y0328980D03*
X0379601Y0328830D03*
X0367001Y0337080D03*
D134*
X0368351Y0327630D03*
X0379451Y0334930D03*
D135*
X0378751Y0336555D03*
X0380301Y0333305D03*
X0380951Y0327655D03*
X0368601Y0329855D03*
X0374001Y0336655D03*
X0380951Y0339555D03*
D136*
X0378926Y0336205D03*
X0379326Y0335705D03*
X0376076Y0327655D03*
D137*
X0376951Y0328455D03*
X0373801Y0327655D03*
X0373651Y0328955D03*
X0368701Y0334055D03*
X0371601Y0334855D03*
X0380701Y0339105D03*
D138*
X0379888Y0339905D03*
X0383514Y0336855D03*
X0383614Y0336905D03*
X0377414Y0329405D03*
X0371738Y0329005D03*
X0370488Y0328755D03*
X0370488Y0327655D03*
X0368538Y0335705D03*
D139*
X0368989Y0330105D03*
X0368789Y0327655D03*
X0379413Y0335505D03*
X0379389Y0335555D03*
D140*
X0380601Y0336905D03*
X0380801Y0338605D03*
X0375251Y0336055D03*
X0371551Y0339905D03*
X0366701Y0335955D03*
X0367001Y0327655D03*
X0381551Y0330305D03*
X0382201Y0328555D03*
D141*
X0380863Y0327680D03*
X0374763Y0337480D03*
X0374663Y0337530D03*
X0370639Y0336680D03*
X0367339Y0336680D03*
X0378813Y0339230D03*
D142*
X0375189Y0327680D03*
D143*
X0375789Y0328130D03*
X0373889Y0330280D03*
X0378213Y0330180D03*
X0374313Y0334730D03*
X0371363Y0337830D03*
X0369139Y0327680D03*
D144*
X0380851Y0327705D03*
X0374601Y0337555D03*
D145*
X0375176Y0327705D03*
D146*
X0374001Y0330405D03*
X0374351Y0334755D03*
X0369251Y0327705D03*
D147*
X0380876Y0327730D03*
X0371126Y0338280D03*
X0368326Y0335430D03*
D148*
X0373076Y0335730D03*
X0375176Y0327730D03*
D149*
X0369301Y0327730D03*
X0372401Y0335180D03*
X0379601Y0335130D03*
D150*
X0380626Y0337755D03*
X0370526Y0334355D03*
X0366276Y0338205D03*
X0369576Y0340205D03*
X0371726Y0328905D03*
X0371726Y0328855D03*
X0382726Y0327755D03*
D151*
X0380914Y0327755D03*
X0380338Y0333105D03*
X0378638Y0336755D03*
X0375314Y0337205D03*
X0371214Y0331905D03*
X0371014Y0331555D03*
D152*
X0373038Y0335755D03*
X0375164Y0327755D03*
D153*
X0369513Y0327755D03*
X0369313Y0330205D03*
X0379713Y0334505D03*
X0381339Y0327905D03*
D154*
X0380938Y0327780D03*
X0371314Y0332030D03*
X0370938Y0331430D03*
X0368338Y0335280D03*
X0378414Y0337280D03*
X0378414Y0337780D03*
X0378714Y0336630D03*
D155*
X0372989Y0335780D03*
X0375163Y0327780D03*
D156*
X0378138Y0330330D03*
X0379514Y0335030D03*
X0372538Y0335230D03*
X0371364Y0337780D03*
X0369514Y0327780D03*
D157*
X0370713Y0331105D03*
X0372939Y0329655D03*
X0374313Y0331055D03*
X0374313Y0331105D03*
X0373663Y0336755D03*
X0371263Y0338055D03*
X0378539Y0338005D03*
X0381039Y0327805D03*
D158*
X0375164Y0327805D03*
X0372964Y0335805D03*
D159*
X0370064Y0330655D03*
X0369514Y0327805D03*
D160*
X0381351Y0327830D03*
X0378851Y0335980D03*
X0372101Y0336280D03*
D161*
X0378151Y0330280D03*
X0375751Y0328180D03*
X0369501Y0327830D03*
D162*
X0378151Y0330305D03*
X0381351Y0327855D03*
X0378851Y0335955D03*
X0374251Y0334705D03*
X0372151Y0336255D03*
D163*
X0375039Y0327855D03*
X0381339Y0328155D03*
X0381439Y0328055D03*
X0381489Y0328005D03*
D164*
X0369489Y0327855D03*
X0369463Y0327905D03*
X0379739Y0334605D03*
X0379539Y0335055D03*
D165*
X0378851Y0335930D03*
X0381351Y0327880D03*
D166*
X0381463Y0328030D03*
X0381313Y0328180D03*
X0375063Y0327880D03*
D167*
X0369463Y0327880D03*
X0379739Y0334630D03*
D168*
X0375851Y0328005D03*
X0375651Y0327905D03*
D169*
X0381326Y0327930D03*
X0379026Y0337430D03*
X0379026Y0337480D03*
X0372926Y0336880D03*
D170*
X0371514Y0336480D03*
X0372264Y0335130D03*
X0378914Y0336180D03*
X0379364Y0335630D03*
X0380088Y0333530D03*
X0375738Y0327930D03*
X0372914Y0329280D03*
D171*
X0373426Y0329130D03*
X0370076Y0327930D03*
X0374526Y0336480D03*
X0375676Y0336980D03*
X0374276Y0337730D03*
X0374176Y0337780D03*
X0378876Y0339330D03*
D172*
X0376151Y0336530D03*
X0371951Y0339330D03*
X0367001Y0336230D03*
X0368501Y0327930D03*
D173*
X0369964Y0330605D03*
X0372264Y0336205D03*
X0379014Y0337555D03*
X0379688Y0334455D03*
X0381314Y0327955D03*
D174*
X0375801Y0327955D03*
X0379351Y0335655D03*
X0378251Y0336955D03*
D175*
X0381251Y0332830D03*
X0381251Y0332780D03*
X0378201Y0330680D03*
X0381501Y0327980D03*
X0372601Y0336930D03*
D176*
X0371301Y0337980D03*
X0378251Y0336930D03*
X0370501Y0330930D03*
X0375851Y0327980D03*
D177*
X0368426Y0327980D03*
X0368426Y0328880D03*
X0368476Y0329080D03*
X0367326Y0334680D03*
X0376326Y0336180D03*
X0382876Y0338780D03*
D178*
X0382538Y0338455D03*
X0382414Y0338355D03*
X0379764Y0339705D03*
X0376414Y0335905D03*
X0376438Y0335805D03*
X0376714Y0334455D03*
X0382688Y0333305D03*
X0370764Y0338805D03*
X0366838Y0337305D03*
X0367238Y0334555D03*
X0367214Y0334505D03*
X0368388Y0328105D03*
X0368388Y0328055D03*
X0368388Y0328005D03*
D179*
X0374151Y0330580D03*
X0375851Y0328030D03*
X0379401Y0335530D03*
X0378451Y0338480D03*
D180*
X0380751Y0336780D03*
X0383351Y0336580D03*
X0383351Y0336230D03*
X0381701Y0330030D03*
X0382301Y0328830D03*
X0382301Y0328780D03*
X0370601Y0328030D03*
X0371451Y0340030D03*
D181*
X0379326Y0338730D03*
X0379526Y0339030D03*
X0381376Y0328130D03*
X0381426Y0328080D03*
D182*
X0378276Y0330080D03*
X0375826Y0328080D03*
X0378876Y0336080D03*
D183*
X0382314Y0338030D03*
X0384414Y0335130D03*
X0377414Y0329430D03*
X0371738Y0329030D03*
X0370638Y0328080D03*
X0368114Y0334430D03*
X0366488Y0335380D03*
X0366338Y0338080D03*
X0370288Y0339430D03*
D184*
X0367426Y0336130D03*
X0369826Y0328080D03*
X0380826Y0336730D03*
X0382376Y0338130D03*
D185*
X0379501Y0339005D03*
X0379301Y0338705D03*
X0381251Y0332905D03*
X0381401Y0328105D03*
D186*
X0378251Y0330105D03*
X0375801Y0328105D03*
X0373951Y0330355D03*
X0371351Y0337855D03*
X0378801Y0337705D03*
D187*
X0383501Y0334055D03*
X0384401Y0335155D03*
X0381951Y0329855D03*
X0382551Y0329055D03*
X0369851Y0328105D03*
X0366551Y0335505D03*
X0366451Y0337905D03*
X0371351Y0340155D03*
D188*
X0375276Y0336030D03*
X0381576Y0330230D03*
X0381626Y0330130D03*
X0383626Y0333880D03*
X0369976Y0328130D03*
D189*
X0373488Y0329905D03*
X0373664Y0330055D03*
X0373714Y0330105D03*
X0373764Y0330155D03*
X0375764Y0328155D03*
X0379738Y0334705D03*
X0372038Y0336305D03*
D190*
X0376376Y0336005D03*
X0367276Y0334605D03*
X0368376Y0328605D03*
X0368376Y0328555D03*
X0368376Y0328505D03*
X0368376Y0328455D03*
X0368376Y0328405D03*
X0368376Y0328355D03*
X0368376Y0328305D03*
X0368376Y0328255D03*
X0368376Y0328205D03*
X0368376Y0328155D03*
D191*
X0370051Y0328180D03*
X0381851Y0328280D03*
X0383901Y0335980D03*
X0383951Y0336030D03*
X0380551Y0336980D03*
X0380501Y0337030D03*
X0380451Y0337130D03*
X0380801Y0338630D03*
X0370601Y0339030D03*
X0371001Y0334580D03*
X0369301Y0334430D03*
D192*
X0372314Y0335155D03*
X0374138Y0330555D03*
X0380038Y0333555D03*
X0379464Y0335405D03*
X0379438Y0335455D03*
X0378414Y0338455D03*
X0378588Y0338555D03*
X0380838Y0328205D03*
D193*
X0378126Y0330355D03*
X0375726Y0328205D03*
X0379826Y0333605D03*
D194*
X0380289Y0328230D03*
X0373489Y0329080D03*
X0373639Y0338080D03*
X0373563Y0338130D03*
X0372413Y0338830D03*
X0372339Y0338880D03*
X0372263Y0338930D03*
X0372113Y0339030D03*
X0371063Y0338380D03*
D195*
X0379051Y0337380D03*
X0379051Y0337330D03*
X0378851Y0335880D03*
X0379701Y0334480D03*
X0375701Y0328230D03*
D196*
X0376676Y0328705D03*
X0381526Y0330455D03*
X0381826Y0328255D03*
X0383776Y0333405D03*
X0383476Y0335555D03*
X0380376Y0337205D03*
X0379826Y0339805D03*
X0371676Y0339755D03*
D197*
X0375876Y0336855D03*
X0374976Y0335005D03*
X0380176Y0328255D03*
D198*
X0378089Y0330505D03*
X0375689Y0328255D03*
X0379013Y0337655D03*
D199*
X0380464Y0337105D03*
X0384438Y0336555D03*
X0376688Y0328755D03*
X0370164Y0328305D03*
X0370138Y0328255D03*
X0369288Y0334855D03*
X0366738Y0336105D03*
X0370614Y0339005D03*
X0371638Y0339805D03*
D200*
X0372063Y0339130D03*
X0370989Y0338480D03*
X0381189Y0330630D03*
X0380139Y0328280D03*
X0373739Y0328880D03*
X0373689Y0328930D03*
D201*
X0376601Y0328280D03*
X0368701Y0334080D03*
D202*
X0368714Y0334130D03*
X0367688Y0333230D03*
X0367164Y0336880D03*
X0373638Y0328980D03*
X0374764Y0328280D03*
X0379014Y0329680D03*
X0380714Y0339130D03*
D203*
X0381214Y0339605D03*
X0375938Y0336805D03*
X0374764Y0336355D03*
X0381188Y0330605D03*
X0380114Y0328305D03*
X0368814Y0329755D03*
D204*
X0373826Y0328805D03*
X0376676Y0328305D03*
X0378026Y0339755D03*
D205*
X0367139Y0336905D03*
X0367639Y0333255D03*
X0368863Y0332105D03*
X0373713Y0328905D03*
X0374689Y0328305D03*
D206*
X0381926Y0328330D03*
X0380626Y0336880D03*
X0371576Y0339880D03*
X0366576Y0337680D03*
X0366676Y0335880D03*
X0369326Y0334580D03*
X0369326Y0334530D03*
D207*
X0372026Y0339180D03*
X0380026Y0328380D03*
X0380076Y0328330D03*
D208*
X0379976Y0328430D03*
X0379926Y0328480D03*
X0376726Y0328330D03*
X0368776Y0329680D03*
X0368676Y0333930D03*
X0367076Y0336980D03*
X0383326Y0335080D03*
D209*
X0383289Y0335030D03*
X0383263Y0334980D03*
X0383239Y0334930D03*
X0383213Y0334880D03*
X0381213Y0330580D03*
X0379113Y0329580D03*
X0374613Y0328330D03*
X0373939Y0328730D03*
X0373863Y0328780D03*
X0374813Y0336330D03*
X0375963Y0336780D03*
X0378013Y0339780D03*
X0370213Y0336730D03*
D210*
X0367101Y0336955D03*
X0373901Y0328755D03*
X0379101Y0329605D03*
X0380051Y0328355D03*
D211*
X0376776Y0328355D03*
X0373976Y0328705D03*
X0367676Y0335005D03*
X0372026Y0339205D03*
X0383176Y0334805D03*
X0383226Y0334905D03*
X0382426Y0333005D03*
D212*
X0383201Y0334855D03*
X0383351Y0335105D03*
X0378001Y0339805D03*
X0367051Y0337005D03*
X0374551Y0328355D03*
X0379951Y0328455D03*
D213*
X0382051Y0328405D03*
X0382551Y0329005D03*
X0376701Y0328805D03*
X0370201Y0328355D03*
X0368601Y0333655D03*
X0369301Y0334805D03*
X0380501Y0337055D03*
X0383501Y0335705D03*
X0383901Y0335955D03*
X0384001Y0336105D03*
X0384051Y0336205D03*
D214*
X0374614Y0336430D03*
X0373388Y0338230D03*
X0373138Y0338380D03*
X0372964Y0338480D03*
X0372888Y0338530D03*
X0376938Y0328380D03*
D215*
X0374501Y0328380D03*
X0374151Y0328580D03*
X0374001Y0328680D03*
X0379151Y0329530D03*
D216*
X0381526Y0330380D03*
X0376726Y0328830D03*
X0370226Y0328380D03*
X0366726Y0336030D03*
X0366726Y0336080D03*
X0369426Y0336830D03*
X0380476Y0337080D03*
X0384026Y0336130D03*
D217*
X0383313Y0335055D03*
X0383289Y0335005D03*
X0383263Y0334955D03*
X0379139Y0329555D03*
X0380013Y0328405D03*
X0376913Y0328505D03*
X0368789Y0329705D03*
X0367563Y0333305D03*
X0368689Y0333955D03*
D218*
X0368839Y0329805D03*
X0373589Y0329005D03*
X0376963Y0328405D03*
X0382313Y0332955D03*
X0380863Y0339255D03*
D219*
X0377988Y0339855D03*
X0375988Y0336755D03*
X0371488Y0334805D03*
X0368688Y0333905D03*
X0370938Y0338555D03*
X0374038Y0328655D03*
X0374114Y0328605D03*
X0374188Y0328555D03*
X0374264Y0328505D03*
X0374364Y0328455D03*
X0374438Y0328405D03*
X0379164Y0329505D03*
X0379864Y0328555D03*
X0379914Y0328505D03*
D220*
X0376951Y0328430D03*
D221*
X0376938Y0328480D03*
X0373814Y0328830D03*
X0368688Y0333980D03*
X0367614Y0333280D03*
X0367738Y0335030D03*
X0382388Y0332980D03*
D222*
X0384201Y0333530D03*
X0370901Y0328480D03*
D223*
X0370301Y0328480D03*
X0381551Y0330330D03*
X0384451Y0336580D03*
X0379851Y0339830D03*
X0370551Y0339080D03*
X0366701Y0335930D03*
D224*
X0372001Y0339230D03*
X0383401Y0335180D03*
X0376901Y0328530D03*
D225*
X0370476Y0328555D03*
X0369176Y0335005D03*
X0369576Y0336805D03*
X0366726Y0337455D03*
X0382776Y0333655D03*
X0382776Y0333605D03*
X0384426Y0336505D03*
D226*
X0377676Y0340280D03*
X0376026Y0336730D03*
X0375076Y0335030D03*
X0370926Y0338580D03*
X0367626Y0334980D03*
X0368676Y0333880D03*
X0367526Y0333330D03*
X0379226Y0329430D03*
X0379776Y0328630D03*
X0379826Y0328580D03*
D227*
X0382226Y0328605D03*
X0376926Y0329005D03*
X0369326Y0334505D03*
X0369326Y0334555D03*
X0366676Y0335905D03*
X0384426Y0335205D03*
D228*
X0383151Y0334755D03*
X0379651Y0339605D03*
X0368751Y0329655D03*
X0379201Y0329455D03*
X0379801Y0328605D03*
D229*
X0376651Y0328630D03*
X0382801Y0333830D03*
X0379801Y0339780D03*
D230*
X0378113Y0339705D03*
X0376039Y0336705D03*
X0374863Y0336305D03*
X0371989Y0339255D03*
X0370039Y0336755D03*
X0368713Y0329605D03*
X0379239Y0329405D03*
X0379263Y0329355D03*
X0379613Y0328805D03*
X0379663Y0328755D03*
X0379713Y0328705D03*
X0379763Y0328655D03*
X0381239Y0330555D03*
X0383413Y0335205D03*
X0382163Y0338305D03*
D231*
X0382613Y0338680D03*
X0377989Y0339880D03*
X0382463Y0333030D03*
X0379263Y0329380D03*
X0379289Y0329330D03*
X0379639Y0328780D03*
X0379689Y0328730D03*
X0379739Y0328680D03*
X0368739Y0329630D03*
D232*
X0368401Y0328730D03*
X0368401Y0328680D03*
X0367251Y0334580D03*
X0368501Y0336380D03*
X0384701Y0335630D03*
D233*
X0384776Y0335755D03*
X0383626Y0333855D03*
X0382276Y0328705D03*
X0377176Y0336855D03*
D234*
X0380689Y0336830D03*
X0383363Y0336530D03*
X0383363Y0336280D03*
X0383589Y0333930D03*
X0383639Y0333630D03*
X0381663Y0330080D03*
X0382289Y0328730D03*
X0376913Y0329030D03*
X0370889Y0334530D03*
X0366639Y0335730D03*
X0371489Y0339980D03*
D235*
X0366601Y0335630D03*
X0370501Y0328730D03*
X0381851Y0329930D03*
X0383551Y0333980D03*
X0383351Y0336130D03*
X0383351Y0336630D03*
D236*
X0382539Y0338480D03*
X0379763Y0339680D03*
X0376339Y0336130D03*
X0376339Y0336080D03*
X0375239Y0335080D03*
X0376789Y0334380D03*
X0382639Y0333230D03*
X0371863Y0339480D03*
X0369763Y0336780D03*
X0366863Y0337280D03*
X0367289Y0334630D03*
X0368439Y0328930D03*
X0368413Y0328830D03*
X0368413Y0328780D03*
D237*
X0377501Y0329655D03*
X0382301Y0328805D03*
X0383351Y0336205D03*
X0383351Y0336605D03*
X0383301Y0338955D03*
X0375301Y0336005D03*
X0370451Y0339205D03*
X0366501Y0337805D03*
D238*
X0366614Y0335655D03*
X0370838Y0334505D03*
X0371438Y0340055D03*
X0380814Y0338555D03*
X0383614Y0333555D03*
X0381738Y0330005D03*
X0382314Y0328855D03*
D239*
X0379576Y0328855D03*
X0379326Y0329255D03*
X0368676Y0333855D03*
X0376076Y0336655D03*
X0377976Y0339905D03*
X0377726Y0340255D03*
D240*
X0370976Y0338505D03*
X0373776Y0328855D03*
D241*
X0368664Y0329530D03*
X0368664Y0333830D03*
X0376088Y0336630D03*
X0378164Y0339680D03*
X0377964Y0339930D03*
X0381264Y0330530D03*
X0379414Y0329130D03*
X0379438Y0329080D03*
X0379464Y0329030D03*
X0379538Y0328930D03*
X0379564Y0328880D03*
D242*
X0379514Y0328955D03*
X0379488Y0329005D03*
X0379414Y0329105D03*
X0379388Y0329155D03*
X0379364Y0329205D03*
X0368688Y0329555D03*
X0367488Y0333355D03*
X0366988Y0337105D03*
X0382664Y0338705D03*
D243*
X0384776Y0335805D03*
X0370626Y0334405D03*
X0366476Y0335355D03*
X0366326Y0338105D03*
X0370226Y0339505D03*
X0371726Y0328955D03*
D244*
X0368451Y0328955D03*
X0368451Y0329005D03*
X0376301Y0336205D03*
X0370801Y0338755D03*
X0382551Y0338505D03*
D245*
X0370576Y0334380D03*
X0371726Y0328980D03*
D246*
X0368451Y0328980D03*
X0367301Y0333530D03*
X0367351Y0334730D03*
X0376301Y0336230D03*
D247*
X0371651Y0334880D03*
X0367201Y0336830D03*
X0373551Y0329030D03*
X0380901Y0339280D03*
D248*
X0380926Y0339305D03*
X0373426Y0338205D03*
X0372526Y0338755D03*
X0370426Y0336705D03*
X0373526Y0329055D03*
D249*
X0376901Y0329080D03*
X0377401Y0329330D03*
X0375351Y0335930D03*
X0376901Y0338080D03*
X0383551Y0339080D03*
X0370101Y0339630D03*
X0369601Y0340180D03*
X0368101Y0334480D03*
D250*
X0371088Y0338355D03*
X0373864Y0337955D03*
X0373964Y0337905D03*
X0373464Y0329105D03*
D251*
X0368514Y0329155D03*
X0368488Y0329105D03*
X0368638Y0333755D03*
X0367364Y0334755D03*
X0368414Y0336405D03*
X0376264Y0336305D03*
X0376288Y0336255D03*
X0378314Y0339605D03*
X0377914Y0340155D03*
X0379738Y0339655D03*
X0382988Y0334505D03*
X0382988Y0334455D03*
X0382988Y0334405D03*
X0382988Y0334355D03*
X0382614Y0333205D03*
D252*
X0373401Y0329155D03*
X0368301Y0335505D03*
D253*
X0371426Y0334780D03*
X0371976Y0339280D03*
X0381226Y0339630D03*
X0382576Y0338630D03*
X0383126Y0334730D03*
X0379326Y0329280D03*
X0379376Y0329180D03*
D254*
X0373364Y0329180D03*
X0368314Y0335480D03*
X0374564Y0337580D03*
X0375588Y0337030D03*
X0378838Y0339280D03*
D255*
X0374788Y0334955D03*
X0368338Y0335405D03*
X0367364Y0336655D03*
X0373314Y0329205D03*
D256*
X0371826Y0329205D03*
X0381676Y0330055D03*
X0383626Y0333505D03*
X0383576Y0333955D03*
X0371476Y0340005D03*
X0369276Y0336855D03*
X0366626Y0335705D03*
D257*
X0368526Y0329205D03*
X0376226Y0336405D03*
X0377926Y0340105D03*
D258*
X0377426Y0329230D03*
D259*
X0378376Y0329980D03*
X0372926Y0329230D03*
X0379376Y0335580D03*
X0378676Y0338080D03*
D260*
X0378276Y0339630D03*
X0376226Y0336380D03*
X0376276Y0336280D03*
X0368326Y0336430D03*
X0368526Y0329230D03*
D261*
X0370476Y0330905D03*
X0372926Y0329255D03*
X0374176Y0330605D03*
X0379376Y0335605D03*
X0378726Y0338605D03*
D262*
X0377939Y0340080D03*
X0376213Y0336430D03*
X0371313Y0334730D03*
X0367439Y0334830D03*
X0366963Y0336380D03*
X0368539Y0329280D03*
X0383013Y0334630D03*
X0384663Y0335580D03*
D263*
X0373426Y0336805D03*
X0372926Y0329305D03*
D264*
X0372913Y0329330D03*
X0372913Y0329380D03*
X0379339Y0335680D03*
X0379213Y0335830D03*
D265*
X0378413Y0329955D03*
X0374239Y0330705D03*
X0372913Y0329355D03*
X0370539Y0330955D03*
X0371413Y0336505D03*
D266*
X0370851Y0338680D03*
X0377951Y0340030D03*
X0368651Y0333780D03*
X0367401Y0333430D03*
X0368601Y0329380D03*
D267*
X0370588Y0331005D03*
X0372914Y0329455D03*
X0372914Y0329405D03*
X0374264Y0330755D03*
X0380138Y0333505D03*
X0378264Y0337005D03*
X0378614Y0338055D03*
X0371288Y0338005D03*
D268*
X0374514Y0334830D03*
X0374264Y0330780D03*
X0372914Y0329480D03*
X0372914Y0329430D03*
X0378464Y0329930D03*
X0379314Y0335730D03*
D269*
X0382564Y0333130D03*
X0368614Y0329430D03*
X0366988Y0336280D03*
X0368164Y0336480D03*
D270*
X0367526Y0334905D03*
X0367426Y0333405D03*
X0368626Y0329455D03*
X0371376Y0334755D03*
X0370876Y0338655D03*
X0378226Y0339655D03*
D271*
X0375326Y0335955D03*
X0371276Y0340255D03*
X0367476Y0336005D03*
X0366526Y0335455D03*
X0377426Y0329505D03*
X0383426Y0334155D03*
D272*
X0379313Y0335755D03*
X0379289Y0335805D03*
X0378263Y0337055D03*
X0378513Y0329755D03*
X0374313Y0330905D03*
X0372913Y0329505D03*
D273*
X0368651Y0329505D03*
X0376951Y0334305D03*
X0376101Y0336605D03*
X0383101Y0334705D03*
X0384601Y0335505D03*
D274*
X0380163Y0333480D03*
X0379313Y0335780D03*
X0373539Y0336780D03*
X0374313Y0330880D03*
X0372913Y0329530D03*
X0378513Y0329730D03*
X0378513Y0329780D03*
D275*
X0377438Y0329555D03*
X0383464Y0334105D03*
X0383364Y0336055D03*
X0383364Y0336705D03*
X0383388Y0336755D03*
X0384464Y0336655D03*
X0382364Y0338105D03*
X0371314Y0340205D03*
X0366414Y0337955D03*
X0367438Y0336105D03*
X0367464Y0336055D03*
X0368138Y0334355D03*
X0370738Y0334455D03*
D276*
X0371226Y0336555D03*
X0372926Y0329555D03*
D277*
X0377451Y0329580D03*
X0383351Y0336080D03*
X0383351Y0336680D03*
X0383351Y0338980D03*
X0370401Y0339280D03*
X0367451Y0336080D03*
X0366551Y0335530D03*
X0368601Y0333630D03*
D278*
X0368814Y0330030D03*
X0372938Y0329580D03*
X0374314Y0330980D03*
X0378514Y0329880D03*
X0378514Y0329830D03*
D279*
X0372926Y0329605D03*
X0368776Y0330005D03*
X0374576Y0334855D03*
X0381226Y0339405D03*
D280*
X0379076Y0329630D03*
X0367126Y0336930D03*
D281*
X0368313Y0335130D03*
X0370739Y0331130D03*
X0372939Y0329630D03*
X0374313Y0331030D03*
X0374313Y0331080D03*
X0378939Y0336280D03*
X0381189Y0339430D03*
D282*
X0372051Y0339155D03*
X0368701Y0334005D03*
X0379051Y0329655D03*
D283*
X0372951Y0329680D03*
X0368751Y0329980D03*
X0378301Y0337130D03*
X0378901Y0336330D03*
D284*
X0374676Y0336405D03*
X0368726Y0334155D03*
X0367176Y0336855D03*
X0378976Y0329705D03*
D285*
X0372951Y0329705D03*
X0370751Y0331155D03*
X0381151Y0339455D03*
D286*
X0371264Y0338080D03*
X0371114Y0336580D03*
X0370788Y0331180D03*
X0368688Y0329930D03*
X0372964Y0329730D03*
X0374314Y0331130D03*
X0374314Y0331180D03*
D287*
X0368801Y0329730D03*
X0370951Y0338530D03*
D288*
X0378314Y0337155D03*
X0378888Y0336355D03*
X0374314Y0331155D03*
X0372964Y0329755D03*
X0368714Y0329955D03*
D289*
X0368826Y0329780D03*
X0374726Y0336380D03*
X0380676Y0339080D03*
D290*
X0378938Y0336255D03*
X0380188Y0333455D03*
X0378514Y0329855D03*
X0378514Y0329805D03*
X0374314Y0330955D03*
X0374314Y0331005D03*
X0368314Y0335105D03*
D291*
X0370163Y0330705D03*
X0369189Y0330155D03*
X0373339Y0329805D03*
D292*
X0373376Y0329830D03*
X0379726Y0334730D03*
D293*
X0371226Y0338130D03*
X0370876Y0331330D03*
X0368576Y0329830D03*
D294*
X0373426Y0329855D03*
X0373826Y0330205D03*
X0373876Y0330255D03*
X0372476Y0335205D03*
D295*
X0373851Y0330230D03*
X0373451Y0329880D03*
X0379551Y0335080D03*
X0378851Y0336030D03*
D296*
X0380276Y0333330D03*
X0374626Y0334880D03*
X0373926Y0336680D03*
X0370826Y0331230D03*
X0368626Y0329880D03*
D297*
X0368851Y0330055D03*
X0370651Y0331055D03*
X0378501Y0329905D03*
D298*
X0380263Y0333355D03*
X0378813Y0336455D03*
X0373839Y0336705D03*
X0374289Y0331305D03*
X0374289Y0331255D03*
X0370839Y0331255D03*
X0368663Y0329905D03*
X0368339Y0335205D03*
D299*
X0370114Y0330680D03*
X0373514Y0329930D03*
X0373638Y0330030D03*
X0373688Y0330080D03*
X0373738Y0330130D03*
X0373788Y0330180D03*
X0378188Y0330230D03*
X0379738Y0334680D03*
D300*
X0383351Y0336155D03*
X0383351Y0336655D03*
X0382401Y0338155D03*
X0381801Y0329955D03*
X0368151Y0334305D03*
X0366601Y0335605D03*
X0371401Y0340105D03*
D301*
X0371351Y0337805D03*
X0378851Y0336005D03*
X0373601Y0330005D03*
X0373551Y0329955D03*
D302*
X0373576Y0329980D03*
D303*
X0374051Y0330455D03*
X0378301Y0330055D03*
X0378751Y0338105D03*
D304*
X0378251Y0336980D03*
X0374251Y0330730D03*
X0370551Y0330980D03*
X0368901Y0330080D03*
D305*
X0369076Y0330130D03*
D306*
X0378226Y0330155D03*
D307*
X0381601Y0330180D03*
X0383651Y0333680D03*
X0383351Y0336330D03*
X0383251Y0338930D03*
X0370501Y0339130D03*
X0366551Y0337730D03*
X0366651Y0335780D03*
D308*
X0369276Y0330180D03*
X0379726Y0334530D03*
X0379626Y0334780D03*
D309*
X0378201Y0330205D03*
X0373101Y0336855D03*
D310*
X0374188Y0334680D03*
X0379014Y0337530D03*
X0378114Y0330430D03*
X0369364Y0330230D03*
D311*
X0378176Y0330255D03*
X0379726Y0334655D03*
D312*
X0378101Y0330455D03*
X0372601Y0335255D03*
X0369401Y0330255D03*
D313*
X0369451Y0330280D03*
D314*
X0373914Y0330305D03*
X0378864Y0336055D03*
D315*
X0379464Y0334955D03*
X0378114Y0330555D03*
X0374138Y0334655D03*
X0371388Y0337705D03*
X0369814Y0330505D03*
X0369488Y0330305D03*
D316*
X0369538Y0330330D03*
X0369764Y0330480D03*
X0369838Y0330530D03*
X0379738Y0333630D03*
D317*
X0372376Y0336155D03*
X0369726Y0330455D03*
X0369576Y0330355D03*
D318*
X0370013Y0330630D03*
X0372213Y0336230D03*
X0378113Y0330380D03*
D319*
X0379963Y0333580D03*
X0373989Y0330380D03*
D320*
X0369601Y0330380D03*
X0372651Y0335280D03*
X0379651Y0334380D03*
D321*
X0379026Y0337405D03*
X0379026Y0337455D03*
X0379026Y0337505D03*
X0378126Y0330405D03*
X0371376Y0337755D03*
D322*
X0369639Y0330405D03*
D323*
X0370314Y0330780D03*
X0374038Y0330430D03*
X0371838Y0336380D03*
X0371338Y0337880D03*
D324*
X0369676Y0330430D03*
D325*
X0378101Y0330480D03*
D326*
X0378089Y0330530D03*
X0379689Y0334430D03*
X0379463Y0334980D03*
X0379013Y0337630D03*
D327*
X0379676Y0334405D03*
X0369876Y0330555D03*
D328*
X0371388Y0337680D03*
X0378138Y0330580D03*
D329*
X0379026Y0337580D03*
X0371376Y0337730D03*
X0369926Y0330580D03*
D330*
X0378163Y0330605D03*
X0379439Y0334855D03*
D331*
X0378176Y0330630D03*
D332*
X0374201Y0330630D03*
X0378251Y0336880D03*
D333*
X0378189Y0330655D03*
D334*
X0374214Y0330655D03*
X0374464Y0334805D03*
X0378238Y0336905D03*
X0371314Y0337955D03*
D335*
X0375826Y0336880D03*
X0380776Y0339180D03*
X0381176Y0330680D03*
D336*
X0374226Y0330680D03*
D337*
X0368726Y0334205D03*
X0381176Y0330705D03*
D338*
X0378226Y0330705D03*
X0372726Y0335955D03*
X0379276Y0338655D03*
X0379476Y0338955D03*
D339*
X0378926Y0339380D03*
X0378926Y0339430D03*
X0373476Y0338180D03*
X0373226Y0338330D03*
X0372726Y0338630D03*
X0372576Y0338730D03*
X0372476Y0338780D03*
X0381176Y0330730D03*
D340*
X0378226Y0330730D03*
D341*
X0381176Y0330755D03*
X0374576Y0336455D03*
X0373776Y0338005D03*
X0371726Y0334905D03*
D342*
X0378226Y0330755D03*
D343*
X0370276Y0330755D03*
D344*
X0368289Y0335530D03*
X0378863Y0339530D03*
X0381189Y0330780D03*
D345*
X0378226Y0330780D03*
X0373926Y0334530D03*
D346*
X0379201Y0330805D03*
D347*
X0374276Y0330805D03*
D348*
X0379201Y0330830D03*
D349*
X0374301Y0330830D03*
D350*
X0379214Y0330855D03*
D351*
X0374301Y0330855D03*
X0372201Y0335105D03*
X0368301Y0335055D03*
D352*
X0379226Y0330880D03*
D353*
X0379226Y0330905D03*
D354*
X0379226Y0330930D03*
D355*
X0379238Y0330955D03*
D356*
X0379239Y0330980D03*
D357*
X0379238Y0331005D03*
D358*
X0379239Y0331030D03*
D359*
X0378926Y0336230D03*
X0378276Y0337030D03*
X0371326Y0336530D03*
X0370626Y0331030D03*
D360*
X0379226Y0331055D03*
D361*
X0379213Y0331080D03*
D362*
X0380201Y0333430D03*
X0370701Y0331080D03*
D363*
X0379214Y0331105D03*
D364*
X0379213Y0331130D03*
X0373589Y0333480D03*
D365*
X0379201Y0331155D03*
D366*
X0379188Y0331180D03*
D367*
X0379176Y0331205D03*
D368*
X0374301Y0331205D03*
X0370801Y0331205D03*
X0369001Y0332205D03*
X0378851Y0336405D03*
X0381051Y0339505D03*
D369*
X0379163Y0331230D03*
X0373589Y0333430D03*
D370*
X0374301Y0331230D03*
X0373751Y0336730D03*
X0378501Y0337980D03*
X0381101Y0339480D03*
X0380251Y0333380D03*
D371*
X0379138Y0331255D03*
D372*
X0379114Y0331280D03*
D373*
X0374289Y0331280D03*
X0378839Y0336430D03*
D374*
X0378801Y0336480D03*
X0381001Y0339530D03*
X0370851Y0331280D03*
D375*
X0379076Y0331305D03*
D376*
X0370864Y0331305D03*
X0367538Y0336505D03*
D377*
X0377876Y0331330D03*
D378*
X0377889Y0331355D03*
X0374213Y0333255D03*
D379*
X0371339Y0332055D03*
X0370913Y0331355D03*
X0368339Y0335255D03*
X0378389Y0337255D03*
X0378439Y0337755D03*
D380*
X0377889Y0331380D03*
D381*
X0370926Y0331380D03*
X0368976Y0332180D03*
D382*
X0377888Y0331405D03*
D383*
X0378726Y0336605D03*
X0378426Y0337905D03*
X0384126Y0335455D03*
X0370926Y0331405D03*
D384*
X0377888Y0331430D03*
D385*
X0377901Y0331455D03*
D386*
X0378701Y0336655D03*
X0370951Y0331455D03*
D387*
X0377901Y0331480D03*
D388*
X0380339Y0333180D03*
X0371263Y0331980D03*
X0370963Y0331480D03*
X0367439Y0336580D03*
D389*
X0377901Y0331555D03*
X0377901Y0331505D03*
D390*
X0380339Y0333155D03*
X0378663Y0336705D03*
X0378389Y0337855D03*
X0374163Y0336605D03*
X0368363Y0335305D03*
X0370989Y0331505D03*
D391*
X0377901Y0331530D03*
D392*
X0378651Y0336730D03*
X0371001Y0331530D03*
D393*
X0377914Y0331580D03*
D394*
X0380338Y0333130D03*
X0374738Y0334930D03*
X0374238Y0336580D03*
X0375164Y0337280D03*
X0375264Y0337230D03*
X0378738Y0339080D03*
X0371188Y0331880D03*
X0371014Y0331580D03*
X0368364Y0335330D03*
D395*
X0377901Y0331605D03*
D396*
X0378626Y0336805D03*
X0375126Y0337305D03*
X0371176Y0331855D03*
X0371026Y0331605D03*
D397*
X0377913Y0331630D03*
D398*
X0380339Y0333030D03*
X0383839Y0335280D03*
X0383889Y0335330D03*
X0378613Y0336830D03*
X0378763Y0339130D03*
X0375063Y0337330D03*
X0374963Y0337380D03*
X0371163Y0338230D03*
X0371889Y0334980D03*
X0371163Y0331830D03*
X0371139Y0331780D03*
X0371089Y0331730D03*
X0371063Y0331680D03*
X0371039Y0331630D03*
D399*
X0377901Y0331655D03*
D400*
X0375389Y0337155D03*
X0375013Y0337355D03*
X0378763Y0339155D03*
X0383813Y0335255D03*
X0383863Y0335305D03*
X0371139Y0331805D03*
X0371113Y0331755D03*
X0371089Y0331705D03*
X0371063Y0331655D03*
X0368363Y0335355D03*
D401*
X0377901Y0331680D03*
D402*
X0377901Y0331705D03*
D403*
X0377901Y0331730D03*
D404*
X0377901Y0331755D03*
D405*
X0377888Y0331780D03*
D406*
X0377888Y0331805D03*
D407*
X0377889Y0331830D03*
D408*
X0377876Y0331855D03*
D409*
X0377851Y0331880D03*
D410*
X0377851Y0331905D03*
D411*
X0377838Y0331930D03*
D412*
X0371226Y0331930D03*
D413*
X0377826Y0331955D03*
D414*
X0375226Y0337255D03*
X0378726Y0339055D03*
X0371176Y0338205D03*
X0367426Y0336605D03*
X0371226Y0331955D03*
D415*
X0377826Y0331980D03*
D416*
X0377814Y0332005D03*
D417*
X0380326Y0333205D03*
X0371276Y0332005D03*
X0367476Y0336555D03*
D418*
X0377801Y0332030D03*
D419*
X0377776Y0332055D03*
D420*
X0377738Y0332080D03*
D421*
X0378764Y0336530D03*
X0378364Y0337230D03*
X0371364Y0332080D03*
X0368338Y0335230D03*
D422*
X0376601Y0332155D03*
X0376601Y0332105D03*
D423*
X0376601Y0332130D03*
X0376601Y0332180D03*
D424*
X0373914Y0337930D03*
X0368914Y0332130D03*
D425*
X0368951Y0332155D03*
X0371151Y0338255D03*
X0374901Y0337405D03*
X0378601Y0336855D03*
X0380351Y0333005D03*
X0380351Y0332955D03*
D426*
X0376626Y0332205D03*
D427*
X0375376Y0332230D03*
D428*
X0375351Y0332255D03*
D429*
X0375326Y0332280D03*
D430*
X0375314Y0332305D03*
D431*
X0375301Y0332330D03*
D432*
X0375276Y0332355D03*
D433*
X0375264Y0332380D03*
D434*
X0375239Y0332405D03*
D435*
X0375238Y0332430D03*
D436*
X0375226Y0332455D03*
D437*
X0375213Y0332480D03*
D438*
X0375201Y0332505D03*
D439*
X0375189Y0332530D03*
D440*
X0375176Y0332555D03*
D441*
X0375164Y0332580D03*
D442*
X0375164Y0332605D03*
D443*
X0375151Y0332630D03*
D444*
X0375151Y0332655D03*
D445*
X0375138Y0332680D03*
D446*
X0375126Y0332705D03*
D447*
X0375126Y0332730D03*
D448*
X0379538Y0334305D03*
X0381264Y0332755D03*
D449*
X0373263Y0332755D03*
X0373189Y0332855D03*
X0373163Y0332905D03*
X0373139Y0332955D03*
X0373113Y0333005D03*
D450*
X0373113Y0332980D03*
X0373089Y0333030D03*
X0373139Y0332930D03*
X0373189Y0332880D03*
X0373213Y0332830D03*
X0373239Y0332780D03*
D451*
X0371401Y0337605D03*
X0381251Y0332855D03*
X0381251Y0332805D03*
D452*
X0373226Y0332805D03*
X0373076Y0333055D03*
D453*
X0372851Y0335330D03*
X0371401Y0337580D03*
X0379301Y0338680D03*
X0379451Y0338930D03*
X0381251Y0332930D03*
X0381251Y0332880D03*
D454*
X0380351Y0332980D03*
X0383951Y0335380D03*
X0368351Y0335380D03*
D455*
X0378751Y0339105D03*
X0380351Y0333055D03*
D456*
X0380351Y0333080D03*
X0375351Y0337180D03*
X0381051Y0339380D03*
X0367401Y0336630D03*
D457*
X0373051Y0333080D03*
D458*
X0373038Y0333105D03*
X0373014Y0333155D03*
D459*
X0373026Y0333130D03*
D460*
X0373001Y0333180D03*
D461*
X0372976Y0333205D03*
D462*
X0378676Y0336680D03*
X0378376Y0337830D03*
X0380326Y0333230D03*
D463*
X0374176Y0333230D03*
D464*
X0374688Y0334905D03*
X0378464Y0337305D03*
X0378388Y0337805D03*
X0380314Y0333255D03*
X0371214Y0338155D03*
D465*
X0369126Y0336880D03*
X0367526Y0335830D03*
X0366376Y0338030D03*
X0370676Y0334430D03*
X0383476Y0336830D03*
X0383576Y0336880D03*
X0383776Y0333280D03*
D466*
X0380301Y0333280D03*
X0372001Y0335030D03*
X0370901Y0336630D03*
X0367501Y0336530D03*
D467*
X0374251Y0333280D03*
D468*
X0374276Y0333305D03*
D469*
X0368176Y0334280D03*
X0366626Y0335680D03*
X0366526Y0337780D03*
X0370476Y0339180D03*
X0383626Y0333580D03*
X0383776Y0333330D03*
X0384426Y0335180D03*
D470*
X0382701Y0333330D03*
X0376701Y0334480D03*
X0376451Y0335730D03*
X0376451Y0335780D03*
X0371201Y0334680D03*
D471*
X0374276Y0333330D03*
D472*
X0374276Y0333355D03*
D473*
X0374101Y0333380D03*
D474*
X0374901Y0336280D03*
X0367551Y0334930D03*
X0367451Y0333380D03*
D475*
X0367176Y0333755D03*
X0367176Y0333805D03*
X0367126Y0334005D03*
X0367126Y0334055D03*
X0367126Y0334105D03*
X0367126Y0334155D03*
X0370726Y0338855D03*
X0376526Y0335455D03*
X0376526Y0335405D03*
X0376526Y0335355D03*
X0376526Y0335305D03*
X0376526Y0335255D03*
X0376626Y0334605D03*
X0382726Y0333405D03*
X0384426Y0336455D03*
D476*
X0373564Y0333405D03*
D477*
X0373588Y0333455D03*
D478*
X0373564Y0333505D03*
D479*
X0373551Y0333530D03*
D480*
X0373563Y0333555D03*
D481*
X0373563Y0333580D03*
D482*
X0373563Y0333605D03*
D483*
X0373576Y0333630D03*
D484*
X0375076Y0336180D03*
X0376476Y0335680D03*
X0371826Y0339530D03*
X0367176Y0334380D03*
X0367226Y0333630D03*
X0384426Y0336430D03*
D485*
X0379626Y0333655D03*
D486*
X0373576Y0333655D03*
D487*
X0379463Y0333680D03*
D488*
X0373601Y0333680D03*
D489*
X0379326Y0333705D03*
D490*
X0373614Y0333705D03*
D491*
X0379276Y0333730D03*
D492*
X0373613Y0333730D03*
D493*
X0371376Y0337405D03*
X0379226Y0333755D03*
D494*
X0373626Y0333755D03*
D495*
X0373214Y0335430D03*
X0379188Y0333780D03*
D496*
X0373638Y0333780D03*
D497*
X0376626Y0334580D03*
X0376526Y0335280D03*
X0376526Y0335330D03*
X0376526Y0335380D03*
X0376526Y0335430D03*
X0379776Y0339730D03*
X0368676Y0336330D03*
X0366776Y0337380D03*
X0367126Y0334180D03*
X0367126Y0334130D03*
X0367126Y0334080D03*
X0367126Y0334030D03*
X0367176Y0333780D03*
D498*
X0373638Y0333805D03*
D499*
X0379126Y0333830D03*
D500*
X0373651Y0333830D03*
X0373401Y0334180D03*
D501*
X0379101Y0333855D03*
D502*
X0373651Y0333855D03*
D503*
X0379076Y0333880D03*
D504*
X0373664Y0333880D03*
D505*
X0373763Y0334005D03*
X0373589Y0334305D03*
X0379063Y0333905D03*
D506*
X0373676Y0333905D03*
D507*
X0373738Y0333980D03*
X0379038Y0333930D03*
D508*
X0373701Y0333930D03*
D509*
X0379026Y0333955D03*
D510*
X0378964Y0334055D03*
X0373714Y0333955D03*
D511*
X0379013Y0333980D03*
D512*
X0379001Y0334005D03*
D513*
X0378976Y0334030D03*
X0371726Y0337080D03*
D514*
X0373776Y0334030D03*
D515*
X0371551Y0334830D03*
X0368701Y0334030D03*
X0375901Y0336830D03*
D516*
X0378951Y0334080D03*
D517*
X0373801Y0334080D03*
D518*
X0371639Y0337105D03*
X0371289Y0337305D03*
X0379263Y0338155D03*
X0378939Y0334105D03*
D519*
X0373826Y0334105D03*
D520*
X0367551Y0335630D03*
X0367551Y0335680D03*
X0367501Y0335930D03*
X0366401Y0337980D03*
X0371251Y0340280D03*
X0371301Y0340230D03*
X0383351Y0336030D03*
X0383451Y0334130D03*
D521*
X0378939Y0334130D03*
D522*
X0373826Y0334130D03*
D523*
X0378926Y0334155D03*
D524*
X0379088Y0338305D03*
X0373214Y0335605D03*
X0373788Y0334155D03*
D525*
X0368126Y0334380D03*
X0367476Y0336030D03*
X0370326Y0339380D03*
X0383376Y0336730D03*
X0383426Y0334180D03*
D526*
X0378914Y0334180D03*
D527*
X0380839Y0339230D03*
X0372089Y0339080D03*
X0368739Y0334180D03*
D528*
X0378888Y0334205D03*
D529*
X0373426Y0334205D03*
D530*
X0371651Y0339780D03*
X0366751Y0336180D03*
X0382801Y0334230D03*
X0383551Y0335780D03*
D531*
X0378876Y0334230D03*
X0373476Y0334230D03*
D532*
X0376251Y0336355D03*
X0371901Y0339405D03*
X0366951Y0336455D03*
X0383001Y0334555D03*
X0383001Y0334305D03*
X0383001Y0334255D03*
D533*
X0378863Y0334255D03*
D534*
X0373501Y0334255D03*
D535*
X0378863Y0334280D03*
X0379313Y0338180D03*
D536*
X0373551Y0334280D03*
X0371301Y0337330D03*
D537*
X0379576Y0334330D03*
D538*
X0373613Y0334330D03*
D539*
X0373651Y0334355D03*
X0373251Y0335505D03*
D540*
X0373189Y0335630D03*
X0373689Y0334380D03*
D541*
X0373726Y0334405D03*
D542*
X0376676Y0334505D03*
X0376476Y0335655D03*
X0376426Y0335855D03*
X0383676Y0335905D03*
X0367176Y0334405D03*
D543*
X0373801Y0334455D03*
D544*
X0373838Y0334480D03*
X0372314Y0336980D03*
D545*
X0373876Y0334505D03*
D546*
X0379676Y0334755D03*
X0379726Y0334555D03*
D547*
X0379726Y0334580D03*
D548*
X0374014Y0334580D03*
X0372688Y0335980D03*
D549*
X0374051Y0334605D03*
D550*
X0376576Y0334730D03*
X0376576Y0334780D03*
X0384426Y0336480D03*
D551*
X0379551Y0335280D03*
X0378901Y0336130D03*
X0374401Y0334780D03*
D552*
X0371401Y0337655D03*
X0379451Y0334805D03*
D553*
X0376551Y0334855D03*
X0376551Y0334905D03*
X0376551Y0334955D03*
X0376551Y0335005D03*
X0375301Y0335105D03*
X0366751Y0337405D03*
D554*
X0368251Y0336455D03*
X0367451Y0334855D03*
X0376201Y0336455D03*
X0377951Y0340055D03*
X0384651Y0335555D03*
D555*
X0379438Y0334905D03*
X0372764Y0336905D03*
X0372464Y0336105D03*
D556*
X0371776Y0334930D03*
X0374376Y0337680D03*
X0374476Y0337630D03*
D557*
X0374713Y0337505D03*
X0375539Y0337055D03*
X0371839Y0334955D03*
D558*
X0374876Y0334980D03*
X0373826Y0337980D03*
X0373726Y0338030D03*
X0372176Y0338980D03*
D559*
X0379051Y0337355D03*
X0378851Y0335905D03*
X0379501Y0335005D03*
D560*
X0371951Y0335005D03*
X0370801Y0336655D03*
D561*
X0371001Y0336605D03*
X0371251Y0338105D03*
X0372051Y0335055D03*
X0378351Y0337205D03*
D562*
X0379576Y0335105D03*
D563*
X0383376Y0335155D03*
X0382576Y0338655D03*
X0367026Y0337055D03*
D564*
X0368326Y0335180D03*
X0378326Y0337180D03*
X0378876Y0336380D03*
D565*
X0378776Y0339180D03*
X0375426Y0337130D03*
X0383776Y0335230D03*
D566*
X0379526Y0335305D03*
D567*
X0372726Y0335305D03*
D568*
X0374326Y0336555D03*
X0375476Y0337105D03*
X0383926Y0335355D03*
X0383976Y0335405D03*
D569*
X0373064Y0335380D03*
D570*
X0373164Y0335405D03*
D571*
X0374089Y0336630D03*
X0378739Y0336580D03*
X0384113Y0335430D03*
D572*
X0378826Y0339255D03*
X0368326Y0335455D03*
D573*
X0371201Y0338180D03*
X0378401Y0337880D03*
X0384151Y0335480D03*
D574*
X0379426Y0335480D03*
X0378326Y0338380D03*
X0371326Y0337930D03*
D575*
X0371351Y0337380D03*
X0373251Y0335530D03*
X0373251Y0335480D03*
D576*
X0374226Y0337755D03*
X0378876Y0339505D03*
X0368276Y0335555D03*
X0367276Y0336755D03*
D577*
X0373226Y0335580D03*
D578*
X0368251Y0335580D03*
X0367251Y0336780D03*
X0378901Y0339480D03*
X0380951Y0339330D03*
D579*
X0373126Y0335680D03*
D580*
X0373101Y0335705D03*
D581*
X0372913Y0335830D03*
D582*
X0378476Y0338505D03*
X0379126Y0335855D03*
D583*
X0372851Y0335880D03*
D584*
X0372801Y0335905D03*
X0371401Y0337555D03*
X0378851Y0338355D03*
D585*
X0379338Y0338780D03*
X0379388Y0338830D03*
X0379414Y0338880D03*
X0379488Y0338980D03*
X0372764Y0335930D03*
D586*
X0372651Y0336005D03*
D587*
X0372601Y0336030D03*
X0371401Y0337630D03*
D588*
X0372564Y0336055D03*
D589*
X0378876Y0336105D03*
D590*
X0372426Y0336130D03*
D591*
X0372326Y0336180D03*
X0379026Y0337680D03*
D592*
X0371976Y0336330D03*
D593*
X0371913Y0336355D03*
D594*
X0378476Y0337955D03*
X0378776Y0336505D03*
D595*
X0374476Y0336505D03*
X0374426Y0337655D03*
D596*
X0374401Y0336530D03*
D597*
X0376139Y0336555D03*
X0371963Y0339305D03*
D598*
X0371114Y0338305D03*
X0374514Y0337605D03*
X0378838Y0339555D03*
X0380988Y0339355D03*
X0367314Y0336705D03*
D599*
X0367301Y0336730D03*
X0371101Y0338330D03*
D600*
X0378626Y0336780D03*
D601*
X0378938Y0339405D03*
X0373264Y0338305D03*
X0373188Y0338355D03*
X0373088Y0338405D03*
X0373014Y0338455D03*
X0372914Y0338505D03*
X0372764Y0338605D03*
X0372688Y0338655D03*
X0372088Y0339055D03*
X0367214Y0336805D03*
D602*
X0375801Y0336905D03*
D603*
X0375751Y0336930D03*
X0373301Y0338280D03*
X0373051Y0338430D03*
X0372801Y0338580D03*
X0372651Y0338680D03*
D604*
X0372363Y0338855D03*
X0372289Y0338905D03*
X0372213Y0338955D03*
X0372139Y0339005D03*
X0373513Y0338155D03*
X0373613Y0338105D03*
X0373689Y0338055D03*
X0375713Y0336955D03*
X0378913Y0339455D03*
D605*
X0372451Y0336955D03*
D606*
X0374313Y0337705D03*
X0375639Y0337005D03*
X0378863Y0339305D03*
D607*
X0371851Y0337055D03*
D608*
X0371276Y0338030D03*
X0378276Y0337080D03*
X0378576Y0338030D03*
D609*
X0375501Y0337080D03*
D610*
X0378301Y0337105D03*
D611*
X0371551Y0337130D03*
D612*
X0371464Y0337155D03*
D613*
X0371376Y0337180D03*
D614*
X0371301Y0337205D03*
D615*
X0371213Y0337230D03*
D616*
X0371151Y0337255D03*
D617*
X0371276Y0337280D03*
D618*
X0371326Y0337355D03*
D619*
X0374864Y0337430D03*
D620*
X0371401Y0337430D03*
D621*
X0374801Y0337455D03*
X0378801Y0339205D03*
D622*
X0371401Y0337455D03*
D623*
X0371401Y0337480D03*
D624*
X0371413Y0337505D03*
D625*
X0371401Y0337530D03*
D626*
X0379026Y0337605D03*
D627*
X0378751Y0337730D03*
D628*
X0374151Y0337805D03*
X0374051Y0337855D03*
D629*
X0374001Y0337880D03*
X0374101Y0337830D03*
D630*
X0378451Y0337930D03*
D631*
X0377026Y0338130D03*
X0379876Y0339880D03*
X0370426Y0339230D03*
D632*
X0379376Y0338205D03*
D633*
X0379451Y0338230D03*
D634*
X0379776Y0338255D03*
D635*
X0373351Y0338255D03*
X0372851Y0338555D03*
X0372601Y0338705D03*
X0372451Y0338805D03*
X0371051Y0338405D03*
D636*
X0379814Y0338280D03*
D637*
X0378926Y0338330D03*
D638*
X0371026Y0338430D03*
D639*
G36*
X0366117Y0338479D02*
X0366100Y0338464D01*
X0366085Y0338481D01*
X0366102Y0338496D01*
X0366117Y0338479D01*
G37*
D640*
X0380801Y0339205D03*
D641*
X0378901Y0339355D03*
D642*
X0379926Y0339580D03*
D643*
X0051904Y0080144D02*
X0048835Y0080144D01*
X0050369Y0080144D02*
X0050369Y0084748D01*
X0051904Y0083213D01*
X0062835Y0083213D02*
X0065904Y0080144D01*
X0062835Y0080144D01*
X0062835Y0083213D02*
X0062835Y0083981D01*
X0063602Y0084748D01*
X0065137Y0084748D01*
X0065904Y0083981D01*
X0075835Y0083981D02*
X0075835Y0083213D01*
X0076602Y0082446D01*
X0075835Y0081679D01*
X0075835Y0080911D01*
X0076602Y0080144D01*
X0078137Y0080144D01*
X0078904Y0080911D01*
X0077369Y0082446D02*
X0076602Y0082446D01*
X0075835Y0083981D02*
X0076602Y0084748D01*
X0078137Y0084748D01*
X0078904Y0083981D01*
X0089835Y0082446D02*
X0092904Y0082446D01*
X0090602Y0084748D01*
X0090602Y0080144D01*
X0102835Y0080911D02*
X0103602Y0080144D01*
X0105137Y0080144D01*
X0105904Y0080911D01*
X0105904Y0082446D02*
X0104369Y0083213D01*
X0103602Y0083213D01*
X0102835Y0082446D01*
X0102835Y0080911D01*
X0105904Y0082446D02*
X0105904Y0084748D01*
X0102835Y0084748D01*
X0116835Y0084748D02*
X0118369Y0083981D01*
X0119904Y0082446D01*
X0117602Y0082446D01*
X0116835Y0081679D01*
X0116835Y0080911D01*
X0117602Y0080144D01*
X0119137Y0080144D01*
X0119904Y0080911D01*
X0119904Y0082446D01*
X0120307Y0233138D02*
X0120307Y0238342D01*
X0122909Y0235740D01*
X0119439Y0235740D01*
X0117753Y0234005D02*
X0116885Y0234005D01*
X0116885Y0233138D01*
X0117753Y0233138D01*
X0117753Y0234005D01*
X0115174Y0234005D02*
X0114307Y0233138D01*
X0112572Y0233138D01*
X0111705Y0234005D01*
X0111705Y0234872D01*
X0112572Y0235740D01*
X0113440Y0235740D01*
X0112572Y0235740D02*
X0111705Y0236607D01*
X0111705Y0237475D01*
X0112572Y0238342D01*
X0114307Y0238342D01*
X0115174Y0237475D01*
X0124620Y0234005D02*
X0124620Y0233138D01*
X0125487Y0233138D01*
X0125487Y0234005D01*
X0124620Y0234005D01*
X0127174Y0234005D02*
X0128041Y0233138D01*
X0129776Y0233138D01*
X0130644Y0234005D01*
X0132330Y0234872D02*
X0134065Y0233138D01*
X0135800Y0234872D01*
X0135800Y0238342D01*
X0132330Y0238342D02*
X0132330Y0234872D01*
X0130644Y0237475D02*
X0129776Y0238342D01*
X0128041Y0238342D01*
X0127174Y0237475D01*
X0127174Y0236607D01*
X0128041Y0235740D01*
X0127174Y0234872D01*
X0127174Y0234005D01*
X0128041Y0235740D02*
X0128909Y0235740D01*
D644*
X0013154Y0214814D02*
X0256565Y0214814D01*
X0257263Y0199500D02*
X0012852Y0199500D01*
D645*
X0149850Y0233947D02*
X0161193Y0245290D01*
X0168266Y0250961D02*
X0179609Y0250961D01*
X0173937Y0250961D02*
X0173937Y0233947D01*
X0161193Y0233947D02*
X0149850Y0245290D01*
X0186681Y0242454D02*
X0186681Y0233947D01*
X0186681Y0242454D02*
X0189517Y0245290D01*
X0198024Y0245290D01*
X0198024Y0233947D01*
X0205097Y0236782D02*
X0205097Y0242454D01*
X0207933Y0245290D01*
X0213604Y0245290D01*
X0216440Y0242454D01*
X0216440Y0236782D01*
X0213604Y0233947D01*
X0207933Y0233947D01*
X0205097Y0236782D01*
X0223513Y0233947D02*
X0223513Y0242454D01*
X0226349Y0245290D01*
X0229184Y0242454D01*
X0229184Y0233947D01*
X0234856Y0233947D02*
X0234856Y0245290D01*
X0232020Y0245290D01*
X0229184Y0242454D01*
X0241929Y0242454D02*
X0241929Y0239618D01*
X0253272Y0239618D01*
X0253272Y0236782D02*
X0253272Y0242454D01*
X0250436Y0245290D01*
X0244764Y0245290D01*
X0241929Y0242454D01*
X0244764Y0233947D02*
X0250436Y0233947D01*
X0253272Y0236782D01*
D646*
X0252731Y0210281D02*
X0255867Y0210281D01*
X0254299Y0210281D02*
X0254299Y0205577D01*
X0250803Y0206361D02*
X0250803Y0207929D01*
X0250019Y0208713D01*
X0248451Y0208713D01*
X0247667Y0207929D01*
X0247667Y0207145D01*
X0250803Y0207145D01*
X0250803Y0206361D02*
X0250019Y0205577D01*
X0248451Y0205577D01*
X0245739Y0206361D02*
X0244955Y0205577D01*
X0242603Y0205577D01*
X0240674Y0205577D02*
X0240674Y0210281D01*
X0239890Y0208713D02*
X0238322Y0208713D01*
X0237538Y0207929D01*
X0237538Y0205577D01*
X0235610Y0205577D02*
X0235610Y0208713D01*
X0233258Y0208713D01*
X0232474Y0207929D01*
X0232474Y0205577D01*
X0230546Y0206361D02*
X0230546Y0207929D01*
X0229762Y0208713D01*
X0228194Y0208713D01*
X0227410Y0207929D01*
X0227410Y0206361D01*
X0228194Y0205577D01*
X0229762Y0205577D01*
X0230546Y0206361D01*
X0225481Y0205577D02*
X0223913Y0205577D01*
X0224697Y0205577D02*
X0224697Y0210281D01*
X0225481Y0210281D01*
X0222105Y0207929D02*
X0222105Y0206361D01*
X0221321Y0205577D01*
X0219753Y0205577D01*
X0218969Y0206361D01*
X0218969Y0207929D01*
X0219753Y0208713D01*
X0221321Y0208713D01*
X0222105Y0207929D01*
X0217041Y0207929D02*
X0217041Y0206361D01*
X0216257Y0205577D01*
X0213905Y0205577D01*
X0213905Y0204793D02*
X0213905Y0208713D01*
X0216257Y0208713D01*
X0217041Y0207929D01*
X0215473Y0204009D02*
X0214689Y0204009D01*
X0213905Y0204793D01*
X0211977Y0206361D02*
X0211193Y0205577D01*
X0208840Y0205577D01*
X0208840Y0204793D02*
X0209624Y0204009D01*
X0210409Y0204009D01*
X0208840Y0204793D02*
X0208840Y0208713D01*
X0211977Y0208713D02*
X0211977Y0206361D01*
X0201848Y0208713D02*
X0200280Y0208713D01*
X0201064Y0209497D02*
X0201064Y0206361D01*
X0200280Y0205577D01*
X0198472Y0205577D02*
X0198472Y0210281D01*
X0197688Y0208713D02*
X0198472Y0207929D01*
X0197688Y0208713D02*
X0196120Y0208713D01*
X0195336Y0207929D01*
X0195336Y0205577D01*
X0193407Y0206361D02*
X0192623Y0207145D01*
X0190271Y0207145D01*
X0190271Y0207929D02*
X0190271Y0205577D01*
X0192623Y0205577D01*
X0193407Y0206361D01*
X0192623Y0208713D02*
X0191055Y0208713D01*
X0190271Y0207929D01*
X0188343Y0208713D02*
X0186775Y0208713D01*
X0187559Y0209497D02*
X0187559Y0206361D01*
X0186775Y0205577D01*
X0179902Y0205577D02*
X0179902Y0210281D01*
X0179118Y0208713D02*
X0177550Y0208713D01*
X0176766Y0207929D01*
X0176766Y0205577D01*
X0174838Y0206361D02*
X0174838Y0207929D01*
X0174054Y0208713D01*
X0172486Y0208713D01*
X0171702Y0207929D01*
X0171702Y0207145D01*
X0174838Y0207145D01*
X0174838Y0206361D02*
X0174054Y0205577D01*
X0172486Y0205577D01*
X0169774Y0205577D02*
X0168206Y0205577D01*
X0168990Y0205577D02*
X0168990Y0210281D01*
X0169774Y0210281D01*
X0166398Y0208713D02*
X0164046Y0208713D01*
X0163262Y0207929D01*
X0163262Y0206361D01*
X0164046Y0205577D01*
X0166398Y0205577D01*
X0166398Y0204009D02*
X0166398Y0208713D01*
X0161333Y0207929D02*
X0160549Y0207145D01*
X0158981Y0207145D01*
X0158197Y0206361D01*
X0158981Y0205577D01*
X0161333Y0205577D01*
X0161333Y0207929D02*
X0160549Y0208713D01*
X0158197Y0208713D01*
X0151205Y0208713D02*
X0151205Y0206361D01*
X0150421Y0205577D01*
X0148069Y0205577D01*
X0148069Y0208713D01*
X0146140Y0207929D02*
X0145356Y0208713D01*
X0143004Y0208713D01*
X0143788Y0207145D02*
X0143004Y0206361D01*
X0143788Y0205577D01*
X0146140Y0205577D01*
X0145356Y0207145D02*
X0146140Y0207929D01*
X0145356Y0207145D02*
X0143788Y0207145D01*
X0136012Y0205577D02*
X0134444Y0205577D01*
X0135228Y0205577D02*
X0135228Y0210281D01*
X0136012Y0210281D01*
X0132635Y0208713D02*
X0131851Y0208713D01*
X0131851Y0205577D01*
X0132635Y0205577D02*
X0131067Y0205577D01*
X0127691Y0205577D02*
X0126123Y0208713D01*
X0124195Y0207929D02*
X0123411Y0208713D01*
X0121843Y0208713D01*
X0121059Y0207929D01*
X0121059Y0207145D01*
X0124195Y0207145D01*
X0124195Y0206361D02*
X0124195Y0207929D01*
X0124195Y0206361D02*
X0123411Y0205577D01*
X0121843Y0205577D01*
X0127691Y0205577D02*
X0129259Y0208713D01*
X0131851Y0210281D02*
X0131851Y0211065D01*
X0114066Y0208713D02*
X0114066Y0206361D01*
X0113282Y0205577D01*
X0112498Y0206361D01*
X0111714Y0205577D01*
X0110930Y0206361D01*
X0110930Y0208713D01*
X0109002Y0208713D02*
X0108218Y0208713D01*
X0108218Y0205577D01*
X0109002Y0205577D02*
X0107434Y0205577D01*
X0104842Y0206361D02*
X0104058Y0205577D01*
X0104842Y0206361D02*
X0104842Y0209497D01*
X0105626Y0208713D02*
X0104058Y0208713D01*
X0102250Y0207929D02*
X0101466Y0208713D01*
X0099898Y0208713D01*
X0099114Y0207929D01*
X0099114Y0205577D01*
X0097185Y0205577D02*
X0095617Y0205577D01*
X0096401Y0205577D02*
X0096401Y0208713D01*
X0097185Y0208713D01*
X0096401Y0210281D02*
X0096401Y0211065D01*
X0093809Y0208713D02*
X0093809Y0205577D01*
X0090673Y0205577D02*
X0090673Y0207929D01*
X0091457Y0208713D01*
X0093809Y0208713D01*
X0102250Y0210281D02*
X0102250Y0205577D01*
X0108218Y0210281D02*
X0108218Y0211065D01*
X0083680Y0207929D02*
X0083680Y0206361D01*
X0082896Y0205577D01*
X0081328Y0205577D01*
X0080544Y0207145D02*
X0083680Y0207145D01*
X0083680Y0207929D02*
X0082896Y0208713D01*
X0081328Y0208713D01*
X0080544Y0207929D01*
X0080544Y0207145D01*
X0078616Y0206361D02*
X0077832Y0205577D01*
X0075480Y0205577D01*
X0073552Y0206361D02*
X0073552Y0207929D01*
X0072768Y0208713D01*
X0071200Y0208713D01*
X0070416Y0207929D01*
X0070416Y0206361D01*
X0071200Y0205577D01*
X0072768Y0205577D01*
X0073552Y0206361D01*
X0075480Y0208713D02*
X0077832Y0208713D01*
X0078616Y0207929D01*
X0078616Y0206361D01*
X0068487Y0205577D02*
X0066919Y0205577D01*
X0067703Y0205577D02*
X0067703Y0210281D01*
X0068487Y0210281D01*
X0065111Y0207929D02*
X0065111Y0206361D01*
X0064327Y0205577D01*
X0062759Y0205577D01*
X0061975Y0206361D01*
X0061975Y0207929D01*
X0062759Y0208713D01*
X0064327Y0208713D01*
X0065111Y0207929D01*
X0060047Y0207929D02*
X0060047Y0206361D01*
X0059263Y0205577D01*
X0056911Y0205577D01*
X0056911Y0204793D02*
X0056911Y0208713D01*
X0059263Y0208713D01*
X0060047Y0207929D01*
X0058479Y0204009D02*
X0057695Y0204009D01*
X0056911Y0204793D01*
X0054983Y0205577D02*
X0053415Y0205577D01*
X0054199Y0205577D02*
X0054199Y0208713D01*
X0054983Y0208713D01*
X0054199Y0210281D02*
X0054199Y0211065D01*
X0051606Y0207929D02*
X0051606Y0206361D01*
X0050822Y0205577D01*
X0048470Y0205577D01*
X0046542Y0206361D02*
X0045758Y0207145D01*
X0043406Y0207145D01*
X0043406Y0207929D02*
X0043406Y0205577D01*
X0045758Y0205577D01*
X0046542Y0206361D01*
X0045758Y0208713D02*
X0044190Y0208713D01*
X0043406Y0207929D01*
X0041478Y0205577D02*
X0039910Y0205577D01*
X0040694Y0205577D02*
X0040694Y0210281D01*
X0041478Y0210281D01*
X0048470Y0208713D02*
X0050822Y0208713D01*
X0051606Y0207929D01*
X0033037Y0205577D02*
X0031469Y0205577D01*
X0032253Y0205577D02*
X0032253Y0210281D01*
X0033037Y0210281D01*
X0029661Y0208713D02*
X0028877Y0208713D01*
X0028877Y0205577D01*
X0029661Y0205577D02*
X0028093Y0205577D01*
X0026285Y0205577D02*
X0026285Y0208713D01*
X0025501Y0208713D01*
X0024717Y0207929D01*
X0023933Y0208713D01*
X0023149Y0207929D01*
X0023149Y0205577D01*
X0024717Y0205577D02*
X0024717Y0207929D01*
X0021220Y0208713D02*
X0020436Y0208713D01*
X0020436Y0205577D01*
X0021220Y0205577D02*
X0019652Y0205577D01*
X0017060Y0206361D02*
X0016276Y0205577D01*
X0017060Y0206361D02*
X0017060Y0209497D01*
X0017844Y0208713D02*
X0016276Y0208713D01*
X0014468Y0207929D02*
X0013684Y0208713D01*
X0011332Y0208713D01*
X0012116Y0207145D02*
X0013684Y0207145D01*
X0014468Y0207929D01*
X0014468Y0205577D02*
X0012116Y0205577D01*
X0011332Y0206361D01*
X0012116Y0207145D01*
X0020436Y0210281D02*
X0020436Y0211065D01*
X0028877Y0211065D02*
X0028877Y0210281D01*
X0027312Y0193288D02*
X0027312Y0189084D01*
X0024509Y0189084D01*
X0022708Y0189785D02*
X0022007Y0189084D01*
X0020606Y0189084D01*
X0019905Y0190486D02*
X0022708Y0190486D01*
X0022708Y0191186D02*
X0022007Y0191887D01*
X0020606Y0191887D01*
X0019905Y0191186D01*
X0019905Y0190486D01*
X0018104Y0189785D02*
X0017403Y0190486D01*
X0015301Y0190486D01*
X0015301Y0191186D02*
X0015301Y0189084D01*
X0017403Y0189084D01*
X0018104Y0189785D01*
X0017403Y0191887D02*
X0016002Y0191887D01*
X0015301Y0191186D01*
X0022708Y0191186D02*
X0022708Y0189785D01*
X0033717Y0189084D02*
X0033717Y0191186D01*
X0034418Y0191887D01*
X0036519Y0191887D01*
X0036519Y0189084D01*
X0038321Y0189084D02*
X0040423Y0189084D01*
X0041123Y0189785D01*
X0040423Y0190486D01*
X0038321Y0190486D01*
X0038321Y0191186D02*
X0038321Y0189084D01*
X0038321Y0191186D02*
X0039022Y0191887D01*
X0040423Y0191887D01*
X0042791Y0191887D02*
X0044193Y0191887D01*
X0043492Y0192587D02*
X0043492Y0189785D01*
X0042791Y0189084D01*
X0045994Y0189785D02*
X0046695Y0189084D01*
X0048797Y0189084D01*
X0048096Y0190486D02*
X0046695Y0190486D01*
X0045994Y0189785D01*
X0045994Y0191887D02*
X0048096Y0191887D01*
X0048797Y0191186D01*
X0048096Y0190486D01*
X0050598Y0191887D02*
X0050598Y0188384D01*
X0051299Y0187683D01*
X0051999Y0187683D01*
X0052700Y0189084D02*
X0050598Y0189084D01*
X0052700Y0189084D02*
X0053401Y0189785D01*
X0053401Y0191887D01*
X0055135Y0191887D02*
X0055836Y0191887D01*
X0057237Y0190486D01*
X0057237Y0191887D02*
X0057237Y0189084D01*
X0060440Y0189084D02*
X0060440Y0193288D01*
X0061841Y0193288D02*
X0059039Y0193288D01*
X0068247Y0190486D02*
X0069648Y0189084D01*
X0070348Y0189084D01*
X0071049Y0189785D01*
X0071049Y0190486D01*
X0069648Y0191887D01*
X0069648Y0192587D01*
X0070348Y0193288D01*
X0071049Y0192587D01*
X0071049Y0191887D01*
X0068247Y0189084D01*
X0077454Y0189084D02*
X0077454Y0191186D01*
X0078155Y0191887D01*
X0080257Y0191887D01*
X0080257Y0189084D01*
X0082058Y0189785D02*
X0082058Y0191186D01*
X0082759Y0191887D01*
X0084160Y0191887D01*
X0084861Y0191186D01*
X0084861Y0189785D01*
X0084160Y0189084D01*
X0082759Y0189084D01*
X0082058Y0189785D01*
X0086662Y0189785D02*
X0087363Y0190486D01*
X0088764Y0190486D01*
X0089465Y0191186D01*
X0088764Y0191887D01*
X0086662Y0191887D01*
X0086662Y0189785D02*
X0087363Y0189084D01*
X0089465Y0189084D01*
X0091266Y0189084D02*
X0093368Y0189084D01*
X0094069Y0189785D01*
X0094069Y0191186D01*
X0093368Y0191887D01*
X0091266Y0191887D01*
X0091266Y0193288D02*
X0091266Y0189084D01*
X0095870Y0189084D02*
X0095870Y0191887D01*
X0098672Y0191887D02*
X0098672Y0189785D01*
X0097972Y0189084D01*
X0095870Y0189084D01*
X0100474Y0189084D02*
X0100474Y0193288D01*
X0100474Y0191186D02*
X0103276Y0191186D01*
X0103276Y0189084D02*
X0103276Y0193288D01*
X0109682Y0191186D02*
X0109682Y0189084D01*
X0109682Y0191186D02*
X0110382Y0191887D01*
X0112484Y0191887D01*
X0112484Y0189084D01*
X0114286Y0189084D02*
X0116388Y0189084D01*
X0117088Y0189785D01*
X0117088Y0191887D01*
X0119457Y0193288D02*
X0119457Y0189084D01*
X0120157Y0189084D02*
X0118756Y0189084D01*
X0121959Y0189785D02*
X0122660Y0189084D01*
X0124061Y0189084D01*
X0124761Y0189785D01*
X0124761Y0192587D01*
X0124061Y0193288D01*
X0122660Y0193288D01*
X0121959Y0192587D01*
X0121959Y0191186D02*
X0123360Y0191186D01*
X0121959Y0191186D02*
X0121959Y0189785D01*
X0120157Y0193288D02*
X0119457Y0193288D01*
X0114286Y0191887D02*
X0114286Y0188384D01*
X0114986Y0187683D01*
X0115687Y0187683D01*
X0131167Y0188384D02*
X0131867Y0187683D01*
X0132568Y0187683D01*
X0131167Y0188384D02*
X0131167Y0191887D01*
X0133969Y0191887D02*
X0133969Y0189785D01*
X0133269Y0189084D01*
X0131167Y0189084D01*
X0135771Y0189785D02*
X0136471Y0189084D01*
X0138573Y0189084D01*
X0138573Y0193288D01*
X0138573Y0191887D02*
X0136471Y0191887D01*
X0135771Y0191186D01*
X0135771Y0189785D01*
X0144979Y0189084D02*
X0147080Y0191186D01*
X0147781Y0190486D02*
X0144979Y0193288D01*
X0147781Y0193288D02*
X0147781Y0189084D01*
X0149583Y0189785D02*
X0149583Y0193288D01*
X0152385Y0193288D02*
X0152385Y0189785D01*
X0151684Y0189084D01*
X0150283Y0189084D01*
X0149583Y0189785D01*
X0158790Y0189785D02*
X0159491Y0189084D01*
X0161593Y0189084D01*
X0160892Y0190486D02*
X0161593Y0191186D01*
X0160892Y0191887D01*
X0158790Y0191887D01*
X0159491Y0190486D02*
X0160892Y0190486D01*
X0159491Y0190486D02*
X0158790Y0189785D01*
X0163394Y0190486D02*
X0166197Y0190486D01*
X0166197Y0191186D02*
X0165496Y0191887D01*
X0164095Y0191887D01*
X0163394Y0191186D01*
X0163394Y0190486D01*
X0164095Y0189084D02*
X0165496Y0189084D01*
X0166197Y0189785D01*
X0166197Y0191186D01*
X0167865Y0189084D02*
X0169266Y0189084D01*
X0168565Y0189084D02*
X0168565Y0193288D01*
X0169266Y0193288D01*
X0171067Y0191186D02*
X0171067Y0189084D01*
X0173169Y0189084D01*
X0173870Y0189785D01*
X0173169Y0190486D01*
X0171067Y0190486D01*
X0171067Y0191186D02*
X0171768Y0191887D01*
X0173169Y0191887D01*
X0175671Y0193288D02*
X0175671Y0189084D01*
X0177073Y0190486D01*
X0178474Y0189084D01*
X0178474Y0193288D01*
X0184879Y0191186D02*
X0184879Y0189084D01*
X0184879Y0191186D02*
X0185580Y0191887D01*
X0186981Y0191887D01*
X0187682Y0191186D01*
X0189350Y0191887D02*
X0190751Y0191887D01*
X0190050Y0192587D02*
X0190050Y0189785D01*
X0189350Y0189084D01*
X0187682Y0189084D02*
X0187682Y0193288D01*
X0192486Y0191887D02*
X0193186Y0191887D01*
X0194588Y0190486D01*
X0194588Y0191887D02*
X0194588Y0189084D01*
X0196389Y0189785D02*
X0197090Y0189084D01*
X0198491Y0189084D01*
X0199191Y0189785D01*
X0199191Y0191186D01*
X0198491Y0191887D01*
X0197090Y0191887D01*
X0196389Y0191186D01*
X0196389Y0189785D01*
X0200993Y0189084D02*
X0200993Y0193288D01*
X0203795Y0193288D02*
X0200993Y0189084D01*
X0203795Y0189084D02*
X0203795Y0193288D01*
X0210201Y0191186D02*
X0210201Y0189084D01*
X0210201Y0191186D02*
X0210901Y0191887D01*
X0213003Y0191887D01*
X0213003Y0189084D01*
X0214671Y0189084D02*
X0216073Y0189084D01*
X0215372Y0189084D02*
X0215372Y0191887D01*
X0216073Y0191887D01*
X0215372Y0193288D02*
X0215372Y0193989D01*
X0222478Y0193288D02*
X0222478Y0189084D01*
X0224580Y0189084D01*
X0225280Y0189785D01*
X0225280Y0191186D01*
X0224580Y0191887D01*
X0222478Y0191887D01*
X0227082Y0191186D02*
X0227082Y0190486D01*
X0229884Y0190486D01*
X0229884Y0191186D02*
X0229184Y0191887D01*
X0227782Y0191887D01*
X0227082Y0191186D01*
X0227782Y0189084D02*
X0229184Y0189084D01*
X0229884Y0189785D01*
X0229884Y0191186D01*
X0231686Y0191186D02*
X0231686Y0189084D01*
X0231686Y0191186D02*
X0232386Y0191887D01*
X0234488Y0191887D01*
X0234488Y0189084D01*
X0236290Y0189084D02*
X0238392Y0189084D01*
X0239092Y0189785D01*
X0239092Y0191186D01*
X0238392Y0191887D01*
X0236290Y0191887D01*
X0236290Y0188384D01*
X0236990Y0187683D01*
X0237691Y0187683D01*
X0240760Y0189084D02*
X0242161Y0189084D01*
X0241461Y0189084D02*
X0241461Y0191887D01*
X0242161Y0191887D01*
X0241461Y0193288D02*
X0241461Y0193989D01*
X0243963Y0191887D02*
X0246065Y0191887D01*
X0246765Y0191186D01*
X0246065Y0190486D01*
X0244664Y0190486D01*
X0243963Y0189785D01*
X0244664Y0189084D01*
X0246765Y0189084D01*
X0248567Y0190486D02*
X0251369Y0190486D01*
X0251369Y0191186D02*
X0250669Y0191887D01*
X0249267Y0191887D01*
X0248567Y0191186D01*
X0248567Y0190486D01*
X0249267Y0189084D02*
X0250669Y0189084D01*
X0251369Y0189785D01*
X0251369Y0191186D01*
X0253171Y0189785D02*
X0253871Y0189084D01*
X0255973Y0189084D01*
X0255973Y0193288D01*
X0253871Y0193288D01*
X0253171Y0192587D01*
X0253171Y0189785D01*
X0245739Y0206361D02*
X0245739Y0207929D01*
X0244955Y0208713D01*
X0242603Y0208713D01*
X0240674Y0207929D02*
X0239890Y0208713D01*
X0179902Y0207929D02*
X0179118Y0208713D01*
X0307554Y0209838D02*
X0308338Y0209838D01*
X0308338Y0210622D01*
X0307554Y0210622D01*
X0307554Y0209838D01*
X0307554Y0212190D02*
X0308338Y0212190D01*
X0308338Y0212974D01*
X0307554Y0212974D01*
X0307554Y0212190D01*
X0310266Y0213758D02*
X0311050Y0214542D01*
X0313402Y0214542D01*
X0313402Y0209838D01*
X0311050Y0209838D01*
X0310266Y0210622D01*
X0310266Y0213758D01*
X0315210Y0214542D02*
X0316778Y0214542D01*
X0315994Y0214542D02*
X0315994Y0209838D01*
X0316778Y0209838D02*
X0315210Y0209838D01*
X0323771Y0211406D02*
X0323771Y0212190D01*
X0324555Y0212974D01*
X0326123Y0212974D01*
X0326907Y0212190D01*
X0326907Y0210622D01*
X0326123Y0209838D01*
X0324555Y0209838D01*
X0323771Y0211406D02*
X0326907Y0211406D01*
X0328835Y0212974D02*
X0331187Y0212974D01*
X0331971Y0212190D01*
X0331971Y0210622D01*
X0331187Y0209838D01*
X0328835Y0209838D01*
X0328835Y0214542D01*
X0333900Y0212190D02*
X0334684Y0212974D01*
X0336252Y0212974D01*
X0337036Y0212190D01*
X0337036Y0210622D01*
X0336252Y0209838D01*
X0334684Y0209838D01*
X0333900Y0210622D01*
X0333900Y0212190D01*
X0338964Y0209838D02*
X0338964Y0214542D01*
X0342100Y0214542D02*
X0338964Y0209838D01*
X0342100Y0209838D02*
X0342100Y0214542D01*
D647*
X0311000Y0192938D03*
M02*
