%
M48
M72
T01C0.0197
T02C0.0315
T03C0.0320
T04C0.0354
T05C0.0394
T06C0.0400
T07C0.0433
T08C0.0520
T09C0.0590
T10C0.0591
T11C0.1181
T12C0.1260
%
T01
X12950Y8144
X18013Y9808
X21300Y9694
X24700Y8794
X31450Y10494
X33050Y9694
X33050Y9094
X32450Y9094
X31850Y8494
X35750Y11194
X36650Y10894
X36550Y11944
X34950Y12294
X34150Y12394
X34150Y14494
X30700Y13344
X30450Y14544
X27950Y17394
X29200Y18094
X27150Y18894
X28350Y19894
X30500Y21344
X31100Y21894
X32400Y21344
X32600Y20544
X34550Y21394
X35900Y21144
X37300Y20494
X38900Y19344
X33550Y22394
X33000Y22194
X31500Y23894
X30900Y23894
X30850Y24544
X31500Y24494
X33050Y25844
X33600Y25644
X32650Y26444
X32750Y27544
X33450Y27894
X35000Y27244
X35150Y26244
X36750Y27844
X36550Y28894
X37050Y29544
X38700Y29344
X35750Y30944
X33150Y31744
X31300Y31044
X33150Y29644
X29950Y28494
X28600Y28344
X28100Y28044
X29450Y27344
X30350Y27344
X30350Y26744
X28300Y25744
X26650Y27044
X25650Y27844
X23450Y27944
X22400Y28344
X21450Y27244
X19550Y27744
X21200Y29444
X22700Y30494
X23750Y29844
X25550Y31294
X26300Y31894
X26950Y30494
X28750Y31244
X30000Y34094
X24550Y33244
X21300Y31894
X19800Y31244
X19100Y29844
X16950Y30494
X16850Y28944
X14950Y29544
X12700Y30494
X15750Y31994
X19150Y33494
X12550Y27244
X10000Y27094
X8250Y26644
X7500Y27694
X7450Y25244
X6450Y25244
X9350Y23094
X10500Y22144
X16400Y20194
X17615Y20854
X20150Y20144
X17950Y17844
X16950Y15944
X22500Y15444
X24050Y14044
X24350Y18644
X26600Y22144
X26600Y23744
X28000Y23244
X28100Y23844
X29100Y23044
X28350Y22444
X24350Y24294
X21950Y25494
X21400Y24994
X19544Y24358
X31450Y17944
X32100Y18494
X38850Y15094
X39150Y13194
X39050Y11694
X36350Y9794
X36350Y8994
X34550Y24294
X33550Y24294
X38200Y24744
X11500Y14644
X3000Y17494
X1660Y27564
X6900Y31294
X6450Y32044
X6700Y33244
X3150Y35844
X8250Y37244
T02
X9111Y36326
X11001Y37606
X3604Y27329
X3604Y22211
T03
X14950Y33994
X17950Y33994
X20450Y33994
X23450Y33994
X25450Y33994
X28450Y33994
X32450Y33994
X35450Y33994
T04
X6816Y37197
X5084Y37197
T05
X11001Y35145
X27153Y15574
X28153Y15574
X29153Y15574
X30153Y15574
X29653Y14574
X28653Y14574
X27653Y14574
X26653Y14574
X11769Y9175
X10391Y9175
X9013Y9175
X7635Y9175
X6257Y9175
X4879Y9175
T06
X14560Y10264
X16340Y10264
X19198Y11120
X20198Y11120
X21198Y11120
X22198Y11120
X23198Y11120
X24198Y11120
X23313Y22850
X22313Y22850
X21313Y22850
X20313Y22850
X19313Y22850
X18313Y22850
X2950Y31994
X2950Y32994
X2950Y33994
X2250Y25064
X2250Y23924
X35875Y23744
X35875Y24744
X36875Y24744
X36875Y23744
X36875Y22744
X35875Y22744
T07
X3604Y22211
X3604Y27329
T08
X4850Y11044
X6250Y11044
X7650Y11044
X8950Y11044
X10350Y11044
X11750Y11044
X32050Y9894
T09
X16830Y11244
X14070Y11244
T10
X14651Y36018
X15714Y36018
X17604Y36018
X18667Y36018
X19806Y36018
X20869Y36018
X22759Y36018
X23822Y36018
X25068Y36018
X26131Y36018
X28021Y36018
X29084Y36018
X29044Y37987
X27076Y37987
X25107Y37987
X23783Y37987
X21814Y37987
X19846Y37987
X18627Y37987
X16659Y37987
X14690Y37987
X32119Y37987
X34088Y37987
X36056Y37987
X36096Y36018
X35033Y36018
X33143Y36018
X32080Y36018
T11
X38167Y37589
X2064Y37589
X2064Y9361
X38167Y9361
T12
X30653Y12074
X26153Y12074
X14037Y15518
X14037Y27329
M30
