M48
;GenerationSoftware,Autodesk,EAGLE,9.6.2*%
;CreationDate,2021-04-07T14:00:06Z*%
FMAT,2
ICI,OFF
METRIC,TZ,000.000
T13C0.500
T12C0.800
T11C0.813
T10C0.900
T9C1.000
T8C1.016
T7C1.100
T6C1.321
T5C1.499
T4C1.500
T3C3.000
T2C3.200
%
G90
M71
T2
X76715Y11000
X65285Y11000
X34510Y49747
X34510Y19747
T3
X95800Y4107
X4100Y4107
X95800Y75807
X4100Y75807
T4
X65230Y71817
X80340Y71817
X90540Y71817
X67630Y76817
X70030Y71817
X90440Y76817
X62530Y71817
X72730Y71817
X54265Y76817
X56665Y71817
X51865Y71817
X49165Y71817
X59365Y71817
X41170Y76817
X43570Y71817
X38770Y71817
X36070Y71817
X46270Y71817
X87840Y71817
X85440Y76817
X36170Y76817
X46170Y76817
X80440Y76817
X72630Y76817
X62630Y76817
X59265Y76817
X49265Y76817
X83040Y71817
T5
X34595Y8891
X41605Y8891
T6
X14732Y8382
X11176Y8382
X18288Y8382
X21590Y8382
X80264Y5461
X25146Y8382
X28702Y8382
T7
X8010Y49747
X8010Y36747
T8
X58072Y38371
X47620Y8577
X50160Y8577
X55240Y8577
X52700Y8577
X89980Y43180
X92520Y43180
X89980Y40640
X92520Y40640
X89980Y38100
X92520Y38100
X40361Y6402
X35839Y6402
X45372Y38371
X47912Y38371
X4572Y41099
X57780Y8577
X60320Y8577
X55532Y38371
X52992Y38371
X6350Y66677
X6350Y64137
X6350Y61597
X4572Y43994
X50452Y38371
T9
X21750Y3637
X25250Y3637
X28750Y3637
X18250Y3637
X14750Y3637
X11250Y3637
X66555Y17350
X69095Y17350
X71635Y17350
X70365Y19890
X72905Y19890
X74175Y17350
X75445Y19890
X26800Y69600
X67825Y19890
T10
X11770Y74810
X16170Y74810
T11
X36830Y66677
X71120Y66677
X63500Y66677
X44450Y66677
X88900Y66677
X81280Y66677
X50800Y66677
X58420Y66677
T12
X8010Y49747
X8010Y36747
X22000Y72600
X26800Y75850
T13
X71501Y52324
X55753Y52324
X53340Y49530
X91694Y10668
X84074Y42037
X86614Y42037
X54610Y45085
X43600Y33300
X82804Y45974
X91694Y53721
X25527Y36576
X74930Y52705
X91948Y8001
X16383Y59817
X17907Y50673
X56007Y19558
X50038Y31496
X76835Y14224
X95885Y43180
X97155Y54864
X30734Y49530
X81661Y32512
X92202Y51054
X87630Y11557
X89662Y8763
X79756Y1905
X78740Y6985
X24257Y49149
X98044Y10033
X98298Y13843
X91186Y5207
X82804Y4953
X81280Y3429
X82804Y3429
X77343Y41021
X78867Y42545
X91186Y3175
X85598Y11811
X66548Y49022
X75946Y49784
X64008Y51054
X92964Y55372
X19812Y48006
X31750Y1016
X17780Y44450
X72771Y38862
X70866Y37338
X85598Y17145
X76200Y17272
X70866Y30861
X67818Y28321
X15240Y61722
X44609Y5242
X52959Y4953
X61595Y2667
X59182Y56134
X78867Y41021
X77216Y42672
X97536Y18669
X97663Y29464
X86614Y34671
X66421Y40640
X66421Y36576
X40513Y31623
X22606Y38989
X28067Y17526
X6477Y24765
X6858Y71374
X3073Y50343
X70231Y40894
X56515Y57785
X41910Y57785
X67310Y57785
X47371Y56134
X52705Y55118
X15240Y44450
X83820Y51181
X70739Y45720
X59944Y16002
X77851Y35941
X69850Y24511
X69977Y39370
X76327Y34544
X73025Y26289
X53213Y43815
X48514Y50800
X80391Y27305
X81153Y34544
X48500Y42200
X60706Y27686
X60706Y42037
X88138Y46990
X82677Y36703
X84074Y37211
X87757Y49530
X93599Y32385
X84201Y45466
X49149Y59690
X75946Y48260
X71882Y59690
X70231Y51562
X89662Y58928
X73660Y49784
X19812Y74930
X36830Y55372
X83058Y55626
X83058Y60960
X38862Y61595
X65659Y61341
X52959Y61341
X41656Y53848
X15875Y64770
X58420Y51308
X63754Y59817
X47498Y65405
X61214Y64770
X75057Y66929
X78359Y59182
X81915Y47498
X82169Y50292
X31115Y57785
X44450Y25654
X78740Y25908
X90043Y34036
X41910Y20828
M30